<?xml version="1.0" encoding="UTF-8" standalone="no"?>
<!-- Created with Inkscape (http://www.inkscape.org/) -->

<svg
   width="72.006622mm"
   height="73.063217mm"
   viewBox="0 0 72.006622 73.063217"
   version="1.1"
   id="svg1"
   xml:space="preserve"
   xmlns="http://www.w3.org/2000/svg"
   xmlns:svg="http://www.w3.org/2000/svg"><defs
     id="defs1" /><g
     id="layer1"
     transform="translate(-101.97932,-131.37447)"><g
       id="g33"
       transform="translate(32.429649,58.481129)"><path
         style="fill:#ede0ca"
         d="m 90.285914,130.20094 -0.235185,-0.23519 v -4.32857 -4.32858 l -1.146528,-0.14228 -1.146528,-0.14228 1.322917,-0.0565 1.322916,-0.0565 v 4.56268 4.56268 l 0.970139,0.14696 0.970139,0.14697 -0.911342,0.0529 c -0.501239,0.0291 -1.017176,-0.053 -1.146528,-0.18233 z M 76.76032,108.21132 c -2.142183,-0.44664 -3.407123,-1.20006 -4.85527,-2.89189 l -1.28316,-1.49909 -0.536112,-1.84415 -0.536111,-1.84416 0.10817,-10.15976 0.108169,-10.159758 0.758285,-1.415735 c 0.963779,-1.799395 2.376586,-3.212202 4.175981,-4.17598 l 1.415734,-0.758286 h 11.288889 11.288889 l 1.444516,0.772967 1.44451,0.772966 1.15726,1.318044 c 0.63649,0.724924 1.41521,1.885214 1.73048,2.578422 l 0.57323,1.260379 v 10.759723 10.759718 l -0.82536,1.5875 c -1.1072,2.12961 -2.30498,3.33933 -4.25408,4.2965 l -1.623333,0.79719 -10.054167,0.0762 -10.054167,0.0762 z M 91.814618,95.511123 v -1.411111 l -2.910417,-0.0021 -2.910417,-0.0021 2.36413,-2.202793 2.364129,-2.202792 0.546287,-1.311586 c 0.300458,-0.721373 0.545694,-1.673873 0.544969,-2.116667 l -0.0013,-0.805081 -0.711961,-1.167756 -0.711962,-1.167757 -1.289206,-0.538665 -1.289207,-0.538665 -1.547674,0.232088 -1.547674,0.232089 -1.036826,0.945166 -1.036826,0.945167 -0.219611,1.146528 -0.21961,1.146527 h 1.371555 1.371554 l 0.348237,-0.79375 0.348237,-0.79375 h 1.411112 1.411111 l 0.111866,1.362775 0.111866,1.362775 -2.845878,2.915633 -2.845878,2.915632 -0.529183,1.266512 c -0.29105,0.696582 -0.529182,1.430361 -0.529182,1.630621 v 0.364108 h 4.938889 4.938889 z"
         id="path36" /><path
         style="fill:#f1a06e"
         d="m 82.223228,145.69436 c 2.970916,-0.0591 7.733416,-0.0589 10.583333,2.8e-4 l 5.181668,0.10769 -10.583334,-2.9e-4 -10.583333,-2.8e-4 z m 31.524552,-0.39749 -1.87933,-0.65967 -1.41375,-1.3679 c -0.77757,-0.75234 -1.75749,-2.0029 -2.17761,-2.77901 l -0.76386,-1.41111 v -11.1125 -11.1125 l 1.04647,-1.88932 1.04647,-1.88932 1.23541,-1.01833 1.23541,-1.01832 1.6635,-0.55253 1.66351,-0.55253 9.81295,0.10879 9.81295,0.10878 1.41111,0.76284 c 0.77611,0.41956 1.91806,1.29268 2.53768,1.94028 l 1.12657,1.17744 0.71776,1.5875 0.71777,1.5875 v 10.75972 10.75972 l -0.64326,1.41111 c -0.35379,0.77611 -1.08536,1.93486 -1.62571,2.57498 l -0.98244,1.16388 -1.80613,0.95279 -1.80613,0.9528 -9.525,0.0873 -9.525,0.0873 z m 13.6935,-9.74345 c 0.56067,-0.28994 1.26716,-0.88089 1.56998,-1.31322 l 0.55058,-0.78607 v -1.83042 -1.83042 l -1.00797,-0.84815 -1.00797,-0.84815 0.83158,-0.96677 0.83158,-0.96677 v -1.02207 c 0,-0.56213 -0.18965,-1.43831 -0.42146,-1.94706 l -0.42145,-0.925 -0.97214,-0.50271 -0.97213,-0.50271 h -1.98494 -1.98493 l -1.0312,1.0312 -1.03119,1.03119 v 1.50371 1.50371 l 0.75115,0.79956 0.75115,0.79957 -0.92754,1.10232 -0.92754,1.10232 v 1.58362 1.58363 l 0.37529,0.70124 c 0.20641,0.38568 0.8811,1.00965 1.49931,1.3866 l 1.12401,0.68536 1.69321,0.001 1.69322,10e-4 z m -3.99837,-2.58744 -0.58385,-0.64513 v -0.88769 -0.88768 l 0.64514,-0.58385 0.64514,-0.58384 h 0.7113 0.71129 l 0.58385,0.64514 0.58384,0.64514 v 0.91716 0.91716 l -0.55437,0.55437 -0.55436,0.55436 h -0.80207 -0.80207 z m 0.38629,-6.43867 -0.61736,-0.35958 v -0.65917 c 0,-0.36255 0.0964,-0.91028 0.21413,-1.21719 l 0.21413,-0.55802 h 0.95004 0.95003 l 0.42334,0.42333 0.42333,0.42333 v 0.79898 0.79898 l -0.68236,0.36519 c -0.83373,0.44619 -1.08566,0.44406 -1.87528,-0.0159 z m -18.80609,1.61576 3e-4,-10.23056 0.10794,5.22506 c 0.0594,2.87377 0.0592,7.47752 -3.1e-4,10.23055 l -0.10824,5.0055 z m -21.929098,4.50276 c 0.927486,-0.0729 2.356236,-0.072 3.175,0.002 l 1.488661,0.13452 -3.175,-0.002 -3.175,-0.002 z m -0.384246,-22.58148 c 2.462402,-0.0606 6.589902,-0.0607 9.172223,-3.7e-4 l 4.695129,0.10974 -9.172223,3.6e-4 -9.172222,3.7e-4 z m 31.266544,-1.9801 -1.6508,-0.45697 -1.2735,-0.97134 c -1.53362,-1.16975 -2.80917,-3.05757 -3.35892,-4.97121 l -0.40538,-1.41111 0.11276,-10.406942 0.11276,-10.406944 0.76284,-1.411111 c 0.89926,-1.663483 2.62889,-3.365128 4.35244,-4.282034 l 1.23472,-0.656855 9.94219,-0.108195 9.9422,-0.108195 1.42005,0.382381 1.42006,0.382381 1.49906,1.143374 1.49906,1.143373 0.98522,1.885919 0.98522,1.885919 v 10.907158 10.907161 l -0.51111,1.22325 c -0.28111,0.67279 -0.91542,1.75334 -1.40959,2.40122 l -0.89847,1.17796 -1.85361,1.02704 -1.85361,1.02703 -9.70139,0.0769 -9.70139,0.0768 z m 12.75791,-11.025313 c 0.003,0.172201 0.48165,-0.286191 1.06373,-1.018647 l 1.05833,-1.33174 v -0.657047 -0.657047 h 0.3595 0.3595 l -0.21169,-0.843458 -0.2117,-0.843458 0.38137,-0.235695 0.38136,-0.235695 v -1.369472 -1.369471 l -0.38136,-0.235695 -0.38137,-0.235695 0.2117,-0.843458 0.21169,-0.843458 h -0.3595 -0.3595 v -0.657047 -0.657047 l -0.97013,-1.216499 -0.97014,-1.216498 -1.95284,-0.0888 -1.95283,-0.08881 -1.00034,0.78686 -1.00033,0.78686 -0.53185,1.263685 c -0.78487,1.864884 -0.97095,3.830395 -0.65401,6.90813 0.26063,2.530861 0.16658,2.282193 1.33428,3.527778 0.54568,0.582083 0.99289,1.149025 0.99378,1.259871 9e-4,0.110846 0.83133,0.239396 1.84541,0.285668 1.01407,0.04627 1.91604,0.156402 2.00437,0.244736 0.0883,0.08833 0.28808,-0.04022 0.44389,-0.285668 l 0.28327,-0.446274 z m -3.15678,-2.767083 -0.42634,-0.513713 0.21251,-0.343855 0.21252,-0.343855 -0.35854,-0.221585 -0.35853,-0.221585 v -2.780583 -2.780582 l 0.35853,-0.221585 0.35854,-0.221585 -0.21252,-0.343855 -0.21251,-0.343855 0.42634,-0.513713 0.42635,-0.513714 h 0.64995 0.64994 l 0.3776,0.705556 0.37761,0.705556 h -0.25936 c -0.14265,0 -0.0689,0.1905 0.16398,0.423333 l 0.42333,0.423333 v 2.730847 2.730847 l -0.37683,0.232892 -0.37683,0.232893 0.17288,0.450495 0.17287,0.450495 -0.39577,0.395766 c -0.54994,0.549946 -1.49767,0.494214 -2.00572,-0.117948 z"
         id="path35" /><path
         style="fill:#f57d61"
         d="m 74.918242,144.67597 -1.865464,-0.9296 -1.055281,-1.45165 c -0.580405,-0.79841 -1.318717,-2.00728 -1.640694,-2.68637 l -0.585413,-1.23473 -0.0027,-10.23055 -0.0027,-10.23056 0.811821,-1.76389 0.811821,-1.76389 1.128457,-1.17744 c 0.620651,-0.64759 1.763457,-1.52071 2.539568,-1.94027 l 1.411111,-0.76284 h 10.936111 10.936112 l 1.5875,0.93657 c 1.950529,1.15074 2.865409,2.12201 3.936079,4.17871 l 0.82642,1.5875 0.10298,10.48355 0.10299,10.48355 -0.76031,1.76738 -0.7603,1.76738 -1.56885,1.44611 c -0.86286,0.79536 -2.109778,1.67213 -2.770926,1.94837 l -1.202089,0.50227 H 87.309103 76.783705 Z m 15.485264,-10.35929 v -1.41111 h 0.881945 0.881944 v -1.41111 -1.41111 h -0.881944 -0.881945 v -4.58612 -4.58611 l -1.322916,0.0136 -1.322917,0.0136 -3.081277,4.48436 -3.081278,4.48437 -0.0055,1.4993 -0.0055,1.49931 h 2.998611 2.998611 v 1.41111 1.41111 h 1.411111 1.411111 z m -4.699444,-6.08542 c 0.713133,-1.01864 1.427244,-2.00289 1.586914,-2.18722 l 0.290308,-0.33514 v 2.18722 2.18723 h -1.586913 -1.586914 z"
         id="path34" /></g><path
       style="fill:#7c746b;fill-opacity:1;stroke:none;stroke-width:0.666579"
       d="m 432.41494,585.83996 c 0.12288,-0.77907 1.05507,-3.51621 2.07154,-6.08254 l 1.84813,-4.66605 6.2207,-6.33251 c 3.42138,-3.48288 8.28379,-8.43537 10.80537,-11.00553 l 4.58467,-4.67304 -0.35586,-4.49243 c -0.53667,-6.77502 0.25844,-5.99224 -6.08668,-5.99224 h -5.42465 l -1.28476,2.99961 -1.28475,2.9996 h -4.94938 c -5.7933,0 -5.34485,0.53646 -4.18391,-5.00493 l 0.73433,-3.50513 3.83284,-3.52641 3.83283,-3.52642 5.82373,-0.88698 5.82374,-0.88698 4.84302,2.03547 4.84303,2.03546 2.62464,4.32943 2.62465,4.32943 -0.17141,3.22008 c -0.13009,2.44395 -0.41849,3.90759 -1.19651,6.07247 -2.32353,6.46524 -2.03862,6.09672 -11.55002,14.93961 -4.76604,4.43107 -8.71552,8.20229 -8.77662,8.38051 -0.0705,0.20548 3.86188,0.32402 10.74859,0.32402 h 10.85969 v 5.16599 5.16599 h -18.54018 -18.54017 z"
       id="path38"
       transform="scale(0.26458333)" /></g></svg>
