<?xml version="1.0" encoding="UTF-8" standalone="no"?>
<!-- Uploaded to: SVG Repo, www.svgrepo.com, Generator: SVG Repo Mixer Tools -->

<svg
   width="600"
   height="750.00464"
   viewBox="0 0 24 30.000186"
   enable-background="new 0 0 32 32"
   id="_x3C_Layer_x3E_"
   version="1.1"
   xml:space="preserve"
   sodipodi:docname="doc.svg"
   inkscape:version="1.4.2 (ebf0e940d0, 2025-05-08)"
   xmlns:inkscape="http://www.inkscape.org/namespaces/inkscape"
   xmlns:sodipodi="http://sodipodi.sourceforge.net/DTD/sodipodi-0.dtd"
   xmlns="http://www.w3.org/2000/svg"
   xmlns:svg="http://www.w3.org/2000/svg"><sodipodi:namedview
   id="namedview1"
   pagecolor="#ffffff"
   bordercolor="#000000"
   borderopacity="0.25"
   inkscape:showpageshadow="2"
   inkscape:pageopacity="0.0"
   inkscape:pagecheckerboard="0"
   inkscape:deskcolor="#d1d1d1"
   inkscape:zoom="1.1226597"
   inkscape:cx="300.18"
   inkscape:cy="375.00232"
   inkscape:window-width="1883"
   inkscape:window-height="1055"
   inkscape:window-x="37"
   inkscape:window-y="0"
   inkscape:window-maximized="1"
   inkscape:current-layer="_x3C_Layer_x3E_" /><defs
   id="defs23" />

<g
   id="file"
   transform="translate(-4,-0.99981473)"
   style="fill:#f2f2f2">

<g
   id="g3"
   style="fill:#f2f2f2">

<g
   id="g1"
   style="fill:#f2f2f2">

<path
   d="M 27.5,31 H 6.5 C 6.224,31 6,30.776 6,30.5 6,30.224 6.224,30 6.5,30 H 27 V 3.5 C 27,3.224 27.224,3 27.5,3 27.776,3 28,3.224 28,3.5 v 27 c 0,0.276 -0.224,0.5 -0.5,0.5 z"
   fill="#263238"
   id="path1"
   style="fill:#f2f2f2" />

</g>

<g
   id="g2"
   style="fill:#f2f2f2">

<path
   d="M 25.5,29 H 4.5 C 4.224,29 4,28.776 4,28.5 V 7.5 C 4,7.224 4.224,7 4.5,7 4.776,7 5,7.224 5,7.5 V 28 H 25 V 2 H 12.5 C 12.224,2 12,1.776 12,1.5 12,1.224 12.224,1 12.5,1 h 13 C 25.776,1 26,1.224 26,1.5 v 27 c 0,0.276 -0.224,0.5 -0.5,0.5 z"
   fill="#263238"
   id="path2"
   style="fill:#f2f2f2" />

</g>

</g>

<g
   id="g5"
   style="fill:#f2f2f2">

<g
   id="g4"
   style="fill:#f2f2f2">

<path
   d="M 10.5,8 H 4.521 C 4.319,8 4.137,7.878 4.06,7.691 3.982,7.505 4.025,7.29 4.167,7.147 l 5.979,-6 C 10.289,1.002 10.505,0.961 10.691,1.038 10.878,1.115 11,1.298 11,1.5 v 6 C 11,7.776 10.776,8 10.5,8 Z M 5.726,7 H 10 V 2.71 Z"
   fill="#263238"
   id="path3"
   style="fill:#f2f2f2" />

</g>

</g>

<g
   id="g7"
   style="fill:#f2f2f2">

<g
   id="g6"
   style="fill:#f2f2f2">

<path
   d="m 7.5,15 h 8 C 15.776,15 16,14.776 16,14.5 16,14.224 15.776,14 15.5,14 h -8 C 7.224,14 7,14.224 7,14.5 7,14.776 7.224,15 7.5,15 Z"
   fill="#263238"
   id="path5"
   style="fill:#f2f2f2" />

</g>

</g>

<g
   id="g9"
   style="fill:#f2f2f2">

<g
   id="g8"
   style="fill:#f2f2f2">

<path
   d="m 7.5,17 h 5 C 12.776,17 13,16.776 13,16.5 13,16.224 12.776,16 12.5,16 h -5 C 7.224,16 7,16.224 7,16.5 7,16.776 7.224,17 7.5,17 Z"
   fill="#263238"
   id="path7"
   style="fill:#f2f2f2" />

</g>

</g>

<g
   id="g11"
   style="fill:#f2f2f2">

<g
   id="g10"
   style="fill:#f2f2f2">

<path
   d="m 14.5,17 h 8 C 22.776,17 23,16.776 23,16.5 23,16.224 22.776,16 22.5,16 h -8 c -0.276,0 -0.5,0.224 -0.5,0.5 0,0.276 0.224,0.5 0.5,0.5 z"
   fill="#263238"
   id="path9"
   style="fill:#f2f2f2" />

</g>

</g>

<g
   id="g13"
   style="fill:#f2f2f2">

<g
   id="g12"
   style="fill:#f2f2f2">

<path
   d="m 7.5,21 h 7 C 14.776,21 15,20.776 15,20.5 15,20.224 14.776,20 14.5,20 h -7 C 7.224,20 7,20.224 7,20.5 7,20.776 7.224,21 7.5,21 Z"
   fill="#263238"
   id="path11"
   style="fill:#f2f2f2" />

</g>

</g>

<g
   id="g15"
   style="fill:#f2f2f2">

<g
   id="g14"
   style="fill:#f2f2f2">

<path
   d="m 7.5,19 h 10 C 17.776,19 18,18.776 18,18.5 18,18.224 17.776,18 17.5,18 H 7.5 C 7.224,18 7,18.224 7,18.5 7,18.776 7.224,19 7.5,19 Z"
   fill="#263238"
   id="path13"
   style="fill:#f2f2f2" />

</g>

</g>

<g
   id="g17"
   style="fill:#f2f2f2">

<g
   id="g16"
   style="fill:#f2f2f2">

<path
   d="m 19.5,19 h 3 C 22.776,19 23,18.776 23,18.5 23,18.224 22.776,18 22.5,18 h -3 c -0.276,0 -0.5,0.224 -0.5,0.5 0,0.276 0.224,0.5 0.5,0.5 z"
   fill="#263238"
   id="path15"
   style="fill:#f2f2f2" />

</g>

</g>

<g
   id="g19"
   style="fill:#f2f2f2">

<g
   id="g18"
   style="fill:#f2f2f2">

<path
   d="m 17.5,15 h 5 C 22.776,15 23,14.776 23,14.5 23,14.224 22.776,14 22.5,14 h -5 c -0.276,0 -0.5,0.224 -0.5,0.5 0,0.276 0.224,0.5 0.5,0.5 z"
   fill="#263238"
   id="path17"
   style="fill:#f2f2f2" />

</g>

</g>

<g
   id="g21"
   style="fill:#f2f2f2">

<g
   id="g20"
   style="fill:#f2f2f2">

<path
   d="m 9.5,11 h 13 C 22.776,11 23,10.776 23,10.5 23,10.224 22.776,10 22.5,10 H 9.5 C 9.224,10 9,10.224 9,10.5 9,10.776 9.224,11 9.5,11 Z"
   fill="#263238"
   id="path19"
   style="fill:#f2f2f2" />

</g>

</g>

<g
   id="g23"
   style="fill:#f2f2f2">

<g
   id="g22"
   style="fill:#f2f2f2">

<path
   d="m 7.5,13 h 15 C 22.776,13 23,12.776 23,12.5 23,12.224 22.776,12 22.5,12 H 7.5 C 7.224,12 7,12.224 7,12.5 7,12.776 7.224,13 7.5,13 Z"
   fill="#263238"
   id="path21"
   style="fill:#f2f2f2" />

</g>

</g>

</g>

</svg>
