<?xml version="1.0" encoding="UTF-8" standalone="no"?>
<svg
   version="1.0"
   width="1169.698671pt"
   height="1786.080479pt"
   viewBox="0 0 1169.698671 1786.080479"
   preserveAspectRatio="xMidYMid meet"
   id="svg14"
   sodipodi:docname="socialcert.svg"
   inkscape:version="1.2.2 (b0a8486541, 2022-12-01)"
   xmlns:inkscape="http://www.inkscape.org/namespaces/inkscape"
   xmlns:sodipodi="http://sodipodi.sourceforge.net/DTD/sodipodi-0.dtd"
   xmlns="http://www.w3.org/2000/svg"
   xmlns:svg="http://www.w3.org/2000/svg">
  <defs
     id="defs18" />
  <sodipodi:namedview
     id="namedview16"
     pagecolor="#ffffff"
     bordercolor="#000000"
     borderopacity="0.25"
     inkscape:showpageshadow="2"
     inkscape:pageopacity="0.0"
     inkscape:pagecheckerboard="0"
     inkscape:deskcolor="#d1d1d1"
     inkscape:document-units="pt"
     showgrid="false"
     inkscape:zoom="0.35230776"
     inkscape:cx="781.98675"
     inkscape:cy="1193.5587"
     inkscape:window-width="1920"
     inkscape:window-height="1020"
     inkscape:window-x="0"
     inkscape:window-y="32"
     inkscape:window-maximized="1"
     inkscape:current-layer="svg14" />
  <metadata
     id="metadata2"> Created by potrace 1.16, written by Peter Selinger 2001-2019 </metadata>
  <g
     transform="translate(-610.172113,2105.824186) scale(0.100000,-0.100000)"
     fill="#000000"
     stroke="none"
     id="g12"
     style="fill:#f9f9f9">
    <path
       d="M9680 21053 c-460 -16 -967 -102 -1350 -230 -378 -126 -766 -331 -1035 -548 -649 -522 -970 -1255 -880 -2015 107 -914 646 -1632 1560 -2080 440 -216 1003 -381 1610 -475 259 -39 386 -63 545 -101 875 -209 1469 -596 1715 -1117 86 -181 121 -358 112 -562 -6 -154 -24 -239 -97 -455 -70 -208 -88 -317 -98 -580 -20 -512 41 -1017 133 -1109 24 -25 24 -25 62 -7 55 26 242 156 353 245 473 379 771 916 877 1576 25 157 25 583 0 745 -91 580 -326 1057 -712 1445 -339 340 -739 576 -1274 749 -370 120 -753 201 -1356 286 -734 104 -1247 270 -1593 517 -93 66 -234 204 -301 293 -163 218 -243 482 -244 800 0 207 27 330 109 509 80 173 255 379 434 511 720 529 1897 608 2742 184 166 -83 341 -204 472 -325 38 -35 164 -174 280 -309 354 -412 503 -549 629 -582 71 -18 264 -15 350 5 125 31 215 87 278 176 139 194 101 516 -101 854 -230 385 -599 773 -975 1024 -433 290 -929 470 -1496 542 -159 21 -496 42 -604 39 -33 -1 -98 -3 -145 -5z"
       id="path4"
       style="fill:#f9f9f9" />
    <path
       d="M14240 17803 c-321 -22 -690 -99 -1118 -233 -361 -113 -562 -195 -900 -368 l-193 -98 62 -39 c101 -62 400 -280 712 -517 l289 -221 267 81 c381 117 565 157 850 188 172 18 527 20 686 5 435 -44 858 -170 1242 -371 168 -88 288 -163 482 -301 315 -224 490 -297 693 -287 87 4 106 9 172 41 104 52 198 153 261 280 43 86 48 103 52 184 9 145 -23 251 -117 392 -372 556 -1510 1086 -2645 1231 -269 34 -586 48 -795 33z"
       id="path6"
       style="fill:#f9f9f9" />
    <path
       d="M10147 14796 c-82 -30 -124 -101 -202 -339 -348 -1067 -359 -2200 -30 -3227 206 -641 546 -1242 1001 -1767 146 -168 431 -445 604 -586 1119 -911 2511 -1278 3870 -1021 307 58 686 173 970 294 289 124 618 302 863 469 288 196 471 423 538 666 18 66 21 98 17 191 -4 105 -7 117 -41 187 -131 265 -476 319 -862 134 -61 -30 -183 -97 -271 -149 -582 -347 -1030 -541 -1439 -623 -244 -49 -352 -59 -645 -59 -339 0 -494 18 -800 94 -1171 293 -2173 1265 -2582 2503 -137 417 -198 799 -198 1244 0 341 25 576 97 898 44 199 54 371 29 479 -49 209 -225 373 -561 523 -196 88 -293 112 -358 89z"
       id="path8"
       style="fill:#f9f9f9" />
    <path
       d="M6552 13929 c-225 -33 -403 -181 -443 -370 -15 -70 -6 -203 21 -299 29 -102 113 -274 197 -400 153 -230 326 -421 741 -812 l232 -220 0 -4109 0 -4108 135 -159 c186 -221 231 -256 335 -255 207 3 489 216 1740 1318 1162 1023 1862 1626 2012 1736 50 36 47 37 233 -111 183 -147 281 -231 1100 -950 1788 -1568 2081 -1815 2270 -1917 69 -38 71 -38 180 -37 184 1 239 33 427 254 l98 115 0 1767 c0 973 -3 1768 -6 1768 -3 0 -49 -11 -102 -24 -1008 -255 -2100 -170 -3152 247 -233 92 -630 287 -830 407 -1239 745 -2141 1850 -2556 3129 -94 289 -160 591 -200 916 -65 537 -84 626 -137 659 -12 7 -48 17 -80 20 -85 9 -164 38 -324 117 -266 131 -626 392 -848 614 -134 134 -197 216 -242 315 -19 41 -40 86 -46 100 -19 40 -127 142 -190 179 -116 68 -326 123 -455 120 -26 -1 -75 -6 -110 -10z"
       id="path10"
       style="fill:#f9f9f9" />
  </g>
</svg>
