<?xml version="1.0" encoding="UTF-8" standalone="no"?>
<svg
   height="156.56215"
   width="152.28523"
   version="1.1"
   id="Layer_1"
   viewBox="0 0 487.31274 500.99888"
   xml:space="preserve"
   xmlns="http://www.w3.org/2000/svg"
   xmlns:svg="http://www.w3.org/2000/svg">
  <defs
   id="defs4">
    <style
   id="style2">
      :root { color-scheme: light; } /* dark-mode fix */
    </style>
  </defs>
  
  <defs
   id="defs409" />





<path
   style="fill:#ffcc00;fill-opacity:1;stroke:#000000;stroke-width:0;stroke-miterlimit:0.900001;stroke-dasharray:none;stroke-dashoffset:0;stroke-opacity:1"
   d="m 58.760354,498.37945 c 2.873742,-16.44989 11.565331,-75.46022 11.565331,-78.5212 0,-3.87877 -0.214575,-4.26243 -6.168233,-11.02881 C 39.674443,381.00438 24.318319,355.40239 13.555498,324.46506 7.2964203,306.47354 3.8773064,291.93818 1.3544099,272.59572 -0.4598549,258.68618 -0.4496151,228.76481 1.3741858,214.80689 8.6900266,158.81729 32.186317,110.79524 71.484452,71.514556 110.8259,32.190564 158.83265,8.7015449 214.78175,1.401216 c 14.43859,-1.88396938 44.05431,-1.86487954 58.10078,0.037452 24.65874,3.3395624 46.22326,9.156045 66.41544,17.913878 78.35823,33.98581 132.71176,104.337914 145.77997,188.689174 2.12607,13.72312 2.94085,44.83398 1.53578,58.63904 -4.74315,46.60131 -20.9959,87.7663 -49.51324,125.40739 -8.84362,11.67299 -30.33309,33.57324 -41.87537,42.67579 -33.54036,26.45075 -73.39842,43.82975 -115.38911,50.31216 -13.91901,2.1488 -44.13958,2.95857 -58.90259,1.5783 -13.1062,-1.22535 -28.97455,-4.13517 -41.96722,-7.69563 -10.49931,-2.87722 -30.33772,-10.10434 -37.18191,-13.54535 -7.4169,-3.72896 -7.4728,-3.70999 -42.21659,14.32036 -17.177465,8.91426 -33.489223,17.34567 -36.24835,18.73645 l -5.016597,2.52865 z M 310.75752,418.73266 c 4.56044,-3.07328 4.68142,-3.75515 4.69102,-26.43981 0.008,-19.36321 -0.0945,-20.86282 -1.5975,-23.32801 -2.23249,-3.6617 -5.79648,-4.9265 -13.8823,-4.9265 h -6.79073 l -0.003,-86.95219 c -0.003,-84.8365 -0.0408,-87.0142 -1.55662,-89.50024 -3.21314,-5.26975 -0.71098,-5.06848 -60.05104,-4.8304 l -53.66724,0.21534 -2.15613,1.98975 c -4.03455,3.72324 -4.33878,5.54968 -4.33744,26.0402 8e-4,16.4477 0.18359,19.28586 1.39283,21.6573 2.46305,4.83032 4.92819,5.99078 13.38656,6.30163 l 7.5046,0.27582 v 62.32459 62.32459 l -7.5046,0.27599 c -8.45837,0.31088 -10.92351,1.47128 -13.38656,6.30162 -1.21039,2.37373 -1.39158,5.2163 -1.39158,21.83071 0,21.37667 0.33847,23.00806 5.48755,26.44787 l 2.70439,1.80662 h 64.23258 64.2326 z m -52.9971,-254.8556 c 2.62646,-0.66964 7.81972,-2.70783 11.54056,-4.52932 9.55758,-4.67881 19.04962,-14.16931 23.73686,-23.73303 4.57942,-9.34373 6.01596,-15.40785 6.03334,-25.46883 0.0176,-10.263187 -1.0714,-15.048841 -5.52455,-24.274978 -9.02676,-18.701902 -26.01928,-30.10075 -46.55908,-31.232558 -27.94642,-1.539931 -52.29332,17.156908 -57.73315,44.33532 -6.2565,31.258606 14.49251,60.949906 46.22077,66.140716 5.34338,0.87419 16.41431,0.25951 22.28525,-1.23732 z"
   id="path1482" /></svg>
