<?xml version="1.0" encoding="UTF-8" standalone="no"?>
<!-- Created with Inkscape (http://www.inkscape.org/) -->

<svg
   width="120mm"
   height="120mm"
   viewBox="-60 -60 120 120"
   sodipodi:docname="authsig.svg"
   version="1.1"
   id="svg263"
   inkscape:version="1.2.2 (b0a8486541, 2022-12-01)"
   xml:space="preserve"
   xmlns:inkscape="http://www.inkscape.org/namespaces/inkscape"
   xmlns:sodipodi="http://sodipodi.sourceforge.net/DTD/sodipodi-0.dtd"
   xmlns="http://www.w3.org/2000/svg"
   xmlns:svg="http://www.w3.org/2000/svg"
   xmlns:rdf="http://www.w3.org/1999/02/22-rdf-syntax-ns#"
   xmlns:cc="http://creativecommons.org/ns#"
   xmlns:dc="http://purl.org/dc/elements/1.1/"><defs
     id="defs265" /><sodipodi:namedview
     pagecolor="#ffffff"
     bordercolor="#666666"
     borderopacity="1.0"
     inkscape:pageopacity="0.0"
     inkscape:pageshadow="2"
     inkscape:zoom="1.4142136"
     inkscape:cx="282.48915"
     inkscape:cy="210.71782"
     inkscape:document-units="mm"
     inkscape:current-layer="Template"
     showgrid="false"
     units="mm"
     showguides="true"
     inkscape:guide-bbox="true"
     inkscape:snap-global="true"
     inkscape:snap-bbox="true"
     inkscape:snap-bbox-midpoints="true"
     inkscape:window-width="1880"
     inkscape:window-height="1056"
     inkscape:window-x="40"
     inkscape:window-y="0"
     inkscape:window-maximized="1"
     inkscape:bbox-paths="true"
     inkscape:bbox-nodes="true"
     inkscape:snap-bbox-edge-midpoints="true"
     inkscape:snap-grids="true"
     id="namedview253"
     inkscape:showpageshadow="2"
     inkscape:pagecheckerboard="0"
     inkscape:deskcolor="#d1d1d1"><sodipodi:guide
       orientation="1,0"
       position="226.771653543,226.771653543"
       id="guide2827"
       inkscape:locked="false" /><sodipodi:guide
       orientation="0,1"
       position="226.771653543,226.771653543"
       id="guide2829"
       inkscape:locked="false" /><inkscape:grid
       type="xygrid"
       id="grid3072"
       empspacing="10"
       visible="true"
       enabled="true"
       snapvisiblegridlinesonly="true"
       units="mm"
       dotted="false"
       spacingx="0.1mm"
       spacingy="0.1mm" /></sodipodi:namedview><metadata
     id="metadata2822"><rdf:RDF><cc:Work
         rdf:about=""><dc:format>image/svg+xml</dc:format><dc:type
           rdf:resource="http://purl.org/dc/dcmitype/StillImage" /></cc:Work></rdf:RDF></metadata><g
     inkscape:label="Layer 1"
     inkscape:groupmode="layer"
     id="Template"
     style="fill:none;stroke:black;stroke-width:0.05"><path
       style="fill:#55bdaa;fill-opacity:0.992157;stroke-width:0.0125"
       d=""
       id="path7292"
       transform="matrix(0.26458333,0,0,0.26458333,-60,-60)" /><path
       style="fill:none;stroke:#152b3b;stroke-width:0.00569512"
       d="m 54.342205,-2.5176998 c 0.183725,0.526799 0.0541,0.828868 0.08862,1.139025 0.09044,0.81406099 0.02529,1.43118399 0.02529,2.16414699 0,0.30730901 0,0.71656001 0,1.36683001 0,0.209352 0,0.417224 0,0.911219 0,0.300817 0,0.816226 0,1.139025 v 2.619757 c 0,0.309359 0,0.874544 0,1.139025 0,0.578511 0,0.83126 0,1.139025 0,0.05353 -0.01743,0.251838 0.0032,0.45561 0.02961,0.292729 0.0014,0.319041 0.237258,0.41768 0.149554,0.06242 0.467684,0.03747 0.670772,0.03793 0.356173,7.97e-4 0.538417,0.02642 0.91122,0.08862 0.463241,0.07723 1.010429,0.09921 1.480732,0.164475 0.559945,0.0778 1.175816,0.236803 1.708537,0.386016 0.846979,0.237258 1.666735,0.367677 2.505855,0.756198 1.764577,0.816909 3.476873,1.622655 5.011709,2.841184 0.37155,0.295007 0.703917,0.593432 1.025122,0.879668 0.309132,0.275531 0.486819,0.382371 0.797318,0.692869 0.310498,0.310498 0.417338,0.488186 0.692868,0.797318 0.144884,0.162538 0.282592,0.288401 0.42087,0.45561 0.302183,0.365399 0.577941,0.739341 0.857458,1.139024 0.435449,0.622933 0.832285,1.287782 1.218073,1.936342 0.376448,0.632729 0.756996,1.225477 1.021933,1.936343 0.70836,1.900577 1.273202,3.787371 1.474468,5.809026 0.05456,0.548669 0.03258,0.668038 0.09807,1.139025 0.06846,0.493198 0.0336,1.307031 0.02529,1.82244 -0.0091,0.564728 -0.05741,0.78718 -0.139189,1.36683 -0.131329,0.929786 -0.250585,1.834399 -0.45242,2.733659 -0.179511,0.799254 -0.546049,1.720839 -0.81315,2.505855 -0.253092,0.743669 -0.609606,1.373891 -0.961907,2.050244 -0.346149,0.664621 -0.787635,1.320813 -1.20224,1.936342 -0.431121,0.639904 -0.89983,1.218985 -1.398495,1.82244 -1.738266,2.103551 -3.982486,3.619935 -6.308944,4.869331 -1.080251,0.580105 -2.383637,1.026945 -3.530977,1.350997 -1.04198,0.294324 -2.190914,0.491034 -3.303172,0.604367 -0.445245,0.04533 -0.599127,0.07142 -1.025122,0.113902 -0.422009,0.04203 -1.04198,0.02586 -1.480733,0.01264 -0.248649,-0.0075 -0.422578,0.0088 -0.683414,-0.0064 -0.336241,-0.01948 -0.49559,-0.07575 -0.797318,-0.110713 -0.202518,-0.02346 -0.460621,-0.08224 -0.683415,-0.104449 -1.912308,-0.190331 -3.671418,-0.701411 -5.467319,-1.420591 -0.433854,-0.173702 -0.831716,-0.339885 -1.252927,-0.550491 -1.207936,-0.604025 -2.381473,-1.45966 -3.417075,-2.297071 -0.168006,-0.135772 -0.29421,-0.260951 -0.45561,-0.401848 -0.209352,-0.1827 -0.365171,-0.290452 -0.569512,-0.474518 -0.268582,-0.241815 -0.401279,-0.391825 -0.683415,-0.673961 -0.267671,-0.267671 -0.425426,-0.413238 -0.658129,-0.683415 -0.138049,-0.160375 -0.236005,-0.294438 -0.373372,-0.45561 -0.148529,-0.174499 -0.328836,-0.392052 -0.471328,-0.569512 -0.22268,-0.277125 -0.411416,-0.510853 -0.61701,-0.797318 -0.166298,-0.231677 -0.301728,-0.443194 -0.461989,-0.683415 -0.723964,-1.08606 -1.217959,-2.214378 -1.727445,-3.417074 -0.178257,-0.420756 -0.419388,-0.935139 -0.544226,-1.36683 -0.192723,-0.666101 -0.312662,-1.358287 -0.484085,-2.050244 -0.147846,-0.596621 -0.249219,-1.576525 -0.332254,-2.164147 -0.03588,-0.254117 -0.02529,-0.429185 -0.02529,-0.683415 0,-0.243182 0.0036,-0.371778 0,-0.569513 -0.0026,-0.143061 -0.008,-0.865089 -0.0032,-1.025122 0.0085,-0.284756 0.0032,-0.402531 0.0032,-0.683415 0,-0.273138 -0.0097,-0.461419 0.0032,-0.683415 0.01845,-0.31961 0.150465,-0.907005 0.19933,-1.252927 0.06344,-0.449231 0.08907,-0.823971 0.164475,-1.252927 0.15673,-0.89049 0.479643,-1.86242 0.772031,-2.73366 0.157071,-0.468025 0.327014,-0.913498 0.544226,-1.36683 0.428501,-0.894362 0.880124,-1.794875 1.430045,-2.619757 0.541037,-0.811441 1.122054,-1.685415 1.7877,-2.391952 0.37417,-0.397178 0.617124,-0.620313 1.021933,-1.025122 0.33886,-0.33886 0.482377,-0.504247 0.797317,-0.787864 0.187028,-0.168461 0.376904,-0.311181 0.569513,-0.465064 0.516206,-0.412213 1.150984,-0.882516 1.708537,-1.252927 0.283731,-0.188508 0.515523,-0.33157 0.797317,-0.499918 0.781713,-0.466772 1.779157,-0.906891 2.619758,-1.294046 0.344896,-0.158894 0.785016,-0.29011 1.139024,-0.408112 0.496046,-0.165387 0.96726,-0.277011 1.480733,-0.401848 0.945504,-0.229856 2.240575,-0.382941 3.189269,-0.541037 0.27872,-0.04647 0.531355,-0.04431 0.797318,-0.04431 0.365399,0 0.591495,0 1.025122,0 m 20.388533,20.160762 c -0.0434,0 0.18361,0 0.455609,0 0.648789,0 0.668722,0 1.252928,0 0.278719,0 0.884908,0 1.252927,0 h 2.847562 c 0.440347,0 0.852674,0 1.139025,0 1.383345,0 1.833602,0.0287 2.278049,-0.04431 0.512448,-0.08417 0.998811,-0.07506 1.594635,-0.06959 0.366538,0.0034 0.682959,-0.0097 1.36683,0.113903 m -65.038316,0 c 0.600266,0 0.901538,0 1.252927,0 0.609036,0 1.185041,0 1.708537,0 0.461647,0 0.966463,0 2.391952,0 0.286351,0 0.698678,0 1.139025,0 h 2.847562 c 0.346947,0 0.875454,0 1.139025,0 0.431804,0 0.633525,0 0.91122,0 0.09283,0 0.205366,0 0.45561,0 0.252407,0 0.470303,0 0.455609,0 m 20.274642,20.160739 c 0,0.06082 0,0.193976 0,0.45561 0,0.646282 0,0.708245 0,1.366829 0,0.27872 0,0.884909 0,1.252928 v 2.847562 c 0,0.440347 0,0.852674 0,1.139025 0,1.335164 -0.06572,1.735418 -0.104448,2.164147 -0.05297,0.586825 -0.0031,1.138569 -0.0095,1.822439 -0.0031,0.331798 0,0.506639 0,1.36683"
       id="path18822" /><text
       xml:space="preserve"
       style="font-style:normal;font-variant:normal;font-weight:bold;font-stretch:normal;font-size:34.6718px;font-family:sans-serif;-inkscape-font-specification:'sans-serif Bold';fill:#008000;stroke-width:0.0180582"
       x="-66.751816"
       y="5.7113595"
       id="text290"
       transform="scale(0.87841084,1.1384195)"><tspan
         sodipodi:role="line"
         id="tspan288"
         style="font-size:34.6718px;stroke-width:0.0180582"
         x="-66.751816"
         y="5.7113595"><tspan
           style="fill:#ffffff;stroke-width:0.0180582"
           id="tspan342">Auth</tspan><tspan
           style="fill:#00ff00"
           id="tspan620">Sig</tspan></tspan></text></g></svg>
