<?xml version="1.0" encoding="UTF-8" standalone="no"?>
<!-- Created with Inkscape (http://www.inkscape.org/) -->

<svg
   width="120mm"
   height="120mm"
   viewBox="-60 -60 120 120"
   sodipodi:docname="babbage.svg"
   version="1.1"
   id="svg263"
   inkscape:version="1.2.2 (b0a8486541, 2022-12-01)"
   xml:space="preserve"
   xmlns:inkscape="http://www.inkscape.org/namespaces/inkscape"
   xmlns:sodipodi="http://sodipodi.sourceforge.net/DTD/sodipodi-0.dtd"
   xmlns="http://www.w3.org/2000/svg"
   xmlns:svg="http://www.w3.org/2000/svg"
   xmlns:rdf="http://www.w3.org/1999/02/22-rdf-syntax-ns#"
   xmlns:cc="http://creativecommons.org/ns#"
   xmlns:dc="http://purl.org/dc/elements/1.1/"><defs
     id="defs265" /><sodipodi:namedview
     pagecolor="#ffffff"
     bordercolor="#666666"
     borderopacity="1.0"
     inkscape:pageopacity="0.0"
     inkscape:pageshadow="2"
     inkscape:zoom="1"
     inkscape:cx="324.5"
     inkscape:cy="188"
     inkscape:document-units="mm"
     inkscape:current-layer="Template"
     showgrid="false"
     units="mm"
     showguides="true"
     inkscape:guide-bbox="true"
     inkscape:snap-global="true"
     inkscape:snap-bbox="true"
     inkscape:snap-bbox-midpoints="true"
     inkscape:window-width="1880"
     inkscape:window-height="1056"
     inkscape:window-x="40"
     inkscape:window-y="0"
     inkscape:window-maximized="1"
     inkscape:bbox-paths="true"
     inkscape:bbox-nodes="true"
     inkscape:snap-bbox-edge-midpoints="true"
     inkscape:snap-grids="true"
     id="namedview253"
     inkscape:showpageshadow="2"
     inkscape:pagecheckerboard="0"
     inkscape:deskcolor="#d1d1d1"><sodipodi:guide
       orientation="1,0"
       position="226.771653543,226.771653543"
       id="guide2827"
       inkscape:locked="false" /><sodipodi:guide
       orientation="0,1"
       position="226.771653543,226.771653543"
       id="guide2829"
       inkscape:locked="false" /><inkscape:grid
       type="xygrid"
       id="grid3072"
       empspacing="10"
       visible="true"
       enabled="true"
       snapvisiblegridlinesonly="true"
       units="mm"
       dotted="false"
       spacingx="0.1mm"
       spacingy="0.1mm" /></sodipodi:namedview><metadata
     id="metadata2822"><rdf:RDF><cc:Work
         rdf:about=""><dc:format>image/svg+xml</dc:format><dc:type
           rdf:resource="http://purl.org/dc/dcmitype/StillImage" /></cc:Work></rdf:RDF></metadata><g
     inkscape:label="Layer 1"
     inkscape:groupmode="layer"
     id="Template"
     style="fill:none;stroke:black;stroke-width:0.05"><path
       style="fill:#55bdaa;fill-opacity:0.992157;stroke-width:0.0125"
       d=""
       id="path7292"
       transform="matrix(0.26458333,0,0,0.26458333,-60,-60)" /><path
       style="fill:#fa443c;fill-opacity:1;stroke-width:0.0224455"
       d="m -44.183206,57.690375 c 0.668821,-0.802426 6.797552,-7.382328 13.619408,-14.62201 12.301428,-13.054887 21.6349217,-22.076308 22.8399727,-22.076308 2.378671,0 45.3918283,11.342245 51.3953403,13.552565 l 3.922684,1.444222 -32.203956,8.233108 c -27.406959,7.006744 -59.509201,14.927377 -60.500473,14.927377 -0.158959,0 0.258203,-0.65653 0.927024,-1.458954 z"
       id="path18222" /><path
       style="fill:#848484;fill-opacity:1;stroke-width:0.0224455"
       d="m -49.95861,43.661966 c 0.166438,-0.7407 4.989113,-19.830559 10.717041,-42.4219072 l 10.41442,-41.0751818 0.76838,1.795636 c 1.640018,3.832607 2.130038,5.471789 6.709952,22.445455 5.590956,20.7207091 6.076631,23.0418473 5.110031,24.4218658 -1.755603,2.5064652 -13.917331,15.6792352 -23.456998,25.4070412 -8.411085,8.576965 -10.503737,10.499211 -10.262826,9.427091 z"
       id="path18362" /><path
       style="fill:#424242;fill-opacity:1;stroke-width:0.0224455"
       d="M 26.705975,15.169904 C 13.853699,11.755116 2.5411897,8.5875058 1.5670667,8.1307677 -0.17065234,7.3160067 -0.23963934,7.1902134 -2.0888313,1.4645125 -6.3182813,-11.631251 -19.965746,-58.877164 -19.604545,-59.172797 c 0.43484,-0.355904 70.351648,79.511045 70.351648,80.363658 0,0.379364 0.833427,0.588089 -24.041128,-6.020957 z"
       id="path18778" /></g></svg>
