<?xml version="1.0" encoding="UTF-8" standalone="no"?>
<!-- Created with Inkscape (http://www.inkscape.org/) -->

<svg
   width="120mm"
   height="120mm"
   viewBox="-60 -60 120 120"
   sodipodi:docname="beta.svg"
   version="1.1"
   id="svg263"
   inkscape:version="1.2.2 (b0a8486541, 2022-12-01)"
   xmlns:inkscape="http://www.inkscape.org/namespaces/inkscape"
   xmlns:sodipodi="http://sodipodi.sourceforge.net/DTD/sodipodi-0.dtd"
   xmlns="http://www.w3.org/2000/svg"
   xmlns:svg="http://www.w3.org/2000/svg"
   xmlns:rdf="http://www.w3.org/1999/02/22-rdf-syntax-ns#"
   xmlns:cc="http://creativecommons.org/ns#"
   xmlns:dc="http://purl.org/dc/elements/1.1/">
  <defs
     id="defs265" />
  <sodipodi:namedview
     pagecolor="#ffffff"
     bordercolor="#666666"
     borderopacity="1.0"
     inkscape:pageopacity="0.0"
     inkscape:pageshadow="2"
     inkscape:zoom="1"
     inkscape:cx="226.5"
     inkscape:cy="227"
     inkscape:document-units="mm"
     inkscape:current-layer="Template"
     showgrid="false"
     units="mm"
     showguides="true"
     inkscape:guide-bbox="true"
     inkscape:snap-global="true"
     inkscape:snap-bbox="true"
     inkscape:snap-bbox-midpoints="true"
     inkscape:window-width="1880"
     inkscape:window-height="1056"
     inkscape:window-x="40"
     inkscape:window-y="0"
     inkscape:window-maximized="1"
     inkscape:bbox-paths="true"
     inkscape:bbox-nodes="true"
     inkscape:snap-bbox-edge-midpoints="true"
     inkscape:snap-grids="true"
     id="namedview253"
     inkscape:showpageshadow="2"
     inkscape:pagecheckerboard="0"
     inkscape:deskcolor="#d1d1d1">
    <sodipodi:guide
       orientation="1,0"
       position="226.771653543,226.771653543"
       id="guide2827"
       inkscape:locked="false" />
    <sodipodi:guide
       orientation="0,1"
       position="226.771653543,226.771653543"
       id="guide2829"
       inkscape:locked="false" />
    <inkscape:grid
       type="xygrid"
       id="grid3072"
       empspacing="10"
       visible="true"
       enabled="true"
       snapvisiblegridlinesonly="true"
       units="mm"
       dotted="false"
       spacingx="0.1mm"
       spacingy="0.1mm" />
  </sodipodi:namedview>
  <metadata
     id="metadata2822">
    <rdf:RDF>
      <cc:Work
         rdf:about="">
        <dc:format>image/svg+xml</dc:format>
        <dc:type
           rdf:resource="http://purl.org/dc/dcmitype/StillImage" />
      </cc:Work>
    </rdf:RDF>
  </metadata>
  <g
     inkscape:label="Layer 1"
     inkscape:groupmode="layer"
     id="Template"
     style="fill:none;stroke:black;stroke-width:0.05">
    <path
       style="fill:#d4aa00;stroke-width:0.326788"
       d="m 42.855812,46.227924 c 0,-0.08893 1.458176,-2.357629 3.240382,-5.041683 l 3.240395,-4.880107 -2.014937,-1.881212 C 46.213442,33.39025 44.130279,31.429214 42.692407,30.067067 41.254548,28.704907 37.504648,25.168323 34.35932,22.207988 28.90694,17.07629 26.980609,15.254548 19.496878,8.1524892 17.696022,6.4434755 14.825566,3.7285188 13.118096,2.1192644 11.410626,0.51000956 8.6901237,-2.0693945 7.0725201,-3.6127313 5.4549164,-5.1560805 1.7050288,-8.6857367 -1.2605676,-11.456434 c -2.9656088,-2.770697 -6.7890221,-6.379486 -8.496492,-8.019531 -1.7074694,-1.640046 -6.9975074,-6.645108 -11.7556484,-11.122349 -4.758152,-4.477252 -11.249774,-10.603617 -14.425844,-13.614146 l -5.774668,-5.473698 h -9.021201 c -4.961661,0 -9.021202,-0.102143 -9.021202,-0.226876 0,-0.124795 1.323489,-2.178724 2.941092,-4.564291 1.617604,-2.385579 2.941092,-4.489307 2.941092,-4.674943 v -0.33753 h 32.947616 32.947603 l 2.430352,2.369214 c 3.979666,3.879537 7.900776,7.597843 22.84828,21.666483 7.818407,7.358714 15.936228,15.034306 18.039611,17.056876 2.103382,2.022557 3.978332,3.677374 4.16655,3.677374 h 0.34221 v 30.554689 30.554674 h -8.496492 c -4.673066,0 -8.496479,-0.07275 -8.496479,-0.161588 z M 41.059278,13.138827 c 0.491856,-1.033461 1.964137,-4.2318991 3.27173,-7.1076293 1.307605,-2.8757426 3.275854,-7.1856393 4.373899,-9.5775669 l 1.99646,-4.3489502 -0.30002,-0.5606014 c -0.394171,-0.736505 -3.825648,-3.9764062 -4.211532,-3.9764062 -0.288706,0 -9.3706,4.5851026 -18.202867,9.1899293 l -4.24824,2.2148878 -0.101896,0.48727328 -0.101896,0.48727332 1.366803,1.3264402 c 1.661969,1.612886 1.842862,1.6202967 4.458294,0.1826843 2.730371,-1.50079989 2.438059,-1.59576706 5.953388,1.9342354 l 3.065195,3.0779909 -1.189492,2.504742 -1.189492,2.5047175 0.306516,0.572742 c 0.454172,0.848603 2.887488,2.967276 3.407974,2.967276 h 0.450986 z M 37.921459,0.33924405 c -1.330108,-1.23327627 -2.344858,-2.30818745 -2.254992,-2.38871625 0.08992,-0.080529 2.178107,-1.2023122 4.640534,-2.4928727 l 4.477142,-2.3464757 -1.494402,3.1921269 c -0.821925,1.7556636 -1.82189,3.88650249 -2.22215,4.735192 L 40.339855,2.5815639 Z M 22.129676,-5.3246969 c 0.871699,-0.943595 3.979012,-4.2125577 6.905171,-7.2643521 l 5.320273,-5.548718 2.216123,2.19914 c 2.594213,2.57434 2.471962,2.544599 4.064963,0.989059 1.622914,-1.584725 1.80965,-1.205289 -2.763916,-5.616142 -10.169713,-9.807889 -9.121789,-9.112933 -10.852553,-7.197175 l -1.206659,1.335629 0.596753,0.672601 c 0.328216,0.369939 1.372707,1.411539 2.321082,2.31466 2.099837,1.999646 2.770894,0.825778 -5.155597,9.018632 -3.684538,3.808357 -6.741767,7.1117424 -6.793864,7.3408666 l -0.09473,0.416576 1.632943,1.527441 c 2.014888,1.8846826 1.889327,1.8908828 3.809976,-0.1882175 z M 11.459017,-14.418189 12.464528,-15.4237 v -0.602434 -0.602434 l -3.1122155,-2.862231 c -1.7117063,-1.574239 -3.0719636,-2.966387 -3.0227817,-3.093677 0.049157,-0.127277 1.0551618,-1.251654 2.2355263,-2.498603 l 2.1461169,-2.26717 2.712721,2.557135 c 3.084784,2.907855 3.120491,2.91996 4.533982,1.538001 1.442083,-1.409883 1.394062,-1.533987 -1.721118,-4.448573 l -2.763521,-2.585568 2.056967,-2.038687 2.056967,-2.038676 3.075768,2.947367 3.075768,2.947378 0.538024,0.01346 0.538036,0.01346 1.014205,-1.155132 c 1.357294,-1.545856 1.598497,-1.139371 -3.601563,-6.069586 -5.087728,-4.8237 -5.246538,-4.948803 -5.943001,-4.681551 -0.440376,0.168999 -9.2331698,9.199167 -14.2103805,14.594028 -2.60756437,2.826376 -2.79835092,2.300394 2.7863334,7.68204 5.3464941,5.152126 5.1901431,5.065471 6.5986551,3.656946 z M 0.0313761,-29.747574 c 2.9471934,-1.511767 4.4609989,-5.253615 3.1506027,-7.787653 l -0.4592735,-0.888127 1.2673157,0.120794 1.2673158,0.120916 1.4429846,-0.69855 1.442997,-0.698538 0.892758,-1.288251 0.892758,-1.288238 0.1658006,-1.471071 0.165813,-1.471058 -0.8577927,-1.753268 -0.8577922,-1.753255 -3.4278836,-3.318849 -3.4278836,-3.318848 H 0.9230596 0.15703561 l -2.26588521,2.369214 c -1.2462325,1.303072 -4.8003931,5.008557 -7.8981334,8.234427 l -5.63226,5.865214 v 0.538246 0.538258 l 3.349577,3.248621 c 3.6710761,3.560435 5.1693316,4.618956 7.4182712,5.241041 l 1.4866949,0.41124 1.1285642,-0.178892 c 0.6207016,-0.09844 1.65008686,-0.446416 2.2875118,-0.773385 z m -5.7035878,-4.26395 c -0.3594648,-0.163108 -1.4231365,-0.999348 -2.3637054,-1.858313 l -1.7101254,-1.561777 2.1456849,-2.369214 c 2.5008267,-2.761347 2.3844304,-2.728877 4.0995209,-1.143756 1.6099213,1.487942 2.2426158,2.640739 2.2329943,4.068618 l -0.00741,1.078296 -0.5646156,0.697019 c -1.0640917,1.313644 -2.4620814,1.710928 -3.8324913,1.089127 z m 5.52273149,-9.084389 C -0.85045126,-43.605147 -1.6236389,-44.26431 -1.8676955,-44.56071 l -0.4437235,-0.538925 1.309581,-1.557986 c 0.72027574,-0.856903 1.67210882,-1.895823 2.1151901,-2.30873 l 0.8055967,-0.750722 1.5147195,1.684732 1.5147318,1.684744 v 1.242762 1.242762 l -1.0054365,0.846021 -1.0054366,0.84601 H 2.0312692 1.1250115 Z"
       id="path201" />
  </g>
</svg>
