<svg xmlns="http://www.w3.org/2000/svg" preserveAspectRatio="xMidYMid meet" version="1.0" viewBox="0 0 6680 6270" width="160" height="150.1796">
  <defs>
    <style>
      :root { color-scheme: light; } /* dark-mode fix */
    </style>
  </defs>
  <rect id="fix-darkmode-bg" width="100%" height="100%" fill="transparent" />
  <g fill="#ececec" stroke="none"><path d="M2120 120c-60 20-210 100-220 120l60 10 60 10-60 80c-120 110-220 260-270 390-20 70-20 80-20 280a1800 1800 0 00 30 440c-20 10-60-30-110-100-40-70-50-70-50-50-10 40 10 290 30 400 50 250 130 430 270 600 90 110 160 160 300 210 130 40 150 50 180 110l20 70 10 20c10 10 390-380 440-460 20-30 20-20 40 60l20 60 90-170a1980 1980 0 00 200-610l10-320c0-390-20-600-70-670l-80-100c-90-120-220-260-230-250l10 60 30 120 20 70-80-70c-260-250-470-350-630-310zm210 250 120 60 120 80 90 60 110 100 80 60c20 0 40 60 40 110l30 140c20 100 20 120 20 310a1230 1230 0 01-20 320c-10 130-20 150-50 250-20 90-60 140-70 130l-10-40v-30l-40 90c-40 80-110 180-160 230l-30 30v-80c10-80 40-150 100-230 90-120 120-170 130-210 30-70 30-120 0-130l-110 30c-80 20-100 30-100 10l10-40c50-70 110-200 130-270 40-180 30-490-20-560l-30-60c-20-40-120-140-140-140-10 0-10 20 10 40l70 130 60 180-10 100-10 40-20-50-40-50-10 160c0 240-30 330-150 440-50 60-60 70-30 70s30 0-10 50c-60 70-60 70 40 60l130-10h30l-50 60c-90 100-150 240-160 360 0 120-10 120-40 110l-250-80c-80-40-190-140-220-210a1970 1970 0 01-130-470l40 10 70 10c40-10 40-10 10-160l-30-240c0-130 0-140 20-210l30-120 70-150 10-20 70-120c30-40 100-90 150-110 50-10 80-50 60-60-20-30-10-30 30-20l60 40zm1610-190c-120 30-250 80-340 140-50 40-220 200-210 210l60-20 40-30-20 30c-50 80-130 270-170 380l-80 380c0 20 20 10 30-20 20-30 40-50 40-30l-40 160a930 930 0 00 50 710l-40-30-50-30c0 20 50 130 120 220 110 150 240 240 530 330 170 60 400 120 410 110v-40c0-60 30-100 110-170 220-170 380-410 500-710 40-110 40-130-20-50-40 60-80 100-70 70a2130 2130 0 00 110-850c0-50-20-40-30 20-30 130-90 320-110 320l-10-70c-50-460-100-600-330-830l-90-100 30-10 30-10c10-20-60-50-120-70-60-10-290-20-330-10zm160 220 10 20c-10 10 30 30 60 30l40 20 70 50c130 100 190 180 260 390 60 160 60 170 70 330 10 140 10 150 30 160 90 70 70 190-40 320-50 60-60 80-40 80 40 10 40 10 20 50-10 30-10 50 20 50 20 0 10 70-20 120l-130 200c-60 50-130 110-180 130-30 0-60 20-80 40l-70 20c-20 0-30-10-20-40 0-70 40-110 80-70 20 10 20 10 40-20 0-20 40-80 70-120 120-190 220-420 210-460l-40-20c-30-10-40-40-10-110 30-60 30-60-10-50-30 0-30 0-20-20l20-70 10-60c20-40-30-270-80-360-40-70-100-120-100-80l10 10c10 0 60 110 80 200 30 110 30 220 0 310-40 90-50 120-100 170l-30 60 40-20c40-20 40-20 40 0s-40 70-80 120l-20 40 70-10c110-30 120-20 80 40-60 80-270 280-290 280l-40-60-30-60-30 30c-10 30-20 50-20 180v160c0 30-120 0-240-60l-200-160 10-10c30 0 20-20-10-70-80-140-110-250-110-440-10-120-10-130 40-240 50-150 100-300 80-310h-80l110-310c50-120 110-230 150-270 50-50 150-100 240-120h160zm1260 920c-150 120-320 440-370 700-20 90-30 100-30 40l-20-240c0-80-10-70-70 60a1590 1590 0 00-90 600c0 270 30 420 230 900 110 280 130 350 130 370 0 30-10 20-50-30l-40-40 30 70 60 170c10 80 0 80 110 80l160 10c240 40 410-20 610-210a1460 1460 0 00 350-580l50-150a5290 5290 0 00 50-220c-10-20-10-20-60 40-80 110-80 110-70 50 20-200 20-270 20-500-10-230-10-270-40-420-60-320-70-360-90-260l-20 40-80-140-100-200c-50-90-50-110 30-120l60-20c10-40-200-50-320-20-80 30-170 70-290 140l-110 60 20-170-10-50-60 40zm460 260c10 0 80 60 100 100l50 110 60 140 40 100c10 20 20 50 40 60 30 20 50 70 70 150 10 60 0 250-10 360a2970 2970 0 00-30 410c0 90 0 100 20 120l20 20-50 100c-80 150-130 220-260 340-110 110-140 130-190 130-40 0-40-20-10-60l30-40 30-40 100-200c30-60 40-70 40-40h10c20-10 30-50 70-160l40-90 20-100 30-140c10-30 20-110 20-280 0-220-10-250-20-270-20-30-30-30-70-30h-50l-10-60-30-100-50-80c-30-70-120-170-120-150l30 70 80 190 40 120v110c0 110 0 120 10 100l50-60c50-50 60-50 60 40 10 210-20 350-100 600-40 120-70 150-70 80l-10-50c-20-30-60 100-80 240-10 60-40 110-100 160a8730 8730 0 00-200 160l-50 30c-30 20-50 0-50-40l-170-460c-80-200-130-360-150-460-20-80-30-310-20-400v-70l20 30 50 110 40 80 40-170a4400 4400 0 01 50-280l30-60 120-140 20 40c10 70 20 80 30 30 0-10 10-40 30-50l30-60c10-30 80-70 190-130s140-70 160-60h30zm-4890 90c0 10-10 20-60 20l-150 40-100 20 10-30c20-70-20-50-140 60-90 100-110 130-140 230-20 100-20 100-50 70l-20-20-20 50c-30 130-20 480 20 650 40 140 60 200 110 300l50 90-160-170-60-70 10 70c10 30 20 60 10 80-10 60-10 90 10 150a740 740 0 00 260 390l60 60-50-10c-40-10-40-10-30 10l80 50 60 40-90-10-100 10c0 30 70 130 110 180 160 160 500 300 770 320l60 10v-70c0-170 30-240 110-320 50-40 140-80 170-60 20 0 20 0-10 20-20 20-30 20-20 30 10 20 80-10 120-40s80-110 90-170c30-130 40-360 30-520-10-130-30-210-80-350-30-90-40-90 40 0l40 30c20 0 20-10 20-60 0-130-100-360-230-530-110-150-290-310-470-430-190-130-280-170-270-120zm50 350 110 10 50 20c30 10 50 20 60 40l120 100c120 90 180 140 210 210l30 70c20 20 50 110 40 130l-30 30c-10 0-20 10-20 30 0 50 40 160 60 190 30 20 30 20 30 210 0 220-20 400-40 440l-40 30-40 10-20-20 40-210 10-130-20 30-30 30-10-160c-10-170-20-210-70-330l-120-240c-30-20-10-30 30-20l60 10c30 0 30 0 30-40-10-30-30-50-110-130l-150-120c-60-30-150-60-190-60-30 0-30 0 10 20l90 30c50 20 230 180 220 200l-80 10h-70l80 140 20 50 30 40c30 50 70 140 70 170l20 50c20 50 30 220 30 390v140h20c20 0 20 0 20 30l-30 70c-20 20-40 60-40 90-10 40-40 80-60 110-50 60-80 110-90 180-20 70-40 80-120 80-80-10-210-70-270-130l-50-50 50-10c50 0 50 0 40-30l-10-40c0-20 10-30 40-30 30-10 40-10 30-20l-130-50c-60-20-140-80-160-120l-20-50 100-10c40 0 20-20-50-80l-80-50 80-10 190-40c10-10-10-30-50-40-30-10-120-80-170-150a1490 1490 0 01-130-280l-30-170c-10-180 0-250 20-260 10 0 30-20 40-70 60-190 50-180 90-160 20 10 20 10 30-10 50-60 60-60 120-70l70-20 20 10 120 10" /><path d="M2890 2690c-120 10-220 40-190 60l-70 40c-100 40-180 90-270 180-90 80-160 170-190 260l-80 290c-60 230-100 380-110 370l-10-50-10-40-20 50c-40 80-90 130-310 310-210 180-260 240-340 390-60 110-80 190-80 310 0 190 70 390 200 550 50 60 110 100 210 150a1480 1480 0 01 220 110l-30-50-20-60 110 30 160 40h70l-70-30c-120-50-140-90-30-50 70 20 200 80 260 120l180 140c190 160 360 270 510 320 50 10 80 20 200 10 160 0 260-20 330-60 60-30 80-60 40-50l-60 20-110 10-70 10 170-90 250-140c230-150 520-310 550-310l-20 130-20 140 10 60 30-50c60-80 200-180 330-210l170-40 200-50c200-70 240-150 240-400 0-130 0-140 20-140s30-20 10-70l-10-30 50 20 40 30v-100c-10-190-110-410-310-690-80-110-130-200-130-210l40-10c70 0 80-10 30-40-30-20-100-100-130-160l-80-210c-110-290-160-380-250-460-60-60-100-80-210-110-90-30-120-40-220-40l-140-20c-40-20-110-20-290-20-230 0-260 0-260-30l40-30c30-10 30-10 20-30-30-10-210-60-320-70h-240zm120 340c100 10 150 30 170 70 10 20 30 40 90 60 130 40 180 50 340 40l150 10c20 10 20 20-20 40l-40 30c10 10 170-30 210-50s60-20 120-20c160 0 270 60 350 180 40 60 160 350 170 430 20 80 10 100-50 170l-40 50 80 20c70 20 140 70 250 220 110 130 160 220 170 310 20 70 20 80 0 140-10 60-110 210-140 220-20 10-10 40 10 50 50 20 80 70 60 120-10 50-40 70-100 100-60 40-70 30-80-60l-10-80c-10-30-20-20-30 40l-20 100c-20 30-100 70-180 100l-50 10 40-80 40-100c10-30 10-30-20-20l-150 40-160 40c-60 40-60 40-60-140v-160l-30 50c-50 110-60 90-60-110l-20-200a1750 1750 0 00-180-370l60 10c70 10 80 0 70-50-20-40-170-180-290-250-120-80-180-110-200-110-40 0 20 70 100 120 90 50 220 170 220 190l-50 10c-60 0-80 10-60 30s110 180 130 250c30 80 40 410 20 550-40 240-120 470-200 550-40 40-120 80-220 110l-70 30-80 30-60 30c0 10 10 20 20 10 30 0 40 20 20 40l-90 10c-70 0-90 0-140-30-90-40-220-140-250-180l-120-100-120-90-70-50-120-80c-60-50-140-90-220-110-70-20-330-40-330-20s-20 10-50-50c-30-40-30-60-40-150-20-150 0-250 50-370l40-100 150-150a3660 3660 0 01 160-120c0 30 20 30 40 0 50-60 120-240 220-520 110-340 120-380 190-460 80-100 150-130 360-170l80-20-30-20c-40-30-50-50-20-40l90 20" /><path d="M3340 3330c-10 10 0 20 110 70l90 50-30 20-130 70-160 90-70 40 80 10a820 820 0 01 220 50c40 10 110 40 150 80 20 20 50 30 70 30s20 0 10-30c-20-40-130-120-200-160-80-40-80-40 0-80l100-30 80-40 80-30c20 0 30-10 30-20l-100-40-130-30-100-30c-110-40-100-30-100-20zm590 330c-10 10 10 20 40 30 70 30 80 60 80 170l10 90 40-20c100-50 140-220 50-260-30-20-220-30-230-10zm360 690c-10 10 0 20 10 30 40 40 50 140 50 270l-30 140-10 50 160-110 60-50-10 30-10 40c0 20 60-40 90-100 30-50 30-50 10-90 0-30-20-60-40-80-40-40-160-110-220-130h-60" /></g></svg>