<?xml version="1.0" encoding="UTF-8" standalone="no"?>
<!-- Created with Inkscape (http://www.inkscape.org/) -->

<svg
   width="127.30244mm"
   height="23.182766mm"
   viewBox="0 0 127.30244 23.182766"
   version="1.1"
   id="svg1"
   xml:space="preserve"
   xmlns="http://www.w3.org/2000/svg"
   xmlns:svg="http://www.w3.org/2000/svg"><defs
     id="defs1" /><g
     id="layer1"
     transform="translate(-41.889085,-173.48471)"><g
       id="g1"
       transform="translate(8.8182895,98.412114)"><path
         style="fill:#faefdb"
         d="m 36.72934,97.432813 c -0.07682,-0.540915 -0.247742,-0.602461 -1.870486,-0.673547 l -1.785937,-0.07823 V 86.651042 76.621054 l 1.785937,-0.07824 c 1.622744,-0.07109 1.793663,-0.132632 1.870486,-0.673547 0.06571,-0.462695 0.257271,-0.595312 0.859895,-0.595312 0.650649,0 0.775348,0.106382 0.775348,0.661458 0,0.529167 0.132292,0.661458 0.661459,0.661458 0.529166,0 0.661458,-0.132291 0.661458,-0.661458 0,-0.558565 0.123472,-0.661458 0.79375,-0.661458 0.670278,0 0.79375,0.102893 0.79375,0.661458 0,0.56868 0.120612,0.662273 0.859896,0.667269 2.013691,0.01361 4.242407,1.75844 4.586081,3.590382 0.458841,2.445833 -0.462287,4.560401 -2.355861,5.408179 l -1.063277,0.476044 1.106721,0.298009 c 1.412324,0.380299 2.831983,1.624367 3.230058,2.830546 0.488597,1.480464 0.206657,3.833179 -0.606625,5.062131 -0.825417,1.247289 -2.621293,2.203255 -4.473345,2.381214 -1.139826,0.109523 -1.283648,0.193681 -1.283648,0.751138 0,0.521162 -0.134822,0.627795 -0.79375,0.627795 -0.670278,0 -0.79375,-0.102893 -0.79375,-0.661458 0,-0.529167 -0.132292,-0.661458 -0.661458,-0.661458 -0.529167,0 -0.661459,0.132291 -0.661459,0.661458 0,0.555076 -0.124699,0.661458 -0.775348,0.661458 -0.602624,0 -0.794182,-0.132617 -0.859895,-0.595312 z m 5.980018,-3.135273 c 0.570616,-0.158428 1.374288,-0.624855 1.785938,-1.036505 0.635173,-0.635173 0.748454,-0.962875 0.748454,-2.165144 0,-2.817456 -1.411983,-3.636553 -6.283854,-3.645288 l -3.241146,-0.0058 v 3.571875 3.571875 l 2.976563,-0.0015 c 1.637109,-8.12e-4 3.44343,-0.131099 4.014045,-0.289527 z m -1.200817,-9.252057 c 2.404953,-0.515771 3.480874,-2.406012 2.505725,-4.402206 -0.761647,-1.559143 -1.78085,-1.928834 -5.318953,-1.929323 l -2.976563,-4.11e-4 v 3.307291 3.307292 h 2.235935 c 1.229765,0 2.829,-0.12719 3.553856,-0.282643 z M 58.208333,96.54859 c -1.184131,-0.512106 -2.554289,-1.82483 -3.188341,-3.054691 -0.719203,-1.395027 -1.083418,-4.055054 -0.796556,-5.817601 0.632545,-3.886508 2.708317,-5.970021 6.226074,-6.249291 2.122492,-0.168502 3.643121,0.281641 4.958923,1.467959 1.055285,0.951438 2.156001,2.858038 1.894382,3.281346 -0.07143,0.115581 -0.596044,0.210147 -1.165802,0.210147 -0.87721,0 -1.097158,-0.118414 -1.435601,-0.772891 -0.83798,-1.620474 -2.88007,-2.418355 -4.839281,-1.890794 -4.047361,1.089841 -4.458097,8.736032 -0.577087,10.74298 1.754503,0.907288 4.4785,0.173251 5.262167,-1.418 0.369551,-0.750378 0.524686,-0.829011 1.646299,-0.834453 1.237505,-0.006 1.238162,-0.0055 1.021234,0.750862 -0.503226,1.754645 -1.977825,3.263168 -3.641366,3.725137 -1.440669,0.400077 -4.287224,0.32542 -5.365045,-0.14071 z m 14.2875,0.07366 c -1.508444,-0.478118 -3.333437,-2.513178 -3.851318,-4.294628 -0.662499,-2.278914 -0.43646,-5.634423 0.502867,-7.464998 2.415715,-4.707783 9.775945,-4.651897 12.166661,0.09238 0.226575,0.449627 0.545046,1.581779 0.707715,2.515893 0.699251,4.015395 -0.986842,7.820463 -4.027322,9.088609 -1.134693,0.473266 -4.096783,0.507066 -5.498603,0.06274 z m 5.210205,-2.50487 c 1.336729,-0.951836 1.801254,-2.22911 1.801254,-4.952798 0,-2.013674 -0.09574,-2.548295 -0.620251,-3.463414 -1.492507,-2.604007 -5.11569,-2.919047 -6.978582,-0.606795 -1.051081,1.304618 -1.493561,3.82074 -1.033461,5.876683 0.363867,1.625926 1.026308,2.622256 2.258826,3.397333 1.100283,0.691921 3.427408,0.564164 4.572214,-0.251009 z m 39.092742,2.369279 c -2.59323,-1.216318 -3.9679,-4.080959 -3.76978,-7.855709 0.25491,-4.85673 3.06968,-7.584703 7.42267,-7.193787 3.50367,0.314644 5.41659,2.552858 5.86483,6.86215 l 0.15769,1.515981 -5.49178,0.07152 -5.49178,0.07152 0.0867,0.926042 c 0.12668,1.353262 1.20093,3.035175 2.25938,3.537446 1.76673,0.838367 4.80852,0.324089 5.4776,-0.926101 0.19791,-0.369789 0.56299,-0.494679 1.44606,-0.494679 0.70297,0 1.18132,0.121276 1.18132,0.2995 0,0.699372 -1.19246,2.138042 -2.31967,2.798636 -1.64257,0.962607 -5.16996,1.162924 -6.82322,0.387483 z m 7.02622,-8.985806 c 0,-0.765291 -1.1342,-2.76216 -1.87499,-3.301096 -0.3764,-0.273838 -1.17189,-0.563279 -1.76776,-0.643202 -2.12006,-0.284359 -4.09434,1.278016 -4.66257,3.689798 l -0.17143,0.727604 h 4.23838 c 3.89457,0 4.23837,-0.03838 4.23837,-0.473104 z m 7.25732,8.96813 c -2.38223,-1.081986 -3.6592,-3.7113 -3.64678,-7.508796 0.007,-2.111413 0.0891,-2.480914 0.9105,-4.090807 0.71235,-1.39622 1.16848,-1.933701 2.16114,-2.546562 2.35079,-1.451354 5.32045,-1.193906 7.13271,0.618355 l 1.00178,1.001779 v -4.202205 -4.202206 h 1.19062 1.19063 v 10.583333 10.583333 h -1.05834 -1.05833 v -1.249056 -1.249056 l -0.99219,1.02412 c -0.5457,0.563267 -1.37531,1.184873 -1.84358,1.381348 -1.21873,0.511349 -3.70367,0.439822 -4.98816,-0.14358 z m 5.64179,-2.32086 c 1.9875,-1.483885 2.59424,-5.506081 1.24041,-8.222876 -1.40138,-2.812201 -4.8068,-3.257675 -6.79952,-0.889466 -1.63514,1.943251 -1.71634,6.027415 -0.1642,8.258864 1.10026,1.581807 4.14054,2.035183 5.72331,0.853478 z m 13.63184,2.267843 c -3.13437,-1.551489 -3.16005,-6.045138 -0.0434,-7.592387 0.88902,-0.441347 1.85773,-0.642452 3.57188,-0.741521 1.29361,-0.07476 2.75335,-0.197294 3.24386,-0.27229 l 0.89183,-0.136354 -0.12565,-1.307617 c -0.0708,-0.737024 -0.33445,-1.538353 -0.60417,-1.836388 -1.21704,-1.344811 -4.30473,-1.333655 -5.65883,0.02045 -0.61336,0.613368 -1.0129,0.778269 -1.88563,0.778269 -1.07543,0 -1.10216,-0.02099 -0.92678,-0.727604 0.23411,-0.943256 1.06884,-1.8289 2.39032,-2.536116 0.8434,-0.451367 1.51504,-0.566389 3.30729,-0.566389 2.68815,0 4.09206,0.600804 5.06656,2.168238 0.59771,0.961377 0.62526,1.235281 0.70601,7.019683 l 0.084,6.019271 h -1.20851 -1.20851 V 95.58791 94.470611 l -0.78957,0.864471 c -0.43427,0.475459 -1.20435,1.037774 -1.7113,1.24959 -1.36871,0.571884 -3.76332,0.492663 -5.09943,-0.168704 z m 5.38271,-1.992337 c 1.25526,-0.595659 2.01301,-1.767806 2.16493,-3.348885 l 0.12775,-1.329522 -2.72932,0.187979 c -3.69345,0.254382 -4.7541,0.824666 -4.7541,2.55616 0,2.037152 2.78608,3.075353 5.19074,1.934268 z M 49.741667,89.164584 v -7.540625 h 1.190625 1.190625 v 7.540625 7.540625 H 50.932292 49.741667 Z M 90.752083,86.651042 V 76.596876 h 1.530013 1.530013 l 3.430925,8.332517 c 1.887008,4.582884 3.494356,8.333353 3.571876,8.334375 0.0775,0.001 1.68487,-3.747775 3.57187,-8.330659 l 3.43093,-8.332517 1.52135,-0.0019 1.52136,-0.0019 v 10.054166 10.054167 h -1.19063 -1.19062 v -7.717014 c 0,-4.244357 -0.0685,-7.648484 -0.15229,-7.564727 -0.0838,0.08376 -1.56052,3.526648 -3.28169,7.650868 l -3.12941,7.498581 h -1.10223 -1.102233 l -3.109635,-7.471511 c -1.7103,-4.109331 -3.190346,-7.552222 -3.288992,-7.650868 -0.09865,-0.09865 -0.179357,3.2933 -0.179357,7.537657 v 7.717014 h -1.190625 -1.190625 z m 53.181247,2.513542 v -7.540625 h 1.19063 1.19062 v 7.540625 7.540625 h -1.19062 -1.19063 z"
         id="path4" /><path
         style="fill:#f9d0a1"
         d="M 36.688889,98.11632 C 36.591879,98.01931 36.5125,97.72709 36.5125,97.46695 c 0,-0.39574 -0.281025,-0.488961 -1.720852,-0.570841 l -1.720852,-0.09786 1.786998,0.01963 c 1.630349,0.0179 1.794231,0.07045 1.869509,0.599395 0.06119,0.429984 0.300439,0.607023 0.926041,0.685261 l 0.843531,0.105491 -0.815799,0.04234 c -0.448689,0.02329 -0.895173,-0.03703 -0.992187,-0.134046 z m 4.622143,-0.683507 c -0.0314,-0.634007 0.05757,-0.722969 0.691572,-0.691573 0.598981,0.02966 0.625243,0.05592 0.148562,0.148562 -0.334184,0.06494 -0.626628,0.357389 -0.691573,0.691573 -0.09264,0.476681 -0.118899,0.450419 -0.148561,-0.148562 z m 19.080114,-0.387947 c 0.400182,-0.06062 1.055026,-0.06062 1.455208,0 0.400183,0.06062 0.07276,0.110223 -0.727604,0.110223 -0.800365,0 -1.127786,-0.0496 -0.727604,-0.110223 z m 14.022917,0 c 0.400182,-0.06062 1.055026,-0.06062 1.455208,0 0.400182,0.06062 0.07276,0.110223 -0.727604,0.110223 -0.800365,0 -1.127787,-0.0496 -0.727604,-0.110223 z m 44.714587,0 c 0.40018,-0.06062 1.05502,-0.06062 1.4552,0 0.40019,0.06062 0.0728,0.110223 -0.7276,0.110223 -0.80036,0 -1.12779,-0.0496 -0.7276,-0.110223 z m 14.02655,-3.51e-4 c 0.40218,-0.06082 0.9975,-0.05919 1.32292,0.0036 0.32542,0.0628 -0.004,0.11256 -0.73124,0.110574 -0.72761,-0.002 -0.99386,-0.05337 -0.59168,-0.114186 z m 19.31458,0 c 0.40219,-0.06082 0.9975,-0.05919 1.32292,0.0036 0.32542,0.0628 -0.004,0.11256 -0.73124,0.110574 -0.72761,-0.002 -0.99386,-0.05337 -0.59168,-0.114186 z M 38.700348,96.786438 c 0.257431,-0.06708 0.614619,-0.06267 0.79375,0.0098 0.179132,0.07248 -0.03149,0.127362 -0.468056,0.12197 -0.436563,-0.0054 -0.583125,-0.06469 -0.325694,-0.131774 z m 12.161764,-0.01096 1.252737,-0.09893 0.0744,-7.592439 0.0744,-7.592438 0.06193,7.739062 0.06193,7.739062 -1.389062,-0.04769 -1.389063,-0.04769 z m 41.014451,0.0084 1.25677,-0.107657 v -7.711336 c 0,-4.241235 0.0893,-7.598227 0.198438,-7.459982 0.109141,0.138245 0.138906,3.644635 0.06615,7.791979 l -0.132292,7.540624 -1.322917,0.02701 -1.322916,0.02702 z m 16.493217,-0.0416 c -0.18905,-0.30589 -0.22623,-15.135477 -0.0384,-15.32329 0.0813,-0.08129 0.1478,3.318331 0.1478,7.554715 v 7.702517 l 1.25677,0.0991 1.25677,0.0991 -1.24116,0.04769 c -0.68263,0.02623 -1.30443,-0.05469 -1.38177,-0.179828 z m 30.27189,-0.863211 c 0,-0.998998 -0.0389,-1.060574 -0.46302,-0.732164 -0.3431,0.265699 -0.32597,0.197647 0.0661,-0.26275 l 0.52917,-0.621318 0.0806,1.22119 0.0806,1.221189 h 1.04084 1.04083 l 0.0722,-10.649479 0.0722,-10.649479 0.0631,10.781771 0.0631,10.78177 h -1.32292 -1.32291 z m 5.08901,-6.648332 0.0619,-7.739062 0.0744,7.592438 0.0744,7.592439 1.25274,0.09893 1.25274,0.09893 -1.38907,0.04769 -1.38906,0.04769 z m 14.82452,7.549202 c 0.40218,-0.06082 0.9975,-0.05919 1.32292,0.0036 0.32542,0.0628 -0.004,0.11256 -0.73124,0.110574 -0.72761,-0.002 -0.99386,-0.05337 -0.59168,-0.114186 z M 79.904167,95.250001 c 0.493655,-0.509323 0.957086,-0.926042 1.029846,-0.926042 0.07276,0 -0.271608,0.416719 -0.765263,0.926042 -0.493655,0.509322 -0.957086,0.926041 -1.029847,0.926041 -0.07276,0 0.271609,-0.416719 0.765264,-0.926041 z m -23.832526,-0.06615 -0.641433,-0.727604 0.727605,0.641433 c 0.680055,0.599515 0.848939,0.813775 0.641433,0.813775 -0.04739,0 -0.374816,-0.327422 -0.727605,-0.727604 z m 9.677317,0.198437 c 0.263389,-0.291041 0.538421,-0.529166 0.611181,-0.529166 0.07276,0 -0.08321,0.238125 -0.346597,0.529166 -0.263389,0.291042 -0.538421,0.529167 -0.611181,0.529167 -0.07276,0 0.08321,-0.238125 0.346597,-0.529167 z m 4.3456,-0.198437 -0.641433,-0.727604 0.727604,0.641433 c 0.680056,0.599515 0.848939,0.813775 0.641433,0.813775 -0.04739,0 -0.374816,-0.327422 -0.727604,-0.727604 z m 44.714582,0 -0.64143,-0.727604 0.7276,0.641433 c 0.68006,0.599515 0.84894,0.813775 0.64144,0.813775 -0.0474,0 -0.37482,-0.327422 -0.72761,-0.727604 z m 14.41468,0.132291 -0.50403,-0.595312 0.59531,0.504028 c 0.32743,0.277215 0.59532,0.545106 0.59532,0.595312 0,0.211734 -0.21294,0.05542 -0.6866,-0.504028 z M 60.010807,94.672385 c 0.190996,-0.07643 0.4192,-0.06703 0.507118,0.02089 0.08792,0.08792 -0.06835,0.150453 -0.347265,0.138964 -0.308225,-0.0127 -0.370919,-0.07539 -0.159853,-0.159852 z m 1.852084,0 c 0.190996,-0.07643 0.419199,-0.06703 0.507118,0.02089 0.08792,0.08792 -0.06835,0.150453 -0.347266,0.138964 -0.308224,-0.0127 -0.370919,-0.07539 -0.159852,-0.159852 z m 12.170833,0 c 0.190996,-0.07643 0.419199,-0.06703 0.507118,0.02089 0.08792,0.08792 -0.06835,0.150453 -0.347266,0.138964 -0.308224,-0.0127 -0.370919,-0.07539 -0.159852,-0.159852 z m 1.852083,0 c 0.190996,-0.07643 0.4192,-0.06703 0.507118,0.02089 0.08792,0.08792 -0.06835,0.150453 -0.347265,0.138964 -0.308225,-0.0127 -0.370919,-0.07539 -0.159853,-0.159852 z m -38.645703,-0.27974 c 0.909505,-0.05166 2.397787,-0.05166 3.307292,0 0.909505,0.05167 0.165364,0.09394 -1.653646,0.09394 -1.81901,0 -2.563151,-0.04227 -1.653646,-0.09394 z m 25.466146,0.09191 c 0,-0.05719 0.184778,-0.17489 0.410617,-0.261553 0.235459,-0.09035 0.341662,-0.046 0.248968,0.103985 -0.155378,0.251407 -0.659585,0.371858 -0.659585,0.157568 z m 74.21563,-0.689766 c 0.26338,-0.291041 0.53842,-0.529166 0.61118,-0.529166 0.0728,0 -0.0832,0.238125 -0.3466,0.529166 -0.26339,0.291042 -0.53842,0.529167 -0.61118,0.529167 -0.0728,0 0.0832,-0.238125 0.3466,-0.529167 z M 77.7875,93.959481 c 0,-0.05494 0.208359,-0.263302 0.463021,-0.463021 0.419644,-0.329108 0.429002,-0.319749 0.09989,0.0999 -0.345644,0.440729 -0.562916,0.580887 -0.562916,0.363126 z m 53.41208,-0.363126 c -0.3291,-0.419644 -0.31974,-0.429003 0.0999,-0.0999 0.25466,0.199719 0.46302,0.408079 0.46302,0.463021 0,0.217761 -0.21727,0.0776 -0.56292,-0.363126 z m 25.16917,0.363126 c 0,-0.05494 0.20836,-0.263302 0.46302,-0.463021 0.41964,-0.329108 0.429,-0.319749 0.0999,0.0999 -0.34565,0.440729 -0.56292,0.580887 -0.56292,0.363126 z M 44.317708,93.265626 c 0.263389,-0.291042 0.538421,-0.529167 0.611181,-0.529167 0.07276,0 -0.08321,0.238125 -0.346597,0.529167 -0.263389,0.291041 -0.538421,0.529166 -0.611181,0.529166 -0.07276,0 0.08321,-0.238125 0.346597,-0.529166 z m 81.623962,0.0145 c 0,-0.137547 -0.56555,-0.29468 -1.25677,-0.349184 l -1.25677,-0.0991 1.38906,-0.04769 c 1.07953,-0.03706 1.38906,0.04075 1.38906,0.349184 0,0.218281 -0.0595,0.396875 -0.13229,0.396875 -0.0728,0 -0.13229,-0.112539 -0.13229,-0.250087 z M 47.961646,91.148959 c 0,-0.654844 0.0516,-0.922734 0.114663,-0.595312 0.06306,0.327421 0.06306,0.863203 0,1.190624 -0.06307,0.327422 -0.114663,0.05953 -0.114663,-0.595312 z M 150.54792,91.76323 c 0,-0.14722 0.26789,-0.494486 0.59531,-0.771701 l 0.59531,-0.504028 -0.52635,0.661458 c -0.28949,0.363802 -0.55738,0.711068 -0.59531,0.771701 -0.0379,0.06063 -0.069,-0.01021 -0.069,-0.15743 z m 7.21581,-0.878854 c 0,-0.654844 0.0516,-0.922735 0.11466,-0.595313 0.0631,0.327422 0.0631,0.863203 0,1.190625 -0.0631,0.327422 -0.11466,0.05953 -0.11466,-0.595312 z m -30.44757,-0.132292 c 0.005,-0.436562 0.0647,-0.583125 0.13178,-0.325694 0.0671,0.257431 0.0627,0.614619 -0.01,0.79375 -0.0725,0.179132 -0.12736,-0.03149 -0.12197,-0.468056 z M 54.02658,90.487501 c 0.0054,-0.436563 0.06469,-0.583125 0.131774,-0.325694 0.06708,0.257431 0.06267,0.614619 -0.0098,0.79375 -0.07248,0.179132 -0.127362,-0.03149 -0.12197,-0.468056 z m 25.390196,0.132291 c 0,-0.363802 0.06005,-0.51263 0.133452,-0.330729 0.0734,0.181901 0.0734,0.479557 0,0.661458 -0.0734,0.181902 -0.133452,0.03307 -0.133452,-0.330729 z m 2.645834,0 c 0,-0.363802 0.06005,-0.51263 0.133452,-0.330729 0.0734,0.181901 0.0734,0.479557 0,0.661458 -0.0734,0.181902 -0.133452,0.03307 -0.133452,-0.330729 z m 47.88958,0 c 0,-0.363802 0.0601,-0.51263 0.13346,-0.330729 0.0734,0.181901 0.0734,0.479557 0,0.661458 -0.0734,0.181902 -0.13346,0.03307 -0.13346,-0.330729 z M 56.66261,90.355209 c 0,-0.363802 0.06005,-0.51263 0.133452,-0.330729 0.0734,0.181901 0.0734,0.479557 0,0.661458 -0.0734,0.181901 -0.133452,0.03307 -0.133452,-0.330729 z m 91.50406,0.280198 c 0,-0.136932 0.1177,-0.32171 0.26155,-0.410617 0.14998,-0.09269 0.19434,0.01351 0.10398,0.248969 -0.17589,0.458369 -0.36553,0.542233 -0.36553,0.161648 z M 68.077203,89.296876 c 0,-0.800365 0.0496,-1.127787 0.110223,-0.727604 0.06062,0.400182 0.06062,1.055026 0,1.455208 -0.06062,0.400182 -0.110223,0.07276 -0.110223,-0.727604 z m 2.645833,0 c 0,-0.800365 0.0496,-1.127787 0.110223,-0.727604 0.06062,0.400182 0.06062,1.055026 0,1.455208 -0.06062,0.400182 -0.110223,0.07276 -0.110223,-0.727604 z m 42.068754,0 c 0,-0.800365 0.0496,-1.127787 0.11022,-0.727604 0.0606,0.400182 0.0606,1.055026 0,1.455208 -0.0606,0.400182 -0.11022,0.07276 -0.11022,-0.727604 z m 2.63441,1.058333 c 0.0917,-0.336327 0.95249,-0.398184 5.64254,-0.405453 l 5.53439,-0.0086 -5.41184,0.08038 c -3.89916,0.05791 -5.47632,0.171238 -5.64254,0.405453 -0.16738,0.23586 -0.20102,0.216155 -0.12255,-0.0718 z m 37.18877,-0.180741 c 0.191,-0.07643 0.4192,-0.06703 0.50712,0.02089 0.0879,0.08792 -0.0683,0.150452 -0.34726,0.138964 -0.30823,-0.0127 -0.37092,-0.07539 -0.15986,-0.159854 z m 2.63239,-0.270972 c 0.32911,-0.06329 0.80536,-0.06088 1.05833,0.0053 0.25296,0.06622 -0.0163,0.118003 -0.5984,0.115066 -0.58208,-0.0029 -0.78905,-0.05712 -0.45993,-0.120406 z m -110.95479,-1.201933 -0.504028,-0.595312 0.595312,0.504028 c 0.559447,0.473662 0.715762,0.686597 0.504028,0.686597 -0.05021,0 -0.318097,-0.267891 -0.595312,-0.595313 z m 81.97506,-0.727604 c 0,-0.509323 0.0545,-0.717682 0.121,-0.463021 0.0665,0.254662 0.0665,0.67138 0,0.926042 -0.0666,0.254661 -0.121,0.0463 -0.121,-0.463021 z M 54.02658,87.841667 c 0.0054,-0.436562 0.06469,-0.583124 0.131774,-0.325693 0.06708,0.257431 0.06267,0.614618 -0.0098,0.79375 -0.07248,0.179131 -0.127362,-0.03149 -0.12197,-0.468057 z m 2.63603,0.132292 c 0,-0.363802 0.06005,-0.51263 0.133452,-0.330729 0.0734,0.181901 0.0734,0.479557 0,0.661458 -0.0734,0.181901 -0.133452,0.03307 -0.133452,-0.330729 z m 22.733278,-0.15434 c 0.0127,-0.308225 0.07539,-0.370919 0.159853,-0.159853 0.07643,0.190996 0.06703,0.4192 -0.02089,0.507118 -0.08792,0.08792 -0.150452,-0.06835 -0.138963,-0.347265 z m 2.666722,-0.110243 c 0,-0.363802 0.06005,-0.51263 0.133452,-0.330729 0.0734,0.181901 0.0734,0.479557 0,0.661458 -0.0734,0.181901 -0.133452,0.03307 -0.133452,-0.330729 z m 45.24375,0 c 0,-0.363802 0.0601,-0.51263 0.13345,-0.330729 0.0734,0.181901 0.0734,0.479557 0,0.661458 -0.0734,0.181901 -0.13345,0.03307 -0.13345,-0.330729 z m 2.62494,0.110243 c 0.0127,-0.308225 0.0754,-0.370919 0.15986,-0.159853 0.0764,0.190996 0.067,0.4192 -0.0209,0.507118 -0.0879,0.08792 -0.15045,-0.06835 -0.13897,-0.347265 z m 22.13797,0.243695 c 0.1819,-0.0734 0.47956,-0.0734 0.66146,0 0.1819,0.0734 0.0331,0.133452 -0.33073,0.133452 -0.3638,0 -0.51263,-0.06005 -0.33073,-0.133452 z M 46.532918,87.510938 c -0.329108,-0.419644 -0.319749,-0.429002 0.09989,-0.09989 0.254661,0.19972 0.46302,0.408079 0.46302,0.463021 0,0.217761 -0.217272,0.0776 -0.562915,-0.363126 z m 68.825032,0.264584 c -2.1e-4,-0.109141 1.83543,-0.162948 4.07919,-0.119571 3.74246,0.07235 4.08978,0.03955 4.20303,-0.396875 0.0969,-0.373589 0.13004,-0.347914 0.15414,0.119571 0.0306,0.593835 0.0202,0.595312 -4.20264,0.595312 -2.32834,0 -4.23351,-0.0893 -4.23372,-0.198437 z m 40.02225,0.0086 c 0.40218,-0.06082 0.9975,-0.05919 1.32292,0.0036 0.32542,0.0628 -0.004,0.11256 -0.73124,0.110574 -0.72761,-0.002 -0.99386,-0.05337 -0.59168,-0.114186 z M 41.473438,87.534147 c 0.181901,-0.0734 0.479557,-0.0734 0.661458,0 0.181901,0.0734 0.03307,0.133452 -0.330729,0.133452 -0.363802,0 -0.51263,-0.06005 -0.330729,-0.133452 z M 157.76373,86.651042 c 0,-0.654843 0.0516,-0.922734 0.11466,-0.595312 0.0631,0.327422 0.0631,0.863203 0,1.190625 -0.0631,0.327422 -0.11466,0.05953 -0.11466,-0.595313 z m -44.76576,0.110244 c 0.0127,-0.308225 0.0754,-0.37092 0.15985,-0.159853 0.0764,0.190996 0.067,0.419199 -0.0209,0.507118 -0.0879,0.08792 -0.15046,-0.06835 -0.13897,-0.347265 z M 57.414583,85.509919 c 0,-0.04554 0.386954,-0.432488 0.859896,-0.859896 l 0.859896,-0.777105 -0.777105,0.859895 c -0.724371,0.801544 -0.942687,0.981512 -0.942687,0.777106 z M 148.4353,85.129688 c 0.003,-0.361655 0.054,-0.384219 0.23212,-0.103067 0.15393,0.242959 0.61739,0.328955 1.4259,0.264583 0.65881,-0.05245 1.14264,-0.0061 1.07519,0.103068 -0.0675,0.10914 -0.71094,0.198437 -1.42996,0.198437 -1.0702,0 -1.30657,-0.08397 -1.30325,-0.463021 z m -111.45091,0.0031 c 0.768863,-0.05361 1.959488,-0.05305 2.645834,0.0013 0.686345,0.0543 0.05728,0.09817 -1.397932,0.09748 -1.455209,-6.89e-4 -2.016764,-0.04512 -1.247902,-0.09874 z m 26.887346,-0.399943 -0.504028,-0.595312 0.595313,0.504028 c 0.559447,0.473662 0.715762,0.686597 0.504028,0.686597 -0.05021,0 -0.318097,-0.267891 -0.595313,-0.595313 z m 8.359514,-0.06614 c 0.341774,-0.363803 0.680939,-0.661459 0.7537,-0.661459 0.07276,0 -0.147342,0.297656 -0.489117,0.661459 -0.341774,0.363802 -0.680939,0.661458 -0.753699,0.661458 -0.07276,0 0.147342,-0.297656 0.489116,-0.661458 z m 84.77382,-0.198438 -0.50403,-0.595312 0.59531,0.504028 c 0.32743,0.277215 0.59532,0.545106 0.59532,0.595312 0,0.211734 -0.21294,0.05542 -0.6866,-0.504028 z m -91.402647,-1.455208 -0.911798,-0.992188 0.992188,0.911799 c 0.545703,0.501489 0.992187,0.947973 0.992187,0.992187 0,0.202041 -0.223895,0.01171 -1.072577,-0.911798 z m -9.643048,0.198437 c 0.263389,-0.291041 0.538421,-0.529166 0.611181,-0.529166 0.07276,0 -0.08321,0.238125 -0.346598,0.529166 -0.263389,0.291042 -0.53842,0.529167 -0.611181,0.529167 -0.07276,0 0.08321,-0.238125 0.346598,-0.529167 z m 4.696354,0.346783 c 0.254662,-0.06655 0.67138,-0.06655 0.926042,0 0.254661,0.06655 0.0463,0.121 -0.463021,0.121 -0.509323,0 -0.717682,-0.05445 -0.463021,-0.121 z m 14.022917,0 c 0.254661,-0.06655 0.67138,-0.06655 0.926042,0 0.254661,0.06655 0.0463,0.121 -0.463021,0.121 -0.509323,0 -0.717683,-0.05445 -0.463021,-0.121 z m 5.205495,-0.54522 -0.641433,-0.727604 0.727605,0.641433 c 0.680055,0.599515 0.848939,0.813775 0.641433,0.813775 -0.04739,0 -0.374816,-0.327422 -0.727605,-0.727604 z m 39.379879,0.540474 c 0.32912,-0.06329 0.80537,-0.06088 1.05834,0.0053 0.25296,0.06622 -0.0163,0.118003 -0.5984,0.115066 -0.58208,-0.0029 -0.78906,-0.05712 -0.45994,-0.120406 z m 14.55209,0 c 0.32911,-0.06329 0.80536,-0.06088 1.05833,0.0053 0.25296,0.06622 -0.0163,0.118003 -0.5984,0.115066 -0.58208,-0.0029 -0.78905,-0.05712 -0.45993,-0.120406 z m 20.10524,4.05e-4 c 0.32743,-0.06306 0.86321,-0.06306 1.19063,0 0.32742,0.06306 0.0595,0.114662 -0.59531,0.114662 -0.65485,0 -0.92274,-0.0516 -0.59532,-0.114662 z m -4.29947,-0.607025 c 0.26338,-0.291042 0.53842,-0.529167 0.61118,-0.529167 0.0728,0 -0.0832,0.238125 -0.3466,0.529167 -0.26339,0.291042 -0.53842,0.529167 -0.61118,0.529167 -0.0728,0 0.0832,-0.238125 0.3466,-0.529167 z m -12.0723,-0.198438 c -0.3291,-0.419643 -0.31974,-0.429002 0.0999,-0.09989 0.25466,0.199719 0.46302,0.408078 0.46302,0.46302 0,0.217762 -0.21727,0.0776 -0.56292,-0.363126 z M 44.236997,82.020834 c 0.0054,-0.436562 0.06469,-0.583124 0.131774,-0.325693 0.06708,0.257431 0.06267,0.614618 -0.0098,0.79375 -0.07248,0.179131 -0.127362,-0.03149 -0.12197,-0.468057 z m 2.666316,-0.661458 c 0,-0.654844 0.0516,-0.922734 0.114662,-0.595312 0.06306,0.327421 0.06306,0.863203 0,1.190624 -0.06306,0.327422 -0.114662,0.05953 -0.114662,-0.595312 z m -3.669077,-1.653646 -0.504028,-0.595312 0.595313,0.504028 c 0.559447,0.473662 0.715762,0.686597 0.504028,0.686597 -0.05021,0 -0.318097,-0.267891 -0.595313,-0.595313 z m -5.983763,-0.92377 c 0.915207,-0.05181 2.343957,-0.05138 3.175,9.51e-4 0.831042,0.05234 0.08224,0.09473 -1.664015,0.09421 -1.74625,-5.24e-4 -2.426193,-0.04334 -1.510985,-0.09516 z m 8.237835,-0.796021 -0.641433,-0.727605 0.727604,0.641434 c 0.680056,0.599515 0.848939,0.813775 0.641433,0.813775 -0.04739,0 -0.374816,-0.327422 -0.727604,-0.727604 z M 34.841986,76.404828 c 1.451099,-0.08506 1.646195,-0.162149 1.719792,-0.679552 0.06354,-0.44667 0.269259,-0.589396 0.876764,-0.608275 0.71457,-0.02221 0.722801,-0.01406 0.08251,0.08169 -0.488292,0.07302 -0.737103,0.288092 -0.79375,0.686125 -0.07493,0.526486 -0.240568,0.581432 -1.802303,0.597863 l -1.719792,0.01809 z m 3.858362,0.0087 c 0.257431,-0.06708 0.614619,-0.06267 0.79375,0.0098 0.179132,0.07248 -0.03149,0.127362 -0.468056,0.12197 -0.436563,-0.0054 -0.583125,-0.06469 -0.325694,-0.131774 z M 41.275,75.952181 c 0,-0.526868 -0.157157,-0.666158 -0.859896,-0.762137 l -0.859896,-0.117443 0.926042,0.03453 c 0.737981,0.02752 0.942779,0.152127 1.008458,0.613579 0.04533,0.318475 0.283454,0.632086 0.529167,0.696913 0.316531,0.08351 0.273229,0.126812 -0.148562,0.148558 -0.462881,0.02387 -0.595313,-0.112722 -0.595313,-0.614 z m 50.204688,0.453297 c 0.472942,-0.05869 1.246849,-0.05869 1.719791,0 0.472943,0.05869 0.08599,0.106712 -0.859896,0.106712 -0.945885,0 -1.332838,-0.04802 -0.859895,-0.106712 z m 16.933332,0 c 0.47294,-0.05869 1.24685,-0.05869 1.71979,0 0.47295,0.05869 0.086,0.106712 -0.85989,0.106712 -0.94589,0 -1.33284,-0.04802 -0.8599,-0.106712 z"
         id="path3" /><path
         style="fill:#ac7d56"
         d="m 84.712787,96.357427 c -1.12841,-1.201138 -0.375841,-3.091801 1.230676,-3.091801 0.866989,0 1.898204,0.960105 1.898204,1.767308 0,0.298418 -0.246767,0.856292 -0.54837,1.239718 -0.69573,0.884477 -1.795293,0.9206 -2.58051,0.08478 z M 49.794583,78.131459 c -0.174625,-0.174625 -0.3175,-0.746125 -0.3175,-1.27 0,-1.177281 0.384825,-1.587499 1.489227,-1.587499 1.055754,0 1.685773,0.593291 1.685773,1.587499 0,0.415774 -0.187098,0.943051 -0.415773,1.171727 -0.49085,0.490849 -1.988859,0.551141 -2.441727,0.09827 z M 143.85366,77.97794 c -1.05745,-1.168473 -0.16935,-2.811671 1.43573,-2.656444 1.24286,0.120196 1.86461,1.220399 1.28146,2.267568 -0.51909,0.932156 -2.02985,1.148371 -2.71719,0.388876 z"
         id="path1" /></g></g></svg>
