<?xml version="1.0" encoding="UTF-8" standalone="no"?>
<svg
   version="1.0"
   width="414.873840pt"
   height="394.882079pt"
   viewBox="0 0 414.873840 394.882079"
   preserveAspectRatio="xMidYMid meet"
   id="svg8"
   sodipodi:docname="bitails.svg"
   inkscape:version="1.2.2 (b0a8486541, 2022-12-01)"
   xmlns:inkscape="http://www.inkscape.org/namespaces/inkscape"
   xmlns:sodipodi="http://sodipodi.sourceforge.net/DTD/sodipodi-0.dtd"
   xmlns="http://www.w3.org/2000/svg"
   xmlns:svg="http://www.w3.org/2000/svg">
  <defs
     id="defs12" />
  <sodipodi:namedview
     id="namedview10"
     pagecolor="#ffffff"
     bordercolor="#000000"
     borderopacity="0.25"
     inkscape:showpageshadow="2"
     inkscape:pageopacity="0.0"
     inkscape:pagecheckerboard="0"
     inkscape:deskcolor="#d1d1d1"
     inkscape:document-units="pt"
     showgrid="false"
     inkscape:zoom="1.6485934"
     inkscape:cx="276.59943"
     inkscape:cy="263.25472"
     inkscape:window-width="1880"
     inkscape:window-height="1056"
     inkscape:window-x="40"
     inkscape:window-y="0"
     inkscape:window-maximized="1"
     inkscape:current-layer="svg8" />
  <metadata
     id="metadata2"> Created by potrace 1.16, written by Peter Selinger 2001-2019 </metadata>
  <g
     transform="translate(-32.000000,410.000000) scale(0.100000,-0.100000)"
     fill="#000000"
     stroke="none"
     id="g6"
     style="fill:#ff7f2a">
    <path
       d="M320 2970 c0 -734 4 -1165 11 -1228 58 -534 353 -1015 799 -1304 457 -297 1025 -368 1534 -191 141 49 354 160 466 244 108 80 244 210 332 317 43 53 65 72 76 67 9 -3 171 -96 361 -206 281 -164 346 -198 356 -187 7 7 57 93 113 190 l101 178 -117 69 c-64 37 -227 132 -362 211 -135 78 -247 143 -248 145 -2 2 5 28 17 59 102 274 128 656 65 964 -54 264 -187 546 -358 758 -87 108 -241 253 -357 337 -111 80 -337 194 -467 236 -352 116 -751 116 -1095 1 -279 -93 -485 -219 -699 -428 l-88 -86 0 492 0 492 -220 0 -220 0 0 -1130z m2035 276 c539 -122 935 -525 1042 -1064 24 -120 24 -375 0 -495 -111 -556 -538 -977 -1087 -1073 -142 -24 -401 -15 -530 19 -384 101 -683 335 -864 677 -102 194 -149 389 -149 620 -1 374 125 682 387 946 207 208 437 329 726 380 99 17 379 11 475 -10z"
       id="path4"
       style="fill:#ff7f2a" />
  </g>
</svg>
