<?xml version="1.0" encoding="UTF-8" standalone="no"?>
<svg
   version="1.0"
   width="535.772582pt"
   height="538.284841pt"
   viewBox="0 0 535.772582 538.284841"
   preserveAspectRatio="xMidYMid meet"
   id="svg7170"
   sodipodi:docname="bitchute.svg"
   inkscape:version="1.2.2 (b0a8486541, 2022-12-01)"
   xmlns:inkscape="http://www.inkscape.org/namespaces/inkscape"
   xmlns:sodipodi="http://sodipodi.sourceforge.net/DTD/sodipodi-0.dtd"
   xmlns="http://www.w3.org/2000/svg"
   xmlns:svg="http://www.w3.org/2000/svg">
  <defs
     id="defs7174" />
  <sodipodi:namedview
     id="namedview7172"
     pagecolor="#ffffff"
     bordercolor="#000000"
     borderopacity="0.25"
     inkscape:showpageshadow="2"
     inkscape:pageopacity="0.0"
     inkscape:pagecheckerboard="0"
     inkscape:deskcolor="#d1d1d1"
     inkscape:document-units="pt"
     showgrid="false"
     inkscape:zoom="1.2093968"
     inkscape:cx="357.20285"
     inkscape:cy="358.85657"
     inkscape:window-width="1880"
     inkscape:window-height="1056"
     inkscape:window-x="40"
     inkscape:window-y="0"
     inkscape:window-maximized="1"
     inkscape:current-layer="svg7170" />
  <metadata
     id="metadata7164"> Created by potrace 1.16, written by Peter Selinger 2001-2019 </metadata>
  <g
     transform="translate(-31.433174,569.152501) scale(0.100000,-0.100000)"
     fill="#000000"
     stroke="none"
     id="g7168"
     style="fill:#ff0000">
    <path
       d="M2846 5688 c-669 -33 -1251 -292 -1726 -768 -219 -218 -386 -451 -520 -725 -165 -335 -247 -640 -280 -1042 -24 -292 26 -668 130 -983 436 -1322 1749 -2085 3105 -1803 501 104 968 356 1332 720 486 487 787 1177 785 1800 0 145 -7 197 -25 190 -7 -2 -255 -71 -552 -152 -297 -81 -541 -148 -542 -149 -2 -1 -14 -46 -28 -100 -32 -124 -85 -267 -140 -376 -142 -284 -387 -531 -664 -670 -158 -78 -372 -145 -549 -171 -106 -15 -381 -6 -477 15 -293 66 -550 211 -827 467 l-97 90 -328 -81 c-335 -83 -724 -178 -756 -185 -10 -2 -17 0 -15 5 2 5 185 165 408 355 223 191 415 357 428 369 l23 22 -25 125 c-66 327 -55 611 34 880 69 210 171 377 329 541 161 168 300 270 496 364 384 184 807 178 1303 -18 l102 -41 48 40 c266 224 774 632 800 642 18 7 32 17 32 21 0 15 -142 139 -235 206 -122 87 -397 223 -565 278 -321 105 -664 151 -1004 134z"
       id="path7166"
       style="fill:#ff0000" />
  </g>
</svg>
