<?xml version="1.0" encoding="UTF-8" standalone="no"?>
<svg
   class="svg-icon"
   style="overflow:hidden;fill:currentColor"
   viewBox="0 0 916.48798 1024"
   version="1.1"
   id="svg15871"
   xml:space="preserve"
   width="916.48798"
   height="1024"
   xmlns="http://www.w3.org/2000/svg"
   xmlns:svg="http://www.w3.org/2000/svg"><defs
     id="defs15875" /><path
     d="m 230.868,277.724 v -0.084 l -102,-58.656 -101.796,58.992 0.124,117.64 101.656,58.7 V 337.004 Z"
     fill="#FFD552"
     id="path15819"
     style="fill:#2475ff;fill-opacity:1" /><path
     d="m 230.868,277.724 -102.016,59.28 v 117.312 l 102.184,-58.992 z"
     fill="#F68F6F"
     id="path15821"
     style="fill:#d81f86;fill-opacity:1" /><path
     d="M 257.884,262.004 128.84,187.74 0,262.384 0.196,411.276 128.848,485.54 258.08,410.904 Z M 128.86,202.156 239.388,265.76 128.852,329.792 18.692,265.976 Z M 12.496,276.808 122.612,340.6 V 467.528 L 12.672,404.068 Z M 135.092,467.524 V 340.6 l 110.332,-63.916 0.172,127.024 z M 465.476,350.132 h -12.48 v -12.48 h 12.48 z m 0,-24.96 h -12.48 v -12.48 h 12.48 z m -330.004,211.1 h -12.48 v -12.48 h 12.48 z m 0,-24.96 h -12.48 v -12.48 h 12.48 z m 658.404,24.96 h -12.48 v -12.48 h 12.48 z m 0,-24.96 h -12.48 v -12.48 h 12.48 z m -525.248,-246.236 -6.092,-10.892 10.892,-6.092 6.092,10.892 z M 290.412,252.892 284.32,242 l 10.892,-6.092 6.092,10.892 z m 21.78,-12.184 -6.088,-10.892 10.892,-6.092 6.088,10.892 z m 8.416,565.58 -10.892,-6.092 6.092,-10.892 10.892,6.092 z m -21.784,-12.184 -10.892,-6.092 6.092,-10.892 10.892,6.092 z m -21.784,-12.184 -10.892,-6.092 6.092,-10.892 10.892,6.092 z m 320.992,24.368 -6.092,-10.892 10.892,-6.092 6.092,10.892 z m 21.78,-12.184 -6.092,-10.892 10.892,-6.092 6.092,10.892 z m 21.788,-12.184 -6.092,-10.892 10.892,-6.092 6.092,10.892 z m 8.62,-516.844 -10.892,-6.092 6.092,-10.892 10.892,6.092 z m -21.784,-12.184 -10.892,-6.092 6.092,-10.892 10.892,6.092 z m -21.784,-12.184 -10.892,-6.092 6.092,-10.892 10.892,6.092 z M 465.476,714.664 h -12.48 v -12.48 h 12.48 z m 0,-24.96 h -12.48 v -12.48 h 12.48 z"
     fill="#4a555f"
     id="path15823" /><path
     d="m 357.604,207.888 -0.16,-117.676 101.832,-58.988 101.976,58.684 0.156,117.676 -101.824,58.992 z"
     fill="#FFD552"
     id="path15825"
     style="fill:#2475ff;fill-opacity:1" /><path
     d="m 561.62,89.984 -102,59.28 -0.036,117.312 101.824,-58.992 z"
     fill="#F68F6F"
     id="path15827"
     style="fill:#d81f86;fill-opacity:1" /><path
     d="M 588.272,74.256 459.224,0 l -128.84,74.64 0.2,148.9 129.048,74.256 128.836,-74.64 z M 459.248,14.408 569.86,77.964 459.236,142.048 349.076,78.228 Z M 342.884,89.068 453.38,153.08 V 279.804 L 343.056,216.316 Z M 575.98,215.972 465.86,279.768 V 152.636 L 575.98,88.84 Z"
     fill="#4a555f"
     id="path15829" /><path
     d="m 356.564,215.896 -6.092,-10.892 10.892,-6.092 6.092,10.892 z m 21.788,-12.184 -6.092,-10.892 10.892,-6.092 6.092,10.892 z m 183.932,12.184 -10.892,-6.092 6.092,-10.892 10.892,6.092 z m -21.78,-12.184 -10.896,-6.092 6.092,-10.892 10.896,6.092 z"
     fill="#4a555f"
     id="path15831" /><path
     d="m 357.604,934.092 -0.16,-117.676 101.832,-58.988 101.976,58.684 0.156,117.676 -101.824,58.988 z"
     fill="#FFD552"
     id="path15841"
     style="fill:#2475ff;fill-opacity:1" /><path
     d="m 561.62,816.188 -102,59.28 -0.036,117.308 101.824,-58.988 z"
     fill="#F68F6F"
     id="path15843"
     style="fill:#d81f86;fill-opacity:1" /><path
     d="m 588.272,800.46 -129.048,-74.26 -128.84,74.64 0.2,148.9 129.048,74.26 128.836,-74.64 z m -129.024,-59.848 110.528,63.604 -110.54,64.04 -110.16,-63.82 z m -116.364,74.66 110.496,64.012 v 126.724 L 343.056,942.52 Z M 465.86,1005.968 V 878.84 l 109.952,-63.696 0.168,127.032 z"
     fill="#4a555f"
     id="path15845" /><path
     d="m 465.476,814.972 h -12.48 v -12.48 h 12.48 z m 0,-24.96 h -12.48 v -12.48 h 12.48 z m 0,-24.96 h -12.48 v -12.48 h 12.48 z"
     fill="#4a555f"
     id="path15847" /><path
     d="m 685.624,395.632 -0.16,-117.676 101.832,-58.992 102.132,58.688 v 117.676 l -102.172,58.988 z"
     fill="#FFD552"
     id="path15849"
     style="fill:#2475ff;fill-opacity:1" /><path
     d="m 889.428,277.724 -102.172,59.28 v 117.312 l 102.172,-58.992 z"
     fill="#F68F6F"
     id="path15851"
     style="fill:#d81f86;fill-opacity:1" /><path
     d="m 916.288,262.004 -129.044,-74.264 -128.84,74.644 0.2,148.892 128.652,74.264 129.228,-74.636 z M 787.272,202.156 897.796,265.76 787.26,329.792 677.1,265.976 Z M 670.904,276.808 781.02,340.6 V 467.528 L 671.08,404.068 Z M 793.496,467.524 V 340.6 l 110.328,-63.916 0.172,127.024 z"
     fill="#4a555f"
     id="path15853" /><path
     d="m 685.624,753.728 -0.16,-117.676 101.832,-58.992 102.132,58.684 V 753.42 l -102.044,58.992 z"
     fill="#FFD552"
     id="path15855"
     style="fill:#2475ff;fill-opacity:1" /><path
     d="M 889.428,635.976 787.384,695.252 V 812.564 L 889.428,753.576 Z"
     fill="#F68F6F"
     id="path15857"
     style="fill:#d81f86;fill-opacity:1" /><path
     d="m 916.288,620.096 -129.044,-74.26 -128.84,74.644 0.2,148.896 129.044,74.26 128.84,-74.644 z M 787.272,560.248 897.8,623.852 787.384,687.884 677.104,624.064 Z m -116.368,74.652 110.248,63.804 0.228,126.924 -110.3,-63.476 z m 122.952,190.712 -0.228,-126.92 110.196,-63.908 0.172,127.02 z"
     fill="#4a555f"
     id="path15859" /><path
     d="m 793.876,636.58 h -12.48 V 624.1 h 12.48 z m 0,-24.96 h -12.48 v -12.48 h 12.48 z m 0,-24.96 h -12.48 v -12.48 h 12.48 z m -107.912,170.444 -6.092,-10.892 10.892,-6.092 6.092,10.892 z m 21.784,-12.18 -6.092,-10.892 10.896,-6.092 6.092,10.892 z"
     fill="#4a555f"
     id="path15861" /><path
     d="M 27.216,753.728 27.06,636.052 128.884,577.06 l 101.98,58.684 0.16,117.676 -101.828,58.992 z"
     fill="#FFD552"
     id="path15863"
     style="fill:#2475ff;fill-opacity:1" /><path
     d="m 230.96,635.976 -102,59.276 -0.036,117.312 101.824,-58.988 z"
     fill="#F68F6F"
     id="path15865"
     style="fill:#d81f86;fill-opacity:1" /><path
     d="M 257.884,620.096 128.84,545.836 0,620.48 0.196,769.376 129.24,843.636 258.08,768.992 Z M 128.86,560.248 239.388,623.852 128.852,687.888 18.692,624.072 Z m -116.364,74.656 110.496,64.012 v 126.72 L 12.668,762.152 Z m 122.976,190.7 V 698.476 l 109.948,-63.696 0.172,127.028 z"
     fill="#4a555f"
     id="path15867" /><path
     d="m 135.472,636.58 h -12.48 V 624.1 h 12.48 z m 0,-24.96 h -12.48 v -12.48 h 12.48 z m 0,-24.96 h -12.48 v -12.48 h 12.48 z m 97.2,170.444 -10.892,-6.092 6.092,-10.892 10.892,6.092 z m -21.784,-12.184 -10.892,-6.092 6.092,-10.892 10.892,6.092 z"
     fill="#4a555f"
     id="path15869" /><style
     type="text/css"
     id="style2">
	.st0{fill:#000000;}
</style><g
     id="g22"
     style="fill:#d81f86;fill-opacity:1"
     transform="matrix(0.61128129,0,0,0.61128129,302.14399,356.71651)">
	<rect
   x="293.186"
   y="307.18399"
   class="st0"
   width="131.57201"
   height="112.986"
   id="rect4"
   style="fill:#d81f86;fill-opacity:1" />
	<rect
   x="87.242996"
   y="308.89301"
   class="st0"
   width="154.448"
   height="17.162001"
   id="rect6"
   style="fill:#d81f86;fill-opacity:1" />
	<rect
   x="87.242996"
   y="401.298"
   class="st0"
   width="154.448"
   height="17.162001"
   id="rect8"
   style="fill:#d81f86;fill-opacity:1" />
	<rect
   x="87.242996"
   y="355.10001"
   class="st0"
   width="154.448"
   height="17.162001"
   id="rect10"
   style="fill:#d81f86;fill-opacity:1" />
	<path
   class="st0"
   d="M 416.428,0.004 H 95.58 C 42.787,0.013 0.016,42.792 0,95.577 v 303.685 c 0.025,62.262 50.463,112.717 112.742,112.734 H 399.266 C 461.536,511.979 511.983,461.532 512,399.262 V 95.577 C 511.992,42.792 469.212,0.013 416.428,0.004 Z m 48.377,399.258 c -0.008,18.15 -7.308,34.424 -19.198,46.34 -11.916,11.891 -28.19,19.19 -46.34,19.198 H 112.742 C 94.592,464.791 78.309,457.492 66.394,445.602 54.502,433.686 47.212,417.412 47.196,399.262 V 118.696 h 417.61 v 280.566 z"
   id="path12"
   style="fill:#d81f86;fill-opacity:1" />
	<path
   class="st0"
   d="m 88.96,267.908 h 34.583 c 19.71,0 31.642,-8.581 31.642,-26.548 0,-10.852 -6.167,-18.368 -12.2,-20.648 v -0.268 c 6.034,-3.352 10.592,-9.519 10.592,-19.432 0,-14.489 -9.251,-24.268 -29.086,-24.268 H 88.96 c -0.796,0 -1.332,0.536 -1.332,1.34 v 88.475 c 0,0.812 0.536,1.349 1.332,1.349 z m 18.378,-74.413 c 0,-0.528 0.251,-0.804 0.804,-0.804 h 13.944 c 7.5,0 11.925,3.888 11.925,10.584 0,6.712 -4.425,10.734 -11.925,10.734 h -13.944 c -0.553,0 -0.804,-0.268 -0.804,-0.804 z m 0,36.46 c 0,-0.528 0.251,-0.795 0.804,-0.795 h 15 c 8.061,0 12.343,4.424 12.343,11.405 0,7.097 -4.282,11.396 -12.343,11.396 h -15 c -0.553,0 -0.804,-0.276 -0.804,-0.812 z"
   id="path14"
   style="fill:#d81f86;fill-opacity:1" />
	<path
   class="st0"
   d="m 181.516,267.908 h 59.404 c 0.796,0 1.332,-0.536 1.332,-1.349 v -14.874 c 0,-0.813 -0.536,-1.341 -1.332,-1.341 h -40.224 c -0.544,0 -0.804,-0.268 -0.804,-0.812 v -71.447 c 0,-0.804 -0.528,-1.34 -1.341,-1.34 h -17.036 c -0.805,0 -1.332,0.536 -1.332,1.34 v 88.475 c 0,0.811 0.528,1.348 1.333,1.348 z"
   id="path16"
   style="fill:#d81f86;fill-opacity:1" />
	<path
   class="st0"
   d="m 292.708,269.374 c 15.963,0 28.558,-7.366 33.251,-22.115 2.011,-6.301 2.539,-11.396 2.539,-24.938 0,-13.542 -0.528,-18.637 -2.539,-24.939 -4.693,-14.739 -17.288,-22.114 -33.251,-22.114 -15.956,0 -28.558,7.375 -33.243,22.114 -2.02,6.302 -2.556,11.397 -2.556,24.939 0,13.542 0.536,18.637 2.556,24.938 4.684,14.75 17.287,22.115 33.243,22.115 z m -14.347,-66.628 c 2.011,-6.301 6.847,-10.055 14.346,-10.055 7.508,0 12.335,3.754 14.346,10.055 1.073,3.226 1.474,7.634 1.474,19.576 0,11.924 -0.402,16.357 -1.474,19.567 -2.011,6.31 -6.838,10.072 -14.346,10.072 -7.5,0 -12.335,-3.763 -14.346,-10.072 -1.064,-3.21 -1.475,-7.643 -1.475,-19.567 0,-11.942 0.411,-16.35 1.475,-19.576 z"
   id="path18"
   style="fill:#d81f86;fill-opacity:1" />
	<path
   class="st0"
   d="m 387.961,269.374 c 16.081,0 28.685,-8.171 33.251,-22.794 1.6,-4.952 2.263,-12.46 2.263,-20.505 v -7.517 c 0,-0.788 -0.536,-1.333 -1.332,-1.333 h -31.366 c -0.813,0 -1.349,0.545 -1.349,1.333 v 12.888 c 0,0.796 0.536,1.332 1.349,1.332 h 12.326 c 0.536,0 0.805,0.277 0.805,0.805 0,3.879 -0.403,6.703 -1.073,8.991 -1.878,6.026 -7.777,9.386 -14.614,9.386 -7.91,0 -12.88,-3.763 -14.891,-10.072 -1.064,-3.21 -1.466,-7.643 -1.466,-19.567 0,-11.941 0.402,-16.223 1.466,-19.441 2.011,-6.302 6.847,-10.19 14.631,-10.19 7.5,0 12.05,3.218 15.678,9.385 0.269,0.67 0.939,0.939 1.886,0.67 l 14.338,-6.033 c 0.796,-0.402 0.947,-1.206 0.536,-2.019 -4.299,-10.995 -15.419,-19.425 -32.439,-19.425 -16.232,0 -28.835,7.375 -33.527,22.114 -2.012,6.302 -2.556,11.397 -2.556,24.939 0,13.542 0.545,18.637 2.556,24.938 4.693,14.75 17.297,22.115 33.528,22.115 z"
   id="path20"
   style="fill:#d81f86;fill-opacity:1" />
</g></svg>
