<?xml version="1.0" encoding="UTF-8" standalone="no"?>
<!-- Created with Inkscape (http://www.inkscape.org/) -->

<svg
   width="91.762245mm"
   height="69.620583mm"
   viewBox="0 0 91.762245 69.620583"
   version="1.1"
   id="svg5"
   xml:space="preserve"
   xmlns:xlink="http://www.w3.org/1999/xlink"
   xmlns="http://www.w3.org/2000/svg"
   xmlns:svg="http://www.w3.org/2000/svg"><defs
     id="defs2"><linearGradient
       id="linearGradient1954"><stop
         style="stop-color:#ff00ff;stop-opacity:1;"
         offset="0"
         id="stop1950" /><stop
         style="stop-color:#5900ff;stop-opacity:1;"
         offset="1"
         id="stop1952" /></linearGradient><style
       id="style1567">
      :root { color-scheme: light; } /* dark-mode fix */
    </style><linearGradient
       xlink:href="#linearGradient1954"
       id="linearGradient1956"
       x1="51.79388"
       y1="101.86552"
       x2="143.52754"
       y2="101.86552"
       gradientUnits="userSpaceOnUse"
       gradientTransform="translate(-51.765297,-68.871919)" /></defs><rect
     style="fill:url(#linearGradient1956);fill-opacity:1;stroke-width:3.56519;stroke-miterlimit:0"
     id="rect2115"
     width="91.762245"
     height="69.620583"
     x="0"
     y="0"
     ry="12.652342" /><g
     id="layer1"
     transform="translate(-50.859768,-66.508308)"><g
       aria-label="BRC-100"
       transform="scale(0.57803628,1.7299952)"
       id="text236"
       style="font-size:36.9287px;line-height:0px;font-family:Sansation;-inkscape-font-specification:Sansation;text-align:center;text-anchor:middle;fill:#f9f9f9;stroke-width:7.102;stroke-miterlimit:0"><path
         d="M 95.529323,71.699249 V 45.914073 h 12.081167 q 7.35689,0 7.35689,6.00452 0,4.399709 -4.7964,6.293026 5.12097,0.955674 5.12097,5.860267 0,7.627363 -8.06012,7.627363 z m 11.504157,-4.147266 q 3.17356,0 3.17356,-3.245686 0,-4.021045 -4.74231,-4.021045 H 104.0222 V 57.20185 q 5.95043,-0.991738 5.95043,-4.97672 0,-2.163791 -2.66868,-2.163791 h -6.99626 v 17.490644 z"
         id="path2188" /><path
         d="M 119.34906,71.663186 V 45.914073 h 11.72053 q 7.89784,0 7.89784,6.9061 0,4.670182 -6.14878,7.735553 l 8.16832,11.143523 h -6.02256 l -7.84374,-11.233681 v -2.181823 q 6.85201,-1.172053 6.85201,-5.319319 0,-2.848992 -3.20963,-2.848992 h -6.54546 v 21.547752 z"
         id="path2190" /><path
         d="m 163.79693,70.617354 q -3.33584,1.262211 -7.57327,1.262211 -13.88432,0 -13.88432,-13.433536 0,-12.712272 13.88432,-12.712272 4.23743,0 7.57327,1.262212 v 4.327582 q -3.33584,-1.442528 -7.21264,-1.442528 -9.28627,0 -9.28627,8.565006 0,9.28627 9.28627,9.28627 3.8768,0 7.21264,-1.442527 z"
         id="path2192" /><path
         d="m 176.41904,60.339347 v 3.786634 h -9.01579 v -3.786634 z"
         id="path2194" /><path
         d="M 182.7301,71.699249 V 49.862992 h -2.70474 v -1.965444 l 7.48311,-2.524422 v 26.326123 z"
         id="path2196" /><path
         d="m 197.24553,58.734535 q 0,8.997764 6.54547,8.997764 6.34712,0 6.34712,-8.997764 0,-8.853512 -6.34712,-8.853512 -6.54547,0 -6.54547,8.853512 z m -4.95869,0.108189 q 0,-13.108967 11.50416,-13.108967 11.30581,0 11.30581,13.108967 0,13.036841 -11.30581,13.036841 -11.50416,0 -11.50416,-13.036841 z"
         id="path2198" /><path
         d="m 223.30118,58.734535 q 0,8.997764 6.54547,8.997764 6.34712,0 6.34712,-8.997764 0,-8.853512 -6.34712,-8.853512 -6.54547,0 -6.54547,8.853512 z m -4.95869,0.108189 q 0,-13.108967 11.50416,-13.108967 11.30581,0 11.30581,13.108967 0,13.036841 -11.30581,13.036841 -11.50416,0 -11.50416,-13.036841 z"
         id="path2200" /></g></g></svg>
