<?xml version="1.0" encoding="UTF-8" standalone="no"?>
<svg
   id="Layer_1"
   version="1.1"
   viewBox="0 0 444.08496 326.57373"
   sodipodi:docname="brc100.svg"
   width="444.08496"
   height="326.57373"
   inkscape:version="1.2.2 (b0a8486541, 2022-12-01)"
   xmlns:inkscape="http://www.inkscape.org/namespaces/inkscape"
   xmlns:sodipodi="http://sodipodi.sourceforge.net/DTD/sodipodi-0.dtd"
   xmlns="http://www.w3.org/2000/svg"
   xmlns:svg="http://www.w3.org/2000/svg">
  <!-- Generator: Adobe Illustrator 30.2.1, SVG Export Plug-In . SVG Version: 2.1.1 Build 1)  -->
  <defs
     id="defs9">
    <style
       id="style2">
      .st0 {
        fill: #fc0;
      }

      .st1 {
        fill: url(#linear-gradient);
      }
    </style>
    <linearGradient
       id="linear-gradient"
       x1="26.34"
       y1="584.59998"
       x2="444.25"
       y2="584.59998"
       gradientTransform="matrix(0.93,0,0,-1,2.6425468,750.87803)"
       gradientUnits="userSpaceOnUse">
      <stop
         offset="0"
         stop-color="#2939ee"
         id="stop4"
         style="stop-color:#f815d7;stop-opacity:1;" />
      <stop
         offset="1"
         stop-color="#da1254"
         stop-opacity=".99"
         id="stop6"
         style="stop-color:#370a76;stop-opacity:0.99000001;" />
    </linearGradient>
  </defs>
  <sodipodi:namedview
     id="namedview14"
     bordercolor="#000000"
     borderopacity="0.25"
     inkscape:current-layer="Layer_1"
     inkscape:cx="227.96702"
     inkscape:cy="98.889804"
     inkscape:deskcolor="#d1d1d1"
     inkscape:pagecheckerboard="0"
     inkscape:pageopacity="0.0"
     inkscape:showpageshadow="2"
     inkscape:window-height="1020"
     inkscape:window-maximized="1"
     inkscape:window-width="1920"
     inkscape:window-x="0"
     inkscape:window-y="32"
     inkscape:zoom="1.4409979"
     pagecolor="#ffffff"
     showgrid="false" />
  <path
     id="rect1"
     class="st1"
     d="M 73.532547,32.448023 H 368.74254 c 25.64,0 46.43,22.390001 46.43,50.000001 V 250.09803 c 0,27.61 -20.79,50 -46.43,50 H 73.532547 c -25.64,0 -46.43,-22.39 -46.43,-50 V 82.448024 c 0,-27.61 20.79,-50.000001 46.43,-50.000001 z"
     style="fill:url(#linear-gradient)" />
  <g
     id="g14"
     transform="matrix(1.0450078,0,0,1.0122118,-61.134015,-503.50408)"
     style="fill:#f2f2f2">
    <path
       id="path8"
       class="st0"
       d="m 108.08,574.69 h 20.08 c 6.34,0 11.14,1.12 14.41,3.34 3.27,2.22 5.9,6.73 7.91,13.49 2.01,6.76 3.02,17.7 3.02,32.76 0,10.18 -0.7,17.28 -2.12,21.3 -1.42,4.02 -4.22,7.1 -8.39,9.26 4.65,2.37 7.81,6.3 9.47,11.8 1.66,5.5 2.49,13.91 2.49,25.26 v 16.15 c 0,11.78 -0.6,20.5 -1.79,26.17 -1.19,5.67 -3.1,9.54 -5.71,11.64 -2.61,2.08 -7.97,3.12 -16.07,3.12 H 108.1 V 574.69 Z m 20.12,29.81 v 38.76 c 0.86,-0.06 1.53,-0.11 2.01,-0.11 1.98,0 3.23,-1.09 3.78,-3.28 0.54,-2.19 0.81,-8.46 0.81,-18.79 0,-5.45 -0.23,-9.27 -0.67,-11.46 -0.45,-2.19 -1.03,-3.57 -1.74,-4.14 -0.71,-0.57 -2.11,-0.9 -4.18,-0.98 v 0 z m 0,65.89 v 48.76 c 2.84,-0.21 4.64,-1.22 5.42,-3.02 0.78,-1.79 1.17,-6.2 1.17,-13.24 v -16.26 c 0,-7.47 -0.35,-11.98 -1.05,-13.56 -0.7,-1.58 -2.55,-2.48 -5.54,-2.69 v 0 z"
       style="fill:#f2f2f2" />
    <path
       id="path9"
       class="st0"
       d="m 162.14,574.69 h 14.25 c 9.5,0 15.93,0.83 19.29,2.48 3.36,1.65 6.1,5.87 8.22,12.65 2.11,6.78 3.18,17.6 3.18,32.46 0,13.56 -0.75,22.67 -2.24,27.34 -1.5,4.67 -4.44,7.47 -8.84,8.39 3.98,2.22 6.66,5.2 8.03,8.94 1.37,3.73 2.22,7.16 2.56,10.28 0.33,3.12 0.5,11.72 0.5,25.79 v 45.97 H 188.4 v -57.91 c 0,-9.32 -0.32,-15.11 -0.98,-17.33 -0.66,-2.22 -2.37,-3.34 -5.14,-3.34 v 78.58 H 162.15 V 574.7 Z m 20.13,29.81 v 38.76 c 2.26,0 3.85,-0.7 4.76,-2.09 0.91,-1.39 1.36,-5.93 1.36,-13.62 v -9.58 c 0,-5.53 -0.44,-9.15 -1.31,-10.87 -0.88,-1.73 -2.48,-2.59 -4.81,-2.59 v 0 z"
       style="fill:#f2f2f2" />
    <path
       id="path10"
       class="st0"
       d="m 261.87,650.58 h -20.13 v -30.3 c 0,-8.81 -0.22,-14.31 -0.65,-16.48 -0.43,-2.19 -1.38,-3.28 -2.85,-3.28 -1.65,0 -2.71,1.33 -3.15,3.98 -0.45,2.65 -0.67,8.39 -0.67,17.22 v 80.95 c 0,8.47 0.23,13.99 0.67,16.58 0.45,2.59 1.45,3.87 3.02,3.87 1.57,0 2.48,-1.3 2.94,-3.89 0.46,-2.59 0.7,-8.67 0.7,-18.24 v -21.9 h 20.13 v 6.8 c 0,18.03 -0.57,30.83 -1.69,38.37 -1.14,7.55 -3.63,14.17 -7.51,19.84 -3.88,5.68 -8.65,8.52 -14.31,8.52 -5.66,0 -10.76,-2.4 -14.58,-7.21 -3.82,-4.81 -6.35,-11.46 -7.6,-19.97 -1.24,-8.51 -1.86,-21.3 -1.86,-38.37 v -50.92 c 0,-12.55 0.2,-21.98 0.58,-28.25 0.38,-6.28 1.52,-12.33 3.42,-18.13 1.9,-5.82 4.52,-10.39 7.89,-13.72 3.36,-3.34 7.23,-5 11.59,-5 5.92,0 10.82,2.57 14.68,7.74 3.86,5.17 6.39,11.59 7.6,19.3 1.21,7.71 1.82,19.68 1.82,35.96 v 16.56 l -0.02,-0.02 z"
       style="fill:#f2f2f2" />
    <path
       id="path11"
       class="st0"
       d="m 292.17,662.52 v 30.03 h -25.39 v -30.03 z"
       style="fill:#f2f2f2" />
    <path
       id="path12"
       class="st0"
       d="m 327.13,574.69 v 174.27 h -19.32 v -93.44 c 0,-13.49 -0.15,-21.6 -0.43,-24.33 -0.28,-2.72 -1.08,-4.8 -2.37,-6.19 -1.29,-1.39 -4.17,-2.09 -8.63,-2.09 h -1.91 v -20.32 c 9.34,-4.52 16.43,-13.83 21.28,-27.9 z"
       style="fill:#f2f2f2" />
    <path
       id="path13"
       class="st0"
       d="m 380.19,633.68 v 58.13 c 0,13.21 -0.32,22.82 -0.96,28.84 -0.64,6.03 -1.96,11.66 -3.97,16.9 -2.01,5.24 -4.44,9 -7.26,11.3 -2.84,2.3 -6.01,3.44 -9.52,3.44 -4.62,0 -8.46,-1.2 -11.52,-3.61 -3.06,-2.41 -5.5,-6.16 -7.31,-11.26 -1.82,-5.1 -3.1,-10.46 -3.88,-16.1 -0.76,-5.63 -1.15,-14.58 -1.15,-26.86 v -60.82 c 0,-16 0.62,-28 1.84,-35.96 1.22,-7.96 3.66,-14.36 7.31,-19.15 3.65,-4.81 8.07,-7.21 13.27,-7.21 4.24,0 8.03,1.66 11.38,5 3.35,3.34 5.85,7.4 7.51,12.22 1.65,4.81 2.78,10.23 3.37,16.26 0.59,6.03 0.88,15.65 0.88,28.84 v 0.03 z m -19.31,-14.64 c 0,-9.26 -0.2,-15.04 -0.6,-17.38 -0.4,-2.33 -1.33,-3.5 -2.8,-3.5 -1.47,0 -2.38,1.23 -2.85,3.71 -0.46,2.48 -0.7,8.2 -0.7,17.17 v 85.04 c 0,10.12 0.22,16.23 0.65,18.31 0.43,2.08 1.36,3.12 2.8,3.12 1.44,0 2.37,-1.22 2.82,-3.66 0.45,-2.44 0.67,-7.93 0.67,-16.47 v -86.34 0 z"
       style="fill:#f2f2f2" />
    <path
       id="path14"
       class="st0"
       d="m 432.68,633.68 v 58.13 c 0,13.21 -0.32,22.82 -0.96,28.84 -0.64,6.03 -1.96,11.66 -3.97,16.9 -2.01,5.24 -4.44,9 -7.26,11.3 -2.84,2.3 -6.01,3.44 -9.52,3.44 -4.62,0 -8.46,-1.2 -11.52,-3.61 -3.06,-2.41 -5.5,-6.16 -7.31,-11.26 -1.82,-5.1 -3.1,-10.46 -3.88,-16.1 -0.76,-5.63 -1.15,-14.58 -1.15,-26.86 v -60.82 c 0,-16 0.62,-28 1.84,-35.96 1.22,-7.96 3.66,-14.36 7.31,-19.15 3.65,-4.81 8.07,-7.21 13.27,-7.21 4.24,0 8.03,1.66 11.38,5 3.35,3.34 5.85,7.4 7.51,12.22 1.65,4.81 2.78,10.23 3.37,16.26 0.59,6.03 0.88,15.65 0.88,28.84 v 0.03 z m -19.32,-14.64 c 0,-9.26 -0.2,-15.04 -0.6,-17.38 -0.4,-2.33 -1.33,-3.5 -2.8,-3.5 -1.47,0 -2.38,1.23 -2.85,3.71 -0.46,2.48 -0.7,8.2 -0.7,17.17 v 85.04 c 0,10.12 0.22,16.23 0.65,18.31 0.43,2.08 1.36,3.12 2.8,3.12 1.44,0 2.37,-1.22 2.82,-3.66 0.45,-2.44 0.67,-7.93 0.67,-16.47 v -86.34 0 z"
       style="fill:#f2f2f2" />
  </g>
</svg>
