<?xml version="1.0" encoding="UTF-8" standalone="no"?>
<svg
   version="1.0"
   width="666.000000pt"
   height="226.668335pt"
   viewBox="0 0 666.000000 226.668335"
   preserveAspectRatio="xMidYMid meet"
   id="svg38"
   sodipodi:docname="bsv-blockchain.svg"
   inkscape:version="1.2.2 (b0a8486541, 2022-12-01)"
   xmlns:inkscape="http://www.inkscape.org/namespaces/inkscape"
   xmlns:sodipodi="http://sodipodi.sourceforge.net/DTD/sodipodi-0.dtd"
   xmlns="http://www.w3.org/2000/svg"
   xmlns:svg="http://www.w3.org/2000/svg">
  <defs
     id="defs42" />
  <sodipodi:namedview
     id="namedview40"
     pagecolor="#ffffff"
     bordercolor="#000000"
     borderopacity="0.25"
     inkscape:showpageshadow="2"
     inkscape:pageopacity="0.0"
     inkscape:pagecheckerboard="0"
     inkscape:deskcolor="#d1d1d1"
     inkscape:document-units="pt"
     showgrid="false"
     inkscape:zoom="1.4786036"
     inkscape:cx="444.33816"
     inkscape:cy="150.81797"
     inkscape:window-width="1880"
     inkscape:window-height="1056"
     inkscape:window-x="40"
     inkscape:window-y="0"
     inkscape:window-maximized="1"
     inkscape:current-layer="svg38" />
  <metadata
     id="metadata2"> Created by potrace 1.16, written by Peter Selinger 2001-2019 </metadata>
  <g
     transform="translate(-66.000000,263.529233) scale(0.100000,-0.100000)"
     fill="#000000"
     stroke="none"
     id="g36"
     style="fill:#342abf;fill-opacity:1">
    <path
       d="M1315 2447 c-181 -106 -403 -235 -492 -287 l-163 -95 3 -255 2 -255 465 -257 c256 -141 471 -257 478 -257 9 -1 12 48 12 213 l0 215 -27 19 c-16 10 -118 69 -228 132 -110 62 -206 120 -212 128 -35 44 -32 46 450 325 254 148 471 275 481 283 13 9 16 18 10 23 -11 11 -420 250 -437 256 -7 2 -160 -82 -342 -188z"
       id="path4"
       style="fill:#342abf;fill-opacity:1" />
    <path
       d="M2025 2249 c-676 -392 -795 -463 -792 -473 7 -20 408 -237 428 -231 10 4 119 61 241 128 141 77 231 121 246 119 l22 -3 0 -550 0 -550 13 3 c8 2 113 62 235 133 l222 130 0 555 -1 555 -227 133 c-126 72 -233 132 -238 132 -5 0 -72 -37 -149 -81z"
       id="path6"
       style="fill:#342abf;fill-opacity:1" />
    <path
       d="M4997 2065 c-184 -27 -304 -86 -361 -179 -24 -39 -31 -63 -34 -116 -2 -38 1 -85 8 -105 23 -71 99 -135 200 -168 42 -14 302 -74 571 -131 139 -30 168 -42 175 -73 8 -29 -17 -60 -66 -81 -47 -21 -327 -28 -458 -12 -103 12 -302 54 -363 75 l-37 13 -6 -30 c-8 -39 -8 -122 0 -169 l6 -37 72 -21 c39 -12 118 -31 176 -43 l105 -21 240 -1 240 -1 78 23 c97 28 146 53 197 98 110 99 122 273 27 372 -69 73 -133 94 -542 182 -132 28 -259 58 -282 67 -88 32 -94 80 -15 117 l47 21 230 -1 c185 0 257 -5 368 -22 77 -12 145 -22 153 -22 11 0 14 22 14 104 0 58 -4 107 -9 110 -17 11 -158 38 -271 51 -140 17 -344 17 -463 0z"
       id="path8"
       style="fill:#342abf;fill-opacity:1" />
    <path
       d="M3228 2064 c-5 -4 -8 -252 -8 -551 l0 -543 455 0 c300 0 472 4 507 11 168 36 258 134 258 280 0 96 -23 154 -89 220 l-56 56 42 40 c97 94 94 280 -7 381 -36 36 -88 66 -159 89 l-46 16 -445 4 c-245 3 -448 1 -452 -3z m854 -214 c22 -6 46 -23 58 -39 38 -54 18 -161 -32 -175 -13 -3 -164 -6 -335 -6 l-313 0 0 108 c0 60 3 112 7 115 11 11 574 8 615 -3z m67 -456 c58 -49 63 -142 10 -190 l-21 -19 -339 -3 -339 -3 0 121 0 120 329 0 329 0 31 -26z"
       id="path10"
       style="fill:#342abf;fill-opacity:1" />
    <path
       d="M5870 2058 c0 -9 140 -279 428 -823 117 -220 171 -269 297 -269 140 0 176 39 364 395 80 151 175 330 211 399 92 170 150 287 150 300 0 7 -44 10 -131 8 l-131 -3 -221 -410 c-122 -225 -227 -418 -232 -427 l-11 -18 -63 118 c-35 64 -138 254 -229 422 -90 168 -170 308 -176 312 -19 13 -256 10 -256 -4z"
       id="path12"
       style="fill:#342abf;fill-opacity:1" />
    <path
       d="M2030 1669 c-41 -22 -137 -75 -212 -116 l-138 -76 0 -245 0 -246 -21 -22 -20 -22 -474 264 c-261 146 -481 267 -490 270 l-15 6 0 -264 0 -264 490 -287 c270 -159 496 -287 504 -285 8 2 113 61 235 133 l221 130 0 532 c0 293 -1 533 -2 533 -2 0 -37 -19 -78 -41z"
       id="path14"
       style="fill:#342abf;fill-opacity:1" />
    <path
       d="M3227 663 c-4 -3 -7 -71 -7 -150 l0 -143 74 0 c94 0 126 21 126 81 0 25 -7 46 -19 58 l-19 19 13 13 c25 26 22 82 -5 109 -16 16 -33 20 -88 20 -38 0 -72 -3 -75 -7z m128 -78 l0 -30 -42 -3 -43 -3 0 36 0 36 43 -3 42 -3 0 -30z m11 -100 c4 -8 3 -26 0 -40 l-6 -25 -43 0 -42 0 0 40 0 40 43 0 c29 0 45 -5 48 -15z"
       id="path16"
       style="fill:#342abf;fill-opacity:1" />
    <path
       d="M3654 655 c-4 -9 -4 -68 -2 -132 l4 -116 23 -18 c17 -14 40 -19 87 -19 l64 0 0 25 0 24 -57 3 -58 3 -5 120 -5 120 -23 3 c-13 2 -25 -3 -28 -13z"
       id="path18"
       style="fill:#342abf;fill-opacity:1" />
    <path
       d="M4087 660 c-31 -20 -47 -66 -47 -139 0 -39 5 -82 12 -96 30 -66 160 -76 205 -16 31 41 26 192 -7 233 -14 18 -30 23 -81 25 -35 2 -72 -1 -82 -7z m121 -52 c16 -16 16 -160 0 -176 -18 -18 -83 -15 -99 5 -19 22 -19 144 0 166 16 20 81 23 99 5z"
       id="path20"
       style="fill:#342abf;fill-opacity:1" />
    <path
       d="M4527 652 c-14 -15 -17 -41 -17 -135 l0 -116 22 -15 c14 -10 44 -16 78 -16 65 0 100 20 100 56 0 28 -33 34 -48 8 -6 -11 -21 -14 -53 -12 l-44 3 0 95 0 95 43 3 c32 2 47 -1 56 -13 19 -26 52 -15 48 15 -4 38 -29 50 -102 50 -52 0 -71 -4 -83 -18z"
       id="path22"
       style="fill:#342abf;fill-opacity:1" />
    <path
       d="M4950 520 l0 -150 25 0 25 0 1 33 c2 83 4 92 22 95 13 3 25 -13 48 -62 l31 -66 24 0 c30 0 30 4 -6 84 l-30 66 30 66 c36 80 36 84 6 84 l-24 0 -31 -66 c-23 -49 -35 -65 -48 -62 -15 3 -19 15 -21 66 l-3 62 -24 0 -25 0 0 -150z"
       id="path24"
       style="fill:#342abf;fill-opacity:1" />
    <path
       d="M5387 652 c-14 -15 -17 -41 -17 -135 l0 -116 22 -15 c14 -10 44 -16 78 -16 65 0 100 20 100 56 0 28 -33 34 -48 8 -6 -11 -21 -14 -53 -12 l-44 3 0 95 0 95 43 3 c32 2 47 -1 56 -13 19 -26 52 -15 48 15 -4 38 -29 50 -102 50 -52 0 -71 -4 -83 -18z"
       id="path26"
       style="fill:#342abf;fill-opacity:1" />
    <path
       d="M5805 628 c-3 -24 -5 -90 -3 -148 l3 -105 25 0 25 0 3 63 3 62 54 0 54 0 3 -62 3 -63 21 -3 21 -3 6 46 c2 26 2 94 -1 151 l-5 105 -21 -3 -21 -3 -3 -57 -3 -58 -54 0 -54 0 -3 58 -3 57 -22 3 -22 3 -6 -43z"
       id="path28"
       style="fill:#342abf;fill-opacity:1" />
    <path
       d="M6332 646 c-13 -29 -82 -254 -82 -267 0 -5 11 -9 24 -9 19 0 27 8 36 35 l12 35 53 0 53 0 12 -35 c9 -28 17 -35 37 -35 l25 0 -8 33 c-3 17 -23 84 -43 147 l-37 115 -35 3 -35 3 -12 -25z m78 -148 c0 -5 -16 -8 -35 -8 -19 0 -35 2 -35 5 0 3 8 33 17 67 l17 62 18 -60 c10 -32 18 -62 18 -66z"
       id="path30"
       style="fill:#342abf;fill-opacity:1" />
    <path
       d="M6730 520 l0 -150 25 0 25 0 0 150 0 150 -25 0 -25 0 0 -150z"
       id="path32"
       style="fill:#342abf;fill-opacity:1" />
    <path
       d="M7045 648 l-26 -23 -6 -71 c-3 -39 -2 -97 1 -128 l8 -57 21 3 22 3 3 109 c1 61 8 116 14 123 6 7 27 13 48 13 21 0 42 -6 48 -13 6 -7 13 -62 14 -123 l3 -109 23 -3 22 -3 0 130 0 130 -26 20 c-39 31 -133 30 -169 -1z"
       id="path34"
       style="fill:#342abf;fill-opacity:1" />
  </g>
</svg>
