<?xml version="1.0" encoding="UTF-8" standalone="no"?>
<!-- Created with Inkscape (http://www.inkscape.org/) -->

<svg
   width="120mm"
   height="120mm"
   viewBox="-60 -60 120 120"
   sodipodi:docname="bsv.svg"
   version="1.1"
   id="svg263"
   inkscape:version="1.2.2 (b0a8486541, 2022-12-01)"
   xml:space="preserve"
   xmlns:inkscape="http://www.inkscape.org/namespaces/inkscape"
   xmlns:sodipodi="http://sodipodi.sourceforge.net/DTD/sodipodi-0.dtd"
   xmlns="http://www.w3.org/2000/svg"
   xmlns:svg="http://www.w3.org/2000/svg"
   xmlns:rdf="http://www.w3.org/1999/02/22-rdf-syntax-ns#"
   xmlns:cc="http://creativecommons.org/ns#"
   xmlns:dc="http://purl.org/dc/elements/1.1/"><defs
     id="defs265" /><sodipodi:namedview
     pagecolor="#ffffff"
     bordercolor="#666666"
     borderopacity="1.0"
     inkscape:pageopacity="0.0"
     inkscape:pageshadow="2"
     inkscape:zoom="1.4142136"
     inkscape:cx="220.26376"
     inkscape:cy="267.28636"
     inkscape:document-units="mm"
     inkscape:current-layer="Template"
     showgrid="false"
     units="mm"
     showguides="true"
     inkscape:guide-bbox="true"
     inkscape:snap-global="true"
     inkscape:snap-bbox="true"
     inkscape:snap-bbox-midpoints="true"
     inkscape:window-width="1880"
     inkscape:window-height="1056"
     inkscape:window-x="40"
     inkscape:window-y="0"
     inkscape:window-maximized="1"
     inkscape:bbox-paths="true"
     inkscape:bbox-nodes="true"
     inkscape:snap-bbox-edge-midpoints="true"
     inkscape:snap-grids="true"
     id="namedview253"
     inkscape:showpageshadow="2"
     inkscape:pagecheckerboard="0"
     inkscape:deskcolor="#d1d1d1"><sodipodi:guide
       orientation="1,0"
       position="226.771653543,226.771653543"
       id="guide2827"
       inkscape:locked="false" /><sodipodi:guide
       orientation="0,1"
       position="226.771653543,226.771653543"
       id="guide2829"
       inkscape:locked="false" /><inkscape:grid
       type="xygrid"
       id="grid3072"
       empspacing="10"
       visible="true"
       enabled="true"
       snapvisiblegridlinesonly="true"
       units="mm"
       dotted="false"
       spacingx="0.1mm"
       spacingy="0.1mm" /></sodipodi:namedview><metadata
     id="metadata2822"><rdf:RDF><cc:Work
         rdf:about=""><dc:format>image/svg+xml</dc:format><dc:type
           rdf:resource="http://purl.org/dc/dcmitype/StillImage" /></cc:Work></rdf:RDF></metadata><g
     inkscape:label="Layer 1"
     inkscape:groupmode="layer"
     id="Template"
     style="fill:none;stroke:black;stroke-width:0.05"><path
       style="fill:#55bdaa;fill-opacity:0.992157;stroke-width:0.0125"
       d=""
       id="path7292"
       transform="matrix(0.26458333,0,0,0.26458333,-60,-60)" /><path
       style="fill:#999999;fill-opacity:0.996078;stroke-width:0.00882731"
       d="M -1.442251,59.051007 -2.6697348,58.913694 -4.1164895,58.1968 -5.5632441,57.479905 -6.473576,56.483856 c -1.0072009,-1.102037 -1.5898751,-2.135951 -2.0191819,-3.582893 l -0.2845079,-0.958911 v -1.343236 -1.343235 l 0.2706294,-1.039019 c 0.1488444,-0.571458 0.4787217,-1.42135 0.7330577,-1.888648 l 0.4624268,-0.849632 1.1109162,-1.066754 1.1109146,-1.066756 0.9366334,-0.414148 c 0.5151478,-0.22778 1.0756635,-0.461241 1.2455892,-0.518801 l 0.3089556,-0.104654 -0.00263,-3.9337 -0.00263,-3.933697 -0.1313297,-0.206445 -0.1313297,-0.206445 -1.499023,-0.202114 C -19.78621,31.745545 -32.42269,19.257042 -33.932807,4.6034284 -33.992854,4.0208256 -34.079404,3.363909 -34.125154,3.1436168 l -0.08319,-0.4005347 -4.000368,0.047445 -4.000366,0.047445 -0.53271,1.0464603 -0.532714,1.0464588 -1.01842,1.0886941 -1.018421,1.0886956 -1.035041,0.5516715 c -0.569275,0.3034207 -1.502077,0.6733185 -2.072895,0.8219986 l -1.037855,0.2703256 h -1.013497 c -1.40478,0 -2.699339,-0.3042159 -3.933254,-0.9242972 l -1.048634,-0.5269772 -1.004883,-0.9584944 -1.00488,-0.9584943 -0.572029,-1.0732378 c -0.314619,-0.590283 -0.680585,-1.480927 -0.813261,-1.9792079 l -0.241231,-0.9059672 -0.0022,-1.18299782 c -0.0012,-0.65065001 0.08605,-1.60400008 0.193804,-2.11855728 l 0.195898,-0.9355593 0.62065,-1.1921087 0.620651,-1.1921133 1.103956,-1.032695 1.103955,-1.0326965 0.817012,-0.395508 c 0.449354,-0.2175302 1.23363,-0.5064198 1.742832,-0.6419779 l 0.925822,-0.2464667 1.154596,-0.00217 1.154596,-0.00217 1.011064,0.2633491 c 0.556086,0.1448455 1.400148,0.4605126 1.875695,0.7014894 l 0.864631,0.4381417 1.078942,0.9989101 1.078941,0.9989085 0.625704,1.3008892 0.625701,1.3008893 h 3.938358 3.938359 l 0.174109,-0.2206828 c 0.09576,-0.1213789 0.226939,-0.8152392 0.291506,-1.5419218 1.31593,-14.8100948 14.137133,-27.6084958 29.4139669,-29.3616398 l 1.8537372,-0.212731 0.047305,-4.182999 0.047305,-4.182998 -1.4596784,-0.691264 -1.4596799,-0.691264 -0.9350602,-0.951769 -0.9350603,-0.951769 -0.5100499,-1.02053 c -0.2805275,-0.561292 -0.6043971,-1.474921 -0.7197077,-2.030284 l -0.2096594,-1.009754 0.084768,-1.621222 0.084768,-1.621221 0.6213756,-1.291794 0.6213755,-1.291794 0.6778382,-0.778841 c 0.3728102,-0.428363 1.1514683,-1.084965 1.7303496,-1.459115 l 1.0525114,-0.680271 1.1347471,-0.350488 1.134744,-0.350487 h 1.35668382 1.35668228 l 1.0390174,0.270631 c 0.57146,0.148844 1.442193,0.485766 1.9349669,0.748713 l 0.895948,0.478084 1.0725403,1.060888 1.0725402,1.060886 0.559581,1.147551 0.5595826,1.147552 0.1774788,0.950966 c 0.2308987,1.237208 0.2247995,2.424861 -0.018429,3.586415 l -0.1958987,0.935557 -0.615281,1.181895 -0.6152826,1.181892 -0.9573691,0.905441 -0.9573706,0.90544 -1.3241917,0.611813 -1.3241901,0.611814 0.047321,4.185796 0.047321,4.185794 2.1185557,0.304239 c 15.4914271,2.224678 27.8509661,14.645792 29.1515531,29.2968005 0.06324,0.7124244 0.193329,1.3946242 0.289087,1.5159999 l 0.174124,0.2206829 3.818264,-0.00264 3.818264,-0.00263 0.196893,-0.1297022 c 0.108344,-0.071346 0.252352,-0.3074692 0.320149,-0.5247359 0.263666,-0.8449863 1.08266,-2.0797287 1.964086,-2.9611613 l 0.921788,-0.9217769 1.084535,-0.5419515 c 0.596494,-0.2980733 1.538927,-0.6364011 2.094285,-0.7518389 l 1.009765,-0.2098919 1.324085,0.091759 1.3241,0.091759 1.009191,0.3560998 1.009175,0.3561014 1.061457,0.744571 1.061456,0.7445709 0.702652,0.9107706 c 0.386472,0.5009236 0.912891,1.369964 1.169831,1.9312004 l 0.467163,1.02043 0.189563,1.2246644 0.189562,1.22466296 -0.208922,1.34387634 -0.208937,1.3438748 -0.5353,1.121625 -0.535301,1.1216234 -1.106328,1.1227936 -1.106344,1.1227937 -0.961545,0.4659421 c -2.666319,1.2920327 -5.445679,1.2968284 -7.977678,0.013795 L 45.344133,7.2943261 44.26496,6.2137337 43.185788,5.1331414 42.616356,3.9381652 42.046925,2.7431906 l -4.005842,0.047429 -4.005842,0.047414 -0.119813,0.6179129 c -0.06587,0.3398514 -0.283073,1.5825855 -0.482617,2.7616294 l -0.362804,2.1437196 -0.61128,1.8661085 C 28.406385,22.598072 17.410904,31.864554 4.567123,33.733132 3.507353,33.887308 2.5738629,34.0545 2.4927029,34.10466 l -0.1475579,0.0912 v 4.037829 4.037831 l 1.2799614,0.616638 1.2799615,0.616642 0.8393506,0.805805 c 1.638036,1.572562 2.5469171,3.440963 2.7298548,5.611788 l 0.099633,1.182291 -0.2175457,1.105764 -0.2175457,1.105763 -0.532909,1.055689 -0.5329106,1.05569 -0.9636139,1.010248 -0.9636124,1.010245 -1.1796282,0.617096 c -1.8382129,0.961616 -3.27847788,1.22416 -5.4084026,0.985899 z M -3.3396371,20.54557 -3.1277814,20.333714 v -2.877707 -2.877706 h 1.4123715 1.41237146 v 2.906805 2.906802 l 0.34148663,0.18276 0.34148663,0.182758 H 1.8777458 c 0.8237966,0 1.6234786,-0.04822 1.7770691,-0.107166 L 3.9340745,20.543095 V 17.586917 14.630739 L 5.3905832,14.523171 C 7.1575665,14.392663 8.5987227,14.029284 10.0757,13.341838 l 1.110056,-0.516664 1.023578,-0.976328 1.023578,-0.976329 L 13.721896,9.8738842 14.210879,8.8752485 14.494866,7.5018543 14.778853,6.1284586 14.568278,4.6836925 14.357699,3.238928 13.932915,2.3110737 C 13.210416,0.73293046 11.249214,-1.0633398 9.87099,-1.40925 9.2600815,-1.5625739 9.2894629,-1.6616858 10.115102,-2.2326514 c 0.382079,-0.2642264 0.937483,-0.8155786 1.23423,-1.2252239 l 0.539541,-0.7448144 0.383346,-1.2464261 0.383345,-1.2464261 -0.0082,-1.2358243 -0.0082,-1.2358258 -0.303903,-1.059278 -0.303983,-1.059277 -0.592668,-0.904187 c -1.286967,-1.963351 -4.4196302,-3.597748 -6.8958806,-3.597748 H 3.9720412 l 0.00124,-1.54478 c 7.068e-4,-0.84963 -0.0079,-2.083563 -0.018987,-2.742073 l -0.020227,-1.19729 -2.07442,0.04974 -2.07442011,0.04974 -0.0487778,2.699675 -0.0487778,2.699677 -1.36301549,-0.05147 -1.3630139,-0.05147 -0.035712,-2.030285 c -0.019638,-1.116655 -0.039757,-2.328206 -0.044717,-2.692333 l -0.00899,-0.662048 h -2.0302845 -2.0302828 l -0.00759,0.220683 c -0.00418,0.121378 -0.028628,1.332925 -0.05428,2.692333 l -0.046623,2.47165 -4.0504268,0.08827 -4.050426,0.08827 v 2.295103 2.295103 l 2.136528,0.08827 2.136527,0.08827 0.290986,0.242298 0.290985,0.242302 v 9.91951424 9.91951106 l -0.249995,0.3426987 -0.249994,0.342701 -2.000973,0.08827 -2.000971,0.08827 -0.04949,2.153612 -0.04949,2.153613 0.360074,0.192706 0.360074,0.192704 3.52949,-0.05121 3.529489,-0.05121 -1.751e-4,2.771835 -1.767e-4,2.771833 0.3089557,0.17995 0.3089557,0.179951 1.5977458,0.0054 1.5977443,0.0054 0.2118557,-0.211855 z m -0.020878,-11.2021551 -0.1306322,-0.1306322 0.017282,-3.8494602 0.017282,-3.8494602 h 2.84227166 2.84227014 l 1.0833452,0.1886557 1.0833435,0.1886587 0.679799,0.385117 c 0.3738889,0.211817 0.9190861,0.6822603 1.2115516,1.0454326 l 0.5317527,0.6603111 0.079994,0.9645594 c 0.043988,0.5305081 0.026241,1.2510435 -0.039447,1.6011883 L 6.7388724,7.1844156 6.1172131,7.8725177 5.4955555,8.5606168 4.494136,8.9530714 3.492715,9.3455244 0.13141591,9.4097865 -3.2298831,9.4740486 Z m -0.029977,-12.8019211 c -0.047662,-0.1296557 -0.067626,-1.7325955 -0.044376,-3.5620771 l 0.042268,-3.3263307 3.08122567,0.02365 3.08122413,0.02365 0.7145231,0.3225656 c 0.3929878,0.1774121 0.9524913,0.5760635 1.2433417,0.8858933 L 5.25653,-8.5278309 5.316328,-7.1703302 5.376126,-5.812831 4.9598576,-5.1991201 C 4.4693281,-4.4759218 3.6093953,-3.86096 2.7190225,-3.5966313 l -0.6386795,0.1896057 -2.69209273,0.092131 -2.69209267,0.092131 z"
       id="path18828" /><path
       style="fill:none;stroke:#152b3b;stroke-width:0.00569512"
       d="m 54.342205,-2.5176998 c 0.183725,0.526799 0.0541,0.828868 0.08862,1.139025 0.09044,0.81406099 0.02529,1.43118399 0.02529,2.16414699 0,0.30730901 0,0.71656001 0,1.36683001 0,0.209352 0,0.417224 0,0.911219 0,0.300817 0,0.816226 0,1.139025 v 2.619757 c 0,0.309359 0,0.874544 0,1.139025 0,0.578511 0,0.83126 0,1.139025 0,0.05353 -0.01743,0.251838 0.0032,0.45561 0.02961,0.292729 0.0014,0.319041 0.237258,0.41768 0.149554,0.06242 0.467684,0.03747 0.670772,0.03793 0.356173,7.97e-4 0.538417,0.02642 0.91122,0.08862 0.463241,0.07723 1.010429,0.09921 1.480732,0.164475 0.559945,0.0778 1.175816,0.236803 1.708537,0.386016 0.846979,0.237258 1.666735,0.367677 2.505855,0.756198 1.764577,0.816909 3.476873,1.622655 5.011709,2.841184 0.37155,0.295007 0.703917,0.593432 1.025122,0.879668 0.309132,0.275531 0.486819,0.382371 0.797318,0.692869 0.310498,0.310498 0.417338,0.488186 0.692868,0.797318 0.144884,0.162538 0.282592,0.288401 0.42087,0.45561 0.302183,0.365399 0.577941,0.739341 0.857458,1.139024 0.435449,0.622933 0.832285,1.287782 1.218073,1.936342 0.376448,0.632729 0.756996,1.225477 1.021933,1.936343 0.70836,1.900577 1.273202,3.787371 1.474468,5.809026 0.05456,0.548669 0.03258,0.668038 0.09807,1.139025 0.06846,0.493198 0.0336,1.307031 0.02529,1.82244 -0.0091,0.564728 -0.05741,0.78718 -0.139189,1.36683 -0.131329,0.929786 -0.250585,1.834399 -0.45242,2.733659 -0.179511,0.799254 -0.546049,1.720839 -0.81315,2.505855 -0.253092,0.743669 -0.609606,1.373891 -0.961907,2.050244 -0.346149,0.664621 -0.787635,1.320813 -1.20224,1.936342 -0.431121,0.639904 -0.89983,1.218985 -1.398495,1.82244 -1.738266,2.103551 -3.982486,3.619935 -6.308944,4.869331 -1.080251,0.580105 -2.383637,1.026945 -3.530977,1.350997 -1.04198,0.294324 -2.190914,0.491034 -3.303172,0.604367 -0.445245,0.04533 -0.599127,0.07142 -1.025122,0.113902 -0.422009,0.04203 -1.04198,0.02586 -1.480733,0.01264 -0.248649,-0.0075 -0.422578,0.0088 -0.683414,-0.0064 -0.336241,-0.01948 -0.49559,-0.07575 -0.797318,-0.110713 -0.202518,-0.02346 -0.460621,-0.08224 -0.683415,-0.104449 -1.912308,-0.190331 -3.671418,-0.701411 -5.467319,-1.420591 -0.433854,-0.173702 -0.831716,-0.339885 -1.252927,-0.550491 -1.207936,-0.604025 -2.381473,-1.45966 -3.417075,-2.297071 -0.168006,-0.135772 -0.29421,-0.260951 -0.45561,-0.401848 -0.209352,-0.1827 -0.365171,-0.290452 -0.569512,-0.474518 -0.268582,-0.241815 -0.401279,-0.391825 -0.683415,-0.673961 -0.267671,-0.267671 -0.425426,-0.413238 -0.658129,-0.683415 -0.138049,-0.160375 -0.236005,-0.294438 -0.373372,-0.45561 -0.148529,-0.174499 -0.328836,-0.392052 -0.471328,-0.569512 -0.22268,-0.277125 -0.411416,-0.510853 -0.61701,-0.797318 -0.166298,-0.231677 -0.301728,-0.443194 -0.461989,-0.683415 -0.723964,-1.08606 -1.217959,-2.214378 -1.727445,-3.417074 -0.178257,-0.420756 -0.419388,-0.935139 -0.544226,-1.36683 -0.192723,-0.666101 -0.312662,-1.358287 -0.484085,-2.050244 -0.147846,-0.596621 -0.249219,-1.576525 -0.332254,-2.164147 -0.03588,-0.254117 -0.02529,-0.429185 -0.02529,-0.683415 0,-0.243182 0.0036,-0.371778 0,-0.569513 -0.0026,-0.143061 -0.008,-0.865089 -0.0032,-1.025122 0.0085,-0.284756 0.0032,-0.402531 0.0032,-0.683415 0,-0.273138 -0.0097,-0.461419 0.0032,-0.683415 0.01845,-0.31961 0.150465,-0.907005 0.19933,-1.252927 0.06344,-0.449231 0.08907,-0.823971 0.164475,-1.252927 0.15673,-0.89049 0.479643,-1.86242 0.772031,-2.73366 0.157071,-0.468025 0.327014,-0.913498 0.544226,-1.36683 0.428501,-0.894362 0.880124,-1.794875 1.430045,-2.619757 0.541037,-0.811441 1.122054,-1.685415 1.7877,-2.391952 0.37417,-0.397178 0.617124,-0.620313 1.021933,-1.025122 0.33886,-0.33886 0.482377,-0.504247 0.797317,-0.787864 0.187028,-0.168461 0.376904,-0.311181 0.569513,-0.465064 0.516206,-0.412213 1.150984,-0.882516 1.708537,-1.252927 0.283731,-0.188508 0.515523,-0.33157 0.797317,-0.499918 0.781713,-0.466772 1.779157,-0.906891 2.619758,-1.294046 0.344896,-0.158894 0.785016,-0.29011 1.139024,-0.408112 0.496046,-0.165387 0.96726,-0.277011 1.480733,-0.401848 0.945504,-0.229856 2.240575,-0.382941 3.189269,-0.541037 0.27872,-0.04647 0.531355,-0.04431 0.797318,-0.04431 0.365399,0 0.591495,0 1.025122,0 m 20.388533,20.160762 c -0.0434,0 0.18361,0 0.455609,0 0.648789,0 0.668722,0 1.252928,0 0.278719,0 0.884908,0 1.252927,0 h 2.847562 c 0.440347,0 0.852674,0 1.139025,0 1.383345,0 1.833602,0.0287 2.278049,-0.04431 0.512448,-0.08417 0.998811,-0.07506 1.594635,-0.06959 0.366538,0.0034 0.682959,-0.0097 1.36683,0.113903 m -65.038316,0 c 0.600266,0 0.901538,0 1.252927,0 0.609036,0 1.185041,0 1.708537,0 0.461647,0 0.966463,0 2.391952,0 0.286351,0 0.698678,0 1.139025,0 h 2.847562 c 0.346947,0 0.875454,0 1.139025,0 0.431804,0 0.633525,0 0.91122,0 0.09283,0 0.205366,0 0.45561,0 0.252407,0 0.470303,0 0.455609,0 m 20.274642,20.160739 c 0,0.06082 0,0.193976 0,0.45561 0,0.646282 0,0.708245 0,1.366829 0,0.27872 0,0.884909 0,1.252928 v 2.847562 c 0,0.440347 0,0.852674 0,1.139025 0,1.335164 -0.06572,1.735418 -0.104448,2.164147 -0.05297,0.586825 -0.0031,1.138569 -0.0095,1.822439 -0.0031,0.331798 0,0.506639 0,1.36683"
       id="path18822" /></g></svg>
