<?xml version="1.0" encoding="UTF-8" standalone="no"?>
<svg
   width="109"
   height="34.075199"
   viewBox="0 0 109 34.075199"
   fill="none"
   version="1.1"
   id="svg31"
   xmlns="http://www.w3.org/2000/svg"
   xmlns:svg="http://www.w3.org/2000/svg">
  <g
     clip-path="url(#clip0_2003_1695)"
     id="g24"
     transform="translate(0,-66.9238)">
    <path
       d="m 39.66,74.4351 c 1.28,-0.6796 2.0008,-1.8539 2.0008,-3.3014 0,-1.753 -0.8578,-3.8433 -4.9448,-3.8433 H 25.6504 v 14.9378 h 11.9807 c 3.0911,0 4.8635,-1.5201 4.8635,-4.17 0,-1.7637 -0.9763,-3.0065 -2.8346,-3.6231 z m -10.8312,-4.646 h 7.1343 c 2.2754,0 2.5389,1.0704 2.5389,1.8755 0,1.2857 -0.8543,1.9371 -2.5389,1.9371 h -7.1343 z m 7.948,9.9409 h -7.948 v -3.9155 h 7.948 c 1.1118,0 2.437,0.3358 2.437,1.9371 0,1.3497 -0.7745,1.9779 -2.437,1.9779 z M 83.3499,67.2904 75.316,82.2282 H 71.2221 L 63.1882,67.2904 h 3.4445 l 6.6564,12.4305 6.6359,-12.4305 h 3.4244 z M 61.9444,77.9155 c 0,4.1852 -4.501,4.7216 -8.4223,4.7216 -2.9827,0 -5.9196,-0.3317 -8.2221,-0.9191 v -2.6454 c 0.3619,0.1195 0.7615,0.2309 1.1982,0.3342 1.939,0.4583 4.5648,0.7321 7.0239,0.7321 4.2842,0 5.1621,-0.8561 5.1621,-2.1412 0,-1.5156 -1.0079,-1.7359 -5.3192,-2.0193 l -0.8157,-0.0615 c -5.7996,-0.356 -7.8562,-1.5756 -7.8562,-4.6596 0,-2.9162 2.6418,-4.3335 8.0765,-4.3335 2.939,0 6.0742,0.4649 8.3927,1.2433 v 2.6167 c -1.9506,-0.9715 -5.8668,-1.3613 -8.6165,-1.3613 -3.8245,0 -4.5924,0.7019 -4.5924,1.8348 0,1.4333 0.9336,1.8301 4.9949,2.1216 l 0.8544,0.061 c 5.0476,0.3635 8.1417,0.7744 8.1417,4.4761 z"
       fill="#1b1ea9"
       id="path2" />
    <path
       d="M 0,100.786 V 90.5098 h 3.95241 c 2.55396,0 4.08945,1.0688 4.08945,2.8249 0,1.1757 -0.62343,1.9698 -1.59623,2.3364 1.01847,0.2899 1.70264,0.9468 1.70264,2.2446 0,2.0157 -1.77843,2.8703 -4.22598,2.8703 z m 2.21965,-6.0008 h 1.83968 c 1.21624,0 1.76337,-0.4275 1.76337,-1.2675 0,-0.7633 -0.60837,-1.1757 -1.74831,-1.1757 H 2.21965 Z m 0,4.1686 h 1.82412 c 1.0792,0 1.88485,-0.2445 1.88485,-1.1909 0,-0.8702 -0.62343,-1.145 -1.86979,-1.145 H 2.21915 v 2.3364 z"
       fill="#003fff"
       id="path4" />
    <path
       d="m 13.7587,98.7249 h 4.7736 v 2.0611 h -5.0321 c -1.414,0 -1.9611,-0.733 -1.9611,-1.9083 v -8.3679 h 2.2196 z"
       fill="#003fff"
       id="path6" />
    <path
       d="m 20.4316,95.6554 c 0,-3.0236 2.2955,-5.3292 5.3208,-5.3292 3.0253,0 5.3358,2.3056 5.3358,5.3292 0,3.0235 -2.3105,5.3296 -5.3358,5.3296 -3.0253,0 -5.3208,-2.2909 -5.3208,-5.3296 z m 8.3616,0 c 0,-1.8171 -1.3226,-3.2218 -3.0403,-3.2218 -1.7177,0 -3.0404,1.4047 -3.0404,3.2218 0,1.817 1.3377,3.2217 3.0404,3.2217 1.7026,0 3.0403,-1.4047 3.0403,-3.2217 z"
       fill="#003fff"
       id="path8" />
    <path
       d="m 33.3535,95.6549 c 0,-2.9777 2.3261,-5.3444 5.3057,-5.3444 1.7784,0 3.4816,0.9469 4.2415,2.5502 l -1.809,1.023 c -0.5015,-0.8859 -1.2921,-1.4506 -2.5239,-1.4506 -1.7026,0 -2.9339,1.3588 -2.9339,3.2218 0,1.8629 1.2162,3.2217 2.9339,3.2217 1.2313,0 2.0526,-0.5652 2.5239,-1.4506 l 1.809,1.023 c -0.7599,1.603 -2.4626,2.55 -4.2415,2.55 -2.9796,0 -5.3057,-2.3664 -5.3057,-5.3441 z"
       fill="#003fff"
       id="path10" />
    <path
       d="M 45.6973,100.786 V 90.5098 h 2.2196 v 4.1383 h 1.3071 c 0.1215,-0.3207 0.3193,-0.6413 0.5627,-0.9771 l 2.4782,-3.1607 h 2.5238 l -2.9189,3.7717 c -0.4106,0.5496 -0.6234,0.9313 -0.6234,1.3134 0,0.3822 0.2128,0.7482 0.6234,1.2978 l 3.0098,3.8938 h -2.7211 l -2.3718,-3.1305 c -0.2434,-0.3206 -0.4257,-0.6413 -0.5471,-0.962 h -1.3227 v 4.0925 h -2.2196 z"
       fill="#003fff"
       id="path12" />
    <path
       d="m 56.6738,95.6549 c 0,-2.9777 2.3261,-5.3444 5.3057,-5.3444 1.7784,0 3.4816,0.9469 4.2416,2.5502 l -1.8091,1.023 c -0.5015,-0.8859 -1.292,-1.4506 -2.5238,-1.4506 -1.7027,0 -2.934,1.3588 -2.934,3.2218 0,1.8629 1.2163,3.2217 2.934,3.2217 1.2313,0 2.0525,-0.5652 2.5238,-1.4506 l 1.8091,1.023 c -0.76,1.603 -2.4627,2.55 -4.2416,2.55 -2.9796,0 -5.3057,-2.3664 -5.3057,-5.3441 z"
       fill="#003fff"
       id="path14" />
    <path
       d="M 69.0176,100.786 V 90.5098 h 2.2196 v 4.1383 h 4.6672 v -4.1383 h 2.2197 v 10.2762 h -2.2197 v -4.092 h -4.6672 v 4.092 z"
       fill="#003fff"
       id="path16" />
    <path
       d="m 83.5674,91.9597 c 0.3493,-1.1147 1.2619,-1.6492 2.2196,-1.6492 0.9578,0 1.8849,0.5345 2.2347,1.6492 l 2.7061,8.8253 h -2.2653 l -0.5928,-2.1066 -4.1502,0.0152 -0.5928,2.0914 h -2.2654 z m 0.7298,4.7338 h 2.9947 l -1.1555,-4.0768 c -0.0607,-0.2138 -0.1521,-0.3056 -0.3343,-0.3056 -0.1672,0 -0.2736,0.0918 -0.3343,0.3056 z"
       fill="#003fff"
       id="path18" />
    <path
       d="M 95.9111,90.5098 V 100.786 H 93.6914 V 90.5098 Z"
       fill="#003fff"
       id="path20" />
    <path
       d="m 99.7422,100.787 v -8.8717 c 0,-1.023 0.7448,-1.6184 1.5808,-1.6184 0.669,0 1.202,0.2445 1.536,0.8092 l 4.044,6.9632 V 90.5106 H 109 v 8.8716 c 0,1.0228 -0.745,1.6038 -1.55,1.6038 -0.654,0 -1.217,-0.229 -1.551,-0.795 l -4.044,-7.0082 v 7.6042 z"
       fill="#003fff"
       id="path22" />
  </g>
  <defs
     id="defs29">
    <clipPath
       id="clip0_2003_1695">
      <rect
         width="109"
         height="101"
         fill="#ffffff"
         id="rect26"
         x="0"
         y="0" />
    </clipPath>
  </defs>
</svg>
