<?xml version='1.0' encoding='utf-8'?>
<svg xmlns="http://www.w3.org/2000/svg" id="Layer_1" version="1.1" viewBox="0 0 401 401" width="160" height="160">
  
  <defs>
    <style>
      .st0 {
        fill: #f38385;
      }

      .st0, .st1 {
        stroke: #231f20;
        stroke-miterlimit: 10;
      }

      .st2 {
        fill: #fff;
      }

      .st3 {
        isolation: isolate;
      }

      .st1 {
        fill: #1f5fac;
      }
    </style>
  </defs>
  <circle class="st1" cx="200.5" cy="200.5" r="200" />
  <circle class="st0" cx="200.5" cy="200.5" r="154.8" />
  <g class="st3">
    <g class="st3">
      <path class="st2" d="M148.31,173.9h-35.06v-2.36h.99c2.66,0,4.58-.37,5.74-1.1s1.85-1.69,2.08-2.88c.23-1.19.34-3.1.34-5.74v-38.07c0-2.21-.18-3.86-.54-4.96-.36-1.1-1.17-1.9-2.43-2.41-1.26-.5-3.32-.75-6.19-.75v-2.36h33.64c2.98,0,5.71.39,8.21,1.18,2.49.79,4.6,1.88,6.32,3.27,1.72,1.39,3.06,3.02,4.02,4.88.96,1.86,1.44,3.88,1.44,6.06,0,2.35-.6,4.5-1.8,6.47-1.2,1.96-3.04,3.61-5.5,4.94-2.46,1.33-5.46,2.26-8.98,2.77,5.79.77,10.23,2.57,13.32,5.39,3.09,2.82,4.64,6.34,4.64,10.55,0,2.18-.47,4.19-1.42,6.04s-2.31,3.45-4.08,4.81c-1.78,1.36-3.92,2.41-6.45,3.16-2.52.75-5.29,1.12-8.29,1.12ZM126.57,164.49v-43.14c0-1.95-.39-3.39-1.16-4.32-.77-.93-2.21-1.4-4.3-1.4h-.9c1.38.4,2.32,1.08,2.84,2.04.52.96.77,2.51.77,4.66v42.41c0,2.18-.28,3.72-.84,4.64-.56.92-1.48,1.63-2.77,2.15h1.25c2.23,0,3.65-.67,4.23-2,.59-1.33.88-3.01.88-5.05ZM133.15,141.5h8.04c3.87,0,6.7-.46,8.51-1.38,1.66-.86,3-2.31,4.02-4.36,1.02-2.05,1.53-4.36,1.53-6.94,0-2.06-.32-3.99-.97-5.78-.64-1.79-1.55-3.26-2.73-4.4-1.23-1.29-2.59-2.11-4.06-2.47-1.48-.36-3.46-.54-5.95-.54-3.27,0-5.48.5-6.64,1.5-1.16,1-1.74,2.74-1.74,5.2v19.16ZM133.15,143.91v20.93c0,1.46.17,2.61.52,3.46.34.85.92,1.52,1.74,2.02.82.5,1.83.83,3.03.99,1.2.16,2.85.24,4.94.24,2.95,0,5.39-.52,7.33-1.57,1.93-1.04,3.38-2.56,4.34-4.55.96-1.99,1.44-4.42,1.44-7.28s-.54-5.41-1.63-7.54c-1.09-2.13-2.64-3.78-4.66-4.94s-4.43-1.74-7.24-1.74h-9.8ZM149.09,143.99c2.86,1.09,5.05,2.78,6.55,5.07,1.5,2.29,2.26,5.31,2.26,9.07,0,7.16-2.88,11.75-8.64,13.75,3.7-.43,6.5-1.87,8.4-4.32,1.9-2.45,2.86-5.79,2.86-10.03,0-3.92-1.01-7.1-3.03-9.52-2.02-2.42-4.82-3.76-8.4-4.02ZM149.6,141.5c6.53-1.69,9.8-6,9.8-12.93,0-2.26-.37-4.33-1.12-6.21-.75-1.88-1.87-3.42-3.37-4.62s-3.36-1.9-5.56-2.11c2.35.97,4.15,2.63,5.41,4.96,1.26,2.33,1.89,5.15,1.89,8.44,0,6.02-2.35,10.17-7.05,12.46Z" />
      <path class="st2" d="M177.7,152.07h2.84c1.58,4.53,3.47,8.33,5.69,11.41,2.22,3.08,4.64,5.36,7.26,6.85,2.62,1.49,5.36,2.23,8.23,2.23,3.58,0,6.65-1.12,9.2-3.35s3.82-5.1,3.82-8.59c0-3.27-.84-5.81-2.54-7.63-1.69-1.82-3.71-3.09-6.06-3.82s-5.44-1.41-9.28-2.04c-3.84-.63-6.56-1.22-8.16-1.76-2.49-.86-4.61-2.04-6.36-3.54-1.75-1.5-3.07-3.31-3.97-5.41s-1.35-4.36-1.35-6.77.4-4.5,1.2-6.62c.8-2.12,1.93-4,3.39-5.63s3.24-2.92,5.35-3.87,4.45-1.42,7.03-1.42c1.86,0,4.15.27,6.85.79,2.71.53,4.68.79,5.91.79,1.55,0,3.01-.34,4.38-1.03h3.27l1.85,17.66h-3.01c-2.81-5.27-5.75-9.29-8.83-12.05-3.08-2.76-6.7-4.15-10.85-4.15-2.06,0-3.98.48-5.76,1.44-1.78.96-3.2,2.29-4.28,3.97-1.07,1.69-1.61,3.55-1.61,5.59,0,2.87.97,5.06,2.92,6.57,1.95,1.52,4.83,2.66,8.66,3.44s7.25,1.43,10.27,1.98c3.02.54,5.42,1.25,7.2,2.11,3.27,1.6,5.8,3.82,7.61,6.66s2.71,6.04,2.71,9.62-.83,6.65-2.49,9.62c-1.66,2.98-4,5.36-7,7.15s-6.36,2.69-10.05,2.69c-2.09,0-3.67-.16-4.73-.47-1.06-.32-2.88-.93-5.46-1.85-2.58-.92-4.55-1.38-5.93-1.38-2.29,0-4.11.87-5.46,2.62h-2.45v-21.83ZM179.12,124.61c-.49,2.18-.73,3.94-.73,5.29,0,1.52.26,3.04.77,4.58.52,1.53,1.27,2.98,2.28,4.34,1,1.36,2.13,2.47,3.39,3.33,1.69,1.15,3.55,1.96,5.59,2.43,2.03.47,5.01,1.03,8.92,1.68s6.61,1.27,8.1,1.87c2.75,1,4.89,2.54,6.42,4.6s2.3,4.48,2.3,7.26c0,2.06-.59,4.24-1.76,6.53,2.35-2.43,3.52-5.29,3.52-8.55s-.87-6.04-2.6-7.97-3.88-3.37-6.45-4.3c-2.56-.93-6.07-1.79-10.51-2.58-4.44-.79-6.72-1.2-6.83-1.22-4.07-1.06-7.15-2.89-9.26-5.5-2.11-2.61-3.16-5.61-3.16-9.02,0-.63,0-1.16-.02-1.59-.01-.43,0-.82.02-1.16ZM179.12,160.06v11.47c.83-1.09,1.6-1.79,2.3-2.11.7-.31,1.78-.44,3.24-.39-.95-1.12-1.63-1.94-2.04-2.47-.42-.53-.93-1.32-1.55-2.36-.62-1.04-1.27-2.43-1.96-4.15ZM211.52,124.27l-1.42-8.21c-.95.32-1.89.47-2.84.47-1.03,0-2.15-.16-3.35-.47,1.15.75,2.15,1.58,3.01,2.49.86.92,1.76,2.02,2.71,3.31s1.58,2.09,1.89,2.41Z" />
      <path class="st2" d="M269.14,113.27h19.81v2.36c-2.23.12-4.33,1.38-6.27,3.8-1.95,2.42-3.88,6.05-5.8,10.89l-17.79,44.73h-2.36l-21.91-52.21c-1.26-3.18-2.32-5.15-3.18-5.91-.86-.76-2.55-1.2-5.07-1.31v-2.36h25.87v2.36h-.73c-1.92,0-3.39.34-4.43,1.03s-1.55,1.63-1.55,2.84c0-.09.09.4.28,1.46.19,1.06.39,1.86.62,2.41l15.64,37.43,11.26-28.27c1.6-3.92,2.41-7.12,2.41-9.58,0-2.32-.59-4.12-1.78-5.39-1.19-1.27-2.86-1.91-5.01-1.91v-2.36ZM236.14,122.25l21.1,50.49c.83-1.55,1.25-2.65,1.25-3.31s-.42-1.92-1.25-3.7l-18-43.14c-.77-1.86-1.45-3.28-2.02-4.25-.57-.97-1.3-1.7-2.19-2.17s-2.13-.77-3.74-.88c1.06.4,1.91,1.09,2.54,2.06.63.97,1.4,2.61,2.32,4.9ZM281.99,115.63h-8.46c2.29,1.32,3.52,3.58,3.7,6.79,1.26-3.06,2.85-5.33,4.77-6.79Z" />
    </g>
    <g class="st3">
      <path class="st2" d="M123.07,279.5h-35.06v-2.36h.99c2.66,0,4.58-.37,5.74-1.1s1.85-1.69,2.08-2.88c.23-1.19.34-3.1.34-5.74v-38.07c0-2.21-.18-3.86-.54-4.96-.36-1.1-1.17-1.9-2.43-2.41-1.26-.5-3.32-.75-6.19-.75v-2.36h33.64c2.98,0,5.71.39,8.21,1.18,2.49.79,4.6,1.88,6.32,3.27,1.72,1.39,3.06,3.02,4.02,4.88.96,1.86,1.44,3.88,1.44,6.06,0,2.35-.6,4.5-1.8,6.47-1.2,1.96-3.04,3.61-5.5,4.94-2.46,1.33-5.46,2.26-8.98,2.77,5.79.77,10.23,2.57,13.32,5.39,3.09,2.82,4.64,6.34,4.64,10.55,0,2.18-.47,4.19-1.42,6.04s-2.31,3.45-4.08,4.81c-1.78,1.36-3.92,2.41-6.45,3.16-2.52.75-5.29,1.12-8.29,1.12ZM101.33,270.09v-43.14c0-1.95-.39-3.39-1.16-4.32-.77-.93-2.21-1.4-4.3-1.4h-.9c1.38.4,2.32,1.08,2.84,2.04.52.96.77,2.51.77,4.66v42.41c0,2.18-.28,3.72-.84,4.64-.56.92-1.48,1.63-2.77,2.15h1.25c2.23,0,3.65-.67,4.23-2,.59-1.33.88-3.01.88-5.05ZM107.91,247.1h8.04c3.87,0,6.7-.46,8.51-1.38,1.66-.86,3-2.31,4.02-4.36,1.02-2.05,1.53-4.36,1.53-6.94,0-2.06-.32-3.99-.97-5.78-.64-1.79-1.55-3.26-2.73-4.4-1.23-1.29-2.59-2.11-4.06-2.47-1.48-.36-3.46-.54-5.95-.54-3.27,0-5.48.5-6.64,1.5-1.16,1-1.74,2.74-1.74,5.2v19.16ZM107.91,249.51v20.93c0,1.46.17,2.61.52,3.46.34.85.92,1.52,1.74,2.02.82.5,1.83.83,3.03.99,1.2.16,2.85.24,4.94.24,2.95,0,5.39-.52,7.33-1.57,1.93-1.04,3.38-2.56,4.34-4.55.96-1.99,1.44-4.42,1.44-7.28s-.54-5.41-1.63-7.54c-1.09-2.13-2.64-3.78-4.66-4.94s-4.43-1.74-7.24-1.74h-9.8ZM123.85,249.59c2.86,1.09,5.05,2.78,6.55,5.07,1.5,2.29,2.26,5.31,2.26,9.07,0,7.16-2.88,11.75-8.64,13.75,3.7-.43,6.5-1.87,8.4-4.32,1.9-2.45,2.86-5.79,2.86-10.03,0-3.92-1.01-7.1-3.03-9.52-2.02-2.42-4.82-3.76-8.4-4.02ZM124.36,247.1c6.53-1.69,9.8-6,9.8-12.93,0-2.26-.37-4.33-1.12-6.21-.75-1.88-1.87-3.42-3.37-4.62s-3.36-1.9-5.56-2.11c2.35.97,4.15,2.63,5.41,4.96,1.26,2.33,1.89,5.15,1.89,8.44,0,6.02-2.35,10.17-7.05,12.46Z" />
      <path class="st2" d="M182.67,268.84l1.72,1.33c-1.29,2.41-2.82,4.38-4.6,5.93-1.78,1.55-3.73,2.69-5.87,3.44-2.13.74-4.36,1.12-6.68,1.12-3.15,0-6.08-.76-8.79-2.28s-4.85-3.71-6.42-6.57c-1.58-2.86-2.36-6.12-2.36-9.75,0-2.86.48-5.56,1.44-8.08.96-2.52,2.29-4.74,4-6.66,1.7-1.92,3.68-3.42,5.93-4.49,2.25-1.07,4.65-1.61,7.2-1.61s5.03.54,7.37,1.61c2.33,1.07,4.19,2.56,5.56,4.45,1,1.38,1.73,2.79,2.17,4.23.44,1.45.79,3.19,1.05,5.22h-25.95c.11,2.98.62,5.5,1.53,7.56s2.08,3.72,3.52,4.98c1.45,1.26,2.99,2.16,4.62,2.71,1.63.54,3.19.82,4.68.82,3.61,0,6.9-1.32,9.88-3.95ZM159.08,245.51c-5.36,4.24-8.04,9.8-8.04,16.67,0,4.98,1.6,9.06,4.79,12.22,3.19,3.17,6.88,4.75,11.06,4.75,2.43,0,4.88-.49,7.33-1.48s4.52-2.46,6.21-4.4c-1.75,1.12-3.53,2.03-5.35,2.73-1.82.7-3.99,1.05-6.51,1.05-4.27,0-7.83-1.49-10.68-4.47-2.85-2.98-4.28-6.86-4.28-11.64,0-3.04.47-5.76,1.42-8.16s2.29-4.83,4.04-7.26ZM158.69,253.98h15v-1.42c0-1.66-.3-3.14-.9-4.45-.6-1.3-1.43-2.31-2.47-3.01-1.05-.7-2.24-1.05-3.59-1.05-2.18,0-4.02.97-5.54,2.9-1.52,1.93-2.35,4.28-2.49,7.03ZM175.07,253.98h3.01c-.09-3.21-.75-5.58-1.98-7.11-1.23-1.53-3.29-2.56-6.19-3.07,1.83.83,3.15,1.91,3.95,3.24.8,1.33,1.2,3.36,1.2,6.08v.86Z" />
      <path class="st2" d="M193.07,269.1v-24.45h-4.6v-2.19c2.52-1.89,4.41-3.34,5.67-4.36,1.26-1.02,2.46-2.16,3.59-3.42,1.13-1.26,2.1-2.58,2.9-3.95h2.28v11.21h10.66v2.71h-10.66v25.7c0,1.89.23,3.3.69,4.23.46.93,1.23,1.4,2.32,1.4,1.03,0,1.98-.29,2.86-.86.87-.57,1.94-1.46,3.2-2.66l1.59,1.68c-2.15,2.21-4.12,3.85-5.91,4.92s-3.85,1.61-6.17,1.61-3.92-.49-5.16-1.46c-1.23-.97-2.08-2.3-2.56-3.97s-.71-3.72-.71-6.12ZM197.28,237.35l-2.84,2.36v28.53c0,3.81.49,6.58,1.48,8.31.99,1.73,2.76,2.6,5.31,2.6,1.35,0,2.69-.21,4.04-.64-2.61.09-4.59-.52-5.95-1.83-1.36-1.3-2.04-3.47-2.04-6.51v-32.83Z" />
      <path class="st2" d="M221.51,269.1v-24.45h-4.6v-2.19c2.52-1.89,4.41-3.34,5.67-4.36,1.26-1.02,2.46-2.16,3.59-3.42,1.13-1.26,2.1-2.58,2.9-3.95h2.28v11.21h10.66v2.71h-10.66v25.7c0,1.89.23,3.3.69,4.23.46.93,1.23,1.4,2.32,1.4,1.03,0,1.98-.29,2.86-.86.87-.57,1.94-1.46,3.2-2.66l1.59,1.68c-2.15,2.21-4.12,3.85-5.91,4.92s-3.85,1.61-6.17,1.61-3.92-.49-5.16-1.46-2.08-2.3-2.56-3.97-.71-3.72-.71-6.12ZM225.73,237.35l-2.84,2.36v28.53c0,3.81.49,6.58,1.48,8.31.99,1.73,2.76,2.6,5.31,2.6,1.35,0,2.69-.21,4.04-.64-2.61.09-4.59-.52-5.95-1.83-1.36-1.3-2.04-3.47-2.04-6.51v-32.83Z" />
      <path class="st2" d="M279.01,268.84l1.72,1.33c-1.29,2.41-2.82,4.38-4.6,5.93s-3.73,2.69-5.87,3.44-4.36,1.12-6.68,1.12c-3.15,0-6.08-.76-8.79-2.28s-4.85-3.71-6.42-6.57c-1.58-2.86-2.36-6.12-2.36-9.75,0-2.86.48-5.56,1.44-8.08.96-2.52,2.29-4.74,4-6.66,1.7-1.92,3.68-3.42,5.93-4.49s4.65-1.61,7.2-1.61,5.03.54,7.37,1.61,4.19,2.56,5.56,4.45c1,1.38,1.73,2.79,2.17,4.23.44,1.45.79,3.19,1.05,5.22h-25.95c.11,2.98.62,5.5,1.53,7.56s2.08,3.72,3.52,4.98c1.45,1.26,2.99,2.16,4.62,2.71,1.63.54,3.19.82,4.68.82,3.61,0,6.9-1.32,9.88-3.95ZM255.42,245.51c-5.36,4.24-8.04,9.8-8.04,16.67,0,4.98,1.6,9.06,4.79,12.22,3.19,3.17,6.88,4.75,11.06,4.75,2.43,0,4.88-.49,7.33-1.48s4.52-2.46,6.21-4.4c-1.75,1.12-3.53,2.03-5.35,2.73-1.82.7-3.99,1.05-6.51,1.05-4.27,0-7.83-1.49-10.68-4.47-2.85-2.98-4.28-6.86-4.28-11.64,0-3.04.47-5.76,1.42-8.16s2.29-4.83,4.04-7.26ZM255.03,253.98h15v-1.42c0-1.66-.3-3.14-.9-4.45-.6-1.3-1.42-2.31-2.47-3.01-1.05-.7-2.24-1.05-3.59-1.05-2.18,0-4.02.97-5.54,2.9s-2.35,4.28-2.49,7.03ZM271.4,253.98h3.01c-.09-3.21-.75-5.58-1.98-7.11-1.23-1.53-3.29-2.56-6.19-3.07,1.83.83,3.15,1.91,3.95,3.24s1.2,3.36,1.2,6.08v.86Z" />
      <path class="st2" d="M300.49,241.21v6.62c2.21-2.49,3.9-4.22,5.07-5.18,1.17-.96,2.59-1.44,4.25-1.44,1.43,0,2.64.51,3.63,1.53.99,1.02,1.48,2.3,1.48,3.85s-.44,2.94-1.33,4.02c-.89,1.07-2.01,1.61-3.35,1.61-.6,0-1.26-.11-1.98-.34-.72-.23-1.32-.53-1.8-.9-.29-.23-.59-.47-.9-.73-.32-.26-.59-.46-.84-.6-.24-.14-.51-.21-.79-.21-.54,0-1.08.21-1.61.62-.53.42-1.14,1-1.83,1.74v20.75c0,1.49.21,2.55.62,3.18.42.63,1.06,1.02,1.93,1.18.87.16,2.4.24,4.58.24v2.36h-23.07v-2.36h1.16c3.32,0,4.98-1.32,4.98-3.95v-19.29c0-3.29-2.05-5.56-6.14-6.79v-1.46l13.84-4.43h2.11ZM292.11,253.89v19.55c0,.97-.16,1.7-.47,2.17-.32.47-.77.98-1.38,1.53,1.63-.14,2.81-.58,3.52-1.31.72-.73,1.07-2,1.07-3.8v-18.13c0-2.46-.43-4.25-1.29-5.37s-2.22-1.68-4.08-1.68c-.14,0-.46.03-.95.09-.49.06-.82.09-.99.09,3.04,1.32,4.55,3.61,4.55,6.88ZM303.37,247.83c.77,0,1.55.26,2.32.77,1.78,1.4,3.27,2.11,4.47,2.11,1.49,0,2.58-.96,3.27-2.88-.8.4-1.39.6-1.76.6-.86,0-1.72-.29-2.58-.86-1.09-.89-1.99-1.33-2.71-1.33s-1.69.53-3.01,1.59Z" />
    </g>
  </g>
</svg>