<?xml version="1.0" encoding="UTF-8" standalone="no"?>
<svg
   id="Layer_1"
   version="1.1"
   viewBox="0 0 401 401"
   width="160"
   height="160"
   xmlns="http://www.w3.org/2000/svg"
   xmlns:svg="http://www.w3.org/2000/svg">
  <defs
     id="defs4">
    <style
       id="style2">
      .st0 {
        fill: #f38385;
      }

      .st0, .st1 {
        stroke: #231f20;
        stroke-miterlimit: 10;
      }

      .st2 {
        fill: #fff;
      }

      .st3 {
        isolation: isolate;
      }

      .st1 {
        fill: #1f5fac;
      }
    
      :root { color-scheme: light; } /* dark-mode fix */
    </style>
  </defs>
  <rect
     id="fix-darkmode-bg"
     width="100%"
     height="100%"
     fill="transparent" />
  <circle
     class="st1"
     cx="200.5"
     cy="200.5"
     r="200"
     id="circle7"
     style="display:inline" />
  <circle
     class="st0"
     cx="200.5"
     cy="200.5"
     r="154.8"
     id="circle9"
     style="display:inline" />
  <g
     class="st3"
     id="g33"
     transform="matrix(0.85778095,0,0,0.85778095,30.438397,43.20957)">
    <g
       class="st3"
       id="g17"
       style="display:inline">
      <path
         class="st2"
         d="m 148.31,173.9 h -35.06 v -2.36 h 0.99 c 2.66,0 4.58,-0.37 5.74,-1.1 1.16,-0.73 1.85,-1.69 2.08,-2.88 0.23,-1.19 0.34,-3.1 0.34,-5.74 v -38.07 c 0,-2.21 -0.18,-3.86 -0.54,-4.96 -0.36,-1.1 -1.17,-1.9 -2.43,-2.41 -1.26,-0.5 -3.32,-0.75 -6.19,-0.75 v -2.36 h 33.64 c 2.98,0 5.71,0.39 8.21,1.18 2.49,0.79 4.6,1.88 6.32,3.27 1.72,1.39 3.06,3.02 4.02,4.88 0.96,1.86 1.44,3.88 1.44,6.06 0,2.35 -0.6,4.5 -1.8,6.47 -1.2,1.96 -3.04,3.61 -5.5,4.94 -2.46,1.33 -5.46,2.26 -8.98,2.77 5.79,0.77 10.23,2.57 13.32,5.39 3.09,2.82 4.64,6.34 4.64,10.55 0,2.18 -0.47,4.19 -1.42,6.04 -0.95,1.85 -2.31,3.45 -4.08,4.81 -1.78,1.36 -3.92,2.41 -6.45,3.16 -2.52,0.75 -5.29,1.12 -8.29,1.12 z m -21.74,-9.41 v -43.14 c 0,-1.95 -0.39,-3.39 -1.16,-4.32 -0.77,-0.93 -2.21,-1.4 -4.3,-1.4 h -0.9 c 1.38,0.4 2.32,1.08 2.84,2.04 0.52,0.96 0.77,2.51 0.77,4.66 v 42.41 c 0,2.18 -0.28,3.72 -0.84,4.64 -0.56,0.92 -1.48,1.63 -2.77,2.15 h 1.25 c 2.23,0 3.65,-0.67 4.23,-2 0.59,-1.33 0.88,-3.01 0.88,-5.05 z m 6.58,-22.99 h 8.04 c 3.87,0 6.7,-0.46 8.51,-1.38 1.66,-0.86 3,-2.31 4.02,-4.36 1.02,-2.05 1.53,-4.36 1.53,-6.94 0,-2.06 -0.32,-3.99 -0.97,-5.78 -0.64,-1.79 -1.55,-3.26 -2.73,-4.4 -1.23,-1.29 -2.59,-2.11 -4.06,-2.47 -1.48,-0.36 -3.46,-0.54 -5.95,-0.54 -3.27,0 -5.48,0.5 -6.64,1.5 -1.16,1 -1.74,2.74 -1.74,5.2 v 19.16 z m 0,2.41 v 20.93 c 0,1.46 0.17,2.61 0.52,3.46 0.34,0.85 0.92,1.52 1.74,2.02 0.82,0.5 1.83,0.83 3.03,0.99 1.2,0.16 2.85,0.24 4.94,0.24 2.95,0 5.39,-0.52 7.33,-1.57 1.93,-1.04 3.38,-2.56 4.34,-4.55 0.96,-1.99 1.44,-4.42 1.44,-7.28 0,-2.86 -0.54,-5.41 -1.63,-7.54 -1.09,-2.13 -2.64,-3.78 -4.66,-4.94 -2.02,-1.16 -4.43,-1.74 -7.24,-1.74 h -9.8 z m 15.94,0.08 c 2.86,1.09 5.05,2.78 6.55,5.07 1.5,2.29 2.26,5.31 2.26,9.07 0,7.16 -2.88,11.75 -8.64,13.75 3.7,-0.43 6.5,-1.87 8.4,-4.32 1.9,-2.45 2.86,-5.79 2.86,-10.03 0,-3.92 -1.01,-7.1 -3.03,-9.52 -2.02,-2.42 -4.82,-3.76 -8.4,-4.02 z m 0.51,-2.49 c 6.53,-1.69 9.8,-6 9.8,-12.93 0,-2.26 -0.37,-4.33 -1.12,-6.21 -0.75,-1.88 -1.87,-3.42 -3.37,-4.62 -1.5,-1.2 -3.36,-1.9 -5.56,-2.11 2.35,0.97 4.15,2.63 5.41,4.96 1.26,2.33 1.89,5.15 1.89,8.44 0,6.02 -2.35,10.17 -7.05,12.46 z"
         id="path11" />
      <path
         class="st2"
         d="m 177.7,152.07 h 2.84 c 1.58,4.53 3.47,8.33 5.69,11.41 2.22,3.08 4.64,5.36 7.26,6.85 2.62,1.49 5.36,2.23 8.23,2.23 3.58,0 6.65,-1.12 9.2,-3.35 2.55,-2.23 3.82,-5.1 3.82,-8.59 0,-3.27 -0.84,-5.81 -2.54,-7.63 -1.69,-1.82 -3.71,-3.09 -6.06,-3.82 -2.35,-0.73 -5.44,-1.41 -9.28,-2.04 -3.84,-0.63 -6.56,-1.22 -8.16,-1.76 -2.49,-0.86 -4.61,-2.04 -6.36,-3.54 -1.75,-1.5 -3.07,-3.31 -3.97,-5.41 -0.9,-2.1 -1.35,-4.36 -1.35,-6.77 0,-2.41 0.4,-4.5 1.2,-6.62 0.8,-2.12 1.93,-4 3.39,-5.63 1.46,-1.63 3.24,-2.92 5.35,-3.87 2.11,-0.95 4.45,-1.42 7.03,-1.42 1.86,0 4.15,0.27 6.85,0.79 2.71,0.53 4.68,0.79 5.91,0.79 1.55,0 3.01,-0.34 4.38,-1.03 h 3.27 l 1.85,17.66 h -3.01 c -2.81,-5.27 -5.75,-9.29 -8.83,-12.05 -3.08,-2.76 -6.7,-4.15 -10.85,-4.15 -2.06,0 -3.98,0.48 -5.76,1.44 -1.78,0.96 -3.2,2.29 -4.28,3.97 -1.07,1.69 -1.61,3.55 -1.61,5.59 0,2.87 0.97,5.06 2.92,6.57 1.95,1.52 4.83,2.66 8.66,3.44 3.83,0.78 7.25,1.43 10.27,1.98 3.02,0.54 5.42,1.25 7.2,2.11 3.27,1.6 5.8,3.82 7.61,6.66 1.81,2.84 2.71,6.04 2.71,9.62 0,3.58 -0.83,6.65 -2.49,9.62 -1.66,2.98 -4,5.36 -7,7.15 -3,1.79 -6.36,2.69 -10.05,2.69 -2.09,0 -3.67,-0.16 -4.73,-0.47 -1.06,-0.32 -2.88,-0.93 -5.46,-1.85 -2.58,-0.92 -4.55,-1.38 -5.93,-1.38 -2.29,0 -4.11,0.87 -5.46,2.62 h -2.45 v -21.83 z m 1.42,-27.46 c -0.49,2.18 -0.73,3.94 -0.73,5.29 0,1.52 0.26,3.04 0.77,4.58 0.52,1.53 1.27,2.98 2.28,4.34 1,1.36 2.13,2.47 3.39,3.33 1.69,1.15 3.55,1.96 5.59,2.43 2.03,0.47 5.01,1.03 8.92,1.68 3.91,0.65 6.61,1.27 8.1,1.87 2.75,1 4.89,2.54 6.42,4.6 1.53,2.06 2.3,4.48 2.3,7.26 0,2.06 -0.59,4.24 -1.76,6.53 2.35,-2.43 3.52,-5.29 3.52,-8.55 0,-3.26 -0.87,-6.04 -2.6,-7.97 -1.73,-1.93 -3.88,-3.37 -6.45,-4.3 -2.56,-0.93 -6.07,-1.79 -10.51,-2.58 -4.44,-0.79 -6.72,-1.2 -6.83,-1.22 -4.07,-1.06 -7.15,-2.89 -9.26,-5.5 -2.11,-2.61 -3.16,-5.61 -3.16,-9.02 0,-0.63 0,-1.16 -0.02,-1.59 -0.01,-0.43 0,-0.82 0.02,-1.16 z m 0,35.45 v 11.47 c 0.83,-1.09 1.6,-1.79 2.3,-2.11 0.7,-0.31 1.78,-0.44 3.24,-0.39 -0.95,-1.12 -1.63,-1.94 -2.04,-2.47 -0.42,-0.53 -0.93,-1.32 -1.55,-2.36 -0.62,-1.04 -1.27,-2.43 -1.96,-4.15 z m 32.4,-35.79 -1.42,-8.21 c -0.95,0.32 -1.89,0.47 -2.84,0.47 -1.03,0 -2.15,-0.16 -3.35,-0.47 1.15,0.75 2.15,1.58 3.01,2.49 0.86,0.92 1.76,2.02 2.71,3.31 0.95,1.29 1.58,2.09 1.89,2.41 z"
         id="path13" />
      <path
         class="st2"
         d="m 269.14,113.27 h 19.81 v 2.36 c -2.23,0.12 -4.33,1.38 -6.27,3.8 -1.95,2.42 -3.88,6.05 -5.8,10.89 l -17.79,44.73 h -2.36 l -21.91,-52.21 c -1.26,-3.18 -2.32,-5.15 -3.18,-5.91 -0.86,-0.76 -2.55,-1.2 -5.07,-1.31 v -2.36 h 25.87 v 2.36 h -0.73 c -1.92,0 -3.39,0.34 -4.43,1.03 -1.04,0.69 -1.55,1.63 -1.55,2.84 0,-0.09 0.09,0.4 0.28,1.46 0.19,1.06 0.39,1.86 0.62,2.41 l 15.64,37.43 11.26,-28.27 c 1.6,-3.92 2.41,-7.12 2.41,-9.58 0,-2.32 -0.59,-4.12 -1.78,-5.39 -1.19,-1.27 -2.86,-1.91 -5.01,-1.91 v -2.36 z m -33,8.98 21.1,50.49 c 0.83,-1.55 1.25,-2.65 1.25,-3.31 0,-0.66 -0.42,-1.92 -1.25,-3.7 l -18,-43.14 c -0.77,-1.86 -1.45,-3.28 -2.02,-4.25 -0.57,-0.97 -1.3,-1.7 -2.19,-2.17 -0.89,-0.47 -2.13,-0.77 -3.74,-0.88 1.06,0.4 1.91,1.09 2.54,2.06 0.63,0.97 1.4,2.61 2.32,4.9 z m 45.85,-6.62 h -8.46 c 2.29,1.32 3.52,3.58 3.7,6.79 1.26,-3.06 2.85,-5.33 4.77,-6.79 z"
         id="path15" />
    </g>
  </g>
  <g
     class="st3"
     id="g31"
     style="display:inline;isolation:isolate"
     transform="translate(-0.49321914,-19.855571)">
    <path
       class="st2"
       d="M 123.07,279.5 H 88.01 v -2.36 H 89 c 2.66,0 4.58,-0.37 5.74,-1.1 1.16,-0.73 1.85,-1.69 2.08,-2.88 0.23,-1.19 0.34,-3.1 0.34,-5.74 v -38.07 c 0,-2.21 -0.18,-3.86 -0.54,-4.96 -0.36,-1.1 -1.17,-1.9 -2.43,-2.41 -1.26,-0.5 -3.32,-0.75 -6.19,-0.75 v -2.36 h 33.64 c 2.98,0 5.71,0.39 8.21,1.18 2.49,0.79 4.6,1.88 6.32,3.27 1.72,1.39 3.06,3.02 4.02,4.88 0.96,1.86 1.44,3.88 1.44,6.06 0,2.35 -0.6,4.5 -1.8,6.47 -1.2,1.96 -3.04,3.61 -5.5,4.94 -2.46,1.33 -5.46,2.26 -8.98,2.77 5.79,0.77 10.23,2.57 13.32,5.39 3.09,2.82 4.64,6.34 4.64,10.55 0,2.18 -0.47,4.19 -1.42,6.04 -0.95,1.85 -2.31,3.45 -4.08,4.81 -1.78,1.36 -3.92,2.41 -6.45,3.16 -2.52,0.75 -5.29,1.12 -8.29,1.12 z m -21.74,-9.41 v -43.14 c 0,-1.95 -0.39,-3.39 -1.16,-4.32 -0.77,-0.93 -2.21,-1.4 -4.3,-1.4 h -0.9 c 1.38,0.4 2.32,1.08 2.84,2.04 0.52,0.96 0.77,2.51 0.77,4.66 v 42.41 c 0,2.18 -0.28,3.72 -0.84,4.64 -0.56,0.92 -1.48,1.63 -2.77,2.15 h 1.25 c 2.23,0 3.65,-0.67 4.23,-2 0.59,-1.33 0.88,-3.01 0.88,-5.05 z m 6.58,-22.99 h 8.04 c 3.87,0 6.7,-0.46 8.51,-1.38 1.66,-0.86 3,-2.31 4.02,-4.36 1.02,-2.05 1.53,-4.36 1.53,-6.94 0,-2.06 -0.32,-3.99 -0.97,-5.78 -0.64,-1.79 -1.55,-3.26 -2.73,-4.4 -1.23,-1.29 -2.59,-2.11 -4.06,-2.47 -1.48,-0.36 -3.46,-0.54 -5.95,-0.54 -3.27,0 -5.48,0.5 -6.64,1.5 -1.16,1 -1.74,2.74 -1.74,5.2 v 19.16 z m 0,2.41 v 20.93 c 0,1.46 0.17,2.61 0.52,3.46 0.34,0.85 0.92,1.52 1.74,2.02 0.82,0.5 1.83,0.83 3.03,0.99 1.2,0.16 2.85,0.24 4.94,0.24 2.95,0 5.39,-0.52 7.33,-1.57 1.93,-1.04 3.38,-2.56 4.34,-4.55 0.96,-1.99 1.44,-4.42 1.44,-7.28 0,-2.86 -0.54,-5.41 -1.63,-7.54 -1.09,-2.13 -2.64,-3.78 -4.66,-4.94 -2.02,-1.16 -4.43,-1.74 -7.24,-1.74 h -9.8 z m 15.94,0.08 c 2.86,1.09 5.05,2.78 6.55,5.07 1.5,2.29 2.26,5.31 2.26,9.07 0,7.16 -2.88,11.75 -8.64,13.75 3.7,-0.43 6.5,-1.87 8.4,-4.32 1.9,-2.45 2.86,-5.79 2.86,-10.03 0,-3.92 -1.01,-7.1 -3.03,-9.52 -2.02,-2.42 -4.82,-3.76 -8.4,-4.02 z m 0.51,-2.49 c 6.53,-1.69 9.8,-6 9.8,-12.93 0,-2.26 -0.37,-4.33 -1.12,-6.21 -0.75,-1.88 -1.87,-3.42 -3.37,-4.62 -1.5,-1.2 -3.36,-1.9 -5.56,-2.11 2.35,0.97 4.15,2.63 5.41,4.96 1.26,2.33 1.89,5.15 1.89,8.44 0,6.02 -2.35,10.17 -7.05,12.46 z"
       id="path19"
       style="fill:#ffffff" />
    <path
       class="st2"
       d="m 182.67,268.84 1.72,1.33 c -1.29,2.41 -2.82,4.38 -4.6,5.93 -1.78,1.55 -3.73,2.69 -5.87,3.44 -2.13,0.74 -4.36,1.12 -6.68,1.12 -3.15,0 -6.08,-0.76 -8.79,-2.28 -2.71,-1.52 -4.85,-3.71 -6.42,-6.57 -1.58,-2.86 -2.36,-6.12 -2.36,-9.75 0,-2.86 0.48,-5.56 1.44,-8.08 0.96,-2.52 2.29,-4.74 4,-6.66 1.7,-1.92 3.68,-3.42 5.93,-4.49 2.25,-1.07 4.65,-1.61 7.2,-1.61 2.55,0 5.03,0.54 7.37,1.61 2.33,1.07 4.19,2.56 5.56,4.45 1,1.38 1.73,2.79 2.17,4.23 0.44,1.45 0.79,3.19 1.05,5.22 h -25.95 c 0.11,2.98 0.62,5.5 1.53,7.56 0.91,2.06 2.08,3.72 3.52,4.98 1.45,1.26 2.99,2.16 4.62,2.71 1.63,0.54 3.19,0.82 4.68,0.82 3.61,0 6.9,-1.32 9.88,-3.95 z m -23.59,-23.33 c -5.36,4.24 -8.04,9.8 -8.04,16.67 0,4.98 1.6,9.06 4.79,12.22 3.19,3.17 6.88,4.75 11.06,4.75 2.43,0 4.88,-0.49 7.33,-1.48 2.45,-0.99 4.52,-2.46 6.21,-4.4 -1.75,1.12 -3.53,2.03 -5.35,2.73 -1.82,0.7 -3.99,1.05 -6.51,1.05 -4.27,0 -7.83,-1.49 -10.68,-4.47 -2.85,-2.98 -4.28,-6.86 -4.28,-11.64 0,-3.04 0.47,-5.76 1.42,-8.16 0.95,-2.4 2.29,-4.83 4.04,-7.26 z m -0.39,8.47 h 15 v -1.42 c 0,-1.66 -0.3,-3.14 -0.9,-4.45 -0.6,-1.3 -1.43,-2.31 -2.47,-3.01 -1.05,-0.7 -2.24,-1.05 -3.59,-1.05 -2.18,0 -4.02,0.97 -5.54,2.9 -1.52,1.93 -2.35,4.28 -2.49,7.03 z m 16.38,0 h 3.01 c -0.09,-3.21 -0.75,-5.58 -1.98,-7.11 -1.23,-1.53 -3.29,-2.56 -6.19,-3.07 1.83,0.83 3.15,1.91 3.95,3.24 0.8,1.33 1.2,3.36 1.2,6.08 v 0.86 z"
       id="path21"
       style="fill:#ffffff" />
    <path
       class="st2"
       d="m 193.07,269.1 v -24.45 h -4.6 v -2.19 c 2.52,-1.89 4.41,-3.34 5.67,-4.36 1.26,-1.02 2.46,-2.16 3.59,-3.42 1.13,-1.26 2.1,-2.58 2.9,-3.95 h 2.28 v 11.21 h 10.66 v 2.71 h -10.66 v 25.7 c 0,1.89 0.23,3.3 0.69,4.23 0.46,0.93 1.23,1.4 2.32,1.4 1.03,0 1.98,-0.29 2.86,-0.86 0.87,-0.57 1.94,-1.46 3.2,-2.66 l 1.59,1.68 c -2.15,2.21 -4.12,3.85 -5.91,4.92 -1.79,1.07 -3.85,1.61 -6.17,1.61 -2.32,0 -3.92,-0.49 -5.16,-1.46 -1.23,-0.97 -2.08,-2.3 -2.56,-3.97 -0.48,-1.67 -0.71,-3.72 -0.71,-6.12 z m 4.21,-31.75 -2.84,2.36 v 28.53 c 0,3.81 0.49,6.58 1.48,8.31 0.99,1.73 2.76,2.6 5.31,2.6 1.35,0 2.69,-0.21 4.04,-0.64 -2.61,0.09 -4.59,-0.52 -5.95,-1.83 -1.36,-1.3 -2.04,-3.47 -2.04,-6.51 v -32.83 z"
       id="path23"
       style="fill:#ffffff" />
    <path
       class="st2"
       d="m 221.51,269.1 v -24.45 h -4.6 v -2.19 c 2.52,-1.89 4.41,-3.34 5.67,-4.36 1.26,-1.02 2.46,-2.16 3.59,-3.42 1.13,-1.26 2.1,-2.58 2.9,-3.95 h 2.28 v 11.21 h 10.66 v 2.71 h -10.66 v 25.7 c 0,1.89 0.23,3.3 0.69,4.23 0.46,0.93 1.23,1.4 2.32,1.4 1.03,0 1.98,-0.29 2.86,-0.86 0.87,-0.57 1.94,-1.46 3.2,-2.66 l 1.59,1.68 c -2.15,2.21 -4.12,3.85 -5.91,4.92 -1.79,1.07 -3.85,1.61 -6.17,1.61 -2.32,0 -3.92,-0.49 -5.16,-1.46 -1.24,-0.97 -2.08,-2.3 -2.56,-3.97 -0.48,-1.67 -0.71,-3.72 -0.71,-6.12 z m 4.22,-31.75 -2.84,2.36 v 28.53 c 0,3.81 0.49,6.58 1.48,8.31 0.99,1.73 2.76,2.6 5.31,2.6 1.35,0 2.69,-0.21 4.04,-0.64 -2.61,0.09 -4.59,-0.52 -5.95,-1.83 -1.36,-1.3 -2.04,-3.47 -2.04,-6.51 v -32.83 z"
       id="path25"
       style="fill:#ffffff" />
    <path
       class="st2"
       d="m 279.01,268.84 1.72,1.33 c -1.29,2.41 -2.82,4.38 -4.6,5.93 -1.78,1.55 -3.73,2.69 -5.87,3.44 -2.14,0.75 -4.36,1.12 -6.68,1.12 -3.15,0 -6.08,-0.76 -8.79,-2.28 -2.71,-1.52 -4.85,-3.71 -6.42,-6.57 -1.58,-2.86 -2.36,-6.12 -2.36,-9.75 0,-2.86 0.48,-5.56 1.44,-8.08 0.96,-2.52 2.29,-4.74 4,-6.66 1.7,-1.92 3.68,-3.42 5.93,-4.49 2.25,-1.07 4.65,-1.61 7.2,-1.61 2.55,0 5.03,0.54 7.37,1.61 2.34,1.07 4.19,2.56 5.56,4.45 1,1.38 1.73,2.79 2.17,4.23 0.44,1.45 0.79,3.19 1.05,5.22 h -25.95 c 0.11,2.98 0.62,5.5 1.53,7.56 0.91,2.06 2.08,3.72 3.52,4.98 1.45,1.26 2.99,2.16 4.62,2.71 1.63,0.54 3.19,0.82 4.68,0.82 3.61,0 6.9,-1.32 9.88,-3.95 z m -23.59,-23.33 c -5.36,4.24 -8.04,9.8 -8.04,16.67 0,4.98 1.6,9.06 4.79,12.22 3.19,3.17 6.88,4.75 11.06,4.75 2.43,0 4.88,-0.49 7.33,-1.48 2.45,-0.99 4.52,-2.46 6.21,-4.4 -1.75,1.12 -3.53,2.03 -5.35,2.73 -1.82,0.7 -3.99,1.05 -6.51,1.05 -4.27,0 -7.83,-1.49 -10.68,-4.47 -2.85,-2.98 -4.28,-6.86 -4.28,-11.64 0,-3.04 0.47,-5.76 1.42,-8.16 0.95,-2.4 2.29,-4.83 4.04,-7.26 z m -0.39,8.47 h 15 v -1.42 c 0,-1.66 -0.3,-3.14 -0.9,-4.45 -0.6,-1.3 -1.42,-2.31 -2.47,-3.01 -1.05,-0.7 -2.24,-1.05 -3.59,-1.05 -2.18,0 -4.02,0.97 -5.54,2.9 -1.52,1.93 -2.35,4.28 -2.49,7.03 z m 16.37,0 h 3.01 c -0.09,-3.21 -0.75,-5.58 -1.98,-7.11 -1.23,-1.53 -3.29,-2.56 -6.19,-3.07 1.83,0.83 3.15,1.91 3.95,3.24 0.8,1.33 1.2,3.36 1.2,6.08 v 0.86 z"
       id="path27"
       style="fill:#ffffff" />
    <path
       class="st2"
       d="m 300.49,241.21 v 6.62 c 2.21,-2.49 3.9,-4.22 5.07,-5.18 1.17,-0.96 2.59,-1.44 4.25,-1.44 1.43,0 2.64,0.51 3.63,1.53 0.99,1.02 1.48,2.3 1.48,3.85 0,1.55 -0.44,2.94 -1.33,4.02 -0.89,1.07 -2.01,1.61 -3.35,1.61 -0.6,0 -1.26,-0.11 -1.98,-0.34 -0.72,-0.23 -1.32,-0.53 -1.8,-0.9 -0.29,-0.23 -0.59,-0.47 -0.9,-0.73 -0.32,-0.26 -0.59,-0.46 -0.84,-0.6 -0.24,-0.14 -0.51,-0.21 -0.79,-0.21 -0.54,0 -1.08,0.21 -1.61,0.62 -0.53,0.42 -1.14,1 -1.83,1.74 v 20.75 c 0,1.49 0.21,2.55 0.62,3.18 0.42,0.63 1.06,1.02 1.93,1.18 0.87,0.16 2.4,0.24 4.58,0.24 v 2.36 h -23.07 v -2.36 h 1.16 c 3.32,0 4.98,-1.32 4.98,-3.95 v -19.29 c 0,-3.29 -2.05,-5.56 -6.14,-6.79 v -1.46 l 13.84,-4.43 h 2.11 z m -8.38,12.68 v 19.55 c 0,0.97 -0.16,1.7 -0.47,2.17 -0.32,0.47 -0.77,0.98 -1.38,1.53 1.63,-0.14 2.81,-0.58 3.52,-1.31 0.72,-0.73 1.07,-2 1.07,-3.8 V 253.9 c 0,-2.46 -0.43,-4.25 -1.29,-5.37 -0.86,-1.12 -2.22,-1.68 -4.08,-1.68 -0.14,0 -0.46,0.03 -0.95,0.09 -0.49,0.06 -0.82,0.09 -0.99,0.09 3.04,1.32 4.55,3.61 4.55,6.88 z m 11.26,-6.06 c 0.77,0 1.55,0.26 2.32,0.77 1.78,1.4 3.27,2.11 4.47,2.11 1.49,0 2.58,-0.96 3.27,-2.88 -0.8,0.4 -1.39,0.6 -1.76,0.6 -0.86,0 -1.72,-0.29 -2.58,-0.86 -1.09,-0.89 -1.99,-1.33 -2.71,-1.33 -0.72,0 -1.69,0.53 -3.01,1.59 z"
       id="path29"
       style="fill:#ffffff" />
  </g>
</svg>
