<?xml version="1.0" encoding="UTF-8" standalone="no"?>
<!-- Created with Inkscape (http://www.inkscape.org/) -->

<svg
   width="102.55287mm"
   height="21.72715mm"
   viewBox="-60 -60 102.55287 21.72715"
   version="1.1"
   id="svg263"
   xml:space="preserve"
   sodipodi:docname="bsvgolf.svg"
   inkscape:version="1.2.2 (b0a8486541, 2022-12-01)"
   xmlns:inkscape="http://www.inkscape.org/namespaces/inkscape"
   xmlns:sodipodi="http://sodipodi.sourceforge.net/DTD/sodipodi-0.dtd"
   xmlns="http://www.w3.org/2000/svg"
   xmlns:svg="http://www.w3.org/2000/svg"
   xmlns:rdf="http://www.w3.org/1999/02/22-rdf-syntax-ns#"
   xmlns:cc="http://creativecommons.org/ns#"
   xmlns:dc="http://purl.org/dc/elements/1.1/"><sodipodi:namedview
     id="namedview470"
     pagecolor="#ffffff"
     bordercolor="#000000"
     borderopacity="0.25"
     inkscape:showpageshadow="2"
     inkscape:pageopacity="0.0"
     inkscape:pagecheckerboard="0"
     inkscape:deskcolor="#d1d1d1"
     inkscape:document-units="mm"
     showgrid="false"
     inkscape:zoom="1.3532747"
     inkscape:cx="111.21171"
     inkscape:cy="55.051646"
     inkscape:window-width="1920"
     inkscape:window-height="1020"
     inkscape:window-x="0"
     inkscape:window-y="32"
     inkscape:window-maximized="1"
     inkscape:current-layer="Template" /><defs
     id="defs265" /><metadata
     id="metadata2822"><rdf:RDF><cc:Work
         rdf:about=""><dc:format>image/svg+xml</dc:format><dc:type
           rdf:resource="http://purl.org/dc/dcmitype/StillImage" /></cc:Work></rdf:RDF></metadata><g
     id="Template"
     style="fill:none;stroke:#000000;stroke-width:0.05"
     transform="matrix(0.96503974,0,0,1.0464091,-8.6854498,-48.730443)"><g
       aria-label="BSVGolf"
       transform="scale(0.94274814,1.0607287)"
       id="text35629"
       style="font-weight:bold;font-size:25.2761px;-inkscape-font-specification:'sans-serif Bold';text-align:center;text-anchor:middle;fill:#008000;stroke-width:0.0143113"><path
         d="m -49.01434,-2.2355532 q 1.123108,0 1.703174,-0.4936738 0.580067,-0.4936738 0.580067,-1.4563378 0,-0.9503221 -0.580067,-1.443996 -0.580066,-0.5060156 -1.703174,-0.5060156 h -2.628814 v 3.9000232 z m 0.160444,8.0592253 q 1.431654,0 2.147481,-0.6047504 0.728169,-0.6047505 0.728169,-1.8265932 0,-1.197159 -0.715827,-1.7895676 -0.715827,-0.60475048 -2.159823,-0.60475048 h -2.789258 V 5.8236721 Z m 4.41838,-6.62757116 q 1.530389,0.44430645 2.369635,1.64146549 0.839245,1.19715907 0.839245,2.93735927 0,2.6658387 -1.801909,3.9740744 -1.80191,1.3082356 -5.47978,1.3082356 h -7.886439 V -9.36914 h 7.133587 q 3.838314,0 5.55383,1.1601335 1.727859,1.1601335 1.727859,3.7148956 0,1.3452611 -0.629434,2.2955833 -0.629435,0.9379802 -1.826594,1.39462854 z"
         style="font-family:'Bitstream Vera Sans';-inkscape-font-specification:'Bitstream Vera Sans Bold';fill:#333333"
         id="path393" /><path
         d="M -24.305965,-8.7890733 V -4.88905 q -1.518047,-0.6788015 -2.962043,-1.0243732 -1.443996,-0.3455717 -2.727548,-0.3455717 -1.703175,0 -2.517737,0.4689901 -0.814561,0.4689902 -0.814561,1.4563378 0,0.7405108 0.543041,1.1601335 0.555383,0.407281 1.999379,0.7034853 l 2.024062,0.4072809 q 3.07312,0.6170923 4.369014,1.87596053 1.295894,1.25886827 1.295894,3.57913527 0,3.0484359 -1.814252,4.5417993 -1.801909,1.4810214 -5.516805,1.4810214 -1.752542,0 -3.517426,-0.3332298 -1.764884,-0.3332298 -3.529768,-0.9873477 V 4.0834719 q 1.764884,0.9379802 3.40635,1.4193122 1.653807,0.4689902 3.184196,0.4689902 1.555073,0 2.381976,-0.5183576 0.826904,-0.5183575 0.826904,-1.4810214 0,-0.8639292 -0.567725,-1.3329194 -0.555383,-0.4689901 -2.233874,-0.8392455 l -1.838935,-0.4072809 q -2.764574,-0.59240861 -4.048126,-1.88830242 -1.27121,-1.29589378 -1.27121,-3.49274238 0,-2.7522316 1.777226,-4.2332531 1.777226,-1.4810215 5.109524,-1.4810215 1.518047,0 3.122487,0.2344951 1.60444,0.2221532 3.319957,0.6788015 z"
         style="font-family:'Bitstream Vera Sans';-inkscape-font-specification:'Bitstream Vera Sans Bold';fill:#333333"
         id="path395" /><path
         d="m -21.121772,-9.36914 h 4.776295 L -11.458106,4.231574 -6.5830774,-9.36914 H -1.806783 L -8.6318238,9.0572357 h -5.6649072 z"
         style="font-family:'Bitstream Vera Sans';-inkscape-font-specification:'Bitstream Vera Sans Bold';fill:#333333"
         id="path397" /><path
         d="M 17.199663,7.6872908 Q 15.422437,8.55122 13.509451,8.9831846 11.596465,9.4151492 9.56006,9.4151492 q -4.6035085,0 -7.2940309,-2.5671039 -2.69052236,-2.5794457 -2.69052236,-6.98548469 0,-4.45540631 2.73988976,-7.01016841 2.7398898,-2.5547621 7.5038422,-2.5547621 1.8389353,0 3.5174263,0.3455717 1.690833,0.3455717 3.184196,1.0243732 v 3.8136304 q -1.542731,-0.8762711 -3.07312,-1.3082357 -1.518047,-0.4319646 -3.048436,-0.4319646 -2.838624,0 -4.3813548,1.5920981 -1.5303888,1.5797563 -1.5303888,4.52945741 0,2.92501749 1.4810215,4.51711559 1.4810215,1.5920981 4.2085691,1.5920981 0.740511,0 1.369945,-0.086393 0.641776,-0.098735 1.147792,-0.2962043 V 2.0100418 H 9.794555 v -3.1841962 h 7.405108 z"
         style="font-family:'Bitstream Vera Sans';-inkscape-font-specification:'Bitstream Vera Sans Bold'"
         id="path399" /><path
         d="m 27.764283,-1.9393489 q -1.46868,0 -2.246216,1.06139876 -0.765195,1.0490569 -0.765195,3.03609404 0,1.9870372 0.765195,3.0484359 0.777536,1.0490569 2.246216,1.0490569 1.443996,0 2.20919,-1.0490569 0.765195,-1.0613987 0.765195,-3.0484359 0,-1.98703714 -0.765195,-3.03609404 -0.765194,-1.06139876 -2.20919,-1.06139876 z m 0,-3.1595125 q 3.566793,0 5.566172,1.9253279 2.011721,1.925328 2.011721,5.3316774 0,3.4063495 -2.011721,5.3316774 -1.999379,1.9253279 -5.566172,1.9253279 -3.579135,0 -5.603198,-1.9253279 -2.011721,-1.9253279 -2.011721,-5.3316774 0,-3.4063494 2.011721,-5.3316774 2.024063,-1.9253279 5.603198,-1.9253279 z"
         style="font-family:'Bitstream Vera Sans';-inkscape-font-specification:'Bitstream Vera Sans Bold'"
         id="path401" /><path
         d="m 38.551054,-10.146676 h 4.418381 V 9.0572357 h -4.418381 z"
         style="font-family:'Bitstream Vera Sans';-inkscape-font-specification:'Bitstream Vera Sans Bold'"
         id="path403" /><path
         d="m 56.310973,-10.146676 v 2.9003334 h -2.443686 q -0.93798,0 -1.308235,0.3455717 -0.370256,0.3332299 -0.370256,1.1724754 v 0.9626639 h 3.776605 V -1.606119 H 52.188796 V 9.0572357 h -4.41838 V -1.606119 h -2.196849 v -3.1595126 h 2.196849 v -0.9626639 q 0,-2.2585578 1.258868,-3.3322984 1.258868,-1.0860821 3.900023,-1.0860821 z"
         style="font-family:'Bitstream Vera Sans';-inkscape-font-specification:'Bitstream Vera Sans Bold'"
         id="path405" /></g></g></svg>
