<?xml version="1.0" encoding="UTF-8" standalone="no"?>
<!-- Created with Inkscape (http://www.inkscape.org/) -->

<svg
   width="269.89172mm"
   height="51.064636mm"
   viewBox="0 0 269.89172 51.064636"
   version="1.1"
   id="svg1"
   xml:space="preserve"
   xmlns="http://www.w3.org/2000/svg"
   xmlns:svg="http://www.w3.org/2000/svg"><defs
     id="defs1" /><g
     id="layer1"
     transform="translate(27.516764,-98.325462)"><path
       style="display:inline;fill:#ffcc00"
       d="m -16.923382,147.00885 v -2.38125 l -4.167187,-0.0449 c -2.291953,-0.0247 -4.675464,-0.0146 -5.296691,0.0223 l -1.129504,0.0672 0.07117,-6.0416 0.07117,-6.0416 h 1.719791 1.719792 l 0.07033,-7.34219 0.07033,-7.34219 h -1.856268 -1.856269 v -6.48229 -6.48229 h 5.291667 5.291666 v -3.30729 -3.307288 h 9.5250003 9.5249999 v 3.307288 3.30729 h 2.6458333 2.6458333 v 1.85208 1.85209 h 2.6458362 2.645833 v 9.80985 9.80986 l 0.992187,-0.0856 0.992188,-0.0856 0.06479,6.15078 0.06479,6.15079 h -1.971892 -1.971887 l -0.07728,2.05052 c -0.05277,1.40015 -0.182174,2.06101 -0.408004,2.08359 -0.181901,0.0182 -2.116667,0.048 -4.2994795,0.0661 l -3.96875,0.0331 v 2.38125 2.38125 h -9.5249999 -9.5250006 z m 7.4083334,-3.175 v -2.38125 h 1.9843749 1.984375 v 2.38125 2.38125 h 1.984375 1.9843753 v -2.37453 -2.37453 l 4.1439018,-0.0729 4.1439017,-0.0729 -0.060136,-2.05052 -0.060136,-2.05052 h 1.8693593 1.8693596 v -4.49792 -4.49792 H 9.0057848 7.6828682 v -1.5875 -1.5875 H 5.5546102 3.4263523 l 0.077737,-1.9151 0.077737,-1.9151 2.0505207,0.0864 2.0505209,0.0864 v -4.91814 -4.91814 H 5.5782903 3.4737125 l -0.078235,-1.77222 -0.078235,-1.77223 -2.44739576,0.0428 -2.44739584,0.0428 v -3.29767 -3.29768 h -1.9843753 -1.984375 v 3.30729 3.30729 h -1.984375 -1.9843752 v -3.30729 -3.30729 h -1.9843754 -1.984374 v 3.31813 3.31813 l -5.159658,-0.077 -5.159658,-0.077 2.83e-4,3.10885 2.83e-4,3.10886 h 2.116666 2.116667 v 10.71562 10.71563 h -2.116667 -2.116666 v 2.91041 2.91042 h 5.159375 5.159375 v 2.38125 2.38125 h 1.984374 1.9843754 z m -2.6458334,-12.03854 v -3.83646 h 6.4822923 6.48229134 v 3.83646 3.83646 H -5.6785897 -12.160882 Z m 0,-14.02292 v -3.57187 h 6.0854173 6.08541634 v 3.57187 3.57188 H -6.0754647 -12.160882 Z m 33.866666,24.60625 v -1.98437 h -1.984375 -1.984375 v -3.96875 -3.96875 h 4.7625 4.7625 v 1.5875 1.5875 h 6.217708 6.217709 v -3.3073 -3.30729 h -9.525 -9.525 v -2.38125 -2.38125 h -2.248958 -2.248959 v -7.27604 c 0,-4.00182 8.99e-4,-7.36534 0.002,-7.47448 0.0011,-0.10914 1.221489,-0.20986 2.711979,-0.22382 l 2.709983,-0.0254 v -2.15768 -2.15769 l 11.840104,2.6e-4 11.840104,2.6e-4 v 4.23333 4.23334 h 1.852083 1.852083 v 2.51354 2.51354 h -5.027083 -5.027083 v -2.51354 -2.51354 h -6.217709 -6.217708 l -1.46e-4,3.9026 -1.46e-4,3.90261 9.392855,-0.0758 9.392854,-0.0758 v 1.72945 1.72944 h 2.248958 2.248958 v 7.67291 7.67292 h -2.248958 -2.248958 v 2.24896 2.24896 H 33.479742 21.705784 Z M 62.7162,141.05572 v -3.30729 h -1.719791 -1.719792 v -4.36562 -4.36563 H 57.424534 55.57245 v -4.89479 -4.89479 h -1.852083 -1.852083 v -7.14375 -7.14375 h 5.027083 5.027083 v 5.55625 5.55625 h 1.984375 1.984375 v 4.23333 4.23334 h 1.058334 1.058333 v 4.36562 4.36563 h 0.79375 0.79375 v -4.36563 -4.36562 h 1.058333 1.058334 v -4.23334 -4.23333 h 1.719791 1.719792 v -5.55625 -5.55625 h 5.291666 5.291667 v 7.14375 7.14375 h -1.852083 -1.852084 v 4.89479 4.89479 H 80.1787 78.326617 v 4.36563 4.36562 h -1.719792 -1.719791 v 3.30729 3.3073 H 68.801617 62.7162 Z M 89.968283,124.65156 V 104.9401 h 5.021716 5.021711 l 0.0715,5.4901 0.0715,5.49011 7.14376,0.0531 7.14375,0.0531 0.0757,2.69087 0.0758,2.69087 1.4456,-0.11988 1.44559,-0.11988 v 11.59729 11.59729 h -5.02708 -5.02708 V 134.3089 124.25473 h -3.70417 -3.70417 v 10.05417 10.05417 h -5.027063 -5.027084 z m 34.131257,17.4625 v -2.24896 h -1.5875 -1.5875 V 127.95885 116.0526 h 5.15937 5.15938 v 9.79685 9.79685 l 3.77031,-0.0734 3.77031,-0.0734 -0.0156,-9.72343 -0.0156,-9.72344 h 5.2411 5.2411 v 14.15521 14.15521 h -3.30729 -3.30729 v -1.98438 -1.98437 h -1.45521 -1.45521 v 1.98437 1.98438 h -7.8052 -7.80521 z m 29.44803,-17.39636 0.053,-19.64531 4.96094,-0.072 4.96093,-0.072 v 5.56209 5.56209 h 7.1399 7.13989 l -0.0174,2.05052 c -0.0305,3.59779 -0.2416,3.24875 1.87716,3.10341 l 1.85208,-0.12705 v 9.39281 9.39281 h -2.01153 -2.01152 l 0.0933,2.249 0.0933,2.24899 -12.09155,-4e-5 -12.09155,-3e-5 z m 17.6478,5.22552 v -5.68854 h -3.83646 -3.83646 v 5.68854 5.68855 h 3.83646 3.83646 z m 14.65527,9.19428 0.0666,-5.22553 5.07447,-0.0719 5.07446,-0.0719 v 5.29738 5.29738 h -5.14109 -5.14109 z m 14.4489,-8.92969 V 116.0526 h 5.02708 5.02708 v 14.15521 14.15521 h -5.02708 -5.02708 z m 16.98004,11.90563 0.0856,-2.24958 -1.78932,6.2e-4 -1.78932,6.2e-4 0.0695,-9.32656 0.0695,-9.32656 1.65364,0.0905 1.65365,0.0905 v -2.6702 -2.67018 h 10.45104 10.45104 l -1.6e-4,2.57969 -1.6e-4,2.57969 h 2.05068 2.05068 l 0.0695,9.32656 0.0695,9.32656 h -2.12006 -2.12005 v 2.24896 2.24896 h -10.47048 -10.47048 z m 15.03454,-12.17022 v -5.68854 h -4.49792 -4.49791 v 5.68854 5.68855 h 4.49791 4.49792 z m -32.01458,-20.76979 v -4.23333 h 5.02708 5.02708 v 4.23333 4.23334 h -5.02708 -5.02708 z"
       id="path1" /></g></svg>
