<?xml version="1.0" encoding="UTF-8" standalone="no"?>
<!-- Created with Inkscape (http://www.inkscape.org/) -->

<svg
   width="118.24742mm"
   height="93.786652mm"
   viewBox="-60 -60 118.24742 93.786652"
   version="1.1"
   id="svg263"
   xml:space="preserve"
   sodipodi:docname="bsvsearch.svg"
   inkscape:version="1.2.2 (b0a8486541, 2022-12-01)"
   xmlns:inkscape="http://www.inkscape.org/namespaces/inkscape"
   xmlns:sodipodi="http://sodipodi.sourceforge.net/DTD/sodipodi-0.dtd"
   xmlns="http://www.w3.org/2000/svg"
   xmlns:svg="http://www.w3.org/2000/svg"
   xmlns:rdf="http://www.w3.org/1999/02/22-rdf-syntax-ns#"
   xmlns:cc="http://creativecommons.org/ns#"
   xmlns:dc="http://purl.org/dc/elements/1.1/"><sodipodi:namedview
     id="namedview470"
     pagecolor="#ffffff"
     bordercolor="#000000"
     borderopacity="0.25"
     inkscape:showpageshadow="2"
     inkscape:pageopacity="0.0"
     inkscape:pagecheckerboard="0"
     inkscape:deskcolor="#d1d1d1"
     inkscape:document-units="mm"
     showgrid="false"
     inkscape:zoom="1.3532747"
     inkscape:cx="141.13912"
     inkscape:cy="191.75708"
     inkscape:window-width="1920"
     inkscape:window-height="1020"
     inkscape:window-x="0"
     inkscape:window-y="32"
     inkscape:window-maximized="1"
     inkscape:current-layer="svg263" /><defs
     id="defs265" /><metadata
     id="metadata2822"><rdf:RDF><cc:Work
         rdf:about=""><dc:format>image/svg+xml</dc:format><dc:type
           rdf:resource="http://purl.org/dc/dcmitype/StillImage" /></cc:Work></rdf:RDF></metadata><path
     style="fill:#b80041;fill-opacity:1;stroke-width:0.0956354"
     d="M -15.912099,33.768309 C -19.90728,33.483778 -22.927426,32.963061 -26.372364,31.964818 -35.923678,29.197133 -44.46434,23.345754 -50.453929,15.46603 -55.951384,8.233751 -59.180369,-0.276486 -59.90271,-9.4369416 L -60,-10.670178 v -2.64598 -2.64598 l 0.148174,-1.571994 c 1.532348,-16.256454 11.40434,-30.595153 25.912439,-37.63686 6.162059,-2.990844 11.682002,-4.37566 18.847219,-4.728292 L -13.04551,-60 l 2.129106,0.1036 c 2.545111,0.123844 4.1543851,0.297583 6.3370413,0.684161 l 1.625804,0.287952 1.7692533,0.46756 c 6.8151141,1.801029 12.7778014,4.867945 18.1228844,9.321524 9.370507,7.807605 15.160048,18.649126 16.554841,31.000683 l 0.149477,1.323649 0.05189,2.869058 0.0519,2.869059 -0.112695,1.4823476 C 33.278054,-4.9084911 32.244199,-0.248989 30.658499,3.819905 l -0.365938,0.938987 0.208752,0.13384 c 0.11481,0.07361 5.157878,3.134315 11.20681,6.801564 6.048932,3.667247 11.55475,7.005244 12.235148,7.417769 0.680396,0.412524 1.485617,0.943046 1.789375,1.178938 l 0.552293,0.428893 0.434471,0.552941 c 0.562,0.715242 1.02981,1.614972 1.306847,2.513462 l 0.221166,0.717264 -0.0012,1.291077 -0.0012,1.291076 -0.167954,0.605433 c -0.225968,0.814524 -0.536294,1.496695 -1.121974,2.466308 l -0.48927,0.810018 -0.526109,0.568255 -0.5261,0.568262 -0.657847,0.43734 c -0.807877,0.537078 -1.536494,0.839811 -2.500461,1.038921 l -0.736467,0.152113 -0.888653,-0.0011 -0.888661,-0.0011 -0.63917,-0.135471 c -0.351516,-0.0745 -0.9325,-0.260734 -1.291057,-0.413868 L 47.15928,32.902316 34.822329,25.413607 C 28.037051,21.294665 22.42087,17.908254 22.34197,17.888093 l -0.143452,-0.03665 -0.908535,1.016506 c -2.420648,2.708323 -6.19873,5.817842 -9.728298,8.006796 l -1.508848,0.93575 -2.295247,1.136515 -2.2952466,1.136516 -1.912706,0.714075 c -3.82375108,1.427545 -7.6464967,2.336348 -11.7631435,2.796536 l -1.3388942,0.149677 -2.9168697,0.03142 c -1.60428,0.01729 -3.153574,0.01459 -3.442874,-0.0057 z m 4.628892,-12.373807 1.6163773,-0.09386 1.5874026,-0.244004 C -1.9915892,20.120868 3.5028304,17.696503 8.3792645,13.79439 l 1.1954405,-0.956585 1.29434,-1.29195 C 16.593623,5.831849 19.904261,-1.031687 20.925776,-9.3035089 l 0.124008,-1.0041711 -9.56e-4,-2.390882 -9.56e-4,-2.390881 -0.124492,-1.051989 c -0.399872,-3.379003 -1.133975,-6.276073 -2.374218,-9.369636 l -0.613057,-1.529163 -0.652524,-1.24507 c -1.675438,-3.196967 -3.495001,-5.715222 -5.9352,-8.214322 -3.735239,-3.8254 -7.8972405,-6.511321 -13.0108212,-8.396451 l -1.2910776,-0.475957 -1.8170698,-0.464136 -1.8170697,-0.464138 -1.2910777,-0.194189 c -0.710087,-0.106798 -1.8720569,-0.244925 -2.582155,-0.306933 l -1.291078,-0.112742 -2.151784,0.05602 -2.151796,0.05602 -1.099812,0.151492 c -6.507659,0.896392 -12.334375,3.353119 -17.194248,7.249644 -7.134615,5.720352 -11.66362,13.913715 -12.751335,23.068293 l -0.124989,1.051987 0.0011,2.486519 0.0011,2.486516 0.119569,0.9563538 c 0.355297,2.8417612 0.862548,5.1112096 1.698578,7.5994562 l 0.529,1.574433 0.628279,1.39026 c 4.384962,9.703094 13.03653,16.852394 23.375261,19.31637 3.359798,0.800722 6.234328,1.060108 9.589379,0.865309 z M -18.781153,12.21443 V 9.345371 h -3.012514 -3.012515 v -20.991944 -20.991945 h 3.012515 3.012514 v -2.916875 -2.916878 h 2.151785 2.151796 v 2.905982 2.905982 l 1.554073,0.06553 c 0.85475,0.03605 1.629395,0.08688 1.721438,0.112974 l 0.167363,0.04744 v -3.018955 -3.018958 h 2.1517953 2.1517961 v 3.341449 3.341448 l 0.8368045,0.250033 0.8368046,0.250033 0.9563626,0.472014 0.9563513,0.472011 0.6503418,0.490401 0.650353,0.490402 0.575649,0.682136 0.57563767,0.682137 0.42554497,0.860717 0.42555626,0.860717 0.2368939,0.943299 0.2368939,0.943298 0.096621,1.272367 0.096621,1.272366 -0.091458,1.279986 c -0.2864385,4.008234 -1.71932706,6.682556 -4.0807591,7.616293 l -0.4672455,0.184752 0.4303591,0.171575 c 0.8031277,0.320189 1.6322005,0.793436 2.2468455,1.282521 l 0.61268114,0.487522 0.44593513,0.593234 c 1.14860153,1.5279823 1.67128833,3.1673546 1.86085043,5.8364436 l 0.097977,1.3795857 -0.094675,1.2441027 C 1.634355,0.21907 1.3413247,1.39855 0.6233754,2.907582 L 0.251011,3.69026 -0.31597475,4.442709 C -1.7088011,6.291118 -3.7236678,7.735965 -5.8942717,8.44285 L -6.731009,8.715348 v 3.18407 3.18407 h -2.151796 -2.151796 V 12.21443 9.345371 h -1.721437 -1.721436 v 2.869059 2.869058 h -2.151796 -2.151785 z m 7.488486,-10.769277 c 1.259185,-0.281279 1.9837704,-0.760679 2.6111635,-1.727593 l 0.3209458,-0.494642 0.2535585,-0.748617 0.2535472,-0.748617 0.045112,-1.0998058 0.045112,-1.0998052 -0.1522248,-0.6463927 c -0.1813906,-0.7702836 -0.530077,-1.4945248 -0.9956954,-2.0681426 l -0.3403484,-0.4192888 -0.426959,-0.2707717 c -0.5781964,-0.3666773 -1.4314634,-0.6335168 -2.4057474,-0.7523397 l -0.810387,-0.098831 h -1.317495 -1.317493 v 5.1643048 5.1643057 h 1.77428 1.774281 z m -0.07608,-17.893582 c 0.754806,-0.246207 0.948888,-0.355974 1.4562296,-0.823627 l 0.4251186,-0.391861 0.2313279,-0.4565 c 0.1272225,-0.251076 0.2969534,-0.70468 0.3771562,-1.00801 l 0.1458397,-0.55151 0.00224,-0.956353 0.00224,-0.956353 -0.1957882,-0.629771 -0.1957994,-0.629771 -0.2813887,-0.388454 c -0.5267887,-0.727201 -1.4694597,-1.262199 -2.6539627,-1.506206 l -0.653025,-0.134522 -1.410624,-0.06701 -1.410624,-0.06701 v 4.423379 4.423377 l 1.793168,-0.04621 1.793155,-0.04621 z"
     id="path566" /></svg>
