<?xml version="1.0" encoding="UTF-8" standalone="no"?>
<svg
   id="Layer_1"
   version="1.1"
   viewBox="0 0 444.08496 326.57373"
   width="160"
   height="117.6617"
   xml:space="preserve"
   xmlns="http://www.w3.org/2000/svg"
   xmlns:svg="http://www.w3.org/2000/svg"><defs
     id="defs9"><style
       id="style2">
      .st0 {
        fill: #fc0;
      }

      .st1 {
        fill: url(#linear-gradient);
      }
    </style><linearGradient
       id="linear-gradient"
       x1="26.34"
       y1="584.59998"
       x2="444.25"
       y2="584.59998"
       gradientTransform="matrix(0.76382792,0,0,-0.96587191,97.322076,703.04041)"
       gradientUnits="userSpaceOnUse"><stop
         offset="0"
         stop-color="#2939ee"
         id="stop4"
         style="stop-color:#f815d7;stop-opacity:1;" /><stop
         offset="1"
         stop-color="#da1254"
         stop-opacity=".99"
         id="stop6"
         style="stop-color:#370a76;stop-opacity:0.99000001;" /></linearGradient></defs><path
     id="rect1"
     class="st1"
     d="m 155.54547,9.1290344 h 242.46197 c 21.05865,0 38.1339,21.6258726 38.1339,48.2935976 V 219.35107 c 0,26.66772 -17.07525,48.2936 -38.1339,48.2936 H 155.54547 c -21.05865,0 -38.1339,-21.62588 -38.1339,-48.2936 V 57.422632 c 0,-26.667725 17.07525,-48.2935976 38.1339,-48.2935976 z"
     style="fill:url(#linear-gradient);stroke-width:0.890668" /><g
     style="fill:#000000"
     id="g1"
     transform="matrix(1.2213031,0,0,1.2213031,7.7119527,37.026441)"><g
       id="g4"
       transform="matrix(0.31181276,0,0,0.28581173,60.649073,9.7114273)"
       style="fill:#ffd42a">
	<g
   id="g3"
   style="fill:#ffd42a">
		<g
   id="g2"
   style="fill:#ffd42a">
			<path
   d="m 389.826,121.758 -128,-119.467 c -3.285,-3.055 -8.363,-3.055 -11.648,0 l -128,119.467 c -1.724,1.613 -2.714,3.874 -2.714,6.238 v 136.533 c 0,3.448 2.082,6.562 5.274,7.885 3.191,1.323 6.852,0.589 9.293,-1.852 L 255.998,148.595 377.965,270.562 c 1.638,1.63 3.823,2.5 6.033,2.5 1.101,0 2.21,-0.213 3.268,-0.648 3.192,-1.323 5.265,-4.437 5.265,-7.885 V 127.996 c 0,-2.364 -0.981,-4.625 -2.705,-6.238 z"
   id="path1"
   style="fill:#ffd42a" />
			<path
   d="m 261.826,241.225 c -3.285,-3.055 -8.363,-3.055 -11.648,0 l -128,119.467 c -1.724,1.613 -2.714,3.874 -2.714,6.238 v 136.533 c 0,3.447 2.082,6.562 5.274,7.885 3.191,1.314 6.852,0.597 9.293,-1.852 L 255.998,387.529 377.965,509.496 c 1.638,1.63 3.823,2.5 6.033,2.5 1.101,0 2.21,-0.213 3.268,-0.648 3.192,-1.323 5.265,-4.437 5.265,-7.885 V 366.929 c 0,-2.364 -0.981,-4.625 -2.705,-6.238 z"
   id="path2"
   style="fill:#ffd42a" />
		</g>
	</g>
</g></g><g
     style="fill:#000000"
     id="g19"
     transform="matrix(5.7342106,0,0,5.7342106,242.02689,47.762023)"><g
       id="g18">
	<path
   d="M 30.543,5.74 26.465,1.705 C 24.66,-0.072 21.729,-0.084 19.92,1.685 l -4.525,4.414 c -1.812,1.768 -1.82,4.648 -0.02,6.424 l 2.586,-2.484 C 17.699,9.248 18.022,8.342 18.662,7.715 l 2.879,-2.807 c 0.912,-0.885 2.375,-0.881 3.275,0.01 l 2.449,2.42 c 0.9,0.891 0.896,2.326 -0.01,3.213 l -2.879,2.809 c -0.609,0.594 -1.609,0.92 -2.385,0.711 l -2.533,2.486 c 1.803,1.781 4.732,1.789 6.545,0.02 l 4.52,-4.41 c 1.817,-1.771 1.823,-4.648 0.02,-6.427 z"
   id="path1-5"
   style="fill:#ffcc00" />
	<path
   d="m 13.975,21.894 c 0.215,0.773 -0.129,1.773 -0.752,2.381 l -2.689,2.627 C 9.612,27.802 8.12,27.797 7.202,26.89 L 4.704,24.429 C 3.788,23.523 3.794,22.05 4.716,21.154 l 2.691,-2.627 c 0.656,-0.637 1.598,-0.961 2.42,-0.689 l 2.594,-2.57 c -1.836,-1.811 -4.824,-1.82 -6.668,-0.02 l -4.363,4.26 c -1.846,1.803 -1.855,4.734 -0.02,6.549 l 4.154,4.107 c 1.834,1.809 4.82,1.818 6.668,0.018 l 4.363,-4.26 c 1.844,-1.805 1.852,-4.734 0.02,-6.547 z"
   id="path2-6"
   style="fill:#ff2a2a" />
	<path
   d="m 11.139,20.722 c 0.611,0.617 1.611,0.623 2.234,0.008 l 7.455,-7.416 c 0.621,-0.617 0.625,-1.615 0.008,-2.234 -0.613,-0.615 -1.611,-0.619 -2.23,-0.006 l -7.457,7.414 c -0.62,0.615 -0.624,1.613 -0.01,2.234 z"
   id="path3"
   style="fill:#ffd42a" />
	
	
	
	
	
	
	
	
	
	
	
	
	
	
	
</g></g></svg>
