<?xml version="1.0" encoding="UTF-8" standalone="no"?>
<!-- Uploaded to: SVG Repo, www.svgrepo.com, Generator: SVG Repo Mixer Tools -->

<svg
   width="500"
   height="500"
   viewBox="0 0 15 15"
   fill="none"
   version="1.1"
   id="svg1"
   xmlns="http://www.w3.org/2000/svg"
   xmlns:svg="http://www.w3.org/2000/svg">
  <defs
     id="defs1" />
  <path
     fill-rule="evenodd"
     clip-rule="evenodd"
     d="M 0,1.5 C 0,0.67157 0.67157,0 1.5,0 h 3 C 5.32843,0 6,0.67157 6,1.5 v 1 h 3 v -1 C 9,0.67157 9.6716,0 10.5,0 h 3 C 14.3284,0 15,0.67157 15,1.5 v 3 C 15,5.32843 14.3284,6 13.5,6 h -1 v 3 h 1 c 0.8284,0 1.5,0.6716 1.5,1.5 v 3 c 0,0.8284 -0.6716,1.5 -1.5,1.5 h -3 C 9.6716,15 9,14.3284 9,13.5 v -1 H 6 v 1 C 6,14.3284 5.32843,15 4.5,15 h -3 C 0.67157,15 0,14.3284 0,13.5 v -3 C 0,9.6716 0.67157,9 1.5,9 h 1 V 6 h -1 C 0.67157,6 0,5.32843 0,4.5 Z M 11.5,6 h -1 C 9.6716,6 9,5.32843 9,4.5 v -1 H 6 v 1 C 6,5.32843 5.32843,6 4.5,6 h -1 v 3 h 1 C 5.32843,9 6,9.6716 6,10.5 v 1 h 3 v -1 C 9,9.6716 9.6716,9 10.5,9 h 1 z M 1.5,1 C 1.22386,1 1,1.22386 1,1.5 v 3 C 1,4.77614 1.22386,5 1.5,5 h 3 C 4.77614,5 5,4.77614 5,4.5 v -3 C 5,1.22386 4.77614,1 4.5,1 Z M 1,10.5 C 1,10.2239 1.22386,10 1.5,10 h 3 C 4.77614,10 5,10.2239 5,10.5 v 3 C 5,13.7761 4.77614,14 4.5,14 h -3 C 1.22386,14 1,13.7761 1,13.5 Z m 9,0 C 10,10.2239 10.2239,10 10.5,10 h 3 c 0.2761,0 0.5,0.2239 0.5,0.5 v 3 c 0,0.2761 -0.2239,0.5 -0.5,0.5 h -3 C 10.2239,14 10,13.7761 10,13.5 Z m 0,-9 C 10,1.22386 10.2239,1 10.5,1 h 3 C 13.7761,1 14,1.22386 14,1.5 v 3 C 14,4.77614 13.7761,5 13.5,5 h -3 C 10.2239,5 10,4.77614 10,4.5 Z"
     fill="#47495f"
     id="path1" />
  <path
     style="fill:#ffcc00;stroke:none;stroke-width:0.03;stroke-dasharray:none;stroke-opacity:1"
     d="M 1.399842,13.979451 C 1.202514,13.936937 1.0542747,13.781939 1.0167369,13.578878 0.9966936,13.470455 0.9951213,10.552303 1.0150389,10.430673 1.0427232,10.261627 1.145091,10.125016 1.2976731,10.053494 l 0.081185,-0.03805 H 3.0035609 4.628264 l 0.067824,0.03161 c 0.094725,0.04415 0.1975455,0.145127 0.2467737,0.242339 l 0.041697,0.08234 v 1.624703 1.624703 l -0.038055,0.08118 c -0.071522,0.152583 -0.2081325,0.25495 -0.3771786,0.282635 -0.1286733,0.02107 -3.0698337,0.01596 -3.1694853,-0.0055 z"
     id="path2" />
  <path
     style="fill:#ffcc00;stroke:none;stroke-width:0.0285036;stroke-dasharray:none;stroke-opacity:1"
     d="M 1.3505388,4.9598445 C 1.2146406,4.9205973 1.072242,4.7640651 1.0338942,4.611771 0.9891843,4.4342121 0.9883662,1.5473286 1.0329792,1.3866285 1.0743939,1.2374523 1.2420987,1.0722735 1.3935453,1.031493 1.4772323,1.008958 1.9767204,1.00173 3.0599706,1.007376 c 1.7456367,0.0091 1.6898973,0.0021 1.841622,0.2313084 l 0.075841,0.1145733 0.00875,1.58406 c 0.00582,1.0540803 -0.00133,1.6185306 -0.021366,1.687089 C 4.9225293,4.7690814 4.8302799,4.876029 4.6946385,4.9376343 4.5858054,4.9870638 4.478307,4.9903104 3.0106878,4.9884897 2.1275001,4.9873947 1.4026233,4.9748868 1.3505379,4.9598445 Z"
     id="path3" />
  <path
     style="fill:#ffcc00;stroke:none;stroke-width:0.0142518;stroke-dasharray:none;stroke-opacity:1"
     d="M 10.351483,4.9682697 C 10.219024,4.9219002 10.121962,4.8360726 10.05562,4.7066508 L 10.01544,4.6282658 V 3.0035628 1.37886 l 0.03805,-0.081185 c 0.06964,-0.1485708 0.202775,-0.250878 0.367001,-0.2820228 0.108739,-0.0206217 3.045831,-0.0196719 3.158835,0.00102 0.213502,0.039097 0.367805,0.1966173 0.405081,0.4135272 0.01092,0.063541 0.01436,0.557715 0.01137,1.6303695 -0.004,1.4343741 -0.006,1.54356 -0.02959,1.6033254 -0.05795,0.146952 -0.182748,0.2632416 -0.329182,0.3067278 -0.109259,0.032447 -3.192428,0.030238 -3.28553,-0.00235 z"
     id="path4" />
  <path
     style="fill:#ffcc00;stroke:none;stroke-width:0.0142518;stroke-dasharray:none;stroke-opacity:1"
     d="m 10.417789,13.984028 c -0.154715,-0.02603 -0.295466,-0.134866 -0.364295,-0.281703 l -0.03805,-0.08118 v -1.624703 -1.624703 l 0.04085,-0.08061 c 0.05051,-0.09968 0.134322,-0.182955 0.237063,-0.235557 l 0.07839,-0.04013 h 1.624703 1.624703 l 0.08118,0.03805 c 0.152583,0.07152 0.25495,0.208133 0.282635,0.377179 0.01986,0.121287 0.01835,3.039536 -0.0016,3.148657 -0.03841,0.209725 -0.193887,0.365009 -0.404449,0.403933 -0.09934,0.01836 -3.05222,0.01908 -3.161089,7.65e-4 z"
     id="path5" />
</svg>
