<?xml version="1.0" encoding="UTF-8" standalone="no"?>
<!-- Uploaded to: SVG Repo, www.svgrepo.com, Generator: SVG Repo Mixer Tools -->

<svg
   width="666.66669"
   height="666.66669"
   viewBox="0 0 20.000001 20.000001"
   fill="none"
   version="1.1"
   id="svg1"
   sodipodi:docname="close.svg"
   inkscape:version="1.4.2 (ebf0e940d0, 2025-05-08)"
   xmlns:inkscape="http://www.inkscape.org/namespaces/inkscape"
   xmlns:sodipodi="http://sodipodi.sourceforge.net/DTD/sodipodi-0.dtd"
   xmlns="http://www.w3.org/2000/svg"
   xmlns:svg="http://www.w3.org/2000/svg">
  <defs
     id="defs1" />
  <sodipodi:namedview
     id="namedview1"
     pagecolor="#ffffff"
     bordercolor="#000000"
     borderopacity="0.25"
     inkscape:showpageshadow="2"
     inkscape:pageopacity="0.0"
     inkscape:pagecheckerboard="0"
     inkscape:deskcolor="#d1d1d1"
     inkscape:zoom="1.0525"
     inkscape:cx="333.49169"
     inkscape:cy="333.49169"
     inkscape:window-width="1883"
     inkscape:window-height="1055"
     inkscape:window-x="37"
     inkscape:window-y="0"
     inkscape:window-maximized="1"
     inkscape:current-layer="svg1" />
  <path
     fill-rule="evenodd"
     clip-rule="evenodd"
     d="M 10,20 C 5.28595,20 2.92893,20 1.46447,18.5355 0,17.0711 0,14.714 0,10 0,5.28595 0,2.92893 1.46447,1.46447 2.92893,0 5.28595,0 10,0 14.714,0 17.0711,0 18.5355,1.46447 20,2.92893 20,5.28595 20,10 c 0,4.714 0,7.0711 -1.4645,8.5355 C 17.0711,20 14.714,20 10,20 Z M 6.96965,6.96967 c 0.29289,-0.29289 0.76777,-0.29289 1.06065,0 L 10,8.9394 11.9696,6.96969 c 0.2929,-0.29289 0.7678,-0.29289 1.0607,0 0.2929,0.29289 0.2929,0.76777 0,1.06061 L 11.0606,10 l 1.9697,1.9697 c 0.2929,0.2928 0.2929,0.7677 0,1.0606 -0.2929,0.2929 -0.7678,0.2929 -1.0607,0 L 10,11.0607 8.0303,13.0303 c -0.29286,0.2929 -0.76774,0.2929 -1.06063,0 -0.29289,-0.2929 -0.29289,-0.7677 0,-1.0606 L 8.9393,10 6.96965,8.0303 c -0.29289,-0.29286 -0.29289,-0.76774 0,-1.06063 z"
     fill="#1c274c"
     id="path1"
     style="fill:#bc002a;fill-opacity:1" />
  <path
     style="fill:#f2f2f2;fill-opacity:1;stroke:none;stroke-width:1.90024;stroke-dasharray:none;stroke-opacity:1"
     d="m 239.89807,438.68112 c -8.70902,-4.16549 -13.99561,-12.25907 -14.095,-21.57898 -0.11036,-10.34759 -0.47869,-9.87658 37.71109,-48.22419 l 35.2519,-35.39759 -34.32085,-34.43614 c -23.21696,-23.29495 -35.01831,-35.81942 -36.47662,-38.71168 -4.36771,-8.66248 -2.30019,-20.29657 4.88359,-27.48036 7.18379,-7.18378 18.81788,-9.2513 27.48036,-4.88359 2.89226,1.45831 15.41673,13.25966 38.71168,36.47662 l 34.43614,34.32085 35.39759,-35.2519 c 38.34761,-38.18978 37.8766,-37.82145 48.22419,-37.71109 9.54937,0.10184 17.99299,5.81534 21.85237,14.78672 2.76101,6.41813 2.33335,15.79882 -0.97174,21.31512 -1.20386,2.00931 -17.39334,18.94113 -35.97658,37.62627 l -33.78774,33.97298 34.36936,34.43556 c 37.55798,37.63034 38.20914,38.46014 38.24643,48.73834 0.0494,13.62859 -10.48856,24.13532 -24.20716,24.13532 -10.20477,0 -11.06424,-0.6748 -48.68736,-38.22557 l -34.43556,-34.36936 -33.97298,33.78774 c -18.68514,18.58324 -35.62929,34.78033 -37.65366,35.99352 -5.62836,3.37301 -15.69919,3.68523 -21.97945,0.68141 z"
     id="path2"
     transform="scale(0.03)" />
</svg>
