<?xml version="1.0" encoding="UTF-8" standalone="no"?>
<svg
   width="160"
   height="130.9091"
   viewBox="0 0 43.999999 36"
   version="1.1"
   id="svg11"
   sodipodi:docname="code.svg"
   inkscape:version="1.4.2 (ebf0e940d0, 2025-05-08)"
   xmlns:inkscape="http://www.inkscape.org/namespaces/inkscape"
   xmlns:sodipodi="http://sodipodi.sourceforge.net/DTD/sodipodi-0.dtd"
   xmlns="http://www.w3.org/2000/svg"
   xmlns:svg="http://www.w3.org/2000/svg"
   xmlns:rdf="http://www.w3.org/1999/02/22-rdf-syntax-ns#"
   xmlns:cc="http://creativecommons.org/ns#"
   xmlns:dc="http://purl.org/dc/elements/1.1/">
  <defs
     id="defs15" />
  <sodipodi:namedview
     id="namedview13"
     pagecolor="#ffffff"
     bordercolor="#000000"
     borderopacity="0.25"
     inkscape:showpageshadow="2"
     inkscape:pageopacity="0.0"
     inkscape:pagecheckerboard="0"
     inkscape:deskcolor="#d1d1d1"
     showgrid="false"
     inkscape:zoom="2.0975"
     inkscape:cx="50.536353"
     inkscape:cy="155.89988"
     inkscape:window-width="1883"
     inkscape:window-height="1055"
     inkscape:window-x="37"
     inkscape:window-y="0"
     inkscape:window-maximized="1"
     inkscape:current-layer="svg11" />
  <title
     id="title2">code-programming-solid</title>
  <g
     id="Layer_2"
     data-name="Layer 2"
     style="fill:#00a900;fill-opacity:1"
     transform="matrix(0.62455306,0,0,0.62455306,15.270559,-3.7473184)">
    <g
       id="Q3_icons"
       data-name="Q3 icons"
       style="display:inline;fill:#00a900;fill-opacity:1">
      <path
         d="M 44,6 H 4 A 2,2 0 0 0 2,8 v 32 a 2,2 0 0 0 2,2 h 40 a 2,2 0 0 0 2,-2 V 8 A 2,2 0 0 0 44,6 Z M 18.3,27.5 A 2,2 0 0 1 17,31 1.9,1.9 0 0 1 15.7,30.5 l -6,-5 a 2,2 0 0 1 0,-3 l 6,-5 a 2,2 0 1 1 2.6,3 L 14,24 Z m 9.6,-12 -4,18 A 1.9,1.9 0 0 1 22,35 h -0.5 a 1.9,1.9 0 0 1 -1.4,-2.4 l 4,-18 a 2,2 0 1 1 3.8,1 z m 10.4,10 -6,5 A 1.9,1.9 0 0 1 31,31 2,2 0 0 1 29.7,27.5 L 34,24 29.7,20.5 a 2,2 0 0 1 2.6,-3 l 6,5 a 2,2 0 0 1 0,3 z"
         id="path7"
         style="fill:#00a900;fill-opacity:1" />
    </g>
  </g>
  <metadata
     id="metadata2989">
    <rdf:RDF>
      <cc:Work
         rdf:about="">
        <dc:title>code-programming-solid</dc:title>
      </cc:Work>
    </rdf:RDF>
  </metadata>
  <path
     style="fill:#f9f9f9;fill-opacity:1;stroke:none;stroke-width:0.586388;stroke-miterlimit:0"
     d="m 25.577268,15.55472 c -0.08941,-0.02533 -0.218039,-0.0809 -0.285851,-0.123487 -0.06781,-0.04259 -1.014355,-0.821707 -2.103431,-1.731377 -1.881023,-1.571157 -1.986547,-1.665572 -2.108146,-1.8862 -0.121573,-0.220581 -0.128007,-0.249314 -0.128007,-0.571701 0,-0.32248 0.0064,-0.351056 0.128119,-0.571701 0.121502,-0.220259 0.233137,-0.320367 2.161742,-1.9385294 2.284357,-1.9166503 2.308653,-1.9336125 2.769578,-1.9336125 0.238078,0 0.307324,0.015632 0.508906,0.1148684 0.288499,0.1420271 0.527035,0.3973831 0.632576,0.6771791 0.116824,0.3097096 0.08891,0.6985264 -0.07179,1.0000063 -0.06584,0.1235178 -0.170769,0.2682299 -0.233176,0.3215817 -0.0624,0.053349 -0.727147,0.5946863 -1.4772,1.2029664 -0.750052,0.60828 -1.363732,1.115438 -1.363732,1.127018 0,0.01158 0.49399,0.422364 1.097756,0.912853 1.709712,1.388944 1.713473,1.392224 1.829655,1.595651 0.157739,0.276191 0.204851,0.595656 0.130589,0.885527 -0.140696,0.549189 -0.558098,0.90889 -1.100774,0.948602 -0.127827,0.0094 -0.294159,-0.0034 -0.386816,-0.02965 z"
     id="path8738" />
  <path
     style="fill:#f9f9f9;fill-opacity:1;stroke:none;stroke-width:0.586388;stroke-miterlimit:0"
     d="m 28.447164,17.995885 c -0.2453,-0.124283 -0.428985,-0.314454 -0.547728,-0.56707 -0.16884,-0.359192 -0.225402,-0.05245 1.177075,-6.383382 0.709621,-3.2033099 1.317865,-5.912634 1.351654,-6.0207213 0.08596,-0.2749883 0.408415,-0.599813 0.707084,-0.7122835 0.297717,-0.1121119 0.702941,-0.092834 0.974905,0.046379 0.243635,0.1247123 0.45917,0.3471733 0.575934,0.594442 0.0773,0.1636877 0.09277,0.2472661 0.09262,0.5002378 -1.5e-4,0.2108777 -0.01855,0.3419435 -0.06029,0.4287756 -0.03306,0.068782 -0.616326,2.6333951 -1.296154,5.6991394 -0.679828,3.065744 -1.261037,5.650642 -1.291576,5.744216 -0.07429,0.227623 -0.357156,0.5328 -0.607283,0.655177 -0.156862,0.07674 -0.262059,0.09918 -0.524895,0.111934 -0.313365,0.01521 -0.339112,0.01069 -0.551342,-0.09684 z"
     id="path8740" />
  <path
     style="fill:#f9f9f9;fill-opacity:1;stroke:none;stroke-width:0.586388;stroke-miterlimit:0"
     d="m 34.358836,15.564355 c -0.728163,-0.183244 -1.137708,-0.997764 -0.842862,-1.676318 0.03795,-0.08735 0.106499,-0.207972 0.152317,-0.268042 0.04582,-0.06007 0.704578,-0.615094 1.463911,-1.233386 0.759332,-0.618291 1.380605,-1.133386 1.380605,-1.144654 0,-0.01127 -0.619153,-0.524637 -1.375897,-1.14082 C 33.785029,9.0003567 33.758998,8.9767086 33.645594,8.7463541 33.544721,8.5414507 33.530118,8.4756709 33.529711,8.2243589 c -3.82e-4,-0.2366513 0.0162,-0.3230907 0.09369,-0.488358 0.127814,-0.2725874 0.307746,-0.4619982 0.575149,-0.6054467 0.202961,-0.1088784 0.252471,-0.120274 0.527691,-0.1214538 0.215136,-9.368e-4 0.35266,0.018137 0.471533,0.065354 0.11744,0.046648 0.760494,0.5615019 2.142159,1.7151014 1.882075,1.5714082 1.980268,1.6592992 2.10112,1.8806982 0.12002,0.219875 0.126777,0.250345 0.126777,0.571701 0,0.321355 -0.0068,0.351827 -0.126776,0.571701 -0.120844,0.221388 -0.220307,0.310424 -2.126011,1.90317 -1.133263,0.947157 -2.077373,1.709694 -2.179629,1.760439 -0.204061,0.101266 -0.561128,0.141309 -0.77658,0.08709 z"
     id="path8742" />
</svg>
