<?xml version="1.0" encoding="UTF-8" standalone="no"?>
<!-- Uploaded to: SVG Repo, www.svgrepo.com, Generator: SVG Repo Mixer Tools -->

<svg
   width="733.33331"
   height="600"
   viewBox="0 0 43.999999 36"
   version="1.1"
   id="svg11"
   sodipodi:docname="code.svg"
   inkscape:version="1.2.2 (b0a8486541, 2022-12-01)"
   xmlns:inkscape="http://www.inkscape.org/namespaces/inkscape"
   xmlns:sodipodi="http://sodipodi.sourceforge.net/DTD/sodipodi-0.dtd"
   xmlns="http://www.w3.org/2000/svg"
   xmlns:svg="http://www.w3.org/2000/svg"
   xmlns:rdf="http://www.w3.org/1999/02/22-rdf-syntax-ns#"
   xmlns:cc="http://creativecommons.org/ns#"
   xmlns:dc="http://purl.org/dc/elements/1.1/">
  <defs
     id="defs15" />
  <sodipodi:namedview
     id="namedview13"
     pagecolor="#ffffff"
     bordercolor="#000000"
     borderopacity="0.25"
     inkscape:showpageshadow="2"
     inkscape:pageopacity="0.0"
     inkscape:pagecheckerboard="0"
     inkscape:deskcolor="#d1d1d1"
     showgrid="false"
     inkscape:zoom="0.524375"
     inkscape:cx="125.86412"
     inkscape:cy="441.47795"
     inkscape:window-width="1920"
     inkscape:window-height="1020"
     inkscape:window-x="0"
     inkscape:window-y="32"
     inkscape:window-maximized="1"
     inkscape:current-layer="svg11" />
  <title
     id="title2">code-programming-solid</title>
  <g
     id="Layer_2"
     data-name="Layer 2"
     style="fill:#00a900;fill-opacity:1"
     transform="translate(-2,-6)">
    <g
       id="Q3_icons"
       data-name="Q3 icons"
       style="display:inline;fill:#00a900;fill-opacity:1">
      <path
         d="M 44,6 H 4 A 2,2 0 0 0 2,8 v 32 a 2,2 0 0 0 2,2 h 40 a 2,2 0 0 0 2,-2 V 8 A 2,2 0 0 0 44,6 Z M 18.3,27.5 A 2,2 0 0 1 17,31 1.9,1.9 0 0 1 15.7,30.5 l -6,-5 a 2,2 0 0 1 0,-3 l 6,-5 a 2,2 0 1 1 2.6,3 L 14,24 Z m 9.6,-12 -4,18 A 1.9,1.9 0 0 1 22,35 h -0.5 a 1.9,1.9 0 0 1 -1.4,-2.4 l 4,-18 a 2,2 0 1 1 3.8,1 z m 10.4,10 -6,5 A 1.9,1.9 0 0 1 31,31 2,2 0 0 1 29.7,27.5 L 34,24 29.7,20.5 a 2,2 0 0 1 2.6,-3 l 6,5 a 2,2 0 0 1 0,3 z"
         id="path7"
         style="fill:#00a900;fill-opacity:1" />
    </g>
  </g>
  <metadata
     id="metadata2989">
    <rdf:RDF>
      <cc:Work
         rdf:about="">
        <dc:title>code-programming-solid</dc:title>
      </cc:Work>
    </rdf:RDF>
  </metadata>
  <path
     style="fill:#f9f9f9;fill-opacity:1;stroke:none;stroke-width:0.938892;stroke-miterlimit:0"
     d="M 14.502535,24.905362 C 14.359382,24.864804 14.153423,24.77583 14.044847,24.707642 13.936272,24.639454 12.420717,23.39197 10.676948,21.935455 7.6651582,19.419805 7.4961982,19.268633 7.3015006,18.915376 7.1068444,18.562194 7.0965436,18.516188 7.0965436,18 c 0,-0.516338 0.010253,-0.562092 0.2051364,-0.915376 0.1945428,-0.352667 0.373287,-0.512955 3.461263,-3.103867 3.657586,-3.068835 3.696488,-3.095994 4.434495,-3.095994 0.381198,0 0.49207,0.02503 0.814833,0.183921 0.461928,0.227406 0.843859,0.636268 1.012846,1.084262 0.187052,0.49589 0.142361,1.118442 -0.114944,1.601155 -0.105419,0.19777 -0.273426,0.429475 -0.373348,0.514899 -0.09992,0.08542 -1.164267,0.952179 -2.365211,1.926123 -1.200943,0.973945 -2.183533,1.785979 -2.183533,1.804519 0,0.01854 0.79095,0.676266 1.757666,1.461611 2.737497,2.223901 2.743519,2.229153 2.929543,2.554869 0.252564,0.442222 0.327996,0.953731 0.209093,1.417857 -0.225275,0.87933 -0.893597,1.455264 -1.762499,1.518849 -0.20467,0.01498 -0.470991,-0.0054 -0.619349,-0.04747 z"
     id="path8738" />
  <path
     style="fill:#f9f9f9;fill-opacity:1;stroke:none;stroke-width:0.938892;stroke-miterlimit:0"
     d="m 19.097655,28.814021 c -0.392761,-0.198995 -0.686867,-0.503487 -0.876993,-0.907961 -0.270337,-0.575118 -0.360901,-0.08398 1.884668,-10.22072 1.136206,-5.128964 2.110094,-9.4669846 2.164194,-9.640048 0.137637,-0.4402962 0.653932,-0.9603876 1.132144,-1.1404692 0.476689,-0.1795074 1.125511,-0.148641 1.560965,0.07426 0.390095,0.1996824 0.735197,0.5558748 0.922153,0.9517878 0.123762,0.2620878 0.148537,0.3959088 0.148291,0.8009532 -2.4e-4,0.3376458 -0.02971,0.5475012 -0.09653,0.686532 -0.05293,0.1101306 -0.986828,4.2164472 -2.075331,9.1251482 -1.088503,4.908701 -2.019103,9.047496 -2.068,9.197323 -0.118944,0.364457 -0.571858,0.85309 -0.972348,1.049032 -0.251159,0.122881 -0.419595,0.158799 -0.840433,0.179223 -0.501743,0.02435 -0.542968,0.01711 -0.882779,-0.155061 z"
     id="path8740" />
  <path
     style="fill:#f9f9f9;fill-opacity:1;stroke:none;stroke-width:0.938892;stroke-miterlimit:0"
     d="m 28.563099,24.920789 c -1.165895,-0.293401 -1.821636,-1.597565 -1.349545,-2.684028 0.06077,-0.139865 0.170521,-0.332993 0.243882,-0.429174 0.07336,-0.09618 1.128132,-0.984855 2.343934,-1.97483 1.215801,-0.989974 2.210549,-1.814716 2.210549,-1.832757 0,-0.01804 -0.991355,-0.84002 -2.203011,-1.826619 -2.164558,-1.762505 -2.206237,-1.800369 -2.387813,-2.1692 -0.161512,-0.32808 -0.184894,-0.433403 -0.185546,-0.83579 -6.12e-4,-0.378913 0.02594,-0.517315 0.150014,-0.781932 0.204649,-0.436452 0.492746,-0.739726 0.920897,-0.969408 0.324971,-0.17433 0.404243,-0.192576 0.844911,-0.194465 0.344464,-0.0015 0.56466,0.02904 0.754992,0.104641 0.188039,0.07469 1.217661,0.899046 3.429908,2.746126 3.013475,2.516053 3.170695,2.656779 3.364197,3.011271 0.19217,0.352052 0.202988,0.400839 0.202988,0.915376 0,0.514535 -0.01082,0.563326 -0.202986,0.915376 -0.193489,0.354474 -0.352743,0.497034 -3.404052,3.047251 -1.814518,1.516536 -3.326176,2.737468 -3.489902,2.818718 -0.326732,0.162141 -0.898447,0.226257 -1.243417,0.139444 z"
     id="path8742" />
</svg>
