<?xml version="1.0" encoding="UTF-8" standalone="no"?>
<svg
   version="1.0"
   width="799.000000pt"
   height="732.614508pt"
   viewBox="0 0 799.000000 732.614508"
   preserveAspectRatio="xMidYMid meet"
   id="svg16"
   sodipodi:docname="contact.svg"
   inkscape:version="1.2.2 (b0a8486541, 2022-12-01)"
   xmlns:inkscape="http://www.inkscape.org/namespaces/inkscape"
   xmlns:sodipodi="http://sodipodi.sourceforge.net/DTD/sodipodi-0.dtd"
   xmlns="http://www.w3.org/2000/svg"
   xmlns:svg="http://www.w3.org/2000/svg">
  <defs
     id="defs20" />
  <sodipodi:namedview
     id="namedview18"
     pagecolor="#ffffff"
     bordercolor="#000000"
     borderopacity="0.25"
     inkscape:showpageshadow="2"
     inkscape:pageopacity="0.0"
     inkscape:pagecheckerboard="0"
     inkscape:deskcolor="#d1d1d1"
     inkscape:document-units="pt"
     showgrid="false"
     inkscape:zoom="0.85891011"
     inkscape:cx="453.48168"
     inkscape:cy="489.57393"
     inkscape:window-width="1920"
     inkscape:window-height="1020"
     inkscape:window-x="0"
     inkscape:window-y="32"
     inkscape:window-maximized="1"
     inkscape:current-layer="svg16" />
  <metadata
     id="metadata2"> Created by potrace 1.16, written by Peter Selinger 2001-2019 </metadata>
  <g
     transform="translate(-31.000000,787.614508) scale(0.100000,-0.100000)"
     fill="#000000"
     stroke="none"
     id="g14"
     style="fill:#ffcc00">
    <path
       d="M4213 7868 c-18 -6 -272 -188 -565 -404 l-533 -393 -546 -1 c-519 0 -550 -1 -612 -20 -87 -27 -173 -92 -225 -170 -73 -109 -75 -120 -80 -527 l-4 -362 -634 -467 c-479 -353 -631 -470 -620 -476 9 -5 345 -252 748 -549 l733 -540 5 1368 5 1368 28 47 c18 31 44 57 75 75 l47 28 2250 0 c1238 0 2267 -4 2288 -8 22 -5 56 -24 79 -45 79 -71 72 52 78 -1469 l5 -1362 740 545 c407 300 741 549 743 553 1 5 -10 16 -25 26 -45 29 -1196 876 -1220 898 l-23 20 0 353 c0 313 -2 359 -18 411 -37 118 -111 202 -230 261 l-76 37 -565 3 -566 3 -526 387 c-290 213 -539 394 -555 401 -38 18 -160 23 -201 9z"
       id="path4"
       style="fill:#ffcc00" />
    <path
       d="M4240 5869 c-315 -19 -575 -132 -780 -339 -174 -175 -298 -407 -362 -679 -29 -128 -36 -407 -13 -538 67 -376 257 -638 580 -800 332 -167 871 -200 1235 -76 176 60 343 164 475 297 87 88 169 204 163 233 -3 16 -17 18 -133 21 l-130 3 -53 -61 c-144 -163 -370 -276 -618 -310 -121 -16 -431 -8 -534 15 -41 9 -118 31 -172 49 -363 123 -565 404 -585 813 -22 444 189 841 542 1020 154 79 304 113 490 113 520 0 887 -320 887 -775 0 -137 -23 -230 -89 -358 -102 -198 -345 -374 -417 -301 -9 8 -16 27 -16 40 0 14 38 204 85 422 153 711 139 634 119 649 -20 14 -230 19 -251 5 -7 -4 -19 -36 -27 -71 -8 -35 -16 -65 -18 -67 -3 -2 -27 18 -55 44 -161 152 -359 173 -574 61 -189 -98 -341 -309 -411 -567 -27 -102 -29 -288 -4 -382 73 -271 267 -433 500 -417 66 4 93 12 161 46 44 22 102 59 128 82 27 23 49 40 50 38 1 -2 13 -26 27 -53 44 -88 129 -122 283 -113 103 5 190 33 283 88 73 44 210 172 274 258 298 396 258 948 -94 1303 -223 226 -550 332 -946 307z m93 -773 c70 -21 122 -67 159 -144 32 -65 33 -70 32 -192 0 -115 -3 -133 -34 -225 -57 -168 -153 -289 -279 -351 -172 -84 -330 20 -361 238 -26 182 60 447 188 581 88 91 192 124 295 93z"
       id="path6"
       style="fill:#ffcc00" />
    <path
       d="M310 2834 c0 -1652 3 -2064 13 -2057 6 6 307 230 667 498 360 268 790 588 955 711 165 123 476 355 690 515 215 160 391 293 392 297 1 4 -49 46 -110 93 -146 111 -2292 1772 -2464 1906 -73 57 -135 103 -138 103 -3 0 -5 -930 -5 -2066z"
       id="path8"
       style="fill:#ffcc00" />
    <path
       d="M7350 4174 c-1014 -786 -1406 -1090 -1627 -1260 -78 -60 -142 -112 -143 -115 0 -3 253 -194 563 -425 309 -230 906 -675 1327 -989 421 -314 780 -581 798 -593 l32 -23 0 2065 c0 1136 -3 2066 -7 2065 -5 0 -429 -326 -943 -725z"
       id="path10"
       style="fill:#ffcc00" />
    <path
       d="M2838 2417 c-630 -472 -2321 -1732 -2385 -1777 -34 -25 -63 -49 -63 -53 0 -4 16 -15 35 -23 30 -12 544 -14 3878 -14 3476 0 3848 2 3882 16 37 15 37 16 19 33 -54 51 -2778 2072 -2789 2069 -13 -3 -193 -141 -714 -547 -130 -100 -256 -192 -281 -204 -66 -31 -170 -29 -236 3 -27 14 -259 188 -517 388 -257 199 -473 362 -480 361 -6 0 -163 -114 -349 -252z"
       id="path12"
       style="fill:#ffcc00" />
  </g>
</svg>
