<?xml version="1.0" encoding="UTF-8" standalone="no"?>
<!-- Uploaded to: SVG Repo, www.svgrepo.com, Generator: SVG Repo Mixer Tools -->

<svg
   height="583.99677"
   width="800"
   version="1.1"
   id="Capa_1"
   viewBox="0 0 34.418 25.125001"
   xml:space="preserve"
   sodipodi:docname="desktop.svg"
   inkscape:version="1.2.2 (b0a8486541, 2022-12-01)"
   xmlns:inkscape="http://www.inkscape.org/namespaces/inkscape"
   xmlns:sodipodi="http://sodipodi.sourceforge.net/DTD/sodipodi-0.dtd"
   xmlns="http://www.w3.org/2000/svg"
   xmlns:svg="http://www.w3.org/2000/svg"><defs
   id="defs1066" /><sodipodi:namedview
   id="namedview1064"
   pagecolor="#ffffff"
   bordercolor="#000000"
   borderopacity="0.25"
   inkscape:showpageshadow="2"
   inkscape:pageopacity="0.0"
   inkscape:pagecheckerboard="0"
   inkscape:deskcolor="#d1d1d1"
   showgrid="false"
   inkscape:zoom="1.085"
   inkscape:cx="400"
   inkscape:cy="292.1659"
   inkscape:window-width="1880"
   inkscape:window-height="1056"
   inkscape:window-x="40"
   inkscape:window-y="0"
   inkscape:window-maximized="1"
   inkscape:current-layer="Capa_1" />
<g
   id="g1061"
   transform="translate(0,-4.647)"
   style="fill:#ffcc00">
	<path
   style="fill:#ffcc00"
   d="m 32.335,11.606 h -6.533 v -1.009 h 6.533 z m 0,0.658 h -6.533 v 1.011 h 6.533 z M 32.331,7.687 H 25.808 V 9.91 h 6.523 z m 2.087,-2.39 v 23.827 c -10e-4,0.357 -0.292,0.648 -0.65,0.648 h -9.397 c -0.359,0 -0.649,-0.291 -0.649,-0.649 V 5.297 c 0,-0.358 0.29,-0.65 0.649,-0.65 h 9.397 c 0.359,0 0.65,0.292 0.65,0.65 z m -1.299,0.647 h -8.1 v 22.53 h 8.1 z m -0.784,7.988 h -6.533 v 1.008 h 6.533 z m -1.063,7.518 c 0,1.162 -0.939,2.099 -2.097,2.099 -1.16,0 -2.099,-0.938 -2.099,-2.099 0,-1.158 0.94,-2.098 2.099,-2.098 1.158,0 2.097,0.941 2.097,2.098 z m -0.757,0 c 0,-0.739 -0.6,-1.341 -1.341,-1.341 -0.742,0 -1.342,0.601 -1.342,1.341 0,0.74 0.6,1.34 1.342,1.34 0.741,0 1.341,-0.6 1.341,-1.34 z M 21.937,9.218 v 13.505 c 0,0.814 -0.655,1.473 -1.461,1.473 H 13.18 c 0,0 -0.414,2.948 2.212,2.948 v 1.475 H 13.18 8.758 6.546 v -1.473 c 2.529,0 2.212,-2.948 2.212,-2.948 H 1.465 C 0.656,24.198 0,23.539 0,22.725 V 9.218 C 0,8.404 0.656,7.748 1.465,7.748 h 19.01 c 0.807,0 1.462,0.656 1.462,1.47 z m -9.605,13.176 c 0,-0.698 -0.566,-1.263 -1.264,-1.263 -0.699,0 -1.266,0.565 -1.266,1.263 0,0.698 0.566,1.265 1.266,1.265 0.699,0 1.264,-0.567 1.264,-1.265 z M 20.371,9.311 H 1.568 v 11.387 h 18.802 10e-4 c 0,0 0,-11.387 0,-11.387 z m -9.29,12.292 c -0.434,0 -0.785,0.352 -0.785,0.785 0,0.433 0.352,0.785 0.785,0.785 0.433,0 0.785,-0.352 0.785,-0.785 0,-0.433 -0.351,-0.785 -0.785,-0.785 z"
   id="path1059" />
</g>
</svg>
