<?xml version="1.0" encoding="UTF-8" standalone="no"?>
<!-- Uploaded to: SVG Repo, www.svgrepo.com, Generator: SVG Repo Mixer Tools -->

<svg
   fill="#000000"
   height="800px"
   width="800px"
   version="1.1"
   id="Capa_1"
   viewBox="0 0 81.159 81.159"
   xml:space="preserve"
   xmlns="http://www.w3.org/2000/svg"
   xmlns:svg="http://www.w3.org/2000/svg"><defs
   id="defs3535"><style
     id="style3537">.cls-1{fill:#eab300;}.cls-2{fill:#fff;}</style></defs>

<g
   id="g3598"
   transform="matrix(0.04009638,0,0,0.04009638,0.40196649,20.279691)"><path
     class="cls-1"
     d="m 1932,247.35 q -10.63,-20.34 -21.6,-47.61 -10.97,-27.27 -20.76,-59.41 h 32.85 q 2.08,7.93 4.91,17.19 2.83,9.26 5.84,18.72 3,9.47 6.06,18.41 3.06,8.94 6,16.28 2.71,-7.34 5.84,-16.28 3.13,-8.94 6.16,-18.41 3,-9.47 5.85,-18.72 2.85,-9.25 4.9,-17.19 h 32 q -9.8,32.14 -20.75,59.41 -10.95,27.27 -21.57,47.61 z"
     id="path3543" /><path
     class="cls-1"
     d="m 1883.69,206.35 a 23.69,23.69 0 0 0 -5.41,-9.24 40.07,40.07 0 0 0 -10.49,-7.75 128.35,128.35 0 0 0 -16.84,-7.28 q -5,-1.85 -8.21,-3.39 a 34.52,34.52 0 0 1 -5.1,-2.86 7,7 0 0 1 -2.49,-2.75 7.92,7.92 0 0 1 -0.62,-3.25 q 0,-7.94 14.55,-7.94 a 65.18,65.18 0 0 1 14.24,1.43 118.86,118.86 0 0 1 11.74,3.25 l 5.42,2.06 V 143 a 91.35,91.35 0 0 0 -14.55,-3.76 103.12,103.12 0 0 0 -19.13,-1.73 q -19.95,0 -31.39,8.75 -11.44,8.75 -11.41,23.74 a 34.45,34.45 0 0 0 2.28,13.23 27.72,27.72 0 0 0 6.45,9.46 38.67,38.67 0 0 0 10.08,6.81 140.51,140.51 0 0 0 13.19,5.5 88.31,88.31 0 0 1 13.93,6.2 q 4.58,2.75 4.57,6.41 c 0,3.12 -1.18,5.23 -3.53,6.31 -2.35,1.08 -6.38,1.63 -12.06,1.63 a 80.69,80.69 0 0 1 -16.42,-1.73 103.17,103.17 0 0 1 -16.2,-4.78 v 26.44 c 2.23,0.68 5,1.43 8.19,2.24 q 9.68,2.44 24.22,2.45 22.24,0 34.41,-8.13 12.17,-8.13 12.16,-23.95 a 40.14,40.14 0 0 0 -1.58,-11.74 z"
     id="path3545" /><polygon
     class="cls-2"
     points="663.78,140.55 663.78,306.7 783.68,306.7 783.68,268.44 707.87,268.44 707.87,140.55 "
     id="polygon3547" /><polygon
     class="cls-2"
     points="848.96,270.85 848.96,240.58 915.08,240.58 915.08,205.79 804.87,205.74 804.87,306.7 926.94,306.7 926.94,270.85 "
     id="polygon3549" /><polygon
     class="cls-2"
     points="804.87,176.12 926.95,176.02 926.95,140.55 804.87,140.55 "
     id="polygon3551" /><polygon
     class="cls-2"
     points="564.88,270.85 564.88,240.58 631,240.58 631,205.79 520.79,205.74 520.79,306.7 642.87,306.7 642.87,270.85 "
     id="polygon3553" /><polygon
     class="cls-2"
     points="520.79,176.12 642.87,176.02 642.87,140.55 520.79,140.55 "
     id="polygon3555" /><path
     class="cls-2"
     d="m 1021,176.64 c 22.53,0 32.46,14 34.88,27.61 H 1099 c -3.64,-36.33 -27.13,-65.87 -79.21,-65.87 -47,0 -80.9,34.14 -80.9,85 0,49.9 33.92,85 80.9,85 52.56,0 75.33,-30.27 79.21,-65.89 h -43.12 c -2.17,14.3 -11.14,27.63 -34.63,27.63 -21.56,0 -37.54,-17.69 -37.79,-46.76 -0.27,-28.79 15.96,-46.72 37.54,-46.72 z"
     id="path3557" /><polygon
     class="cls-2"
     points="1104.81,140.55 1104.81,176.88 1155.68,176.88 1155.68,306.7 1199.76,306.7 1199.76,176.88 1250.86,176.88 1250.86,140.55 "
     id="polygon3559" /><path
     class="cls-2"
     d="m 1533.11,239.14 c 0,20.33 -10.17,31.24 -29.06,31.24 -19.13,0 -29.3,-10.91 -29.3,-31.24 v -98.59 h -44.09 l -0.24,98.59 c 0,43.11 27.61,69.26 73.63,69.26 45.29,0 73.14,-26.15 73.14,-69.26 v -98.59 h -44.08 z"
     id="path3561" /><polygon
     class="cls-2"
     points="1704.83,306.7 1742.37,194.81 1742.37,306.7 1784.75,306.7 1784.99,140.55 1729.53,140.55 1691.51,256.57 1653.48,140.55 1598.01,140.55 1598.26,306.7 1640.64,306.7 1640.64,194.81 1678.18,306.7 "
     id="polygon3563" /><path
     class="cls-2"
     d="m 1416.5,272.77 c -2.43,0.73 -8.44,0.7 -11.92,-1.52 -6.37,-4.05 -8,-9 -11.42,-15.56 L 1382,233.33 c 18.69,-2.62 27.23,-16 27.23,-37.63 0,-35.25 -23.33,-55.43 -66.12,-55.43 h -71 v 35.81 h 72 c 5.5,0 10.57,1 13,2.34 a 18,18 0 0 1 1.94,1.13 14.26,14.26 0 0 1 1.27,1 12.68,12.68 0 0 1 2.21,2.7 13.35,13.35 0 0 1 2.17,7.81 c 0,8.16 -4.91,12.38 -12.56,14 -4.15,0.9 -14,0.65 -16,0.63 h -64 v 101.36 h 44.25 v -65 H 1338 l 15.32,30.14 c 8.26,16.3 18.23,36 44.73,36 a 65.56,65.56 0 0 0 20.66,-2.91 z"
     id="path3565" /><path
     class="cls-1"
     d="m 87.09,235.31 c 5.28,67 59.58,121.35 126.61,126.64 A 138.35,138.35 0 0 0 362.79,212.87 136.07,136.07 0 0 0 350,165.16 c -0.29,0 -0.57,0.05 -0.86,0.05 A 99.48,99.48 0 0 1 252.52,88.67 135.57,135.57 0 0 0 236.17,86.25 138.32,138.32 0 0 0 87.09,235.31 Z M 248,166 c 11.54,1.13 30.51,10.08 30.51,29.15 0,12 -5.66,18.37 -13.9,24 7.74,2.79 22.29,12.61 22,29.61 -0.29,20.74 -19.16,33.56 -40.81,33.56 h -1.38 v 18.27 H 225.65 V 282.22 H 213.1 v 18.34 H 194 v -18.32 h -23 l 3.69,-18.3 c 0,0 4.28,0.09 7.16,0 a 4.65,4.65 0 0 0 4.25,-4.5 v -70.67 c 0,-2.78 -2.85,-6.79 -9.19,-6.78 -1.47,0 -6.58,0 -6.58,0 v -16.17 c 0,0 20.23,0 23.61,-0.06 v -18.08 h 19.19 v 18.17 h 12.58 l -0.05,-18.25 h 18.78 v 18.24 c 0,0 2.56,0.04 3.56,0.16 z"
     id="path3567" /><path
     class="cls-2"
     d="m 225.63,147.63 0.05,18.25 H 213.1 v -18.17 h -19.16 v 18.08 c -3.38,0.08 -23.61,0.06 -23.61,0.06 V 182 c 0,0 5.11,0 6.58,0 6.34,0 9.19,4 9.19,6.78 v 70.64 a 4.65,4.65 0 0 1 -4.25,4.5 c -2.88,0.13 -7.16,0 -7.16,0 L 171,282.25 h 23 v 18.32 h 19.14 v -18.34 h 12.58 v 18.37 h 18.76 v -18.25 h 1.38 c 21.65,0 40.52,-12.82 40.81,-33.56 0.25,-17 -14.3,-26.82 -22,-29.61 8.24,-5.65 13.9,-12 13.9,-24 0,-19.07 -19,-28 -30.51,-29.15 -0.94,-0.1 -3.57,-0.15 -3.57,-0.15 v -18.24 z"
     id="path3569" /><path
     class="cls-1"
     d="m 235.91,230.08 h -22.82 v 33.8 c 0.29,0 22.86,0 22.93,0 6.27,-0.31 10.62,-2 13.72,-4.2 a 13.07,13.07 0 0 0 3.17,-3 15.32,15.32 0 0 0 2.55,-4.61 20,20 0 0 0 1,-6 14.54,14.54 0 0 0 -2.73,-8.17 c -2.78,-4 -8,-7.27 -16.27,-7.68 -0.46,-0.03 -0.98,-0.14 -1.55,-0.14 z"
     id="path3571" /><path
     class="cls-1"
     d="m 230.78,183.26 c -5.65,0 -15.12,0 -17.69,0 v 31.29 c 0.27,0 17.72,0 17.8,0 5.8,-0.28 9.82,-1.86 12.69,-3.88 a 12.19,12.19 0 0 0 2.93,-2.76 14,14 0 0 0 2.36,-4.27 18.35,18.35 0 0 0 1,-5.52 13.52,13.52 0 0 0 -2.52,-7.56 c -2.57,-3.67 -7.36,-6.73 -15.06,-7.1 -0.55,-0.11 -0.98,-0.2 -1.51,-0.2 z"
     id="path3573" /><path
     class="cls-2"
     d="M 447,205.67 A 220.08,220.08 0 0 0 426.27,128.41 225.22,225.22 0 0 0 403.27,90.55 59.29,59.29 0 0 0 313,18.76 220.5,220.5 0 0 0 270.65,5.12 218.58,218.58 0 0 0 242,0.72 Q 232.83,0 223.84,0 C 94.23,0 -9.67,110.18 0.72,242 9.26,350.5 97.16,438.42 205.66,447 q 9.18,0.72 18.18,0.71 C 353.46,447.68 457.37,337.48 447,205.67 Z M 349.08,37.87 A 27.94,27.94 0 1 1 321.14,65.81 27.94,27.94 0 0 1 349.08,37.87 Z M 223.84,412.51 c -5.08,0 -10.17,-0.2 -15.32,-0.6 C 117.06,404.69 43,330.59 35.78,239.14 27,128 114.6,35.17 223.84,35.17 q 7.59,0 15.32,0.61 c 5,0.39 9.88,1.07 14.75,1.85 a 185,185 0 0 1 38.57,10.62 59,59 0 0 0 -3,17.59 59.67,59.67 0 0 0 59.61,59.6 58.89,58.89 0 0 0 30,-8.39 188.51,188.51 0 0 1 19,35.11 184.78,184.78 0 0 1 13.74,56.37 c 8.85,111.09 -78.74,203.98 -187.99,203.98 z"
     id="path3575" /></g><path
   style="fill:#eab300;fill-opacity:1;stroke-width:0.187003"
   d="m 41.941887,62.478064 c -1.223856,-0.572172 -3.291338,-2.748432 -3.604707,-3.794368 -0.125862,-0.420089 -0.228018,-1.174792 -0.227014,-1.677115 0.0033,-1.667073 0.558498,-2.449633 4.560216,-6.428085 2.016332,-2.004611 3.666059,-3.697362 3.666059,-3.76167 0,-0.06431 -0.568019,-0.1604 -1.262266,-0.213538 -2.022536,-0.154807 -3.309073,-0.748512 -4.725207,-2.180565 -2.280761,-2.306399 -3.103374,-5.128943 -2.227259,-7.642164 0.105339,-0.302179 0.394063,-0.657811 0.641607,-0.790292 0.547221,-0.292864 0.787254,-0.155583 3.044246,1.741089 l 1.548696,1.301453 1.190067,-0.09553 c 0.654538,-0.05254 1.283003,-0.152964 1.39659,-0.223166 0.115391,-0.07131 0.204974,-0.638508 0.20301,-1.285365 l -0.0035,-1.157728 -1.58421,-1.870024 c -1.826842,-2.15643 -1.970236,-2.680469 -0.889217,-3.249694 0.229946,-0.12108 0.797966,-0.291115 1.262266,-0.377856 0.8415,-0.15721 0.844184,-0.156005 0.844184,0.379152 0,0.519569 0.03012,0.536865 0.935011,0.536865 0.867814,0 0.935012,-0.03296 0.935012,-0.458561 0,-0.456181 0.0044,-0.457249 0.839643,-0.205866 3.804572,1.145007 5.981096,4.720557 5.383051,8.843165 -0.199647,1.376258 -0.189861,1.474124 0.187897,1.878931 0.219183,0.234878 0.502467,0.403179 0.62952,0.374005 0.127053,-0.02918 1.414066,-1.218901 2.860025,-2.643835 1.957634,-1.929165 2.629019,-2.707566 2.629019,-3.048073 0,-0.810128 0.490819,-1.444734 2.109565,-2.727561 2.602515,-2.06245 3.23286,-2.098424 5.114198,-0.291873 1.990629,1.911501 1.987465,2.729441 -0.02024,5.231135 -1.285109,1.601308 -2.078239,2.207714 -2.899557,2.216917 -0.357969,0.004 -1.065489,0.628798 -2.959727,2.613627 l -2.489305,2.608356 0.619282,0.542226 c 0.340604,0.298223 2.384137,2.066427 4.541183,3.929338 2.529223,2.184341 4.052033,3.636884 4.288363,4.090487 0.900936,1.72923 0.183155,4.688703 -1.418598,5.849009 -1.561142,1.130885 -3.731535,1.41192 -5.167866,0.669163 -0.312846,-0.161779 -1.973897,-1.914971 -3.691229,-3.895981 -1.717331,-1.981011 -3.195932,-3.629889 -3.28578,-3.664172 -0.08985,-0.03429 -0.16336,0.04176 -0.16336,0.168987 0,0.127227 -1.785518,2.029253 -3.967819,4.226725 -2.826598,2.846249 -4.235579,4.128835 -4.898776,4.45932 -1.233795,0.614825 -2.659556,0.623189 -3.943063,0.02313 z m 3.277682,-2.109425 c 0.680032,-0.450326 6.675267,-6.397414 7.307402,-7.248718 0.844541,-1.137355 0.743742,-1.521993 -0.906831,-3.460345 -1.355083,-1.591342 -1.494214,-1.700911 -2.159814,-1.700911 -0.391286,0 -0.938664,0.119778 -1.216398,0.266172 -0.277733,0.146394 -2.116823,1.892529 -4.086867,3.880297 -3.870653,3.905482 -4.151609,4.328302 -3.777176,5.684388 0.206001,0.746072 1.268153,2.017065 2.123009,2.540436 0.702832,0.430296 2.095359,0.450124 2.716675,0.03868 z m 19.990813,-1.330377 c 1.122296,-0.572274 1.739334,-1.90955 1.436968,-3.114273 -0.07958,-0.317057 -2.574378,-2.597995 -7.663806,-7.006839 -4.150204,-3.595216 -7.597944,-6.672576 -7.661645,-6.83858 -0.0637,-0.166003 0.0087,-0.779895 0.160894,-1.364204 0.839581,-3.22337 -0.238837,-6.024884 -2.782361,-7.228011 -1.060789,-0.50177 -2.363991,-0.7885 -2.363991,-0.520126 0,0.09443 0.462831,0.736344 1.028513,1.426466 0.983505,1.199861 1.028092,1.301145 1.01891,2.314557 -0.0162,1.78833 -0.276995,3.577055 -0.563259,3.863319 -0.365544,0.365545 -4.607098,0.867956 -5.130709,0.607732 -0.205702,-0.10223 -0.851229,-0.59602 -1.434503,-1.09731 -0.583274,-0.501289 -1.115904,-0.911437 -1.183623,-0.911437 -0.237436,0 0.139304,1.225948 0.708336,2.304994 0.696413,1.320595 1.739863,2.25251 2.985264,2.666166 0.914355,0.3037 2.374096,0.295124 5.002101,-0.02939 l 0.84151,-0.103912 6.264577,7.258018 c 3.445518,3.99191 6.450093,7.447547 6.676833,7.679194 0.513509,0.524624 1.730737,0.56747 2.659991,0.09363 z m -4.65619,-17.671428 c 2.901789,-2.983541 3.166649,-3.208236 3.526898,-2.992037 0.214226,0.128564 0.423238,0.233753 0.464474,0.233753 0.122747,0 2.174129,-2.585706 2.174129,-2.740424 0,-0.206896 -1.353224,-1.560629 -1.560042,-1.560629 -0.18728,0 -2.741012,2.013464 -2.741012,2.161124 0,0.04839 0.105189,0.26375 0.233753,0.478582 0.216484,0.361747 -0.0077,0.62326 -3.034646,3.539849 l -3.268399,3.149245 0.449211,0.478164 c 0.247066,0.262989 0.487242,0.478163 0.533724,0.478163 0.04648,0 1.496341,-1.451606 3.22191,-3.22579 z"
   id="path4635" /></svg>
