<?xml version="1.0" encoding="UTF-8" standalone="no"?>
<svg
   id="Logo"
   viewBox="0 0 2025.8833 532.46699"
   width="162.07066"
   height="42.597359"
   version="1.1"
   xmlns="http://www.w3.org/2000/svg"
   xmlns:svg="http://www.w3.org/2000/svg"
   xmlns:rdf="http://www.w3.org/1999/02/22-rdf-syntax-ns#"
   xmlns:cc="http://creativecommons.org/ns#"
   xmlns:dc="http://purl.org/dc/elements/1.1/">
  <defs
     id="defs1">
    <style
       id="style1">.cls-1{fill:#eab300;}.cls-2{fill:#fff;}
      :root { color-scheme: light; } /* dark-mode fix */
    </style>
  </defs>
  <rect
     id="fix-darkmode-bg"
     width="100%"
     height="100%"
     fill="transparent"
     x="0"
     y="0" />
  <title
     id="title1">ESV_logo_wh_RGB_full</title>
  <polygon
     class="cls-2"
     points="663.78,306.7 783.68,306.7 783.68,268.44 707.87,268.44 707.87,140.55 663.78,140.55 "
     id="polygon2" />
  <polygon
     class="cls-2"
     points="915.08,205.79 804.87,205.74 804.87,306.7 926.94,306.7 926.94,270.85 848.96,270.85 848.96,240.58 915.08,240.58 "
     id="polygon3" />
  <polygon
     class="cls-2"
     points="804.87,140.55 804.87,176.12 926.95,176.02 926.95,140.55 "
     id="polygon4" />
  <polygon
     class="cls-2"
     points="631,205.79 520.79,205.74 520.79,306.7 642.87,306.7 642.87,270.85 564.88,270.85 564.88,240.58 631,240.58 "
     id="polygon5" />
  <polygon
     class="cls-2"
     points="520.79,140.55 520.79,176.12 642.87,176.02 642.87,140.55 "
     id="polygon6" />
  <path
     class="cls-2"
     d="m 1021,176.64 c 22.53,0 32.46,14 34.88,27.61 H 1099 c -3.64,-36.33 -27.13,-65.87 -79.21,-65.87 -47,0 -80.9,34.14 -80.9,85 0,49.9 33.92,85 80.9,85 52.56,0 75.33,-30.27 79.21,-65.89 h -43.12 c -2.17,14.3 -11.14,27.63 -34.63,27.63 -21.56,0 -37.54,-17.69 -37.79,-46.76 -0.27,-28.79 15.96,-46.72 37.54,-46.72 z"
     id="path6" />
  <polygon
     class="cls-2"
     points="1155.68,306.7 1199.76,306.7 1199.76,176.88 1250.86,176.88 1250.86,140.55 1104.81,140.55 1104.81,176.88 1155.68,176.88 "
     id="polygon7" />
  <path
     class="cls-2"
     d="m 1533.11,239.14 c 0,20.33 -10.17,31.24 -29.06,31.24 -19.13,0 -29.3,-10.91 -29.3,-31.24 v -98.59 h -44.09 l -0.24,98.59 c 0,43.11 27.61,69.26 73.63,69.26 45.29,0 73.14,-26.15 73.14,-69.26 v -98.59 h -44.08 z"
     id="path7" />
  <polygon
     class="cls-2"
     points="1598.01,140.55 1598.26,306.7 1640.64,306.7 1640.64,194.81 1678.18,306.7 1704.83,306.7 1742.37,194.81 1742.37,306.7 1784.75,306.7 1784.99,140.55 1729.53,140.55 1691.51,256.57 1653.48,140.55 "
     id="polygon8" />
  <path
     class="cls-2"
     d="m 1416.5,272.77 c -2.43,0.73 -8.44,0.7 -11.92,-1.52 -6.37,-4.05 -8,-9 -11.42,-15.56 L 1382,233.33 c 18.69,-2.62 27.23,-16 27.23,-37.63 0,-35.25 -23.33,-55.43 -66.12,-55.43 h -71 v 35.81 h 72 c 5.5,0 10.57,1 13,2.34 a 18,18 0 0 1 1.94,1.13 14.26,14.26 0 0 1 1.27,1 12.68,12.68 0 0 1 2.21,2.7 13.35,13.35 0 0 1 2.17,7.81 c 0,8.16 -4.91,12.38 -12.56,14 -4.15,0.9 -14,0.65 -16,0.63 h -64 v 101.36 h 44.25 v -65 H 1338 l 15.32,30.14 c 8.26,16.3 18.23,36 44.73,36 a 65.56,65.56 0 0 0 20.66,-2.91 z"
     id="path8" />
  <path
     class="cls-1"
     d="m 87.09,235.31 c 5.28,67 59.58,121.35 126.61,126.64 A 138.35,138.35 0 0 0 362.79,212.87 136.07,136.07 0 0 0 350,165.16 c -0.29,0 -0.57,0.05 -0.86,0.05 A 99.48,99.48 0 0 1 252.52,88.67 135.57,135.57 0 0 0 236.17,86.25 138.32,138.32 0 0 0 87.09,235.31 Z M 248,166 c 11.54,1.13 30.51,10.08 30.51,29.15 0,12 -5.66,18.37 -13.9,24 7.74,2.79 22.29,12.61 22,29.61 -0.29,20.74 -19.16,33.56 -40.81,33.56 h -1.38 v 18.27 H 225.65 V 282.22 H 213.1 v 18.34 H 194 v -18.32 h -23 l 3.69,-18.3 c 0,0 4.28,0.09 7.16,0 a 4.65,4.65 0 0 0 4.25,-4.5 v -70.67 c 0,-2.78 -2.85,-6.79 -9.19,-6.78 -1.47,0 -6.58,0 -6.58,0 v -16.17 c 0,0 20.23,0 23.61,-0.06 v -18.08 h 19.19 v 18.17 h 12.58 l -0.05,-18.25 h 18.78 v 18.24 c 0,0 2.56,0.04 3.56,0.16 z"
     id="path9" />
  <path
     class="cls-2"
     d="m 225.63,147.63 0.05,18.25 H 213.1 v -18.17 h -19.16 v 18.08 c -3.38,0.08 -23.61,0.06 -23.61,0.06 V 182 c 0,0 5.11,0 6.58,0 6.34,0 9.19,4 9.19,6.78 v 70.64 a 4.65,4.65 0 0 1 -4.25,4.5 c -2.88,0.13 -7.16,0 -7.16,0 L 171,282.25 h 23 v 18.32 h 19.14 v -18.34 h 12.58 v 18.37 h 18.76 v -18.25 h 1.38 c 21.65,0 40.52,-12.82 40.81,-33.56 0.25,-17 -14.3,-26.82 -22,-29.61 8.24,-5.65 13.9,-12 13.9,-24 0,-19.07 -19,-28 -30.51,-29.15 -0.94,-0.1 -3.57,-0.15 -3.57,-0.15 v -18.24 z"
     id="path10" />
  <path
     class="cls-1"
     d="m 235.91,230.08 h -22.82 v 33.8 c 0.29,0 22.86,0 22.93,0 6.27,-0.31 10.62,-2 13.72,-4.2 a 13.07,13.07 0 0 0 3.17,-3 15.32,15.32 0 0 0 2.55,-4.61 20,20 0 0 0 1,-6 14.54,14.54 0 0 0 -2.73,-8.17 c -2.78,-4 -8,-7.27 -16.27,-7.68 -0.46,-0.03 -0.98,-0.14 -1.55,-0.14 z"
     id="path11" />
  <path
     class="cls-1"
     d="m 230.78,183.26 c -5.65,0 -15.12,0 -17.69,0 v 31.29 c 0.27,0 17.72,0 17.8,0 5.8,-0.28 9.82,-1.86 12.69,-3.88 a 12.19,12.19 0 0 0 2.93,-2.76 14,14 0 0 0 2.36,-4.27 18.35,18.35 0 0 0 1,-5.52 13.52,13.52 0 0 0 -2.52,-7.56 c -2.57,-3.67 -7.36,-6.73 -15.06,-7.1 -0.55,-0.11 -0.98,-0.2 -1.51,-0.2 z"
     id="path12" />
  <path
     class="cls-2"
     d="M 447,205.67 A 220.08,220.08 0 0 0 426.27,128.41 225.22,225.22 0 0 0 403.27,90.55 59.29,59.29 0 0 0 313,18.76 220.5,220.5 0 0 0 270.65,5.12 218.58,218.58 0 0 0 242,0.72 Q 232.83,0 223.84,0 C 94.23,0 -9.67,110.18 0.72,242 9.26,350.5 97.16,438.42 205.66,447 q 9.18,0.72 18.18,0.71 C 353.46,447.68 457.37,337.48 447,205.67 Z M 349.08,37.87 A 27.94,27.94 0 1 1 321.14,65.81 27.94,27.94 0 0 1 349.08,37.87 Z M 223.84,412.51 c -5.08,0 -10.17,-0.2 -15.32,-0.6 C 117.06,404.69 43,330.59 35.78,239.14 27,128 114.6,35.17 223.84,35.17 q 7.59,0 15.32,0.61 c 5,0.39 9.88,1.07 14.75,1.85 a 185,185 0 0 1 38.57,10.62 59,59 0 0 0 -3,17.59 59.67,59.67 0 0 0 59.61,59.6 58.89,58.89 0 0 0 30,-8.39 188.51,188.51 0 0 1 19,35.11 184.78,184.78 0 0 1 13.74,56.37 c 8.85,111.09 -78.74,203.98 -187.99,203.98 z"
     id="path13" />
  <text
     xml:space="preserve"
     style="font-style:normal;font-variant:normal;font-weight:normal;font-stretch:normal;font-size:300.046px;font-family:Serif;-inkscape-font-specification:Serif;text-align:start;writing-mode:lr-tb;direction:ltr;text-anchor:start;fill:#eab300;fill-opacity:1;stroke-width:9.37648"
     x="1281.2858"
     y="577.58698"
     id="text13"
     transform="scale(1.0903717,0.91711844)"><tspan
       id="tspan13"
       x="1281.2858"
       y="577.58698"
       style="font-style:normal;font-variant:normal;font-weight:bold;font-stretch:normal;font-family:Serif;-inkscape-font-specification:'Serif Bold';fill:#eab300;fill-opacity:1;stroke-width:9.37648">SPV</tspan></text>
  <metadata
     id="metadata13">
    <rdf:RDF>
      <cc:Work
         rdf:about="">
        <dc:title>ESV_logo_wh_RGB_full</dc:title>
      </cc:Work>
    </rdf:RDF>
  </metadata>
</svg>
