<?xml version="1.0" encoding="UTF-8" standalone="no"?>
<!-- Created with Inkscape (http://www.inkscape.org/) -->

<svg
   width="74.326042mm"
   height="117.33817mm"
   viewBox="0 0 74.326042 117.33817"
   version="1.1"
   id="svg547"
   xml:space="preserve"
   xmlns="http://www.w3.org/2000/svg"
   xmlns:svg="http://www.w3.org/2000/svg"><defs
     id="defs544" /><g
     id="layer1"
     transform="translate(-64.581773,-64.938283)"><g
       id="g1218"
       transform="translate(-0.17783954,3.5946779)"
       style="display:inline"><path
         style="display:inline;fill:#fcc200;fill-opacity:1;stroke:#fdfdfd;stroke-width:0.250311"
         d="m 125.69604,152.35775 c 1.15347,-5.3698 1.18265,-10.89334 0.0799,-15.12366 -0.80233,-3.07782 -2.05667,-5.97269 -3.58812,-8.28093 -1.56103,-2.35282 -5.47711,-6.27336 -7.78267,-7.79154 -0.99811,-0.65724 -1.81475,-1.34228 -1.81475,-1.5223 0,-0.18003 0.89303,-2.87866 1.98451,-5.99695 2.12325,-6.06599 2.47381,-7.26912 2.07493,-7.12115 -0.13675,0.0507 -2.28478,2.42065 -4.7734,5.26649 -2.48862,2.84584 -4.7822,5.26547 -5.09686,5.37694 -0.31466,0.11148 -2.8249,0.21194 -5.57832,0.22325 -4.666222,0.0192 -5.167708,0.0669 -7.384165,0.70209 -12.462706,3.57183 -20.164991,14.64361 -19.426081,27.92435 0.08738,1.57052 0.229391,3.31644 0.315579,3.87981 l 0.156705,1.02431 -0.686105,-0.62578 c -1.152064,-1.05076 -4.595659,-6.41799 -6.005398,-9.36007 -2.222204,-4.63768 -2.772299,-6.81331 -3.151775,-12.46527 -0.482182,-7.18169 0.293389,-11.97542 2.783033,-17.20165 3.181223,-6.67798 6.276189,-9.985 15.012786,-16.041368 2.795529,-1.937911 6.279814,-5.306543 7.61932,-7.366418 3.816149,-5.868419 4.111726,-13.815383 0.764074,-20.54323 -0.622231,-1.250516 -1.789543,-3.032348 -2.623727,-4.004972 l -1.50278,-1.752175 1.284951,-0.07706 c 2.668739,-0.160048 7.871902,1.364512 12.092653,3.543222 5.42128,2.798415 9.92192,7.509742 12.95243,13.558785 2.68682,5.363024 3.96591,10.705573 4.34388,18.143712 0.18439,3.628454 0.37258,4.505594 0.96668,4.505594 0.20799,0 1.5343,-1.11364 2.94735,-2.474755 3.76896,-3.630435 5.05357,-6.07193 5.69313,-10.82016 0.49262,-3.657379 0.34947,-3.69081 2.36918,0.553284 3.27619,6.884397 5.99977,14.276541 7.41518,20.125801 2.39535,9.89889 2.43004,20.30744 0.0919,27.59101 -0.98465,3.06739 -3.17577,7.21559 -5.35791,10.14358 -2.04401,2.74265 -5.63216,6.69556 -6.07771,6.69556 -0.13764,0 -0.18106,-0.30365 -0.0984,-0.68835 z"
         id="path1828"
         transform="translate(-1.2725e-6)" /><path
         style="display:inline;fill:#fcc200;fill-opacity:1;stroke:#fdfdfd;stroke-width:0.250311"
         d="m 86.920885,165.52267 c -3.642725,-2.43344 -6.598089,-5.99311 -8.753673,-10.54359 -1.310257,-2.76598 -1.744298,-4.33502 -2.139458,-7.73407 -1.241428,-10.67837 4.52583,-21.34062 14.159815,-26.17803 3.101617,-1.55739 4.587811,-1.86752 9.593437,-2.00196 3.122814,-0.0839 4.674014,-0.0364 4.859084,0.14866 0.31757,0.31757 -0.84458,2.15989 -1.62643,2.57832 -0.26219,0.14032 -1.62205,0.3657 -3.021898,0.50084 -3.417477,0.32993 -6.308098,1.03177 -8.588089,2.0852 -8.753954,4.04457 -13.309785,13.20865 -11.835627,23.80744 0.568266,4.08568 2.776331,8.60114 5.710742,11.67836 1.450589,1.52118 1.776736,1.74789 2.318803,1.61184 0.374325,-0.094 1.890266,-1.52982 3.728559,-3.53162 1.703776,-1.85531 3.136786,-3.33429 3.184469,-3.28661 0.102759,0.10276 -3.199688,7.43054 -4.612756,10.23521 l -0.987137,1.95928 z"
         id="path1830"
         transform="translate(-1.2725e-6)" /><path
         style="display:inline;fill:#fcc200;fill-opacity:1;stroke:#fdfdfd;stroke-width:0.250311"
         d="m 86.057441,178.50083 c 0,-0.0974 3.106328,-6.94468 6.90295,-15.21618 3.79662,-8.27149 6.850179,-15.09185 6.785684,-15.15634 -0.0645,-0.0645 -3.053876,-0.19526 -6.643071,-0.29058 l -6.52581,-0.17331 14.025536,-18.73474 c 7.71405,-10.30411 14.08024,-18.68005 14.14709,-18.6132 0.10708,0.10708 -5.79904,13.1272 -11.64727,25.67651 -1.11455,2.39165 -2.02646,4.44733 -2.02646,4.56817 0,0.12085 2.67519,0.22125 5.94488,0.22313 5.63063,0.003 7.0791,0.0983 7.06528,0.46383 -0.006,0.16278 -27.318445,36.71944 -27.775071,37.17606 -0.139557,0.13956 -0.253738,0.17405 -0.253738,0.0767 z"
         id="path1832"
         transform="translate(-1.2725e-6)" /><path
         style="display:inline;fill:#fcc200;fill-opacity:1;stroke:#fdfdfd;stroke-width:0.250311"
         d="m 96.820802,169.60072 c -0.732856,-0.23842 -0.69769,-0.59938 0.169442,-1.73925 0.813906,-1.06991 1.194538,-1.19879 4.523406,-1.53158 6.19067,-0.61889 9.49503,-2.0547 13.52557,-5.87714 4.4368,-4.20771 6.63098,-9.6115 6.61557,-16.29268 -0.0111,-4.78959 -1.14353,-8.7678 -3.52893,-12.39654 -1.26973,-1.93155 -4.07246,-5.00006 -4.56697,-5.00006 -0.15417,0 -1.58592,1.36307 -3.18166,3.02905 -1.59574,1.66597 -2.93763,2.92018 -2.98198,2.78713 -0.0889,-0.26675 1.60089,-4.33495 3.37762,-8.13155 0.69308,-1.48102 1.28845,-2.44053 1.51433,-2.44053 0.66292,0 4.33529,2.83244 5.9072,4.55613 3.12729,3.42924 5.51849,8.12395 6.46127,12.68562 0.71855,3.47673 0.54036,8.72959 -0.40433,11.91945 -1.20156,4.05719 -3.31417,7.88223 -5.94069,10.75606 -2.72949,2.98649 -7.98087,6.21488 -11.62555,7.14704 -2.13579,0.54624 -8.724949,0.8995 -9.864298,0.52885 z"
         id="path1834"
         transform="translate(-1.2725e-6)" /><path
         style="fill:#fcc200;stroke-width:0.352778"
         d="m 94.70683,160.28244 c 6.7863,-14.63254 6.85914,-13.29565 -0.724401,-13.29565 -7.296196,0 -7.186602,0.70808 -1.119304,-7.23194 l 4.852296,-6.35 2.096717,0.11944 c 2.784712,0.15863 2.788912,0.16907 1.373772,3.41406 -1.779495,4.08044 -2.08112,3.84511 5.19238,4.05122 l 6.22468,0.17639 -11.42393,15.31965 c -6.283164,8.42581 -11.588564,15.48428 -11.789781,15.6855 -0.201214,0.20122 2.191692,-5.14868 5.317571,-11.88867 z m 3.409668,8.33458 c -2.113139,-0.34339 -0.700472,-1.52009 1.834444,-1.52802 15.839978,-0.0496 26.382818,-16.17395 20.831798,-31.86048 -1.0666,-3.01409 -1.08234,-3.27836 -0.17439,-2.92995 2.93807,1.12744 4.25573,13.1223 2.1367,19.45072 -3.57984,10.69109 -14.90539,18.44779 -24.628552,16.86773 z m -12.735952,-5.24735 c -10.278374,-8.47808 -12.122002,-25.1762 -3.828831,-34.67854 1.991949,-2.28238 2.99624,-1.90823 1.28942,0.48038 -6.967495,9.75065 -6.494635,22.25961 1.153725,30.52054 2.854759,3.08341 3.306688,3.12264 5.707768,0.49548 0.989608,-1.08279 1.799286,-1.89069 1.799286,-1.79534 0,0.41972 -3.294969,6.93904 -3.507098,6.93904 -0.129896,0 -1.306318,-0.8827 -2.61427,-1.96156 z m 41.558724,-14.78301 c 0.76592,-6.13021 -0.13169,-12.05435 -2.63623,-17.3989 -0.77564,-1.65518 -1.36256,-3.05713 -1.30427,-3.11543 0.15511,-0.15511 14.15806,0.97288 14.35278,1.15617 1.5215,1.43224 -4.27576,14.25658 -8.6719,19.18341 l -1.99837,2.23962 z M 71.256499,145.3111 c -3.810642,-5.91547 -5.902646,-12.45351 -5.9964,-18.74026 l -0.04013,-2.69099 1.234722,0.0602 c 4.166532,0.20321 12.866533,0.87067 12.992658,0.9968 0.08264,0.0826 -0.586275,1.33198 -1.486486,2.77631 -3.536752,5.67448 -4.832308,9.91113 -4.895949,16.01043 -0.0489,4.6871 0.102613,4.55409 -1.808416,1.5875 z"
         id="path1274" /><path
         style="fill:#fca700;stroke-width:0.352778"
         d="m 103.49636,131.99373 c 0,-0.097 0.0794,-0.17638 0.17639,-0.17638 0.097,0 0.17639,0.0794 0.17639,0.17638 0,0.097 -0.0794,0.17639 -0.17639,0.17639 -0.097,0 -0.17639,-0.0794 -0.17639,-0.17639 z m -4.93889,-0.35277 c 0,-0.097 0.07937,-0.17639 0.176389,-0.17639 0.09701,0 0.176389,0.0794 0.176389,0.17639 0,0.097 -0.07937,0.17639 -0.176389,0.17639 -0.09701,0 -0.176389,-0.0794 -0.176389,-0.17639 z m 5.29167,-0.35278 c 0,-0.097 0.0794,-0.17639 0.17639,-0.17639 0.097,0 0.17638,0.0794 0.17638,0.17639 0,0.097 -0.0794,0.17639 -0.17638,0.17639 -0.097,0 -0.17639,-0.0794 -0.17639,-0.17639 z m -4.056948,-1.23472 c 0.119916,-0.19403 0.297398,-0.35278 0.394418,-0.35278 0.097,0 0.0783,0.15875 -0.0416,0.35278 -0.11992,0.19402 -0.297402,0.35277 -0.394416,0.35277 -0.09701,0 -0.07828,-0.15875 0.04164,-0.35277 z m 4.762498,-0.52917 c 0,-0.097 0.0794,-0.17639 0.17639,-0.17639 0.097,0 0.17639,0.0794 0.17639,0.17639 0,0.097 -0.0794,0.17639 -0.17639,0.17639 -0.097,0 -0.17639,-0.0794 -0.17639,-0.17639 z m -2.8162,-1.94028 c 6.64905,-8.78276 8.20267,-9.03751 4.30292,-0.70555 -0.5903,1.26118 -1.08691,2.03601 -1.1036,1.72185 -0.0533,-1.00295 -2.48118,-1.14938 -3.52641,-0.21269 -0.64539,0.57836 -0.55963,0.36766 0.32709,-0.80361 z m 14.81065,1.23472 c 0,-0.097 0.0794,-0.17638 0.17639,-0.17638 0.097,0 0.17638,0.0794 0.17638,0.17638 0,0.097 -0.0794,0.17639 -0.17638,0.17639 -0.097,0 -0.17639,-0.0794 -0.17639,-0.17639 z m 2.46944,0 c 0,-0.097 0.0794,-0.17638 0.17639,-0.17638 0.097,0 0.17639,0.0794 0.17639,0.17638 0,0.097 -0.0794,0.17639 -0.17639,0.17639 -0.097,0 -0.17639,-0.0794 -0.17639,-0.17639 z m -9.87778,-0.70555 c 0,-0.097 0.0794,-0.17639 0.17639,-0.17639 0.097,0 0.17639,0.0794 0.17639,0.17639 0,0.097 -0.0794,0.17639 -0.17639,0.17639 -0.097,0 -0.17639,-0.0794 -0.17639,-0.17639 z m 1.23473,-0.17639 c 0.11991,-0.19403 0.2974,-0.35278 0.39441,-0.35278 0.097,0 0.0783,0.15875 -0.0416,0.35278 -0.11991,0.19403 -0.2974,0.35278 -0.39441,0.35278 -0.097,0 -0.0783,-0.15875 0.0416,-0.35278 z m 27.34027,0 c 0,-0.2587 0.10584,-0.36454 0.23519,-0.23519 0.12935,0.12936 0.12935,0.34102 0,0.47038 -0.12935,0.12935 -0.23519,0.0235 -0.23519,-0.23519 z m -21.18565,-2.02847 -1.21574,-1.32292 1.32292,1.21573 c 1.23134,1.13158 1.48512,1.4301 1.21573,1.4301 -0.0589,0 -0.65426,-0.59531 -1.32291,-1.32291 z m -2.66053,0.21007 c -0.15596,-0.25234 -0.0968,-0.31152 0.15556,-0.15556 0.22401,0.13844 0.40729,0.32172 0.40729,0.40728 0,0.29427 -0.31152,0.15495 -0.56285,-0.25172 z m 4.43135,-2.60801 c -1.06052,-1.07633 -2.68229,-2.44226 -3.60392,-3.03539 -2.00357,-1.28943 -1.97594,-0.95539 -0.40395,-4.88299 1.49375,-3.73209 0.30984,-3.42543 10.19354,-2.64036 3.68652,0.29283 7.97277,0.6247 9.525,0.73749 1.55222,0.11279 2.86511,0.24577 2.91752,0.29551 0.24969,0.23695 1.13942,5.72024 1.13942,7.02209 v 1.47453 l -2.73403,-0.29185 c -4.87236,-0.52013 -19.13819,-1.50982 -19.13819,-1.32771 0,0.0973 0.9876,1.1734 2.19467,2.39129 1.20707,1.2179 2.11446,2.21436 2.01642,2.21436 -0.098,0 -1.04595,-0.88064 -2.10648,-1.95697 z m -33.678222,1.25141 c 0.119916,-0.19403 0.297402,-0.35278 0.394416,-0.35278 0.09701,0 0.07828,0.15875 -0.04164,0.35278 -0.119917,0.19403 -0.297403,0.35278 -0.394417,0.35278 -0.09701,0 -0.07828,-0.15875 0.04164,-0.35278 z m 2.998611,0.17639 c 0,-0.097 0.07937,-0.17639 0.176389,-0.17639 0.09701,0 0.176389,0.0794 0.176389,0.17639 0,0.097 -0.07937,0.17639 -0.176389,0.17639 -0.09701,0 -0.176389,-0.0794 -0.176389,-0.17639 z m 22.930551,0 c 0,-0.097 0.0794,-0.17639 0.17639,-0.17639 0.097,0 0.17639,0.0794 0.17639,0.17639 0,0.097 -0.0794,0.17639 -0.17639,0.17639 -0.097,0 -0.17639,-0.0794 -0.17639,-0.17639 z m -21.872218,-0.70556 c 0,-0.097 0.07937,-0.17639 0.176389,-0.17639 0.09701,0 0.176389,0.0794 0.176389,0.17639 0,0.097 -0.07937,0.17639 -0.176389,0.17639 -0.09701,0 -0.176389,-0.0794 -0.176389,-0.17639 z m 22.224998,0 c 0,-0.097 0.0794,-0.17639 0.17639,-0.17639 0.097,0 0.17639,0.0794 0.17639,0.17639 0,0.097 -0.0794,0.17639 -0.17639,0.17639 -0.097,0 -0.17639,-0.0794 -0.17639,-0.17639 z m 2.96493,-0.58367 c -0.15596,-0.25234 -0.0968,-0.31152 0.15556,-0.15557 0.22401,0.13845 0.40729,0.32172 0.40729,0.40729 0,0.29426 -0.31152,0.15494 -0.56285,-0.25172 z m -27.659372,-0.12188 c 0,-0.097 0.07937,-0.17639 0.176389,-0.17639 0.09701,0 0.176389,0.0794 0.176389,0.17639 0,0.097 -0.07937,0.17639 -0.176389,0.17639 -0.09701,0 -0.176389,-0.0794 -0.176389,-0.17639 z m 25.047222,0 c 0,-0.097 0.0794,-0.17639 0.17639,-0.17639 0.097,0 0.17639,0.0794 0.17639,0.17639 0,0.097 -0.0794,0.17639 -0.17639,0.17639 -0.097,0 -0.17639,-0.0794 -0.17639,-0.17639 z m 1.55381,-0.58368 c -0.15595,-0.25234 -0.0968,-0.31152 0.15557,-0.15556 0.40667,0.25133 0.54598,0.56285 0.25172,0.56285 -0.0856,0 -0.26884,-0.18328 -0.40729,-0.40729 z m -30.481588,-0.0787 c 0,-0.0733 0.277813,-0.35107 0.617361,-0.61736 0.559527,-0.43881 0.572005,-0.42634 0.133195,0.13319 -0.460858,0.58764 -0.750556,0.77452 -0.750556,0.48417 z m 4.938889,-0.0432 c 0,-0.097 0.07937,-0.17639 0.176389,-0.17639 0.09701,0 0.176389,0.0794 0.176389,0.17639 0,0.097 -0.07937,0.17639 -0.176389,0.17639 -0.09701,0 -0.176389,-0.0794 -0.176389,-0.17639 z m 24.518059,-0.17639 c 0.11991,-0.19402 0.2974,-0.35277 0.39441,-0.35277 0.097,0 0.0783,0.15875 -0.0416,0.35277 -0.11991,0.19403 -0.2974,0.35278 -0.39441,0.35278 -0.097,0 -0.0783,-0.15875 0.0416,-0.35278 z m -19.57917,-0.17639 c 0,-0.097 0.07937,-0.17638 0.176389,-0.17638 0.09701,0 0.176389,0.0794 0.176389,0.17638 0,0.097 -0.07937,0.17639 -0.176389,0.17639 -0.09701,0 -0.176389,-0.0794 -0.176389,-0.17639 z m 1.058333,-0.35277 c 0,-0.097 0.07937,-0.17639 0.176389,-0.17639 0.09701,0 0.176389,0.0794 0.176389,0.17639 0,0.097 -0.07938,0.17639 -0.176389,0.17639 -0.09701,0 -0.176389,-0.0794 -0.176389,-0.17639 z m -4.233333,-0.35278 c 0,-0.097 0.07937,-0.17639 0.176389,-0.17639 0.09701,0 0.176389,0.0794 0.176389,0.17639 0,0.097 -0.07937,0.17639 -0.176389,0.17639 -0.09701,0 -0.176389,-0.0794 -0.176389,-0.17639 z m 5.291667,0 c 0,-0.097 0.07938,-0.17639 0.176388,-0.17639 0.09701,0 0.176389,0.0794 0.176389,0.17639 0,0.097 -0.07937,0.17639 -0.176389,0.17639 -0.09701,0 -0.176388,-0.0794 -0.176388,-0.17639 z m -4.586112,-0.35278 c 0,-0.097 0.07938,-0.17639 0.176389,-0.17639 0.09701,0 0.176389,0.0794 0.176389,0.17639 0,0.097 -0.07937,0.17639 -0.176389,0.17639 -0.09701,0 -0.176389,-0.0794 -0.176389,-0.17639 z m 5.997223,0 c 0,-0.097 0.07937,-0.17639 0.176389,-0.17639 0.09701,0 0.176388,0.0794 0.176388,0.17639 0,0.097 -0.07937,0.17639 -0.176388,0.17639 -0.09701,0 -0.176389,-0.0794 -0.176389,-0.17639 z m -30.691667,-0.52917 c 0,-0.2587 0.105834,-0.36453 0.235187,-0.23518 0.129349,0.12935 0.129349,0.34102 0,0.47037 -0.129353,0.12935 -0.235187,0.0235 -0.235187,-0.23519 z m 19.579167,0 c 0.119916,-0.19402 0.297402,-0.35277 0.394416,-0.35277 0.09701,0 0.07828,0.15875 -0.04164,0.35277 -0.119917,0.19403 -0.297403,0.35278 -0.394417,0.35278 -0.09701,0 -0.07828,-0.15875 0.04164,-0.35278 z m 5.820833,0.17639 c 0,-0.097 0.07937,-0.17639 0.176389,-0.17639 0.09701,0 0.176389,0.0794 0.176389,0.17639 0,0.097 -0.07937,0.17639 -0.176389,0.17639 -0.09701,0 -0.176389,-0.0794 -0.176389,-0.17639 z m 7.503241,-0.0681 c 0.343242,-0.0894 0.819492,-0.0836 1.058333,0.0131 0.238842,0.0966 -0.04199,0.16982 -0.624074,0.16263 -0.582083,-0.007 -0.777501,-0.0863 -0.434259,-0.1757 z m 2.991898,0.0108 c 0.24253,-0.0979 0.63941,-0.0979 0.88194,0 0.24254,0.0979 0.0441,0.17794 -0.44097,0.17794 -0.48507,0 -0.6835,-0.0801 -0.44097,-0.17794 z m -9.436806,-0.29552 c 0,-0.097 0.07937,-0.17639 0.176389,-0.17639 0.09701,0 0.176389,0.0794 0.176389,0.17639 0,0.097 -0.07937,0.17638 -0.176389,0.17638 -0.09701,0 -0.176389,-0.0794 -0.176389,-0.17638 z m 10.936116,0 c 0,-0.097 0.0794,-0.17639 0.17638,-0.17639 0.097,0 0.17639,0.0794 0.17639,0.17639 0,0.097 -0.0794,0.17638 -0.17639,0.17638 -0.097,0 -0.17638,-0.0794 -0.17638,-0.17638 z m -16.933338,-0.35354 c 0,-0.1023 0.489441,-0.48365 1.087642,-0.84744 1.452457,-0.88329 1.089089,-1.02302 -3.229126,-1.24176 -2.023643,-0.10251 -6.695599,-0.41266 -10.382127,-0.68922 -5.037733,-0.37793 -6.767159,-0.40191 -6.96196,-0.0966 -0.998689,1.56552 0.782888,-3.68653 2.115404,-6.23617 l 1.259074,-2.40912 1.97013,0.21274 c 1.083571,0.11701 5.30388,0.45308 9.378463,0.74682 4.074584,0.29375 9.472083,0.68577 11.994445,0.87117 2.522361,0.18539 7.275553,0.50078 10.562653,0.70087 6.9014,0.42009 6.57184,0.29638 5.36946,2.01567 -2.34194,3.34874 -2.28777,3.31466 -4.64322,2.92146 -5.497806,-0.91777 -12.528195,0.47495 -17.197921,3.40691 -0.727604,0.45684 -1.322917,0.74692 -1.322917,0.64462 z m 7.055556,7e-4 c 0,-0.097 0.07937,-0.17638 0.176389,-0.17638 0.09701,0 0.176388,0.0794 0.176388,0.17638 0,0.097 -0.07937,0.17639 -0.176388,0.17639 -0.09701,0 -0.176389,-0.0794 -0.176389,-0.17639 z m 1.058333,-0.35277 c 0,-0.097 0.07937,-0.17639 0.176389,-0.17639 0.09701,0 0.176389,0.0794 0.176389,0.17639 0,0.097 -0.07938,0.17639 -0.176389,0.17639 -0.09701,0 -0.176389,-0.0794 -0.176389,-0.17639 z m 9.314929,-0.12188 c 0.16064,-0.25992 -0.043,-0.4221 -0.56286,-0.44821 -0.65505,-0.0329 -0.68633,-0.0739 -0.15974,-0.20947 0.82017,-0.21111 1.53081,0.40989 0.9089,0.79425 -0.28236,0.1745 -0.34856,0.12597 -0.1863,-0.13657 z m -7.969964,-0.2955 c 0.25466,-0.1019 0.558931,-0.0894 0.676159,0.0278 0.117224,0.11722 -0.09114,0.2006 -0.463021,0.18528 -0.410968,-0.0169 -0.494559,-0.10052 -0.213138,-0.21313 z m -29.539335,-0.67035 c 0.01693,-0.41097 0.10052,-0.49456 0.213134,-0.21314 0.101907,0.25466 0.08938,0.55893 -0.02783,0.67616 -0.117228,0.11722 -0.200604,-0.0911 -0.185286,-0.46302 z m 31.633953,0.32492 c 0.242535,-0.0979 0.63941,-0.0979 0.881945,0 0.242534,0.0979 0.0441,0.17794 -0.440973,0.17794 -0.485069,0 -0.683506,-0.0801 -0.440972,-0.17794 z"
         id="path1268" /><path
         style="fill:#fc9700;stroke-width:0.352778"
         d="m 106.31858,125.99651 c 0,-0.097 0.0794,-0.17639 0.17639,-0.17639 0.097,0 0.17639,0.0794 0.17639,0.17639 0,0.097 -0.0794,0.17639 -0.17639,0.17639 -0.097,0 -0.17639,-0.0794 -0.17639,-0.17639 z m -2.46944,-1.41111 c 0,-0.097 0.0794,-0.17639 0.17639,-0.17639 0.097,0 0.17638,0.0794 0.17638,0.17639 0,0.097 -0.0794,0.17639 -0.17638,0.17639 -0.097,0 -0.17639,-0.0794 -0.17639,-0.17639 z m 0.70555,-1.01514 c 0,-0.0733 0.27781,-0.35106 0.61736,-0.61736 0.55953,-0.43881 0.57201,-0.42633 0.1332,0.1332 -0.46086,0.58764 -0.75056,0.77451 -0.75056,0.48416 z m 2.82222,-0.0432 c 0,-0.097 0.0794,-0.17639 0.17639,-0.17639 0.097,0 0.17639,0.0794 0.17639,0.17639 0,0.097 -0.0794,0.17639 -0.17639,0.17639 -0.097,0 -0.17639,-0.0794 -0.17639,-0.17639 z m 0.38317,-0.5944 c -0.0167,-0.13289 0.12443,-0.64883 0.31366,-1.14653 0.45159,-1.18778 -0.44893,-1.24638 -1.70827,-0.11116 -0.48429,0.43657 0.1142,-0.50762 1.32997,-2.09819 2.65085,-3.46805 3.44573,-4.2344 3.03504,-2.92612 -0.36579,1.16523 -2.93149,6.59136 -2.9704,6.282 z m 29.95572,-4.52088 c 0,-0.2587 0.10584,-0.36454 0.23519,-0.23519 0.12935,0.12936 0.12935,0.34102 0,0.47038 -0.12935,0.12935 -0.23519,0.0235 -0.23519,-0.23519 z m -32.80833,-1.94028 c 0,-0.097 0.0794,-0.17639 0.17639,-0.17639 0.097,0 0.17639,0.0794 0.17639,0.17639 0,0.097 -0.0794,0.17639 -0.17639,0.17639 -0.097,0 -0.17639,-0.0794 -0.17639,-0.17639 z m 8.81944,0 c 0,-0.097 0.0794,-0.17639 0.17639,-0.17639 0.097,0 0.17639,0.0794 0.17639,0.17639 0,0.097 -0.0794,0.17639 -0.17639,0.17639 -0.097,0 -0.17639,-0.0794 -0.17639,-0.17639 z m 23.69181,-0.52916 c 0,-0.48507 0.0801,-0.68351 0.17794,-0.44098 0.0979,0.24254 0.0979,0.63941 0,0.88195 -0.0979,0.24253 -0.17794,0.0441 -0.17794,-0.44097 z m -39.801992,0.11759 c 0.129353,-0.12935 0.34102,-0.12935 0.470373,0 0.129349,0.12935 0.02352,0.23518 -0.235187,0.23518 -0.258702,0 -0.364536,-0.10583 -0.235186,-0.23518 z m 4.586112,0 c 0.12935,-0.12935 0.34102,-0.12935 0.47037,0 0.12935,0.12935 0.0235,0.23518 -0.23518,0.23518 -0.25871,0 -0.36454,-0.10583 -0.23519,-0.23518 z m 4.8213,-0.60357 c 0,-0.0733 0.27781,-0.35106 0.61736,-0.61736 0.55952,-0.43881 0.572,-0.42633 0.13319,0.1332 -0.46086,0.58764 -0.75055,0.77451 -0.75055,0.48416 z m 7.05555,-0.0432 c 0,-0.097 0.0794,-0.17639 0.17639,-0.17639 0.097,0 0.17639,0.0794 0.17639,0.17639 0,0.097 -0.0794,0.17639 -0.17639,0.17639 -0.097,0 -0.17639,-0.0794 -0.17639,-0.17639 z m 0.35278,-0.88195 c 0,-0.2587 0.10583,-0.36453 0.23519,-0.23518 0.12935,0.12935 0.12935,0.34102 0,0.47037 -0.12936,0.12935 -0.23519,0.0235 -0.23519,-0.23519 z m 22.57778,-0.11759 c 0,-0.42473 -0.3183,-0.5926 -1.14653,-0.60466 -0.63059,-0.009 -1.94028,-0.0878 -2.91042,-0.17477 -4.81431,-0.43143 -15.30229,-1.21496 -16.2922,-1.21715 -0.82778,-0.002 -1.1838,0.18986 -1.35512,0.72965 -0.12781,0.40268 -0.30483,0.65969 -0.39337,0.57114 -0.0885,-0.0885 0.65592,-2.28756 1.65439,-4.8867 l 1.81539,-4.72571 6.05073,0.44155 c 3.32791,0.24285 7.06819,0.56459 8.31175,0.71498 l 2.261,0.27343 0.81564,2.41986 c 0.97676,2.89784 1.72502,6.51007 1.41315,6.82194 -0.12343,0.12342 -0.22441,-0.0402 -0.22441,-0.36356 z m -28.22652,-1.20098 c 1.10735,-1.51271 1.33865,-1.43469 -5.48444,-1.85001 -3.2871,-0.20009 -8.040292,-0.51548 -10.562653,-0.70087 -2.522362,-0.1854 -7.919861,-0.57742 -11.994445,-0.87117 -4.074583,-0.29374 -8.292574,-0.62954 -9.373316,-0.74622 l -1.964983,-0.21214 -0.846652,1.59596 c -1.075263,2.02689 -1.354194,1.86638 -0.320298,-0.18432 1.21665,-2.41317 3.611584,-5.61504 5.566865,-7.44252 2.1036,-1.9661 1.627904,-1.91498 10.81894,-1.16282 3.4925,0.28581 11.033125,0.84848 16.756942,1.25039 13.91831,0.97729 14.81667,1.06414 14.81667,1.43232 0,0.38799 -6.72591,8.796 -7.61292,9.51685 -0.42805,0.34788 -0.3626,0.14349 0.20029,-0.62545 z m -41.623482,-0.6217 c 0,-0.097 0.07937,-0.17639 0.176389,-0.17639 0.09701,0 0.176389,0.0794 0.176389,0.17639 0,0.097 -0.07937,0.17639 -0.176389,0.17639 -0.09701,0 -0.176389,-0.0794 -0.176389,-0.17639 z"
         id="path1266" /><path
         style="fill:#fc8800;stroke-width:0.352778"
         d="m 109.49358,119.29373 c 0,-0.097 0.0794,-0.17638 0.17639,-0.17638 0.097,0 0.17639,0.0794 0.17639,0.17638 0,0.097 -0.0794,0.17639 -0.17639,0.17639 -0.097,0 -0.17639,-0.0794 -0.17639,-0.17639 z m -0.88194,-1.23472 c 0.11991,-0.19403 0.2974,-0.35278 0.39441,-0.35278 0.097,0 0.0783,0.15875 -0.0416,0.35278 -0.11991,0.19403 -0.2974,0.35278 -0.39441,0.35278 -0.097,0 -0.0783,-0.15875 0.0416,-0.35278 z m 1.90972,-2.39751 c 1.28831,-1.66322 1.80841,-1.76749 0.95423,-0.19132 -0.29846,0.55074 -0.549,0.85767 -0.55677,0.68207 -0.008,-0.17559 -0.36452,-0.0168 -0.79277,0.35278 -0.4582,0.39547 -0.29551,0.0483 0.39531,-0.84353 z m 0.0306,1.16279 c 0,-0.097 0.0794,-0.17639 0.17639,-0.17639 0.097,0 0.17639,0.0794 0.17639,0.17639 0,0.097 -0.0794,0.17639 -0.17639,0.17639 -0.097,0 -0.17639,-0.0794 -0.17639,-0.17639 z m 5.29167,-6.70278 c 0,-0.097 0.0794,-0.17639 0.17639,-0.17639 0.097,0 0.17639,0.0794 0.17639,0.17639 0,0.097 -0.0794,0.17639 -0.17639,0.17639 -0.097,0 -0.17639,-0.0794 -0.17639,-0.17639 z m -3.70417,-0.52916 c 0.11992,-0.19403 0.29741,-0.35278 0.39442,-0.35278 0.097,0 0.0783,0.15875 -0.0416,0.35278 -0.11991,0.19402 -0.2974,0.35277 -0.39441,0.35277 -0.097,0 -0.0783,-0.15875 0.0416,-0.35277 z m 24.16528,0.17638 c 0,-0.097 0.0794,-0.17638 0.17639,-0.17638 0.097,0 0.17639,0.0794 0.17639,0.17638 0,0.097 -0.0794,0.17639 -0.17639,0.17639 -0.097,0 -0.17639,-0.0794 -0.17639,-0.17639 z m -0.35278,-1.23472 c 0,-0.2587 0.10584,-0.36453 0.23519,-0.23518 0.12935,0.12935 0.12935,0.34102 0,0.47037 -0.12935,0.12935 -0.23519,0.0235 -0.23519,-0.23519 z m -19.40277,-0.17639 c 0,-0.097 0.0794,-0.17639 0.17639,-0.17639 0.097,0 0.17638,0.0794 0.17638,0.17639 0,0.097 -0.0794,0.17639 -0.17638,0.17639 -0.097,0 -0.17639,-0.0794 -0.17639,-0.17639 z m -2.64584,-0.88194 c 0.35119,-0.38806 0.7179,-0.70556 0.81491,-0.70556 0.097,0 -0.11094,0.3175 -0.46213,0.70556 -0.35119,0.38805 -0.71789,0.70555 -0.81491,0.70555 -0.097,0 0.11095,-0.3175 0.46213,-0.70555 z m 21.47119,-0.78772 c -0.38641,-1.34888 -0.56567,-1.38389 -10.97219,-2.14312 l -6.08156,-0.44369 -0.32878,0.89351 c -0.22365,0.60778 -0.33769,0.69609 -0.35664,0.27616 -0.04,-0.88598 -0.71369,-0.76246 -1.92426,0.35278 l -1.05307,0.97013 0.76918,-1.01771 c 1.34098,-1.77426 2.72617,-1.5093 -14.04748,-2.68708 -5.723817,-0.40191 -13.264442,-0.96458 -16.756942,-1.25039 -9.247607,-0.75678 -8.696089,-0.82169 -11.045423,1.29983 -1.104046,0.99698 -0.568029,0.40167 1.191147,-1.32292 6.876768,-6.741557 10.365814,-8.096544 18.497331,-7.18352 1.649236,0.18518 5.617986,0.499462 8.819447,0.698401 16.1337,1.002559 14.81666,0.590169 14.81666,4.639395 0,2.517324 1.59863,2.161684 5.63317,-1.253205 l 2.13938,-1.81079 2.9047,0.241642 c 1.59758,0.132898 3.32894,0.254261 3.84745,0.269688 1.08237,0.03221 5.17702,9.724479 4.42568,10.475829 -0.0812,0.0812 -0.29621,-0.37103 -0.4778,-1.00494 z m -18.47258,0.61133 c 0,-0.097 0.0794,-0.17639 0.17639,-0.17639 0.097,0 0.17639,0.0794 0.17639,0.17639 0,0.097 -0.0794,0.17639 -0.17639,0.17639 -0.097,0 -0.17639,-0.0794 -0.17639,-0.17639 z m -46.91944,-0.35278 c 0,-0.097 0.07937,-0.17639 0.176389,-0.17639 0.09701,0 0.176389,0.0794 0.176389,0.17639 0,0.097 -0.07938,0.17639 -0.176389,0.17639 -0.09701,0 -0.176389,-0.0794 -0.176389,-0.17639 z m 47.27222,-0.52916 c 0,-0.25871 0.10584,-0.36454 0.23519,-0.23519 0.12935,0.12935 0.12935,0.34102 0,0.47037 -0.12935,0.12935 -0.23519,0.0235 -0.23519,-0.23518 z m -46.390275,-0.70556 c 0.119916,-0.19403 0.297402,-0.35278 0.394416,-0.35278 0.09701,0 0.07828,0.15875 -0.04164,0.35278 -0.119916,0.19403 -0.297402,0.35278 -0.394416,0.35278 -0.09701,0 -0.07828,-0.15875 0.04164,-0.35278 z"
         id="path1264" /><path
         style="fill:#fc7800;stroke-width:0.352778"
         d="m 134.18802,102.3604 c 0,-0.097 0.0794,-0.17639 0.17639,-0.17639 0.097,0 0.17639,0.0794 0.17639,0.17639 0,0.097 -0.0794,0.17639 -0.17639,0.17639 -0.097,0 -0.17639,-0.0794 -0.17639,-0.17639 z m -0.35277,-1.05833 c 0,-0.097 0.0794,-0.17639 0.17639,-0.17639 0.097,0 0.17638,0.0794 0.17638,0.17639 0,0.097 -0.0794,0.17639 -0.17638,0.17639 -0.097,0 -0.17639,-0.0794 -0.17639,-0.17639 z m -16.93334,-0.35278 c 0,-0.097 0.0794,-0.17639 0.17639,-0.17639 0.097,0 0.17639,0.0794 0.17639,0.17639 0,0.097 -0.0794,0.17639 -0.17639,0.17639 -0.097,0 -0.17639,-0.0794 -0.17639,-0.17639 z m 3.175,-0.70556 c 0,-0.097 0.0794,-0.17638 0.17639,-0.17638 0.097,0 0.17639,0.0794 0.17639,0.17638 0,0.097 -0.0794,0.17639 -0.17639,0.17639 -0.097,0 -0.17639,-0.0794 -0.17639,-0.17639 z m 13.40556,0 c 0,-0.097 0.0794,-0.17638 0.17639,-0.17638 0.097,0 0.17639,0.0794 0.17639,0.17638 0,0.097 -0.0794,0.17639 -0.17639,0.17639 -0.097,0 -0.17639,-0.0794 -0.17639,-0.17639 z m -10.48398,-2.596055 c 2.08684,-2.282395 3.70516,-5.05811 4.50254,-7.72269 0.56168,-1.876933 0.7939,-1.872851 1.91114,0.03358 1.03911,1.773104 3.78751,8.392492 3.57348,8.606526 -0.0794,0.07937 -0.24888,-0.185152 -0.37669,-0.58783 -0.15544,-0.489762 -0.54567,-0.741426 -1.17874,-0.760194 -0.5205,-0.01542 -2.26118,-0.137354 -3.86819,-0.270948 l -2.92182,-0.242898 -1.84068,1.587603 -1.84067,1.587598 z m 10.1312,1.714115 c 0,-0.258702 0.10583,-0.364535 0.23519,-0.235186 0.12935,0.129353 0.12935,0.34102 0,0.470373 -0.12936,0.129349 -0.23519,0.02352 -0.23519,-0.235187 z M 77.038026,99.185401 c 0,-0.09701 0.07937,-0.176388 0.176389,-0.176388 0.09701,0 0.176388,0.07937 0.176388,0.176388 0,0.09701 -0.07937,0.176389 -0.176388,0.176389 -0.09701,0 -0.176389,-0.07937 -0.176389,-0.176389 z m 1.411111,-1.058333 c 0,-0.09701 0.07938,-0.176389 0.176389,-0.176389 0.09701,0 0.176389,0.07938 0.176389,0.176389 0,0.09701 -0.07937,0.176389 -0.176389,0.176389 -0.09701,0 -0.176389,-0.07937 -0.176389,-0.176389 z m 1.058333,-0.705555 c 0,-0.09701 0.07937,-0.176389 0.176389,-0.176389 0.09701,0 0.176389,0.07937 0.176389,0.176389 0,0.09701 -0.07937,0.176389 -0.176389,0.176389 -0.09701,0 -0.176389,-0.07937 -0.176389,-0.176389 z m 37.04167,-0.503781 c 0,-0.863452 -0.40923,-0.914023 -14.46389,-1.787391 -3.201461,-0.198939 -7.170211,-0.513221 -8.819447,-0.698401 -5.592484,-0.627934 -7.530327,-0.557301 -9.042784,0.329607 l -1.36416,0.799945 1.234722,-1.000436 c 2.553049,-2.068611 5.266842,-4.829217 6.751461,-6.86792 l 1.535243,-2.108217 3.353178,0.191226 c 9.607487,0.547907 19.254567,1.301221 19.464727,1.519958 0.75603,0.786839 2.21355,10.301799 1.57806,10.301799 -0.12491,0 -0.22711,-0.306078 -0.22711,-0.68017 z M 80.565803,96.715957 c 0,-0.09701 0.07937,-0.176389 0.176389,-0.176389 0.09701,0 0.176389,0.07937 0.176389,0.176389 0,0.09701 -0.07937,0.176389 -0.176389,0.176389 -0.09701,0 -0.176389,-0.07937 -0.176389,-0.176389 z m 0.705556,-0.352778 c 0,-0.09701 0.07937,-0.176389 0.176389,-0.176389 0.09701,0 0.176389,0.07937 0.176389,0.176389 0,0.09701 -0.07937,0.176389 -0.176389,0.176389 -0.09701,0 -0.176389,-0.07937 -0.176389,-0.176389 z m 0.881944,-0.529166 c 0.119917,-0.194028 0.297403,-0.352778 0.394416,-0.352778 0.09701,0 0.07828,0.15875 -0.04164,0.352778 -0.119916,0.194027 -0.297402,0.352777 -0.394416,0.352777 -0.09701,0 -0.07828,-0.15875 0.04164,-0.352777 z"
         id="path1260" /><path
         style="fill:#fc6700;stroke-width:0.352778"
         d="m 126.77969,91.42429 c 0,-0.09701 0.0794,-0.176388 0.17639,-0.176388 0.097,0 0.17639,0.07937 0.17639,0.176388 0,0.09701 -0.0794,0.176389 -0.17639,0.176389 -0.097,0 -0.17639,-0.07937 -0.17639,-0.176389 z m 0.35278,-1.058333 c 0,-0.09701 0.0794,-0.176389 0.17639,-0.176389 0.097,0 0.17639,0.07937 0.17639,0.176389 0,0.09701 -0.0794,0.176389 -0.17639,0.176389 -0.097,0 -0.17639,-0.07937 -0.17639,-0.176389 z m 2.46944,0 c 0,-0.09701 0.0794,-0.176389 0.17639,-0.176389 0.097,0 0.17639,0.07937 0.17639,0.176389 0,0.09701 -0.0794,0.176389 -0.17639,0.176389 -0.097,0 -0.17639,-0.07937 -0.17639,-0.176389 z m -13.73048,-1.08773 c 0.0169,-0.410969 0.10052,-0.494559 0.21314,-0.213138 0.1019,0.25466 0.0894,0.558931 -0.0278,0.676159 -0.11722,0.117224 -0.2006,-0.09114 -0.18528,-0.463021 z m 13.02493,-0.146992 c -0.45874,-0.857158 -1.05833,-0.92378 -1.05833,-0.117591 0,0.323377 -0.0819,0.506087 -0.18194,0.406022 -0.10007,-0.100065 -0.0431,-0.801211 0.12668,-1.558103 l 0.30862,-1.376161 0.40278,0.993888 c 0.22153,0.546636 0.56698,1.300698 0.76768,1.675694 0.20068,0.374992 0.28551,0.681806 0.1885,0.681806 -0.097,0 -0.34631,-0.3175 -0.55399,-0.705555 z m -39.511112,0.176389 c 0,-0.09701 0.07937,-0.176389 0.176389,-0.176389 0.09701,0 0.176388,0.07937 0.176388,0.176389 0,0.09701 -0.07937,0.176389 -0.176388,0.176389 -0.09701,0 -0.176389,-0.07937 -0.176389,-0.176389 z m 26.146482,-1.302096 c -0.0629,-0.91645 -0.11992,-0.926465 -8.53804,-1.498886 -15.312797,-1.041251 -14.502111,-1.034813 -15.23688,-0.121031 -0.588225,0.731534 -0.584348,0.675626 0.04228,-0.610034 0.766911,-1.573462 2.004978,-5.631426 2.339672,-7.668647 0.261115,-1.589353 -0.300768,-1.54437 9.886768,-0.791556 3.88055,0.286755 7.2473,0.522633 7.48165,0.524175 1.03243,0.0068 4.62141,8.68367 4.21711,10.195478 -0.13252,0.495516 -0.1568,0.491794 -0.19256,-0.02949 z M 90.61997,87.720124 c 0.119916,-0.194028 0.297402,-0.352778 0.394416,-0.352778 0.09701,0 0.07828,0.15875 -0.04164,0.352778 -0.119917,0.194028 -0.297403,0.352778 -0.394416,0.352778 -0.09701,0 -0.07828,-0.15875 0.04164,-0.352778 z"
         id="path1256" /><path
         style="display:inline;fill:#fc5500;stroke-width:0.352778"
         d="m 113.37414,80.488179 c 0,-0.09701 0.0794,-0.176388 0.17639,-0.176388 0.097,0 0.17638,0.07937 0.17638,0.176388 0,0.09701 -0.0794,0.176389 -0.17638,0.176389 -0.097,0 -0.17639,-0.07937 -0.17639,-0.176389 z m -19.727707,-1.08773 c 0.01693,-0.410968 0.10052,-0.494559 0.213134,-0.213138 0.101907,0.25466 0.08938,0.558931 -0.02783,0.676159 -0.117228,0.117225 -0.200604,-0.09114 -0.185286,-0.463021 z m 19.374927,0.382175 c 0,-0.09701 0.0794,-0.176389 0.17639,-0.176389 0.097,0 0.17639,0.07937 0.17639,0.176389 0,0.09701 -0.0794,0.176389 -0.17639,0.176389 -0.097,0 -0.17639,-0.07937 -0.17639,-0.176389 z m -0.75072,-1.225712 c -0.43426,-0.62496 -1.25996,-0.751858 -8.03398,-1.234723 -9.713546,-0.6924 -9.903147,-0.69089 -9.950429,0.07919 -0.02085,0.339549 -0.24734,-0.81655 -0.503319,-2.569108 -0.598272,-4.096099 -1.86514,-7.42636 -4.050118,-10.646706 l -1.744398,-2.570991 h 1.188131 c 8.10527,0 19.935113,8.419711 23.419873,16.668749 0.48182,1.140556 0.35226,1.249366 -0.32576,0.273594 z"
         id="path1254" /><g
         transform="matrix(0.03527778,0,0,-0.03527778,-60.368014,190.86812)"
         fill="#000000"
         stroke="none"
         id="g1744" /></g></g></svg>
