<?xml version="1.0" encoding="UTF-8" standalone="no"?>
<!-- Created with Inkscape (http://www.inkscape.org/) -->

<svg
   width="118.73653mm"
   height="110.00703mm"
   viewBox="-60 -60 118.73653 110.00703"
   version="1.1"
   id="svg263"
   xml:space="preserve"
   sodipodi:docname="gateway.svg"
   inkscape:version="1.2.2 (b0a8486541, 2022-12-01)"
   xmlns:inkscape="http://www.inkscape.org/namespaces/inkscape"
   xmlns:sodipodi="http://sodipodi.sourceforge.net/DTD/sodipodi-0.dtd"
   xmlns="http://www.w3.org/2000/svg"
   xmlns:svg="http://www.w3.org/2000/svg"
   xmlns:rdf="http://www.w3.org/1999/02/22-rdf-syntax-ns#"
   xmlns:cc="http://creativecommons.org/ns#"
   xmlns:dc="http://purl.org/dc/elements/1.1/"><sodipodi:namedview
     id="namedview808"
     pagecolor="#ffffff"
     bordercolor="#000000"
     borderopacity="0.25"
     inkscape:showpageshadow="2"
     inkscape:pageopacity="0.0"
     inkscape:pagecheckerboard="0"
     inkscape:deskcolor="#d1d1d1"
     inkscape:document-units="mm"
     showgrid="false"
     inkscape:zoom="1.9138194"
     inkscape:cx="224.15908"
     inkscape:cy="206.91607"
     inkscape:window-width="1880"
     inkscape:window-height="1056"
     inkscape:window-x="40"
     inkscape:window-y="0"
     inkscape:window-maximized="1"
     inkscape:current-layer="svg263" /><defs
     id="defs265" /><metadata
     id="metadata2822"><rdf:RDF><cc:Work
         rdf:about=""><dc:format>image/svg+xml</dc:format><dc:type
           rdf:resource="http://purl.org/dc/dcmitype/StillImage" /></cc:Work></rdf:RDF></metadata><g
     id="Template"
     style="fill:none;stroke:#000000;stroke-width:0.05"
     transform="translate(-0.62777937,-5.2316608)"><path
       style="fill:#55bdaa;fill-opacity:0.992157;stroke-width:0.00319838"
       d=""
       id="path7292" /><path
       style="fill:#000000;stroke-width:0.245912"
       d="m -0.21418402,49.92407 -9.90428798,-5.180728 -2.88313,-0.200544 C -19.841801,44.067003 -25.454086,42.564434 -31.623095,39.557279 -46.87838,32.120915 -57.096877,17.501413 -59.058506,0.30569281 -59.427858,-2.9320931 -59.231292,-10.106608 -58.690993,-13.10768 c 1.940268,-10.777282 6.446256,-19.518109 13.889245,-26.942667 8.805414,-8.783608 19.594335,-13.662328 32.038213,-14.487581 23.555982,-1.562182 45.237757,14.063304 51.126913,36.845821 1.432058,5.539996 2.007145,12.1738859 1.463314,16.88002051 -0.156291,1.35251366 -0.349114,3.70404639 -0.428487,5.22562639 l -0.14432,2.7665092 h 9.45904 9.459044 l 0.534691,0.5691494 c 0.527404,0.5613981 0.534688,0.683424 0.534688,8.9579385 v 8.388782 l -0.647944,0.509673 c -0.629595,0.49524 -0.911607,0.509673 -9.95943,0.509673 h -9.311489 v 3.281696 c 0,3.713885 -0.165383,4.095659 -1.774216,4.095659 -0.737098,0 -1.45762,-0.445146 -4.577428,-2.827986 -2.036445,-1.555394 -3.764286,-2.827986 -3.839641,-2.827986 -0.07535,0 -0.137012,3.528873 -0.137012,7.841938 0,7.353056 -0.02929,7.878129 -0.469831,8.42248 l -0.469828,0.580545 -7.768221,0.0714 -7.768216,0.07141 v 4.432649 c 0,5.380622 -0.16753,5.879464 -1.967296,5.857987 -0.630885,-0.0075 -3.5051757,-1.393545 -10.76498002,-5.190994 z M 8.8294129,25.256656 C 8.8294129,1.7500707 8.8043949,0.28357551 8.3990657,0.03888781 8.1623782,-0.10400139 4.3994053,-2.0810323 0.03690508,-4.354512 l -7.93181038,-4.1336034 0.062627,25.0818864 0.062627,25.081888 8.1150924,4.252089 c 4.4633018,2.338648 8.1980885,4.259916 8.2995274,4.269485 0.1014398,0.0096 0.1844328,-11.213692 0.1844328,-24.940577 z M 3.4969046,25.135196 C 2.6226888,24.774349 2.4357039,24.08329 2.4357039,21.213192 c 0,-3.135693 0.2833331,-3.704842 1.8443398,-3.704842 1.5707558,0 1.8443389,0.56136 1.8443389,3.784391 0,2.309686 -0.075451,2.889912 -0.4303452,3.309323 -0.5152762,0.608949 -1.4587912,0.837893 -2.1971328,0.533132 z M -11.581274,29.151237 V 17.4325 l -3.258332,0.150354 c -3.600198,0.166131 -7.538775,0.657953 -11.542097,1.441292 l -2.62779,0.514184 0.851773,2.353061 c 1.134444,3.133952 3.205586,7.337144 4.807753,9.75689 1.686033,2.546415 4.730342,5.707292 6.787983,7.047896 1.226695,0.799225 4.152255,2.088247 4.919231,2.167452 0.03381,0.0036 0.06148,-5.267084 0.06148,-11.712392 z M 25.29418,32.816363 25.28284,24.762748 20.716451,21.3229 c -2.672126,-2.012909 -4.659986,-3.686034 -4.792024,-4.033315 -0.453816,-1.19363 0.04874,-1.760856 4.72584,-5.333969 l 4.532283,-3.4624802 0.0645,-9.01754709 0.0645,-9.01754741 -13.466705,0.0035 -13.466705,0.0035 1.72138373,0.934704 c 0.94676057,0.5140867 4.02406247,2.1269382 6.83844897,3.5841156 3.9375953,2.0387308 5.1704303,2.7897702 5.3485843,3.2583468 0.138189,0.3634504 0.231515,9.0780767 0.231515,21.6183783 v 21.00942 h 6.39371 6.393709 l -0.01134,-8.053621 z m -48.683351,4.918239 c -3.126873,-3.407574 -6.385433,-9.153706 -8.338569,-14.704195 l -0.88752,-2.522193 -1.717122,0.556627 c -3.637508,1.17914 -9.709264,3.876977 -9.709264,4.314068 0,0.286026 4.701275,4.735127 6.27076,5.934403 3.976836,3.038782 8.361168,5.42012 13.088971,7.109238 1.457164,0.520605 2.686855,0.95227 2.732648,0.959254 0.04579,0.007 -0.602161,-0.734254 -1.439904,-1.647202 z M 36.227558,22.941646 c 0.457696,-0.505748 0.636626,-0.515061 9.895618,-0.515061 h 9.429493 v -5.778929 -5.778928 h -9.317408 c -11.240299,0 -10.433026,0.24261 -10.564444,-3.1749713 -0.04727,-1.229301 -0.130628,-2.2350909 -0.185242,-2.2350909 -0.159837,0 -14.333413,10.8231502 -14.476262,11.0542822 -0.0714,0.11552 3.162243,2.716233 7.185866,5.779361 l 7.315674,5.569324 0.125291,-2.202465 c 0.09641,-1.69476 0.232737,-2.321189 0.591414,-2.717522 z M -44.72111,21.328317 c 1.937216,-1.064824 6.046165,-2.789964 8.794556,-3.692392 1.149646,-0.377483 2.125834,-0.71607 2.169316,-0.752422 0.0435,-0.03635 -0.200617,-1.32155 -0.542456,-2.856001 -0.953703,-4.2809943 -1.623008,-9.2898888 -1.793972,-13.42559549 l -0.155023,-3.75015581 h -9.675407 c -9.426704,0 -9.675406,0.012325 -9.675406,0.4792277 0,0.2635751 0.170013,1.78515481 0.377798,3.38128898 0.680097,5.22412762 2.136001,10.04502962 4.421489,14.64079662 1.449052,2.913815 3.905622,6.827611 4.285469,6.827611 0.133636,0 0.940772,-0.383563 1.793636,-0.852358 z m 23.180405,-6.88756 c 1.623019,-0.21736 4.527852,-0.462939 6.455185,-0.545728 L -11.581274,13.7445 V 5.298124 -3.1482493 H -22.07081 -32.56035 l 0.16076,3.50424311 c 0.207006,4.51220849 1.105229,10.67264519 2.145645,14.71582919 l 0.227294,0.883282 2.767502,-0.559571 c 1.522124,-0.307762 4.095426,-0.737412 5.718444,-0.954777 z M 32.49544,2.9546427 c 1.79373,-1.3772103 3.342626,-2.62214019 3.441992,-2.76650899 0.09937,-0.1443663 0.182364,-0.954113 0.184434,-1.79943341 l 0.0038,-1.5369496 H 32.559901 28.99418 v 4.3034568 c 0,2.3669025 0.05398,4.3034583 0.119964,4.3034583 0.06598,0 1.587562,-1.1268092 3.381289,-2.5040231 z M -36.125122,-10.528453 c 0.194164,-4.068784 0.916901,-9.408126 1.825238,-13.484229 0.341938,-1.53445 0.586137,-2.819648 0.542646,-2.855999 -0.0435,-0.03635 -1.01967,-0.37494 -2.169316,-0.752422 -2.748391,-0.902428 -6.85734,-2.627569 -8.794556,-3.692391 -0.852864,-0.468798 -1.650494,-0.852358 -1.772503,-0.852358 -0.372913,0 -2.827942,3.901249 -4.256197,6.763465 -2.328706,4.666723 -3.779426,9.439793 -4.469393,14.704942 -0.209163,1.5961313 -0.380299,3.1189968 -0.380299,3.38414 0,0.4717443 0.207069,0.4807047 9.652042,0.4177531 l 9.652044,-0.064333 z m 24.543848,1.2439743 c 0,-2.7973463 0.255247,-3.5696613 1.300151,-3.9339163 0.4751172,-0.165628 4.7503196,-0.258155 11.9281416,-0.258155 H 12.834628 l -0.155534,-1.673494 c -0.197054,-2.120222 -0.750277,-5.405154 -1.418951,-8.425469 l -0.520882,-2.352742 -2.7377839,0.553556 c -11.3435128,2.293558 -25.3023901,2.240435 -35.9898071,-0.136965 -1.857681,-0.413238 -2.030741,-0.417094 -2.138969,-0.04766 -0.952298,3.250667 -2.086138,10.869382 -2.283112,15.341103 l -0.148942,3.381289 h 10.489036 10.489043 z m 47.628547,0.125376 c -0.293011,-4.4606383 -1.673332,-9.7744253 -3.766247,-14.4988253 -1.059269,-2.391117 -3.578754,-6.82834 -4.53817,-7.992442 l -0.487182,-0.591118 -3.478754,1.682378 c -1.913316,0.925308 -4.840206,2.142903 -6.504198,2.705766 -1.663994,0.562863 -2.976101,1.072732 -2.91579,1.133041 0.210376,0.210378 1.587114,7.483 1.855367,9.800988 0.148695,1.284888 0.319601,2.57937 0.379787,2.876623 0.108381,0.535267 0.163985,0.541177 5.786067,0.614779 7.001756,0.09167 6.616035,-0.136475 6.616035,3.9131963 v 2.6777885 h 3.602809 3.602814 z M -5.463728,-27.494181 c 2.3502592,-0.130442 5.60230792,-0.410622 7.226767,-0.622615 2.9566183,-0.385844 7.5481449,-1.252004 7.7600145,-1.463874 0.1965193,-0.196517 -1.1878386,-3.835612 -2.5668814,-6.747624 -4.4372383,-9.369736 -10.4177616,-14.539458 -16.7992186,-14.521674 -5.9060815,0.01645 -11.9969385,5.320344 -16.2737865,14.171119 -1.324383,2.740764 -3.020028,7.216681 -2.735333,7.220341 0.09901,0.0012 1.231289,0.211591 2.516179,0.467372 3.85222,0.76686 7.972402,1.285654 11.776402,1.482832 1.976199,0.102439 3.869741,0.200887 4.20787,0.218774 0.338128,0.01789 2.5377226,-0.0742 4.887987,-0.204651 z m -26.177419,-5.718039 c 1.844924,-5.283185 5.205784,-11.184685 8.293758,-14.563423 0.682693,-0.74697 1.124982,-1.358127 0.98287,-1.358127 -0.401309,0 -4.641615,1.584346 -6.521094,2.436539 -2.373458,1.076171 -5.839149,3.152853 -8.271821,4.956566 -2.015941,1.494728 -6.884212,6.017195 -6.884212,6.395212 0,0.450471 9.727397,4.647104 11.311953,4.880245 0.06761,0.01 0.557473,-1.226205 1.088546,-2.747012 z m 50.373866,0.795278 c 1.383383,-0.549524 3.328394,-1.416324 4.322243,-1.926219 l 1.807003,-0.927085 -1.282735,-1.403516 c -3.008768,-3.292071 -8.111627,-7.035623 -12.807443,-9.39577 -2.2695842,-1.14071 -7.5521936,-3.194097 -7.7364117,-3.007199 -0.035733,0.03626 0.5984036,0.840539 1.409198,1.7873 0.8107925,0.946761 2.0275474,2.551335 2.7039007,3.565722 1.5738078,2.360386 4.374544,8.080296 5.372717,10.972642 l 0.774003,2.242771 1.461139,-0.454756 c 0.803628,-0.250119 2.593003,-0.904368 3.976386,-1.45389 z"
       id="path33455" /><path
       style="fill:#808080;fill-opacity:1;fill-rule:nonzero;stroke-width:0.200022"
       d="m 0.38600285,45.820744 -8.14547475,-4.234571 -0.00542,-24.937929 -0.00542,-24.9379254 2.7582989,1.4353836 c 1.5170677,0.7894615 5.16026739,2.6955201 8.0960057,4.2356875 L 8.421696,0.18169321 8.5345077,0.98177974 C 8.5965637,1.421827 8.6212626,12.64339 8.589388,25.91859 L 8.5314508,50.055315 Z M 5.5700039,24.801672 6.1312188,24.318938 v -2.876426 c 0,-3.629487 -0.1490061,-3.958948 -1.7905185,-3.958948 -1.8187193,0 -1.971202,0.346067 -1.8758006,4.257165 0.056583,2.319855 0.1199244,2.762463 0.4469682,3.123283 0.5526283,0.609711 1.9139466,0.577784 2.658136,-0.06234 z"
       id="path33526" /><path
       style="fill:#6eb0ea;fill-opacity:1;fill-rule:nonzero;stroke-width:0.200022"
       d="m -54.925387,-7.046831 c -0.668388,-0.1201006 -0.6676,-0.1008825 -0.153582,-3.719399 0.939611,-6.614567 2.946263,-12.36094 6.200163,-17.755182 1.510008,-2.503259 2.167611,-3.400369 2.492566,-3.400369 0.132422,0 0.729307,0.263904 1.326401,0.58645 1.760295,0.950896 5.898572,2.696542 8.586444,3.622016 1.375156,0.473482 2.529858,0.882481 2.566018,0.908888 0.03616,0.02641 -0.207632,1.383572 -0.541758,3.015928 -1.037315,5.06782 -1.812686,11.341864 -1.825229,14.7691953 -0.0027,0.7700845 -0.08038,1.5188366 -0.172369,1.6638982 -0.133174,0.2100348 -1.975712,0.2783718 -9.047917,0.3355784 -4.884375,0.039507 -9.128202,0.027356 -9.430737,-0.027004 z"
       id="path34445" /><path
       style="fill:#6eb0ea;fill-opacity:1;fill-rule:nonzero;stroke-width:0.200022"
       d="m -36.873433,-32.100398 c -3.66725,-1.508219 -6.110036,-2.629122 -6.671415,-3.061267 -0.345816,-0.266211 -0.204695,-0.443709 2.100232,-2.641558 5.069024,-4.833547 9.732083,-7.781672 16.144759,-10.207187 1.359926,-0.514376 2.509363,-0.898459 2.554302,-0.853518 0.04494,0.04494 -0.476225,0.747471 -1.158148,1.561177 -1.784937,2.129881 -3.81964,5.294537 -5.295518,8.236332 -1.218536,2.428853 -1.704174,3.559306 -2.961889,6.894613 -0.450543,1.19477 -0.623021,1.448269 -0.979405,1.439446 -0.23791,-0.0059 -1.917721,-0.621509 -3.732918,-1.368038 z"
       id="path34447" /><path
       style="fill:#6eb0ea;fill-opacity:1;fill-rule:nonzero;stroke-width:0.200022"
       d="m -47.957763,20.033839 c -2.821609,-4.273588 -5.287459,-10.1128971 -6.398298,-15.1516387 -0.615717,-2.7928947 -1.252441,-7.5344397 -1.04026,-7.7466228 0.08474,-0.084687 4.421996,-0.1864045 9.638468,-0.22604 l 9.484486,-0.072063 v 1.5821215 c 0,3.9442048 0.759059,10.3749044 1.81131,15.345169 0.323921,1.530049 0.588945,2.85027 0.588945,2.933826 0,0.08356 -0.877588,0.443889 -1.95021,0.80074 -2.623256,0.872735 -6.19584,2.352601 -8.637656,3.577959 -1.103426,0.553725 -2.03703,1.006773 -2.074685,1.006773 -0.0377,0 -0.677596,-0.922602 -1.4221,-2.050224 z"
       id="path34589" /><path
       style="fill:#6eb0ea;fill-opacity:1;fill-rule:nonzero;stroke-width:0.200022"
       d="m -25.272179,38.079841 c -4.568914,-1.726476 -10.01552,-4.834359 -13.191999,-7.527469 -1.241104,-1.052238 -4.268848,-3.933892 -5.090068,-4.844461 l -0.380118,-0.421487 2.680369,-1.283215 c 2.552251,-1.221877 7.336368,-3.073561 8.19738,-3.172784 0.346243,-0.0399 0.543843,0.336148 1.391851,2.648892 1.791845,4.886857 4.742872,10.231788 7.40361,13.409511 1.713902,2.046914 1.680397,1.998005 1.36372,1.990843 -0.150985,-0.0035 -1.21962,-0.363338 -2.374745,-0.79983 z"
       id="path34591" /><path
       style="fill:#6eb0ea;fill-opacity:1;fill-rule:nonzero;stroke-width:0.200022"
       d="m -13.708779,40.009685 c -2.581641,-1.127156 -3.369264,-1.689357 -5.888846,-4.203405 -2.627743,-2.621976 -4.056511,-4.601227 -5.869838,-8.1314 -1.264217,-2.461172 -3.438639,-7.83763 -3.242946,-8.018484 0.422925,-0.390857 9.177324,-1.674209 12.739236,-1.867512 1.21013,-0.06567 2.672789,-0.167713 3.250349,-0.226754 l 1.050115,-0.107352 v 11.61565 c 0,9.160472 -0.05284,11.615131 -0.250028,11.613205 -0.137513,-0.0014 -0.942134,-0.30462 -1.788042,-0.673948 z"
       id="path34593" /><path
       style="fill:#6eb0ea;fill-opacity:1;fill-rule:nonzero;stroke-width:0.200022"
       d="m -29.979544,15.609748 c -0.476099,-1.414877 -1.322411,-5.9091307 -1.78354,-9.4712931 -0.242051,-1.8697903 -0.705627,-7.7576338 -0.70916,-9.0070927 -4.81e-4,-0.1968253 2.212479,-0.2500275 10.400411,-0.2500275 h 10.401124 v 8.3667615 8.3667618 l -4.036642,0.23597 c -4.189875,0.244925 -8.044244,0.737909 -11.930422,1.525929 -1.6012,0.324682 -2.287926,0.393008 -2.341771,0.232991 z"
       id="path34595" /><path
       style="fill:#6eb0ea;fill-opacity:1;fill-rule:nonzero;stroke-width:0.200022"
       d="m -32.372059,-9.1693197 c 0.328309,-6.0361513 1.856225,-16.0542853 2.510163,-16.4584403 0.09806,-0.06061 1.553408,0.158474 3.234098,0.486848 10.186837,1.990307 22.9711739,2.025351 33.3590819,0.09144 4.3546181,-0.810695 3.9247051,-0.795563 4.0627531,-0.142994 1.045177,4.940694 1.937893,10.234187 1.937893,11.491007 0,0.106465 -4.4920024,0.18781 -10.8511715,0.196497 -5.9681461,0.0081 -11.2468074,0.07566 -11.7303531,0.150016 -1.4640294,0.225121 -1.7071034,0.747581 -1.7911954,3.8500043 l -0.0701,2.5858686 h -10.391781 -10.391777 z"
       id="path34597" /><path
       style="fill:#6eb0ea;fill-opacity:1;fill-rule:nonzero;stroke-width:0.200022"
       d="m -13.670924,-27.541363 c -3.402337,-0.204373 -7.628172,-0.679125 -10.601149,-1.190986 -4.021959,-0.692469 -4.400475,-0.790305 -4.400475,-1.1374 0,-0.551394 2.190291,-5.86441 3.237259,-7.852658 2.235358,-4.245066 5.196902,-7.979144 8.033806,-10.129459 1.466229,-1.111372 4.019186,-2.343938 5.490591,-2.650855 2.5673632,-0.535518 4.8463133,-0.160763 7.7409964,1.272948 3.79942823,1.881822 7.1841104,5.643727 10.1735037,11.307344 1.1768595,2.229641 3.3279549,7.392929 3.3279549,7.98811 0,0.403781 -1.3036394,0.730217 -5.6006052,1.402406 -3.42563277,0.535888 -12.8864069,1.310263 -14.4015588,1.178788 -0.165017,-0.01432 -1.515164,-0.09903 -3.000323,-0.188238 z"
       id="path34599" /><path
       style="fill:#6eb0ea;fill-opacity:1;fill-rule:nonzero;stroke-width:0.200022"
       d="M 12.634624,-32.771873 C 11.584693,-35.673699 8.6058756,-41.69587 7.1682409,-43.823067 6.4990913,-44.813174 5.3703388,-46.34334 4.659904,-47.223436 3.9494673,-48.10353 3.3937947,-48.85009 3.4250774,-48.882457 c 0.031275,-0.03237 1.3505327,0.44502 2.9316738,1.060859 4.8116548,1.874095 9.0479548,4.303284 12.9758958,7.440671 1.785131,1.425847 5.200562,4.724067 5.200562,5.022088 0,0.199092 -3.521798,1.898102 -5.900639,2.846625 -1.69465,0.675713 -4.879913,1.790564 -5.115858,1.790564 -0.07715,0 -0.474094,-0.922601 -0.882088,-2.050223 z"
       id="path34601" /><path
       style="fill:#6eb0ea;fill-opacity:1;fill-rule:nonzero;stroke-width:0.200022"
       d="m 29.133706,-9.2894877 c 0,-1.3037253 -0.09449,-2.6414653 -0.209977,-2.9727533 -0.359645,-1.031677 -0.809744,-1.117325 -6.530822,-1.242705 -3.414367,-0.07483 -5.317704,-0.191944 -5.461786,-0.336073 -0.121632,-0.121671 -0.440717,-1.741846 -0.709081,-3.600389 -0.268364,-1.858545 -0.753752,-4.684313 -1.078638,-6.279486 -0.324887,-1.595173 -0.527824,-2.954539 -0.450972,-3.020817 0.07685,-0.06627 1.084831,-0.461502 2.239956,-0.878282 2.35841,-0.850934 5.546551,-2.196852 8.442502,-3.564116 l 1.941803,-0.916783 0.884218,1.339691 c 2.24949,3.408236 4.261131,7.478226 5.508388,11.144687 1.260618,3.705735 1.872677,6.718794 2.325351,11.4473025 l 0.119679,1.2501373 h -3.51031 -3.510311 z"
       id="path34603" /><path
       style="fill:#6eb0ea;fill-opacity:1;fill-rule:nonzero;stroke-width:0.200022"
       d="m 29.133706,1.0942194 v -4.2128847 h 3.408458 3.408456 L 35.89253,-1.4731365 35.83444,0.17238981 33.349892,2.117964 C 31.98339,3.1880327 30.475725,4.3433416 29.999528,4.6853196 l -0.865814,0.6217818 z"
       id="path34605" /><path
       style="fill:#008000;fill-opacity:1;fill-rule:nonzero;stroke-width:0.200022"
       d="m 33.818449,26.422377 c -0.761412,-0.584251 -3.3646,-2.580201 -5.784863,-4.435446 -2.420261,-1.855244 -4.960138,-3.845686 -5.644172,-4.423204 l -1.243698,-1.050032 4.144013,-3.18233 c 2.279205,-1.750279 5.494155,-4.2050776 7.144332,-5.4551027 l 3.000326,-2.2727774 0.109101,2.1198419 c 0.06722,1.3062435 0.209883,2.2412725 0.37169,2.4362352 0.533414,0.642725 1.690741,0.721054 10.670416,0.722174 l 8.950969,0.0012 v 5.683642 5.683644 l -9.351012,0.07734 c -5.143057,0.04254 -9.496337,0.145135 -9.673958,0.227998 -0.551656,0.257358 -0.823316,1.157252 -0.929486,3.078973 -0.05622,1.017608 -0.164554,1.850199 -0.240745,1.850199 -0.07619,0 -0.761498,-0.47802 -1.522913,-1.06227 z"
       id="path34609" /></g></svg>
