<?xml version="1.0" encoding="UTF-8" standalone="no"?>
<!-- Uploaded to: SVG Repo, www.svgrepo.com, Generator: SVG Repo Mixer Tools -->

<svg
   version="1.1"
   id="_x32_"
   viewBox="0 0 512 512"
   xml:space="preserve"
   xmlns="http://www.w3.org/2000/svg"
   xmlns:svg="http://www.w3.org/2000/svg"><defs
   id="defs27" />
<style
   type="text/css"
   id="style2">
	.st0{fill:#000000;}
</style>

<path
   style="fill:#000000;stroke-width:1.05795"
   d="m 256.68499,470.09144 -42.60964,-22.28823 -12.40364,-0.86276 c -29.4275,-2.04694 -53.57234,-8.51121 -80.11228,-21.44841 C 55.929009,393.49975 11.967614,330.60459 3.5283983,256.62617 1.9393711,242.69676 2.7850529,211.83099 5.1094691,198.91994 13.456792,152.55455 32.84221,114.95028 64.862975,83.008789 102.7451,45.220466 149.16059,24.231521 202.69591,20.681165 304.03707,13.960439 397.31513,81.18348 422.65111,179.19709 c 6.16092,23.83385 8.63502,52.37378 6.29538,72.62024 -0.67238,5.8187 -1.50194,15.93533 -1.84341,22.48138 l -0.62088,11.90191 h 40.69412 40.69414 l 2.30032,2.44856 c 2.26897,2.41522 2.30031,2.94019 2.30031,38.53832 v 36.08973 l -2.78755,2.19268 c -2.70861,2.13059 -3.92186,2.19268 -42.84688,2.19268 h -40.05933 v 14.11833 c 0,15.97765 -0.7115,17.6201 -7.63293,17.6201 -3.1711,0 -6.27089,-1.91508 -19.69274,-12.1664 -8.76108,-6.69152 -16.19449,-12.16639 -16.51868,-12.16639 -0.3242,0 -0.58945,15.18171 -0.58945,33.73712 0,31.63389 -0.12602,33.89283 -2.02128,36.23471 l -2.02127,2.49758 -33.41998,0.30721 -33.41996,0.30721 v 19.06988 c 0,23.1482 -0.72074,25.29429 -8.46359,25.20189 -2.71415,-0.0324 -15.07976,-5.99523 -46.31246,-22.33239 z m 38.90683,-106.1227 c 0,-101.12865 -0.10767,-107.43772 -1.85141,-108.4904 -1.01827,-0.61473 -17.20711,-9.1202 -35.9752,-18.90103 l -34.12377,-17.78335 0.26945,107.90582 0.26946,107.90582 34.91227,18.2931 c 19.20176,10.06119 35.26934,18.32676 35.70574,18.36793 0.4364,0.0412 0.79346,-48.2429 0.79346,-107.29789 z m -22.9412,-0.52254 c -3.76101,-1.55241 -4.56544,-4.52545 -4.56544,-16.87302 0,-13.49019 1.21894,-15.93875 7.93461,-15.93875 6.75761,0 7.93461,2.41505 7.93461,16.28099 0,9.93659 -0.32462,12.4328 -1.85141,14.23717 -2.21679,2.61979 -6.27593,3.60474 -9.45237,2.29361 z m -64.86846,17.27758 v -50.41567 l -14.0178,0.64685 c -15.48856,0.71472 -32.43288,2.8306 -49.65574,6.20064 l -11.30512,2.2121 3.66445,10.12319 c 4.88054,13.48271 13.79088,31.56543 20.68363,41.97552 7.25355,10.95504 20.35061,24.55358 29.20286,30.32105 5.27743,3.43838 17.8636,8.98393 21.16323,9.32468 0.14547,0.0151 0.26449,-22.65974 0.26449,-50.38836 z m 158.64341,15.76789 -0.0488,-34.64779 -19.64525,-14.79871 c -11.49587,-8.65982 -20.04792,-15.85784 -20.61597,-17.3519 -1.95238,-5.13516 0.2097,-7.57545 20.33123,-22.94748 l 19.49852,-14.89608 0.27753,-38.79476 0.27752,-38.79476 -57.93567,0.0149 -57.93567,0.015 7.40564,4.02123 c 4.0731,2.21167 17.31208,9.15039 29.41997,15.41937 16.94009,8.77091 22.24393,12.00198 23.01037,14.01787 0.59451,1.56361 0.99601,39.05517 0.99601,93.00531 v 90.38566 h 27.50664 27.50664 l -0.0488,-34.64778 z M 156.98292,417.65062 C 143.53067,402.99076 129.51188,378.27009 121.10921,354.3911 l -3.81824,-10.85083 -7.3873,2.39469 c -15.649068,5.07283 -41.770611,16.6793 -41.770611,18.55973 0,1.23052 20.225527,20.37118 26.977666,25.53063 17.108925,13.07328 35.970955,23.31813 56.310625,30.58496 6.26893,2.23971 11.55923,4.09679 11.75624,4.12684 0.19703,0.03 -2.59058,-3.15887 -6.19467,-7.0865 z m 256.47959,-63.64138 c 1.96907,-2.1758 2.73886,-2.21586 42.57235,-2.21586 h 40.56701 v -24.86177 -24.86177 h -40.08481 c -48.35735,0 -44.88435,1.04375 -45.44973,-13.65917 -0.20335,-5.28863 -0.56198,-9.61568 -0.79693,-9.61568 -0.68765,0 -61.66438,46.56272 -62.27893,47.55708 -0.30715,0.49698 13.60442,11.68562 30.91461,24.86363 l 31.47306,23.96002 0.53903,-9.47532 c 0.41476,-7.29109 1.00126,-9.98608 2.54434,-11.69116 z M 65.209908,347.06847 c 8.334152,-4.58102 26.011431,-12.00282 37.835432,-15.8852 4.94591,-1.62398 9.14563,-3.08063 9.3327,-3.23702 0.18708,-0.15638 -0.8631,-5.68549 -2.33374,-12.28692 -4.10297,-18.41744 -6.98242,-39.96641 -7.71792,-57.75881 l -0.66694,-16.1337 H 60.03447 c -40.555006,0 -41.624948,0.053 -41.624948,2.06171 0,1.13394 0.731398,7.67999 1.625343,14.54678 2.92585,22.47494 9.189354,43.21514 19.021878,62.98678 6.234031,12.53564 16.802504,29.37334 18.436696,29.37334 0.574888,0 4.047305,-1.65014 7.716469,-3.66696 z m 99.725372,-29.63126 c 6.98246,-0.93511 19.47946,-1.99163 27.77112,-2.3478 l 15.07576,-0.64759 v -36.33751 -36.33749 h -45.12747 -45.12747 l 0.69161,15.07575 c 0.89055,19.41216 4.75484,45.91523 9.23086,63.30957 l 0.97785,3.80001 11.90619,-2.40735 c 6.54839,-1.32404 17.6191,-3.17245 24.60155,-4.10759 z m 232.47113,-49.41488 c 7.71688,-5.92496 14.38045,-11.28082 14.80794,-11.90191 0.4275,-0.62109 0.78455,-4.10473 0.79346,-7.74142 l 0.0162,-6.61218 h -15.34024 -15.34024 v 18.51408 c 0,10.18275 0.23225,18.51409 0.5161,18.51409 0.28387,0 6.82992,-4.84769 14.54678,-10.77266 z M 102.19106,210.01614 c 0.83532,-17.50448 3.94465,-40.47508 7.85242,-58.01105 1.47109,-6.60143 2.52164,-12.13053 2.33456,-12.28691 -0.18707,-0.15639 -4.38679,-1.61305 -9.3327,-3.23703 -11.824001,-3.88237 -29.50128,-11.30418 -37.835432,-15.88519 -3.669164,-2.01683 -7.10067,-3.66696 -7.625571,-3.66696 -1.604335,0 -12.166197,16.78372 -18.310757,29.09738 -10.018426,20.0769 -16.259629,40.61132 -19.227966,63.26274 -0.899848,6.86678 -1.636092,13.41836 -1.636092,14.55905 0,2.02951 0.890842,2.06806 41.524444,1.79723 l 41.524454,-0.27677 z m 105.5911,5.35176 c 0,-12.03458 1.09811,-15.35719 5.59344,-16.92427 2.04402,-0.71255 20.43654,-1.11061 51.31655,-1.11061 h 48.13067 l -0.66913,-7.19961 c -0.84775,-9.1215 -3.2278,-23.25374 -6.10452,-36.24756 l -2.24091,-10.12183 -11.77834,2.38147 c -48.80139,9.86722 -108.85445,9.63867 -154.83323,-0.58924 -7.99201,-1.77781 -8.73654,-1.79439 -9.20215,-0.20502 -4.09693,13.98483 -8.97488,46.76162 -9.82229,65.99959 l -0.64076,14.54679 h 45.12533 45.12534 z m 204.90474,0.53939 c -1.26057,-19.1903 -7.19891,-42.05097 -16.20293,-62.376 -4.55712,-10.28693 -15.39631,-29.37648 -19.52385,-34.38462 l -2.09592,-2.54307 -14.96609,7.23783 c -8.23136,3.9808 -20.82326,9.21907 -27.98199,11.64058 -7.15873,2.42152 -12.8036,4.61505 -12.54413,4.87451 0.90506,0.90507 6.82799,32.19292 7.98205,42.16523 0.6397,5.52777 1.37496,11.09682 1.6339,12.37564 0.46626,2.30279 0.70548,2.32822 24.89247,2.64487 30.12255,0.39437 28.46312,-0.58714 28.46312,16.83512 v 11.52023 h 15.49979 15.49982 z M 234.10071,137.02718 c 10.11115,-0.56118 24.10192,-1.76655 31.09057,-2.67858 12.71979,-1.65995 32.47319,-5.38629 33.38468,-6.29778 0.84546,-0.84545 -5.11025,-16.50135 -11.04309,-29.029239 -19.08962,-40.309922 -44.81868,-62.550794 -72.27261,-62.474283 -25.40879,0.07077 -51.61252,22.88886 -70.01213,60.966147 -5.69768,11.791155 -12.99258,31.047185 -11.76779,31.062925 0.42595,0.005 5.29718,0.91029 10.82496,2.01071 16.5728,3.29913 34.2984,5.53106 50.66375,6.37935 8.50189,0.4407 16.64817,0.86424 18.10285,0.94119 1.45467,0.077 10.91764,-0.31923 21.02881,-0.88044 z M 121.48175,112.42737 c 7.93713,-22.729006 22.39602,-48.118091 35.68092,-62.653898 2.93704,-3.213571 4.83983,-5.842854 4.22845,-5.842854 -1.72649,0 -19.96889,6.816074 -28.05467,10.482337 -10.21096,4.629837 -25.12087,13.564021 -35.586548,21.323841 -8.672865,6.430533 -29.616843,25.886824 -29.616843,27.513104 0,1.93799 41.848621,19.9925 48.665601,20.99551 0.29094,0.0428 2.39833,-5.27531 4.68309,-11.81804 z m 216.71549,3.4214 c 5.95151,-2.36413 14.31922,-6.09322 18.5949,-8.28687 l 7.77398,-3.98845 -5.51851,-6.038117 C 346.10347,83.372374 324.15025,67.267084 303.94819,57.113405 294.18411,52.205901 271.45758,43.371944 270.66505,44.176007 c -0.15373,0.155973 2.57441,3.616119 6.06257,7.68922 3.48814,4.073092 8.72279,10.976198 11.63256,15.340232 6.77074,10.154715 18.81991,34.762581 23.11419,47.205861 l 3.32987,9.64872 6.28603,-1.95643 c 3.45732,-1.07604 11.15546,-3.89072 17.10697,-6.25484 z"
   id="path33455" /><path
   style="fill:#808080;fill-opacity:1;fill-rule:nonzero;stroke-width:0.860521"
   d="m 259.26708,452.43835 -35.04298,-18.21773 -0.0232,-107.28648 -0.0233,-107.28648 11.8666,6.17522 c 6.52663,3.39637 22.20019,11.59651 34.83015,18.22253 l 22.96356,12.0473 0.48533,3.44208 c 0.26694,1.89315 0.37318,50.1699 0.23609,107.28168 l -0.24924,103.8396 z m 22.3023,-90.42702 2.41443,-2.07678 v -12.3748 c 0,-15.61456 -0.64105,-17.03195 -7.70307,-17.03195 -7.82438,0 -8.48039,1.48882 -8.06996,18.31492 0.24344,9.98035 0.51594,11.88451 1.92292,13.43681 2.37749,2.62306 8.23407,2.48571 11.43568,-0.2682 z"
   id="path33526" /><path
   style="fill:#6eb0ea;fill-opacity:1;fill-rule:nonzero;stroke-width:0.860521"
   d="m 21.309657,224.99457 c -2.875514,-0.51669 -2.872101,-0.43401 -0.660724,-16.00138 4.042346,-28.4568 12.675233,-53.1785 26.673957,-76.3853 6.496262,-10.76937 9.325379,-14.62886 10.723375,-14.62886 0.56971,0 3.137583,1.13535 5.706385,2.52299 7.573029,4.09088 25.376469,11.6009 36.9401,15.58242 5.91609,2.03699 10.88379,3.79656 11.03935,3.91016 0.15555,0.1136 -0.89326,5.95233 -2.33069,12.97495 -4.46268,21.80248 -7.79845,48.7943 -7.85243,63.53917 -0.0122,3.31301 -0.34582,6.53425 -0.74153,7.15832 -0.57296,0.9036 -8.499796,1.1976 -38.925417,1.44371 -21.013269,0.16996 -39.270838,0.11769 -40.572376,-0.11618 z"
   id="path34445" /><path
   style="fill:#6eb0ea;fill-opacity:1;fill-rule:nonzero;stroke-width:0.860521"
   d="m 98.971708,117.21059 c -15.777038,-6.48857 -26.286236,-11.31086 -28.701353,-13.17 -1.487761,-1.14528 -0.880622,-1.9089 9.035474,-11.36436 21.807651,-20.794601 41.868821,-33.477858 69.457051,-43.912763 5.85059,-2.212912 10.79563,-3.865293 10.98897,-3.671946 0.19334,0.193335 -2.04879,3.215716 -4.98252,6.716403 -7.67905,9.163037 -16.43263,22.777841 -22.78206,35.43386 -5.24232,10.449269 -7.3316,15.312636 -12.74248,29.661596 -1.93828,5.14007 -2.68032,6.23066 -4.21354,6.1927 -1.02351,-0.0254 -8.2503,-2.67381 -16.059542,-5.88549 z"
   id="path34447" /><path
   style="fill:#6eb0ea;fill-opacity:1;fill-rule:nonzero;stroke-width:0.860521"
   d="m 51.285346,341.49944 c -12.138959,-18.38558 -22.747371,-43.50711 -27.52636,-65.18449 -2.648918,-12.01542 -5.388182,-32.41422 -4.475343,-33.32706 0.364332,-0.36434 19.024044,-0.80194 41.466025,-0.97246 l 40.803602,-0.31003 v 6.80652 c 0,16.96852 3.26561,44.6343 7.79251,66.01708 1.39357,6.58249 2.53376,12.26226 2.53376,12.62173 0,0.35947 -3.77554,1.90968 -8.39009,3.4449 -11.285634,3.75463 -26.6554,10.12122 -37.160413,15.39288 -4.747097,2.38221 -8.763618,4.33129 -8.925604,4.33129 -0.161984,0 -2.915125,-3.96916 -6.118087,-8.82036 z"
   id="path34589" /><path
   style="fill:#6eb0ea;fill-opacity:1;fill-rule:nonzero;stroke-width:0.860521"
   d="M 148.88195,419.13589 C 129.22584,411.70835 105.79376,398.3378 92.128083,386.75165 86.788713,382.22478 73.762929,369.8275 70.229928,365.9101 l -1.635358,-1.81329 11.531354,-5.52058 c 10.980139,-5.25669 31.562086,-13.22289 35.266276,-13.64976 1.48961,-0.17167 2.33969,1.44616 5.98793,11.39591 7.70879,21.02394 20.40452,44.01859 31.85139,57.68961 7.37345,8.80611 7.22931,8.59569 5.86692,8.56488 -0.64955,-0.0147 -5.24698,-1.56313 -10.21649,-3.44098 z"
   id="path34591" /><path
   style="fill:#6eb0ea;fill-opacity:1;fill-rule:nonzero;stroke-width:0.860521"
   d="M 198.62934,427.43836 C 187.52275,422.58917 184.13429,420.1705 173.29469,409.35471 161.98976,398.0746 155.843,389.55958 148.04182,374.37228 142.60297,363.78397 133.2483,340.65369 134.0902,339.87563 c 1.81949,-1.68152 39.48215,-7.20268 54.806,-8.0343 5.20615,-0.28254 11.49871,-0.72153 13.98346,-0.97553 l 4.51774,-0.46184 v 49.97216 c 0,39.40965 -0.22736,49.96994 -1.07565,49.96165 -0.59161,-0.006 -4.0532,-1.31052 -7.69241,-2.89941 z"
   id="path34593" /><path
   style="fill:#6eb0ea;fill-opacity:1;fill-rule:nonzero;stroke-width:0.860521"
   d="m 128.6302,322.46638 c -2.04824,-6.08701 -5.68921,-25.42192 -7.67305,-40.74684 -1.04132,-8.0441 -3.03568,-33.37444 -3.05091,-38.74979 -0.002,-0.84677 9.51842,-1.07565 44.74406,-1.07565 h 44.7471 v 35.99499 35.99499 l -17.3662,1.01517 c -18.02544,1.0537 -34.60748,3.17459 -51.32636,6.56477 -6.8886,1.39683 -9.84299,1.69077 -10.07464,1.00236 z"
   id="path34595" /><path
   style="fill:#6eb0ea;fill-opacity:1;fill-rule:nonzero;stroke-width:0.860521"
   d="m 118.33727,215.86333 c 1.41242,-25.96838 7.98574,-69.06781 10.79907,-70.80654 0.42188,-0.26074 6.68298,0.68178 13.91355,2.09449 43.82521,8.56258 98.82523,8.71335 143.51548,0.39339 18.73418,-3.48773 16.88464,-3.42263 17.47854,-0.61519 4.4965,21.25557 8.33709,44.02892 8.33709,49.43594 0,0.45802 -19.32523,0.80798 -46.68327,0.84536 -25.67581,0.0351 -48.38535,0.32551 -50.46564,0.64538 -6.29846,0.96851 -7.34419,3.21621 -7.70597,16.56327 l -0.30156,11.12477 h -44.70691 -44.70692 z"
   id="path34597" /><path
   style="fill:#6eb0ea;fill-opacity:1;fill-rule:nonzero;stroke-width:0.860521"
   d="m 198.79219,136.8242 c -14.63733,-0.87924 -32.81747,-2.92169 -45.60763,-5.12379 -17.30304,-2.97909 -18.93147,-3.4 -18.93147,-4.89326 0,-2.37217 9.42294,-25.22952 13.92714,-33.783239 9.61682,-18.262873 22.35781,-34.327405 34.56257,-43.578363 6.30793,-4.781281 17.29111,-10.083946 23.6213,-11.404348 11.04516,-2.303876 20.84952,-0.691623 33.30286,5.47639 16.34567,8.095874 30.90705,24.280121 43.76785,48.645799 5.06301,9.592231 14.31733,31.805431 14.31733,34.365971 0,1.73713 -5.60844,3.1415 -24.09459,6.03336 -14.73756,2.30546 -55.43914,5.63693 -61.95755,5.0713 -0.70992,-0.0616 -6.51844,-0.42602 -12.90781,-0.80982 z"
   id="path34599" /><path
   style="fill:#6eb0ea;fill-opacity:1;fill-rule:nonzero;stroke-width:0.860521"
   d="M 311.96238,114.32181 C 307.44542,101.83774 294.63013,75.929508 288.44522,66.778009 285.56644,62.518432 280.71039,55.935441 277.654,52.149145 c -3.0564,-3.786296 -5.44698,-6.998103 -5.3124,-7.137344 0.13457,-0.139251 5.81018,1.914532 12.61248,4.563962 20.70042,8.062626 38.92558,18.513334 55.82413,32.010817 7.67989,6.134197 22.37356,20.32361 22.37356,21.60573 0,0.85653 -15.15127,8.16591 -25.38538,12.24659 -7.29063,2.90701 -20.99408,7.70326 -22.00915,7.70326 -0.33192,0 -2.03962,-3.96916 -3.79486,-8.82035 z"
   id="path34601" /><path
   style="fill:#6eb0ea;fill-opacity:1;fill-rule:nonzero;stroke-width:0.860521"
   d="m 382.94376,215.34635 c 0,-5.60881 -0.40651,-11.36396 -0.90336,-12.78921 -1.54724,-4.43842 -3.48363,-4.80689 -28.09651,-5.34629 -14.68909,-0.32193 -22.87752,-0.82577 -23.49738,-1.44583 -0.52328,-0.52345 -1.89603,-7.49367 -3.05057,-15.48939 -1.15453,-7.99572 -3.24274,-20.15257 -4.64045,-27.01523 -1.39771,-6.86266 -2.27077,-12.71085 -1.94014,-12.99598 0.33062,-0.28513 4.66709,-1.98545 9.6366,-3.7785 10.14621,-3.66083 23.86205,-9.45116 36.32084,-15.33333 l 8.35391,-3.94412 3.80403,5.76353 c 9.67762,14.66271 18.33199,32.17239 23.69787,47.94602 5.42335,15.94259 8.05652,28.9052 10.00399,49.24791 l 0.51487,5.37827 h -15.10185 -15.10185 z"
   id="path34603" /><path
   style="fill:#6eb0ea;fill-opacity:1;fill-rule:nonzero;stroke-width:0.860521"
   d="M 382.94376,260.01852 V 241.8941 h 14.66366 14.66366 l -0.24992,7.0793 -0.24994,7.07928 -10.68888,8.37014 c -5.87887,4.60358 -12.36506,9.57389 -14.41373,11.04513 l -3.72485,2.67499 z"
   id="path34605" /><path
   style="fill:#008000;fill-opacity:1;fill-rule:nonzero;stroke-width:0.860521"
   d="m 403.09818,368.98383 c -3.2757,-2.51353 -14.47498,-11.10039 -24.88729,-19.08191 -10.41231,-7.98152 -21.33922,-16.54469 -24.28203,-19.02925 l -5.35056,-4.51739 17.82812,-13.69083 c 9.80547,-7.52995 23.63663,-18.09084 30.73593,-23.46862 l 12.90783,-9.77781 0.46937,9.11986 c 0.28923,5.61964 0.90294,9.64227 1.59906,10.48102 2.29482,2.7651 7.27381,3.10208 45.90563,3.1069 l 38.50834,0.005 v 24.45183 24.45184 l -40.22938,0.33272 c -22.12615,0.183 -40.85458,0.6244 -41.61873,0.98088 -2.3733,1.10719 -3.54202,4.97866 -3.99878,13.24618 -0.24187,4.3779 -0.70794,7.95982 -1.03572,7.95982 -0.32777,0 -3.27607,-2.05652 -6.55179,-4.57004 z"
   id="path34609" /></svg>
