<?xml version="1.0" encoding="UTF-8" standalone="no"?>
<!-- Uploaded to: SVG Repo, www.svgrepo.com, Generator: SVG Repo Mixer Tools -->

<svg
   version="1.1"
   id="_x32_"
   viewBox="0 0 512 512"
   xml:space="preserve"
   xmlns="http://www.w3.org/2000/svg"
   xmlns:svg="http://www.w3.org/2000/svg"><defs
   id="defs27" />
<style
   type="text/css"
   id="style2">
	.st0{fill:#000000;}
</style>

<path
   style="fill:#000000;stroke-width:1.02558"
   d="m 256.32707,459.37617 -41.30584,-21.60623 -12.0241,-0.83637 c -28.52706,-1.9843 -51.9331,-8.25077 -77.66095,-20.79211 C 61.713973,385.12809 19.097741,324.15744 10.916754,252.44267 9.3763494,238.93948 10.196154,209.01816 12.449446,196.50218 20.541352,151.55551 39.333601,115.10188 70.374571,84.137758 107.09755,47.505708 152.09278,27.159002 203.98999,23.717282 c 98.24025,-6.515083 188.66412,58.65102 213.22485,153.665538 5.9724,23.10456 8.3708,50.77121 6.10275,70.39815 -0.65181,5.64066 -1.45598,15.44773 -1.787,21.79348 l -0.60189,11.53773 h 39.44894 39.44895 l 2.22993,2.37364 c 2.19954,2.34131 2.22992,2.85022 2.22992,37.35909 v 34.98543 l -2.70225,2.12559 c -2.62573,2.0654 -3.80186,2.12559 -41.53582,2.12559 H 421.2148 v 13.68632 c 0,15.48876 -0.68973,17.08095 -7.39937,17.08095 -3.07407,0 -6.07901,-1.85648 -19.09017,-11.79412 -8.493,-6.48677 -15.69896,-11.79412 -16.01323,-11.79412 -0.31428,0 -0.57141,14.71717 -0.57141,32.70481 0,30.66593 -0.12216,32.85575 -1.95943,35.12597 l -1.95942,2.42116 -32.39737,0.29781 -32.39736,0.29781 v 18.48637 c 0,22.43989 -0.69868,24.52031 -8.20461,24.43074 -2.6311,-0.0314 -14.61834,-5.81178 -44.89536,-21.64905 z M 294.0434,356.50069 c 0,-98.03424 -0.10437,-104.15026 -1.79476,-105.17073 -0.98711,-0.59592 -16.68059,-8.84113 -34.8744,-18.32268 l -33.07963,-17.2392 0.26121,104.60404 0.26121,104.60404 33.844,17.73335 c 18.61421,9.75333 34.19014,17.76598 34.61319,17.80589 0.42305,0.0399 0.76918,-46.76672 0.76918,-104.01471 z m -22.23923,-0.50655 c -3.64592,-1.50491 -4.42574,-4.38697 -4.42574,-16.35672 0,-13.07741 1.18164,-15.45105 7.69182,-15.45105 6.55084,0 7.69182,2.34115 7.69182,15.78281 0,9.63255 -0.31468,12.05238 -1.79476,13.80153 -2.14896,2.53963 -6.08389,3.49444 -9.16314,2.22343 z m -62.88356,16.74891 v -48.87301 l -13.58888,0.62705 c -15.01463,0.69285 -31.44047,2.74399 -48.13633,6.01091 l -10.9592,2.14441 3.55232,9.81344 c 4.7312,13.07015 13.3689,30.59957 20.05074,40.69112 7.0316,10.61983 19.7279,23.80227 28.30929,29.39326 5.11594,3.33317 17.31699,8.70904 20.51566,9.03936 0.14102,0.0146 0.2564,-21.96638 0.2564,-48.84654 z m 153.78912,15.28541 -0.0473,-33.58761 -19.04413,-14.34589 c -11.14411,-8.39484 -19.43448,-15.37261 -19.98514,-16.82095 -1.89264,-4.97803 0.20328,-7.34365 19.70912,-22.24532 l 18.90189,-14.44028 0.26903,-37.60769 0.26903,-37.60769 -56.16291,0.0145 -56.16291,0.0145 7.17903,3.89818 c 3.94847,2.144 16.78236,8.8704 28.51976,14.94756 16.42175,8.50253 21.56329,11.63474 22.30628,13.58894 0.57632,1.51577 0.96554,37.86013 0.96554,90.15947 v 87.61997 h 26.66497 26.66497 l -0.0473,-33.58761 z M 159.67576,408.53998 C 146.63513,394.32869 133.0453,370.36444 124.89974,347.21612 l -3.70141,-10.51881 -7.16126,2.32141 c -15.170218,4.91761 -40.492475,16.16894 -40.492475,17.99183 0,1.19287 19.606651,19.74785 26.152183,24.74943 16.585412,12.67325 34.870282,22.60462 54.587592,29.64909 6.0771,2.17118 11.20553,3.97144 11.39651,4.00057 0.191,0.0291 -2.51131,-3.06221 -6.00512,-6.86966 z M 408.3074,346.84594 c 1.90882,-2.10922 2.65505,-2.14806 41.26969,-2.14806 h 39.32571 v -24.10103 -24.10103 h -38.85826 c -46.87768,0 -43.51095,1.01181 -44.05903,-13.24122 -0.19713,-5.1268 -0.54478,-9.32145 -0.77255,-9.32145 -0.6666,0 -59.77752,45.13796 -60.37327,46.1019 -0.29775,0.48177 13.18814,11.32805 29.96866,24.10283 l 30.51003,23.22687 0.52253,-9.18538 c 0.40207,-7.068 0.97063,-9.68052 2.46649,-11.33343 z M 70.710888,340.11755 c 8.079138,-4.44085 25.215515,-11.63555 36.677712,-15.39913 4.79457,-1.57429 8.86578,-2.98637 9.04713,-3.13797 0.18136,-0.1516 -0.83669,-5.51153 -2.26233,-11.91096 -3.97742,-17.85389 -6.76876,-38.74349 -7.48176,-55.99146 L 106.04511,238.038 H 65.693812 c -39.314074,0 -40.351278,0.0514 -40.351278,1.99862 0,1.09924 0.709019,7.44499 1.57561,14.10167 2.836323,21.78723 8.908172,41.89281 18.439833,61.05946 6.043277,12.15207 16.288369,28.47456 17.872556,28.47456 0.557298,0 3.923463,-1.59965 7.480355,-3.55476 z m 96.673902,-28.72458 c 6.7688,-0.9065 18.88341,-1.93069 26.92136,-2.27596 l 14.61446,-0.62778 V 273.26361 238.038 h -43.74663 -43.74663 l 0.67045,14.61445 c 0.8633,18.81817 4.60935,44.51028 8.94841,61.37238 l 0.94793,3.68373 11.54187,-2.33369 c 6.34802,-1.28352 17.07998,-3.07538 23.84878,-3.9819 z M 392.7426,263.49012 c 7.48075,-5.74366 13.94042,-10.93564 14.35483,-11.53773 0.41442,-0.60208 0.76055,-3.97913 0.76918,-7.50454 l 0.0157,-6.40985 h -14.87085 -14.87085 v 17.94757 c 0,9.87117 0.22514,17.94758 0.50031,17.94758 0.27518,0 6.62093,-4.69936 14.10167,-10.44303 z M 106.56046,207.25885 c 0.80976,-16.96887 3.82395,-39.2366 7.61215,-56.23599 1.42607,-6.39943 2.44448,-11.75935 2.26312,-11.91095 -0.18135,-0.1516 -4.25256,-1.56369 -9.04713,-3.13798 -11.462197,-3.76357 -28.598574,-10.95828 -36.677712,-15.39912 -3.556892,-1.95512 -6.883398,-3.55476 -7.392238,-3.55476 -1.555244,0 -11.793927,16.27016 -17.750471,28.20704 -9.711875,19.46257 -15.762105,39.36867 -18.639615,61.32698 -0.872314,6.65667 -1.58603,13.00778 -1.58603,14.11356 0,1.96741 0.863584,2.00478 40.253849,1.74224 l 40.253857,-0.2683 z m 102.36015,5.188 c 0,-11.66634 1.06451,-14.88728 5.42228,-16.40641 1.98148,-0.69075 19.81121,-1.07663 49.74633,-1.07663 h 46.65794 l -0.64866,-6.97931 c -0.82181,-8.84239 -3.12903,-22.5422 -5.91773,-35.13843 l -2.17234,-9.81211 -11.41794,2.3086 c -47.30813,9.56529 -105.52364,9.34374 -150.09553,-0.57121 -7.74746,-1.72341 -8.46921,-1.73949 -8.92057,-0.19875 -3.97157,13.55691 -8.70026,45.33077 -9.52174,63.98009 l -0.62116,14.10167 h 43.74455 43.74457 z m 198.63491,0.52288 c -1.222,-18.6031 -6.97863,-40.76426 -15.70714,-60.46737 -4.41768,-9.97216 -14.9252,-28.4776 -18.92644,-33.33249 l -2.03179,-2.46526 -14.50815,7.01636 c -7.97949,3.859 -20.18609,8.93698 -27.12577,11.2844 -6.93969,2.34742 -12.41183,4.47383 -12.1603,4.72535 0.87737,0.87738 6.61906,31.20786 7.73781,40.87503 0.62013,5.35863 1.33289,10.75727 1.5839,11.99696 0.452,2.23233 0.6839,2.25698 24.1308,2.56394 29.20083,0.3823 27.59218,-0.56917 27.59218,16.31999 v 11.16772 h 15.02552 15.02554 z M 234.43384,136.50326 c 9.80176,-0.54401 23.36443,-1.7125 30.13924,-2.59662 12.33058,-1.60916 31.47955,-5.22148 32.36315,-6.10508 0.81959,-0.81958 -4.95388,-15.99643 -10.70518,-28.140981 -18.50551,-39.076492 -43.44729,-60.636824 -70.06116,-60.562654 -24.63132,0.06861 -50.03325,22.188497 -67.86985,59.100665 -5.52334,11.43036 -12.59503,30.09718 -11.40771,30.11244 0.41291,0.005 5.13509,0.88244 10.49373,1.94918 16.06569,3.19819 33.24891,5.36182 49.1135,6.18415 8.24174,0.42722 16.13876,0.8378 17.54893,0.9124 1.41016,0.0746 10.58357,-0.30947 20.38535,-0.8535 z M 125.26088,112.65617 c 7.69426,-22.033529 21.71073,-46.645741 34.58913,-60.736773 2.84717,-3.115238 4.69174,-5.664071 4.09906,-5.664071 -1.67366,0 -19.35786,6.607518 -27.19623,10.16159 -9.89852,4.488176 -24.3522,13.148979 -34.49764,20.671363 -8.407486,6.233767 -28.710605,25.094721 -28.710605,26.671241 0,1.87869 40.568105,19.38075 47.176495,20.35307 0.28203,0.0415 2.32494,-5.11389 4.53979,-11.45642 z m 210.08427,3.31671 c 5.7694,-2.29179 13.88107,-5.90678 18.02592,-8.0333 l 7.53611,-3.86641 -5.34965,-5.853361 C 343.00946,84.490218 321.72798,68.877734 302.14408,59.034739 292.67877,54.277401 270.64764,45.71375 269.87936,46.493208 c -0.14903,0.151201 2.49564,3.50547 5.87706,7.453937 3.38141,3.948467 8.45589,10.640349 11.27662,14.870849 6.56357,9.84399 18.24405,33.698886 22.40693,45.761416 l 3.22798,9.35348 6.09368,-1.89656 c 3.35153,-1.04312 10.81412,-3.77167 16.58352,-6.06345 z"
   id="path33455" /><path
   style="fill:#808080;fill-opacity:1;fill-rule:nonzero;stroke-width:0.83419"
   d="m 258.83015,442.26325 -33.97071,-17.66029 -0.0225,-104.00366 -0.0226,-104.00365 11.50349,5.98627 c 6.32693,3.29245 21.5209,11.24167 33.7644,17.66494 l 22.2609,11.67867 0.47048,3.33676 c 0.25877,1.83522 0.36176,48.63476 0.22887,103.999 l -0.24162,100.66224 z m 21.61988,-87.66007 2.34055,-2.01324 V 340.5938 c 0,-15.13678 -0.62143,-16.5108 -7.46736,-16.5108 -7.58497,0 -8.2209,1.44327 -7.82303,17.75451 0.23599,9.67496 0.50015,11.52086 1.86408,13.02566 2.30474,2.5428 7.98212,2.40965 11.08576,-0.25999 z"
   id="path33526" /><path
   style="fill:#6eb0ea;fill-opacity:1;fill-rule:nonzero;stroke-width:0.83419"
   d="m 28.153929,221.77896 c -2.787527,-0.50088 -2.784218,-0.42073 -0.640507,-15.51176 3.918656,-27.58606 12.287387,-51.55131 25.857768,-74.04801 6.297485,-10.43984 9.040035,-14.18124 10.395254,-14.18124 0.552277,0 3.041577,1.10061 5.531777,2.44579 7.341304,3.96571 24.599981,11.24593 35.809779,15.10562 5.73506,1.97466 10.55076,3.68039 10.70156,3.79052 0.15079,0.11012 -0.86593,5.77019 -2.25938,12.57793 -4.32613,21.13535 -7.55982,47.30126 -7.61215,61.59495 -0.0118,3.21164 -0.33524,6.33431 -0.71884,6.93929 -0.55543,0.87595 -8.239712,1.16095 -37.734348,1.39953 -20.37029,0.16476 -38.0692,0.11409 -39.330913,-0.11262 z"
   id="path34445" /><path
   style="fill:#6eb0ea;fill-opacity:1;fill-rule:nonzero;stroke-width:0.83419"
   d="M 103.43962,117.29303 C 88.14534,111.003 77.95771,106.32827 75.616492,104.52601 c -1.442237,-1.11023 -0.853676,-1.85049 8.759,-11.016622 C 105.51586,73.351075 124.96318,61.055914 151.70724,50.9403 c 5.67157,-2.145203 10.4653,-3.747021 10.65272,-3.559595 0.18743,0.187426 -1.9861,3.117328 -4.83006,6.510893 -7.44408,8.882665 -15.92981,22.08087 -22.08496,34.349631 -5.08191,10.129535 -7.10726,14.844091 -12.35257,28.753991 -1.87897,4.98279 -2.59831,6.04001 -4.08461,6.00321 -0.9922,-0.0246 -7.99786,-2.592 -15.56814,-5.7054 z"
   id="path34447" /><path
   style="fill:#6eb0ea;fill-opacity:1;fill-rule:nonzero;stroke-width:0.83419"
   d="M 57.2124,334.71893 C 45.444878,316.89592 35.16107,292.54308 30.528312,271.529 c -2.567865,-11.64777 -5.223311,-31.42239 -4.338404,-32.3073 0.353184,-0.35319 18.441933,-0.7774 40.197218,-0.9427 l 39.555064,-0.30054 v 6.59824 c 0,16.44931 3.16568,43.26855 7.55406,63.99705 1.35093,6.38107 2.45623,11.88705 2.45623,12.23552 0,0.34847 -3.66001,1.85124 -8.13336,3.33949 -10.940303,3.63974 -25.839774,9.81152 -36.023347,14.92188 -4.601841,2.30931 -8.495462,4.19875 -8.652491,4.19875 -0.157028,0 -2.825926,-3.84771 -5.930882,-8.55046 z"
   id="path34589" /><path
   style="fill:#6eb0ea;fill-opacity:1;fill-rule:nonzero;stroke-width:0.83419"
   d="m 151.82267,409.9798 c -19.05466,-7.20027 -41.76975,-20.1617 -55.017268,-31.39332 -5.175993,-4.38836 -17.803204,-16.4063 -21.2281,-20.20383 l -1.585318,-1.75781 11.178509,-5.35165 c 10.644161,-5.09584 30.596317,-12.81829 34.187167,-13.2321 1.44403,-0.16641 2.2681,1.40191 5.80471,11.04721 7.47291,20.38064 19.78017,42.67168 30.87678,55.92438 7.14783,8.53666 7.0081,8.33268 5.6874,8.30281 -0.62968,-0.0142 -5.08643,-1.5153 -9.90388,-3.33569 z"
   id="path34591" /><path
   style="fill:#6eb0ea;fill-opacity:1;fill-rule:nonzero;stroke-width:0.83419"
   d="m 200.04785,418.02822 c -10.76674,-4.70081 -14.05152,-7.04547 -24.55944,-17.53031 -10.95901,-10.93495 -16.91769,-19.18942 -24.48017,-33.91201 -5.27242,-10.26432 -14.34085,-32.68685 -13.52471,-33.4411 1.76381,-1.63007 38.27404,-6.98229 53.129,-7.78846 5.04685,-0.27389 11.14687,-0.69945 13.55559,-0.94568 l 4.3795,-0.44771 v 48.44308 c 0,38.20376 -0.2204,48.44092 -1.04274,48.43289 -0.5735,-0.006 -3.92917,-1.27042 -7.45703,-2.8107 z"
   id="path34593" /><path
   style="fill:#6eb0ea;fill-opacity:1;fill-rule:nonzero;stroke-width:0.83419"
   d="m 132.1906,316.26825 c -1.98557,-5.90075 -5.51513,-24.64404 -7.43827,-39.50004 -1.00946,-7.79796 -2.94279,-32.35322 -2.95756,-37.56409 -0.002,-0.82086 9.22717,-1.04274 43.37495,-1.04274 h 43.3779 v 34.89359 34.89359 l -16.83482,0.98411 c -17.47388,1.02146 -33.54853,3.07745 -49.75584,6.36389 -6.67781,1.35409 -9.5418,1.63904 -9.76636,0.97169 z"
   id="path34595" /><path
   style="fill:#6eb0ea;fill-opacity:1;fill-rule:nonzero;stroke-width:0.83419"
   d="m 122.21262,212.92712 c 1.3692,-25.17378 7.74138,-66.95442 10.46863,-68.63995 0.40897,-0.25276 6.47849,0.66092 13.48781,2.0304 42.48422,8.30058 95.80131,8.44673 139.12409,0.38135 18.16094,-3.38101 16.36799,-3.3179 16.94372,-0.59636 4.35891,20.60517 8.08199,42.68169 8.08199,47.92326 0,0.44401 -18.73391,0.78326 -45.25483,0.81949 -24.89016,0.034 -46.90482,0.31555 -48.92145,0.62564 -6.10574,0.93887 -7.11947,3.11779 -7.47018,16.05645 l -0.29233,10.78437 h -43.33894 -43.33894 z"
   id="path34597" /><path
   style="fill:#6eb0ea;fill-opacity:1;fill-rule:nonzero;stroke-width:0.83419"
   d="m 200.20572,136.30649 c -14.18945,-0.85234 -31.8133,-2.83229 -44.2121,-4.96701 -16.77359,-2.88794 -18.35219,-3.29597 -18.35219,-4.74353 0,-2.29959 9.13461,-24.45753 13.50099,-32.74952 9.32256,-17.704052 21.67369,-33.277028 33.505,-42.244921 6.11491,-4.634979 16.76202,-9.775394 22.89852,-11.055389 10.70719,-2.233381 20.21155,-0.670463 32.28383,5.308823 15.84552,7.848146 29.96134,23.537174 42.42861,47.157296 4.90809,9.298721 13.87924,30.832221 13.87924,33.314421 0,1.68397 -5.43683,3.04537 -23.35733,5.84874 -14.28661,2.23492 -53.74277,5.46445 -60.06172,4.91613 -0.6882,-0.0597 -6.31899,-0.41299 -12.51285,-0.78504 z"
   id="path34599" /><path
   style="fill:#6eb0ea;fill-opacity:1;fill-rule:nonzero;stroke-width:0.83419"
   d="m 309.91304,114.49264 c -4.37874,-12.10207 -16.8019,-37.217546 -22.79756,-46.08902 -2.79069,-4.129243 -7.49815,-10.5108 -10.46102,-14.181238 -2.96288,-3.670438 -5.28031,-6.783968 -5.14985,-6.918954 0.13045,-0.134987 5.6324,1.855955 12.22655,4.424314 20.06702,7.815915 37.73451,17.946851 54.11599,31.031325 7.44489,5.946499 21.68895,19.701733 21.68895,20.944623 0,0.83032 -14.68766,7.91604 -24.60862,11.87186 -7.06754,2.81806 -20.35168,7.46755 -21.33569,7.46755 -0.32177,0 -1.97721,-3.84771 -3.67875,-8.55046 z"
   id="path34601" /><path
   style="fill:#6eb0ea;fill-opacity:1;fill-rule:nonzero;stroke-width:0.83419"
   d="m 378.72248,212.42596 c 0,-5.43719 -0.39407,-11.01624 -0.87571,-12.39788 -1.4999,-4.30261 -3.37704,-4.6598 -27.2368,-5.1827 -14.23962,-0.31208 -22.17749,-0.8005 -22.77839,-1.40159 -0.50726,-0.50743 -1.83801,-7.26437 -2.95722,-15.01543 -1.11921,-7.75106 -3.14352,-19.53593 -4.49846,-26.1886 -1.35494,-6.65267 -2.20129,-12.32191 -1.88078,-12.59832 0.32051,-0.27641 4.52429,-1.9247 9.34174,-3.66288 9.83575,-3.54882 23.1319,-9.16197 35.20947,-14.86415 l 8.09829,-3.82344 3.68763,5.58718 c 9.3815,14.21405 17.77105,31.18795 22.97274,46.47893 5.25741,15.45477 7.81,28.02074 9.69788,47.74099 l 0.49912,5.2137 h -14.63975 -14.63976 z"
   id="path34603" /><path
   style="fill:#6eb0ea;fill-opacity:1;fill-rule:nonzero;stroke-width:0.83419"
   d="m 378.72248,255.73122 v -17.56984 h 14.21498 14.21497 l -0.24228,6.86268 -0.24229,6.86267 -10.36181,8.11402 c -5.69899,4.46272 -11.98671,9.28094 -13.97269,10.70716 l -3.61088,2.59314 z"
   id="path34605" /><path
   style="fill:#008000;fill-opacity:1;fill-rule:nonzero;stroke-width:0.83419"
   d="m 398.26021,361.36233 c -3.17547,-2.43662 -14.03207,-10.76073 -24.12578,-18.49803 -10.0937,-7.7373 -20.68626,-16.03844 -23.53903,-18.44698 l -5.18684,-4.37916 17.28261,-13.27191 c 9.50543,-7.29954 22.91338,-17.53728 29.79545,-22.75051 l 12.51286,-9.47862 0.45501,8.8408 c 0.28038,5.44769 0.87531,9.34723 1.55013,10.16032 2.2246,2.68049 7.05124,3.00716 44.50098,3.01183 l 37.33003,0.005 v 23.70364 23.70364 l -38.99841,0.32254 c -21.44912,0.1774 -39.60448,0.60529 -40.34525,0.95087 -2.30068,1.07331 -3.43364,4.82632 -3.87642,12.84086 -0.23447,4.24394 -0.68628,7.71626 -1.00403,7.71626 -0.31774,0 -3.17583,-1.99359 -6.35131,-4.4302 z"
   id="path34609" /></svg>
