<?xml version="1.0" encoding="UTF-8" standalone="no"?>
<!-- Uploaded to: SVG Repo, www.svgrepo.com, Generator: SVG Repo Mixer Tools -->

<svg
   height="800px"
   width="800px"
   version="1.1"
   id="Layer_1"
   viewBox="0 0 512 512"
   xml:space="preserve"
   sodipodi:docname="geniuss.svg"
   inkscape:version="1.2.2 (b0a8486541, 2022-12-01)"
   xmlns:inkscape="http://www.inkscape.org/namespaces/inkscape"
   xmlns:sodipodi="http://sodipodi.sourceforge.net/DTD/sodipodi-0.dtd"
   xmlns="http://www.w3.org/2000/svg"
   xmlns:svg="http://www.w3.org/2000/svg"><defs
   id="defs273" /><sodipodi:namedview
   id="namedview271"
   pagecolor="#ffffff"
   bordercolor="#000000"
   borderopacity="0.25"
   inkscape:showpageshadow="2"
   inkscape:pageopacity="0.0"
   inkscape:pagecheckerboard="0"
   inkscape:deskcolor="#d1d1d1"
   showgrid="false"
   inkscape:zoom="0.76721086"
   inkscape:cx="468.58044"
   inkscape:cy="441.86027"
   inkscape:window-width="1880"
   inkscape:window-height="1056"
   inkscape:window-x="40"
   inkscape:window-y="0"
   inkscape:window-maximized="1"
   inkscape:current-layer="Layer_1" />


<path
   style="fill:#0093e7;stroke-width:1.66112;fill-opacity:1"
   d="m 500.47869,221.42912 c 0,-22.86521 -11.33044,-44.02113 -30.07775,-56.97448 2.07306,-5.51987 3.16275,-11.3836 3.16275,-17.31045 0,-24.50473 -18.06459,-44.93475 -41.7886,-49.107461 C 430.55251,73.194798 410.77033,53.075408 385.79551,50.80799 378.35372,35.198519 362.09643,24.761752 344.22784,24.761752 c -4.59795,0 -9.16103,0.682717 -13.51979,2.00164 -6.79561,-8.416856 -17.22241,-13.546369 -28.41167,-13.546369 -19.9948,0 -36.25211,15.991526 -36.25211,35.632516 V 176.30833 c 0,15.51313 7.03481,30.14753 18.65762,40.1142 -11.73908,10.55139 -18.65762,25.58611 -18.65762,41.6557 v 78.43939 c 0,9.50653 2.39201,18.71906 6.97169,26.97646 -4.57137,7.93845 -6.97169,16.85031 -6.97169,26.11767 v 60.97775 c 0,27.49972 22.7589,49.88652 50.73701,49.88652 18.30379,0 34.78203,-9.54973 43.74705,-24.59276 6.42352,2.80894 13.3869,4.26075 20.55294,4.26075 27.65918,0 50.22372,-21.87352 50.73701,-48.93802 28.18077,-8.14112 47.89319,-33.52291 47.89319,-63.11396 0,-10.29391 -2.41028,-20.27885 -7.03481,-29.35019 17.15098,-10.81715 27.79206,-29.53623 27.79206,-50.03767 0,-11.42015 -3.38368,-22.63599 -9.63943,-32.18571 6.33548,-10.63777 9.6494,-22.65093 9.6494,-35.08934 z"
   id="path262" />

<path
   style="fill:#0093e7;stroke-width:1.66112;fill-opacity:1"
   d="m 22.857462,256.51181 c -6.245781,9.54973 -9.639433,20.76556 -9.639433,32.18571 0,20.49978 10.639423,39.22882 27.792066,50.03768 -4.61623,9.07133 -7.034809,19.05627 -7.034809,29.35018 0,29.5894 19.712417,54.97119 47.893184,63.11397 0.513283,27.07446 23.07783,48.93802 50.73701,48.93802 7.176,0 14.13109,-1.45348 20.55294,-4.26075 8.96502,15.04302 25.45322,24.59276 43.75535,24.59276 27.96815,0 50.73702,-22.3785 50.73702,-49.88652 V 389.6051 c 0,-9.26735 -2.39201,-18.18752 -6.97169,-26.11767 4.57138,-8.25739 6.97169,-17.46992 6.97169,-26.97646 V 258.0882 c 0,-16.07126 -6.91854,-31.10432 -18.65762,-41.65571 11.6228,-9.96667 18.65762,-24.60272 18.65762,-40.11419 V 48.8512 c 0,-19.649295 -16.26562,-35.632517 -36.25212,-35.632517 -11.18925,0 -21.61605,5.129515 -28.41166,13.54637 -4.35876,-1.310618 -8.92184,-2.001641 -13.5198,-2.001641 -17.86858,0 -34.12588,10.436768 -41.56767,26.046239 C 102.92473,53.077069 83.142543,73.196459 81.919964,98.038391 58.1943,102.2111 40.131367,122.64112 40.131367,147.14585 c 0,5.92685 1.081384,11.79223 3.162758,17.31044 -18.745651,12.9517 -30.077758,34.10762 -30.077758,56.97449 0.0016,12.43675 3.307274,24.44991 9.641095,35.08103 z"
   id="path266" />

</svg>
