<?xml version="1.0" encoding="UTF-8" standalone="no"?>
<svg
   version="1.0"
   width="218.102047pt"
   height="328.993234pt"
   viewBox="0 0 218.102047 328.993234"
   preserveAspectRatio="xMidYMid meet"
   id="svg6199"
   sodipodi:docname="ghostswap.svg"
   inkscape:version="1.2.2 (b0a8486541, 2022-12-01)"
   xmlns:inkscape="http://www.inkscape.org/namespaces/inkscape"
   xmlns:sodipodi="http://sodipodi.sourceforge.net/DTD/sodipodi-0.dtd"
   xmlns="http://www.w3.org/2000/svg"
   xmlns:svg="http://www.w3.org/2000/svg">
  <defs
     id="defs6203" />
  <sodipodi:namedview
     id="namedview6201"
     pagecolor="#ffffff"
     bordercolor="#000000"
     borderopacity="0.25"
     inkscape:showpageshadow="2"
     inkscape:pageopacity="0.0"
     inkscape:pagecheckerboard="0"
     inkscape:deskcolor="#d1d1d1"
     inkscape:document-units="pt"
     showgrid="false"
     inkscape:zoom="1.9787642"
     inkscape:cx="145.54539"
     inkscape:cy="219.32882"
     inkscape:window-width="1880"
     inkscape:window-height="1056"
     inkscape:window-x="40"
     inkscape:window-y="0"
     inkscape:window-maximized="1"
     inkscape:current-layer="svg6199" />
  <metadata
     id="metadata6189"> Created by potrace 1.16, written by Peter Selinger 2001-2019 </metadata>
  <g
     transform="translate(-146.592428,420.993234) scale(0.100000,-0.100000)"
     fill="#000000"
     stroke="none"
     id="g6197"
     style="fill:#f9f9f9">
    <path
       d="M2530 4200 c0 -5 -6 -10 -13 -10 -24 0 -184 -128 -253 -203 -38 -42 -80 -97 -94 -124 -14 -26 -28 -50 -31 -53 -11 -10 -79 -145 -79 -157 0 -7 -4 -13 -8 -13 -5 0 -19 -24 -33 -52 -13 -29 -27 -55 -30 -58 -5 -4 -69 -133 -225 -454 -38 -79 -41 -75 86 -155 141 -90 165 -106 170 -112 3 -4 32 -27 65 -52 74 -57 145 -121 125 -114 -56 21 -166 70 -224 101 -38 20 -79 36 -90 34 l-20 -3 -23 -130 c-12 -71 -26 -151 -29 -177 -4 -27 -11 -48 -15 -48 -5 0 -9 -7 -9 -15 0 -25 -79 -215 -122 -295 -50 -92 -90 -150 -145 -209 -23 -25 -48 -56 -55 -69 l-12 -23 14 -9 c8 -5 54 -19 101 -30 98 -23 161 -48 224 -91 23 -16 50 -29 58 -29 22 0 51 40 78 107 12 32 26 60 30 63 10 7 23 39 75 190 l44 125 -6 -45 c-13 -105 -48 -264 -84 -386 -22 -71 -40 -138 -40 -147 0 -23 35 -43 100 -56 60 -13 161 -64 205 -105 32 -30 60 -34 70 -8 26 67 102 430 107 513 1 19 4 -27 7 -101 8 -184 -3 -386 -28 -498 -25 -114 -85 -245 -140 -305 -23 -24 -41 -52 -41 -61 l0 -16 35 0 c19 0 35 3 35 8 0 4 26 13 58 21 62 14 210 83 228 107 6 8 15 14 21 14 15 0 143 121 143 136 0 8 4 14 10 14 5 0 19 19 32 42 l21 43 7 95 6 95 14 -45 c7 -25 15 -47 16 -49 2 -2 49 20 106 48 57 28 135 59 173 69 l70 19 3 20 c2 11 -20 85 -49 164 -64 180 -81 236 -77 257 2 10 12 -4 22 -33 23 -63 95 -218 104 -225 4 -3 12 -18 17 -35 6 -16 18 -31 27 -33 9 -2 45 15 79 37 62 40 87 50 227 91 40 12 75 27 78 35 3 8 -6 27 -21 42 -43 46 -135 190 -172 271 -71 152 -107 268 -163 517 -11 50 -23 101 -26 113 l-7 24 -26 -5 c-15 -3 -80 -31 -146 -62 -66 -32 -138 -64 -160 -72 l-40 -14 15 14 c8 8 58 43 110 78 52 35 97 66 100 70 3 3 12 8 20 12 19 9 139 91 163 111 9 9 20 16 23 16 3 0 21 12 40 26 l34 26 0 31 0 30 -186 371 c-102 204 -190 373 -195 374 -5 2 -9 11 -9 19 0 63 -217 293 -362 386 -29 18 -108 24 -108 7z m135 -428 c104 -53 228 -163 294 -261 52 -76 134 -266 171 -394 l18 -64 -13 -35 c-21 -62 -195 -255 -290 -323 -33 -24 -103 -64 -155 -90 l-94 -47 -50 6 c-27 3 -52 9 -55 14 -3 5 -44 26 -91 48 -47 21 -86 42 -88 46 -2 5 -8 8 -13 8 -17 0 -89 82 -170 192 -29 40 -57 78 -63 83 -6 6 -19 25 -29 43 l-19 33 1 57 c0 32 5 71 11 86 6 16 15 49 21 73 20 93 165 344 235 411 20 17 38 32 41 32 4 0 14 6 22 14 30 27 145 87 180 95 38 8 87 -2 136 -27z"
       id="path6191"
       style="fill:#f9f9f9" />
    <path
       d="M2269 3386 c-44 -30 -49 -42 -49 -113 l0 -55 39 -39 39 -39 42 0 42 0 39 39 39 39 0 51 0 52 -39 40 -39 41 -38 4 -39 5 -36 -25z"
       id="path6193"
       style="fill:#f9f9f9" />
    <path
       d="M2742 3400 c-52 -21 -82 -69 -82 -130 0 -45 12 -75 41 -102 l18 -18 54 0 54 0 27 21 c80 63 71 180 -17 222 -39 19 -61 20 -95 7z"
       id="path6195"
       style="fill:#f9f9f9" />
  </g>
</svg>
