<?xml version="1.0" encoding="UTF-8" standalone="no"?>
<svg
   id="Layer_1"
   data-name="Layer 1"
   viewBox="0 0 281.28296 302.24323"
   version="1.1"
   sodipodi:docname="gorillaminer.svg"
   width="281.28296"
   height="302.24323"
   inkscape:version="1.2.2 (b0a8486541, 2022-12-01)"
   xmlns:inkscape="http://www.inkscape.org/namespaces/inkscape"
   xmlns:sodipodi="http://sodipodi.sourceforge.net/DTD/sodipodi-0.dtd"
   xmlns="http://www.w3.org/2000/svg"
   xmlns:svg="http://www.w3.org/2000/svg">
  <sodipodi:namedview
     id="namedview387"
     pagecolor="#ffffff"
     bordercolor="#000000"
     borderopacity="0.25"
     inkscape:showpageshadow="2"
     inkscape:pageopacity="0.0"
     inkscape:pagecheckerboard="0"
     inkscape:deskcolor="#d1d1d1"
     showgrid="false"
     inkscape:zoom="2.2291667"
     inkscape:cx="141.75701"
     inkscape:cy="155.43925"
     inkscape:window-width="1920"
     inkscape:window-height="1020"
     inkscape:window-x="0"
     inkscape:window-y="32"
     inkscape:window-maximized="1"
     inkscape:current-layer="Layer_1" />
  <defs
     id="defs4">
    <style
       id="style2">
      .cls-1 {
        fill: #444848;
      }

      .cls-2 {
        fill: #4d4b49;
      }

      .cls-3 {
        fill: #6d6f76;
      }

      .cls-4 {
        fill: #bd6822;
      }

      .cls-5 {
        fill: #899090;
      }

      .cls-6 {
        fill: #6c0404;
      }

      .cls-7 {
        fill: #d1bde2;
      }

      .cls-8 {
        fill: #961f1f;
      }

      .cls-9 {
        fill: #9c4b10;
      }

      .cls-10 {
        fill: #b1402d;
      }

      .cls-11 {
        fill: #505452;
      }

      .cls-12 {
        fill: #524d4d;
      }

      .cls-13 {
        fill: #838a84;
      }

      .cls-14 {
        fill: #5e4729;
      }

      .cls-15 {
        fill: #8c8e93;
      }

      .cls-16 {
        fill: #3c383d;
      }

      .cls-17 {
        fill: #efcd5c;
      }

      .cls-18 {
        fill: #737579;
      }

      .cls-19 {
        fill: #901f1c;
      }

      .cls-20 {
        fill: #3c3e46;
      }

      .cls-21 {
        fill: #6a6d72;
      }

      .cls-22 {
        fill: #766760;
      }

      .cls-23 {
        fill: #6d707c;
      }

      .cls-24 {
        fill: #f78d21;
      }

      .cls-25 {
        fill: #86878d;
      }

      .cls-26 {
        fill: #37383d;
      }

      .cls-27 {
        fill: #585a5a;
      }

      .cls-28 {
        fill: #555763;
      }

      .cls-29 {
        fill: #30323e;
      }

      .cls-30 {
        fill: #9c9f9b;
      }

      .cls-31 {
        fill: #454850;
      }

      .cls-32 {
        fill: #8a1513;
      }

      .cls-33 {
        fill: #38393e;
      }

      .cls-34 {
        fill: #333538;
      }

      .cls-35 {
        fill: #3a3a3f;
      }

      .cls-36 {
        fill: #d99049;
      }

      .cls-37 {
        fill: #3f424c;
      }

      .cls-38 {
        fill: #1c1c21;
      }

      .cls-39 {
        fill: #565859;
      }

      .cls-40 {
        fill: #a1423f;
      }

      .cls-41 {
        fill: #2f2f36;
      }

      .cls-42 {
        fill: #fae370;
      }

      .cls-43 {
        fill: #bbc4c1;
      }

      .cls-44 {
        fill: #d0d6d2;
      }

      .cls-45 {
        fill: #45351b;
      }

      .cls-46 {
        fill: #56575e;
      }

      .cls-47 {
        fill: #616469;
      }

      .cls-48 {
        fill: #2f2d31;
      }

      .cls-49 {
        fill: #6c7071;
      }

      .cls-50 {
        fill: #3d0b0c;
      }

      .cls-51 {
        fill: #5b5c5a;
      }

      .cls-52 {
        fill: #535754;
      }

      .cls-53 {
        fill: #9ca2a0;
      }

      .cls-54 {
        fill: #71717a;
      }

      .cls-55 {
        fill: #bb5810;
      }

      .cls-56 {
        fill: #858a88;
      }

      .cls-57 {
        fill: #333134;
      }

      .cls-58 {
        fill: #da584d;
      }

      .cls-59 {
        fill: #959b98;
      }

      .cls-60 {
        fill: #cdd4d2;
      }

      .cls-61 {
        fill: #aeb4b3;
      }

      .cls-62 {
        fill: #661512;
      }

      .cls-63 {
        fill: #3b3b3a;
      }

      .cls-64 {
        fill: #1b1b21;
      }

      .cls-65 {
        fill: #e83c33;
      }

      .cls-66 {
        fill: #bb5b14;
      }

      .cls-67 {
        fill: #80848b;
      }

      .cls-68 {
        fill: #63270b;
      }

      .cls-69 {
        fill: #5b5d63;
      }

      .cls-70 {
        fill: #170e0f;
      }

      .cls-71 {
        fill: #4c4e5a;
      }

      .cls-72 {
        fill: #8a8a8a;
      }

      .cls-73 {
        fill: #6c6864;
      }

      .cls-74 {
        fill: #2a2b31;
      }

      .cls-75 {
        fill: #7a7b7f;
      }

      .cls-76 {
        fill: #deb489;
      }

      .cls-77 {
        fill: #a34f13;
      }

      .cls-78 {
        fill: #817c74;
      }

      .cls-79 {
        fill: #58567e;
      }

      .cls-80 {
        fill: #994b15;
      }

      .cls-81 {
        fill: #17181c;
      }

      .cls-82 {
        fill: #2b1c1e;
      }

      .cls-83 {
        fill: #b1342b;
      }

      .cls-84 {
        fill: #282828;
      }

      .cls-85 {
        fill: #767b75;
      }

      .cls-86 {
        fill: #6b6164;
      }

      .cls-87 {
        fill: #bd6823;
      }

      .cls-88 {
        fill: #6b6e77;
      }

      .cls-89 {
        fill: #8b918d;
      }

      .cls-90 {
        fill: #464851;
      }

      .cls-91 {
        fill: #2a2c34;
      }

      .cls-92 {
        fill: #6c6c71;
      }

      .cls-93 {
        fill: #ee9227;
      }

      .cls-94 {
        fill: #666970;
      }

      .cls-95 {
        fill: #535560;
      }

      .cls-96 {
        fill: #7c5636;
      }

      .cls-97 {
        fill: #543a2b;
      }

      .cls-98 {
        fill: #d2710f;
      }

      .cls-99 {
        fill: #191a1f;
      }

      .cls-100 {
        fill: #9088c8;
      }

      .cls-101 {
        fill: #c4271f;
      }

      .cls-102 {
        fill: #878a93;
      }

      .cls-103 {
        fill: #282831;
      }

      .cls-104 {
        fill: #292933;
      }

      .cls-105 {
        fill: #808288;
      }

      .cls-106 {
        fill: #d7b071;
      }

      .cls-107 {
        fill: #ba4a05;
      }

      .cls-108 {
        fill: #686e6f;
      }

      .cls-109 {
        fill: #84878e;
      }

      .cls-110 {
        fill: #9fa7a2;
      }

      .cls-111 {
        fill: #9a362f;
      }

      .cls-112 {
        fill: #8e7168;
      }

      .cls-113 {
        fill: #72757d;
      }

      .cls-114 {
        fill: #9b92cc;
      }

      .cls-115 {
        fill: #edefec;
      }

      .cls-116 {
        fill: #3c3c44;
      }

      .cls-117 {
        fill: #343640;
      }

      .cls-118 {
        fill: #fac94a;
      }

      .cls-119 {
        fill: #abb2ab;
      }

      .cls-120 {
        fill: #7f858c;
      }

      .cls-121 {
        fill: #b6a7d8;
      }

      .cls-122 {
        fill: #939792;
      }

      .cls-123 {
        fill: #474a53;
      }

      .cls-124 {
        fill: #2a2c2b;
      }

      .cls-125 {
        fill: #70462f;
      }

      .cls-126 {
        fill: #4a4145;
      }

      .cls-127 {
        fill: #1f1a1c;
      }

      .cls-128 {
        fill: #4e4e53;
      }

      .cls-129 {
        fill: #686d68;
      }

      .cls-130 {
        fill: #8e928e;
      }

      .cls-131 {
        fill: #1a1a1c;
      }

      .cls-132 {
        fill: #222529;
      }

      .cls-133 {
        fill: #2b2c32;
      }

      .cls-134 {
        fill: #212126;
      }

      .cls-135 {
        fill: #7e360a;
      }

      .cls-136 {
        fill: #f0801b;
      }

      .cls-137 {
        fill: #443d3f;
      }

      .cls-138 {
        fill: #780304;
      }

      .cls-139 {
        fill: #616463;
      }

      .cls-140 {
        fill: #a89cd1;
      }

      .cls-141 {
        fill: #39383c;
      }

      .cls-142 {
        fill: #414248;
      }

      .cls-143 {
        fill: #9ea29f;
      }

      .cls-144 {
        fill: #75767f;
      }

      .cls-145 {
        fill: #d37367;
      }

      .cls-146 {
        fill: #363942;
      }

      .cls-147 {
        fill: #4a4d58;
      }

      .cls-148 {
        fill: #fefefe;
      }

      .cls-149 {
        fill: #3c3e49;
      }

      .cls-150 {
        fill: #ae6a61;
      }

      .cls-151 {
        fill: #d48f4d;
      }

      .cls-152 {
        fill: #fafafa;
      }

      .cls-153 {
        fill: #4a2819;
      }

      .cls-154 {
        fill: #727470;
      }

      .cls-155 {
        fill: #993e05;
      }

      .cls-156 {
        fill: #e34e38;
      }

      .cls-157 {
        fill: #54565e;
      }

      .cls-158 {
        fill: #2e2f34;
      }

      .cls-159 {
        fill: #332a28;
      }

      .cls-160 {
        fill: #4f5057;
      }

      .cls-161 {
        fill: #dc996d;
      }

      .cls-162 {
        fill: #c5cdc9;
      }

      .cls-163 {
        fill: #361f21;
      }

      .cls-164 {
        fill: #2c2c2e;
      }

      .cls-165 {
        fill: #53180a;
      }

      .cls-166 {
        fill: #343740;
      }

      .cls-167 {
        fill: #b31f1b;
      }

      .cls-168 {
        fill: #371515;
      }

      .cls-169 {
        fill: #202127;
      }

      .cls-170 {
        fill: #7b7a77;
      }

      .cls-171 {
        fill: #492915;
      }

      .cls-172 {
        fill: #c1b0dc;
      }

      .cls-173 {
        fill: #2d2c30;
      }

      .cls-174 {
        fill: #393b44;
      }

      .cls-175 {
        fill: #262425;
      }

      .cls-176 {
        fill: #4c4e5b;
      }

      .cls-177 {
        fill: #b9bfbb;
      }
    </style>
  </defs>
  <path
     class="cls-121"
     d="m 49.51,173.99321 1.5,0.7 -0.02,54.2 c 1.86,2.1 4.28,3.66 7.26,4.7 l 0.26,1.9 0.7,1.78 0.04,62.96 -1.5,2.01 -57.63,-32.37 -0.12,-67.38 c 1.24,-0.02 2.56,-0.02 3.7,0.54 3.79,1.83 17.61,9.02 19.29,11.24 0.4,0.53 0.72,1.11 1.01,1.72 l 1.63,-0.3 c 3.17,2.38 6.37,3.99 9.61,4.81 v -37.05 c 0,0 1.5,-1.96 1.5,-1.96 4.23,-2.43 8.41,-5.1 12.75,-7.5 z"
     id="path8" />
  <path
     class="cls-79"
     d="m 72.76,227.24321 c 0.38,-0.67 0.79,-1.33 1.27,-1.92 0.48,-0.59 0.95,-1.14 1.54,-1.51 12.15,-7.59 24.6,-14.98 37.15,-21.7 l 2.23,0.8 c 0.45,22.14 0.39,44.25 -0.19,66.32 l -57,33 -0.04,-64.95 c -0.16,-0.98 0.29,-1.23 0.79,-1.8 -0.95,-2.26 2.08,-3.88 3.75,-2.25 1.34,-3.57 6.7,-6.45 10.5,-6 z"
     id="path10" />
  <path
     class="cls-47"
     d="m 86.26,147.74321 c -2.03,1.59 -4.96,3.39 -4.53,6.33 0.32,2.21 6.47,6.11 5.67,7.17 -5.31,4.17 -7.73,6.17 -14.68,4.15 -3.67,-1.07 -9.52,-6.74 -9.77,-10.54 -0.11,-1.72 0.64,-7.64 0.99,-9.55 0.59,-3.28 2.07,-6.33 2.82,-9.56 2.07,-0.44 2.81,1.11 4.21,2.2 14,-11.81 27.27,-25.1 43.45,-34.41 1.56,-0.32 0.85,0.25 1.14,1 3,7.54 2.52,13.81 -0.16,21.37 -6.16,-1.02 -9.48,3.27 -13.38,7.22 1.66,1.32 2.47,3.28 3.72,4.87 -2.45,4.87 -8.55,11.64 -14.25,12 -1.4,-2.72 -2.56,-3.38 -3.46,-1.96 l -1.79,-0.29 z"
     id="path12" />
  <path
     class="cls-100"
     d="m 114.76,269.24321 v -66 c -1.34,-0.13 -2.37,0.79 -3.49,1.38 -12.74,6.64 -26.06,15.22 -38.51,22.62 l -1.5,-0.69 v -47.91 l 1.5,-0.9 c 14.23,8.04 28.56,15.99 42.38,24.74 0.5,20.85 0.6,41.78 0.38,62.64 -0.01,1.27 0.48,3.34 -0.76,4.11 z"
     id="path14" />
  <path
     class="cls-140"
     d="m 62.26,171.74321 -0.84,32.51 c 0.13,9.88 0.41,19.54 0.84,28.99 -1.04,0.66 -2.98,1.38 -3.75,2.25 -2.39,-1.66 -8.38,-3.25 -8.99,-6.39 v -55.11 c 1.68,-0.94 6.44,-4.99 7.98,-5.13 1.8,0.31 3.3,2.11 4.75,2.88 z"
     id="path16" />
  <path
     class="cls-134"
     d="m 260.26,182.99321 c 1.07,-0.27 1.32,0.48 0.75,2.25 0.79,2.05 0.11,3.24 0.51,4.33 0.43,1.19 4.12,1.26 0.2,2.85 l 0.8,1.82 c -0.92,0.16 -2.21,-0.21 -3,0 0.37,3.99 -1.88,5.7 -6.74,5.14 -3.46,3.05 -6.97,4.37 -10.54,3.97 -3.69,10.11 -18.2,15.8 -24.01,4.5 -0.18,2.14 -0.92,3.36 -2.21,3.64 1.96,0.86 1.33,2.05 -0.75,1.5 0.46,0.64 -0.29,0.89 -2.25,0.75 -0.18,0.07 -0.31,0.78 -0.95,0.66 -0.3,-0.06 -0.41,-0.63 -0.55,-0.66 -3.1,-1.87 -6.29,-7.72 -2.25,-9.75 l 1.49,-2.05 16.3,-6.03 2.46,0.58 c 2.15,-3.46 8.68,-7.38 12.75,-6.75 0.69,-1.86 4.35,-4.42 6,-3 l 8.82,-4.76 c 1.41,-0.52 2.73,-0.63 3.18,1.01 z"
     id="path18" />
  <path
     class="cls-114"
     d="m 72.76,177.74321 v 49.5 c -3.44,2.05 -7.11,3.85 -10.5,6 -1.24,-1.29 -1.41,-2.35 -1.55,-4.08 -1.24,-14.95 -0.86,-38.91 0,-54.09 0.08,-1.4 -0.17,-2.81 1.54,-3.33 3.6,1.91 6.98,4.01 10.5,6 z"
     id="path20" />
  <path
     class="cls-26"
     d="m 258.01,200.24321 c -0.37,2.39 -2.55,2.54 -3.91,4.71 -3.17,5.07 -5.33,13.01 -8.68,18.29 -0.18,2.11 6.25,9.15 7.34,12.25 -4.25,5.89 -10.48,9.35 -18.71,10.38 l -2.82,10.74 -1.72,0.63 -1.44,-1.15 c 0.28,-1.97 -0.02,-3.71 -0.9,-5.21 -5.06,-2.1 -9.69,-4.89 -13.91,-8.39 l 0.5,-1.74 c 1.82,-7.48 8,-7.48 13.84,-4.15 2.65,-9.7 -2.59,-13 -11.53,-12.98 0.58,-3.74 0.31,-7.28 -0.82,-10.62 0.1,-0.06 0.68,-1.22 0.75,-1.5 3.36,-4.24 4.53,1.77 4.13,5.05 4.37,0.33 8.76,0.54 13.16,0.64 1.34,4.53 0.9,9.36 -1.33,14.49 2.25,1.47 20.16,-22.41 17.26,-27.77 0.44,-4.36 5.84,-6.28 8.78,-3.66 z"
     id="path22" />
  <path
     class="cls-42"
     d="m 204.76,14.993214 c 0.89,-0.95 3.01,-0.68 3,0.75 0.97,1.86 -0.38,2.63 -4.06,2.32 -2.37,1.15 -16.2,10.29 -15.4,11.45 3.98,1.65 5.46,3.81 4.46,6.48 1.56,-0.08 1.81,1.17 0.75,3.75 l 0.82,1.98 -4.97,14.22 -1.85,1.05 -0.59,2.35 c -0.96,1.02 -13.67,-1.7 -13.66,-4.6 -1.33,-0.5 -2.24,-0.24 -2.71,0.76 -2.93,-1.16 -5.48,-3.02 -7.65,-5.57 l -0.89,1.06 c -1.27,1.68 -2.06,1.22 -2.25,-0.75 -3.25,-5.19 -0.49,-5.84 1.5,-9.75 3.6,-1.87 6.6,-4.62 9,-8.25 -0.83,-0.56 -0.58,-1.06 0.75,-1.5 6,-2.22 22.7,-10.81 28.73,-14.24 0.71,-0.4 0.45,-1.47 0.52,-1.51 0.18,-2.4 3.97,-2.17 4.5,0 z"
     id="path24" />
  <path
     class="cls-43"
     d="m 170.26,109.49321 c 0.89,-1.6 3.58,0.96 4.61,2.03 2.02,2.1 5.98,8.83 2.14,9.97 l 1.05,1.48 c -5.21,7.23 -7.51,15.05 -7.8,24.14 -0.36,0.79 -0.99,1.07 -1.69,1.36 -0.78,0.32 -13.14,-7.76 -14.4,-8.75 -0.09,-0.07 0.09,-0.48 0.34,-0.98 -4.53,-2.06 -9.28,-4.05 -14.25,-4.5 -0.34,-5.55 0.78,-7.42 2.25,-12.75 l 0.87,-1.43 c 4.22,1 8.43,2.48 12.63,4.43 2.96,-0.77 5.9,-2.19 8.8,-4.25 5.14,2.18 6.77,1.6 4.9,-1.76 l 0.56,-1.49 c -0.76,-0.88 -0.91,-2.14 -0.47,-3.78 -1.62,-0.81 -2.46,-1.8 -2.53,-2.97 -0.6,-2.12 1.42,-1.4 3,-0.75 z"
     id="path26" />
  <path
     class="cls-158"
     d="m 259.51,194.24321 1.51,5.25 c -1.26,-0.49 -2.33,0.61 -3.01,0.75 -2.24,0.48 -4.15,-0.45 -5.61,0.75 -2.68,2.2 -1.38,5.74 -2.06,8.45 -0.94,3.72 -10.38,18.09 -13.68,20.82 -0.97,0.81 -6.42,5.33 -6.43,1.84 -0.01,-3.49 4.08,-9.04 2.29,-13.86 -4.89,-0.41 -9.18,1.45 -13.82,-0.66 -1.85,-1.23 2.68,-6.69 -2.69,-6.08 0.34,-1.31 -0.02,-5.48 2.64,-5.07 1.24,0.19 3.13,5 5.39,5.67 3.77,1.11 10.18,-0.35 12.97,-3.23 1.5,-1.55 3.19,-6.14 4.52,-6.8 1.33,-0.66 2.38,0.42 3.28,0.25 0.76,-0.14 6.66,-3.86 7.73,-4.18 1.36,-0.4 2.98,0.13 4.24,-0.26 1.57,-0.48 1.53,-3.31 2.74,-3.63 z"
     id="path28" />
  <path
     class="cls-27"
     d="m 253.51,71.993214 c 1.05,-2.18 3.11,-1.63 3,0.75 11.39,4.48 6.18,22.5 -0.75,29.249996 0.59,2.43 -3.92,6 -6,4.5 -0.12,1.66 -0.63,1.28 -1.5,0 0.11,1.16 -0.64,1.16 -2.25,0 -2.71,1 -3.42,1.02 -5.93,0 -2.81,-1.13 -8.84,-10.189996 -10.57,-13.509996 -2.97,-2.41 -0.58,-11.73 3,-12.75 l 0.35,0.74 c -0.93,3.2 -1.17,11.72 3.4,9.76 -2.28,-1.62 -0.92,-4.86 1.5,-5.25 -2.03,-1.52 0.53,-6.88 3,-6 -1.35,-2.47 3.6,-6.27 6,-5.25 -0.48,-3.66 4.13,-3.44 6.75,-2.25 z"
     id="path30" />
  <path
     class="cls-172"
     d="m 36.76,181.49321 v 42 c -3.92,-1.8 -7.79,-3.97 -11.53,-6.12 -0.67,-0.39 -1.02,-1.26 -1.22,-1.38 l -1.55,-1.86 c -0.22,-7.83 -0.44,-15.65 -0.65,-23.49 l 1.45,-1.65 c 4.44,-2.61 9.12,-4.98 13.5,-7.5 z"
     id="path32" />
  <path
     class="cls-173"
     d="m 191.26,232.49321 -19.98,5.77 c -2.87,0.51 3.88,-6.83 4.37,-7.14 l -12.73,4.56 c -3.33,1.39 -10.16,0.93 -5.42,-3.19 -0.06,-1.39 1.03,-2 3.28,-1.83 3.86,-2.92 7.46,-6.26 10.79,-10.03 l 1.68,0.61 1.45,-0.48 c 2.72,1.4 5.62,2.71 8.65,3.24 5.83,-2.6 12.48,-5.85 16.9,-9.52 -1.09,-0.61 0.31,-2.47 1.5,-2.25 0.32,1.48 1.33,2.41 1.54,4.09 0.23,1.82 0.22,10.43 -0.4,11.67 -3.24,2.67 -7.73,3.36 -11.64,4.49 z"
     id="path34" />
  <path
     class="cls-149"
     d="m 229.51,257.24321 1.27,1.52 c -1.66,3.19 -1.58,5.18 0.23,5.98 3.01,-2.49 3.62,0.95 1.8,3.35 l 1.2,0.4 c -0.64,2.79 -7.28,6.76 -9.75,6.75 -1.27,-0.38 -1.87,-0.99 -1.8,-1.84 l 1.06,-9.06 c -1.48,-1.4 -2.48,-2.77 -3.01,-4.1 -0.47,-2.94 -2.22,-3.44 -5.25,-1.5 -2.69,-0.75 -4.44,-2 -5.25,-3.75 -1.22,-0.07 -1.69,-0.5 -1.68,-1.56 -1.22,1.36 -2.41,1.88 -3.57,1.56 -3.22,-0.57 -4.47,-1.82 -3.75,-3.75 2.73,-3.65 8.91,-7.57 12.75,-10.5 0.66,1.3 6.4,4.97 8.01,5.87 5.66,3.17 8.38,1.28 7.74,10.63 z"
     id="path36" />
  <path
     class="cls-7"
     d="m 24.01,215.99321 c -7.95,-4.54 -16.28,-8.53 -24,-13.5 7.45,-4.97 15.54,-8.97 23.25,-13.5 z"
     id="path38" />
  <path
     class="cls-60"
     d="m 159.76,105.74321 c 1.54,0.33 2.79,1.51 3.76,3.56 1.88,-0.44 3.13,-0.12 3.74,0.94 4.1,1.01 5.22,3 3,6.75 -1.05,1.07 -2.59,1.86 -4.61,2.37 -3.11,2.53 -6.33,4.24 -9.64,5.13 v 1.5 c -4.81,-0.27 -8.4,-5.16 -13.5,-4.5 1.57,-5.69 2.64,-5.96 2.25,-12 2.14,-0.65 4.15,-2.04 6.02,-4.17 l 2.23,0.42 c 0.22,-1.23 6.12,-1.99 6.36,-1.71 z"
     id="path40" />
  <path
     class="cls-122"
     d="m 168.76,149.99321 c 2.25,0.64 5.12,10.1 1.5,9.75 -0.33,1.99 -0.89,1.89 -1.5,0 -4.04,0.3 -7.71,-1.73 -9.75,-5.25 -3.24,1.05 -10.75,-2.5 -11.25,-6 -1.93,1.42 -2.84,-0.1 -2.95,-1.99 -3.14,-1.15 -4.65,-2.74 -4.55,-4.76 0.51,-0.41 0.55,-1.63 0.75,-2.25 -0.37,-0.39 -0.53,-1.24 -0.24,-1.68 1.34,-2.04 25.08,9.83 27.99,12.18 z"
     id="path42" />
  <path
     class="cls-90"
     d="m 215.26,212.99321 c 3.29,3.28 2.01,5.53 1.5,9.75 9.13,-1.08 14.01,3.02 12.79,12.42 -0.87,6.68 -5.93,-0.4 -9.82,0.66 -1.52,0.41 -4.31,3.67 -5.97,4.93 -0.36,-0.7 -0.77,-2.56 -0.75,-3.36 0.13,-6.61 2.73,-15.57 2.26,-21.8 -0.18,-2.31 0.34,-1.94 -2.26,-1.85 0.73,-0.28 2.15,-0.69 2.25,-0.75 z"
     id="path44" />
  <path
     class="cls-157"
     d="m 224.26,4.4932138 0.81,1.42 c -3.88,4.4700002 -4.22,5.7500002 -1.02,3.85 0.27,-1.76 1.09,-2.51 2.46,-2.26 v 2.25 c 0,0 8.62,-0.74 8.62,-0.74 0.4,0.11 0.38,0.41 0.38,0.74 l -1.41,2.0900002 c -3.08,1.28 -5.89,3.12 -8.56,5.1 l 8.22,0.35 c 2.9,3.55 -6.23,7.77 -9.5,7.46 -1.95,2.04 -7.44,-2.97 -6.75,-5.25 -2.51,0.82 -8.59,-1.34 -9.75,-3.75 -0.96,-0.21 -2.08,-0.67 -3,-0.75 -1.41,-1.45 -1.27,-1.78 0.75,-1.5 0.86,-2.53 1.86,-3.5300002 3,-3 -0.01,-2.2700002 2.8,-2.8700002 3.75,-0.7500002 1.33,-1.7 2.83,-2.7 4.5,-3 0.34,-0.25 6.28,-1.8 7.5,-2.25 z"
     id="path46" />
  <path
     class="cls-141"
     d="m 234.01,268.49321 c -0.5,0.42 -3.59,3.18 -3.74,3 l 2.25,-6.36 c 0.05,-0.62 -1.12,-0.47 -1.51,-0.39 l 0.14,-1.8 c 7.18,-9.35 14.38,-18.5 21.61,-27.45 1.02,2.88 1.38,11.24 0.18,14.06 -1.01,2.37 -15.97,16.45 -18.93,18.94 z"
     id="path48" />
  <path
     class="cls-161"
     d="m 256.51,72.743214 c -1.14,-0.45 -1.66,-0.73 -3,-0.75 -3.08,-0.01 -4.33,-0.76 -3.75,-2.25 -1.74,-1.64 -2.01,-4.49 -0.83,-8.52 -2.61,-9.57 -6.19,-18.97 -10.74,-28.2 l 1.06,-1.53 c -2.27,-0.3 -2.08,-2.48 0,-3 4.27,5.96 16.01,25.09 17.65,31.48 1.08,4.21 0.05,8.59 -0.4,12.77 z"
     id="path50" />
  <path
     class="cls-175"
     d="m 235.51,9.7432138 c 0,0.4900002 -1.09,1.7700002 -0.75,2.2400002 l 6,0.76 -2.99,4.48 5.99,2.64 c 0.22,0.46 -9.42,1.35 1.5,4.88 1.15,1.18 -0.13,1.33 -1.13,1.47 -1.46,0.21 -4.44,0.74 -5.62,0.77 -1.5,2.78 -10.3,1.24 -12,-1.5 -1.41,1.75 -2.5,1.49 -2.25,-0.75 l 9.75,-5.99 -12.75,-0.38 c 4.06,-3.3 9.22,-7.13 14.25,-8.6300002 z"
     id="path52" />
  <path
     class="cls-44"
     d="m 150.01,60.743214 c 1.67,2.45 0.15,0.67 0.28,0.6 0.23,-0.12 0.97,-0.05 1.21,0.09 1.16,0.64 14.62,16.67 15.88,18.65 l -0.12,1.67 c 0.21,2.32 0.24,5.73 -3,3.75 -2.96,0.23 -5.82,-1.28 -8.56,-4.52 l -10.37,-9.84 c -1.25,0.61 -2.19,0.4 -2.81,-0.63 1.51,-5.39 2.67,-7.28 7.5,-9.75 z"
     id="path54" />
  <path
     class="cls-142"
     d="m 157.51,232.49321 c -2.32,2.99 1.17,2.52 3.31,2.18 3.3,-0.52 13.74,-5.55 15.75,-5.12 0.56,0.12 1.38,1.11 1.21,1.82 l -6.4,6.37 c 6.55,-1.93 13.33,-3.37 19.87,-5.26 l -35.72,11.18 c -0.97,0.04 -2.39,-0.29 -3.28,-0.68 -2.53,-2.61 0.95,-11.66 4.5,-10.5 0.21,-0.67 0.46,-0.66 0.75,0 z"
     id="path56" />
  <path
     class="cls-9"
     d="m 108.76,148.49321 c 2.98,3.81 8.3,8.63 10.5,12.75 1.71,0.37 1.96,0.87 0.75,1.5 0.22,0.57 0.45,1.15 0.83,1.64 1.67,2.14 6.38,9.54 5.53,11.99 -0.97,2.81 -6.98,4.75 -8.62,2.12 -0.19,-1.19 0.31,-2.35 1.5,-3.46 0.13,-4 -13.17,-17.94 -17.26,-21.08 l -0.74,-1.7 c -1.49,-0.89 3.12,-4.92 4.25,-5.23 1.65,-0.46 2.31,0.05 3.25,1.48 z"
     id="path58" />
  <path
     class="cls-12"
     d="m 265.51,151.49321 c -1.02,0.89 -1.46,2.13 -1.3,3.73 l -1.7,0.77 -1.06,5.33 c 0.31,3.62 -0.59,5.84 -2.69,6.67 0.59,4.37 -0.41,6.87 -3,7.5 0.99,4.5 -3.05,10.11 -7.5,11.25 -1.96,0.75 -4.06,2.05 -6,3 -2.69,0.87 -2.23,-1.7 -0.58,-3.31 3.76,-2.28 7.21,-4.67 10.33,-7.19 -1.02,-1.82 -1.04,-4.12 -0.07,-6.9 0.5,-11.82 2.72,-21.13 10.57,-29.85 l 2.25,-0.75 c 0.22,3.24 0.51,6.5 0.75,9.75 z"
     id="path60" />
  <path
     class="cls-3"
     d="m 117.76,186.74321 c 1.47,1.58 4.49,4.88 1.5,6 -0.73,1.24 -2.48,1.49 -5.25,0.75 -2.16,1.47 7,1.46 9.57,1.03 1.19,1.88 2.97,4.92 0.93,6.47 l 0.07,1.18 c 4.12,-0.2 6.6,0.66 7.43,2.57 -3.11,1.58 -6.11,3.45 -9.71,1.08 -1.8,-1.19 -2.01,-3.69 -2.42,-3.95 -2.01,-1.26 -4.7,0.88 -7.52,-4.1 -1.87,-3.31 0,-2.47 -3.6,-5.03 -5.5,-6.55 4.58,-8.92 9,-6 z"
     id="path62" />
  <path
     class="cls-88"
     d="m 140.26,141.74321 c 2.64,1.47 5.31,5.14 7.5,6.75 l 0.33,1.7 c -2.29,3.25 -4.06,6.87 -5.31,10.86 l -1.77,0.18 c -4.36,2.4 -7.58,3.16 -12.61,2.35 -2.2,1.85 -4,2.32 -5.39,1.4 -1.08,2.16 -2.32,-0.56 -3,-2.25 -0.13,-0.45 -0.51,-1.04 -0.75,-1.5 1.84,0.3 3.51,-0.42 5.25,-0.75 6.17,-3.99 12.21,-8.18 18.13,-12.56 -7.03,-0.87 -8.82,-2.43 -5.38,-4.69 1.17,-0.85 2.76,-1.31 3,-1.5 z"
     id="path64" />
  <path
     class="cls-113"
     d="m 204.76,254.99321 0.96,1.55 c -2.64,12.96 0.16,6.46 2.45,-1.6 l 1.84,0.06 c 0.23,0.25 5.76,0.93 5.25,3.75 l 1.08,1.33 c -0.83,3.93 -1.94,7.48 -3.33,10.67 -3.96,-1.63 -7.34,-3.19 -11.25,-4.88 -0.86,-0.37 -3.77,-2.03 -4.12,-2.62 -1.65,-2.71 1.61,-9.65 3.37,-12 0.84,1.97 4.05,1.21 3.75,3.75 z"
     id="path66" />
  <path
     class="cls-119"
     d="m 164.26,85.493214 c 0.49,0.09 0.83,0.18 0.75,0.75 1.71,1.27 1.96,3.02 0.75,5.25 0.5,0 0.5,0.51 0,1.5 0.24,0.74 -0.01,0.99 -0.75,0.75 -1.06,1.22 -1.54,0.48 -2.25,-0.75 -1.91,0.66 -5.54,-2.52 -4.5,-4.5 -1.7,0.62 -2.5,-1.52 -2.25,-3 -4,-0.92 -7.42,-4.25 -8.25,-8.25 l -1.57,0.49 c -1.23,-1.65 -2.71,-3.06 -4.43,-4.24 0.13,-1.37 0.44,-1.88 0.75,-3 l 2.99,-1.18 c 6.22,5.27 11.74,12.19 18.76,16.18 z"
     id="path68" />
  <path
     class="cls-105"
     d="m 113.26,176.24321 0.74,1.64 c -2.4,2.15 -1.39,3.6 3.01,4.36 3.72,-1.21 5.72,-0.96 6,0.75 0.92,2.13 -3.43,5.58 -5.25,3.75 -2.07,0.71 -7.89,0.36 -9.04,1.09 l 0.04,4.91 c -0.65,-0.46 -1.44,0.2 -2.43,-1.69 -3.56,-6.79 -1.05,-12.76 3.93,-17.81 1.79,-1.36 4.23,1.16 3,3 z"
     id="path70" />
  <path
     class="cls-102"
     d="m 137.26,143.24321 c -0.58,1.07 -1.96,2.03 0.39,2.23 2.7,0.23 4.59,0.68 7.12,1.53 0.09,0.11 -0.52,1.34 -0.76,1.66 -0.94,1.27 -9.85,7.23 -11.9,8.56 -3.31,2.16 -3.81,2.54 -7.59,3.26 3.29,-4.89 6.26,-12.95 10.87,-16.53 0.7,-0.54 1.6,-0.52 1.88,-0.72 z"
     id="path72" />
  <path
     class="cls-32"
     d="m 265.51,151.49321 c 0.22,2.93 0.42,6.1 0.75,9 1.6,2.35 4.1,6.08 1.5,8.25 0.76,1.96 2.82,8.6 2.43,10.44 -0.65,3.12 -5.42,5.16 -6.93,2.31 -1.23,-1.71 0.72,-2.54 2.3,-3.09 -4.06,-7.4 -5.95,-14.09 -3.05,-22.41 0.58,-1.84 0.35,-6.45 3,-4.5 z"
     id="path74" />
  <path
     class="cls-145"
     d="m 262.51,122.24321 c -1.82,-0.46 -5.85,-3.76 -7.44,-5.36 -2.75,-2.76 -6,-6.47 -5.31,-10.39 0.35,-0.14 5.43,-3.95 6,-4.5 1.93,6.85 5.77,13.1 6.75,20.25 z"
     id="path76" />
  <path
     class="cls-83"
     d="m 249.76,106.49321 c 0.8,7.3 9.19,9.96 12.75,15.75 1.45,2.37 1.08,2.84 1.5,5.25 l 0.3,9.92 c -2.7,1.61 -3.58,-7.34 -3.3,-9.17 -0.63,-6.45 -8.91,-11.5 -14.96,-8.85 l -1.54,-0.9 c -1.23,0.51 -1.45,0.45 -0.75,-0.75 -0.91,-2.22 1.65,-4.34 3.75,-3 1.77,-1.5 1.9,-3.69 0.39,-6.56 l 0.36,-1.69 c 0.48,-0.07 1.18,0.13 1.5,0 z"
     id="path78" />
  <path
     class="cls-54"
     d="m 224.26,275.24321 c -2.35,0 -8.42,-3.34 -11.25,-4.5 -0.01,-1.17 0.88,-1.68 2.68,-1.53 l 3.13,-8.66 1.69,-0.31 c 8.74,2.72 1.98,8.98 3.75,15 z"
     id="path80" />
  <path
     class="cls-130"
     d="m 147.76,77.243214 0.78,2.03 c -1.32,4.22 -1.2,8.78 -0.32,13.1 l -1.21,1.38 c -1.04,2.21 -4.03,0.54 -4.49,-1.52 l -0.76,-9.73 c -0.02,-2.86 -0.26,-6.23 0,-9 2.62,-1.52 4.45,2.16 6,3.75 z"
     id="path82" />
  <path
     class="cls-61"
     d="m 141.76,82.493214 0.84,9.67 4.41,1.58 c 1.97,-0.3 2.11,0.04 0.75,1.5 2.69,3.67 6.3,5.879996 10.85,6.389996 2.16,4.2 -5.13,3.39 -7.85,2.61 -3.44,2.3 -7.04,-4.09 -7.02,-6.919996 l -0.48,0.92 c -0.77,-5.93 -1.46,-9.43 -1.5,-15.75 z"
     id="path84" />
  <path
     class="cls-36"
     d="m 98.26,152.99321 1.54,-0.07 18.09,20.35 c 1.36,2.35 -0.67,6.3 -3.13,4.47 -1.92,1.03 -2.42,0.47 -1.5,-1.5 -0.75,-0.87 -2.91,-2.81 -3,-3 -2.9,-6.39 -5.25,-8.27 -9.73,-13.89 -1.39,-1.74 -2.81,-3.58 -3.77,-5.61 -0.55,-1.92 0.09,-2.16 1.5,-0.75 z"
     id="path86" />
  <path
     class="cls-86"
     d="m 279.76,180.74321 c -1.2,2.05 -2.45,2.55 -3.75,1.5 l -1.13,-1.17 c 4.2,-7.92 3.78,-8.84 -5.02,-9.95 l -0.6,-1.63 c -0.24,1.31 -0.74,1.06 -1.5,-0.75 -0.41,-2.8 -1.14,-5.15 -1.5,-8.25 l 14.62,12 c 1.15,1.89 -0.46,6.01 -1.12,8.25 z"
     id="path88" />
  <path
     class="cls-120"
     d="m 150.76,226.49321 c -2.49,2.29 -3.86,5.35 -4.11,9.21 l -1.89,0.54 c -1.85,-1.47 -3.04,-3.43 -4.5,-5.25 l 3.24,-6.44 c 1.07,-1.28 1.95,-2.15 3.51,-1.06 2.51,-2.02 8.29,1.66 3.75,3 z"
     id="path90" />
  <path
     class="cls-151"
     d="m 135.76,202.49321 c 1.29,-0.87 2.26,-1.02 2.9,-0.45 l 16.95,18.14 -0.36,1.82 c 0.78,2.85 -4.19,4.09 -4.5,0.75 -3.07,-4.31 -6.32,-8.81 -9.75,-13.5 -1.86,-2.06 -3.93,-5.13 -6,-6 -0.65,-0.21 -0.65,-0.46 0,-0.75 0.2,-0.64 0.45,-0.63 0.75,0 z"
     id="path92" />
  <path
     class="cls-80"
     d="m 238.51,26.993214 c 0.28,0.47 0.44,1.06 0.75,1.5 0.16,0.87 -0.23,2.29 0,3 -3.54,3.61 -11.62,2.24 -12,-3.75 -1.96,-0.35 -2.11,-0.78 -0.75,-2.25 3.13,0.75 8.81,1.57 12,1.5 z"
     id="path94" />
  <path
     class="cls-67"
     d="m 156.76,232.49321 c -2.43,1.5 -4.36,7.61 -4.5,10.5 -2.75,-1.19 -3.59,-4.76 -4.5,-5.25 -0.69,-1.46 -0.15,-2.26 1.5,-2.25 -0.82,-2.98 2.32,-6.98 5.25,-6 2.38,-1.68 4.57,1.2 2.25,3 z"
     id="path96" />
  <path
     class="cls-69"
     d="m 150.76,104.24321 c 1.7,0.12 2.45,0.62 2.25,1.5 -2.39,1.04 -4.75,4.19 -6.75,5.63 -1.32,0.95 -0.54,-1.53 -1.5,-1.88 -0.16,-2.54 -0.38,-4.99 -0.75,-7.5 l -0.75,-2.999996 c -0.03,-0.25 0.03,-0.5 0,-0.75 0.08,-1.08 -0.33,-2.6 0.92,-0.55 2.19,3.599996 2.87,4.579996 6.58,6.549996 z"
     id="path98" />
  <path
     class="cls-35"
     d="m 209.26,203.99321 c -1.76,3.1 1.47,6.63 2.25,9.75 -3.83,-0.9 -6.46,-2.5 -9.75,-4.5 -1.27,0.06 -2.02,-2.65 -1.5,-3.75 1.48,-1.37 7.54,-3.19 9,-1.5 z"
     id="path100" />
  <path
     class="cls-150"
     d="m 276.01,182.24321 c 0.79,-0.15 2.19,-2.04 3.75,-1.5 -0.64,2.19 -1.31,6.25 -4.29,6.61 -2.62,0.32 -10.07,-1.67 -12.88,-2.57 -1.02,-0.33 -1.74,-2.39 -1.58,0.46 -0.22,-0.56 -1.15,-1.15 -0.75,-2.25 -0.97,-1.11 -0.54,-1.54 0.75,-0.75 1.05,-0.99 1.44,-0.57 0.75,0.75 3,-0.61 6.21,-0.39 9.63,0.65 -0.44,-1.4 -0.15,-2.36 0.87,-2.9 1.59,-1.18 3.18,-0.22 3.75,1.5 z"
     id="path102" />
  <path
     class="cls-177"
     d="m 168.76,149.24321 c 0.69,0.08 0.65,0.34 0,0.75 l -26.71,-11.93 -1.04,-0.07 c -0.09,0.47 0.12,1.12 0,1.5 -1.66,-0.46 0.04,-2.61 0,-3 0.21,-0.36 0.41,-0.64 0.53,-0.61 10.49,2.51 18.83,6.76 27.22,13.36 z"
     id="path104" />
  <path
     class="cls-75"
     d="m 145.51,216.74321 c 1.4,0.11 2.65,1.61 2.25,3 -1.05,1.37 -2.45,2.73 -4.22,4.08 -0.9,2.6 -1.99,4.99 -3.28,7.17 -0.55,-0.68 -1.87,-0.98 -2.46,-2.47 -1.01,-2.55 3.35,-12.51 7.71,-11.78 z"
     id="path106" />
  <path
     class="cls-51"
     d="m 106.51,145.49321 c 0.18,0.47 0.28,0.87 0.14,1.03 -1.12,1.15 -6.78,5.54 -7.64,4.22 -0.85,-0.54 -1.35,-1.29 -1.5,-2.25 l -0.09,-0.91 c 3.21,-2.95 6.24,-5.9 9.09,-8.84 0.55,0.71 2.12,0.77 2.29,2.66 0.11,1.27 -1.35,3.26 -2.29,4.09 z"
     id="path108" />
  <path
     class="cls-112"
     d="m 264.76,141.74321 -0.76,6.75 -1.49,-6 c -1.97,-0.64 -4.03,-6.07 -2.25,-7.5 -1.49,-4.03 -1.24,-6.28 0.75,-6.75 l 2.99,9 v -9.75 c 0.92,5.25 0.41,9.1 0.76,14.25 z"
     id="path110" />
  <path
     class="cls-72"
     d="m 162.01,50.993214 c 1.95,-0.88 2.75,0.64 1.5,2.25 l 0.03,1.94 c -2.27,2.48 -10.51,7.03 -13.53,5.56 1.35,-2.34 3.08,-2.56 4.49,-4.13 1.21,-1.35 3.79,-6.13 5.26,-6.37 0.58,-0.09 1.64,0.5 2.25,0.75 z"
     id="path112" />
  <path
     class="cls-99"
     d="m 224.26,4.4932138 c 1.09,-0.41 2.2,-1.81 3.75,-1.5 0.25,1.76 -0.81,3.05 -1.5,4.5 -0.48,1.01 -0.95,2.8800002 -1.5,3.3700002 -0.41,0.36 -7.2,2.9 -7.49,2.63 l 6.75,-9.0000002 z"
     id="path114" />
  <path
     class="cls-92"
     d="m 205.51,13.493214 c -0.16,0.06 -0.48,1.18 -0.75,1.5 -0.79,-0.07 -4.24,-0.14 -4.5,0 l -1.49,-7.5000002 3.74,1.5 0.75,-5.25 c 1.91,2.45 4.67,7.3100002 2.25,9.7500002 z"
     id="path116" />
  <path
     class="cls-128"
     d="m 135.01,202.49321 v 0.75 c -0.82,0.93 -2.08,1.03 -3,1.5 l -9,-2.25 c -0.4,-2.33 0.72,-1.14 1.5,-1.5 l 2.24,-0.02 c 3.25,-1.99 11.4,-4.14 8.26,1.52 z"
     id="path118" />
  <path
     class="cls-170"
     d="m 97.51,148.49321 h 1.5 c -0.04,0.73 0.1,1.53 0,2.25 1.11,0.47 0.86,1.22 -0.75,2.25 -0.42,0.06 -1.03,0.67 -1.5,0.75 -5.93,1 -4.32,-0.55 -6.75,-3 2.49,-0.32 4.73,-1.2 6.72,-2.65 z"
     id="path120" />
  <path
     class="cls-34"
     d="m 106.51,138.74321 c -1.85,3.37 -5.86,7.53 -9,9.75 -2.53,1.78 -4.17,2.74 -7.5,2.25 -1.75,-1.9 0.51,-3.25 1.5,-0.75 5.83,-1.95 10.17,-7.59 14.25,-12 0.21,0.27 0.54,0.47 0.75,0.75 z"
     id="path122" />
  <path
     class="cls-132"
     d="m 216.76,6.7432138 c -0.17,0.13 -0.45,2.08 -2.63,3.1 -1.74,0.8200002 -1.76,-0.12 -1.87,-0.1 -1.67,-0.47 -1.34,-1.46 -0.79,-2.77 l 3.04,-6.22999998 c 0,0 -0.08,-0.8 0.37,-0.74 z"
     id="path124" />
  <path
     class="cls-31"
     d="m 150.76,226.49321 0.83,1.72 c -1.33,2.23 -2.2,4.66 -2.33,7.28 -0.32,0.63 0.06,1.77 -1.5,2.25 -1.1,-0.59 -1.1,0.02 -3,-1.5 1.65,-3.09 1.84,-9.05 6,-9.75 z"
     id="path126" />
  <path
     class="cls-116"
     d="m 207.76,8.2432138 c 2.19,-0.35 2.37,0.74 0.75,2.2500002 -1.16,0.87 -0.51,2.6 -1.47,3.42 -0.53,0.33 -1.43,-0.46 -1.53,-0.42 l -2.25,-9.7500002 c 0.87,0 3.89,3.5 4.5,4.5 z"
     id="path128" />
  <path
     class="cls-110"
     d="m 154.51,138.74321 -0.58,0.78 c -4.34,-1.6 -8.65,-2.62 -12.92,-3.03 -0.01,-0.13 -0.67,-0.98 -0.75,-2.25 0.71,-1.41 2.54,-0.52 3.63,-0.26 4.54,1.07 6.99,2.29 10.62,4.76 z"
     id="path130" />
  <path
     class="cls-73"
     d="m 171.01,30.743214 c 0.06,0.7 -0.5,1.06 -0.75,1.5 -2.23,3.81 -5.23,6.31 -9,7.5 1.5,-2.67 3.63,-6.63 6.35,-8.29 1.62,-1 2.62,-0.42 3.4,-0.71 z"
     id="path132" />
  <path
     class="cls-21"
     d="m 212.26,9.7432138 c -0.92,0.18 -3.12,0.2800002 -3.75,0.7500002 -0.12,-0.7900002 -0.33,-1.5600002 -0.75,-2.2500002 3.11,-1.13 4.3,-5.11 6.75,-7.49999998 z"
     id="path134" />
  <path
     class="cls-76"
     d="m 141.01,209.24321 c 3.65,4.05 6.55,8.04 10.13,12 1.01,1.11 2.11,1.66 -0.38,1.5 -0.67,0.85 -1.86,0.36 -1.5,-0.75 -2.28,0.48 -2.89,-0.42 -1.5,-2.25 -0.76,-0.99 -1.54,-1.97 -2.25,-3 -1.42,-2.07 -3.05,-5.27 -4.5,-7.5 z"
     id="path136" />
  <path
     class="cls-96"
     d="m 106.51,145.49321 c 1.82,0.32 1.76,2.37 2.25,3 -3.31,-1.66 -5.82,1.24 -7.5,3.75 -0.15,1.98 -1.78,2.34 -3,0.75 -0.14,-0.81 0.68,-1.71 0.75,-2.25 2.39,-0.38 3.86,-2.89 5.63,-4.53 0.61,-0.57 1.67,-0.55 1.87,-0.72 z"
     id="path138" />
  <path
     class="cls-15"
     d="m 91.51,149.99321 c -0.53,0.18 -1.55,-0.38 -1.5,0.75 -0.98,-0.99 -2.62,-2.08 -3.75,-3 0.86,-0.67 1.49,-2.38 3.27,-2.13 1.6,1.02 3.54,2.49 1.98,4.38 z"
     id="path140" />
  <path
     class="cls-40"
     d="m 200.26,205.49321 c -0.1,1.37 1.31,2.73 1.5,3.75 0.03,0.16 -0.47,0.86 0,3 -0.74,0.56 -1.25,1.37 -1.5,2.25 -0.33,2.47 -3.48,1.91 -3,-0.75 3.35,-3.43 1.44,-10.09 -3.16,-3.71 l -1.34,0.71 c -0.21,0.65 -0.46,0.65 -0.75,0 -0.65,-0.25 -0.65,-0.5 0,-0.75 -4.1,-1.85 2.77,-7.42 5.25,-5.25 2.71,-1.61 3.71,-1.36 3,0.75 z"
     id="path142" />
  <path
     class="cls-45"
     d="m 170.26,32.243214 c -1.97,3.51 -4.29,8.2 -9,8.25 0.1,-0.2 -0.11,-0.56 0,-0.75 2.88,-0.77 5.12,-3.99 6.9,-6.23 0.29,-0.37 1.63,-2.87 2.1,-1.27 z"
     id="path144" />
  <path
     class="cls-61"
     d="m 144.01,101.99321 c -0.07,-0.48 -0.57,-1.62 -0.75,-2.999996 z"
     id="path146" />
  <path
     class="cls-123"
     d="m 188.26,177.74321 c 2.39,-1.94 2.69,1.98 1.11,3.6 l 5.21,9.17 c 7.06,0.24 14.43,-0.72 21.21,-2.1 l 1.72,0.57 c 3.5,1.09 7.14,2.37 10.93,3.86 1.63,1 2.38,2.02 1.07,3.64 -6.11,2.68 -13.87,5.51 -20.25,7.5 -3.06,0.96 -6,2.36 -9,1.5 -0.71,-0.2 -1.62,-1.33 -3,-0.75 l -0.15,-1.64 c 2.65,-1.56 -0.6,-8.27 -3.93,-8.52 -5.07,0.61 -6.95,-0.66 -5.63,-3.79 -1.26,1.46 -2.52,1.86 -3.78,1.2 -6.38,-3.53 -7.66,-6.76 -3.84,-9.71 -3.13,-2.35 -2.35,-4.36 2.34,-6.04 1.81,0 3.81,0.49 6,1.5 z"
     id="path148" />
  <path
     class="cls-174"
     d="m 252.01,179.24321 c -0.15,0.46 0.31,1.34 -0.17,2.05 -1.25,1.85 -6.88,4.33 -8.77,5.88 -0.36,0.3 -2.25,2.3 -0.81,2.57 -4.28,2.09 -8.34,4.82 -12.75,6.75 -1.54,-4.96 -9.74,-2.58 -12,-7.5 l 0.36,-2.24 c 5.06,-5.29 10.11,-10.53 15.13,-15.71 l 1.76,-0.04 c 0.21,-0.65 0.46,-0.65 0.75,0 0.4,-0.45 1,-1.11 1.45,-0.95 2.12,0.73 13.23,6.17 14.75,7.38 l 0.3,1.83 z"
     id="path150" />
  <path
     class="cls-174"
     d="m 255.76,175.49321 1.63,0.02 3.62,5.98 c 0.68,0.14 0.65,0.39 0,0.75 -0.29,0.13 -0.65,0.75 -0.75,0.75 -4.62,0.15 -4.57,2.16 -8.25,3.4 -1.36,0.46 -3.15,0.12 -3.75,0.35 3.71,-3.58 5.45,-6.58 7.5,-11.25 z"
     id="path152" />
  <path
     class="cls-169"
     d="m 252.76,235.49321 c 0.87,0.92 -4.74,8.36 -5.69,9.69 -4.92,6.86 -10.92,12.89 -16.06,19.56 -0.81,0.18 -2.28,1.73 -2.94,-0.47 -0.48,-1.6 1.29,-4.79 1.44,-7.03 l 3.36,-12.77 c 5.27,-1.85 10.46,-1.61 15.04,-5.21 1.35,-1.06 2.07,-4.14 4.86,-3.77 z"
     id="path154" />
  <path
     class="cls-118"
     d="m 217.51,19.493214 c 0.4,0.42 0.92,1.16 0.67,1.43 -2.18,2.37 -17.94,18.21 -19.24,18.53 l -1.68,-0.46 c -0.69,0.21 -0.94,-0.04 -0.75,-0.75 -2.43,-2.04 -3.68,-2.79 -3.75,-2.25 -1.74,-4.09 -3.96,-4.37 -7.49,-6.37 0,-1.1 16.05,-12.44 17.79,-12.94 1.52,-0.44 3.68,0.42 4.7,-0.93 3.3,0.73 6.99,1.92 9.75,3.75 z"
     id="path156" />
  <path
     class="cls-94"
     d="m 186.76,37.493214 c 1.18,5.02 -1.85,11.03 -7.11,12.2 -0.24,0.05 -1.56,-0.15 -1.5,-0.19 0.22,-0.15 2.31,-0.04 1.86,0.74 -2.56,0.76 -4.81,1.63 -7.09,-0.79 -7.27,-7.74 9.4,-21.07 13.84,-11.96 z"
     id="path158" />
  <path
     class="cls-107"
     d="m 196.51,38.243214 c 0.23,0.27 0.57,0.5 0.75,0.75 1,-1.06 1.41,-0.62 0.75,0.75 0.2,6.41 -1.76,12.48 -5.89,18.21 0.37,3.78 -3.3,5.34 -4.61,2.04 -1.98,-0.22 -1.98,-1.22 0,-3 1.39,-5.24 3.94,-12.2 6,-17.25 -0.09,-3.41 0.91,-3.91 3,-1.5 z"
     id="path160" />
  <path
     class="cls-93"
     d="m 173.26,54.743214 c 3.45,1.25 8.4,2.63 12,3.45 1.77,0.4 1.33,0.19 2.25,-1.2 -0.22,0.81 0.21,2.17 0,3 0.85,0.5 1.23,1.19 0.5,1.77 2.57,0.03 5.13,2.43 1.75,2.73 l -3.06,0.56 c -5.04,-1.54 -9.77,-3.48 -14.19,-5.81 -0.65,-0.23 -0.64,-0.48 0,-0.75 -4.09,-1.81 -4.5,-5.29 0.75,-3.75 z"
     id="path162" />
  <path
     class="cls-17"
     d="m 173.26,54.743214 h -2.25 c -0.33,1.94 0.31,2.76 2.25,3.02 0.13,0.81 -0.72,0.69 -0.75,0.73 -0.69,1.15 -1.76,1.32 -2.25,0 -1.9,0.69 -8.2,-3.02 -6.75,-5.25 -0.5,-0.55 -1.1,-1.57 -1.5,-2.25 -0.31,-0.54 -2.62,-4.69 -0.38,-3.74 1.34,0.57 5.78,5.23 7.94,6.32 0.81,0.41 2.48,0.73 3.7,1.17 z"
     id="path164" />
  <path
     class="cls-14"
     d="m 180.01,50.243214 -1.86,-0.74 c 3.7,-0.28 7.68,-4.69 8.29,-8.22 0.22,-1.28 -0.99,-3.02 0.32,-3.79 2.65,5.45 -1.46,11.18 -6.75,12.75 z"
     id="path166" />
  <path
     class="cls-98"
     d="m 196.51,38.243214 -2.24,-0.75 c 0.25,0.99 -0.48,1.57 -0.76,2.25 0.23,-1.46 -0.21,-2.47 -0.75,-3.75 l 0.37,-1.5 c 1.36,1.05 2.28,2.47 3.38,3.75 z"
     id="path168" />
  <path
     class="cls-1"
     d="m 165.01,93.743214 1.53,-0.85 c 1.91,1.31 3.9,2.35 5.97,3.1 2.71,-2.26 6.96,-2.18 9.75,0 0.58,1.31 0.29,1.92 -1.05,2.16 l -7.1,0.29 0.45,7.659996 c 3.31,-1.53 11.72,1.92 10.7,5.64 -0.43,1.11 -1.3,1.38 -2.62,0.81 2.99,1.74 4.36,3.72 4.12,5.94 2.37,1.47 5.65,4.96 3.75,7.5 1.34,3.91 1.12,8.11 -0.67,12.59 0.32,2.29 0.05,4.1 -0.83,5.41 -2.16,1.86 -6.09,2.28 -9,2.25 l -1.15,-1.19 c 0.2,-5.02 1.53,-9.78 3.11,-14.58 1.11,-3.82 -0.63,-6.32 -4.33,-7.26 l -0.63,-1.72 c 0.93,-4.63 -3.08,-9.62 -6.75,-12 -4.71,0.15 -7.96,-1.35 -9.75,-4.5 -0.26,-1.41 0.11,-1.96 1.41,-2.17 -2.62,0.25 -4.34,-0.52 -5.16,-2.33 0.41,-1.579996 2.26,-2.299996 5.55,-2.159996 -0.94,-2.48 -0.79,-4.25 0.45,-5.34 0.83,0.05 1.53,0.38 2.25,0.75 z"
     id="path170" />
  <path
     class="cls-52"
     d="m 180.01,146.24321 c -3.6,1.09 -7.35,2.09 -11.25,3 -4.94,-1.85 -9.74,-6.49 -14.32,-8.55 -1.95,-0.88 -13,-3.64 -13.43,-4.2 -0.07,-0.1 -0.26,-1.6 0.36,-1.49 l 13.14,3.74 c 0.34,0.23 0.8,1.11 1.67,1.68 1.19,0.77 12.12,7.88 12.58,7.32 0.22,-5.13 1.13,-11.44 2.79,-16.33 1.12,-3.28 5.08,-8.03 5.46,-9.92 11.17,2.68 5.45,10.84 3.93,17.8 -0.48,2.19 0.08,4.73 -0.93,6.95 z"
     id="path172" />
  <path
     class="cls-124"
     d="m 156.01,124.49321 c -1.56,-4.68 -1.06,-7.15 -5.95,-9.45 5.11,-10.87 8.25,2.11 7.45,7.95 0.85,1 7.99,-7.74 12.75,-6 1.1,0.4 2.39,4.54 0.8,5.67 -2.23,1.59 -4.37,-1.12 -5.54,-1.04 -2.46,0.17 -6.24,5.33 -9.51,2.86 z"
     id="path174" />
  <path
     class="cls-108"
     d="m 170.26,109.49321 c -1.38,-0.58 -2.27,0.54 -3,0.75 -5.6,1.64 -4.88,-0.01 -7.5,-4.5 -1.16,-1.25 -0.7,-1.69 0.75,-0.75 3.09,1.76 6.75,2.56 9.75,4.5 z"
     id="path176" />
  <path
     class="cls-104"
     d="m 223.51,77.243214 c 2.87,0.36 3.4,1.55 2.7,4.28 -2.55,6.93 -2.05,20.749996 7.41,21.479996 -2.82,-2.22 -7.55,-6.989996 -4.11,-10.009996 6.62,5.25 6.91,12.999996 16.5,13.499996 0.65,0.21 0.65,0.46 0,0.75 -6.87,8.05 -14.01,15.94 -21.43,23.69 l -1.07,-0.44 c -2.33,3.8 -13.5,9.47 -17.42,9.31 -5.65,-0.22 -13.02,-12.75 -15.42,-17.45 l 0.59,-1.61 c 0.95,-1.46 2.05,-1.46 3,0 l 1.64,0.57 c 2.27,4.95 7.35,8.63 12.3,10.62 l -0.57,-16.1 c 0.12,-2.21 1.2,-4.41 2.39,-6.34 l -1.19,-1.75 c 1.57,-6.13 1.07,-12.699996 -0.31,-18.499996 -0.66,-0.18 -0.65,-0.43 0,-0.75 l -0.11,-1.88 c 7.95,-3.62 11.81,-6.53 1.95,-11.1 l -0.34,-2.02 c 4.51,0.83 9.01,2.08 13.5,3.75 z"
     id="path178" />
  <path
     class="cls-164"
     d="m 251.07,78.883214 c 2.67,-0.52 4.91,0.99 6.09,3.33 3.88,7.62 -6.08,22.289996 -13.04,16.78 -6.53,-5.17 -0.29,-18.69 6.95,-20.11 z"
     id="path180" />
  <path
     class="cls-81"
     d="m 225.76,77.243214 c 2.2,0.3 4.44,0.39 6.49,-0.59 l 1.01,1.34 c 1.4,0.22 0.3,1.81 -0.75,2.25 -1.89,4 -3.2,8.22 -3,12.75 0.1,2.36 0.33,3.45 1.63,5.5 1.58,2.499996 4.45,3.069996 5.12,5.749996 -10.98,2.21 -13.53,-9.899996 -12.74,-18.369996 0.26,-2.82 3.1,-7.13 0,-8.63 h 2.25 z"
     id="path182" />
  <path
     class="cls-78"
     d="m 245.26,69.743214 c -0.03,-1.79 1.29,-1.23 2.25,0 0.58,-2.12 1.46,-2.04 2.25,0 0.37,0.09 2.94,1.91 3.75,2.25 -3.03,-0.05 -4.33,0.75 -6.75,2.25 -3.9,0.16 -6.96,1.36 -10.5,3 0.96,1.75 -1.71,4.89 -3,6 0.87,1.22 1.26,2.69 1.19,4.42 1.3,1 1.91,2.03 1.81,3.08 -0.18,1.5 0.07,3.29 0,4.87 -0.04,0.91 0.57,2.8 -0.74,2.62 -2.01,-6.64 -5.4,-10.56 -3.01,-17.99 0.34,-0.72 0.53,-1.9 0.75,-2.25 -0.75,-4.59 7.44,-9.14 12,-8.25 z"
     id="path184" />
  <path
     class="cls-115"
     d="m 240.76,79.493214 c -1.28,1.65 -2.27,4.02 -3,6 -1.7,3.5 -4.34,0.66 -4.5,-2.25 0.19,-0.9 -0.18,-1.71 0.4,-2.94 0.42,-0.87 1.85,-2.21 2.6,-3.06 2.19,-2.23 6.02,-0.72 4.5,2.25 z"
     id="path186" />
  <path
     class="cls-30"
     d="m 246.76,74.243214 c -1.33,0.82 -4.91,3.84 -6,5.25 -0.8,-1.74 -2.71,-2.27 -4.5,-2.25 1.13,-1.29 1.81,-2.81 3.71,-3.42 1.16,-0.37 6.27,-1.55 6.79,0.42 z"
     id="path188" />
  <path
     class="cls-143"
     d="m 237.76,85.493214 c -0.64,1.74 -1.27,3.37 -1.5,5.25 -4.18,-1.39 -3.73,-4.07 -3,-7.5 1.77,0.64 2.66,3.81 4.5,2.25 z"
     id="path190" />
  <path
     class="cls-19"
     d="m 248.26,106.49321 3,7.49 c -1.13,0.14 -2.76,0.28 -3.75,0.76 -1.53,-1.73 -2.36,-5.11 -0.9,-7.27 0.09,-0.13 0.64,2.87 -0.6,-0.23 v -0.75 c 0.69,0.04 1.61,0.09 2.25,0 z"
     id="path192" />
  <path
     class="cls-147"
     d="m 178.51,208.49321 c 1.56,1.36 1.21,2.1 -0.75,2.25 0,2.28 -1.9,3.31 -5.71,3.08 2.19,0.77 3.85,1.74 4.96,2.92 0.79,-0.61 1.29,-0.61 1.5,0 v 0.92 c -2.15,0.49 -3.25,1.09 -4.5,2.83 1.04,1.02 0.57,1.47 -0.75,0.75 -3.66,2.58 -7.78,8.68 -10.97,10.41 -1.86,1.01 -3.01,0.41 -4.78,0.84 -0.26,0.06 -0.6,-0.09 -0.75,0 -0.05,-1.46 -0.94,-2.47 -2.25,-3 -1.16,-1.03 -2.41,-2.03 -3.75,-3 1.15,-2.59 -1.27,-3.14 -3.75,-3 -1.67,-2.05 0.54,-3.51 2.25,-1.5 0.27,0.25 1.07,0.56 1.5,0.75 2.49,1.08 2.24,0.27 4.5,-0.75 -0.88,-1.93 0.61,-2.74 2.25,-1.5 3.67,-2.22 4.1,-7.5 1.04,-10.45 l 0.46,-0.8 c -1.69,-1.84 0.32,-3.03 1.5,-0.75 1.24,-1.98 3.44,-1.54 6.62,1.32 2.53,-1.09 4.58,-1.28 6.13,-0.57 1.44,-2.03 1.3,-3.5 -0.77,-5.72 -0.43,-2.48 1.38,-5.98 3.77,-4.03 1.24,2.87 1.99,5.87 2.25,9 z"
     id="path194" />
  <path
     class="cls-38"
     d="m 192.76,210.74321 c 1.78,-0.78 4.54,1.01 4.5,3 0.97,0.43 1.56,1.2 3,0.75 -0.02,0.07 0.88,0.51 0.43,1.44 -0.82,1.66 -15.69,9.5 -17.42,9.65 -0.8,0.07 -9.4,-2.77 -10,-4.33 0.26,-0.18 0.46,-0.58 0.75,-0.75 l 0.15,-1.68 c 6.92,-1.1 12.57,-4.13 17.85,-8.07 h 0.75 z"
     id="path196" />
  <path
     class="cls-74"
     d="m 215.26,258.74321 c 1.68,-3.38 2.21,-3.02 5.97,-2.22 0.4,1.45 -0.31,2.5 -0.72,3.72 -0.49,1.45 -3.4,10.09 -3.88,10.37 -0.43,0.26 -3.15,0.3 -3.62,0.13 -1.42,-0.5 1.44,-10.37 2.25,-12 z"
     id="path198" />
  <path
     class="cls-103"
     d="m 210.01,254.99321 c -2.85,2.77 -1.43,12.43 -6.76,10.08 -0.35,-2.71 0.24,-7.66 1.51,-10.08 0.46,-0.88 2.28,-3.04 3.37,-3.04 2.28,0 1.63,2.77 1.88,3.04 z"
     id="path200" />
  <path
     class="cls-5"
     d="m 156.76,100.49321 c 2.95,0.86 5.07,0.95 8.25,0.75 0.81,3.22 -2.42,2.46 -4.5,3.75 -0.28,0.18 -0.88,0.05 -0.75,0.75 -2.57,-0.89 -4.23,-1.1 -6.75,0 -0.7,-0.56 -1.46,-1.08 -2.25,-1.5 h 6.75 c 0,0 0,-2.25 0,-2.25 -4.69,0.04 -7.86,-2.809996 -9.75,-6.749996 2.73,-0.39 7.8,2.79 9,5.249996 z"
     id="path202" />
  <path
     class="cls-82"
     d="m 159.01,154.49321 c 1.22,1.36 2.51,3.4 2.25,5.25 1.53,0.92 2.73,11.54 2.36,12.05 l -1.61,0.7 c 1.57,1.92 0.79,2.39 -1.5,2.25 1.11,1.91 -0.76,2.77 -2.25,1.5 -5.61,3.05 -10.61,7.3 -15,12.75 -1.89,1.86 -5.51,-1.85 -3.75,-3.75 -2.37,-1.39 -2.62,-2.39 -0.75,-3 l -0.57,-1.01 c 2.02,-5.03 1.43,-9.71 0.34,-14.91 -2.14,-3.09 -1.19,-4.64 2.47,-5.08 2.07,-3.85 3.1,-9.9 6.75,-12.75 3.31,2.44 7.62,4.11 11.25,6 z"
     id="path204" />
  <path
     class="cls-2"
     d="m 168.76,149.24321 24.9,-5.64 c 0.92,1.79 2.72,2.21 5.42,1.28 l 1.18,1.36 c 1.43,0.62 0.35,2.31 -0.75,3 2.09,1.28 1.15,2.01 -0.75,3 1.87,1.33 0.68,3.11 -1.5,3 l -1.44,0.76 -6.26,-5.05 c -1.18,1.57 -2.36,2 -3.55,1.29 0.34,2.31 -1.83,3.63 -3.75,2.25 0.13,2.58 -4.58,4.93 -6.75,3.75 -1.77,1.55 -1.75,3.36 -1.38,5.62 l 1.5,8.04 -0.87,0.59 c 1.59,2.04 1.34,3.04 -0.75,3 -0.24,1.99 -0.93,1.91 -1.5,0 l -1.28,-1.42 c -0.01,-4.59 -0.63,-9.13 -1.85,-13.63 l 0.88,-0.71 c -0.01,-0.08 0.64,-0.52 0.44,-1.47 -0.52,-2.54 -1.77,-5.78 -1.94,-8.28 -0.02,-0.25 0.01,-0.5 0,-0.75 z"
     id="path206" />
  <path
     class="cls-168"
     d="m 170.26,159.74321 c 1.11,5.83 3.68,8.51 2.25,15.75 1.49,1.29 1.08,1.89 -0.75,2.25 4.45,4.21 0.96,4 -3,3 -2.03,-0.31 -1.84,-0.71 0,-1.5 0.05,-2.73 -0.52,-4.67 -1.71,-5.84 -0.67,-4.93 -0.35,-9.48 0.96,-13.66 h 0.75 c 0.47,-0.07 1.01,0.05 1.5,0 z"
     id="path208" />
  <path
     class="cls-156"
     d="m 168.76,159.74321 c -0.27,0.04 -0.61,-0.08 -0.75,0 0.36,7 -5.25,4.62 -6.75,0 -2.15,-1.57 -2.64,-2.42 -2.25,-5.25 3.26,1.7 6.49,3.54 9.75,5.25 z"
     id="path210" />
  <path
     class="cls-24"
     d="m 224.26,24.743214 c 1.07,0.48 1.09,0.47 2.25,0.75 0.34,0.7 0.67,1.46 0.75,2.25 2.92,7.32 5.04,17.14 3,24.75 -0.02,1.07 -0.47,1.77 -1.49,1.52 -3.84,-1.62 -7.59,-2.38 -11.26,-2.27 l -0.96,0.39 c -3.53,-4.04 -8.13,-3.05 -11.04,1.11 -2.2,3.07 -0.01,7.11 3.02,8.74 l -0.02,1.01 c 2.79,2.87 -1.49,3.45 -4.28,3.2 -3.64,-0.33 -15.52,-3.73 -11.94,-8.6 4.06,-5.59 5.97,-11.53 5.73,-17.85 -0.15,-0.25 -0.55,-0.47 -0.75,-0.75 l 20.25,-19.5 c 2.35,1.56 4.11,4.07 6.75,5.25 z"
     id="path212" />
  <path
     class="cls-66"
     d="m 227.26,27.743214 c 2.19,5.1 7.43,4.02 12,3.75 2.39,7.4 10.15,21.43 11.09,28.32 0.46,3.34 -1.15,6.55 -0.59,9.93 -0.57,-0.14 -1.54,0.04 -2.25,0 -6.69,-4.47 -9.95,-3.66 -14.9,2.42 -1.67,1.82 -2.95,2.01 -3.85,0.58 l -1.23,-1.53 c 0.96,-5.75 1.46,-11.61 1.3,-17.44 l 1.43,-1.28 c -0.6,-8.25 -2.15,-16.49 -3,-24.75 z"
     id="path214" />
  <path
     class="cls-23"
     d="m 170.26,58.493214 c 2.72,2.1 4.51,3.91 2.94,9.23 3.21,4.93 -0.71,11.78 -5.19,14.02 -0.18,0.65 -0.44,0.63 -0.75,0 -2.3,-0.66 -12.33,-14.79 -14.96,-17.66 -0.83,-0.91 -1.72,-1.75 -3.04,-1.86 -0.15,-0.19 0.55,-1.13 0.75,-1.48 2.36,-1.21 5.48,-2.24 8.01,-3.62 1.89,-1.03 3.87,-2.46 5.49,-3.88 1.88,2.07 4.98,2.89 6.75,5.25 z"
     id="path216" />
  <path
     class="cls-162"
     d="m 198.01,80.243214 c 1.73,1.83 0.89,4.56 -1.5,5.25 -0.06,0.92 -0.31,1.67 -0.75,2.25 -0.18,1 -0.85,1.08 -1.78,1.09 l -17.58,0.08 c -3.54,0.95 -10.16,1.37 -11.39,-2.66 -0.27,-0.12 -0.48,-0.6 -0.75,-0.75 h 1.49 c -0.12,-1.79 -0.26,-2.99 1.51,-3.75 0.25,0.03 0.51,-0.03 0.75,0 1.48,-1.9 6.2,-2.06 7.88,-0.75 1.24,-2.46 10.55,-2.35 12,0 -0.82,-3.21 9.48,-3.43 10.12,-0.75 z"
     id="path218" />
  <path
     class="cls-135"
     d="m 123.01,164.99321 1.64,-0.14 c 2.95,4.77 5.14,9.72 6.61,15.14 1.89,-0.88 3.53,1.41 2.25,3 2.94,-0.7 4.94,0.05 6,2.25 1,1.51 2.15,2.85 3.75,3.75 0.33,0.23 0.32,0.48 0,0.75 l 2.14,0.66 10.2,12.83 c 1.07,1.31 1.4,2.25 -0.34,3.01 l 4.51,5.29 c 0.81,1.3 0.8,2.29 0,2.96 l -1.69,0.39 -16.97,-18.08 -2.34,-0.31 c -3.4,1.22 -5.64,-5.23 -3.75,-7.5 -3.19,-0.87 -4.94,-2.12 -5.25,-3.75 l -1.08,0.06 c -0.89,-1.43 -1.78,-2.95 -2.67,-4.56 -1.94,1.13 -4.19,1.38 -6.75,0.75 -2.82,0.05 -3.82,-0.7 -3,-2.25 -0.34,-1.25 0.75,-2.02 1.5,-0.75 9.79,-1 7.94,-2.3 4.4,-10.03 -1.43,-3.12 -1.48,-3.45 -2.15,-5.72 0.54,1.32 1.57,2.1 3,2.25 z"
     id="path220" />
  <path
     class="cls-4"
     d="m 101.26,152.24321 c 3.23,0.24 6.34,4.89 8.51,7.24 3.15,3.42 8.05,8.41 10.12,12.75 1.73,3.62 0.72,4.06 -2.13,6.26 -0.4,0.04 -1.02,0.61 -1.5,0.75 -1.72,1.38 -2.62,0.33 -1.5,-1.5 1.98,0.65 2.25,-2.89 1.9,-3.73 -4.08,-3.52 -7.05,-7.98 -10.52,-12.03 -1.57,-1.83 -7.54,-6.9 -7.88,-8.99 0.83,-0.12 1.57,-0.86 3,-0.75 z"
     id="path222" />
  <path
     class="cls-133"
     d="m 221.26,149.24321 c -0.58,-0.29 -1.07,-0.7 -1.34,-1.3 -1.98,-4.44 18.48,-19.2 22.03,-21.51 2.09,-1.36 10.71,-6.38 12.59,-6.1 2.4,0.37 6.1,3.42 4.97,5.65 -0.14,2.87 0.11,5.87 0.75,9 0.87,2.45 2.13,4.82 2.25,7.5 1.06,4.16 -3.26,6.26 -4.82,9.06 -4.33,7.79 -2.92,19.02 -5.68,27.69 l -16.5,-8.25 c -2.8,-4.09 3.08,-6.79 6.71,-5.14 1.56,-2.38 11.31,-17.26 10.2,-19.16 -2.24,-3.85 -22.79,-7.66 -25.9,-0.88 -1.64,2.27 -3.39,3.41 -5.25,3.42 z"
     id="path224" />
  <path
     class="cls-62"
     d="m 263.26,181.49321 c 1.03,1.34 -0.1,1.52 -1.5,1.5 l -0.75,-0.75 c -0.05,-0.24 0.04,-0.51 0,-0.75 -2.44,-3.84 -3.19,-8.34 -2.25,-13.5 1.33,-3.66 2.54,-8.18 3.75,-12 -1.19,6.33 -0.39,10.05 1.68,15.95 0.67,1.9 3.62,5.84 2.51,7.34 -0.15,0.2 -2.28,1.19 -3.43,2.22 z"
     id="path226" />
  <path
     class="cls-163"
     d="m 261.01,181.49321 c -1.89,-0.29 -4.59,-4.06 -5.25,-6 0.91,-2.09 2.22,-5.36 3,-7.5 1.6,4.15 1.53,9.23 2.25,13.5 z"
     id="path228" />
  <path
     class="cls-33"
     d="m 129.76,185.24321 c 0.99,3.52 -7.4,9.04 -10.5,7.5 0.52,-2.44 -2.99,-3.88 -1.5,-6 1.55,-0.53 3.7,-2.74 5.25,-3.75 -0.28,-0.97 0.72,-1.72 3,-2.25 3.88,0.61 2.87,3.09 3.75,4.5 z"
     id="path230" />
  <path
     class="cls-160"
     d="m 125.26,192.74321 c 2.36,-3.32 6.6,3.61 6.41,4.85 -0.33,2.2 -5.04,4.05 -7.16,3.4 -0.53,-1.13 -1.08,-4.87 -2.23,-5.69 -1,-0.7 -8.92,1.11 -9.77,-1.8 0.49,-0.05 1.01,0.05 1.5,0 3.59,0.72 7.08,-0.11 10.37,-1.4 l 0.88,0.65 z"
     id="path232" />
  <path
     class="cls-127"
     d="m 135.01,188.99321 c -1.24,0.71 -2.65,1.21 -4.23,1.52 -1.69,1.64 -3.53,2.39 -5.52,2.23 -3.18,1.94 -7.95,2.26 -11.25,0.75 1.94,-0.22 3.24,-0.22 5.25,-0.75 4.18,-1.11 7.89,-4.08 10.5,-7.5 0.31,0.5 3.82,0.79 5.25,3.75 z"
     id="path234" />
  <path
     class="cls-48"
     d="m 141.01,161.24321 c -0.39,0.73 -2,1.19 -2.2,1.95 -0.22,0.86 1.09,1.97 1.23,3.02 0.27,2.05 0.64,3.88 0.93,5.94 0.54,3.77 -0.29,6.88 -2.21,10.09 -0.83,1.61 -1.79,0.99 -1.5,-0.75 -1.41,-0.45 -1.81,-1.8 -1.18,-4.05 -5.85,-0.06 -4.7,-6.58 -1.59,-9.76 -3.54,-0.84 -4.18,2.9 -1.93,11.2 l -1.3,1.11 -8.25,-15 c 1.79,-0.53 3.28,-2.46 5.03,-2.85 2.45,-0.55 4.11,0.55 5.75,0.38 1.75,-0.18 4.53,-2.28 7.22,-1.28 z"
     id="path236" />
  <path
     class="cls-84"
     d="m 156.01,85.493214 c 0.02,1.94 0.77,2.94 2.25,3 1.08,1.2 3.81,2.83 4.5,4.5 0.27,0.64 1.37,6.49 1.17,6.77 l -7.17,0.729996 c -3.42,-0.999996 -6.35,-2.969996 -9,-5.249996 -0.23,-0.48 -0.63,-1.04 -0.75,-1.5 -1.27,-4.75 -1.48,-11.98 0.75,-16.5 2.71,2.77 5.59,5.48 8.25,8.25 z"
     id="path238" />
  <path
     class="cls-89"
     d="m 195.76,87.743214 c 0.61,0.39 0.43,0.94 0,1.5 0,1.6 -1.24,0.9 -2.25,0 l -0.31,0.99 c -5.76,0.14 -11.63,0.36 -17.61,0.64 l -3.08,5.12 c -0.17,0 -0.8,1.03 -2.42,0.66 -1.42,-0.33 -3.6,-2.16 -5.08,-2.91 0.28,-0.22 0.53,-0.47 0.75,-0.75 1.03,-3.08 1.03,-3.58 0,-1.5 -0.54,-1.77 -1.2,-3.05 -0.75,-5.25 6.9,3.22 18.92,2.55 26.66,2.28 1.43,-0.05 2.84,0.08 4.09,-0.78 z"
     id="path240" />
  <path
     class="cls-139"
     d="m 158.26,88.493214 -1.12,1.5 c -1.64,-1.25 -2.54,-2.58 -1.13,-4.5 1.29,1.35 1.71,2.4 2.25,3 z"
     id="path242" />
  <path
     class="cls-1"
     d="m 165.76,92.993214 c -0.08,-0.47 0.12,-1.11 0,-1.5 l 0.74,-1.5 c 0.22,1.43 0.12,1.93 -0.74,3 z"
     id="path244" />
  <path
     class="cls-159"
     d="m 114.76,177.74321 c 0.53,0.52 0.77,0.92 1.5,1.5 0.99,0.79 2.1,1.37 3,2.25 -0.58,0.27 -1.33,0.52 -2.25,0.75 -2.49,-0.02 -5.01,0.02 -7.5,0 l 3.75,-5.99 c 0.58,0.68 0.95,0.96 1.5,1.5 z"
     id="path246" />
  <path
     class="cls-22"
     d="m 126.01,180.74321 c -0.41,1.86 -2.16,1.7 -3,2.25 -1.24,-1.34 -4.12,-0.73 -6,-0.75 0.41,-1.06 1.5,-0.6 2.25,-0.75 2.25,-0.47 4.36,-1.12 6.75,-0.75 z"
     id="path248" />
  <path
     class="cls-111"
     d="m 269.26,169.49321 1.42,0.99 c 0.42,3.06 1.33,6.05 2.76,8.95 l -1.18,1.3 c 0.31,1.21 1.54,3.99 -0.43,4.42 -0.55,0.12 -9.39,-1.68 -10.07,-2.17 0.23,-0.84 0.99,-1.05 1.5,-1.5 8.47,0.68 5.29,-7.33 4.5,-12.75 0.49,0.16 1.05,0.66 1.5,0.75 z"
     id="path250" />
  <path
     class="cls-70"
     d="m 261.01,128.24321 c -1.69,0.04 -2.13,-0.67 -1.5,-2.25 -1.12,-1.72 -2.65,-4.37 -5.32,-4.16 -1.71,0.14 -11.82,5.94 -13.67,7.29 -3.1,2.26 -8.59,6.66 -11.51,9.13 -3.68,3.11 -7.34,6.06 -7.75,10.99 2.54,0.35 1.86,10.42 0.62,11.57 -1.36,1.27 -10.41,4.85 -11.87,2.68 -0.94,-0.28 -1.16,-0.56 -0.41,-0.83 l 4.91,-11.92 c -1.08,-2.62 1.28,-5.47 3.75,-6 1.31,-5.31 6.38,-10.61 10.36,-14.61 4.37,-4.39 10.25,-9.63 15.89,-11.64 5.83,-3.29 12.26,-0.38 15.75,4.87 1.67,2.5 1.22,2.65 0.75,4.88 z"
     id="path252" />
  <path
     class="cls-8"
     d="m 243.76,117.74321 0.75,0.75 c -9.25,5.22 -20.26,17.46 -26.25,26.25 -1.69,0.7 -1.94,-0.05 -0.75,-2.25 -0.27,-2.13 0.98,-4.13 3.75,-6 1,-2.9 3.62,-6.84 6.75,-7.5 l 11.67,-10.63 c 1.48,-1.3 2.84,-1.51 4.08,-0.62 z"
     id="path254" />
  <path
     class="cls-6"
     d="m 246.01,107.24321 1.42,0.06 c -1.61,2.82 1.73,4.56 0.08,7.44 -1.67,0.8 -2.75,2.39 -3.75,3 -2.45,1.5 -5.5,2.9 -7.75,4.62 -2.78,2.12 -4.7,5.54 -8,6.63 l 0.04,-1.38 c 6.01,-6.84 12,-13.63 17.96,-20.37 z"
     id="path256" />
  <path
     class="cls-16"
     d="m 276.01,182.24321 c -1.48,0.27 -2.67,-0.68 -3.75,-1.5 -0.95,-3.7 -3.55,-7.05 -3,-11.25 4.13,0.78 7.4,0.46 10.44,4.2 z"
     id="path258" />
  <path
     class="cls-20"
     d="m 147.76,219.74321 c 0.5,0.65 1.01,1.8 1.5,2.25 -1.5,-0.22 -1.67,1 -2.25,1.5 -0.93,0.81 -1.7,1.14 -2.58,2.29 -1.3,1.7 -1.54,5.21 -4.17,5.21 0,-4.87 1.86,-10.92 7.5,-11.25 z"
     id="path260" />
  <path
     class="cls-87"
     d="m 138.01,199.49321 c 0.29,-0.88 0.77,-1.41 1.44,-1.59 1.42,-0.18 19.07,16.31 19.56,20.34 0.37,0.85 -0.13,1.6 -1.5,2.25 -0.64,0.46 -1.59,1.2 -2.25,1.5 l -17.23,-18.42 c -0.44,-0.93 -1.94,-0.83 -2.27,-1.08 -0.46,-1.77 0.28,-3.27 2.25,-3 z"
     id="path262" />
  <path
     class="cls-57"
     d="m 135.01,188.99321 c 1.3,2.69 0.72,5.4 3.75,7.5 1.98,1.11 1.52,2.69 -0.75,3 -0.58,1.37 -0.67,2.11 -2.25,3 -0.16,-0.12 -0.64,0.13 -0.75,0 -0.34,-0.37 0.29,-2.11 -1.88,-2.28 -2.31,-0.19 -5.26,2.45 -8.19,1.47 -0.37,-0.1 -0.31,-0.43 -0.43,-0.68 2.11,-0.94 4.33,-1.62 5.99,-3.37 -2.06,-1.35 -2.09,-5.6 -5.24,-4.88 2.91,-1.77 5.34,-5.67 9.75,-3.75 z"
     id="path264" />
  <path
     class="cls-91"
     d="m 150.76,226.49321 c 1.34,-0.23 3.08,0.16 4.5,0 0.25,0.23 -0.32,2.52 -0.75,3 -2.08,2.31 -3.16,1.92 -5.25,6 -2.38,-3.06 0.29,-6.28 1.5,-9 z"
     id="path266" />
  <path
     class="cls-126"
     d="m 259.51,125.99321 c 0.29,0.44 1.79,0.81 1.5,2.25 -0.45,2.13 -1.24,4.11 -0.75,6.75 -0.9,-2.53 -1.91,-5.23 -3.37,-7.53 z"
     id="path268" />
  <path
     class="cls-37"
     d="m 183.76,191.99321 c 1.98,-1.53 3.22,-3.55 6,-3 l -1.49,4.49 c 6.38,-1.9 10.66,1.22 11.27,7.9 0.3,3.25 -0.36,2.09 -2.28,3.36 -1.21,0.81 -4.19,1.98 -4.88,3.03 -0.58,0.89 -0.2,1.84 -0.37,2.22 -0.74,0.99 -5.79,5.26 -6.61,5.13 -0.32,-0.05 -0.61,-0.31 -0.89,-0.63 -2.11,-0.88 -6.42,-3.4 -6,-6 -2.14,-2.44 -3.84,-5.82 -2.25,-9 -0.38,-3.4 4.09,-7.93 7.5,-7.5 z"
     id="path270" />
  <path
     class="cls-65"
     d="m 192.76,210.74321 c -1.22,-2.82 5.82,-6.07 6.74,-5.25 0.25,2.84 2.82,8.58 -2.24,8.25 -1.61,-0.72 -3.56,-1.39 -4.5,-3 z"
     id="path272" />
  <path
     class="cls-95"
     d="m 234.76,170.99321 c -1.48,2.85 -4.42,4.73 -6.37,6.75 -3.58,3.7 -6.74,8.02 -10.88,11.25 -0.8,0.62 -1.6,1.29 -2.65,1.46 -7,0.31 -13.77,2.38 -20.83,1.4 -1.05,-0.32 -5.88,-9 -6.12,-10.39 -0.19,-1.07 1.03,-1.57 1.08,-2.58 0.03,-0.59 -0.74,-1.04 -0.73,-1.14 -0.66,-0.19 -0.64,-0.44 0,-0.75 -3.24,-3.07 2.29,-9.5 6,-8.25 -0.34,-2.39 3.1,-2.15 4.5,-0.75 4.7,-1.81 9.6,-2.92 14.69,-3.3 4.41,-2.3 8.95,-3.97 13.61,-5.02 3.49,0.46 8.69,7.87 7.7,11.33 z"
     id="path274" />
  <path
     class="cls-28"
     d="m 178.51,174.74321 c 1.58,-1.77 2.97,-1.49 3.75,0.75 0.32,0.4 0.32,0.65 0,0.75 -0.06,2.33 -1.72,2.42 -3.75,2.26 l 3.75,4.12 c -8.58,4.99 1.47,4.01 1.5,9.37 -2.82,2.19 -5.27,4.72 -7.5,7.5 -0.32,0.4 -1.49,0.64 -1.87,1.48 -1.71,3.72 2.13,5.92 1.88,7.13 -0.72,1.45 -2.27,0.84 -3,1.14 -1.18,-0.45 -1.79,-1.64 -1.82,-3.57 -6.65,3.6 -17.17,-0.03 -6.57,-5.57 2.35,-1.49 3.16,-4.11 2.44,-7.84 1.75,-2.64 3.7,-5.22 5.85,-7.74 -1.63,-0.98 -3.09,-1.99 -4.4,-3.02 -0.65,-0.21 -0.65,-0.46 0,-0.75 h 3.75 c 0.33,-0.3 -0.73,-2.3 -0.75,-3 6.3,0.09 7.05,-0.66 2.25,-2.25 0.56,-0.91 0.81,-1.93 0.75,-3 l 0.95,-0.28 c 0.39,1.34 1.51,2.12 2.8,2.53 z"
     id="path276" />
  <path
     class="cls-37"
     d="m 184.51,175.49321 c 1.46,-1.59 3.42,-0.38 3.75,1.5 -0.03,0.25 0.02,0.5 0,0.75 l -0.45,0.72 -5.55,-2.22 -0.74,-0.38 0.74,-0.38 c 0.17,-2.18 1.48,-1.73 2.25,0 z"
     id="path278" />
  <rect
     class="cls-37"
     x="184.50999"
     y="185.99321"
     width="2.99"
     height="1.49"
     id="rect280" />
  <path
     class="cls-146"
     d="m 221.26,149.24321 c 4.67,-5.79 9.66,-9.73 17.55,-8.92 2.78,0.28 14.14,3.45 15.04,5.88 1.48,3.99 -9.43,16.89 -10.12,21.77 -4,-1.57 -7.29,-2.15 -8.22,3.02 h -0.75 c -1.43,-2.12 -5.01,-9.39 -7.14,-9.78 -3.33,-0.61 -10.25,3.91 -13.83,4.93 l -15.03,1.85 c -0.81,-1.67 0.19,-2.42 3,-2.25 0.04,-1.36 1.54,-2.11 4.5,-2.25 0.96,-0.45 2.21,-0.45 3.75,0 4.02,-0.76 7.11,-2.4 10.92,-3.7 0.88,-1.23 0.14,-8.26 0.33,-10.55 z"
     id="path282" />
  <path
     class="cls-136"
     d="m 198.01,39.743214 c 2.36,4.01 0.38,9.08 -1.63,12.99 -2.63,5.11 -7.7,6.57 0.92,9.85 2.07,0.79 11.19,4.39 11.22,0.41 -0.05,-1.42 1.07,-1.27 1.5,0 7.25,1.8 13.14,-2.83 8.25,-9.75 -1.3,0.59 -1.83,-0.62 -0.75,-1.5 2.05,-4.58 8.55,1.49 12.75,0.75 0.39,5.42 -0.34,14.56 -1.5,20.25 2.15,1.37 0.61,3.67 -1.5,4.5 h -1.5 c -10.07,-2.29 -21.21,-5.68 -30.86,-9.42 -1.59,-0.62 -4.46,-2.11 -5.14,-3.33 l 0.75,-0.74 -4.5,-0.76 c -0.58,-1.39 1.35,-2.4 1.5,-3 l 3.01,0.24 c 2.64,-6.78 6.4,-13.19 7.49,-20.49 z"
     id="path284" />
  <path
     class="cls-153"
     d="m 189.76,64.493214 c 10.66,3.71 25.26,10.59 36,12.75 -0.71,-0.1 -1.58,0.13 -2.25,0 -4.45,-0.84 -9.14,-2.45 -13.5,-3.75 -3.25,1.86 -8.23,-1.25 -10.5,-3.75 -1.54,2.26 -6.74,1.13 -7.94,-1.41 -1.88,1.66 -17.55,-4.91 -18.33,-5.65 -0.82,-0.78 -3.25,-5.12 -0.73,-3.43 5.61,2 11.65,3.3 17.25,5.25 z"
     id="path286" />
  <path
     class="cls-176"
     d="m 172.51,58.493214 c -0.1,0.17 0.09,0.52 0,0.75 -0.04,0.1 -0.76,0.14 -0.74,0.36 1.21,2.17 3.68,1.85 5.41,2.69 2.31,1.12 9.41,4.55 11.6,5.09 1.16,0.28 2.52,-0.89 3.53,-0.6 0.94,0.27 0.85,1.97 1.74,2.2 1.47,0.38 3.47,0.19 5.46,0.75 l 2.59,1.66 c -0.96,3.22 -2.32,6.17 -4.09,8.84 -2.01,-0.32 -5.7,-0.11 -7.9,-0.03 -0.99,0.04 -1.95,0.78 -2.22,0.78 h -12 c -0.27,0 -1.23,0.74 -2.22,0.78 -1.66,0.07 -4.08,0.19 -5.65,-0.03 0.69,-1.78 5.2,-8.27 5.23,-9.37 0.03,-1.1 -1.35,-2.68 -1.52,-4.5 -0.22,-2.32 1.12,-5.28 0.85,-6.62 -0.14,-0.67 -1.73,-0.96 -2.41,-1.63 -0.68,-0.67 0.14,-1.09 0.11,-1.13 h 2.25 z"
     id="path288" />
  <path
     class="cls-131"
     d="m 186.76,95.993214 9.75,0.75 c 0.21,-0.65 0.46,-0.65 0.75,0 3.95,2.32 5.15,12.159996 2.25,15.749996 1.12,2.23 -2.03,4.04 -3.75,2.25 -3.56,0.5 -6.78,0.38 -10,-1.26 l -0.5,-1.74 c -1.15,-1.81 -8.18,-5.83 -9.71,-4.44 -0.52,0.48 1.17,3 -2.29,2.19 L 172.5,96.733214 c 2.6,-0.17 5.35,0.25 7.94,0.04 0.97,-0.08 1.72,-0.78 1.81,-0.78 0.95,-2.2 3.5,-2.13 4.5,0 z"
     id="path290" />
  <path
     class="cls-64"
     d="m 189.01,119.24321 c 1.32,-1.84 3.13,-0.62 2.25,1.5 2.96,3.18 6.19,11.02 9.42,14.2 1.79,1.76 5.55,3.98 8.01,3.65 3.77,-0.51 11.83,-5.86 14.82,-8.1 1.7,1.28 -1.71,4.47 -3.12,5.48 -6.8,2.97 -13.17,6.48 -19.11,10.53 l -1.02,-0.26 -6.36,0.8 -0.78,-2.31 -24.37,4.51 c 0.55,-1.11 9.41,-2.55 11.25,-3 3.03,-0.74 6.01,-1.33 9,-2.25 0.47,-1.52 1.97,-2.72 4.52,-3.62 -0.42,-4.79 -1.43,-9.58 -3.02,-14.38 -1.04,-1.99 -2.98,-6.35 -3.75,-7.5 1.43,-1.72 2.15,-1.48 2.25,0.75 z"
     id="path292" />
  <path
     class="cls-63"
     d="m 189.01,143.99321 c -2.6,-6.29 2.31,-11.66 1.5,-18 1.05,2.01 2.67,4.05 3.38,6.75 2.18,8.33 2.58,8.96 -4.88,11.25 z"
     id="path294" />
  <path
     class="cls-49"
     d="m 185.26,111.74321 c 3.69,1.09 6.78,3.17 10.5,3 0.01,1.82 -1.54,2.61 -4.65,2.36 -0.15,1.48 -0.85,2.19 -2.1,2.14 -0.73,-0.36 -1.42,-0.7 -2.25,-0.75 -1.76,-2.63 -6.96,-5.85 -7.49,-7.14 -0.89,-2.14 5.5,0.24 5.99,0.39 z"
     id="path296" />
  <path
     class="cls-29"
     d="m 210.01,73.493214 c 3.62,2.66 8.6,3.17 7.5,8.63 -0.55,2.72 -7.16,4.29 -9,6.37 -1.84,0.16 -3.81,-0.99 -5.9,-3.45 -2.65,-1.38 -4.19,-2.98 -4.6,-4.8 0.03,-0.11 -0.75,-0.96 -0.43,-2.24 0.52,-2.05 5.1,-6.92 1.93,-8.26 3.76,1.04 6.9,2.68 10.5,3.75 z"
     id="path298" />
  <path
     class="cls-117"
     d="m 194.26,120.74321 c 0.65,-1.46 2.39,-1.99 5.22,-1.58 1.8,-1.06 3.31,-1.29 4.53,-0.67 -0.4,-1.76 0.65,-4.17 2.25,-5.25 0.93,-4.03 2.18,-5.28 3.75,-3.75 -1.86,9.65 -0.55,11.9 -0.18,20.86 0.12,2.93 -0.3,3.84 -3.35,2.55 -3.99,-1.68 -11.75,-7.57 -12.22,-12.17 z"
     id="path300" />
  <path
     class="cls-50"
     d="m 246.01,107.24321 c -4.69,8.51 -11.76,14.6 -18,21.75 -2.22,2.54 -4.6,4.9 -6.75,7.5 -4.22,4.84 -9.7,8.23 -16.43,10.17 -2.26,3.27 -4.03,4.13 -5.32,2.58 0.3,-0.84 0.05,-1.73 0.75,-3 0.45,-0.81 1.65,-1.88 2.43,-2.44 1.89,-1.36 6.8,-4.05 9.04,-5.21 4.39,-2.28 9.72,-1.89 11.78,-8.09 3.65,-2.72 8.18,-8.07 11.25,-11.62 1.3,-1.5 8.87,-13.63 11.25,-11.63 z"
     id="path302" />
  <path
     class="cls-11"
     d="m 210.01,109.49321 c -2.36,0.56 -1.5,3.94 -3.75,3.75 -2.48,-2.79 -3.84,-11.22 -1.5,-14.249996 -0.98,-1.1 -1.61,-1.83 0,-2.25 -2.22,-2.95 1.18,-6.16 3.75,-7.5 1.15,0.5 1.85,1.6 2.09,2.78 1.4,6.7 0.61,11.209996 -0.59,17.469996 z"
     id="path304" />
  <path
     class="cls-129"
     d="m 208.51,88.493214 c 0.09,0.18 -0.06,0.51 0,0.75 0.21,3.19 -3.15,2.66 -3.75,7.5 -0.36,0.16 -0.72,0.29 -1.07,0.28 -0.49,0 -4.94,-5.2 -5.68,-6.28 -1.35,1.16 -2.7,-0.13 -1.5,-1.5 -0.54,-0.97 -0.54,-2.22 0,-3.75 0.46,-1.82 1.02,-3.48 1.5,-5.25 1.84,0.29 9.84,6.96 10.5,8.25 z"
     id="path306" />
  <path
     class="cls-53"
     d="m 199.51,112.49321 c 2.2,-0.61 6.55,3.99 4.5,6 -3.24,2.84 -5.75,2.27 -9.75,2.25 -1,0 -2,0 -3,0 -0.52,-0.55 -1.55,-1.15 -2.25,-1.5 l 0.85,-3.65 c 2.5,0.07 3.71,-0.1 5.9,-0.85 1.67,-0.57 2.43,-1.16 3.75,-2.25 z"
     id="path308" />
  <path
     class="cls-68"
     d="m 245.26,69.743214 c -4.68,0.69 -9.53,4.33 -12,8.25 -2.74,0.58 -5.28,-0.44 -7.5,-0.75 0.41,0.08 1.02,0 1.5,0 2.55,-2.1 4.98,-4.4 7.28,-6.9 2.57,-2.14 10.15,-4.92 10.72,-0.6 z"
     id="path310" />
  <path
     class="cls-155"
     d="m 228.76,72.743214 c 4.44,-1.43 5.89,-7.1 10.97,-7.48 2.04,-0.15 7.44,1.87 7.78,4.48 -0.69,-0.04 -1.61,-0.09 -2.25,0 -1.64,-1.61 -6.29,-0.26 -8.04,0.59 -3.99,1.95 -4.71,6.94 -9.96,6.91 0.27,-1.61 1.17,-2.87 1.5,-4.5 z"
     id="path312" />
  <path
     class="cls-152"
     d="m 160.51,174.74321 c 3.03,-2.84 4.42,2.23 1.5,3.75 2.11,3.29 2.11,5.29 0,6 0.57,0.48 0.88,1.07 0.88,1.8 -4.48,4.33 -5.12,6.44 -4.63,12.45 1.49,0.97 2.1,2.72 1.84,5.25 1.41,1.85 1.55,3.35 0.41,4.5 -0.64,0.04 -1.29,0.02 -1.5,0.75 -1.15,0.39 -2.4,-0.61 -3.75,-3 -0.16,-0.24 -0.06,-0.95 -0.41,-1.46 -3.42,-4.99 -8.57,-9.59 -11.59,-15.04 4.17,-5.98 9.17,-10.48 15,-13.5 0.76,-0.75 2.06,-1.28 2.25,-1.5 z"
     id="path314" />
  <path
     class="cls-144"
     d="m 168.76,181.49321 c 1.92,-0.7 6.07,0.99 5.88,3.23 -0.3,3.51 -4.68,4.74 -5.49,6.52 -1.06,2.33 0.28,5.13 -0.77,7.48 -0.89,1.98 -5.08,4.17 -7.11,4.89 4.14,6.99 12.75,-5.91 12,5.63 -1.74,0.72 -4.4,2.26 -6.28,2.05 -2.26,-0.26 -2.52,-3.04 -6.47,-2.8 -1.61,-3.78 -2.31,-5.54 -2.25,-9.75 0.04,-2.13 0.02,-4.22 -0.04,-6.27 5.71,-3.59 7.18,-5.7 4.41,-6.32 l -0.62,-1.65 c 0.28,-1.39 0.06,-4.37 0,-6 1.31,-0.73 2.84,0.25 4.57,2.94 l 2.18,0.06 z"
     id="path316" />
  <path
     class="cls-173"
     d="m 192.01,209.99321 c -0.09,0.21 0.09,0.54 0,0.75 -3,6.52 -12.59,6.6 -18,9.75 l -0.75,-3 c 2.18,0.56 3.63,-0.35 5.25,-0.75 0.43,-2.02 4.57,-3.95 6,-2.25 2.94,-1.66 4.52,-4.27 7.5,-4.5 z"
     id="path318" />
  <path
     class="cls-18"
     d="m 177.01,216.74321 c -2.95,-0.05 -7.16,-0.69 -6.75,-4.5 2.75,0.19 5.18,0.11 7.5,-1.5 3.92,0.58 3.52,5.36 -0.75,6 z"
     id="path320" />
  <path
     class="cls-28"
     d="m 178.51,208.49321 c 0.64,0.74 4.28,2.98 5.31,4.11 0.5,0.54 0.67,1.18 0.69,1.89 -2.29,1.29 -3.5,1.62 -6,2.25 -0.5,0 -1,0 -1.5,0 3.61,-3.37 1.31,-3.31 0.75,-6 -0.11,-0.54 0.51,-1.66 0.75,-2.25 z"
     id="path322" />
  <path
     class="cls-125"
     d="m 159.01,209.24321 c 2.43,3.13 3.58,7.41 0.33,10.48 -0.78,0.74 -1.59,0.59 -1.83,0.77 0.39,-0.77 1.17,-1.5 1.5,-2.25 -0.99,-1.72 -1.42,-2.96 0.75,-3.75 -0.12,-4.09 -1.58,-3.03 -2.88,-4.97 -0.78,-1.17 -1.15,-2.56 -1.62,-3.28 0.91,0.83 3.13,2.2 3.75,3 z"
     id="path324" />
  <path
     class="cls-101"
     d="m 161.26,159.74321 c 0.6,0.44 4.58,2.98 4.87,3.01 0.38,0.04 0.76,-0.02 1.13,0 0.04,-1.02 -0.3,-2.38 0.75,-3.01 l 0.75,19.5 c -1.7,0.04 -2.5,-1.3 -2.41,-4.02 -2.6,-0.19 -4.05,-1.1 -4.34,-2.73 0.72,-3.6 -1.64,-8.78 -0.75,-12.75 z"
     id="path326" />
  <path
     class="cls-58"
     d="m 162.01,172.49321 5.9,1.6 c -0.34,2.13 0.5,3.59 0.85,5.15 0.1,0.43 -0.07,1.02 0,1.5 v 0.75 c -0.21,0.08 -0.56,1.93 -2.47,1.42 -1.47,-0.39 -3.05,-3.39 -4.28,-4.42 -0.04,-1.25 0.05,-2.51 0,-3.76 h -1.5 c 0.34,-0.38 1.44,-1.93 1.5,-2.24 z"
     id="path328" />
  <path
     class="cls-137"
     d="m 158.26,176.24321 c -4.78,4.74 -9.84,9.18 -15,13.5 v -0.75 c 4.65,-4.44 7.32,-14.36 15,-12.75 z"
     id="path330" />
  <path
     class="cls-97"
     d="m 138.76,182.24321 c 0.2,0.32 0.05,1.94 0.75,3 -1.76,-1.09 -4.5,-1.16 -6,-2.25 -0.21,-1.92 2.65,-3.32 3.75,-1.5 0.08,0 1.46,0.68 1.5,0.75 z"
     id="path332" />
  <path
     class="cls-167"
     d="m 218.26,144.74321 c -1.3,1.91 -2.61,3.99 -3.75,6 l -5.21,12.44 c -0.46,0.51 -11.97,-2.79 -12.04,-4.94 -0.64,-0.25 -0.64,-0.5 0,-0.75 -2.15,-0.21 -2.04,-1.62 0,-2.25 0.3,-1 1.19,-2.01 1.5,-3 l 1.02,-1.66 c 7.21,-0.26 11.53,-2.3 15.89,-8.2 l 1.85,0.11 0.75,2.25 z"
     id="path334" />
  <path
     class="cls-59"
     d="m 183.01,157.49321 1.49,2.24 c -0.3,4.08 -0.32,8.14 -0.05,12.18 2.22,1.28 3.4,4.43 0.06,3.58 -0.58,-0.17 -1.59,0.14 -2.25,0 -1.27,-0.28 -2.5,-0.49 -3.75,-0.75 -3.86,-1.53 -6,-13.72 -3,-16.5 2.34,-1.52 4.49,-2.4 6.75,-3.75 2.54,-1.33 3.36,2.34 0.75,3 z"
     id="path336" />
  <path
     class="cls-138"
     d="m 217.51,142.49321 c -1.97,2.46 -6,6.83 -8.8,8.07 -3.33,1.48 -6.62,0.45 -9.95,1.68 0.32,-1.03 0.5,-2.32 0.75,-3 2.33,-0.12 2.4,-2.48 4.22,-3.66 2.62,-1.7 8.32,-3.3 11.46,-5.04 1.89,-1.05 3.98,-3.06 6.07,-4.05 -1.04,1.26 -2.43,4.35 -3.75,6 z"
     id="path338" />
  <path
     class="cls-154"
     d="m 186.01,152.24321 c 3.32,-1.87 9.15,5.6 9,9 2.11,0.27 2.15,2.56 0,3 0.93,1.62 0.24,2.17 -1.5,2.25 l -1.59,0.86 c -1.23,-0.14 -8.5,-7.92 -8.91,-9.86 -0.02,-0.98 0.37,-2.49 -0.75,-3 1.21,-0.72 2.57,-1.51 3.75,-2.25 z"
     id="path340" />
  <path
     class="cls-51"
     d="m 197.26,155.24321 c -0.17,0.56 0.11,1.55 0,2.25 -0.61,0.58 -1.11,1.33 -1.5,2.25 1.4,1.42 1.18,1.76 -0.75,1.5 l -5.63,-6.75 -3.37,-2.25 c 0.87,-0.54 2.56,-3.17 4.01,-2.92 z"
     id="path342" />
  <path
     class="cls-25"
     d="m 175.51,158.24321 c -1.47,4.54 -0.14,6.37 0.69,10.21 0.55,2.57 -0.32,4.96 2.31,6.29 -1.92,-0.4 -2.53,-0.14 -3.75,-2.25 -0.17,-2.98 -3.16,-11.87 -0.77,-13.9 0.44,-0.37 1.26,-0.19 1.52,-0.35 z"
     id="path344" />
  <path
     class="cls-25"
     d="m 174.01,175.49321 c 1.99,0 4,0 6,0 -0.49,3.77 -5.77,4.99 -8.25,2.25 -0.04,-1.57 0.68,-1.88 0.75,-2.25 z"
     id="path346" />
  <path
     class="cls-171"
     d="m 217.51,51.743214 c 0.06,0.05 0.27,0.97 0.75,1.5 5.15,6.65 -1.52,11.82 -8.25,9.75 -0.48,0 -1.06,0.08 -1.5,0 -2.27,-0.39 -4.85,-5.28 -4.4,-7.74 0.2,-1.11 1.12,-1.48 1.4,-2.01 0.89,0.9 1.42,2.37 1.6,4.41 11.03,8.92 11.5,-11.69 0.02,-3.82 l -1.63,-0.59 c 3.14,-6 7.04,-5.58 12,-1.5 z"
     id="path348" />
  <path
     class="cls-85"
     d="m 196.51,89.243214 c -0.19,0.66 -0.44,0.64 -0.75,0 0.02,-0.5 -0.03,-1 0,-1.5 0.08,-1.39 0.6,-1.66 0.75,-2.25 z"
     id="path350" />
  <path
     class="cls-77"
     d="m 159.76,214.49321 c 0.05,1.6 -0.13,2.31 -0.75,3.75 -5.88,-6.06 -11.71,-12.01 -18.25,-17.38 -0.79,-0.65 -0.6,-2.02 -2.75,-1.37 0.51,-1.2 0.46,-2.19 0.75,-3 0.22,-0.61 0.58,-1.13 1.15,-1.48 l 1.87,0.34 17.98,19.15 z"
     id="path352" />
  <path
     class="cls-46"
     d="m 131.26,179.99321 c -0.33,-0.96 -1.51,-10.91 -1.38,-11.47 0.71,-3.19 5.99,-4.11 6.6,0.17 -3.03,0.51 -2.96,4.29 -2.97,6.81 l 4.19,0.7 -0.43,5.3 c -0.71,0 -2.53,1.68 -3.75,1.5 -0.37,-0.27 -2.15,-2.69 -2.25,-3 z"
     id="path354" />
  <path
     class="cls-85"
     d="m 193.51,89.243214 c 2.99,0.54 7.18,5.9 3.75,7.5 h -0.75 l -9.75,-0.75 c -1.49,0.06 -3.01,-0.09 -4.5,0 -3.24,0.06 -6.51,-0.09 -9.75,0 -0.37,-2.41 0.1,-5.82 2.78,-6.59 2.68,-0.77 14.58,-0.35 18.22,-0.16 z"
     id="path356" />
  <path
     class="cls-13"
     d="m 195.76,89.243214 c 0.24,0.04 0.5,-0.03 0.75,0 0.3,0.75 0.83,1.11 1.5,1.5 2.48,2.64 4.73,5.39 6.75,8.25 0.13,4.559996 1.31,9.799996 1.5,14.249996 0.12,2.8 -0.29,3.53 -2.25,5.25 0.02,-1.75 -4.04,-4.25 -4.5,-6 -0.5,-1.88 0.29,-5.42 -0.08,-7.8 -0.42,-2.71 -1.45,-5.329996 -2.17,-7.949996 -0.26,-0.95 0.3,-2.24 -0.39,-3.72 -0.57,-1.23 -2.84,-2.23 -3.36,-3.78 0.73,0.04 1.6,-0.12 2.25,0 z"
     id="path358" />
  <path
     class="cls-165"
     d="m 210.01,163.49321 c -0.23,0.04 -0.6,0.75 -1.78,0.75 -0.84,0 -1.43,-0.63 -1.97,-0.75 -2.62,1.71 -10.05,-0.36 -9.75,-3.75 -0.58,-0.86 -0.37,-1.81 0.75,-1.5 l 11.65,4.39 c 1.76,-4.34 3.24,-7.73 5.6,-11.89 z"
     id="path360" />
  <path
     class="cls-56"
     d="m 183.01,157.49321 c 4.42,1.85 6.18,7.03 10.5,9 1.89,0.16 1.61,0.93 0.75,2.25 -0.42,0.15 -3.27,3.31 -5.14,3.11 0.44,1.93 -0.72,4.01 -0.86,5.14 -1.47,0.19 -2.83,-1.22 -3.75,-1.5 2.23,-1.78 -1.16,-1.2 -1.52,-3.35 -0.64,-3.84 0.1,-10.36 0.02,-14.65 z"
     id="path362" />
  <path
     class="cls-10"
     d="m 201.76,165.74321 c -0.86,0.43 -2.19,1.89 -3,2.25 -1.97,0.87 -3.51,0.4 -4.5,0.75 -0.89,-0.31 -0.85,-1.48 -0.75,-2.25 0.26,-1.9 1.47,-2.12 1.5,-2.25 0.25,-2.32 6.79,-0.78 6.75,1.5 z"
     id="path364" />
  <path
     class="cls-71"
     d="m 239.83,161.80321 c -2.69,2.83 -3.21,-2.74 -4.03,-2.87 -2.03,0.38 -4.47,1.4 -6.54,0.69 -1.35,-0.46 -1.96,-3.38 -3.11,-3.47 -0.67,-0.06 -2.67,1.98 -4.13,1.34 0.32,-1.68 -0.56,-5.36 0.16,-6.59 0.61,-1.04 11.14,-8.09 12.59,-7.34 1.1,0.57 5.36,13.44 5.68,15.41 0.16,0.99 0.12,2.07 -0.61,2.83 z"
     id="path366" />
  <path
     class="cls-106"
     d="m 196.51,159.74321 c 2.61,1.92 6.54,3.05 9.75,3.75 -0.68,2.3 -3.42,1.71 -4.5,2.25 l -6.75,-1.5 c 0.21,-0.83 -0.22,-2.19 0,-3 0.18,-0.69 0.67,-1.2 0.75,-1.5 0.21,-0.65 0.46,-0.65 0.75,0 z"
     id="path368" />
  <path
     class="cls-55"
     d="m 210.01,62.993214 c 6.48,0.04 10.51,-2.92 8.25,-9.75 2.18,2.38 3.72,2.87 2.99,7.1 -0.55,3.22 -8.79,5.33 -11.24,2.65 z"
     id="path370" />
  <path
     class="cls-39"
     d="m 183.76,100.49321 c -0.98,0.77 -4.28,-2.359996 -1.86,-2.989996 2.58,-0.67 2.8,2.24 1.86,2.989996 z"
     id="path372" />
  <path
     class="cls-1"
     d="m 196.51,96.743214 c -3.09,-0.39 -7.21,0.91 -9.75,-0.75 2.97,-0.12 7.33,-0.54 9.75,0.75 z"
     id="path374" />
  <path
     class="cls-85"
     d="m 204.76,96.743214 c -0.09,0.69 -0.02,1.54 0,2.25 -3.32,-2.05 -5.69,-4.37 -6.75,-8.25 3.18,1.86 4.3,3.13 6.75,6 z"
     id="path376" />
  <path
     class="cls-109"
     d="m 162.01,184.49321 3.75,0.75 c 0.6,5.34 -4.5,5.72 -7.15,9.01 0.67,1.7 -0.34,3.95 -0.35,4.48 0.54,-2.37 -1.7,-4.89 -1.37,-6.96 0.38,-2.41 4.61,-4.74 5.12,-7.29 z"
     id="path378" />
  <path
     class="cls-166"
     d="m 167.26,191.24321 c -0.5,3.55 -4.9,4.46 -7.49,6 -1.23,-2.73 6.51,-6.88 7.49,-6 z"
     id="path380" />
  <path
     class="cls-2"
     d="m 197.26,157.49321 c -0.04,0.24 0.05,0.51 0,0.75 -0.06,0.29 -0.81,0.91 -0.75,1.5 h -0.75 c 0.33,-1.22 -0.9,-2.69 1.5,-2.25 z"
     id="path382" />
  <path
     class="cls-41"
     d="m 205.51,53.243214 c 0.07,-0.19 2.74,-2.09 3.32,-2.3 5.38,-2.04 7.89,1.31 8.51,6.34 -3.68,7.96 -14.52,3.54 -11.83,-4.04 z"
     id="path384" />
</svg>
