<?xml version="1.0" encoding="UTF-8" standalone="no"?>
<svg
   id="Layer_1"
   data-name="Layer 1"
   viewBox="0 0 210.56979 275.60135"
   version="1.1"
   sodipodi:docname="gorillapool.svg"
   width="210.56979"
   height="275.60135"
   inkscape:version="1.2.2 (b0a8486541, 2022-12-01)"
   xmlns:inkscape="http://www.inkscape.org/namespaces/inkscape"
   xmlns:sodipodi="http://sodipodi.sourceforge.net/DTD/sodipodi-0.dtd"
   xmlns="http://www.w3.org/2000/svg"
   xmlns:svg="http://www.w3.org/2000/svg">
  <sodipodi:namedview
     id="namedview331"
     pagecolor="#ffffff"
     bordercolor="#000000"
     borderopacity="0.25"
     inkscape:showpageshadow="2"
     inkscape:pageopacity="0.0"
     inkscape:pagecheckerboard="0"
     inkscape:deskcolor="#d1d1d1"
     showgrid="false"
     inkscape:zoom="2.2291667"
     inkscape:cx="101.38318"
     inkscape:cy="141.53271"
     inkscape:window-width="1920"
     inkscape:window-height="1020"
     inkscape:window-x="0"
     inkscape:window-y="32"
     inkscape:window-maximized="1"
     inkscape:current-layer="Layer_1" />
  <defs
     id="defs4">
    <style
       id="style2">
      .cls-1 {
        fill: #aa807c;
      }

      .cls-2 {
        fill: #686b75;
      }

      .cls-3 {
        fill: #c1beba;
      }

      .cls-4 {
        fill: #101524;
      }

      .cls-5 {
        fill: #f0b29e;
      }

      .cls-6 {
        fill: #f6c9b6;
      }

      .cls-7 {
        fill: #28bbed;
      }

      .cls-8 {
        fill: #055086;
      }

      .cls-9 {
        fill: #817f81;
      }

      .cls-10 {
        fill: #dca090;
      }

      .cls-11 {
        fill: #393541;
      }

      .cls-12 {
        fill: #473f4c;
      }

      .cls-13 {
        fill: #fefefe;
      }

      .cls-14 {
        fill: #544b56;
      }

      .cls-15 {
        fill: #a4a19f;
      }

      .cls-16 {
        fill: #272532;
      }
    </style>
  </defs>
  <path
     class="cls-1"
     d="m 16.507329,158.41982 c -0.42,3.66 -0.58,7.47 0,11.25 -2.05,-0.45 -1.39,1.1 -1.88,2.2 -1.82,4.04 -2.54,6.02 -1.65,10.71 0.11,0.6 1.32,4.21 2.79,3.58 -1.62,3.03 -4.19,6.62 -4.5,9.75 -5.2100003,6.38 -4.0200003,13.98 3,18 1.82,1.04 5.26,1.64 5.25,3.75 -4.25,0.62 0.31,1.84 1,2.35 4.88,3.65 12.77,10.42 17.83,12.95 6.71,3.37 22.64,7.2 30.51,9.24 13.74,3.55 39.960001,5.48 54.160001,3.96 l 0.75,27.75 c -6.97,0.36 -14.34,-0.09 -21.39,-0.01 -1.27,0.01 -3.330001,-0.48 -4.110001,0.76 -6.74,-0.3 -14.55,-0.04 -21.18,-0.94 -7.03,-0.96 -32.39,-8.35 -39.04,-11.21 -2.87,-1.24 -25.1,-17.87 -27.56,-20.44 -1.8700003,-1.96 -10.03000027,-24.55 -10.41000027,-27.85 -0.32,-2.71 0.44,-10.26 0.7,-13.42 0.23999997,-2.9 0.76999997,-6.56 1.48999997,-9.38 0.02,0.09 0.93,0.57 1.13,1.45 0.7,2.94 1.37,6.49 3,9.04 1.74,0.21 1.18,-2.44 1.87,-3.98 0.18,-0.41 1.34,-0.41 1.48,-1.04 1.0600003,-4.6 -2.72,-10.69 -7.49,-11.48 -0.12,-1.8 -0.81,-4.35 -0.73,-5.59 0.07,-1.14 10.5300003,-17.44 12.1000003,-19.41 0.84,-1.06 1.27,-2.01 2.88,-1.99 z m 0.37,58.5 v 0.75 c 0.49,-0.25 0.49,-0.5 0,-0.75 z"
     id="path8" />
  <path
     class="cls-12"
     d="m 71.257329,6.1698195 c 0.55,-1.07 0.39,-2.87 1.87,-3.74 l 4.41,3.7 c 2.22,-0.38 5.12,-12.59 7.97,-1.46 1.39,-0.99 3.02,-1.5 4.49,-2.25 1.63,0.89 0.49,2.33 0.04,3.41 -1.13,2.7 -8.8,18.3600005 -7.53,19.8300005 1.76,-0.05 3.43,-2.13 4.51,-3.35 2.59,-2.92 4.76,-6.53 7.52,-9.55 1.18,-1.3 2.67,-3.3900005 4.46,-3.6000005 0.32,0.52 9.540001,3.8100005 11.220001,4.9100005 2.22,1.45 15.67,15.67 16.7,17.8 1.68,3.48 2.96,9.47 4.34,13.29 -2.37,0.57 -1.43,5.34 -1.5,7.5 0,0.25 0,0.5 0,0.75 -1.5,-0.1 -2.23,-0.68 -2.83,-2.05 -0.4,-0.91 0.47,-2.63 -0.91,-2.45 -0.08,4.36 0.22,8.82 0.69,13.14 0.18,1.65 1.17,1.25 2.3,1.85 0.25,2.15 2.69,9.12 6,8.25 -0.33,1.64 0.82,3.33 0.75,4.88 -0.14,2.96 -0.59,6.18 -0.75,9.37 -0.06,1.24 0.07,2.51 0,3.75 -4.43,2.89 -7.21,0.72 -10.88,-2.25 -1.07,-0.86 -1.36,-2.5 -2.66,-3.34 -1.84,-1.2 -6.04,-1.87 -8.22,-3.41 0.51,-1.12 1.36,-4.7 1.5,-6 0.35,-3.24 -0.2,-9.91 -1.91,-12.72 -1.71,-2.81 -8.62,-5.92 -11.59,-5.28 -0.1,-0.93 -0.23,-3.1 -0.91,-3.6 -4.230001,-3.08 -15.970001,2.74 -20.840001,3.6 -0.87,-9.2 -0.44,-18.72 -1.5,-27.75 -0.71,-6.07 -2.5,-12.84 -4.12,-18.76 -0.34,-1.2400005 -0.69,-4.9600005 -2.63,-4.4900005 z"
     id="path10" />
  <path
     class="cls-6"
     d="m 206.25733,192.91982 c 0.07,1.49 -0.04,3 0,4.5 l -12.37,20.25 c -9.56,4.6 -20.81,15.16 -30.38,18.75 -7.2,2.7 -32.92,8.94 -40.5,9.75 -14.2,1.51 -40.420001,-0.42 -54.160001,-3.96 -7.87,-2.03 -23.8,-5.87 -30.51,-9.24 -5.06,-2.54 -12.94,-9.3 -17.83,-12.95 -0.68,-0.51 -5.24,-1.73 -1,-2.35 4.84,-0.7 12,2.54 16.5,1.5 0.93,-0.22 1.23,-1.34 1.5,-1.5 1.19,-0.69 1.18,-0.7 2.25,-1.5 0.24,1.01 9.49,8.1 11.07,8.81 5.2,2.33 14.14,4.75 19.86,6.39 31.470001,9.04 75.170001,4.8 101.820001,-15.2 7.83,-5.88 9.24,-8.38 13.5,-17.25 0.73,-1.53 1.96,-2.12 2.25,-4.5 6.5,-0.51 12.3,2.9 18,-1.5 z"
     id="path12" />
  <path
     class="cls-16"
     d="m 69.757329,8.4198195 c -0.98,-0.09 -4.49,3.8900005 -4.5,4.2000005 -0.06,1.89 3.39,8.11 2.99,8.54 -2.29,0.35 -4.61,-4.82 -6.29,-4.46 -0.47,0.1 -6.32,6.65 -6.44,7.11 -0.44,1.63 0.85,1.05 1.85,1.11 2.91,0.19 4.32,0.25 7.14,0.75 -3.05,1.16 -9.16,0.92 -10.35,5.03 -0.39,1.35 -0.82,7.59 -0.93,9.57 -0.24,4.07 0.15,8.26 0.11,12.33 8.79,1.11 17.36,4.15 26.17,4.58 0.26,2.75 0.51,5.5 0.75,8.25 -7.84,-0.12 -15.85,-3.79 -22.5,-3 -0.66,0.08 -2.07,0.35 -2.52,0.69 -1.51,1.16 -2.74,6.51 -2.58,8.47 0.43,5.38 6.9,19.48 14.09,17.85 0.91,0.78 -3.64,4.29 -4.5,5.25 l -10.5,-5.25 c -1.41,3.61 2.49,10.09 1.92,12.78 -0.5,2.35 -2.37,1.19 -2.67,1.47 -0.15,0.14 0.66,1.9 0.43,3.01 -0.59,2.83 -4.32,6.47 -5.45,10.33 -1.55,5.28 -1.5,11.16 -2.5,16.25 -0.4,2.04 -2.96,3.66 -2.22,6.41 -3.04,-1.42 -4.01,0.37 -6.18,-0.13 -1.89,-0.44 -6.54,-4.26 -8.07,-5.87 1.72,-1.39 17.35,-26.58 19.92,-30.7 0.55,-0.88 2.36,-2.04 2.41,-2.67 0.05,-0.68 -3.65,-5.39 -4.29,-7.55 -1.06,-3.56 -0.98,-7.86 -0.79,-11.59 0.06,-1.13 0.55,-7.18 0.75,-7.5 0.06,-0.1 1.24,0.3 1.46,-0.47 2.17,-7.48 -1.75,-11.9 -3.71,-17.53 -0.58,-1.67 -0.78,-2.86 -0.59,-4.66 0.41,-3.92 4.2,-17.58 5.98,-21.08 2.64,-5.19 10.64,-10.76 12.28,-14.03 0.83,-1.66 -2.13,-3.5 -0.84,-5.27 3.91,-2.0000005 6.6,1.63 5.68,-4.4600005 l 4.5,2.25 z"
     id="path14" />
  <path
     class="cls-5"
     d="m 206.25733,197.41982 c 0.53,21.57 1.01,25.95 -10.72,43.69 -0.79,1.19 -0.89,3.15 -1.72,4.25 -1.74,2.32 -25.77,17.16 -29.57,18.81 l -0.75,-27.75 c 9.57,-3.59 20.81,-14.15 30.38,-18.75 l 12.37,-20.25 z"
     id="path16" />
  <path
     class="cls-10"
     d="m 163.50733,236.41982 0.75,27.75 c -7.36,3.2 -31.1,9.11 -39,9.75 -0.49,0.04 -1,-0.03 -1.5,0 l -0.75,-27.75 c 7.58,-0.81 33.3,-7.05 40.5,-9.75 z"
     id="path18" />
  <path
     class="cls-11"
     d="m 27.007329,133.66982 c 1.53,1.61 6.18,5.43 8.07,5.87 2.17,0.5 3.14,-1.29 6.18,0.13 1.71,0.8 3.08,2.61 4.5,3.75 -0.94,3.61 1.68,4.94 2.83,7.3 1,2.05 1.56,6.53 4.67,6.95 -0.04,0.75 0.03,1.5 0,2.25 -1.81,0.27 -2.24,-0.45 -3.33,-1.55 -1.43,-1.44 -5.58,-6.79 -6.48,-8.52 -1.11,-2.11 -0.28,-5.68 -3.69,-5.68 -0.3,4.84 -0.95,9.7 -1.62,14.5 -0.44,3.15 -2.6,8.35 -1.38,10.99 l -18.75,4.5 c -0.32,-1.18 -1.33,-3.42 -1.5,-4.5 -0.58,-3.78 -0.42,-7.59 0,-11.25 0.53,-4.66 2.59,-16.74 4.69,-20.43 2.1,-3.69 4.11,-2.95 5.81,-4.32 z"
     id="path20" />
  <path
     class="cls-14"
     d="m 174.75733,112.66982 c 1.42,0.4 2.89,0.55 4.3,0.95 2.43,5.45 9.26,11.52 11.5,16.63 1.68,3.83 1.31,7.33 1.45,10.92 -4.48,-0.05 -9.07,0.24 -13.5,0.75 -1.17,0.13 -2.69,-0.22 -3.75,0 -0.12,-1.3 -0.93,-2.22 -1.64,-3.23 -2.96,-4.25 -10.11,-14.53 -13.36,-17.77 -0.63,-4.51 1.03,-2.46 3.94,-3.18 3.11,-0.76 6.1,-2.02 9.21,-2.83 1.77,-0.46 2.14,0.91 1.85,-2.25 z"
     id="path22" />
  <path
     class="cls-14"
     d="m 165.00733,110.41982 c -0.56,0.15 -6.37,7.73 -8.25,8.25 -7.99,-6.04 -17.23,-11.8 -25.5,-18 2.89,-4.63 3.44,-5 3.75,-10.5 0.07,-1.24 -0.06,-2.51 0,-3.75 9.05,6.64 19.8,13.6 28.11,21.01 0.98,0.88 1.86,1.51 1.89,2.99 z"
     id="path24" />
  <path
     class="cls-12"
     d="m 208.50733,162.91982 c -1.01,0.18 -1.99,0.61 -3,0.75 -0.48,0.07 -1.01,-0.04 -1.5,0 -0.2,-1.15 0.38,-2.42 -0.38,-3.73 -0.63,-1.09 -3.54,-1.88 -4.5,-3 l 2.63,5.98 c -0.4,-0.05 -2.39,0.54 -3,0.75 -0.46,0.16 -1.08,0.49 -1.5,0.75 0.02,-1.47 -1.01,-2.09 -1.86,-3.01 -7.26,-7.89 -7.46,-6.82 -3.39,2.26 -0.68,0.12 -1.69,-0.17 -2.25,0 -4.19,-4.05 -10.05,-13.16 -11.25,-18.75 1.33,-0.31 2.56,-1.2 4.19,-1.44 3.04,-0.44 7.66,1.27 9.31,-1.56 0.29,2.81 13.49,14.07 15.79,17.6 1.08,0.88 0.44,2.73 0.71,3.4 z"
     id="path26" />
  <path
     class="cls-4"
     d="m 71.257329,6.1698195 c 1.95,-0.47 2.3,3.26 2.63,4.4900005 1.62,5.92 3.41,12.69 4.12,18.76 -4.4,-1.77 -8.81,-2.92 -13.5,-3.75 -2.82,-0.5 -4.23,-0.56 -7.14,-0.75 -1,-0.06 -2.29,0.52 -1.85,-1.11 0.13,-0.46 5.97,-7.01 6.44,-7.11 1.69,-0.35 4,4.82 6.29,4.46 0.4,-0.43 -3.05,-6.65 -2.99,-8.54 0,-0.32 3.52,-4.3000005 4.5,-4.2000005 1.47,-0.29 1.14,-1.54 1.5,-2.25 z"
     id="path28" />
  <path
     class="cls-15"
     d="m 139.50733,48.91982 c -1.06,-2 1.43,-4.72 3.03,-3.44 0.98,0.78 2.97,8.68 2.8,10.35 -0.81,8.06 -9.8,13.61 -10.34,16.34 -3.31,0.87 -5.75,-6.1 -6,-8.25 -0.03,-0.24 0,-0.5 0,-0.75 0,-0.05 0.76,-0.24 0.75,-0.75 -0.02,-1.25 0.01,-2.5 0,-3.75 l 6.75,-3.75 c 2.02,1.41 3.02,2.6 3.01,5.25 4.1,-1.58 4.18,-10.43 0,-11.25 z"
     id="path30" />
  <path
     class="cls-5"
     d="m 206.25733,192.91982 c -5.7,4.4 -11.5,0.99 -18,1.5 0.14,-1.12 0.1,-4.75 -0.75,-5.25 -0.17,-1.43 2.4,-2.92 3.75,-3.75 2.24,-1.38 2.08,-1.12 4.5,-1.5 0.71,-0.11 1.54,0.11 2.25,0 3.62,-0.54 3.68,-1.57 6,-3.75 2.28,3.93 2.05,8.43 2.25,12.75 z"
     id="path32" />
  <path
     class="cls-14"
     d="m 90.007329,2.4198195 c 0.88,-0.45 1.47,-1.93 3,-1.5 0.19,1.02 -0.26,4.99 0,5.25 0.32,0.32 5.7,-0.32 6.01,0 0.27,0.27 -0.27,2.58 0,3.01 -1.79,0.2 -3.27,2.3000005 -4.46,3.6000005 -2.76,3.02 -4.93,6.63 -7.52,9.55 -1.08,1.22 -2.75,3.31 -4.51,3.35 -1.26,-1.47 6.4,-17.1300005 7.53,-19.8300005 0.46,-1.09 1.59,-2.52 -0.04,-3.41 z"
     id="path34" />
  <path
     class="cls-14"
     d="m 42.007329,55.66982 c -2.08,2.17 -1.6,5.04 -1.43,7.81 l 4.43,10.19 c -0.2,0.32 -0.69,6.37 -0.75,7.5 -4.32,-1.87 -7.13,-5.41 -9.75,-9 v -1.5 c 0.35,0.5 3.1,3.7 3.75,3 -0.58,-2.27 -4.09,-9.29 -1.5,-10.5 0.29,-0.13 1.25,0.22 1.44,-0.03 0.72,-0.93 -0.82,-6.08 -1.44,-7.47 1.71,-0.13 3.28,-1.18 5.25,0 z"
     id="path36" />
  <path
     class="cls-9"
     d="m 205.50733,163.66982 c 1.13,3.47 -0.34,7.15 4.5,7.5 -0.41,1.31 -1.92,5.13 -2.62,6 -0.5,0.63 -2.56,2.22 -3.38,3 -2.32,2.18 -2.38,3.21 -6,3.75 0.52,-3.97 3.8,-6.48 3.75,-10.5 l 3.76,-0.42 c 0.22,-3.01 -0.95,-5.7 -1.51,-8.58 -0.05,-0.24 0.04,-0.51 0,-0.75 0.49,-0.04 1.02,0.07 1.5,0 z"
     id="path38" />
  <path
     class="cls-10"
     d="m 2.2573287,185.41982 c 4.76,0.79 8.5500003,6.88 7.49,11.48 -0.15,0.63 -1.3,0.63 -1.48,1.04 -0.69,1.54 -0.12,4.19 -1.87,3.98 -1.63,-2.55 -2.31,-6.1 -3,-9.04 -0.21,-0.88 -1.11,-1.36 -1.13,-1.45 -0.33,-1.6 0.12,-4.16 0,-6 z"
     id="path40" />
  <path
     class="cls-12"
     d="m 174.75733,112.66982 c 0.3,3.16 -0.08,1.79 -1.85,2.25 -3.11,0.81 -6.1,2.06 -9.21,2.83 -2.92,0.72 -4.57,-1.33 -3.94,3.18 -0.14,-0.14 -2.45,-1.83 -3,-2.25 1.88,-0.52 7.69,-8.1 8.25,-8.25 0.48,-0.13 8.37,1.86 9.75,2.25 z"
     id="path42" />
  <path
     class="cls-4"
     d="m 42.757329,55.66982 c 1.96,5.63 5.89,10.04 3.71,17.53 -0.22,0.77 -1.4,0.38 -1.46,0.47 l -4.43,-10.19 c -0.17,-2.77 -0.65,-5.64 1.43,-7.81 z"
     id="path44" />
  <path
     class="cls-2"
     d="m 36.757329,55.66982 c 0.62,1.4 2.16,6.55 1.44,7.47 -0.19,0.25 -1.15,-0.11 -1.44,0.03 -6.5,-7.01 -5.15,3.3 -2.25,7.5 v 1.5 c -0.26,-0.36 -1.36,-0.67 -1.84,-1.5 -1.94,-3.33 -4.63,-12.11 -0.37,-14.58 2.2,-1.28 3.43,-0.34 4.47,-0.42 z"
     id="path46" />
  <path
     class="cls-14"
     d="m 139.50733,48.91982 c 4.19,0.82 4.11,9.67 0,11.25 0.01,-2.65 -0.99,-3.84 -3.01,-5.25 -1.05,-0.73 -1.88,-0.55 -2.78,-0.99 -0.4,-0.2 -0.17,-1.23 -0.22,-1.26 1.75,-0.23 1.21,-2.58 1.5,-3 0.16,-0.24 3.75,-0.9 4.5,-0.75 z"
     id="path48" />
  <path
     class="cls-15"
     d="m 123.75733,273.91982 c 0.5,-0.03 1.01,0.04 1.5,0 -0.53,1.72 -1.94,1.45 -3.33,1.54 -7.42,0.5 -16.1,-0.46 -23.670001,-0.79 0.78,-1.24 2.850001,-0.75 4.110001,-0.76 7.04,-0.07 14.42,0.37 21.39,0.01 z"
     id="path50" />
  <path
     class="cls-15"
     d="m 208.50733,162.91982 c 1.39,3.46 2.91,3.8 1.5,8.25 -4.84,-0.35 -3.37,-4.03 -4.5,-7.5 1.01,-0.14 1.99,-0.57 3,-0.75 z"
     id="path52" />
  <path
     class="cls-15"
     d="m 131.25733,45.16982 c 0.82,-0.2 2.07,0.12 3,0 0.23,1.4 -1.74,-0.04 -1.52,1.87 l 2.28,2.62 c -0.29,0.42 0.25,2.77 -1.5,3 -0.46,-0.28 -2.87,0.2 -3.75,0 0.07,-2.16 -0.87,-6.93 1.5,-7.5 z"
     id="path54" />
  <path
     class="cls-16"
     d="m 192.00733,141.16982 c 0,0.25 -0.03,0.5 0,0.75 -1.65,2.84 -6.28,1.12 -9.31,1.56 -1.63,0.24 -2.86,1.13 -4.19,1.44 -0.18,-0.85 0.12,-2.06 0,-3 4.43,-0.51 9.02,-0.8 13.5,-0.75 z"
     id="path56" />
  <path
     class="cls-12"
     d="m 18.757329,201.16982 c -0.15,1.36 -0.18,3.92 0,5.25 0.51,3.88 3.11,8.34 6.75,9.75 0.9,0.35 1.56,1.23 3,0.75 0.88,-3.19 -1.18,-6.37 -1.5,-9 0.99,0.13 2.36,1.19 3.75,0.75 0.03,0.25 -0.03,0.5 0,0.75 0.21,1.91 0.59,3.85 1.61,5.51 1.26,2.05 3.54,2.08 3.64,4.24 -4.5,1.04 -11.66,-2.2 -16.5,-1.5 0.01,-2.11 -3.43,-2.71 -5.25,-3.75 -0.44,-1.81 -1.75,-3.5 0.75,-3 0.22,0.28 0.48,0.52 0.75,0.75 4.03,3.38 1.78,-4.54 -0.75,-6 0.08,-0.2 -0.06,-0.5 0,-0.75 0.68,-2.86 1.01,-5.29 0.75,-8.25 0.27,0.05 0.61,-0.09 0.75,0 0.73,0.45 1.16,3.75 2.25,4.5 z"
     id="path58" />
  <path
     class="cls-14"
     d="m 11.257329,197.41982 c 0.02,0.83 -0.22,1.88 0.75,2.25 -0.21,1.58 0.06,3.57 0,5.25 0,0.18 -1.88,2.12 0.38,2.99 1.75,0.67 2.05,-0.71 2.62,-2.24 2.53,1.46 4.78,9.38 0.75,6 -0.09,-0.41 -0.33,-0.67 -0.75,-0.75 -2.5,-0.5 -1.19,1.19 -0.75,3 -7.0200003,-4.02 -8.2100003,-11.62 -3,-18 -0.05,0.48 -0.01,1.01 0,1.5 z"
     id="path60" />
  <path
     class="cls-6"
     d="m 16.877329,216.91982 c 0.49,0.25 0.49,0.5 0,0.75 z"
     id="path62" />
  <path
     class="cls-11"
     d="m 78.007329,29.41982 c 1.06,9.03 0.63,18.55 1.5,27.75 4.87,-0.86 16.6,-6.68 20.840001,-3.6 0.68,0.5 0.81,2.67 0.91,3.6 -0.41,0.09 -5.980001,3.08 -7.500001,3.75 -5.69,2.52 -7.01,4.6 -13.5,4.5 -0.24,-2.75 -0.49,-5.5 -0.75,-8.25 -8.81,-0.43 -17.38,-3.47 -26.17,-4.58 0.04,-4.07 -0.35,-8.26 -0.11,-12.33 0.11,-1.97 0.54,-8.22 0.93,-9.57 1.19,-4.11 7.3,-3.87 10.35,-5.03 4.69,0.83 9.1,1.98 13.5,3.75 z"
     id="path64" />
  <path
     class="cls-11"
     d="m 135.00733,90.16982 c -0.31,5.5 -0.86,5.87 -3.75,10.5 -0.94,-0.7 -1.83,-1.41 -2.71,-2.2 l -0.95,0.05 c -0.27,0.39 -0.5,1.16 -0.84,1.39 -3.61,2.42 -4.06,4.21 -8.25,3 -0.95,-4.89 -7.5,-8.11 -11.82,-9.56 -0.85,-0.29 -2.69,-1.52 -3.18,-0.19 -1.65,-1.32 -4.250001,-3.25 -6.000001,-4.5 1.68,-1.53 4.650001,-0.41 7.010001,-0.9 1.14,-0.23 1.63,-1.21 1.99,-1.35 3.36,-1.28 5.09,-1.57 6.75,-5.25 2.18,1.54 6.38,2.21 8.22,3.41 1.29,0.84 1.59,2.48 2.66,3.34 3.66,2.97 6.44,5.14 10.88,2.25 z"
     id="path66" />
  <path
     class="cls-3"
     d="m 114.75733,75.16982 c -2.24,0.54 -1.12,-1.54 -2.21,-3.41 -0.78,-1.34 -2.36,-2.21 -3.79,-2.59 -2.18,-5.26 -6.14,-5.81 -11.250001,-4.5 -1.5,-0.56 -3.78,-2.15 -3.75,-3.75 1.52,-0.67 7.090001,-3.66 7.500001,-3.75 2.98,-0.64 9.87,2.45 11.59,5.28 1.72,2.83 2.26,9.48 1.91,12.72 z"
     id="path68" />
  <path
     class="cls-15"
     d="m 108.75733,69.16982 c 1.43,0.38 3.02,1.25 3.79,2.59 1.08,1.87 -0.04,3.95 2.21,3.41 -0.14,1.3 -0.99,4.88 -1.5,6 -1.66,3.68 -3.39,3.97 -6.75,5.25 0.1,-0.96 -0.15,-2.1 0,-3 0.35,-2.08 1.93,-2.95 2.27,-5.6 0.37,-2.91 0.14,-6.18 -1.52,-8.65 0.47,0.08 1.09,-0.11 1.5,0 z"
     id="path70" />
  <path
     class="cls-16"
     d="m 129.75733,53.41982 c -0.05,1.74 -0.02,3.51 0,5.25 0.01,1.25 -0.02,2.5 0,3.75 l -0.75,0.75 c 0,0.25 -0.03,0.51 0,0.75 -1.13,-0.6 -2.12,-0.2 -2.3,-1.85 -0.48,-4.32 -0.77,-8.78 -0.69,-13.14 1.37,-0.18 0.51,1.54 0.91,2.45 0.61,1.37 1.33,1.95 2.83,2.05 z"
     id="path72" />
  <path
     class="cls-9"
     d="m 133.50733,52.66982 c 0.05,0.03 -0.18,1.06 0.22,1.26 0.89,0.44 1.73,0.26 2.78,0.99 l -6.75,3.75 c -0.02,-1.74 -0.05,-3.51 0,-5.25 0,-0.25 0,-0.5 0,-0.75 0.88,0.2 3.29,-0.28 3.75,0 z"
     id="path74" />
  <path
     class="cls-7"
     d="m 128.25733,197.41982 c 1.72,1.38 3.96,1.7 6,2.25 5.83,1.57 7.59,2.15 13.5,0 0.61,-0.22 0.97,-0.45 1.5,-0.75 1.48,-0.82 2.06,-0.67 3,-3 1.46,0.43 2.95,0.78 4.5,0.76 l -2.25,2.23 c 4.51,-1 17.62,5.94 18,10.15 0.16,1.73 -1.02,4.75 0,7.11 -26.65,20 -70.36,24.24 -101.820001,15.2 -5.71,-1.64 -14.66,-4.06 -19.86,-6.39 -1.58,-0.71 -10.82,-7.8 -11.07,-8.81 1.94,-1.44 5.62,-5.18 7.86,-5.32 1.94,-0.12 4.88,1 6.96,1.37 0.95,0.17 2.08,-0.56 2.74,-0.41 0.47,0.11 1.68,2.32 3.5,3.13 2.06,0.92 4.43,1.32 6.68,1.22 2.67,0.9 6.33,0.97 9,0 2.39,2.03 10.72,-4.14 11.15,-5.79 0.58,-2.22 -2.25,-5.3 -3.9,-6.71 -0.45,-0.38 -1.15,-0.16 -1.25,-0.25 -1,-0.86 -2.13,-1.5 -3,-2.25 -0.25,-0.21 -0.52,-0.51 -0.75,-0.75 -2.38,-2.53 -1.77,-2.72 -2.25,-6 8.92,-1.57 19.79,-0.94 28.290001,-4.33 5.19,-2.08 3.38,-5.4 11.13,-3.2 9.59,2.72 7.55,6.68 12.33,10.54 z"
     id="path76" />
  <path
     class="cls-8"
     d="m 164.25733,168.91982 c 0.56,4.09 -1.57,5.81 3.75,6.75 0.47,0.08 1.04,-0.09 1.5,0 0.24,0.05 0.51,-0.05 0.75,0 -0.24,1.77 2.87,3.23 4.5,3.75 0.24,0.26 0.51,0.49 0.75,0.75 2.1,2.2 2.41,2.18 4.5,3.75 0.32,0.24 0.54,0.6 0.75,0.75 l 5.25,14.25 c -4.26,8.87 -5.67,11.37 -13.5,17.25 -1.02,-2.37 0.16,-5.38 0,-7.11 -0.38,-4.21 -13.5,-11.15 -18,-10.15 l 2.25,-2.23 c -1.54,0.02 -3.03,-0.33 -4.5,-0.76 -2.79,-0.82 -0.7,-0.5 -1.5,-2.25 0.8,-2.07 -0.88,-5.75 -0.77,-7.05 0.04,-0.51 1.58,-0.82 2.16,-1.65 3.18,-4.65 6.19,-11.92 6.11,-17.54 l 6,1.5 z"
     id="path78" />
  <path
     class="cls-15"
     d="m 41.257329,198.91982 c -0.22,0.43 -2.26,8.81 -2.29,9.41 -0.06,1.22 0.51,6.69 0.79,7.84 -1.07,0.8 -1.06,0.81 -2.25,1.5 -0.88,-2.79 -2.01,-5.24 -2.25,-8.25 -0.33,-4.13 0.48,-8.74 1.5,-12.75 2.03,-0.34 2.99,1.27 4.5,2.25 z"
     id="path80" />
  <path
     class="cls-14"
     d="m 180.75733,184.66982 c 2.3,1.6 2.47,3.12 3.53,3.8 1.06,0.68 2.77,0.44 3.22,0.7 0.85,0.5 0.89,4.13 0.75,5.25 -0.29,2.38 -1.52,2.97 -2.25,4.5 z"
     id="path82" />
  <path
     class="cls-2"
     d="m 35.257329,209.41982 c 0.24,3.01 1.37,5.46 2.25,8.25 -0.27,0.16 -0.57,1.28 -1.5,1.5 -0.1,-2.16 -2.38,-2.19 -3.64,-4.24 -1.02,-1.66 -1.4,-3.6 -1.61,-5.51 z"
     id="path84" />
  <path
     class="cls-4"
     d="m 62.257329,94.66982 c -9.95,11.16 -10.18,15.68 -0.75,27 0.18,0.21 0.11,1.22 0.7,1.89 1.85,2.05 4.13,3.62 6.8,4.11 -0.79,7.34 0.63,12.99 3.75,19.5 -7.37,4.38 -6.44,16.36 1.5,19.5 0.72,4.49 8.38,10.78 9.75,14.25 0.13,0.34 -0.09,1.04 0,1.5 -2.22,-0.18 -4.52,0.13 -6.75,0 -0.36,-3.27 -2.89,-5.59 -4.5,-8.25 -1.02,-1.69 -1.67,-3.46 -3,-5.25 -1.74,-2.35 -3.4,-3.38 -5.25,-5.25 -0.16,-0.16 -0.19,-1.43 -1.07,-2.27 -3.33,-3.2 -6.87,-0.77 -10.18,0.77 0.02,-0.75 -0.03,-1.5 0,-2.25 0.03,-0.75 -0.04,-1.5 0,-2.25 0.13,-2.52 0.03,-5.05 0.75,-7.5 0.68,-2.32 3.73,-5.78 3,-9 -1.71,-1.73 -5.85,4.95 -5.25,6.75 -1.29,-1.13 -4.26,-3.1 -6,-4.5 -1.42,-1.14 -2.79,-2.95 -4.5,-3.75 -0.74,-2.75 1.82,-4.37 2.22,-6.41 1,-5.09 0.95,-10.97 2.5,-16.25 1.13,-3.87 4.86,-7.5 5.45,-10.33 0.23,-1.11 -0.58,-2.87 -0.43,-3.01 0.3,-0.28 2.17,0.88 2.67,-1.47 0.57,-2.69 -3.32,-9.17 -1.92,-12.78 l 10.5,5.25 z"
     id="path86" />
  <path
     class="cls-2"
     d="m 57.757329,62.41982 1.23,4.57 c 5.81,-0.16 17.15,6.57 22.02,5.93 0.93,0.58 1.76,1.01 1.5,2.25 -5.71,0.42 -9.87,-0.66 -15.25,-1.54 -1.41,0.34 -1.05,4.19 -1.25,5.29 -0.07,0.38 -1.12,1.32 -0.75,2.25 -0.61,-0.57 -1.58,-0.96 -2.25,-1.5 -0.34,-2.61 -1.43,-4.42 0,-7.5 -7.58,0.39 -3.65,6.74 -0.75,10.5 1.8,2.32 4.41,4.39 7.5,4.5 -0.28,1.39 -1.17,2.32 -1.5,3.75 -2.82,2.16 -3.85,6.3 -5.06,9.57 -1.21,3.27 -0.82,9.04 -6.19,8.43 -0.08,0 -0.54,-1.08 -1.49,-0.75 -0.6,3.45 1.3,4.01 2.99,6 4.48,5.24 6.76,5.88 13.5,7.5 -0.1,0 -0.76,0.79 -1.81,0.78 -2.77,0 -5.83,-2.17 -8.69,-0.78 -9.43,-11.32 -9.2,-15.84 0.75,-27 0.85,-0.96 5.4,-4.46 4.5,-5.25 -7.19,1.63 -13.66,-12.47 -14.09,-17.85 -0.16,-1.96 1.07,-7.31 2.58,-8.47 0.44,-0.34 1.86,-0.61 2.52,-0.69 z"
     id="path88" />
  <path
     class="cls-15"
     d="m 93.757329,60.91982 c -0.03,1.6 2.25,3.19 3.75,3.75 -4.21,1.69 -12.5,7.72 -16.5,8.25 -4.87,0.64 -16.21,-6.08 -22.02,-5.93 l -1.23,-4.57 c 6.65,-0.79 14.66,2.88 22.5,3 6.49,0.1 7.81,-1.98 13.5,-4.5 z"
     id="path90" />
  <path
     class="cls-14"
     d="m 53.257329,159.91982 c -0.03,0.75 0.02,1.5 0,2.25 -0.07,2.24 0.05,4.51 0,6.75 -0.05,1.99 0.06,4.01 0,6 l -16.5,-5.25 c -1.22,-2.64 0.94,-7.84 1.38,-10.99 0.67,-4.81 1.32,-9.66 1.62,-14.5 3.41,0 2.58,3.57 3.69,5.68 0.91,1.73 5.06,7.08 6.48,8.52 1.09,1.1 1.51,1.82 3.33,1.55 z"
     id="path92" />
  <path
     class="cls-4"
     d="m 41.257329,173.41982 c -0.85,-0.14 -2.06,0 -3,0 -4.49,0.02 -15.73,1.82 -18.75,5.25 -1.45,-1.16 -1.11,-3.03 -1.5,-4.5 l 18.75,-4.5 c 1.01,2.19 3.05,2.21 4.5,3.75 z"
     id="path94" />
  <path
     class="cls-14"
     d="m 16.507329,169.66982 c 0.17,1.08 1.18,3.32 1.5,4.5 0.39,1.47 0.05,3.34 1.5,4.5 -1.13,1.29 -2.73,5.6 -3.75,7.5 -1.46,0.63 -2.67,-2.99 -2.79,-3.58 -0.88,-4.69 -0.16,-6.67 1.65,-10.71 0.5,-1.11 -0.16,-2.66 1.88,-2.2 z"
     id="path96" />
  <path
     class="cls-16"
     d="m 51.757329,147.91982 c 0.29,0.25 0.16,2.7 2.25,2.25 -0.72,2.45 -0.62,4.98 -0.75,7.5 -3.12,-0.42 -3.67,-4.9 -4.67,-6.95 -1.15,-2.35 -3.77,-3.69 -2.83,-7.3 1.74,1.4 4.71,3.37 6,4.5 z"
     id="path98" />
  <path
     class="cls-4"
     d="m 125.25733,114.91982 c 3.47,2.08 7.12,4.16 10.49,6.4 1.09,0.72 1.15,2.23 2.08,2.58 4.63,1.72 11.2,-1.06 15.53,-2.98 2.61,1.75 0.08,2.95 -0.16,4.27 -0.2,1.09 7.31,19.07 8.45,20.46 4.86,5.92 8.91,-2.85 13.1,-3.72 1.06,-0.22 2.58,0.13 3.75,0 0.12,0.94 -0.18,2.15 0,3 -2.04,0.47 -3.89,0.52 -6,1.5 -1.23,0.57 -6.77,4.47 -7.17,5.25 -0.84,1.64 1.11,3.19 1.17,3.75 0.03,0.29 -0.89,1.76 -0.75,3 l -2.25,1.5 c -0.29,-1.84 -8.66,-12.48 -10.5,-15 -2.4,-3.28 -4.93,-6.6 -7.5,-9.75 -2.84,-3.47 -6.19,-7.26 -10.23,-9.65 -0.91,-0.54 -3.88,-1.85 -3.26,0.25 0.62,2.1 2.7,6.28 3.73,8.65 2.9,6.64 2.23,5.01 6.75,9.75 0.15,0.16 0.12,1.27 0.71,1.89 5.71,5.94 14.9,11.68 15.04,21.36 0.08,5.62 -2.93,12.9 -6.11,17.54 -0.57,0.84 -2.11,1.15 -2.16,1.65 -0.11,1.3 1.57,4.98 0.77,7.05 -0.29,-0.64 -5.7,-2.86 -6.75,-3 -0.62,-0.08 -2.57,-0.14 -3,0 v -2.25 c -0.99,-0.06 -2,0.06 -3,0 -0.74,-0.04 -1.51,0.06 -2.25,0 -0.42,-2.32 1.16,-1.39 2.59,-1.5 1.43,-0.11 3.81,0.42 4.94,-0.34 2.68,-4.96 5.66,-9.62 8.22,-14.66 0.17,-0.34 -0.17,-1.31 0,-1.5 0.78,-0.87 2.02,0.94 1.41,-4.04 -0.96,-7.83 -7.5,-15.87 -12.62,-21.73 -1.11,-1.27 -1.87,0.12 -2.29,1.02 -0.45,-0.32 -1.73,-1.17 -2.25,-1.5 l -0.75,-1.5 c 0.24,-2.52 -1.25,-5.94 -2.25,-8.25 -0.59,-1.37 -1.11,-3.54 -2.25,-4.5 l -0.75,-1.5 c -0.03,-0.95 -3.83,-12.05 -4.5,-13.5 z"
     id="path100" />
  <path
     class="cls-16"
     d="m 131.25733,100.66982 c 8.27,6.2 17.51,11.96 25.5,18 0.55,0.42 2.86,2.11 3,2.25 3.26,3.24 10.4,13.51 13.36,17.77 0.7,1.01 1.52,1.93 1.64,3.23 -4.19,0.87 -8.24,9.63 -13.1,3.72 -1.14,-1.39 -8.65,-19.37 -8.45,-20.46 0.24,-1.31 2.77,-2.52 0.16,-4.27 -4.33,1.92 -10.9,4.7 -15.53,2.98 -0.94,-0.35 -1,-1.86 -2.08,-2.58 -3.37,-2.23 -7.02,-4.32 -10.49,-6.4 -0.05,-0.11 -1.13,-0.66 -1.69,-1.7 -0.52,-0.97 -0.35,-2.42 -0.56,-2.8 1.5,-3.46 3.7,-6.53 3.75,-10.5 0.34,-0.23 0.57,-1 0.84,-1.39 l 0.95,-0.05 c 0.88,0.78 1.77,1.49 2.71,2.2 z"
     id="path102" />
  <path
     class="cls-11"
     d="m 178.50733,144.91982 c 1.2,5.59 7.06,14.7 11.25,18.75 -0.55,0.17 -3.29,1.27 -3.75,1.5 -0.2,0.1 -0.57,-0.11 -0.75,0 -0.3,-2.04 -2.31,-3.57 -3.74,-4.88 -1.43,-1.31 -8.58,-6.04 -8.85,-6.52 -0.75,-1.29 0.19,-5.53 -0.16,-7.35 2.11,-0.98 3.96,-1.03 6,-1.5 z"
     id="path104" />
  <path
     class="cls-14"
     d="m 201.75733,173.41982 c 0.05,4.02 -3.23,6.53 -3.75,10.5 -0.71,0.11 -1.54,-0.11 -2.25,0 -1.43,-2.41 0.03,-4.57 0,-6.75 -0.04,-3.31 -0.43,-6.59 -1.5,-9.75 1.02,-1.15 1.61,-2.15 3,-3 0.42,-0.26 1.04,-0.59 1.5,-0.75 0.47,3.39 2.96,6.24 3,9.75 z"
     id="path106" />
  <path
     class="cls-3"
     d="m 192.00733,163.66982 c 0.35,0.79 1.6,1.82 2.25,3.75 1.07,3.16 1.46,6.44 1.5,9.75 h -5.25 c -0.23,-4.64 -4.17,-7.32 -4.5,-12 0.46,-0.23 3.2,-1.33 3.75,-1.5 0.55,-0.17 1.57,0.12 2.25,0 z"
     id="path108" />
  <path
     class="cls-15"
     d="m 201.75733,162.91982 c 0.51,0.06 1.59,1.24 2.25,1.5 0.56,2.88 1.73,5.57 1.51,8.58 l -3.76,0.42 c -0.04,-3.51 -2.53,-6.36 -3,-9.75 0.61,-0.21 2.6,-0.8 3,-0.75 z"
     id="path110" />
  <path
     class="cls-16"
     d="m 197.25733,164.41982 c -1.39,0.85 -1.98,1.85 -3,3 -0.65,-1.93 -1.9,-2.96 -2.25,-3.75 -4.07,-9.08 -3.87,-10.15 3.39,-2.26 0.85,0.93 1.88,1.54 1.86,3.01 z"
     id="path112" />
  <path
     class="cls-11"
     d="m 204.00733,163.66982 c 0.04,0.24 -0.05,0.51 0,0.75 -0.66,-0.26 -1.74,-1.44 -2.25,-1.5 l -2.63,-5.98 c 0.96,1.13 3.87,1.91 4.5,3 0.76,1.31 0.18,2.58 0.38,3.73 z"
     id="path114" />
  <path
     class="cls-11"
     d="m 38.257329,173.41982 c -0.2,2.82 -1.67,4.9 -1.57,7.88 0.08,2.34 1.46,3.81 1.5,5.22 0.06,2.58 -3.32,6.1 -2.18,9.4 -1.25,-0.27 -3.12,0.19 -4.5,0 0.45,-2.15 1.07,-5.4 0.38,-7.5 l -4.13,9.75 c -2.15,-1.53 -2.63,-1.51 -5.25,-1.5 -0.75,0 -1.5,0 -2.25,0 0.33,-1.86 0.72,-4.92 0.37,-6.76 l -4.12,6.76 c -0.14,-0.09 -0.48,0.05 -0.75,0 -0.64,-0.13 -2.31,-0.1 -3,0 -0.43,0.06 -1.02,0.6 -1.5,0.75 -0.01,-0.49 -0.05,-1.02 0,-1.5 0.31,-3.13 2.88,-6.72 4.5,-9.75 1.02,-1.9 2.62,-6.21 3.75,-7.5 3.02,-3.43 14.26,-5.23 18.75,-5.25 z"
     id="path116" />
  <path
     class="cls-12"
     d="m 129.00733,63.16982 0.75,-0.75 c 0,0.51 -0.75,0.7 -0.75,0.75 z"
     id="path118" />
  <path
     class="cls-12"
     d="m 174.75733,162.16982 c 2.68,1.01 4.35,3.48 6.06,5.55 0.34,0.41 1.34,0.32 1.44,0.45 0.26,0.34 4.04,7.05 4.17,7.46 0.79,2.5 -0.3,6.68 1.01,8.6 0.61,0.89 1.64,0.29 2.32,0.44 0.31,0.07 0.91,0.79 1.5,0.75 -1.35,0.83 -3.92,2.32 -3.75,3.75 -0.45,-0.26 -2.17,-0.04 -3.22,-0.7 -1.05,-0.66 -1.23,-2.19 -3.53,-3.8 -0.21,-0.15 -0.43,-0.51 -0.75,-0.75 -0.33,-2.22 -2.21,-4 -4.5,-3.75 -0.24,-0.26 -0.51,-0.49 -0.75,-0.75 -0.12,-0.13 0.07,-1.01 -0.39,-1.5 -0.23,-0.25 -3.47,-2.13 -4.11,-2.25 -0.24,-0.05 -0.51,0.05 -0.75,0 l -0.75,-1.5 c 0.02,-0.23 0.06,-0.62 0,-0.75 4.36,-3.47 -1.45,-14.05 6,-11.25 z"
     id="path120" />
  <path
     class="cls-1"
     d="m 195.75733,177.16982 c 0.03,2.18 -1.43,4.34 0,6.75 -2.42,0.38 -2.26,0.12 -4.5,1.5 -0.59,0.04 -1.19,-0.68 -1.5,-0.75 0.15,-2.61 0.89,-4.79 0.75,-7.5 z"
     id="path122" />
  <path
     class="cls-11"
     d="m 36.757329,63.16982 c -2.59,1.2 0.91,8.23 1.5,10.5 -0.64,0.71 -3.4,-2.49 -3.75,-3 -2.9,-4.2 -4.25,-14.51 2.25,-7.5 z"
     id="path124" />
  <path
     class="cls-9"
     d="m 36.007329,195.91982 c 0.51,0.11 0.83,0.05 0.75,0.75 -1.02,4.01 -1.83,8.62 -1.5,12.75 h -4.5 c -0.03,-0.25 0.03,-0.5 0,-0.75 -0.27,-2.62 -0.58,-5.8 -0.75,-8.25 -0.22,-3.08 1.32,-3.64 1.5,-4.5 1.38,0.19 3.25,-0.27 4.5,0 z"
     id="path126" />
  <path
     class="cls-9"
     d="m 22.507329,196.66982 c 0.64,3.5 -1.19,7.16 -0.75,10.5 l -3,-0.75 c -0.18,-1.33 -0.15,-3.89 0,-5.25 0.19,-1.75 1.31,-3.43 1.5,-4.5 0.75,0 1.5,0 2.25,0 z"
     id="path128" />
  <path
     class="cls-9"
     d="m 27.007329,207.91982 c 0.32,2.63 2.38,5.81 1.5,9 -1.44,0.48 -2.09,-0.4 -3,-0.75 -0.46,-2.1 -1.53,-4 -2.25,-6 2.35,0.18 1.49,-2.56 3.75,-2.25 z"
     id="path130" />
  <path
     class="cls-8"
     d="m 30.007329,200.41982 c 0.17,2.45 0.48,5.63 0.75,8.25 -1.39,0.44 -2.76,-0.62 -3.75,-0.75 -0.43,-3.5 0.74,-5.1 1.5,-8.25 0.26,0.29 1.11,0.45 1.5,0.75 z"
     id="path132" />
  <path
     class="cls-9"
     d="m 15.757329,196.66982 c 0.26,2.96 -0.07,5.39 -0.75,8.25 h -3 c 0.06,-1.68 -0.21,-3.67 0,-5.25 0.07,-0.49 1.34,-1.8 0.75,-3 0.69,-0.1 2.36,-0.13 3,0 z"
     id="path134" />
  <path
     class="cls-2"
     d="m 21.757329,207.16982 c 0.15,1.15 1.2,2.18 1.5,3 0.72,2 1.79,3.9 2.25,6 -3.64,-1.41 -6.24,-5.87 -6.75,-9.75 z"
     id="path136" />
  <path
     class="cls-16"
     d="m 20.257329,196.66982 c -0.19,1.07 -1.31,2.75 -1.5,4.5 -1.09,-0.75 -1.52,-4.05 -2.25,-4.5 l 4.12,-6.76 c 0.35,1.84 -0.05,4.89 -0.37,6.76 z"
     id="path138" />
  <path
     class="cls-2"
     d="m 15.007329,204.91982 c -0.06,0.25 0.08,0.55 0,0.75 -0.57,1.53 -0.87,2.92 -2.62,2.24 -2.26,-0.87 -0.39,-2.81 -0.38,-2.99 z"
     id="path140" />
  <path
     class="cls-2"
     d="m 15.757329,211.66982 c -0.27,-0.23 -0.53,-0.47 -0.75,-0.75 0.42,0.08 0.66,0.34 0.75,0.75 z"
     id="path142" />
  <path
     class="cls-2"
     d="m 12.007329,199.66982 c -0.97,-0.37 -0.73,-1.42 -0.75,-2.25 0.48,-0.15 1.07,-0.69 1.5,-0.75 0.59,1.2 -0.68,2.51 -0.75,3 z"
     id="path144" />
  <path
     class="cls-3"
     d="m 93.757329,85.66982 c -0.49,2.19 2.61,2.19 3.75,3 1.75,1.25 4.350001,3.18 6.000001,4.5 1.65,1.32 7.66,6.66 8.25,8.25 2.05,5.48 -0.09,7.58 -1.5,12 -4.82,1.56 -7.7,5 -12.750001,6.75 -1.97,0.68 -3.67,0.4 -5.25,0.75 v -0.75 c 0.47,-0.11 1,-0.61 1.5,-0.75 6.440001,-1.87 11.560001,-4.25 15.750001,-9.74 -3.13,0.12 -5.37,3.49 -8.01,5.11 -1.510001,0.93 -6.300001,3.49 -7.740001,3.88 -2.97,0.8 -7.4,0.54 -10.5,0.75 0.64,-2.4 -1.95,-0.89 -2.28,-1.96 -1.54,-4.9 0.34,-12.38 -0.71,-16.29 -0.21,-0.8 -1.47,-0.43 -1.51,-0.5 -0.15,-0.26 0.21,-1.65 -0.17,-2.42 -1.15,-2.33 -5.19,-6.07 -8.08,-5.83 1.76,-6.5 4.22,-3.86 5.96,-5.3 0.33,-0.27 -0.13,-1.67 0.04,-2.2 6.21,-0.24 10.89,-1.45 17.25,0.75 z m -11.85,11.38 c -0.43,0.75 -0.27,2.19 0.2,2.9 2.17,3.26 15.57,-8.77 7.59,-8.28 -1.03,0.06 -7.54,4.95 -7.79,5.38 z"
     id="path146" />
  <path
     class="cls-4"
     d="m 123.00733,110.41982 c -1.26,-2.28 -3.07,-1.12 -4.5,0 -1.09,0.86 -2.73,2.66 -3.75,3.75 -1.8,0.74 -3.41,1.57 -5.25,2.25 0.35,-0.85 0.45,-2.05 0.75,-3 1.41,-4.42 3.55,-6.52 1.5,-12 4.62,-1.5 2.96,-0.05 4.52,1.11 0.84,0.63 1.65,0.22 2.23,0.39 4.19,1.21 4.64,-0.58 8.25,-3 -0.05,3.97 -2.25,7.04 -3.75,10.5 z"
     id="path148" />
  <path
     class="cls-4"
     d="m 109.50733,117.16982 -0.75,-0.75 c 0.22,-0.08 0.53,0.08 0.75,0 -0.09,0.21 0.09,0.54 0,0.75 z"
     id="path150" />
  <path
     class="cls-16"
     d="m 118.50733,102.91982 c -0.59,-0.17 -1.39,0.24 -2.23,-0.39 -1.55,-1.16 0.1,-2.61 -4.52,-1.11 -0.59,-1.59 -6.57,-6.91 -8.25,-8.25 0.49,-1.34 2.33,-0.1 3.18,0.19 4.32,1.45 10.86,4.67 11.82,9.56 z"
     id="path152" />
  <path
     class="cls-9"
     d="m 106.50733,83.41982 c -0.15,0.9 0.1,2.04 0,3 -0.37,0.14 -0.85,1.12 -1.99,1.35 -2.36,0.48 -5.330001,-0.63 -7.010001,0.9 -1.14,-0.81 -4.24,-0.81 -3.75,-3 z"
     id="path154" />
  <path
     class="cls-9"
     d="m 108.75733,69.16982 c -0.41,-0.11 -1.03,0.08 -1.5,0 -4.74,-0.84 -4.11,-0.37 -8.250001,0.75 -3.73,1.01 -6.16,3 -8.25,3.75 -0.44,0.16 -2.18,0.54 -3,0.75 -1.22,0.32 -3.9,0.65 -5.25,0.75 0.26,-1.24 -0.57,-1.67 -1.5,-2.25 4,-0.53 12.29,-6.56 16.5,-8.25 5.110001,-1.31 9.070001,-0.76 11.250001,4.5 z"
     id="path156" />
  <path
     class="cls-11"
     d="m 107.25733,69.16982 c 1.66,2.46 1.88,5.74 1.52,8.65 -0.33,2.65 -1.91,3.52 -2.27,5.6 l -12.750001,2.25 c -6.36,-2.2 -11.04,-0.99 -17.25,-0.75 0.43,-1.33 1.14,-2.41 1.5,-3.75 3.64,-0.81 6.17,-2.6 9.75,-2.25 0.31,1.27 3.17,3.6 4.44,4.11 0.38,0.15 0.77,-0.37 0.81,-0.36 2,0.45 2.92,0.94 5.25,0.75 2.800001,-0.23 1.980001,-0.9 3.000001,-1.5 5.65,-3.34 7.34,-12.5 -1.500001,-11.25 -0.14,-0.18 -0.75,-0.23 -0.75,-0.75 4.140001,-1.12 3.510001,-1.59 8.250001,-0.75 z"
     id="path158" />
  <path
     class="cls-8"
     d="m 129.00733,181.66982 c -0.04,1.84 -0.63,3.87 -0.75,6 -0.2,3.39 -0.65,6.13 0,9.75 -4.79,-3.86 -2.74,-7.82 -12.33,-10.54 -7.75,-2.2 -5.93,1.13 -11.13,3.2 -8.500001,3.39 -19.370001,2.77 -28.290001,4.33 -0.82,-5.63 1.08,-8.93 0.75,-12 2.23,0.13 4.53,-0.18 6.75,0 15.88,1.32 19.200001,1.11 33.820001,-4.85 1.15,-0.47 2.63,0.08 2.18,-1.9 0.88,-0.13 1.66,-0.66 2.25,-0.75 5.87,-0.93 6.9,0.49 6.75,6.75 z"
     id="path160" />
  <path
     class="cls-8"
     d="m 48.007329,192.91982 c 0.11,2 1.95,2.68 2.83,4.29 2.18,3.97 1.54,3.77 4.67,7.71 1.58,1.99 2.46,5.6 6,5.25 0.04,0.83 0.58,1.09 0.75,1.5 1.12,2.65 2.4,3.54 5.25,4.5 -2.26,0.1 -4.62,-0.31 -6.68,-1.22 -1.82,-0.81 -3.03,-3.03 -3.5,-3.13 -0.67,-0.15 -1.79,0.58 -2.74,0.41 -2.08,-0.37 -5.02,-1.49 -6.96,-1.37 -2.24,0.14 -5.93,3.87 -7.86,5.32 -0.28,-1.16 -0.85,-6.62 -0.79,-7.84 0.03,-0.59 2.06,-8.97 2.29,-9.41 0.03,-0.06 1.08,0.12 1.24,-0.22 0.84,-1.81 1.59,-5.22 4.01,-5.78 0.43,-0.1 1.02,0.07 1.5,0 z"
     id="path162" />
  <path
     class="cls-12"
     d="m 77.257329,182.41982 c 0.33,3.07 -1.57,6.37 -0.75,12 0.48,3.28 -0.13,3.47 2.25,6 v 0.75 c -3.74,2.28 -7.66,7.3 -12.75,6 0.54,-0.45 1,-1.01 1.5,-1.5 0.39,-0.14 0.87,-0.53 1.5,-0.75 2,-0.7 6.45,-1.65 5.14,-4.75 -4.67,-3.97 -7.79,-9.46 -12.64,-13.25 0.83,-1.47 3.23,-0.29 4.35,-0.9 0.9,-0.49 4.99,-10.64 6.9,-11.85 1.61,2.66 4.14,4.98 4.5,8.25 z"
     id="path164" />
  <path
     class="cls-9"
     d="m 79.507329,201.16982 c 0.87,0.75 2,1.39 3,2.25 -1.56,0.9 -2.51,2.74 -3.75,3.75 -0.08,0.06 -0.73,-0.13 -1.29,0.23 -0.36,0.23 -0.15,1.23 -0.21,1.27 -0.86,0.58 -2.98,-3.4 -2.25,3.75 -0.41,-0.13 -1.09,0.12 -1.5,0 -1.23,-0.37 -2.26,-1.09 -3.75,-0.75 v 3 c -2.71,-0.84 -4.14,-2.39 -6.75,-3 -1.5,-2.9 1.01,-2.84 3,-4.5 5.09,1.3 9.01,-3.72 12.75,-6 z"
     id="path166" />
  <path
     class="cls-2"
     d="m 144.00733,190.66982 c 1.05,0.14 6.46,2.36 6.75,3 0.8,1.75 -1.29,1.43 1.5,2.25 -0.94,2.33 -1.52,2.18 -3,3 0.43,-4.99 -7.08,-2.74 -1.5,0.75 -5.91,2.15 -7.67,1.57 -13.5,0 3.11,-0.01 5.34,0.42 8.25,-0.75 0.28,-0.11 1.12,0.26 1.39,-0.09 0.39,-0.51 0.07,-2.7 0.11,-3.66 0.07,-1.49 -0.05,-3 0,-4.5 z"
     id="path168" />
  <path
     class="cls-15"
     d="m 82.507329,203.41982 c 0.1,0.08 0.8,-0.14 1.25,0.25 1.65,1.41 4.48,4.49 3.9,6.71 -0.43,1.66 -8.76,7.82 -11.15,5.79 1.07,-0.39 2.66,-1.03 3,-2.24 -2.39,1.17 -4.23,-1.42 -4.5,-1.51 -0.73,-7.15 1.39,-3.17 2.25,-3.75 0.3,0.65 1.19,0.54 1.5,0.75 0.13,0.59 0.24,0.56 0.75,0.75 2.31,2.79 1.5,4.65 5.99,1.49 -0.82,-1.63 -4.68,-1.01 -5.99,-1.49 -0.23,-0.28 -0.44,-0.54 -0.75,-0.75 -0.14,-0.64 0.1,-1.54 0,-2.25 1.24,-1.01 2.19,-2.85 3.75,-3.75 z"
     id="path170" />
  <path
     class="cls-11"
     d="m 132.75733,188.41982 v 2.25 c -2.32,0.55 -2.58,3.65 -2.26,5.63 0.32,1.98 1.39,1.41 3.01,1.87 0.21,0.06 0.52,0.71 0.75,0.75 v 0.75 c -2.04,-0.55 -4.28,-0.87 -6,-2.25 -0.65,-3.62 -0.2,-6.36 0,-9.75 1.69,-0.73 3.53,0.62 4.5,0.75 z"
     id="path172" />
  <path
     class="cls-14"
     d="m 69.757329,214.66982 c 1.53,0.48 2.8,1.11 4.5,0.75 l -0.75,-3 c 0.41,0.12 1.09,-0.13 1.5,0 0.27,0.09 2.11,2.68 4.5,1.51 -0.34,1.21 -1.93,1.85 -3,2.24 -2.67,0.97 -6.33,0.9 -9,0 -2.85,-0.96 -4.13,-1.85 -5.25,-4.5 h 0.75 c 2.61,0.61 4.05,2.16 6.75,3 z"
     id="path174" />
  <path
     class="cls-15"
     d="m 147.75733,199.66982 c -5.58,-3.49 1.93,-5.74 1.5,-0.75 -0.53,0.3 -0.89,0.53 -1.5,0.75 z"
     id="path176" />
  <path
     class="cls-15"
     d="m 79.507329,201.16982 h -0.75 v -0.75 c 0.23,0.24 0.5,0.54 0.75,0.75 z"
     id="path178" />
  <path
     class="cls-12"
     d="m 142.50733,144.16982 c 2.82,-0.16 5.46,1.76 7.94,2.2 1.37,0.25 3,0.67 2.56,-1.45 1.84,2.52 10.21,13.16 10.5,15 0.37,2.33 0.47,5.68 0.75,8.25 0.03,0.25 -0.03,0.51 0,0.75 l -6,-1.5 c -0.14,-9.69 -9.34,-15.42 -15.04,-21.36 -0.59,-0.61 -0.55,-1.72 -0.71,-1.89 z"
     id="path180" />
  <path
     class="cls-2"
     d="m 167.25733,169.66982 c 0.42,3.3 0.85,2.33 1.5,3.75 0.06,0.13 0.02,0.52 0,0.75 0,0.08 -1.04,0.73 -0.75,1.5 -5.32,-0.94 -3.19,-2.66 -3.75,-6.75 -0.03,-0.24 0.03,-0.5 0,-0.75 z"
     id="path182" />
  <path
     class="cls-14"
     d="m 180.00733,183.91982 c -2.09,-1.57 -2.4,-1.55 -4.5,-3.75 2.29,-0.25 4.17,1.53 4.5,3.75 z"
     id="path184" />
  <path
     class="cls-14"
     d="m 170.25733,175.66982 c 0.64,0.12 3.88,2 4.11,2.25 0.46,0.49 0.27,1.37 0.39,1.5 -1.63,-0.52 -4.74,-1.98 -4.5,-3.75 z"
     id="path186" />
  <path
     class="cls-14"
     d="m 169.50733,175.66982 c -0.46,-0.09 -1.03,0.08 -1.5,0 -0.29,-0.77 0.74,-1.42 0.75,-1.5 z"
     id="path188" />
  <path
     class="cls-12"
     d="m 41.257329,173.41982 c 3.7,0.59 7.57,3.8 11.25,4.5 -0.06,1.4 0.7,2.61 0.75,3.75 0.06,1.24 -0.38,1.72 -1.5,2.25 -0.36,0.17 -1.57,-0.36 -2.09,0.12 -0.39,0.36 -2.76,7.58 -3.16,8.88 -2.42,0.56 -3.17,3.97 -4.01,5.78 -0.16,0.35 -1.21,0.17 -1.24,0.22 -1.51,-0.98 -2.47,-2.59 -4.5,-2.25 0.08,-0.7 -0.24,-0.64 -0.75,-0.75 -1.14,-3.29 2.24,-6.82 2.18,-9.4 -0.03,-1.41 -1.41,-2.88 -1.5,-5.22 -0.11,-2.98 1.37,-5.07 1.57,-7.88 0.94,0 2.15,-0.14 3,0 z"
     id="path190" />
  <path
     class="cls-2"
     d="m 96.757329,128.41982 c -2,7.7 -8.36,13.96 -14.5,18.7 -2.01,2.28 0.86,2.87 2.87,3.06 2.43,0.22 12.04,-0.51 13.02,0.12 0.27,0.17 3.030001,5.22 3.090001,5.53 1.4,6.83 1.28,15.11 2.27,22.1 -6.520001,1.04 -12.920001,2.94 -19.500001,3 -1.37,-3.47 -9.03,-9.76 -9.75,-14.25 -0.92,-5.69 0.67,-13.54 0,-19.5 7.06,-4.93 15.39,-10.9 20.25,-18 0.93,-0.12 1.44,-0.32 2.25,-0.75 z"
     id="path192" />
  <path
     class="cls-12"
     d="m 94.507329,129.16982 c -4.86,7.1 -13.19,13.07 -20.25,18 -0.25,0.18 -1.21,-0.17 -1.5,0 -3.12,-6.51 -4.54,-12.16 -3.75,-19.5 9.24,1.7 16.01,2.73 25.5,1.5 z"
     id="path194" />
  <path
     class="cls-14"
     d="m 69.757329,168.91982 c 1.33,1.79 1.98,3.56 3,5.25 -1.9,1.2 -6,11.35 -6.9,11.85 -1.13,0.62 -3.52,-0.56 -4.35,0.9 -0.79,-0.61 -3.06,-1.21 -4.5,-2.25 -0.9,-0.66 -1.8,-2.83 -3.75,-3 -0.05,-1.14 -0.81,-2.35 -0.75,-3.75 0.02,-0.4 0.74,-1.13 0.75,-1.5 l 8.25,-10.5 z"
     id="path196" />
  <path
     class="cls-14"
     d="m 97.507329,120.16982 c 0.36,0.92 1.43,0.79 2.25,0.75 l 0.750001,3.75 c -1.040001,0.84 -2.120001,2.89 -3.750001,3.75 -0.81,0.43 -1.32,0.63 -2.25,0.75 -9.49,1.23 -16.26,0.2 -25.5,-1.5 -2.67,-0.49 -4.95,-2.06 -6.8,-4.11 -0.6,-0.66 -0.53,-1.68 -0.7,-1.89 2.87,-1.39 5.92,0.78 8.69,0.78 1.05,0 1.71,-0.78 1.81,-0.78 1.74,0 3.51,0.08 5.25,0 -0.55,2.28 2.15,1.62 3.39,1.53 4.36,-0.32 7.76,-1.42 11.61,-2.28 1.58,-0.35 3.28,-0.07 5.25,-0.75 z"
     id="path198" />
  <path
     class="cls-12"
     d="m 120.00733,175.66982 c 0.44,1.98 -1.03,1.43 -2.18,1.9 -14.61,5.96 -17.930001,6.16 -33.820001,4.85 -0.09,-0.46 0.13,-1.16 0,-1.5 6.58,-0.06 12.98,-1.96 19.500001,-3 5.48,-0.87 11.01,-1.46 16.5,-2.25 z"
     id="path200" />
  <path
     class="cls-16"
     d="m 74.257329,147.16982 c 0.67,5.96 -0.92,13.81 0,19.5 -7.94,-3.14 -8.87,-15.12 -1.5,-19.5 0.29,-0.17 1.25,0.18 1.5,0 z"
     id="path202" />
  <path
     class="cls-16"
     d="m 64.507329,163.66982 c -1.2,-0.12 -2.25,1.3 -3,1.5 -0.8,0.21 -2.16,-0.24 -3.19,0.02 -0.49,0.12 -3.27,4.14 -5.06,3.73 0.05,-2.24 -0.07,-4.51 0,-6.75 3.31,-1.54 6.85,-3.97 10.18,-0.77 0.88,0.84 0.91,2.12 1.07,2.27 z"
     id="path204" />
  <path
     class="cls-14"
     d="m 51.757329,147.91982 c -0.61,-1.8 3.53,-8.47 5.25,-6.75 0.74,3.21 -2.31,6.68 -3,9 -2.09,0.45 -1.96,-2 -2.25,-2.25 z"
     id="path206" />
  <path
     class="cls-12"
     d="m 64.507329,163.66982 c 1.85,1.87 3.51,2.9 5.25,5.25 l -8.25,-3 v -0.75 c 0.75,-0.2 1.8,-1.62 3,-1.5 z"
     id="path208" />
  <path
     class="cls-15"
     d="m 76.507329,84.91982 c -0.17,0.52 0.29,1.92 -0.04,2.2 -1.74,1.44 -4.19,-1.19 -5.96,5.3 -0.17,0.64 -1.04,0.99 -0.79,2.55 0.34,2.11 6.48,7.27 9.04,5.7 0.04,0.07 1.29,-0.3 1.51,0.5 1.05,3.91 -0.83,11.39 0.71,16.29 0.34,1.07 2.92,-0.43 2.28,1.96 -6.64,0.45 -6.71,0.76 -13.5,-0.75 -0.66,-8.8 -3.57,-18.79 -1.5,-27.75 0.33,-1.43 1.22,-2.36 1.5,-3.75 1.39,0.05 4.74,-1.33 6,-2.25 0.25,0 0.5,0 0.75,0 z"
     id="path210" />
  <path
     class="cls-9"
     d="m 69.757329,118.66982 c -4.4,-0.98 -7.4,-0.72 -10.5,-4.5 -1.21,-1.48 -2.37,-3.25 -2.25,-5.25 5.38,0.61 5.03,-5.29 6.19,-8.43 1.16,-3.14 2.23,-7.41 5.06,-9.57 -2.07,8.96 0.84,18.95 1.5,27.75 z"
     id="path212" />
  <path
     class="cls-4"
     d="m 82.507329,75.16982 c 1.35,-0.1 4.03,-0.43 5.25,-0.75 0.2,1.35 -0.29,3.29 0,4.5 -3.58,-0.35 -6.11,1.44 -9.75,2.25 -1.81,0.4 -1.72,0.48 -3.71,1.16 -2.48,0.85 -3.36,0.19 -5.29,-1.16 -0.77,-0.54 -1.47,-2.12 -3,-2.25 0.2,-1.1 -0.17,-4.94 1.25,-5.29 5.38,0.87 9.54,1.96 15.25,1.54 z"
     id="path214" />
  <path
     class="cls-16"
     d="m 69.757329,118.66982 c 6.79,1.51 6.86,1.2 13.5,0.75 3.1,-0.21 7.53,0.05 10.5,-0.75 v 0.75 c -0.5,0.14 -1.03,0.64 -1.5,0.75 -5.29,1.23 -9.68,1.26 -15,1.5 -1.74,0.08 -3.51,0 -5.25,0 -6.74,-1.62 -9.02,-2.26 -13.5,-7.5 h 0.75 c 3.1,3.78 6.1,3.52 10.5,4.5 z"
     id="path216" />
  <path
     class="cls-16"
     d="m 65.257329,81.16982 c 2.29,2.13 1.31,1.18 3.75,2.25 0.16,0.07 0.32,1.19 1.86,1.49 1.35,0.27 3.39,0.03 4.89,0.01 -1.26,0.92 -4.61,2.3 -6,2.25 -3.09,-0.11 -5.7,-2.18 -7.5,-4.5 1.03,-0.45 0.87,-2.09 0.75,-3 0.67,0.54 1.64,0.93 2.25,1.5 z"
     id="path218" />
  <path
     class="cls-4"
     d="m 62.257329,82.66982 c -2.9,-3.75 -6.83,-10.1 0.75,-10.5 -1.43,3.07 -0.34,4.88 0,7.5 0.12,0.91 0.28,2.55 -0.75,3 z"
     id="path220" />
  <path
     class="cls-9"
     d="m 69.007329,81.16982 v 2.25 c -2.44,-1.07 -1.46,-0.12 -3.75,-2.25 -0.37,-0.93 0.68,-1.87 0.75,-2.25 1.53,0.13 2.23,1.71 3,2.25 z"
     id="path222" />
  <path
     class="cls-11"
     d="m 57.007329,108.91982 c -0.12,2 1.04,3.77 2.25,5.25 h -0.75 c -1.7,-1.99 -3.6,-2.55 -2.99,-6 0.96,-0.34 1.41,0.74 1.49,0.75 z"
     id="path224" />
  <path
     class="cls-16"
     d="m 53.257329,174.91982 c -0.01,0.5 0.02,1 0,1.5 -0.01,0.37 -0.73,1.1 -0.75,1.5 -3.68,-0.7 -7.55,-3.91 -11.25,-4.5 -1.45,-1.54 -3.49,-1.56 -4.5,-3.75 z"
     id="path226" />
  <path
     class="cls-11"
     d="m 61.507329,165.16982 v 0.75 l -8.25,10.5 c 0.02,-0.5 -0.01,-1 0,-1.5 0.06,-1.99 -0.05,-4.01 0,-6 1.79,0.41 4.57,-3.61 5.06,-3.73 1.04,-0.25 2.39,0.19 3.19,-0.02 z"
     id="path228" />
  <path
     class="cls-11"
     d="m 135.00733,142.66982 c 0,0.08 -1.27,0.97 -0.75,1.49 0.22,0.22 1.24,-0.15 1.5,0.01 0.52,0.33 1.8,1.18 2.25,1.5 5.44,3.95 12.01,13.59 12.75,20.25 -1.81,0.4 -1.56,-0.92 -2.11,-1.97 -1.5,-2.84 -8.36,-14.67 -11.04,-15.26 -1.7,-0.38 -1.5,1.68 -1.85,2.24 -1.15,1.83 -4.28,5.57 -3.41,7.48 3.2,2.02 6.83,11.81 9.41,13.19 1.38,0.74 3.61,-0.64 5.24,-1.17 1.26,-0.41 2.32,-1.04 3.75,-0.75 0.04,0.34 0.4,0.67 0.75,0.75 -0.17,0.19 0.17,1.16 0,1.5 -3.5,0.34 -5.84,5.36 -9.37,6.01 -2.75,0.51 0.26,-4.62 -0.39,-5.26 -3.8,-0.15 -6.53,3.57 -10.43,2.94 -1.67,-4.07 -1.58,-6.92 -1.14,-11.15 0.11,-1.03 1.07,-1.78 -0.79,-1.53 -2.27,2.64 -2.73,8.47 -6.39,9.74 0.92,-2.67 3.96,-15.13 4.5,-15.75 0.08,-0.1 1.36,0.17 1.88,-0.72 1.29,-2.19 2.5,-11.02 2.66,-13.89 0.15,-2.7 -1.8,-6.6 0.71,-7.9 1,2.31 2.49,5.73 2.25,8.25 z"
     id="path230" />
  <path
     class="cls-16"
     d="m 123.00733,172.66982 c 3.66,-1.27 4.11,-7.11 6.39,-9.74 1.86,-0.25 0.9,0.51 0.79,1.53 -0.44,4.23 -0.53,7.08 1.14,11.15 3.9,0.64 6.63,-3.09 10.43,-2.94 0.65,0.64 -2.36,5.77 0.39,5.26 3.53,-0.65 5.86,-5.67 9.37,-6.01 -2.55,5.04 -5.54,9.7 -8.22,14.66 -1.13,0.77 -3.5,0.23 -4.94,0.34 -1.44,0.11 -3.01,-0.82 -2.59,1.5 -0.49,-0.04 -1.01,0.04 -1.5,0 0.18,-3.5 -4.73,-3.58 -3.75,-7.87 l -1.5,1.12 c 0.15,-6.26 -0.88,-7.68 -6.75,-6.75 -0.05,-0.86 0.5,-1.52 0.75,-2.25 z"
     id="path232" />
  <path
     class="cls-12"
     d="m 123.00733,110.41982 c 0.21,0.39 0.04,1.84 0.56,2.8 0.56,1.04 1.64,1.59 1.69,1.7 0.67,1.45 4.47,12.55 4.5,13.5 0,0.08 -1.17,1.09 -0.75,1.5 0.21,0.2 1.3,-0.16 1.5,0 1.14,0.96 1.66,3.13 2.25,4.5 -2.51,1.3 -0.56,5.2 -0.71,7.9 -0.15,2.87 -1.36,11.7 -2.66,13.89 -0.52,0.88 -1.8,0.62 -1.88,0.72 1.03,-4.76 -2.02,-10.94 -2.25,-15 -0.15,-2.63 1.36,-7.26 1.49,-10.13 0.26,-5.59 -3.61,-14.07 -6.32,-19.17 -0.52,-0.98 -0.91,-1.65 -1.92,-2.2 1.43,-1.12 3.24,-2.28 4.5,0 z"
     id="path234" />
  <path
     class="cls-16"
     d="m 172.50733,146.41982 c 0.35,1.82 -0.59,6.06 0.16,7.35 0.28,0.48 7.37,5.15 8.85,6.52 1.48,1.37 3.44,2.84 3.74,4.88 -0.53,0.31 -1.62,2.78 -3,3 -0.1,-0.13 -1.1,-0.04 -1.44,-0.45 -1.71,-2.07 -3.39,-4.54 -6.06,-5.55 -0.65,-1.12 -2.73,-7.21 -3.06,-7.44 -0.85,-0.61 -3.91,0.83 -5.19,0.69 -0.06,-0.56 -2.01,-2.11 -1.17,-3.75 0.4,-0.78 5.94,-4.68 7.17,-5.25 z"
     id="path236" />
  <path
     class="cls-5"
     d="m 145.50733,135.16982 c 2.57,3.15 5.1,6.47 7.5,9.75 0.44,2.13 -1.19,1.7 -2.56,1.45 -2.48,-0.45 -5.12,-2.36 -7.94,-2.2 -4.52,-4.74 -3.85,-3.11 -6.75,-9.75 z"
     id="path238" />
  <path
     class="cls-15"
     d="m 166.50733,155.41982 c 1.28,0.13 4.34,-1.31 5.19,-0.69 0.33,0.23 2.41,6.32 3.06,7.44 -7.45,-2.8 -1.64,7.78 -6,11.25 -0.65,-1.42 -1.08,-0.45 -1.5,-3.75 -0.46,-3.69 -1.11,-7.77 -1.5,-11.25 -0.14,-1.24 0.78,-2.71 0.75,-3 z"
     id="path240" />
  <path
     class="cls-13"
     d="m 145.50733,135.16982 -9.75,-0.75 c -1.03,-2.37 -3.09,-6.47 -3.73,-8.65 -0.64,-2.18 2.34,-0.79 3.26,-0.25 4.03,2.39 7.39,6.18 10.23,9.65 z"
     id="path242" />
  <path
     class="cls-16"
     d="m 138.00733,145.66982 c 0.42,-0.9 1.18,-2.3 2.29,-1.02 5.11,5.86 11.66,13.9 12.62,21.73 0.61,4.98 -0.63,3.17 -1.41,4.04 -0.35,-0.08 -0.71,-0.41 -0.75,-0.75 -0.13,-1.23 0.14,-2.53 0,-3.75 -0.74,-6.66 -7.31,-16.3 -12.75,-20.25 z"
     id="path244" />
  <path
     class="cls-14"
     d="m 134.25733,188.41982 c 0.49,0.04 1.01,-0.04 1.5,0 0.74,0.06 1.51,-0.04 2.25,0 -0.47,2.25 1.11,1.41 3,1.5 v 0.75 c -0.54,0.18 -1.96,2.22 -2.13,2.86 -0.45,1.64 0.57,2.01 0.63,2.39 0.14,0.93 -0.12,2.04 0,3 h 3 c -2.91,1.16 -5.14,0.73 -8.25,0.75 v -0.75 c 4.38,0.72 2.6,-0.81 3,-3.75 0.1,-0.71 1.68,-2.26 0.43,-3.81 -0.64,-0.9 -3.91,-0.93 -4.93,-0.69 v -2.25 c 0.49,0.06 1.01,-0.04 1.5,0 z"
     id="path246" />
  <path
     class="cls-9"
     d="m 167.25733,169.66982 -3,-1.5 c -0.28,-2.57 -0.38,-5.92 -0.75,-8.25 l 2.25,-1.5 c 0.39,3.48 1.04,7.56 1.5,11.25 z"
     id="path248" />
  <path
     class="cls-9"
     d="m 144.00733,190.66982 c -0.05,1.5 0.07,3.01 0,4.5 l -4.5,0.75 c -0.06,-0.39 -1.09,-0.76 -0.63,-2.39 0.18,-0.63 1.59,-2.68 2.13,-2.86 0.43,-0.14 2.38,-0.08 3,0 z"
     id="path250" />
  <path
     class="cls-16"
     d="m 138.00733,188.41982 c 1,0.06 2.01,-0.06 3,0 v 1.5 c -1.89,-0.09 -3.47,0.75 -3,-1.5 z"
     id="path252" />
  <path
     class="cls-16"
     d="m 135.75733,144.16982 c -0.25,-0.16 -1.28,0.21 -1.5,-0.01 -0.52,-0.51 0.74,-1.41 0.75,-1.49 z"
     id="path254" />
  <path
     class="cls-11"
     d="m 130.50733,129.91982 c -0.2,-0.17 -1.29,0.19 -1.5,0 -0.42,-0.4 0.75,-1.41 0.75,-1.5 z"
     id="path256" />
  <path
     class="cls-14"
     d="m 190.50733,177.16982 c 0.14,2.71 -0.6,4.89 -0.75,7.5 -0.68,-0.16 -1.71,0.45 -2.32,-0.44 -1.31,-1.92 -0.22,-6.1 -1.01,-8.6 -0.13,-0.41 -3.91,-7.11 -4.17,-7.46 1.38,-0.22 2.47,-2.69 3,-3 0.18,-0.11 0.55,0.1 0.75,0 0.33,4.68 4.27,7.36 4.5,12 z"
     id="path258" />
  <path
     class="cls-15"
     d="m 27.757329,198.16982 c 0.27,0.19 0.44,1.15 0.75,1.5 -0.76,3.15 -1.93,4.75 -1.5,8.25 -2.26,-0.31 -1.4,2.43 -3.75,2.25 -0.3,-0.82 -1.35,-1.85 -1.5,-3 -0.44,-3.34 1.39,-7 0.75,-10.5 2.62,0 3.1,-0.03 5.25,1.5 z"
     id="path260" />
  <path
     class="cls-4"
     d="m 31.507329,195.91982 c -0.18,0.86 -1.72,1.42 -1.5,4.5 -0.39,-0.3 -1.24,-0.46 -1.5,-0.75 -0.31,-0.35 -0.48,-1.31 -0.75,-1.5 l 4.13,-9.75 c 0.7,2.09 0.07,5.34 -0.38,7.5 z"
     id="path262" />
  <path
     class="cls-16"
     d="m 81.907329,97.04982 c 0.25,-0.44 6.76,-5.32 7.79,-5.38 7.98,-0.49 -5.42,11.54 -7.59,8.28 -0.47,-0.71 -0.63,-2.15 -0.2,-2.9 z"
     id="path264" />
  <path
     class="cls-4"
     d="m 78.757329,100.66982 c -2.56,1.57 -8.7,-3.59 -9.04,-5.7 -0.25,-1.56 0.62,-1.91 0.79,-2.55 2.89,-0.24 6.93,3.5 8.08,5.83 0.38,0.77 0.02,2.15 0.17,2.42 z"
     id="path266" />
  <path
     class="cls-12"
     d="m 93.757329,118.66982 c 1.45,-0.39 6.24,-2.96 7.740001,-3.88 2.64,-1.62 4.87,-4.99 8.01,-5.11 -4.19,5.49 -9.31,7.88 -15.750001,9.74 z"
     id="path268" />
  <path
     class="cls-9"
     d="m 114.75733,114.16982 c -0.1,0.1 -0.14,1.27 -1.09,2.25 -1.09,1.12 -3.3,2.35 -4.91,2.25 0.24,-0.5 0.53,-0.99 0.75,-1.5 0.09,-0.21 -0.09,-0.54 0,-0.75 1.84,-0.68 3.45,-1.51 5.25,-2.25 z"
     id="path270" />
  <path
     class="cls-9"
     d="m 110.25733,113.41982 c -0.3,0.95 -0.4,2.15 -0.75,3 -0.22,0.08 -0.53,-0.08 -0.75,0 -0.5,0.18 -1.3,-0.09 -2.2,0.39 -2.89,1.52 -1.73,3.88 -6.800001,4.11 -0.82,0.04 -1.89,0.17 -2.25,-0.75 5.050001,-1.75 7.930001,-5.19 12.750001,-6.75 z"
     id="path272" />
  <path
     class="cls-9"
     d="m 92.257329,120.16982 v 0.75 c -3.85,0.86 -7.25,1.96 -11.61,2.28 -1.24,0.09 -3.93,0.75 -3.39,-1.53 5.32,-0.24 9.71,-0.27 15,-1.5 z"
     id="path274" />
  <path
     class="cls-15"
     d="m 118.50733,110.41982 c 1.01,0.55 1.4,1.22 1.92,2.2 2.7,5.1 6.58,13.58 6.32,19.17 -0.13,2.87 -1.64,7.5 -1.49,10.13 -7.35,1.09 -15.26,6.22 -22.48,7.21 -0.77,0.11 -1.36,0.52 -1.92,-0.42 -0.41,-0.7 -2.780001,-15.29 -2.520001,-16.06 0.32,-0.92 1.66,-0.97 1.950001,-1.43 0.59,-0.92 2.52,-6.94 3.41,-7.86 1.38,-1.43 1.81,-0.07 4.31,-3.94 0.19,-0.29 0.64,-0.52 0.75,-0.75 1.61,0.11 3.82,-1.13 4.91,-2.25 0.95,-0.98 1,-2.15 1.09,-2.25 1.02,-1.09 2.66,-2.89 3.75,-3.75 z"
     id="path276" />
  <path
     class="cls-4"
     d="m 99.007329,69.91982 c 0,0.52 0.61,0.57 0.75,0.75 2.210001,2.73 2.320001,4.06 2.250001,7.5 -1.75,-0.21 -3.080001,0.31 -3.000001,2.25 -0.49,-0.06 -1.06,0.09 -1.5,0 -4.51,-0.96 -6.38,-1.76 -6.75,-6.75 2.09,-0.75 4.52,-2.74 8.25,-3.75 z"
     id="path278" />
  <path
     class="cls-16"
     d="m 90.757329,73.66982 c 0.37,4.99 2.24,5.79 6.75,6.75 v 0.75 c -1.84,0.34 -5.73,-1 -5.24,1.12 l 0.74,0.38 c 0,0 -0.43,0.51 -0.81,0.36 -1.26,-0.51 -4.13,-2.83 -4.44,-4.11 -0.29,-1.21 0.2,-3.15 0,-4.5 0.82,-0.21 2.56,-0.59 3,-0.75 z"
     id="path280" />
  <path
     class="cls-15"
     d="m 99.757329,70.66982 c 8.840001,-1.25 7.150001,7.91 1.500001,11.25 v -0.75 c 0.97,-0.85 0.73,-1.9 0.75,-3 0.07,-3.44 -0.04,-4.77 -2.250001,-7.5 z"
     id="path282" />
  <path
     class="cls-14"
     d="m 78.007329,81.16982 c -0.36,1.34 -1.07,2.42 -1.5,3.75 -0.25,0 -0.5,0 -0.75,0 -1.5,0.02 -3.53,0.26 -4.89,-0.01 -1.54,-0.3 -1.7,-1.42 -1.86,-1.49 v -2.25 c 1.93,1.35 2.8,2.01 5.29,1.16 2,-0.68 1.91,-0.76 3.71,-1.16 z"
     id="path284" />
  <path
     class="cls-1"
     d="m 97.507329,81.16982 c 0.05,0.24 -0.07,0.52 0,0.75 0.11,0.36 0.4,0.62 0.75,0.75 v 0.75 c -2.33,0.19 -3.25,-0.3 -5.25,-0.75 l -0.74,-0.38 c -0.49,-2.12 3.4,-0.78 5.24,-1.12 z"
     id="path286" />
  <path
     class="cls-2"
     d="m 99.007329,80.41982 c 0.8,0.1 1.560001,0.34 2.250001,0.75 v 0.75 c -1.02,0.6 -0.2,1.27 -3.000001,1.5 v -0.75 l -0.75,-0.75 c -0.07,-0.23 0.05,-0.51 0,-0.75 v -0.75 c 0.44,0.09 1.01,-0.06 1.5,0 z"
     id="path288" />
  <path
     class="cls-9"
     d="m 108.00733,119.41982 c -2.5,3.86 -2.93,2.51 -4.31,3.94 -0.89,0.92 -2.81,6.94 -3.41,7.86 -0.300001,0.46 -1.630001,0.51 -1.950001,1.43 -0.27,0.77 2.100001,15.36 2.520001,16.06 0.56,0.95 1.15,0.53 1.92,0.42 7.22,-0.99 15.13,-6.11 22.48,-7.21 0.23,4.06 3.28,10.24 2.25,15 -0.54,0.62 -3.58,13.08 -4.5,15.75 -0.25,0.73 -0.8,1.39 -0.75,2.25 -0.59,0.09 -1.37,0.62 -2.25,0.75 -5.49,0.79 -11.02,1.38 -16.5,2.25 -0.99,-7 -0.87,-15.28 -2.27,-22.1 -0.06,-0.31 -2.830001,-5.36 -3.090001,-5.53 -0.98,-0.62 -10.59,0.11 -13.02,-0.12 -2.01,-0.18 -4.88,-0.78 -2.87,-3.06 6.14,-4.74 12.51,-11 14.5,-18.7 1.63,-0.86 2.71,-2.91 3.750001,-3.75 0.24,-0.19 1.23,-0.18 1.87,-0.72 1.84,-1.57 3.17,-4.18 5.63,-4.53 z"
     id="path290" />
  <path
     class="cls-4"
     d="m 129.00733,181.66982 1.5,-1.12 c -0.97,4.28 3.94,4.37 3.75,7.87 -0.49,-0.04 -1.01,0.06 -1.5,0 -0.97,-0.13 -2.81,-1.48 -4.5,-0.75 0.12,-2.13 0.71,-4.16 0.75,-6 z"
     id="path292" />
  <path
     class="cls-3"
     d="m 51.757329,183.91982 c 0.7,1.07 2.19,1.49 3,2.25 6.46,6.05 3.4,9.74 4.5,17.25 -0.31,0.2 1.12,1.56 -2.25,1.5 -0.18,-2.4 -4.75,-13.33 -6.01,-14.25 -0.95,-0.69 -2.61,1.36 -2.99,2.25 -0.48,0.07 -1.07,-0.1 -1.5,0 0.4,-1.29 2.76,-8.51 3.16,-8.88 0.52,-0.48 1.74,0.04 2.09,-0.12 z"
     id="path294" />
  <path
     class="cls-2"
     d="m 48.007329,192.91982 c 0.38,-0.88 2.04,-2.93 2.99,-2.25 1.26,0.92 5.84,11.85 6.01,14.25 -0.5,0 -1,0 -1.5,0 -3.13,-3.94 -2.49,-3.74 -4.67,-7.71 -0.88,-1.61 -2.72,-2.3 -2.83,-4.29 z"
     id="path296" />
  <path
     class="cls-4"
     d="m 69.007329,204.91982 c -0.63,0.22 -1.11,0.61 -1.5,0.75 -2.43,0.86 -6.24,-0.15 -6,4.5 -3.54,0.35 -4.42,-3.26 -6,-5.25 0.5,0 1,0 1.5,0 3.37,0.06 1.94,-1.3 2.25,-1.5 0.83,-0.54 8.48,0.08 9.75,1.5 z"
     id="path298" />
  <path
     class="cls-16"
     d="m 67.507329,205.66982 c -0.5,0.49 -0.96,1.05 -1.5,1.5 -1.99,1.66 -4.5,1.6 -3,4.5 h -0.75 c -0.17,-0.41 -0.71,-0.67 -0.75,-1.5 -0.24,-4.65 3.57,-3.64 6,-4.5 z"
     id="path300" />
  <path
     class="cls-16"
     d="m 57.007329,184.66982 c 1.44,1.04 3.71,1.64 4.5,2.25 4.85,3.79 7.97,9.28 12.64,13.25 1.31,3.1 -3.14,4.05 -5.14,4.75 -1.27,-1.42 -8.92,-2.04 -9.75,-1.5 -1.1,-7.51 1.96,-11.2 -4.5,-17.25 0.33,-1.08 1.16,-1.49 2.25,-1.5 z"
     id="path302" />
  <path
     class="cls-15"
     d="m 73.507329,212.41982 0.75,3 c -1.7,0.36 -2.97,-0.27 -4.5,-0.75 v -3 c 1.49,-0.34 2.52,0.38 3.75,0.75 z"
     id="path304" />
  <path
     class="cls-14"
     d="m 79.507329,210.16982 c -0.51,-0.19 -0.62,-0.16 -0.75,-0.75 0.31,0.21 0.52,0.47 0.75,0.75 z"
     id="path306" />
  <path
     class="cls-14"
     d="m 79.507329,210.16982 c 1.31,0.47 5.18,-0.14 5.99,1.49 -4.49,3.16 -3.68,1.3 -5.99,-1.49 z"
     id="path308" />
  <path
     class="cls-14"
     d="m 78.757329,207.16982 c 0.1,0.71 -0.14,1.61 0,2.25 -0.31,-0.21 -1.2,-0.1 -1.5,-0.75 0.06,-0.04 -0.15,-1.04 0.21,-1.27 0.56,-0.36 1.21,-0.16 1.29,-0.23 z"
     id="path310" />
  <path
     class="cls-15"
     d="m 144.00733,195.16982 c -0.04,0.96 0.28,3.15 -0.11,3.66 -0.27,0.35 -1.11,-0.03 -1.39,0.09 h -3 c -0.11,-0.96 0.15,-2.07 0,-3 z"
     id="path312" />
  <path
     class="cls-9"
     d="m 137.25733,195.16982 v -2.25 c -2.23,1.28 -4.39,2.2 -3.75,5.25 -1.62,-0.46 -2.68,0.18 -3.01,-1.87 -0.33,-2.05 -0.06,-5.08 2.26,-5.63 1.02,-0.24 4.28,-0.2 4.93,0.69 1.25,1.55 -0.33,3.1 -0.43,3.81 z"
     id="path314" />
  <path
     class="cls-15"
     d="m 137.25733,195.16982 c -0.4,2.94 1.38,4.47 -3,3.75 -0.23,-0.04 -0.54,-0.69 -0.75,-0.75 -0.64,-3.05 1.52,-3.97 3.74,-5.25 v 2.25 z"
     id="path316" />
  <path
     class="cls-11"
     d="m 57.007329,184.66982 c -1.09,0.01 -1.92,0.42 -2.25,1.5 -0.81,-0.76 -2.3,-1.18 -3,-2.25 1.12,-0.53 1.56,-1.01 1.5,-2.25 1.95,0.17 2.85,2.34 3.75,3 z"
     id="path318" />
  <path
     class="cls-2"
     d="m 108.75733,116.41982 0.75,0.75 c -0.22,0.51 -0.51,1 -0.75,1.5 -0.11,0.23 -0.56,0.46 -0.75,0.75 -2.46,0.35 -3.79,2.96 -5.63,4.53 -0.64,0.55 -1.64,0.53 -1.87,0.72 l -0.750001,-3.75 c 5.070001,-0.24 3.910001,-2.59 6.800001,-4.11 0.91,-0.48 1.7,-0.21 2.2,-0.39 z"
     id="path320" />
  <path
     class="cls-14"
     d="m 135.75733,150.91982 c 3.42,1.81 4.7,5.16 6.75,7.91 0.45,0.6 1.61,0.77 2,1.34 2.11,3.08 3.9,6.51 2.5,10.25 -1.63,0.53 -3.87,1.9 -5.24,1.17 -2.58,-1.38 -6.21,-11.16 -9.41,-13.19 -0.88,-1.92 2.26,-5.65 3.41,-7.48 z"
     id="path322" />
  <path
     class="cls-12"
     d="m 135.75733,150.91982 c 0.35,-0.55 0.15,-2.62 1.85,-2.24 2.68,0.59 9.53,12.42 11.04,15.26 0.56,1.06 0.3,2.37 2.11,1.97 0.14,1.22 -0.13,2.52 0,3.75 -1.43,-0.29 -2.49,0.34 -3.75,0.75 1.4,-3.74 -0.39,-7.17 -2.5,-10.25 -0.39,-0.58 -1.56,-0.74 -2,-1.34 -2.05,-2.75 -3.33,-6.1 -6.75,-7.91 z"
     id="path324" />
  <path
     class="cls-16"
     d="m 102.00733,78.16982 c -0.02,1.1 0.22,2.15 -0.75,3 -0.69,-0.41 -1.450001,-0.65 -2.250001,-0.75 -0.08,-1.94 1.250001,-2.46 3.000001,-2.25 z"
     id="path326" />
  <path
     class="cls-16"
     d="m 98.257329,82.66982 c -0.35,-0.13 -0.64,-0.39 -0.75,-0.75 z"
     id="path328" />
</svg>
