<?xml version="1.0" encoding="UTF-8" standalone="no"?>
<svg
   version="1.0"
   width="1358.117653pt"
   height="571.000000pt"
   viewBox="0 0 1358.117653 571.000000"
   preserveAspectRatio="xMidYMid meet"
   id="svg3495"
   sodipodi:docname="gorilla_pool.svg"
   inkscape:version="1.2.2 (b0a8486541, 2022-12-01)"
   xmlns:inkscape="http://www.inkscape.org/namespaces/inkscape"
   xmlns:sodipodi="http://sodipodi.sourceforge.net/DTD/sodipodi-0.dtd"
   xmlns="http://www.w3.org/2000/svg"
   xmlns:svg="http://www.w3.org/2000/svg">
  <defs
     id="defs3499" />
  <sodipodi:namedview
     id="namedview3497"
     pagecolor="#ffffff"
     bordercolor="#000000"
     borderopacity="0.25"
     inkscape:showpageshadow="2"
     inkscape:pageopacity="0.0"
     inkscape:pagecheckerboard="0"
     inkscape:deskcolor="#d1d1d1"
     inkscape:document-units="pt"
     showgrid="false"
     inkscape:zoom="0.37469139"
     inkscape:cx="767.29812"
     inkscape:cy="252.20756"
     inkscape:window-width="1920"
     inkscape:window-height="1020"
     inkscape:window-x="0"
     inkscape:window-y="32"
     inkscape:window-maximized="1"
     inkscape:current-layer="svg3495" />
  <metadata
     id="metadata3469"> Created by potrace 1.16, written by Peter Selinger 2001-2019 </metadata>
  <path
     style="fill:#2373b9;fill-opacity:1;stroke:#fdfdfd;stroke-width:2.66886"
     d="M 1489.2256,427.01809 V 188.15484 h 84.0692 84.0691 V 368.26217 548.3695 l 75.6692,0.70813 75.6692,0.70815 -16.2586,58.04778 -16.2585,58.04777 h -143.4798 -143.4798 z"
     id="path5391"
     transform="scale(0.75)" />
  <path
     style="fill:#2373b9;fill-opacity:1;stroke:#fdfdfd;stroke-width:2.66886"
     d="m 1156.2445,667.37802 c -56.2205,-10.64179 -101.1723,-33.10374 -130.7474,-65.33304 -14.434,-15.7294 -33.05569,-47.4439 -39.88271,-67.92403 -6.73583,-20.20655 -7.24177,-24.91211 -7.35476,-68.40435 -0.10832,-41.69818 0.54842,-48.85093 6.12615,-66.72158 9.86619,-31.61052 20.95442,-49.94823 44.60322,-73.76448 17.9459,-18.07308 25.7973,-23.75339 46.7429,-33.81754 64.0512,-30.77589 155.0108,-37.07286 236.7381,-16.38891 67.0193,16.96156 115.659,60.23051 133.5607,118.81297 16.537,54.1165 12.3782,120.57178 -10.3679,165.67281 -26.9076,53.35254 -69.9869,85.23241 -140.5946,104.04378 -27.0227,7.19942 -109.0546,9.45928 -138.8237,3.82437 z m 92.1959,-127.98682 c 9.0142,-4.68986 17.3228,-13.67685 22.9607,-24.83531 3.4299,-6.78867 4.3154,-17.15767 4.3154,-50.53299 0,-37.3365 -0.6276,-43.28814 -5.661,-53.6859 -8.4201,-17.39358 -21.9125,-25.20218 -46.2448,-26.76373 -26.2392,-1.68393 -37.0728,0.69286 -48.3699,10.61184 -14.6806,12.88973 -17.2642,20.37815 -18.9707,54.98619 -3.0177,61.20197 6.873,86.4678 36.8394,94.10625 12.2948,3.13394 46.2364,0.7413 55.1309,-3.88635 z"
     id="path5393"
     transform="scale(0.75)" />
  <path
     style="fill:#2373b9;fill-opacity:1;stroke:#fdfdfd;stroke-width:2.66886"
     d="M 636.52383,666.04471 C 593.991,657.18329 565.90099,645.21789 535.89162,623.17885 513.97261,607.08139 496.87983,585.9591 482.97894,557.79237 c -15.46729,-31.34066 -18.59677,-46.85776 -18.59677,-92.20958 0,-56.74482 9.41509,-89.33218 36.04472,-124.75742 39.83626,-52.99393 122.12797,-81.8016 220.16613,-77.07303 79.67469,3.84286 130.14326,22.21811 169.53192,61.72536 23.4055,23.47598 37.11708,47.05076 45.86366,78.85505 6.90061,25.09199 6.83218,98.72991 -0.11289,121.43327 -11.47294,37.50505 -33.14306,70.8008 -61.33258,94.23643 -18.94941,15.75374 -56.94174,33.85971 -88.75347,42.2971 -23.14983,6.14001 -32.73702,7.13684 -75.87209,7.88881 -40.39303,0.70416 -53.74307,-0.0496 -73.39374,-4.14365 z m 86.35951,-122.74175 c 13.62667,-2.63254 23.3934,-9.25282 31.73768,-21.5131 5.67515,-8.33852 6.00494,-11.44704 6.00494,-56.60048 0,-50.8139 -1.09351,-56.20989 -13.79436,-68.06862 -10.46509,-9.7712 -24.59422,-14.14336 -45.50212,-14.0803 -25.11905,0.0758 -39.11688,6.19568 -49.28317,21.54687 -7.29805,11.02013 -7.54237,12.545 -8.42943,52.61137 -1.19041,53.76778 2.27337,66.38953 21.71515,79.12828 13.31914,8.72704 34.92885,11.34643 57.55131,6.97598 z"
     id="path5395"
     transform="scale(0.75)" />
  <path
     style="fill:#2373b9;fill-opacity:1;stroke:#fdfdfd;stroke-width:2.66886"
     d="M 10.675452,514.84967 V 270.4078 l 127.438208,1.22159 c 116.88527,1.12043 129.34033,1.67634 150.40832,6.71322 29.01683,6.93727 59.94116,18.89241 76.72033,29.65958 18.69453,11.99624 41.09246,36.5633 51.47348,56.45841 l 8.96786,17.18681 0.81969,77.08367 c 0.93947,88.3469 -0.80909,99.12764 -20.9759,129.32767 -14.83309,22.21273 -31.24953,35.93501 -59.80159,49.98735 -39.03724,19.21277 -82.2456,27.83523 -139.48617,27.83523 h -30.09472 v 46.7051 46.7051 H 93.410206 10.675452 Z m 204.519688,43.91017 c 6.82529,-1.71862 16.02288,-6.77675 21.1983,-11.65778 l 9.14196,-8.62198 v -73.28061 c 0,-72.60072 -0.0557,-73.33116 -6.00494,-78.73033 -13.66697,-12.40333 -20.36034,-14.85559 -41.43297,-15.17988 l -20.6181,-0.3173 -0.70092,95.41185 -0.70093,95.41186 h 13.53063 c 7.44185,0 18.95598,-1.36611 25.58697,-3.03583 z"
     id="path5397"
     transform="scale(0.75)" />
  <path
     style="fill:#2373b9;fill-opacity:1;stroke:#fdfdfd;stroke-width:2.66886"
     d="M 130.77429,238.9899 C 66.720455,237.61473 62.168963,237.18492 53.377261,231.68097 37.734988,221.8883 19.354442,201.03948 11.474795,184.15155 4.6532446,169.53137 4.0033645,165.46846 4.0040971,137.44645 4.0048401,109.02888 4.5556392,105.70912 11.436987,92.647167 21.421651,73.694594 34.413721,59.807668 49.898256,51.536802 62.489138,44.811544 64.042032,44.656865 136.77923,42.882871 l 74.06095,-1.80628 V 68.882285 96.687976 L 198.4578,98.38517 c -6.81031,0.933456 -30.62073,1.69719 -52.91204,1.69719 -40.1183,0 -40.59533,0.0699 -46.999823,6.88718 -5.894112,6.27399 -6.470162,9.10621 -6.470162,31.81134 0,22.70512 0.57605,25.53734 6.470162,31.81134 5.021413,5.34505 9.055163,6.88717 18.014823,6.88717 h 11.54467 v -30.69192 -30.69193 h 41.36737 41.36738 v 62.71828 62.71828 l -6.00494,-0.54056 c -3.30272,-0.2973 -36.63015,-1.19804 -74.06095,-2.00164 z"
     id="path5399"
     transform="scale(0.75)" />
  <path
     style="fill:#2373b9;fill-opacity:1;stroke:#fdfdfd;stroke-width:2.66886"
     d="m 314.57108,240.3509 c -38.40373,-8.03663 -63.50229,-26.42786 -77.81952,-57.02308 -7.51487,-16.05891 -8.25606,-20.02109 -8.06728,-43.12516 0.34897,-42.70959 14.08111,-68.151856 45.95288,-85.139331 38.27613,-20.400962 97.83682,-21.637824 141.31368,-2.934579 16.14051,6.943462 35.75128,26.914136 43.89934,44.704999 4.78231,10.441941 5.77451,17.597791 5.81618,41.947131 0.0447,26.1068 -0.71844,30.99632 -6.89178,44.15802 -13.05742,27.83872 -31.87541,43.53062 -64.30757,53.62464 -21.78938,6.78162 -57.49866,8.47437 -79.89593,3.78736 z m 55.23263,-68.36535 c 6.04321,-5.67731 6.50598,-7.98593 6.50598,-32.45677 0,-24.41246 -0.48048,-26.8252 -6.55085,-32.89557 -5.39861,-5.39861 -9.18491,-6.55085 -21.52636,-6.55085 -18.32827,0 -23.87249,2.7405 -27.68819,13.68624 -3.66831,10.5229 -3.85355,42.30366 -0.30105,51.64746 5.67681,14.93113 36.3342,18.99492 49.56047,6.56949 z"
     id="path5401"
     transform="scale(0.75)" />
  <path
     style="fill:#2373b9;fill-opacity:1;stroke:#fdfdfd;stroke-width:2.66886"
     d="M 485.73307,139.77596 V 40.688671 l 64.65426,1.976518 c 39.93475,1.220828 70.0536,3.382866 78.7763,5.654842 63.5212,16.545169 84.494,71.017829 44.47868,115.524489 -6.47035,7.19659 -11.75414,14.70973 -11.74175,16.69587 0.0124,1.98614 7.19607,15.62104 15.96373,30.29979 l 15.94121,26.68863 -41.87802,0.73783 c -23.0329,0.40581 -43.19067,0.23412 -44.79502,-0.38153 -1.60435,-0.61565 -8.57428,-10.85583 -15.48872,-22.75595 -9.0585,-15.59016 -14.05341,-21.63659 -17.87381,-21.63659 -4.87438,0 -5.3021,1.83005 -5.3021,22.68534 v 22.68533 h -41.36738 -41.36738 z m 110.3979,0.14564 c 6.46051,-5.08184 7.03208,-7.13031 7.03208,-25.20286 0,-17.302429 -0.71433,-20.171769 -5.93157,-23.826062 -3.26236,-2.285046 -11.06879,-4.154629 -17.34761,-4.154629 h -11.41604 v 29.357491 29.3575 h 10.31553 c 6.39476,0 12.98831,-2.10241 17.34761,-5.53144 z"
     id="path5403"
     transform="scale(0.75)" />
  <path
     style="fill:#2373b9;fill-opacity:1;stroke:#fdfdfd;stroke-width:2.66886"
     d="M 709.91757,140.11531 V 41.367377 h 42.7018 42.70181 v 98.747933 98.74793 h -42.70181 -42.7018 z"
     id="path5405"
     transform="scale(0.75)" />
  <path
     style="fill:#2373b9;fill-opacity:1;stroke:#fdfdfd;stroke-width:2.66886"
     d="M 811.33436,120.09884 V 1.3344315 h 42.70181 42.70181 V 90.492787 179.65114 l 37.36408,1.92509 c 20.55025,1.0588 37.36408,2.54199 37.36408,3.29598 0,0.75398 -3.28579,13.21042 -7.30176,27.68096 l -7.30176,26.31007 h -72.76413 -72.76413 z"
     id="path5407"
     transform="scale(0.75)" />
  <path
     style="fill:#2373b9;fill-opacity:1;stroke:#fdfdfd;stroke-width:2.66886"
     d="M 987.47932,120.09884 V 1.3344315 h 42.70178 42.7018 V 90.492787 179.65114 l 37.3641,1.92509 c 20.5503,1.0588 37.3641,2.54199 37.3641,3.29598 0,0.75398 -3.2858,13.21042 -7.3018,27.68096 l -7.3017,26.31007 h -72.7642 -72.76408 z"
     id="path5409"
     transform="scale(0.75)" />
  <path
     style="fill:#2373b9;fill-opacity:1;stroke:#fdfdfd;stroke-width:2.66886"
     d="m 1172.7244,216.84512 c 3.341,-12.10996 15.5111,-55.77139 27.0448,-97.02538 l 20.9703,-75.007259 35.9171,-1.722552 c 19.7544,-0.947404 47.6561,-1.722552 62.0039,-1.722552 22.5307,0 26.2781,0.636673 27.4902,4.67051 3.2792,10.913424 52.3335,190.648563 52.3335,191.750273 0,0.66584 -18.8594,0.87988 -41.9097,0.47564 l -41.9098,-0.73499 -2.9151,-12.00988 -2.9152,-12.00989 -24.2762,-0.76354 -24.2762,-0.76354 -3.2244,13.44064 -3.2244,13.44064 h -43.5916 -43.5916 z m 118.8849,-61.38385 c -0.066,-1.83484 -1.7204,-6.93904 -3.676,-11.34267 l -3.5556,-8.00659 -2.9961,7.51312 c -4.6179,11.57957 -3.7474,15.17222 3.6759,15.17222 3.6697,0 6.618,-1.50124 6.5518,-3.33608 z"
     id="path5411"
     transform="scale(0.75)" />
</svg>
