<?xml version="1.0" encoding="UTF-8" standalone="no"?>
<svg
   version="1.0"
   width="173.687651pt"
   height="223.885011pt"
   viewBox="0 0 173.687651 223.885011"
   preserveAspectRatio="xMidYMid meet"
   id="svg22"
   sodipodi:docname="guarda.svg"
   inkscape:version="1.2.2 (b0a8486541, 2022-12-01)"
   xmlns:inkscape="http://www.inkscape.org/namespaces/inkscape"
   xmlns:sodipodi="http://sodipodi.sourceforge.net/DTD/sodipodi-0.dtd"
   xmlns="http://www.w3.org/2000/svg"
   xmlns:svg="http://www.w3.org/2000/svg">
  <defs
     id="defs26" />
  <sodipodi:namedview
     id="namedview24"
     pagecolor="#ffffff"
     bordercolor="#000000"
     borderopacity="0.25"
     inkscape:showpageshadow="2"
     inkscape:pageopacity="0.0"
     inkscape:pagecheckerboard="0"
     inkscape:deskcolor="#d1d1d1"
     inkscape:document-units="pt"
     showgrid="false"
     inkscape:zoom="2.9077427"
     inkscape:cx="116.06942"
     inkscape:cy="149.25667"
     inkscape:window-width="1880"
     inkscape:window-height="1056"
     inkscape:window-x="40"
     inkscape:window-y="0"
     inkscape:window-maximized="1"
     inkscape:current-layer="svg22" />
  <metadata
     id="metadata2"> Created by potrace 1.16, written by Peter Selinger 2001-2019 </metadata>
  <g
     transform="translate(-91.167308,276.900922) scale(0.100000,-0.100000)"
     fill="#000000"
     stroke="none"
     id="g20"
     style="fill:#798ce5;fill-opacity:1">
    <path
       d="M1403 2683 c-399 -99 -360 -67 -349 -292 25 -492 153 -841 395 -1074 89 -86 159 -133 269 -180 l62 -26 63 26 c109 47 179 94 268 180 241 232 370 585 395 1074 11 225 51 193 -359 293 -193 47 -363 86 -377 85 -14 -1 -179 -39 -367 -86z m687 -151 l275 -68 3 -74 c4 -96 -13 -279 -38 -397 -70 -336 -230 -576 -459 -689 -38 -19 -79 -34 -90 -34 -37 0 -151 61 -224 120 -200 161 -321 437 -357 810 -6 63 -10 149 -8 190 l3 75 290 71 c160 40 299 70 310 68 11 -3 144 -35 295 -72z"
       id="path4"
       style="fill:#798ce5;fill-opacity:1" />
    <path
       d="M1563 2353 c-214 -52 -201 -37 -184 -214 30 -316 136 -516 322 -610 58 -29 66 -30 99 -19 217 76 369 370 370 716 l0 81 -192 47 c-106 25 -202 46 -213 45 -11 0 -102 -21 -202 -46z"
       id="path6"
       style="fill:#798ce5;fill-opacity:1" />
    <path
       d="M983 866 c-17 -8 -38 -25 -46 -38 -21 -32 -31 -107 -22 -174 12 -100 67 -135 189 -120 l56 7 0 90 0 89 -50 0 c-50 0 -50 0 -50 -35 0 -24 5 -35 15 -35 9 0 15 -9 15 -25 0 -22 -4 -25 -38 -25 -54 0 -62 13 -62 98 0 106 5 112 95 112 73 0 75 1 75 24 0 32 -7 36 -82 42 -43 3 -73 0 -95 -10z"
       id="path8"
       style="fill:#798ce5;fill-opacity:1" />
    <path
       d="M1210 750 c0 -138 12 -180 59 -204 60 -32 151 -13 176 35 11 20 15 63 15 159 l0 130 -35 0 -35 0 0 -123 c0 -136 -4 -147 -57 -147 -45 0 -53 24 -53 161 l0 109 -35 0 -35 0 0 -120z"
       id="path10"
       style="fill:#798ce5;fill-opacity:1" />
    <path
       d="M1565 858 c-6 -22 -65 -298 -65 -308 0 -6 15 -10 34 -10 30 0 35 4 41 30 6 29 9 30 60 30 50 0 53 -1 59 -30 5 -27 10 -30 41 -30 19 0 35 2 35 5 0 3 -16 76 -35 162 -19 86 -35 158 -35 160 0 2 -29 3 -65 3 -44 0 -67 -4 -70 -12z m92 -114 c18 -85 18 -84 -25 -84 l-38 0 15 75 c9 41 20 74 25 72 6 -2 16 -30 23 -63z"
       id="path12"
       style="fill:#798ce5;fill-opacity:1" />
    <path
       d="M1810 705 l0 -165 35 0 c35 0 35 0 35 55 0 54 0 55 29 55 27 0 31 -5 47 -55 17 -54 18 -55 56 -55 21 0 38 2 38 4 0 2 -10 29 -21 60 -21 55 -21 55 0 82 15 19 21 41 21 76 0 41 -5 54 -29 79 -28 28 -33 29 -120 29 l-91 0 0 -165z m158 93 c7 -7 12 -24 12 -38 0 -36 -17 -50 -62 -50 -38 0 -38 0 -38 50 0 50 0 50 38 50 21 0 43 -5 50 -12z"
       id="path14"
       style="fill:#798ce5;fill-opacity:1" />
    <path
       d="M2100 705 l0 -165 85 0 c46 0 95 5 109 11 38 18 56 66 56 152 0 141 -25 167 -165 167 l-85 0 0 -165z m160 85 c16 -16 20 -33 20 -85 0 -78 -19 -105 -75 -105 l-35 0 0 105 0 105 35 0 c22 0 43 -8 55 -20z"
       id="path16"
       style="fill:#798ce5;fill-opacity:1" />
    <path
       d="M2409 705 l-36 -165 37 0 c34 0 38 3 44 31 6 29 7 30 58 27 46 -3 53 -6 58 -28 5 -21 13 -26 44 -28 29 -3 37 0 34 10 -3 7 -20 82 -38 166 l-33 152 -66 0 -66 0 -36 -165z m116 83 c14 -64 25 -114 25 -120 0 -5 -18 -8 -41 -8 -34 0 -40 3 -35 18 2 9 10 43 17 75 13 60 25 72 34 35z"
       id="path18"
       style="fill:#798ce5;fill-opacity:1" />
  </g>
</svg>
