<?xml version="1.0" encoding="UTF-8" standalone="no"?>
<svg
   version="1.0"
   width="910.15869pt"
   height="941.72961pt"
   viewBox="0 0 910.15869 941.72961"
   preserveAspectRatio="xMidYMid"
   id="svg3348"
   xmlns="http://www.w3.org/2000/svg"
   xmlns:svg="http://www.w3.org/2000/svg">
  <defs
     id="defs3352" />
  <metadata
     id="metadata3090"> Created by potrace 1.16, written by Peter Selinger 2001-2019 </metadata>
  <g
     transform="matrix(0.1,0,0,-0.1,-42.841331,966.99479)"
     fill="#000000"
     stroke="none"
     id="g3346"
     style="fill:#00db00;fill-opacity:1">
    <path
       d="m 669.6852,9611.8959 c -8,-8 -18,-35 -21,-59 l -7,-44 -23,-6 c -13,-3 -27,-18 -33,-34 l -9,-28 -57,-17 -56,-18 -7,-27 -6,-26 154,-148 c 102,-98 161,-147 176,-148 12,0 48,11 79,25 32,14 61,24 66,23 5,-2 -10,-28 -33,-58 -78,-104 -148,-269 -164,-386 -3,-27 -9,-61 -11,-76 l -6,-28 h -88 c -108,0 -120,-4 -120,-40 0,-36 12,-40 120,-40 h 88 l 6,-16 c 3,-9 6,-30 6,-48 0,-18 9,-68 20,-112 90,-354 403,-627 760,-662 l 65,-7 5,-110 5,-110 h 35 35 l 5,110 5,110 60,7 c 132,17 298,83 401,161 87,66 195,183 242,263 67,113 122,284 122,380 v 34 h 104 c 57,0 111,3 120,6 10,4 16,18 16,35 0,35 -10,38 -139,42 l -95,2 -12,85 c -56,388 -374,700 -762,748 l -57,7 -5,110 -5,110 h -35 -35 l -5,-110 -5,-110 -79,-8 c -142,-14 -308,-84 -437,-183 -33,-25 -62,-44 -65,-42 -2,3 5,31 16,64 12,32 19,69 18,80 -3,25 -300,314 -322,314 -8,0 -21,-7 -30,-15 z m 227,-278 38,-34 -7,-27 c -3,-15 -10,-26 -14,-24 -4,2 -51,44 -104,95 -70,66 -96,98 -96,115 0,14 3,28 7,32 4,3 36,-22 72,-58 37,-36 83,-80 104,-99 z m -144,-53 c 56,-53 101,-100 101,-104 0,-5 -14,-13 -32,-19 l -31,-11 -56,53 c -31,29 -80,76 -109,103 l -54,49 29,12 c 15,7 33,12 40,13 6,0 57,-43 112,-96 z m 819,-66 -3,-63 -61,-7 c -115,-12 -201,-46 -295,-114 l -46,-33 -37,38 -37,38 42,36 c 98,84 269,151 427,166 10,1 12,-15 10,-61 z m 211,36 c 268,-67 484,-282 551,-548 11,-44 20,-94 20,-113 v -33 h -70 c -48,0 -72,4 -74,13 -2,6 -9,41 -15,77 -15,80 -69,197 -124,269 -80,104 -249,205 -374,226 l -43,7 v 59 59 h 32 c 17,0 61,-7 97,-16 z m -209,-329 v -93 l -32,-7 c -18,-4 -55,-18 -82,-32 l -50,-24 -70,70 -70,70 15,17 c 34,42 246,114 282,97 4,-2 7,-46 7,-98 z m 162,74 c 109,-36 211,-118 271,-216 32,-51 67,-152 67,-193 v -30 h -80 c -56,0 -82,4 -84,13 -34,119 -96,193 -191,232 l -60,24 -3,95 c -2,63 1,96 8,96 6,0 38,-9 72,-21 z m -663,-23 33,-34 -42,-60 c -52,-77 -86,-162 -101,-251 l -12,-71 h -48 c -26,0 -50,4 -53,8 -9,15 22,158 49,227 37,91 114,215 135,215 3,0 21,-15 39,-34 z m 207,-197 72,-71 -23,-47 c -13,-25 -27,-58 -30,-73 l -7,-28 h -105 -105 l 7,47 c 10,66 38,138 77,195 18,26 35,48 38,48 2,0 37,-32 76,-71 z m 409,-102 c 125,-71 125,-243 0,-314 -75,-42 -164,-26 -222,40 -36,41 -48,88 -40,149 9,68 20,68 91,0 35,-34 67,-62 71,-62 3,0 15,5 26,10 34,19 22,51 -43,117 l -62,62 25,10 c 43,17 111,12 154,-12 z m -730,-239 c 29,-190 158,-375 322,-461 75,-39 202,-77 260,-77 h 34 l -3,-67 -3,-68 -40,3 c -107,8 -266,66 -357,131 -169,119 -286,306 -317,506 -5,33 -7,63 -4,68 2,4 26,7 53,7 h 48 z m 344,0 c 31,-103 111,-183 215,-215 l 56,-17 v -89 -90 l -55,7 c -197,23 -360,166 -419,365 -25,85 -29,81 87,81 h 104 z m 771,23 c 0,-80 -85,-238 -165,-309 -54,-47 -155,-99 -213,-108 l -43,-7 3,88 3,87 55,21 c 93,34 162,117 196,235 2,8 28,12 84,12 h 80 z m 277,-41 c -9,-83 -50,-201 -99,-285 -49,-84 -180,-216 -261,-264 -71,-42 -212,-91 -283,-98 l -54,-6 v 67 c 0,45 4,68 13,70 6,2 37,9 67,16 164,37 330,170 406,325 34,70 64,169 64,212 v 23 h 76 77 z"
       id="path3098"
       style="fill:#00db00;fill-opacity:1" />
    <path
       d="m 1127.6852,7102.8959 -34,-34 v -41 c 0,-103 87,-158 185,-117 l 35,15 v 51 51 l -22,-3 c -18,-2 -24,-11 -26,-35 -3,-25 -9,-34 -28,-39 -55,-14 -102,54 -73,105 17,30 65,39 99,21 l 22,-12 19,18 19,17 -27,19 c -18,12 -47,18 -81,18 h -54 z"
       id="path3124"
       style="fill:#00db00;fill-opacity:1" />
    <path
       d="m 1411.6852,7120.8959 c -35,-18 -58,-62 -58,-109 0,-50 51,-104 105,-112 77,-10 155,48 155,115 0,38 -30,92 -61,107 -36,19 -106,18 -141,-1 z m 114,-51 c 24,-22 24,-77 -2,-103 -27,-27 -56,-25 -87,6 l -25,25 6,32 c 11,54 68,76 108,40 z"
       id="path3126"
       style="fill:#00db00;fill-opacity:1" />
    <path
       d="m 1708.6852,7103.8959 c -7,-18 -29,-69 -49,-113 l -35,-79 27,-3 c 19,-3 31,3 41,17 l 13,21 h 53 53 l 5,-20 c 4,-15 14,-20 37,-20 h 32 l -6,18 c -4,9 -26,61 -49,114 l -42,98 h -33 -33 z m 64,-68 c 6,-18 11,-34 11,-35 0,-2 -14,-4 -31,-4 h -31 l 7,18 c 4,9 10,25 12,35 8,26 20,21 32,-14 z"
       id="path3128"
       style="fill:#00db00;fill-opacity:1" />
    <path
       d="m 1913.6852,7022.8959 v -116 h 91 90 l -3,23 -3,22 h -55 -55 l -2,90 -1,90 -31,3 -31,3 z"
       id="path3130"
       style="fill:#00db00;fill-opacity:1" />
    <path
       d="m 480,6203 c -1,-5 -2,-61 -3,-126 l -2,-117 h 128 127 v 125 125 H 605 c -69,0 -125,-3 -125,-7 z"
       id="path3160"
       style="fill:#00db00;fill-opacity:1" />
    <path
       d="m 990,6085 v -125 h 125 c 76,0 125,4 125,10 1,6 1,57 1,115 0,58 0,110 -1,115 0,6 -49,10 -125,10 H 990 Z"
       id="path3162"
       style="fill:#00db00;fill-opacity:1" />
    <path
       d="m 1510,6085 v -125 h 125 125 v 125 125 h -125 -125 z"
       id="path3164"
       style="fill:#00db00;fill-opacity:1" />
    <path
       d="m 2030,6085 v -125 h 125 125 v 125 125 h -125 -125 z"
       id="path3166"
       style="fill:#00db00;fill-opacity:1" />
    <path
       d="m 2547,6195 c -4,-8 -5,-63 -4,-122 l 2,-108 128,-3 127,-3 v 126 125 h -124 -124 z"
       id="path3168"
       style="fill:#00db00;fill-opacity:1" />
    <path
       d="m 3060,6085 v -125 h 124 125 l 3,115 c 2,64 2,120 0,125 -2,6 -56,10 -128,10 h -124 z"
       id="path3170"
       style="fill:#00db00;fill-opacity:1" />
    <path
       d="m 3580,6085 v -125 h 125 125 v 125 125 h -125 -125 z"
       id="path3172"
       style="fill:#00db00;fill-opacity:1" />
    <path
       d="m 4100,6085 v -125 h 125 125 v 125 125 h -125 -125 z"
       id="path3174"
       style="fill:#00db00;fill-opacity:1" />
    <path
       d="m 4617,6203 c -3,-5 -4,-60 -3,-123 l 1,-115 128,-3 127,-3 v 126 125 h -124 c -69,0 -127,-3 -129,-7 z"
       id="path3176"
       style="fill:#00db00;fill-opacity:1" />
    <path
       d="m 5130,6085 v -126 l 126,3 127,3 v 120 120 l -126,3 -127,3 z"
       id="path3178"
       style="fill:#00db00;fill-opacity:1" />
    <path
       d="m 5650,6085 v -125 h 125 125 v 125 125 h -125 -125 z"
       id="path3180"
       style="fill:#00db00;fill-opacity:1" />
    <path
       d="m 6170,6085 v -125 h 125 125 v 125 125 h -125 -125 z"
       id="path3182"
       style="fill:#00db00;fill-opacity:1" />
    <path
       d="m 6689,6203 c 0,-5 0,-60 0,-123 v -115 l 125,-3 126,-3 v 126 125 h -125 c -69,0 -125,-3 -126,-7 z"
       id="path3184"
       style="fill:#00db00;fill-opacity:1" />
    <path
       d="m 7200,6085 v -126 l 126,3 126,3 -1,108 c 0,59 0,114 -1,122 v 15 h -125 -125 z"
       id="path3186"
       style="fill:#00db00;fill-opacity:1" />
    <path
       d="m 7720,6085 v -125 h 125 125 v 125 125 h -125 -125 z"
       id="path3188"
       style="fill:#00db00;fill-opacity:1" />
    <path
       d="m 8240,6085 v -125 h 125 125 v 125 125 h -125 -125 z"
       id="path3190"
       style="fill:#00db00;fill-opacity:1" />
    <path
       d="m 8760,6203 c 0,-5 -1,-61 -3,-126 l -2,-117 h 128 127 v 125 125 h -125 c -69,0 -125,-3 -125,-7 z"
       id="path3192"
       style="fill:#00db00;fill-opacity:1" />
    <path
       d="m 9270,6085 v -125 h 128 127 l -2,117 c -1,65 -2,121 -3,126 0,4 -56,7 -125,7 h -125 z"
       id="path3194"
       style="fill:#00db00;fill-opacity:1" />
    <path
       d="m 2928,5465 c -231,-59 -368,-231 -368,-465 0,-192 87,-338 249,-420 171,-86 409,-78 560,19 46,30 119,98 110,104 -2,1 -46,40 -97,86 l -92,83 -41,-37 c -55,-49 -96,-65 -169,-65 -133,0 -213,86 -213,230 0,144 80,230 213,230 73,0 114,-16 169,-65 l 41,-37 96,87 95,88 -33,34 c -45,47 -113,89 -184,114 -78,27 -254,35 -336,14 z"
       id="path3196"
       style="fill:#00db00;fill-opacity:1" />
    <path
       d="m 7870,5473 c -192,-32 -348,-169 -395,-348 -43,-166 3,-340 119,-456 96,-96 197,-138 351,-146 286,-15 507,148 547,401 24,158 -20,295 -132,406 -72,72 -143,111 -242,135 -58,14 -189,18 -248,8 z m 187,-254 c 48,-18 102,-79 118,-133 31,-104 10,-201 -59,-264 -49,-45 -89,-57 -166,-50 -69,7 -121,44 -154,109 l -26,53 v 66 66 l 26,53 c 19,38 40,62 72,82 l 46,29 h 57 c 32,0 70,-5 86,-11 z"
       id="path3198"
       style="fill:#00db00;fill-opacity:1" />
    <path
       d="m 470,5000 v -460 h 155 155 v 170 171 l 148,-3 147,-3 2,-165 2,-165 150,-3 151,-3 v 461 461 l -150,-3 -151,-3 -2,-160 -2,-160 -147,-3 -148,-3 v 166 165 H 625 470 Z"
       id="path3200"
       style="fill:#00db00;fill-opacity:1" />
    <path
       d="m 1831,5438 c -5,-13 -89,-205 -186,-428 -98,-223 -184,-420 -192,-438 l -13,-33 156,3 157,3 29,78 30,77 h 178 178 l 32,-80 32,-80 h 158 157 l -201,460 -201,460 h -153 -152 z m 207,-396 c 23,-60 42,-112 42,-115 0,-4 -41,-7 -91,-7 -69,0 -90,3 -87,13 40,109 84,217 89,217 3,0 25,-49 47,-108 z"
       id="path3202"
       style="fill:#00db00;fill-opacity:1" />
    <path
       d="m 3580,5000 v -460 h 150 150 v 113 112 l 31,38 c 17,20 34,37 39,37 5,0 59,-67 122,-150 l 113,-150 h 286 286 l 29,78 29,77 181,3 181,2 29,-77 29,-78 158,-3 c 86,-1 157,-1 157,1 0,2 -89,208 -198,458 l -198,454 h -154 -154 l -181,-412 c -99,-227 -183,-413 -187,-413 -9,0 -310,402 -315,420 -2,9 72,98 177,213 l 181,197 h -168 l -168,-1 -150,-166 -150,-166 -3,166 -2,167 h -150 -150 z m 1460,53 c 23,-60 44,-114 47,-120 4,-10 -17,-13 -86,-13 -52,0 -91,4 -91,10 0,10 82,230 86,230 1,0 21,-48 44,-107 z"
       id="path3204"
       style="fill:#00db00;fill-opacity:1" />
    <path
       d="m 5494,5445 c -3,-7 -4,-60 -2,-117 l 3,-103 138,-3 137,-3 v -339 -340 h 150 150 v 340 340 h 135 135 v 120 120 h -420 -421 z"
       id="path3206"
       style="fill:#00db00;fill-opacity:1" />
    <path
       d="m 6430,5000 v -460 h 155 155 v 170 170 h 145 145 v -170 -170 h 155 155 v 460 460 h -155 -155 v -165 -165 h -145 -145 v 165 165 h -155 -155 z"
       id="path3208"
       style="fill:#00db00;fill-opacity:1" />
    <path
       d="m 8620,5000 v -460 h 150 150 l 2,209 3,209 174,-209 174,-209 h 128 129 v 460 460 h -150 -150 l -2,-211 -3,-211 -175,210 -175,211 h -127 l -128,1 z"
       id="path3210"
       style="fill:#00db00;fill-opacity:1" />
    <path
       d="m 477,3923 c 1,-65 2,-121 3,-125 0,-5 56,-8 125,-8 h 125 v 125 125 H 603 475 Z"
       id="path3212"
       style="fill:#00db00;fill-opacity:1" />
    <path
       d="m 990,3915 v -125 h 125 c 93,0 125,3 125,13 0,6 1,63 3,125 l 2,112 H 1118 990 Z"
       id="path3214"
       style="fill:#00db00;fill-opacity:1" />
    <path
       d="m 1510,3915 v -125 h 125 125 v 125 125 h -125 -125 z"
       id="path3216"
       style="fill:#00db00;fill-opacity:1" />
    <path
       d="m 2030,3915 v -125 h 125 125 v 125 125 h -125 -125 z"
       id="path3218"
       style="fill:#00db00;fill-opacity:1" />
    <path
       d="m 2547,4033 c -7,-12 -7,-212 0,-229 l 5,-14 h 124 124 v 125 125 h -124 c -69,0 -127,-3 -129,-7 z"
       id="path3220"
       style="fill:#00db00;fill-opacity:1" />
    <path
       d="m 3060,3915 v -125 h 125 c 76,0 125,4 126,10 1,6 2,17 2,25 0,8 -1,60 -2,115 l -1,100 h -125 -125 z"
       id="path3222"
       style="fill:#00db00;fill-opacity:1" />
    <path
       d="m 3580,3915 v -125 h 125 125 v 125 125 h -125 -125 z"
       id="path3224"
       style="fill:#00db00;fill-opacity:1" />
    <path
       d="m 4100,3915 v -125 h 125 125 v 125 125 h -125 -125 z"
       id="path3226"
       style="fill:#00db00;fill-opacity:1" />
    <path
       d="m 4616,4032 c -2,-4 -4,-59 -3,-122 l 2,-115 128,-3 127,-3 v 126 125 h -124 c -69,0 -127,-4 -130,-8 z"
       id="path3228"
       style="fill:#00db00;fill-opacity:1" />
    <path
       d="m 5130,3915 v -126 l 126,3 127,3 1,123 1,122 h -127 -128 z"
       id="path3230"
       style="fill:#00db00;fill-opacity:1" />
    <path
       d="m 5650,3915 v -125 h 125 125 v 125 125 h -125 -125 z"
       id="path3232"
       style="fill:#00db00;fill-opacity:1" />
    <path
       d="m 6170,3915 v -125 h 125 125 v 125 125 h -125 -125 z"
       id="path3234"
       style="fill:#00db00;fill-opacity:1" />
    <path
       d="m 6690,4038 c -1,-7 -1,-225 -1,-235 1,-10 33,-13 126,-13 h 125 v 125 125 h -125 c -69,0 -125,-1 -125,-2 z"
       id="path3236"
       style="fill:#00db00;fill-opacity:1" />
    <path
       d="m 7200,3915 v -125 h 124 125 l 3,121 c 2,66 1,123 -1,125 -2,2 -60,4 -128,4 h -123 z"
       id="path3238"
       style="fill:#00db00;fill-opacity:1" />
    <path
       d="m 7720,3915 v -125 h 125 125 v 125 125 h -125 -125 z"
       id="path3240"
       style="fill:#00db00;fill-opacity:1" />
    <path
       d="m 8240,3915 v -125 h 125 125 v 125 125 h -125 -125 z"
       id="path3242"
       style="fill:#00db00;fill-opacity:1" />
    <path
       d="m 8758,4030 c -1,-5 -2,-61 0,-125 l 3,-115 h 125 124 v 125 125 h -124 c -72,0 -126,-4 -128,-10 z"
       id="path3244"
       style="fill:#00db00;fill-opacity:1" />
    <path
       d="m 9270,3915 v -125 h 125 c 69,0 125,3 125,8 1,4 2,60 3,125 l 2,117 h -127 -128 z"
       id="path3246"
       style="fill:#00db00;fill-opacity:1" />
    <path
       d="m 5513,3049.5 c -6,-4 -43,-63 -83,-131 -48,-84 -70,-133 -68,-150 l 3,-26 30,-3 31,-3 69,123 c 89,157 89,157 69,179 -18,20 -32,23 -51,11 z"
       id="path3248"
       style="fill:#00db00;fill-opacity:1" />
    <path
       d="m 4483,3026.5 c -14,-5 -23,-17 -23,-30 0,-33 140,-278 162,-285 24,-7 48,12 48,39 0,25 -136,273 -153,280 -7,2 -22,1 -34,-4 z"
       id="path3250"
       style="fill:#00db00;fill-opacity:1" />
    <path
       d="M 6915.5716,1872.0767 V 932.07671 h 1185 1185 v 939.99999 940 h -1185 -1185 z m 1685,825 c 14,-13 25,-36 25,-50 0,-33 -42,-75 -75,-75 -33,0 -75,42 -75,75 0,33 42,75 75,75 14,0 37,-11 50,-25 z m 262,3 c 33,-30 31,-80 -3,-107 -31,-24 -43,-26 -78,-10 -31,14 -47,55 -34,88 19,52 75,67 115,29 z m 268,-3 c 14,-13 25,-36 25,-50 0,-14 -11,-37 -25,-50 -13,-14 -36,-25 -50,-25 -14,0 -37,11 -50,25 -14,13 -25,36 -25,50 0,14 11,37 25,50 13,14 36,25 50,25 14,0 37,-11 50,-25 z m -162,-185 h 177 v -745 -745 h -1040 -1040 v 745 745 l 708,2 c 389,2 777,2 862,1 85,-2 235,-3 333,-3 z"
       id="path3254"
       style="fill:#00db00;fill-opacity:1" />
    <path
       d="m 8087.5716,2145.0767 c -42,-115 -272,-775 -272,-779 0,-2 38,-4 84,-4 h 84 l 7,18 c 16,39 285,810 285,816 0,3 -38,6 -84,6 h -83 z"
       id="path3256"
       style="fill:#00db00;fill-opacity:1" />
    <path
       d="m 7560.5716,1922.0767 -210,-77 -3,-80 -3,-80 148,-53 c 81,-29 183,-65 226,-81 l 77,-28 v 73 74 l -127,43 c -71,23 -132,44 -137,47 -5,3 51,26 125,52 l 134,47 3,72 c 2,53 0,71 -10,70 -7,-1 -107,-36 -223,-79 z"
       id="path3258"
       style="fill:#00db00;fill-opacity:1" />
    <path
       d="m 8295.5716,1930.0767 v -74 l 102,-33 c 56,-18 115,-39 132,-46 l 31,-13 -25,-10 c -14,-5 -73,-26 -132,-46 l -108,-38 v -73 -73 l 223,82 222,82 3,70 c 2,49 -1,74 -10,81 -7,6 -103,43 -213,83 -110,40 -206,75 -212,78 -10,3 -13,-15 -13,-70 z"
       id="path3260"
       style="fill:#00db00;fill-opacity:1" />
    <path
       d="m 4871,2666.5 c -81,-16 -188,-74 -250,-137 -101,-101 -151,-224 -151,-375 0,-119 22,-200 93,-337 33,-63 78,-149 99,-191 29,-56 42,-96 50,-155 7,-50 17,-84 27,-93 l 16,-13 250,6 250,7 13,16 c 6,9 12,41 12,70 0,68 25,129 117,285 134,229 167,341 145,500 -30,211 -169,364 -373,413 -69,16 -226,18 -298,4 z m 255,-145 c 13,-3 24,-16 27,-32 3,-15 16,-33 27,-40 l 22,-14 30,13 29,12 26,-26 26,-26 -13,-30 c -17,-43 -7,-74 30,-88 l 30,-11 v -36 -36 l -37,-18 -38,-17 v -55 -54 l -27,-15 -26,-15 -25,13 c -33,17 -64,6 -82,-30 l -16,-29 h -34 -35 l -14,35 c -18,42 -39,52 -78,37 l -30,-11 -25,25 c -19,19 -23,31 -18,47 4,12 8,36 9,52 l 1,30 -33,15 -33,14 3,35 3,36 30,14 c 41,19 46,30 40,76 l -6,41 26,24 26,24 29,-17 30,-18 20,11 c 11,6 27,24 35,40 15,30 31,35 71,24 z m -152,-514 c 20,-7 26,-17 26,-38 0,-33 24,-59 59,-64 19,-2 27,-12 34,-37 l 8,-34 -31,-25 -32,-25 7,-43 6,-42 -22,-21 c -25,-23 -44,-27 -54,-11 -13,21 -64,11 -81,-16 l -17,-25 -26,6 c -38,10 -51,24 -51,55 0,31 -12,43 -55,57 -21,7 -32,19 -39,41 l -9,31 32,30 c 34,32 37,42 20,74 l -12,21 32,28 32,28 19,-10 c 30,-16 69,-12 82,10 14,22 34,25 72,10 z"
       id="path3262"
       style="fill:#00db00;fill-opacity:1" />
    <path
       d="m 5019,2328.5 c -65,-65 -20,-181 71,-181 37,0 81,30 96,67 l 15,35 -11,34 c -25,76 -116,100 -171,45 z"
       id="path3264"
       style="fill:#00db00;fill-opacity:1" />
    <path
       d="m 4855,1872.5 c -14,-13 -25,-33 -25,-45 0,-26 43,-70 68,-70 34,0 65,34 65,70 0,22 -7,39 -22,52 -31,25 -57,23 -86,-7 z"
       id="path3266"
       style="fill:#00db00;fill-opacity:1" />
    <path
       d="m 3912,2335.5 c -14,-14 -15,-37 -4,-55 5,-7 77,-27 161,-44 l 152,-30 15,11 c 22,19 17,59 -8,70 -23,9 -270,60 -293,60 -6,0 -16,-5 -23,-12 z"
       id="path3268"
       style="fill:#00db00;fill-opacity:1" />
    <path
       d="m 5875,2318.5 c -72,-15 -136,-31 -143,-35 -19,-11 -14,-54 7,-66 24,-12 310,43 323,63 20,31 0,68 -36,66 -12,-1 -80,-13 -151,-28 z"
       id="path3270"
       style="fill:#00db00;fill-opacity:1" />
    <path
       d="m 4235,1610.5 c -60,-47 -113,-91 -117,-97 -15,-22 -8,-47 17,-58 l 24,-11 116,88 c 136,104 139,107 131,140 -12,47 -51,33 -171,-62 z"
       id="path3272"
       style="fill:#00db00;fill-opacity:1" />
    <path
       d="m 5564,1670.5 -7,-27 34,-28 c 19,-16 76,-61 127,-100 l 92,-71 25,11 c 28,13 33,43 10,66 -9,8 -62,51 -119,96 -115,88 -151,100 -162,53 z"
       id="path3274"
       style="fill:#00db00;fill-opacity:1" />
    <path
       d="m 4740,1253.5 c -6,-8 -10,-25 -8,-38 l 3,-23 257,-3 257,-2 11,20 c 8,14 8,26 0,40 l -11,20 h -248 -249 z"
       id="path3276"
       style="fill:#00db00;fill-opacity:1" />
    <path
       d="m 4743,1080.5 c -19,-7 -16,-60 3,-67 9,-3 126,-6 260,-6 h 244 l 12,25 c 8,19 8,28 -2,40 l -12,15 -247,-1 c -135,0 -252,-3 -258,-6 z"
       id="path3278"
       style="fill:#00db00;fill-opacity:1" />
    <path
       d="m 4822,895.50001 c -6,-6 -12,-20 -12,-29 0,-35 23,-40 180,-37 l 153,3 11,18 c 8,12 8,22 0,35 l -11,17 -154,3 c -112,2 -158,-1 -167,-10 z"
       id="path3280"
       style="fill:#00db00;fill-opacity:1" />
    <path
       d="m 6695.5716,397.07671 v -115 h 30 30 v 30 30 h 44 c 59,0 96,29 96,76 0,70 -36,94 -141,94 h -59 z m 124,59 c 26,-10 20,-53 -10,-64 -46,-18 -54,-13 -54,30 v 40 h 24 c 13,0 31,-3 40,-6 z"
       id="path3282"
       style="fill:#00db00;fill-opacity:1" />
    <path
       d="m 6935.5716,398.07671 v -116 h 29 30 l 3,28 c 4,40 38,41 61,2 l 18,-30 h 35 35 l -21,30 -21,30 20,26 c 29,37 27,85 -5,115 l -26,24 -79,4 -79,3 z m 140,49 c 18,-22 8,-47 -23,-58 -41,-13 -57,-3 -57,38 v 35 h 34 c 18,0 39,-7 46,-15 z"
       id="path3284"
       style="fill:#00db00;fill-opacity:1" />
    <path
       d="m 7238.5716,496.07671 c -33,-17 -63,-66 -63,-106 0,-34 35,-85 71,-104 22,-11 47,-15 78,-11 l 45,5 33,36 c 97,105 -31,245 -164,180 z m 111,-50 c 27,-27 31,-63 9,-92 -39,-53 -116,-28 -116,36 0,60 68,96 107,56 z"
       id="path3286"
       style="fill:#00db00;fill-opacity:1" />
    <path
       d="m 7523.5716,496.07671 c -15,-8 -35,-28 -43,-44 -51,-98 34,-197 150,-176 47,9 65,30 65,77 v 39 h -29 -30 l -3,-32 -3,-33 -27,-3 c -19,-2 -36,5 -54,23 l -26,26 6,32 c 3,18 14,38 23,45 21,15 75,16 91,0 l 12,-12 21,21 22,21 -31,16 c -39,20 -108,20 -144,0 z"
       id="path3288"
       style="fill:#00db00;fill-opacity:1" />
    <path
       d="m 7735.5716,397.07671 v -115 h 35 35 v 30 c 0,23 5,30 19,30 11,0 28,-13 38,-30 l 17,-30 h 33 33 l -20,32 -19,31 20,25 c 10,14 19,39 19,56 -1,61 -42,86 -146,86 h -64 z m 138,53 c 30,-30 -9,-75 -57,-66 -14,3 -16,12 -12,63 1,18 52,20 69,3 z"
       id="path3290"
       style="fill:#00db00;fill-opacity:1" />
    <path
       d="m 8056.5716,490.07671 c -5,-13 -27,-65 -49,-115 l -41,-93 h 29 c 19,0 33,7 40,20 l 11,20 h 53 54 l 5,-20 c 4,-15 14,-20 37,-20 17,0 30,4 28,9 -1,5 -23,57 -48,115 l -45,106 h -33 c -25,0 -35,-5 -41,-22 z m 69,-114 c 0,-6 -12,-9 -30,-6 -35,5 -35,4 -13,45 l 16,32 13,-30 c 7,-16 13,-35 14,-41 z"
       id="path3292"
       style="fill:#00db00;fill-opacity:1" />
    <path
       d="m 8255.5716,397.07671 v -115 h 30 29 l 3,58 3,57 28,-47 c 16,-27 35,-48 43,-48 8,0 27,20 42,45 15,25 30,45 34,45 5,0 8,-25 8,-55 v -55 h 25 25 v 115 115 h -25 -24 l -36,-65 c -20,-36 -40,-67 -44,-69 -3,-2 -24,27 -46,65 l -40,69 h -27 -28 z"
       id="path3294"
       style="fill:#00db00;fill-opacity:1" />
    <path
       d="m 8585.5716,397.07671 v -115 h 25 25 v 55 c 0,30 3,55 8,55 4,0 18,-20 32,-45 14,-26 32,-45 41,-45 10,0 30,22 48,53 l 31,52 v -61 -62 l 30,-4 30,-5 v 119 118 h -27 -28 l -29,-53 c -16,-28 -35,-60 -42,-70 l -12,-19 -42,71 -42,71 h -24 -24 z"
       id="path3296"
       style="fill:#00db00;fill-opacity:1" />
    <path
       d="m 8905.5716,397.07671 v -115 h 30 30 v 115 115 h -30 -30 z"
       id="path3298"
       style="fill:#00db00;fill-opacity:1" />
    <path
       d="m 9025.5716,397.07671 v -115 h 30 30 v 61 61 l 50,-60 c 36,-43 58,-61 80,-64 l 30,-5 v 119 118 h -30 -30 v -60 c 0,-33 -4,-60 -9,-60 -4,0 -29,27 -55,60 -35,44 -54,60 -72,60 h -24 z"
       id="path3300"
       style="fill:#00db00;fill-opacity:1" />
    <path
       d="m 9343.5716,496.07671 c -34,-18 -58,-62 -58,-104 0,-90 92,-143 189,-109 l 31,11 v 49 49 h -24 -25 l -3,-32 -3,-33 -26,-3 c -37,-4 -79,32 -79,69 0,55 59,86 112,58 l 20,-11 21,20 20,20 -31,16 c -39,20 -108,20 -144,0 z"
       id="path3302"
       style="fill:#00db00;fill-opacity:1" />
    <path
       d="m 3620,382.50001 v -115 h 75 c 118,0 155,27 155,113 0,82 -52,117 -172,117 h -58 z m 148,49 c 22,-15 30,-66 14,-90 -11,-18 -48,-34 -76,-34 h -26 v 70 70 h 33 c 18,0 43,-7 55,-16 z"
       id="path3304"
       style="fill:#00db00;fill-opacity:1" />
    <path
       d="m 3900,382.50001 v -115 h 90 90 v 20 20 h -60 -60 v 25 25 h 50 50 v 25 25 h -50 -50 v 20 20 h 60 60 v 25 25 h -90 -90 z"
       id="path3306"
       style="fill:#00db00;fill-opacity:1" />
    <path
       d="m 4141,385.50001 48,-113 34,-3 34,-3 47,108 c 25,59 46,111 46,116 0,4 -13,7 -28,7 h -29 l -27,-70 c -15,-38 -31,-72 -36,-75 -4,-2 -22,29 -40,70 l -33,75 h -32 -33 z"
       id="path3308"
       style="fill:#00db00;fill-opacity:1" />
    <path
       d="m 4380,382.50001 v -115 h 90 90 v 20 20 h -60 -60 v 25 25 h 50 50 v 25 25 h -50 -50 v 20 20 h 60 60 v 25 25 h -90 -90 z"
       id="path3310"
       style="fill:#00db00;fill-opacity:1" />
    <path
       d="m 4602,385.50001 3,-113 88,-3 87,-3 v 21 20 h -55 -55 v 95 95 h -35 -36 z"
       id="path3312"
       style="fill:#00db00;fill-opacity:1" />
    <path
       d="m 4864,488.50001 c -61,-26 -83,-115 -44,-178 37,-62 146,-69 202,-13 l 28,28 v 51 51 l -28,31 -29,32 -54,3 c -30,2 -64,0 -75,-5 z m 108,-58 c 24,-22 24,-77 -2,-103 -60,-60 -144,27 -94,98 18,27 69,30 96,5 z"
       id="path3314"
       style="fill:#00db00;fill-opacity:1" />
    <path
       d="m 5100,382.50001 v -115 h 30 30 v 30 30 h 44 c 59,0 96,29 96,76 0,70 -36,94 -141,94 h -59 z m 124,59 c 26,-10 20,-53 -10,-64 -46,-18 -54,-13 -54,30 v 40 h 24 c 13,0 31,-3 40,-6 z"
       id="path3316"
       style="fill:#00db00;fill-opacity:1" />
    <path
       d="m 5340,382.50001 v -115 h 30 29 l 3,58 3,57 30,-47 c 16,-27 37,-48 45,-48 8,0 29,24 45,53 l 30,52 3,-62 3,-63 h 24 25 v 115 115 h -23 -23 l -38,-65 c -21,-36 -41,-67 -45,-69 -3,-2 -24,27 -46,65 l -40,69 h -27 -28 z"
       id="path3318"
       style="fill:#00db00;fill-opacity:1" />
    <path
       d="m 5670,382.50001 v -115 h 90 90 v 20 20 h -60 -60 v 25 25 h 51 50 l -3,23 -3,22 -47,3 -48,3 v 20 19 h 60 60 v 25 25 h -90 -90 z"
       id="path3320"
       style="fill:#00db00;fill-opacity:1" />
    <path
       d="m 5900,382.50001 v -115 h 30 30 v 61 61 l 51,-61 51,-61 h 29 29 v 115 115 h -30 -30 v -60 c 0,-33 -4,-60 -8,-60 -5,0 -31,27 -57,60 -34,43 -55,60 -72,60 h -23 z"
       id="path3322"
       style="fill:#00db00;fill-opacity:1" />
    <path
       d="m 6150,472.50001 v -25 h 35 35 v -90 -90 h 30 30 v 90 90 h 35 35 v 25 25 h -100 -100 z"
       id="path3324"
       style="fill:#00db00;fill-opacity:1" />
    <path
       d="m 4724.7958,9659.1918 c -88,-31 -164,-113 -191,-206 l -17,-57 11,-64 c 6,-37 23,-83 39,-110 l 29,-46 54,-5 55,-5 3,-26 3,-25 -60,-11 c -33,-7 -101,-28 -151,-48 -51,-20 -93,-35 -95,-33 -14,16 -33,68 -25,68 17,0 12,15 -31,89 l -41,72 -87,-47 c -47,-25 -87,-48 -89,-49 -2,-2 15,-37 38,-79 26,-47 48,-75 56,-74 8,2 24,-14 36,-35 l 22,-37 -36,-30 c -20,-17 -59,-59 -87,-93 -344,-433 -203,-1064.0001 292,-1301.0001 137,-66 206,-81 372,-81 162,1 220,13 361,80 227,109 391,307 460,555.0001 25,91 25,328 0,420 -41,149 -151,332 -253,419 l -46,39 22,35 c 12,20 27,34 34,32 10,-4 104,143 95,149 -2,1 -41,24 -87,49 l -85,48 -11,-13 c -7,-7 -27,-41 -46,-76 -25,-46 -31,-65 -22,-70 9,-6 8,-16 -7,-40 l -19,-31 -56,25 c -30,14 -96,35 -145,47 l -91,22 3,25 3,25 50,3 c 59,4 69,11 103,76 l 26,51 v 75 75 l -23,53 c -29,65 -100,131 -167,155 -54,19 -152,21 -199,5 z m 188,-53 c 50,-21 104,-70 130,-119 16,-30 21,-59 22,-111 v -70 l -25,-45 -25,-45 h -40 -40 v 40 40 l 28,3 27,3 v 95 94 h -165 -165 v -17 c -1,-10 -1,-52 -2,-93 l -2,-75 28,-3 27,-3 -3,-42 -3,-42 h -40 -40 l -24,45 -25,45 -1,70 v 70 l 27,47 c 32,54 90,105 133,117 48,14 140,12 178,-4 z m 82,-610 c 202,-53 363,-172 466,-345 210,-355 94,-810.0001 -261,-1021.0001 -295,-175 -662,-128 -905,115 -202,203.0001 -270,491.0001 -180,763.0001 106,318 418,528 750,506 44,-3 103,-11 130,-18 z"
       id="path3092"
       style="fill:#00db00;fill-opacity:1" />
    <path
       d="m 4676.7958,8965.1918 c -293,-63 -511,-293 -557,-587 -49,-303 115,-614.0001 394,-747.0001 348,-165 777,-17 941,325.0001 58,121 70,175 69,320 v 130 l -28,80 c -87,254 -280,426 -538,479 -94,19 -190,19 -281,0 z m 318,-40 c 221,-57 419,-256 481,-484 12,-43 18,-101 18,-170 0,-192 -62,-339 -198,-475.0001 -138,-138 -285,-199 -476,-198 -193,0 -338,61 -476,198 l -82,81 -45,95.0001 c -56,118 -71,179 -71,299 0,120 15,181 71,299 l 45,95 82,81 c 176,175 412,240 651,179 z"
       id="path3094"
       style="fill:#00db00;fill-opacity:1" />
    <path
       d="m 4725.7958,8840.1918 c -221,-37 -396,-186 -462,-395 l -24,-75 v -99 -99 l 25,-79 c 42,-133 139,-252.0001 269,-327.0001 169,-98 398,-93 575,12 75,45 171,144.0001 206,213.0001 l 25,49 -265,130 -265,130 v 275 276 l -17,-1 c -10,-1 -40,-5 -67,-10 z"
       id="path3096"
       style="fill:#00db00;fill-opacity:1" />
    <path
       d="m 4239.7958,7106.1917 v -25 h 35 35 v -90 -90 h 30 30 v 90 90 h 35 35 v 25 25 h -100 -100 z"
       id="path3148"
       style="fill:#00db00;fill-opacity:1" />
    <path
       d="m 4479.7958,7016.1917 v -115 h 30 30 v 115 115 h -30 -30 z"
       id="path3150"
       style="fill:#00db00;fill-opacity:1" />
    <path
       d="m 4589.7958,7017.1917 v -116 h 30 29 l 3,58 3,57 28,-47 c 16,-27 35,-48 42,-48 7,0 28,24 47,53 l 33,52 3,-62 3,-63 h 24 25 v 115 115 h -25 -24 l -38,-65 c -21,-35 -42,-63 -48,-62 -5,2 -25,30 -45,63 -28,45 -43,60 -63,62 l -27,3 z"
       id="path3152"
       style="fill:#00db00;fill-opacity:1" />
    <path
       d="m 4919.7958,7016.1917 v -115 h 30 30 v 115 115 h -30 -30 z"
       id="path3154"
       style="fill:#00db00;fill-opacity:1" />
    <path
       d="m 5029.7958,7016.1917 v -115 h 30 29 l 3,63 3,62 50,-62 50,-63 h 28 27 v 115 115 h -30 -29 l -3,-62 -3,-63 -50,62 -50,62 h -27 l -28,1 z"
       id="path3156"
       style="fill:#00db00;fill-opacity:1" />
    <path
       d="m 5347.7958,7113.1917 c -64,-39 -73,-129 -19,-183 36,-35 87,-45 143,-28 l 43,14 3,48 3,47 h -30 -31 v -30 c 0,-36 -20,-47 -59,-34 -36,13 -54,54 -40,90 5,16 16,32 22,36 17,11 65,10 86,-2 14,-7 23,-5 35,9 l 17,19 -23,16 c -30,21 -115,20 -150,-2 z"
       id="path3158"
       style="fill:#00db00;fill-opacity:1" />
    <path
       d="m 8063.0659,9537.5935 c -382,-32 -695,-185 -840,-410 -50,-78 -60,-104 -79,-195 -61,-300 1,-512 173,-589 80,-36 161,-49 247,-42 l 71,7 6,-62 c 10,-115 85,-226 188,-279 19,-10 64,-26 100,-35 l 64,-17 133,4 133,5 71,-76 c 54,-58 254,-291 264,-309 1,-2 215,51 252,63 8,3 -11,40 -58,109 -38,58 -70,107 -70,110 0,2 73,6 163,8 l 162,4 31,16 c 35,19 36,21 73,122 l 26,70 50,11 c 64,14 150,61 181,98 42,50 73,122 85,197 l 12,72 -12,89 c -32,247 -174,512 -386,725 -98,99 -144,133 -250,187 -136,69 -265,101 -476,117 -146,11 -179,11 -314,0 z m 655,-180 c 0,-3 -72,-113 -159,-245 l -159,-240 139,-3 c 77,-1 139,-6 139,-10 0,-10 -582,-784 -586,-780 -2,2 46,136 106,298 60,162 110,298 110,303 0,4 -54,7 -120,7 -66,0 -120,3 -120,6 0,10 292,648 303,662 l 11,13 168,-2 c 92,-2 168,-6 168,-9 z m -470,-104 c -30,-80 -62,-126 -104,-151 -24,-14 -67,-50 -95,-80 -168,-178 -164,-452 8,-624 l 58,-58 -20,-54 c -11,-30 -22,-56 -24,-58 -7,-9 -115,85 -152,133 -174,225 -160,540 34,744 68,72 147,126 229,154 70,24 78,23 66,-6 z m 534,-139 c 83,-85 119,-147 146,-253 59,-231 -24,-467 -215,-609 -74,-55 -163,-92 -258,-107 -78,-12 -207,-3 -207,14 0,6 16,32 35,58 l 35,47 84,5 85,6 68,31 c 124,59 200,143 243,272 l 22,64 -4,96 -4,96 -36,75 c -25,50 -56,92 -93,127 -30,29 -55,54 -55,57 0,13 62,94 72,94 6,0 43,-33 82,-73 z"
       id="path3252"
       style="fill:#00db00;fill-opacity:1" />
    <path
       d="m 7108.0659,7032.5935 v -115 h 90 90 l 20,20 c 25,25 25,41 -1,74 l -21,27 12,14 c 19,23 8,68 -20,82 -14,7 -58,13 -97,13 h -73 z m 128,66 c 18,-2 15,-38 -4,-45 -9,-3 -27,-6 -40,-6 h -24 v 29 30 l 28,-3 c 15,-2 33,-4 40,-5 z m 22,-116 v -25 h -45 -45 v 25 25 h 45 45 z"
       id="path3326"
       style="fill:#00db00;fill-opacity:1" />
    <path
       d="m 7368.0659,7032.5935 v -115 h 30 30 v 30 c 0,23 5,30 19,30 11,0 29,-13 41,-30 16,-22 29,-30 51,-30 h 31 l -21,34 -21,33 16,14 c 24,20 34,53 25,86 -10,40 -61,63 -138,63 h -63 z m 138,33 3,-28 -27,-10 c -40,-15 -54,-6 -54,35 v 36 l 38,-3 37,-3 z"
       id="path3328"
       style="fill:#00db00;fill-opacity:1" />
    <path
       d="m 7645.0659,7040.5935 c -26,-60 -47,-111 -47,-115 0,-5 13,-8 29,-8 21,0 32,6 36,20 l 6,20 h 54 54 l 6,-20 c 4,-14 15,-20 36,-20 16,0 29,3 29,8 0,4 -21,55 -47,115 l -47,107 h -30 -31 z m 101,-5 12,-28 h -36 c -19,0 -33,4 -30,9 3,4 10,21 16,36 11,30 19,26 38,-17 z"
       id="path3330"
       style="fill:#00db00;fill-opacity:1" />
    <path
       d="m 7888.0659,7032.5935 v -115 h 30 30 v 115 115 h -30 -30 z"
       id="path3332"
       style="fill:#00db00;fill-opacity:1" />
    <path
       d="m 7998.0659,7032.5935 v -115 h 30 29 l 3,62 3,62 50,-62 50,-62 h 28 27 v 115 115 h -30 -30 v -66 -65 l -56,65 c -40,48 -62,66 -80,66 h -24 z"
       id="path3334"
       style="fill:#00db00;fill-opacity:1" />
    <path
       d="m 8300.0659,7137.5935 c -12,-5 -27,-22 -33,-37 -17,-44 5,-74 71,-93 66,-19 75,-43 18,-48 -20,-2 -46,2 -57,8 l -20,10 -12,-21 -11,-22 13,-8 c 44,-28 137,-21 170,12 43,43 8,101 -71,114 -21,4 -41,13 -44,21 -8,22 29,36 68,25 19,-5 37,-6 40,-3 12,11 6,40 -10,46 -23,9 -95,6 -122,-4 z"
       id="path3336"
       style="fill:#00db00;fill-opacity:1" />
    <path
       d="m 8468.0659,7122.5935 v -25 h 35 35 v -90 -90 h 30 30 v 90 90 h 40 40 v 25 25 h -105 -105 z"
       id="path3338"
       style="fill:#00db00;fill-opacity:1" />
    <path
       d="m 8758.0659,7134.5935 c -13,-7 -35,-28 -48,-47 -67,-99 58,-222 168,-165 65,33 88,102 55,165 -28,54 -115,77 -175,47 z m 110,-57 c 26,-26 25,-68 -2,-97 -61,-65 -153,31 -93,97 23,26 69,26 95,0 z"
       id="path3340"
       style="fill:#00db00;fill-opacity:1" />
    <path
       d="m 8988.0659,7033.5935 v -116 h 30 30 v 30 30 h 25 c 17,0 29,-9 40,-30 l 16,-30 h 35 35 l -21,30 -21,30 20,26 c 28,35 26,77 -3,111 l -24,28 -81,3 -81,4 z m 140,49 c 18,-22 8,-47 -23,-58 -41,-13 -57,-3 -57,38 v 35 h 34 c 18,0 39,-7 46,-15 z"
       id="path3342"
       style="fill:#00db00;fill-opacity:1" />
    <path
       d="m 9238.0659,7032.5935 v -115 h 30 30 v 56 c 0,62 10,63 40,3 28,-53 49,-50 85,14 l 30,52 3,-62 3,-63 h 24 25 v 115 115 h -23 -23 l -38,-65 c -21,-36 -42,-65 -47,-65 -4,0 -25,29 -46,65 l -38,65 h -27 -28 z"
       id="path3344"
       style="fill:#00db00;fill-opacity:1" />
    <path
       d="m 1878.4133,2866.6517 v -76 l 38,6 c 42,7 362,46 374,46 4,0 8,23 8,50 v 50 h -210 -210 z"
       id="path3100"
       style="fill:#00db00;fill-opacity:1" />
    <path
       d="m 977.41331,2754.6517 -23,-27 -23,22 c -41,42 -101,25 -124,-34 l -9,-24 -29,22 -29,21 -36,-12 c -57,-19 -57,-9 -10,-387 23,-192 48,-301 80,-350 l 14,-23 h 214.99999 215 l 34,48 c 36,48 69,110 81,150 l 6,22 h -60 c -42,0 -61,4 -61,13 0,18 38,424 46,482 l 6,50 -22,28 -21,27 h -39 c -29,0 -43,-6 -58,-25 l -20,-25 -16,25 -16,25 h -39 -39 z"
       id="path3102"
       style="fill:#00db00;fill-opacity:1" />
    <path
       d="m 2003.4133,2752.6517 c -242,-31 -286,-40 -357,-76 l -48,-24 v -214 -213 l 68,-46 c 55,-37 132,-77 148,-77 2,0 4,27 4,60 v 60 h 19 c 10,0 120,-9 242,-21 123,-12 243,-22 267,-22 l 43,-2 19,25 c 11,14 20,33 20,42 0,31 -20,70 -40,75 l -20,5 30,28 c 18,16 30,38 30,53 0,30 -35,77 -58,78 h -17 l 21,11 c 22,10 44,47 44,72 0,22 -40,66 -61,66 -23,0 -24,8 -4,34 21,27 19,79 -3,99 -25,23 -82,21 -347,-13 z"
       id="path3104"
       style="fill:#00db00;fill-opacity:1" />
    <path
       d="m 498.41331,2448.6517 v -213 l 73,5 c 39,2 73,5 74,6 4,3 -44,397 -49,400 -1,2 -24,6 -50,9 l -48,7 z"
       id="path3106"
       style="fill:#00db00;fill-opacity:1" />
    <path
       d="m 1318.4133,2624.6517 c 0,-30 -17,-267 -24,-344 l -5,-48 h 104 105 l 4,23 c 3,12 10,83 16,157 5,74 13,159 16,188 l 6,52 h -111 -111 z"
       id="path3108"
       style="fill:#00db00;fill-opacity:1" />
    <path
       d="m 1868.4133,2048.6517 v -104 l 48,-6 c 26,-3 101,-10 167,-16 66,-5 141,-12 168,-15 l 47,-6 v 111 110 h -22 c -13,0 -106,7 -208,15 -102,8 -188,15 -192,15 -5,0 -8,-47 -8,-104 z"
       id="path3110"
       style="fill:#00db00;fill-opacity:1" />
    <path
       d="m 790.41331,1806.6517 3,-109 145,-11 c 79.99999,-7 174.99999,-14 212.99999,-16 l 67,-4 v 103 103 l -22,4 c -13,3 -86,10 -163,16 -76.99999,6 -163.99999,14 -192.99999,17 l -53,6 z"
       id="path3112"
       style="fill:#00db00;fill-opacity:1" />
    <path
       d="m 1837.4133,1830.6517 c -44,-62 -77,-119 -84,-150 l -7,-28 h 61 61 l -5,-42 c -3,-24 -15,-146 -26,-272 -23,-248 -21,-268 27,-286 40,-16 54,-12 84,20 l 27,29 13,-24 c 7,-13 24,-26 38,-30 32,-8 80,12 87,36 8,24 17,24 32,0 14,-23 59,-32 90,-18 12,5 28,25 35,43 l 12,33 24,-20 c 45,-35 104,-19 117,32 7,31 -51,507 -71,579 -9,30 -25,74 -37,98 l -21,42 h -213 -213 z"
       id="path3114"
       style="fill:#00db00;fill-opacity:1" />
    <path
       d="m 1268.4133,1653.6517 c 0,-42 -4,-61 -12,-61 -17,0 -414.99999,38 -489.99999,46 l -56,6 -26,-25 c -34,-34 -33,-71 2,-105 l 27,-27 -27,-27 c -37,-35 -36,-72 1,-107 l 29,-27 -18,-12 c -46,-28 -29,-114 25,-128 29,-7 30,-12 10,-38 -36,-47 -3,-116 54,-116 61,0 517.99999,61 570.99999,76 30,9 71,25 92,35 l 38,19 v 215 214 l -57,39 c -63,42 -105,66 -140,76 l -23,7 z"
       id="path3116"
       style="fill:#00db00;fill-opacity:1" />
    <path
       d="m 1686.4133,1584.6517 -98,-3 -4,-22 c -3,-12 -10,-85 -16,-162 -6,-77 -13,-161 -16,-187 l -6,-48 h 109 110 l 15,208 c 9,114 13,209 9,212 -3,3 -50,4 -103,2 z"
       id="path3118"
       style="fill:#00db00;fill-opacity:1" />
    <path
       d="m 2438.4133,1574.6517 c 0,-12 39,-332 46,-374 l 6,-38 h 49 49 v 210 210 h -75 c -41,0 -75,-4 -75,-8 z"
       id="path3120"
       style="fill:#00db00;fill-opacity:1" />
    <path
       d="m 978.41331,996.65174 c -96,-11.99995 -178,-22.99995 -182,-22.99995 -5,-1 -8,-23 -8,-51 v -50 h 210.00001 209.99998 v 75 74.99991 l -27,-1 c -16,-1 -107,-12 -202.99999,-24.99996 z"
       id="path3122"
       style="fill:#00db00;fill-opacity:1" />
    <path
       d="m 428.41331,468.65179 v -25 l 38,-3 37,-3 1,-85 2,-85 31,-3 31,-3 v 90 91 h 35 35 v 25 25 h -105 -105 z"
       id="path3132"
       style="fill:#00db00;fill-opacity:1" />
    <path
       d="m 668.41331,377.65179 v -115 h 85 c 47,0 88,-1 93,-2 4,-2 8,7 10,19 l 3,22 -63,3 -63,3 -3,23 -3,22 h 55 56 v 25 25 h -55 -55 v 20 20 h 60 60 v 25 25 h -90 -90 z"
       id="path3134"
       style="fill:#00db00;fill-opacity:1" />
    <path
       d="m 922.41331,377.65179 -52,-115 h 33 c 25,0 35,5 40,20 l 6,20 h 55.99999 55 l 5,-20 c 4,-15 14,-20 39,-20 h 34 l -9,23 c -5,12 -27,63 -49,112 l -39,90 -34,3 -33.99999,3 z m 103.99999,3 12,-28 h -30 c -32.99999,0 -35.99999,7 -17.99998,45 11.99998,28 17.99998,25 35.99998,-17 z"
       id="path3136"
       style="fill:#00db00;fill-opacity:1" />
    <path
       d="m 1168.4133,377.65179 v -115 h 25 c 27,0 29,5 26,62 -3,52 11,53 39,2 14,-25 32,-44 41,-44 10,0 30,22 48,53 l 31,52 v -62 -63 h 30 30 v 115 115 h -28 -28 l -37,-65 c -21,-36 -42,-63 -47,-60 -5,3 -25,32 -45,65 l -36,60 h -25 -24 z"
       id="path3138"
       style="fill:#00db00;fill-opacity:1" />
    <path
       d="m 1489.4133,435.65179 c 10,-32 26,-84 36,-115 l 18,-58 h 37 36 l 22,66 c 12,36 25,62 29,57 4,-4 15,-34 25,-65 l 17,-58 h 40 c 21,0 39,3 39,8 0,4 16,56 34,115 l 35,108 -31,-3 -31,-3 -26,-75 -25,-75 -24,78 -25,78 -30,-3 -30,-3 -26,-75 -25,-75 -24,78 -24,77 h -33 -33 z"
       id="path3140"
       style="fill:#00db00;fill-opacity:1" />
    <path
       d="m 1927.4133,477.65179 c -29,-16 -59,-70 -59,-107 0,-58 69,-118 135,-118 67,0 125,59 125,127 v 45 l -34,34 -34,34 h -53 c -30,-1 -66,-7 -80,-15 z m 114,-47 c 9,-7 20,-27 23,-45 l 6,-32 -26,-26 -27,-27 -27,7 c -35,8 -52,31 -52,69 0,55 59,86 103,54 z"
       id="path3142"
       style="fill:#00db00;fill-opacity:1" />
    <path
       d="m 2168.4133,377.65179 v -115 h 35 35 v 30 c 0,22 5,30 18,30 10,0 26,-13 35,-30 l 18,-30 h 35 36 l -20,33 -20,32 19,24 c 19,23 25,65 13,96 -11,28 -60,45 -134,45 h -70 z m 141,49 c 19,-23 -1,-48 -40,-52 l -31,-3 v 35 36 h 29 c 16,0 34,-7 42,-16 z"
       id="path3144"
       style="fill:#00db00;fill-opacity:1" />
    <path
       d="m 2418.4133,377.65179 v -115 h 35 35 v 28 c 0,15 5,33 12,40 l 12,12 36,-41 35,-41 34,4 34,3 -47,57 c -25,31 -46,61 -46,65 0,5 18,27 40,48 47,46 49,55 13,55 -19,0 -42,-14 -75,-47 l -48,-47 v 47 47 h -35 -35 z"
       id="path3146"
       style="fill:#00db00;fill-opacity:1" />
  </g>
</svg>
