<?xml version="1.0" encoding="UTF-8" standalone="no"?>
<!-- Uploaded to: SVG Repo, www.svgrepo.com, Generator: SVG Repo Mixer Tools -->

<svg
   version="1.1"
   id="_x32_"
   viewBox="0 0 512 512"
   xml:space="preserve"
   xmlns="http://www.w3.org/2000/svg"
   xmlns:svg="http://www.w3.org/2000/svg"><defs
   id="defs27" />
<style
   type="text/css"
   id="style2">
	.st0{fill:#000000;}
</style>

<path
   style="fill:#58fe98;fill-opacity:1;stroke:none;stroke-width:3.91392"
   d="m 240.74684,6.3651171 c 3.83604,18.5854829 6.90689,62.0786799 22.41737,74.2587979 11.9261,9.364835 37.34309,7.94917 51.9471,13.662318 38.98734,15.252157 76.87134,45.498927 93.93407,84.291347 -26.49449,2.16401 -55.92678,18.63807 -82.19231,15.75822 -45.85078,-5.02664 -74.24117,-41.40378 -121.27396,-5.74681 -74.55665,56.52326 -19.26666,162.10907 66.4791,153.9654 42.79087,-4.06384 45.95371,-38.46562 75.2404,-58.5456 22.26198,-15.2639 59.46888,-15.99697 85.23028,-23.2389 -1.75733,40.84802 -16.68502,78.80951 -43.77482,109.58976 -11.94841,13.5766 -37.21904,27.44439 -43.72985,44.32513 -7.28419,18.88466 8.8302,50.37998 13.14022,69.17854 C 495.39819,443.47948 539.71551,254.98199 478.23176,139.43838 430.38799,49.53526 339.49191,6.3651171 240.74684,6.3651171 M 272.05821,507.34683 256.40253,432.98235 C 227.45087,431.73772 199.38962,424.5283 174.21022,409.98417 95.658231,364.61283 59.964852,265.18989 101.31933,182.49151 117.08186,150.97036 156.31225,132.5585 169.52016,103.49138 178.05016,84.719049 162.21091,47.444443 154.6406,29.848636 17.408484,70.230892 -26.911994,258.72996 34.574472,374.27357 82.370082,464.09019 173.29279,507.34683 272.05821,507.34683 Z"
   id="path4742" /></svg>
