<?xml version="1.0" encoding="UTF-8" standalone="no"?>
<svg
   version="1.0"
   width="142.740571pt"
   height="144.066104pt"
   viewBox="0 0 142.740571 144.066104"
   preserveAspectRatio="xMidYMid meet"
   id="svg10"
   sodipodi:docname="handcash.svg"
   inkscape:version="1.2.2 (b0a8486541, 2022-12-01)"
   xmlns:inkscape="http://www.inkscape.org/namespaces/inkscape"
   xmlns:sodipodi="http://sodipodi.sourceforge.net/DTD/sodipodi-0.dtd"
   xmlns="http://www.w3.org/2000/svg"
   xmlns:svg="http://www.w3.org/2000/svg">
  <defs
     id="defs14" />
  <sodipodi:namedview
     id="namedview12"
     pagecolor="#ffffff"
     bordercolor="#000000"
     borderopacity="0.25"
     inkscape:showpageshadow="2"
     inkscape:pageopacity="0.0"
     inkscape:pagecheckerboard="0"
     inkscape:deskcolor="#d1d1d1"
     inkscape:document-units="pt"
     showgrid="false"
     inkscape:zoom="4.5187591"
     inkscape:cx="95.269518"
     inkscape:cy="96.044067"
     inkscape:window-width="1880"
     inkscape:window-height="1056"
     inkscape:window-x="40"
     inkscape:window-y="0"
     inkscape:window-maximized="1"
     inkscape:current-layer="svg10" />
  <metadata
     id="metadata2"> Created by potrace 1.16, written by Peter Selinger 2001-2019 </metadata>
  <g
     transform="translate(-0.629715,144.005436) scale(0.100000,-0.100000)"
     fill="#000000"
     stroke="none"
     id="g8"
     style="fill:#56ff96;fill-opacity:1">
    <path
       d="M680 1428 c1 -21 45 -197 52 -203 3 -3 34 -10 69 -16 85 -13 197 -67 258 -124 49 -46 108 -122 100 -129 -2 -3 -59 -18 -126 -35 l-122 -31 -50 31 c-93 58 -199 57 -280 -2 -127 -91 -144 -267 -37 -373 57 -57 117 -80 200 -74 86 5 149 43 194 118 l32 55 123 30 122 31 3 -33 c4 -44 -22 -134 -61 -206 -30 -58 -128 -159 -174 -180 -14 -6 -22 -16 -19 -26 3 -9 15 -58 26 -109 l22 -92 61 32 c79 43 220 183 270 268 21 36 49 101 64 145 23 70 26 96 27 215 0 122 -3 143 -28 215 -15 44 -43 108 -62 143 -71 127 -227 262 -362 312 -113 43 -303 66 -302 38z"
       id="path4"
       style="fill:#56ff96;fill-opacity:1" />
    <path
       d="M360 1343 c-82 -46 -213 -177 -263 -263 -21 -36 -49 -101 -64 -145 -23 -70 -26 -96 -27 -215 0 -122 3 -143 28 -215 57 -166 156 -296 294 -386 114 -75 258 -119 388 -119 62 0 60 -17 20 135 l-21 80 -65 7 c-45 5 -89 19 -146 47 -228 113 -333 367 -253 609 35 106 127 221 218 272 13 7 11 22 -8 111 -13 57 -26 107 -30 111 -3 4 -35 -9 -71 -29z"
       id="path6"
       style="fill:#56ff96;fill-opacity:1" />
  </g>
</svg>
