<?xml version="1.0" encoding="UTF-8" standalone="no"?>
<svg
   version="1.1"
   id="Layer_1"
   x="0px"
   y="0px"
   width="441.58093"
   viewBox="0 0 441.58093 215.84705"
   enable-background="new 0 0 494 252"
   xml:space="preserve"
   sodipodi:docname="junglebus.svg"
   height="215.84705"
   inkscape:version="1.2.2 (b0a8486541, 2022-12-01)"
   xmlns:inkscape="http://www.inkscape.org/namespaces/inkscape"
   xmlns:sodipodi="http://sodipodi.sourceforge.net/DTD/sodipodi-0.dtd"
   xmlns="http://www.w3.org/2000/svg"
   xmlns:svg="http://www.w3.org/2000/svg"><defs
   id="defs2400" /><sodipodi:namedview
   id="namedview2398"
   pagecolor="#ffffff"
   bordercolor="#000000"
   borderopacity="0.25"
   inkscape:showpageshadow="2"
   inkscape:pageopacity="0.0"
   inkscape:pagecheckerboard="0"
   inkscape:deskcolor="#d1d1d1"
   showgrid="false"
   inkscape:zoom="0.97119828"
   inkscape:cx="264.10673"
   inkscape:cy="83.916952"
   inkscape:window-width="1920"
   inkscape:window-height="1020"
   inkscape:window-x="0"
   inkscape:window-y="32"
   inkscape:window-maximized="1"
   inkscape:current-layer="Layer_1" />

<path
   fill="#332f47"
   opacity="1"
   stroke="none"
   d="m 250.3411,71.878945 c 4.06729,-0.210701 8.13458,-0.421402 13.00534,-0.77549 2.4822,-0.136376 4.16091,-0.129364 5.83966,-0.12236 2.3486,-0.0084 4.69723,-0.01684 7.96106,-0.01942 9.32022,-0.989151 17.72519,-1.984131 26.55175,-2.980263 7.04593,-1.400322 13.6937,-2.702148 20.27378,-4.28553 1.23062,-0.296127 2.18988,-1.719963 3.27438,-2.623375 5.74243,-2.005936 11.48486,-4.011879 17.99268,-6.070435 3.26559,-1.292129 5.7658,-2.531631 8.26602,-3.771133 0,8e-6 0.31952,-0.08465 0.87881,-0.16098 7.00708,-2.386032 13.45493,-4.695748 20.31424,-7.039002 7.76227,-1.0336 15.10712,-2.765281 22.46549,-2.824844 7.14358,-0.05782 13.63571,-1.703564 20.50348,-4.243744 4.48522,1.001011 8.55807,1.99086 12.63092,2.980705 0,-4e-6 -0.0286,0.02023 0.0702,0.236305 0.3674,0.410485 0.63595,0.604889 0.90451,0.799302 0,-8e-6 -0.0185,-0.0077 0.0829,0.214386 0.37726,0.407745 0.65314,0.593399 0.92899,0.779037 0,0 -0.0284,5.34e-4 -0.0409,0.350739 0.37256,1.255203 0.5618,2.329033 1.17356,3.038452 4.82944,5.600242 8.1445,12.061065 8.16284,19.399444 0.0151,6.037567 -1.17413,12.14879 -2.41489,18.10545 -3.58197,17.196511 -10.63867,32.825661 -22.37915,46.048271 -4.80478,5.41134 -8.80548,10.47935 -2.64514,17.48489 0.99143,1.12746 0.79315,3.22331 1.49475,4.70598 0.66065,1.39607 1.78339,2.57349 2.70285,3.84711 0,-2e-5 -0.0606,-0.0196 -0.19769,0.319 0.20288,9.57985 0.57413,18.82437 -3.14368,27.94505 0.80634,1.42612 1.58908,3.23765 2.80008,3.5941 4.41104,1.29836 8.96518,2.1104 13.79584,3.27 4.27335,1.74913 9.66415,1.58063 9.6976,7.89962 0,0 -0.0207,-0.024 -0.37906,0.0309 -6.82876,1.88394 -13.29138,3.74131 -19.77255,5.5315 -3.95059,1.09119 -7.92981,2.07886 -11.89615,3.11304 -0.75595,0.35492 -1.51187,0.70984 -2.92511,0.88994 -4.94449,0.0192 -9.26187,-0.0422 -13.51285,0.45921 -9.52764,1.12383 -19.02224,2.52753 -28.5303,3.81723 -4.68314,0.35718 -9.36624,0.71436 -14.84131,0.8248 -10.33572,0.0179 -19.88061,0.2544 -29.42084,0.61423 -0.59964,0.0226 -1.1629,1.00867 -1.7431,1.54651 -7.36847,0.32684 -14.73694,0.65369 -22.86301,0.79187 -9.21258,-0.31928 -17.6676,-0.44988 -26.59179,-0.59859 -14.44724,-0.0288 -28.42539,-0.0692 -42.40316,-0.0132 -1.78105,0.007 -3.5601,0.51741 -5.5081,0.82894 -0.16804,0.0343 -0.51105,0.0304 -0.51105,0.0304 -0.17421,-0.009 -0.3484,-0.019 -1.1018,-0.2248 -2.7237,-0.0637 -4.8682,0.069 -7.0127,0.2016 -16.68249,-0.3154 -33.36497,-0.6308 -50.68841,-1.31181 -1.51218,-0.74554 -2.3685,-1.41641 -3.25685,-1.46195 -14.35325,-0.73535 -28.71054,-1.39123 -43.46907,-2.15284 -7.15169,-0.67256 -13.90122,-1.25739 -21.043832,-1.93347 -14.40596,-2.41857 -28.418836,-4.7459 -42.723981,-7.27852 -2.303406,-0.98069 -4.446259,-1.53145 -6.281174,-2.60738 -1.308357,-0.76716 -2.918335,-2.16812 -3.044899,-3.42235 -0.09341,-0.9257 1.819794,-2.62382 3.130783,-3.02565 6.784638,-2.07948 13.617104,-4.0478 20.521988,-5.6774 6.880263,-1.62376 13.866013,-2.80059 21.022113,-4.42352 0.097,-1.53773 0.22449,-2.91 -0.18267,-4.09918 -2.49916,-7.2991 -2.49145,-14.66148 -0.97251,-22.13477 0.49363,-2.4286 0.65333,-4.92506 0.96576,-7.39048 0,0 0.0141,0.0553 0.32294,-0.0553 1.42845,-3.04615 2.54804,-5.98173 3.66763,-8.91732 0,0 0.0269,0.0214 0.23862,-0.0849 0.49512,-0.30649 0.68648,-0.57277 0.78582,-0.90519 0,0 0.003,0.0188 0.21045,-0.0903 0.47858,-0.29829 0.68105,-0.54429 0.81442,-0.84718 0,0 0.0203,-0.0346 0.25256,-0.23607 0.37925,-0.75357 0.52622,-1.3057 0.67318,-1.85783 0,0 0.0147,0.007 0.23996,-0.0997 0.49836,-0.31004 0.68931,-0.57321 0.79816,-0.89597 0,0 0.0133,0.0497 0.21211,-0.11462 0.0234,-0.99252 -0.15206,-1.82072 -0.32752,-2.64894 -12.59333,-0.74091 -25.187652,-1.46588 -37.778289,-2.25011 -1.124962,-0.07 -2.225983,-0.52455 -3.976601,-1.16797 -1.757538,-1.10748 -2.87661,-1.8475 -3.995689,-2.58752 4.358192,-0.72746 8.691803,-1.76492 13.080086,-2.11301 7.416549,-0.58824 14.868843,-0.71837 22.302853,-1.10382 0.91412,-0.0474 1.80831,-0.47905 3.60068,-0.98213 -3.24104,-4.5903 -5.99484,-8.81992 -9.13559,-12.7395 -0.9512,-1.18707 -2.94346,-2.0529 -4.51018,-2.13971 -5.132679,-0.28441 -10.288975,-0.14261 -16.234074,-0.40268 -12.675095,-1.0643 -24.549656,-1.93353 -36.432678,-2.66538 -1.57975,-0.0973 -3.202465,0.50298 -4.805283,0.7802 -0.745014,0.0307 -1.490028,0.0614 -2.781483,-0.26266 -4.856895,-0.96881 -9.167347,-1.58283 -13.4778,-2.19685 1.422829,-0.77331 2.85733,-1.20915 4.307955,-1.27183 17.252495,-0.74557 34.509594,-1.389221 51.758312,-2.210301 1.764565,-0.084 3.482666,-1.14394 5.222328,-1.751 3.841553,-0.42215 7.683098,-0.84428 11.946753,-1.89269 -0.0238,-3.68942 -0.84706,-6.75504 -0.82693,-9.81513 0.0301,-4.56862 -2.289485,-5.30416 -6.245769,-5.49318 -15.79805,-0.75477 -31.57991,-1.84819 -47.675491,-2.83516 0.821983,-1.331951 1.315376,-2.131458 1.808769,-2.930957 15.528496,-1.048592 31.057159,-2.09462 46.585365,-3.147446 4.189965,-0.284088 5.347976,-2.863464 3.592514,-7.461365 -3.701659,-9.695353 -11.37947,-15.603709 -19.771964,-20.761409 -2.788468,-1.713684 -6.039925,-2.662056 -8.892815,-4.2882 -1.325607,-0.755592 -3.12519,-2.285816 -3.137069,-3.480518 -0.07976,-8.022549 0.04157,-16.113922 6.708396,-22.788075 0.525208,-0.715301 0.704239,-1.001381 0.883271,-1.28746 0,0 0.01528,0.05406 0.206085,-0.07553 0.401207,-0.389237 0.611603,-0.648884 0.822006,-0.908531 0,3e-6 -5.8e-4,0.06092 0.190727,-0.06437 0.400498,-0.385093 0.609696,-0.644889 0.818886,-0.904689 0,0 -0.0063,0.03225 0.194077,-0.08705 0.47232,-0.321636 0.674888,-0.578651 0.808075,-0.890346 0,0 -0.02043,0.01116 0.323913,-0.04893 2.778801,-2.039263 5.213249,-4.018431 7.647698,-5.997601 0,2e-6 0.0047,0.03669 0.334938,0.0438 1.188766,-0.652603 2.047294,-1.31232 2.905815,-1.972038 0,0 0.208282,0.01279 0.689201,0.05125 0.732094,0.02984 0.983254,0.02121 1.234421,0.01259 0,0 0.282082,0.14484 0.613007,0.458071 3.626304,1.697292 6.921669,3.081356 10.217044,4.465419 0,0 -0.0142,-0.01123 0.0701,0.31511 2.36959,1.44269 4.65489,2.559043 6.94019,3.675396 0,0 -0.0253,-0.0027 0.11896,0.275852 1.06449,0.756313 1.98472,1.234112 2.90496,1.711914 0,0 -0.0485,0.0074 0.0483,0.293602 0.97611,0.786102 1.85543,1.286033 2.73476,1.785965 0.1617,0.271572 0.36462,0.507725 0.90257,1.162803 3.94986,3.224598 7.60591,5.994851 11.26195,8.765107 0,0 0.0202,-0.01629 0.0918,0.320686 1.02443,0.783524 1.977262,1.230076 2.930082,1.676624 0,0 -0.0102,-0.0077 0.0935,0.209347 0.30112,0.494709 0.56004,0.691376 0.88052,0.807007 0,0 -0.002,-0.01757 0.0967,0.324535 3.68846,1.75433 7.19696,4.054489 10.8848,4.391312 7.35524,0.671772 14.80891,0.265674 22.22194,0.304775 0,0 0.33674,0.124287 0.76077,0.425301 3.35983,1.067608 6.29562,1.834205 9.23143,2.600803 0,0 0.31883,0.08535 0.67296,0.276981 0.66214,0.359875 0.97017,0.528111 1.27818,0.696351 0,0 0.33133,0.111763 0.66825,0.44725 2.7234,1.079071 5.10989,1.822647 7.49638,2.566223 0,0 0.21919,0.04 0.51091,0.235901 0.59816,0.369106 0.90462,0.542309 1.21106,0.715511 0,0 -0.0236,-0.003 0.17857,0.234291 0.80503,0.433403 1.40787,0.629555 2.01073,0.825711 0,0 0.29913,0.08324 0.62393,0.271972 0.57077,0.413254 0.85063,0.581269 1.16442,0.692787 0,0 -0.003,-0.02277 0.169,0.270005 2.72923,1.436302 5.28678,2.579818 7.84433,3.723343 0,0 -0.0208,-0.01049 0.18083,0.215873 0.79146,0.405907 1.38127,0.585457 1.97107,0.765007 0,0 0.38613,0.02677 0.71884,0.241784 0.54328,0.474395 0.8061,0.659652 1.12117,0.770774 0,0 -0.003,-0.01633 0.0907,0.312951 2.69591,1.455413 5.29759,2.58155 7.89929,3.707687 0,0 0.01,-0.02567 0.17899,0.264877 1.41784,0.780075 2.66648,1.269592 3.91514,1.759117 0,0 0.34419,0.139565 0.71419,0.474533 1.65901,0.705849 2.94803,1.076722 4.23706,1.447594 0,0 -0.0367,0.0099 0.0583,0.326653 4.76991,2.126464 9.44485,3.936126 14.11978,5.745796 0,0 0.27951,0.09114 0.6084,0.301163 0.63498,0.374794 0.94105,0.539566 1.24713,0.704345 0,0 0.44141,0.104599 0.90384,0.318009 1.02917,0.366371 1.59592,0.51934 2.16267,0.67231 0,0 0.39196,0.133186 0.84717,0.348365 1.04903,0.351555 1.64282,0.487923 2.23663,0.624291 0,0 0.34728,0.09522 0.76528,0.32444 1.00346,0.38919 1.58896,0.549171 2.17444,0.709152 0,8e-6 0.35154,0.133102 0.78189,0.433197 8.76242,2.362297 17.05789,4.595604 25.44726,6.389862 2.77188,0.592835 5.78601,0.0532 8.68937,0.03136 m 145.66039,67.671871 c -0.21212,-0.23236 -0.449,-0.43585 -1.10394,-1.00333 -0.49023,-0.25206 -0.98047,-0.50412 -1.70196,-1.39715 -1.28235,-0.75794 -2.56467,-1.51587 -4.29633,-2.82067 -11.1203,-6.34669 -25.05533,-5.70097 -35.03894,1.88558 -0.24783,0.20158 -0.46448,0.43243 -1.02249,0.97 -0.23847,0.20017 -0.45139,0.42456 -1.1904,0.8172 -0.46771,0.31219 -0.93546,0.62439 -1.77859,1.21739 -0.2392,0.20363 -0.45301,0.43111 -1.01429,0.97662 -0.23459,0.21453 -0.44333,0.45179 -1.13437,1.06264 -0.53564,0.8487 -1.07129,1.69739 -2.25232,2.77135 -7.28866,6.72449 -8.01351,15.70099 -7.53805,24.60734 0.22357,4.1879 2.78778,8.25084 4.449,13.0282 0.97629,1.09183 1.95255,2.18367 2.88602,3.28774 0,0 0.0246,-0.0372 0.14533,0.55284 0.4252,0.38629 0.8504,0.77257 1.14538,1.22005 0,0 0.085,-0.11605 0.0917,0.56269 0.64349,0.51419 1.28699,1.02837 2.31393,1.65554 0.24408,0.1512 0.38452,0.36915 0.48499,1.38102 1.24044,0.92232 2.48092,1.84464 4.01639,3.12355 0.21401,0.22541 0.45373,0.419 1.00759,1.22922 2.03516,0.72479 4.07029,1.44959 6.46631,2.16851 0,0 0.3013,0.19868 0.70252,0.51438 0.32846,0.0766 0.65695,0.15319 0.84027,0.22432 0,0 0.0269,-0.14273 0.4219,0.53339 6.14875,2.52553 12.29209,3.27553 18.83396,-0.28888 0,0 0.45852,-0.11291 0.45852,-0.11291 0,0 0.47028,0.0428 1.30671,0.1259 1.97812,-0.90252 3.9562,-1.80503 6.45141,-2.89277 0.45368,-0.30293 0.90735,-0.60586 1.93497,-1.08683 0.51825,-0.57227 1.0365,-1.14453 2.08362,-1.91869 0.47,-0.3071 0.94,-0.61421 1.77505,-1.21788 0.23752,-0.20808 0.44828,-0.44047 0.9942,-0.97687 0.23142,-0.20236 0.4318,-0.43184 0.97022,-0.98611 0.23242,-0.21549 0.44165,-0.45149 0.99316,-1.01094 0.22998,-0.21861 0.43628,-0.45766 1.22351,-0.96617 0.44422,-0.92618 0.88843,-1.85236 1.48294,-3.42731 0.4675,-1.00493 0.935,-2.00986 1.32984,-2.98583 0,0 0.0451,-0.0638 0.46682,-0.53118 0.10114,-0.62029 0.20228,-1.24056 0.16807,-1.82787 0,0 0.0393,0.13364 0.61489,-0.21304 0.67481,-1.62712 1.34964,-3.25424 2.58179,-5.39015 1.62039,-3.50332 3.14987,-7.00678 -0.16626,-11.13701 -0.0525,-0.42734 -0.10498,-0.85468 0.20029,-1.76332 -0.44528,-1.50127 -0.89057,-3.00255 -1.54767,-4.78739 0,0 0.0302,-0.35264 0.11841,-1.16545 -2.62445,-4.21841 -5.2489,-8.43681 -8.16583,-13.02559 -0.20981,-0.23785 -0.44703,-0.44415 -1.00828,-0.98213 M 56.714842,17.076943 c -0.219536,0.217208 -0.428826,0.443889 -1.028214,1.091407 -0.220672,0.524773 -0.441337,1.049542 -0.995689,1.889473 -0.214691,0.218624 -0.417358,0.447872 -0.993019,1.176789 -0.127632,0.59795 -0.255257,1.195896 -0.422135,1.742847 0,0 0.06051,-0.02191 -0.406555,0.383888 -0.144149,0.584042 -0.288292,1.16808 -0.401779,1.665135 0,0 0.08411,0.03784 -0.491722,0.229694 0.101677,0.855168 0.203346,1.710339 0.865616,2.940159 1.409584,0.660358 2.819168,1.320717 4.3451,1.842556 0,0 -0.08681,0.158684 0.276619,0.691929 4.272194,3.059234 8.544388,6.118465 12.803429,9.229988 0,0 0.05215,-0.0137 0.265152,0.55809 0.922153,0.781029 1.844303,1.562058 2.755793,2.411545 0,0 0.0693,0.0016 0.26175,0.606499 1.14406,1.231857 2.28813,2.463722 3.55053,3.577392 0,0 -0.15187,0.07008 0.0235,0.747536 1.62032,2.715881 3.24065,5.431763 5.30042,8.462433 0.88097,-0.09658 1.76194,-0.193154 3.36625,-0.384796 1.17341,-0.992104 2.34683,-1.984207 3.50176,-2.946579 0,0 -0.0348,-0.0038 0.73569,0.01643 1.01733,0.05175 2.03465,0.103501 3.00537,0.829491 -1.32463,2.606781 -2.64926,5.213562 -4.52456,8.288956 -8.26084,13.65258 -4.58177,36.388624 7.82521,49.590545 2.1797,2.82765 4.811082,5.42293 6.417692,8.54546 1.76219,3.42488 4.35359,3.59883 6.95865,2.42549 13.13902,-5.91796 26.29765,-5.31243 39.55019,-0.69164 0,0 -0.0294,-0.0238 0.15347,0.40522 0.1889,0.25898 0.43257,0.44697 1.42369,0.56304 1.4716,0.47439 2.94321,0.94875 4.47087,2.14084 1.28444,0.984 2.5689,1.96801 4.13838,3.55706 7.07227,6.16571 12.56264,13.37359 15.00179,22.61972 0.78172,2.96338 1.66963,5.89874 2.32727,9.61467 -0.80292,4.8966 1.06546,7.45123 6.23918,7.3948 1.27442,-0.0139 2.55502,0.61057 3.83405,0.93668 8.77438,2.23714 17.43831,5.29748 26.35246,6.49537 10.54616,1.41716 21.31946,1.80329 31.9743,1.59804 16.0604,-0.30938 32.10352,-1.51878 49.02549,-2.25255 9.38183,-1.66455 18.74563,-3.44296 28.1549,-4.9344 3.48706,-0.55275 4.4093,-2.25619 3.77033,-6.222 1.06207,-8.05627 1.59704,-16.27353 7.43265,-23.31335 0.14834,-0.30802 0.29672,-0.61605 0.39462,-0.83643 0,0 -0.08,-0.0618 0.46933,-0.33661 0.24978,-0.53727 0.49957,-1.07457 0.76965,-1.53358 0,0 -0.0795,0.015 0.3793,-0.25414 0.20716,-0.28337 0.41431,-0.56675 0.59946,-0.73555 0,0 -0.11343,-0.0272 0.39963,-0.33099 0.24927,-0.51991 0.49853,-1.03983 0.70914,-1.61502 0,0 0.0622,0.0261 0.4772,-0.21735 0.25223,-0.21388 0.42712,-0.47882 0.52148,-0.77553 0,0 -0.0195,-3.5e-4 0.65522,-0.10537 2.1163,-1.97374 4.2326,-3.94748 6.35028,-5.89173 0,0 -0.0294,-0.002 0.58069,-0.14418 0.4743,-0.62764 0.9486,-1.25526 1.41384,-1.8453 0,0 -0.0352,-0.0161 0.6496,-0.0207 0.83804,-0.63608 1.67609,-1.27216 2.84726,-1.89972 0,0 0.32837,-0.0567 1.09512,-0.0742 1.78635,-0.94663 3.5727,-1.89325 5.83637,-2.94916 0,0 0.47836,-0.10461 1.38144,-0.0744 5.91247,-0.32135 11.82889,-0.94155 17.73605,-0.8632 4.2226,0.056 8.43274,1.04913 12.55655,1.67314 0,0 -0.0385,-0.0967 0.33972,0.50073 3.20124,1.55429 6.40244,3.1086 9.55243,4.69254 0,0 -0.0108,-0.0582 0.39475,0.41595 0.37713,0.1734 0.75424,0.34679 1.51117,0.28521 2.05462,-1.8778 4.10925,-3.75557 6.09661,-5.67392 0,0 0.0727,0.0226 0.7002,-0.18123 1.11136,-1.61193 2.22269,-3.22385 3.29358,-4.8543 0,0 0.0253,0.0366 0.61084,-0.29886 1.24618,-2.16441 2.4924,-4.32881 3.62353,-6.50758 0,0 0.0828,0.0811 0.66938,-0.22916 1.68151,-3.35432 3.363,-6.70865 5.21725,-10.246241 0,0 -0.009,-0.25166 0.53299,-0.76733 2.77313,-10.00487 6.10117,-19.90511 8.01816,-30.071416 0.67035,-3.555039 -2.13437,-7.765351 -3.61127,-12.363266 -5.2095,-8.227852 -7.31784,-8.78318 -15.88681,-5.726425 -3.67053,1.309379 -7.72848,1.606201 -11.63998,2.150947 -7.6778,1.069283 -15.556,1.284905 -23.01187,3.185372 -6.48087,1.651947 -12.43817,5.280273 -18.73166,7.770179 -4.848,1.918022 -9.85868,3.424774 -15.59397,5.109398 -4.90063,1.373299 -9.80456,2.734963 -14.70114,4.122528 -7.88824,2.235337 -15.77167,4.487773 -23.95727,6.762793 0,0 -0.29639,0.056 -1.22815,0.01 -3.04996,0.62102 -6.09995,1.24204 -9.67456,2.01887 -0.17603,0.048 -0.35205,0.096 -1.18305,-0.35006 -1.46747,-0.17074 -2.94497,-0.54961 -4.40085,-0.47948 -12.24823,0.58999 -24.49346,1.24499 -36.73629,1.93856 -1.11838,0.0634 -2.21372,0.53238 -4.12128,0.75313 -2.73462,-0.35289 -5.46924,-0.70578 -8.52911,-1.69133 -7.78299,-2.00787 -15.60413,-3.88077 -23.33725,-6.06524 -6.48955,-1.833164 -12.87648,-4.029613 -19.32186,-6.041103 0,0 0.0256,-0.0051 -0.39779,-0.596687 -1.61565,-0.477165 -3.2313,-0.95433 -5.07207,-1.455345 0,0 -0.22548,0.02026 -0.55164,-0.61055 -2.62031,-1.14093 -5.24063,-2.28186 -7.901,-3.450646 0,0 -0.0106,-0.04763 -0.28761,-0.650703 -5.26953,-2.415192 -10.53906,-4.830383 -15.7618,-7.242249 0,0 -0.008,0.0463 -0.36741,-0.543701 -2.54392,-1.160965 -5.08782,-2.32193 -7.65831,-3.439567 0,0 0.0219,-0.03834 -0.44895,-0.520973 -5.19534,-2.148186 -10.3907,-4.296372 -16.33275,-6.565812 -7.80349,-2.760872 -15.62098,-5.405338 -24.94175,-3.039802 -1.78955,0.07735 -3.57909,0.154709 -6.09842,0.136162 -2.0643,-0.656662 -4.1286,-1.313332 -6.85381,-2.23613 -3.780402,-2.027573 -7.560812,-4.055145 -11.327002,-6.730503 -0.69994,-0.641979 -1.39988,-1.283955 -2.01968,-2.030903 0,0 -0.0921,0.09555 -0.13577,-0.615887 -1.30669,-0.761955 -2.61337,-1.52391 -3.89191,-2.360801 0,0 -0.0549,0.05848 -0.29743,-0.396183 -0.30093,-0.153431 -0.60187,-0.306866 -0.79184,-0.498044 0,0 -0.0734,0.09138 -0.11644,-0.582176 -0.70502,-0.377529 -1.41005,-0.755054 -2.09504,-1.398868 0,0 -0.002,0.259525 -0.16723,-0.259991 -0.31726,-0.148659 -0.63452,-0.297318 -0.84699,-0.489742 0,0 -0.0446,0.104419 -0.17595,-0.496876 -0.50603,-0.280811 -1.01207,-0.561626 -1.4675,-0.906048 0,0 -0.0555,0.0598 -0.28785,-0.401634 -0.28988,-0.177292 -0.57977,-0.35458 -0.79145,-0.528435 0,0 -0.009,0.07772 -0.11128,-0.59378 -0.9145,-0.484871 -1.82901,-0.969742 -3.26753,-1.574784 -0.24518,-0.251209 -0.49036,-0.502418 -0.78787,-1.432045 -1.41355,-0.657413 -2.82709,-1.31483 -4.150889,-1.958816 0,0 -0.04366,0.07955 -0.18303,-0.603794 -2.99575,-2.207794 -5.867256,-5.512474 -9.981452,-0.786316 -0.248856,0.20063 -0.468804,0.429096 -1.019707,0.988395 -0.242882,0.202626 -0.455445,0.433197 -0.973198,1.010518 M 160.92865,177.77836 c 0.15161,-0.60763 0.30321,-1.21527 0.38538,-1.81027 0,0 0.0197,0.0678 0.59019,-0.46168 1.91678,-6.97301 2.92018,-13.92171 -0.56149,-21.17812 0,0 -0.14235,-0.40243 -0.074,-1.10443 -0.96658,-1.80293 -1.93315,-3.60585 -2.93059,-5.31574 0,0 0.0944,0.0266 0.004,-0.55534 -0.36607,-0.44166 -0.73216,-0.88335 -1.28798,-1.97763 -7.36703,-9.84315 -17.09631,-14.35608 -29.44536,-13.44374 -13.68011,1.01071 -24.51845,8.69739 -29.126962,21.31509 -3.40139,7.32451 -3.78777,14.46317 -0.86915,22.33527 5.401292,14.56844 19.213462,24.28903 34.695042,23.26173 11.95015,-0.79295 24.35866,-9.44441 27.63053,-19.09863 0.17434,-0.57501 0.34869,-1.15004 0.43107,-1.72658 0,0 0.005,0.0919 0.55887,-0.23993 z"
   id="path1965" />

























<path
   fill="#4a3a16"
   opacity="1"
   stroke="none"
   d="m 204.30038,60.692146 c -4.49829,-1.47937 -9.17323,-3.289032 -13.93698,-5.433456 4.52756,1.477882 9.14395,3.290527 13.93698,5.433456 z"
   id="path2017" />




<path
   fill="#48381d"
   opacity="1"
   stroke="none"
   d="m 353.11752,51.112755 c -2.11197,1.357689 -4.61218,2.597191 -7.50787,3.833382 2.10956,-1.319405 4.61459,-2.635491 7.50787,-3.833382 z"
   id="path2027" />








<path
   fill="#4a3a16"
   opacity="1"
   stroke="none"
   d="m 190.14497,54.636582 c -1.13508,-0.05746 -2.4241,-0.42833 -3.90434,-1.083954 1.12267,0.06702 2.43654,0.418785 3.90434,1.083954 z"
   id="path2045" />


<path
   fill="#463617"
   opacity="1"
   stroke="none"
   d="m 101.15884,24.669846 c -0.83841,-0.146 -1.791242,-0.592552 -2.822432,-1.36464 0.85044,0.137669 1.779242,0.600884 2.822432,1.36464 z"
   id="path2051" />






<path
   fill="#4a3a16"
   opacity="1"
   stroke="none"
   d="m 212.28651,63.725617 c -0.39746,0.128944 -0.99125,-0.0074 -1.83724,-0.318711 0.37884,-0.09882 1.00987,-0.02271 1.83724,0.318711 z"
   id="path2065" />
<path
   fill="#4a3a16"
   opacity="1"
   stroke="none"
   d="m 215.24277,64.750069 c -0.40567,0.114471 -0.99117,-0.04551 -1.81952,-0.392922 0.38466,-0.08547 1.01219,0.0165 1.81952,0.392922 z"
   id="path2067" />
<path
   fill="#4a3a16"
   opacity="1"
   stroke="none"
   d="m 209.21918,62.756424 c -0.38687,0.108879 -0.95362,-0.04409 -1.75959,-0.370117 0.36709,-0.07928 0.97338,0.01449 1.75959,0.370117 z"
   id="path2069" />











<path
   fill="#4a3a16"
   opacity="1"
   stroke="none"
   d="m 206.18802,61.793656 c -0.16155,0.06952 -0.46762,-0.09525 -0.95709,-0.449112 0.14859,-0.05444 0.48059,0.08019 0.95709,0.449112 z"
   id="path2093" />
<path
   fill="#463617"
   opacity="1"
   stroke="none"
   d="m 102.13808,25.766236 c -0.21128,0.104881 -0.4702,-0.09179 -0.77349,-0.592476 0.21053,-0.101952 0.46724,0.09637 0.77349,0.592476 z"
   id="path2095" />





<path
   fill="#ee9e27"
   opacity="1"
   stroke="none"
   d="m 198.41847,137.90603 c 0,0 0.43842,0.055 0.88425,0.41768 4.99261,1.11061 9.53941,1.8586 14.0862,2.60659 8.80308,0.3274 17.60815,0.61241 26.40741,1.02177 1.56317,0.0727 3.10226,0.66251 5.43878,1.29135 10.8699,0.13565 20.95349,-0.007 31.03711,-0.14868 6.71216,-0.37172 13.42434,-0.74344 20.94183,-0.84427 7.24405,-0.34018 13.70404,-0.7867 20.11472,-1.615 5.00787,-0.64708 9.95449,-1.76816 14.8663,-2.33098 -4.77948,8.37373 -8.50363,16.70474 -8.42508,26.44513 -2.17349,0.51997 -3.95249,0.93968 -5.74139,1.31175 -34.49747,7.17499 -69.30063,8.15944 -104.10395,3.52682 -12.52032,-1.66658 -24.65625,-6.22114 -36.9676,-9.45773 -0.83933,-2.94818 -1.72724,-5.88354 -2.50896,-8.84692 -2.43915,-9.24613 -7.92952,-16.45401 -15.0535,-23.01021 -0.0517,-0.39047 0.12959,-0.56668 0.47952,-0.47948 1.87285,0.69803 3.36931,1.38796 4.92289,1.90695 10.97821,3.66748 21.52415,9.12221 33.62147,8.20523 z"
   id="path2107" />
<path
   fill="#f5e295"
   opacity="1"
   stroke="none"
   d="m 159.3679,179.97694 c -2.70106,9.42215 -15.10957,18.07361 -27.05972,18.86656 -15.48158,1.0273 -29.29375,-8.69329 -34.695042,-23.26173 -2.91862,-7.8721 -2.53224,-15.01076 1.4645,-22.60613 9.079052,-3.29296 17.649042,-5.82147 26.799242,-3.96746 2.26788,0.45953 5.3348,0.10414 4.90275,3.88881 -4.24649,0.0596 -8.03395,0.0596 -12.51086,0.0596 0,7.25057 -0.0847,14.03029 0.10483,20.80235 0.0243,0.8682 1.45391,2.40732 2.26786,2.4312 6.74189,0.19786 13.4921,0.11203 19.8142,0.11203 0,-7.2552 0,-13.82968 0.35762,-20.38135 1.96316,0.82076 3.82792,1.32346 5.13025,2.46679 6.28198,5.51498 10.37135,12.43196 12.55769,20.75354 0.29947,0.5041 0.55025,0.70994 0.86668,0.83581 z"
   id="path2109" />

<path
   fill="#cdbb6f"
   opacity="1"
   stroke="none"
   d="m 158.3869,178.92283 c -2.07202,-8.10328 -6.16139,-15.02026 -12.44337,-20.53524 -1.30233,-1.14333 -3.16709,-1.64603 -5.13591,-2.78244 -3.43184,-1.14824 -6.50038,-1.958 -9.56894,-2.76775 -0.027,-3.72508 -3.09392,-3.36969 -5.3618,-3.82922 -9.1502,-1.85401 -17.72019,0.6745 -26.594582,3.66679 3.808502,-12.04617 14.646842,-19.73285 28.326952,-20.74356 12.34905,-0.91234 22.07833,3.60059 29.59885,14.05679 0.51045,1.05753 0.86742,1.50202 1.22439,1.94651 0,0 -0.0944,-0.0266 -0.0908,0.29394 0.95528,2.11275 1.90699,3.90497 2.85871,5.69721 0,0 0.14235,0.40243 0.12503,1.06031 -0.009,7.45516 -2e-4,14.25241 0.008,21.04969 0,0 -0.0197,-0.0678 -0.21683,0.13322 -0.37887,0.78102 -0.56065,1.36105 -0.74244,1.94107 0,0 -0.005,-0.0919 -0.23204,-0.008 -0.73674,0.32941 -1.24614,0.57512 -1.75556,0.82083 z"
   id="path2113" />
<path
   fill="#ec9e2b"
   opacity="1"
   stroke="none"
   d="m 96.420128,111.02255 c -12.49375,-12.506118 -16.17282,-35.242162 -7.63665,-49.129056 0.27534,-0.234307 0.41531,-0.05902 0.42726,0.487198 1.01224,5.012832 1.10197,9.981315 3.2232,13.83014 3.29957,5.98679 7.793802,11.36576 12.168132,16.68453 1.73057,2.10422 4.49639,3.35702 6.79084,4.99749 0,0 -0.0715,0.007 -0.0156,0.3284 1.71122,1.43475 3.36655,2.547878 5.02188,3.661008 0,0 -0.0983,0.0206 0.0522,0.18964 0.41872,0.40659 0.68697,0.64419 0.9552,0.88179 0,0 -0.13476,-0.004 0.0211,0.14661 0.41837,0.38755 0.6809,0.62412 0.94342,0.86071 0,0 -0.0859,-0.0288 -0.022,0.28055 1.48911,1.76605 2.7841,3.38635 4.3662,4.64606 3.45892,2.75412 7.06364,5.32512 10.14695,7.99611 -7.39254,1.15547 -14.42964,1.87057 -21.20521,3.60641 -2.9968,0.76778 -4.78105,0.8306 -6.87673,-1.44848 -2.60855,-2.83689 -5.557952,-5.36033 -8.360172,-8.01911 z"
   id="path2115" />
<path
   fill="#f3dc91"
   opacity="1"
   stroke="none"
   d="m 176.86621,160.51433 c 12.40219,2.85272 24.53812,7.40728 37.05844,9.07386 34.80332,4.63262 69.60648,3.64817 104.10395,-3.52682 1.7889,-0.37207 3.5679,-0.79178 5.99642,-1.24069 0.80747,0.0162 0.97007,0.0837 1.00214,0.48007 -1.77792,1.4722 -3.27847,3.20605 -5.09781,3.65875 -8.81976,2.19458 -17.72503,4.04537 -26.60003,6.01796 -16.05045,0.82686 -32.09357,2.03626 -48.15397,2.34564 -10.65484,0.20525 -21.42814,-0.18088 -31.9743,-1.59804 -8.91415,-1.19789 -17.57808,-4.25823 -26.35246,-6.49537 -1.27903,-0.32611 -2.55963,-0.95059 -3.83405,-0.93668 -5.17372,0.0564 -7.0421,-2.4982 -6.14833,-7.77868 z"
   id="path2117" />
<path
   fill="#ec9f2b"
   opacity="1"
   stroke="none"
   d="m 394.33618,108.08653 c 0,0 0.37341,-0.13843 0.93482,-0.19376 2.35321,-1.72674 4.14502,-3.39816 5.93685,-5.0696 0,0 0.0205,0.10861 0.18479,-0.0418 0.40039,-0.42063 0.6365,-0.69087 0.87259,-0.96111 0,0 8.8e-4,0.1335 0.15036,-0.0265 0.38257,-0.43047 0.61569,-0.70092 0.84878,-0.97139 0,0 -0.0192,0.10082 0.28205,0.0419 2.08654,-2.383068 3.87185,-4.707278 5.65713,-7.031468 3e-5,0 0.004,0.0722 0.31043,-5.9e-4 1.43954,-1.70786 2.57266,-3.34288 3.70575,-4.97789 0,0 0.0133,0.0688 0.36273,0.038 1.10986,-1.69962 1.8703,-3.36838 2.63074,-5.03715 0,1e-5 0.0182,0.0691 0.33548,-0.0311 1.08657,-2.0695 1.85589,-4.0388 2.62521,-6.00809 0,0 0.0287,0.11492 0.20141,-0.0861 0.38904,-0.76991 0.60532,-1.33883 0.8216,-1.907748 0,0 0.0396,0.122596 0.21936,-0.118729 0.39139,-1.140633 0.603,-2.039947 0.81464,-2.939262 0,0 0.0164,-0.397446 0.39166,-0.686585 0.83618,-1.884666 1.29703,-3.480202 1.75784,-5.075737 1.05954,-1.938141 2.11911,-3.876282 3.71835,-5.670868 3.19843,10.412155 -1.32852,27.195299 -6.94345,30.825709 0.47467,2.81376 0.85016,5.03971 1.22568,7.26565 0,0 0.009,0.25166 -0.40509,0.45419 -2.07278,3.586358 -3.73102,6.970178 -5.38928,10.353998 0,0 -0.0828,-0.0811 -0.37933,0.0127 -1.5019,2.31228 -2.70722,4.53074 -3.91254,6.7492 -3e-5,-1e-5 -0.0253,-0.0366 -0.3602,0.008 -1.41867,1.70089 -2.50247,3.35724 -3.58627,5.0136 3e-5,0 -0.0726,-0.0226 -0.38977,0.006 -3.17127,1.33495 -5.30146,4.76097 -9.48194,2.93317 -2.91012,-1.17555 -5.52209,-2.22731 -8.13406,-3.27905 0,0 0.0385,0.0967 -0.12332,-0.2143 -2.80988,-1.3929 -5.45795,-2.47475 -8.10605,-3.55659 0.17984,-0.27846 0.35971,-0.55692 1.15732,-0.91747 2.39105,-1.44298 4.1644,-2.80388 5.93774,-4.16476 0,-2e-5 0.01,0.0714 0.32984,0.0693 1.11135,-0.70247 1.90264,-1.40283 2.69396,-2.10321 5.2e-4,-0.32819 0.13987,-0.57934 0.86219,-0.95712 0.68912,-0.46758 0.93405,-0.73149 1.17901,-0.99541 0,0 -0.0318,0.12309 0.13373,0.003 0.46744,-0.27318 0.72199,-0.48343 0.92926,-0.7509 z"
   id="path2119" />
<path
   fill="#f6cd13"
   opacity="1"
   stroke="none"
   d="m 101.93234,39.856724 c -2.308232,1.778614 -4.902322,3.501644 -7.595972,5.051632 -4.08962,2.353248 -8.24837,4.586357 -12.85303,6.71804 -1.82869,-1.582298 -3.18209,-3.012138 -4.53549,-4.441986 0,0 0.15187,-0.07008 0.12673,-0.360397 -1.25606,-1.490852 -2.48697,-2.691391 -3.71788,-3.89193 0,0 -0.0693,-0.0016 -0.11224,-0.358246 -1.00392,-1.113311 -1.96487,-1.870018 -2.925818,-2.626731 0,0 -0.05215,0.0137 -0.08982,-0.352364 -4.401512,-3.376431 -8.76535,-6.386799 -13.129181,-9.397167 0,0 0.08681,-0.158684 -0.0914,-0.426762 -1.052841,-2.483208 -1.927475,-4.698334 -2.783417,-6.881828 0.01869,0.03164 -0.04507,0.06816 0.201477,-0.110779 0.447884,-0.733856 0.649201,-1.28878 0.855972,-1.827141 0.0054,0.01656 -0.02913,0.02103 0.194214,-0.12455 0.376953,-0.460567 0.530564,-0.775562 0.699257,-1.028812 0.01508,0.06174 -0.111023,0.07768 0.19619,-0.03482 0.857033,-0.9935 1.406845,-1.8745 1.929123,-2.779487 -0.02754,-0.02399 0.02045,0.03102 0.352539,-0.02802 1.081238,-0.835407 1.830391,-1.611785 2.839432,-2.596077 2.618446,0.590848 4.976997,1.389615 7.335541,2.188382 0,0 0.04366,-0.07955 0.192535,0.171055 1.450699,0.962608 2.752527,1.674621 4.054347,2.386631 0.24518,0.251209 0.49036,0.502418 1.14991,1.073421 1.26129,0.855362 2.10822,1.390926 2.95514,1.926491 0,0 0.009,-0.07772 0.0675,0.169784 0.36066,0.412457 0.6631,0.577412 0.96552,0.742367 0,0 0.0555,-0.0598 0.15757,0.223263 0.56694,0.596802 1.03187,0.910538 1.49681,1.224277 0,0 0.0446,-0.104419 0.11341,0.145649 0.36042,0.419773 0.65204,0.589482 0.94366,0.75919 0,0 0.002,-0.259525 0.13327,0.125935 0.75653,0.819297 1.38156,1.253131 2.00659,1.686966 0,0 0.0734,-0.09138 0.12422,0.169101 0.36175,0.404392 0.67266,0.548306 0.98358,0.692219 0,0 0.0549,-0.05848 0.19151,0.256859 1.3574,1.129192 2.57817,1.943046 3.79893,2.756904 0,0 0.0921,-0.09555 0.19342,0.207016 0.70227,0.993756 1.30321,1.684941 1.90415,2.376122 3.7804,2.027573 7.56081,4.055145 11.671671,6.215786 z"
   id="path2121" />
<path
   fill="#d49f47"
   opacity="1"
   stroke="none"
   d="m 96.376738,111.37045 c 2.84561,2.31088 5.795012,4.83432 8.403562,7.67121 2.09568,2.27908 3.87993,2.21626 6.87673,1.44848 6.77557,-1.73584 13.81267,-2.45094 21.64122,-3.58572 2.66118,0.0154 4.42453,0.0352 6.18786,0.0551 3.05303,1.57303 6.10604,3.14604 9.47928,4.8647 -12.95804,-4.44736 -26.11667,-5.05289 -39.25569,0.86507 -2.60506,1.17334 -5.19646,0.99939 -6.95865,-2.42549 -1.60661,-3.12253 -4.237992,-5.71781 -6.374312,-8.89336 z"
   id="path2123" />


<path
   fill="#d19856"
   opacity="1"
   stroke="none"
   d="m 421.65216,99.164482 c -0.6467,-1.9681 -1.02219,-4.19405 -1.49686,-7.00781 5.61493,-3.63041 10.14188,-20.413554 7.25373,-30.976649 -0.4599,-1.316169 -0.6904,-2.337852 -0.87027,-3.690376 1.26843,3.580238 4.07315,7.79055 3.4028,11.345589 -1.91699,10.166306 -5.24503,20.066546 -8.2894,30.329246 z"
   id="path2129" />

<path
   fill="#d49d53"
   opacity="1"
   stroke="none"
   d="m 325.15765,164.97192 c -0.16256,-0.0675 -0.32516,-0.13508 -0.74276,-0.2737 -0.72345,-9.68899 3.0007,-18.02 7.78158,-26.70901 0.0631,-0.87311 0.0627,-1.08328 0.0623,-1.29349 1.42605,-0.92734 2.85214,-1.85467 4.6821,-2.49637 0.40387,0.28566 0.40121,0.78527 0.40121,0.78527 0,0 -0.0622,-0.0261 -0.30563,0.14415 -0.48853,0.69636 -0.73364,1.22244 -0.97876,1.74852 -3e-5,0 0.1134,0.0272 -0.1597,0.0292 -0.44379,0.33555 -0.61447,0.66911 -0.78513,1.00268 0,0 0.0795,-0.015 -0.18838,0.098 -0.52896,0.64047 -0.79004,1.16788 -1.05115,1.6953 0,0 0.08,0.0618 -0.12631,0.15124 -0.33655,0.41416 -0.46683,0.73892 -0.59711,1.06369 -5.42679,6.72316 -5.96176,14.94042 -7.29504,23.48862 -0.27121,0.49191 -0.69721,0.56584 -0.69721,0.56584 z"
   id="path2133" />
<path
   fill="#433b38"
   opacity="1"
   stroke="none"
   d="m 354.24506,135.93545 c 9.59887,-7.30676 23.5339,-7.95248 34.79089,-1.22975 0.13666,0.37605 -0.0382,0.58223 -0.39691,0.47821 -11.73233,-4.3584 -22.92197,-4.3687 -33.99579,1.19864 -0.13235,-0.14937 -0.39819,-0.4471 -0.39819,-0.4471 z"
   id="path2135" />
<path
   fill="#433b38"
   opacity="1"
   stroke="none"
   d="m 342.22113,181.00819 c -1.50354,-4.11957 -4.06775,-8.18251 -4.29132,-12.37041 -0.47546,-8.90635 0.24939,-17.88285 7.9335,-24.65278 0.39545,-0.0454 0.54126,0.0886 0.41043,0.4122 -8.2525,11.58717 -9.01199,23.55627 -3.68417,36.24301 -0.12296,0.12254 -0.36847,0.36798 -0.36844,0.36798 z"
   id="path2137" />
<path
   fill="#e5d8ab"
   opacity="1"
   stroke="none"
   d="m 325.02716,165.30075 c 0.13049,-0.32883 0.55649,-0.40276 0.75916,-0.48036 0.97872,3.05957 0.0565,4.76301 -3.43058,5.31576 -9.40927,1.49144 -18.77307,3.26985 -28.59066,4.88785 8.43924,-2.01913 17.34451,-3.86992 26.16427,-6.0645 1.81934,-0.4527 3.31989,-2.18655 5.09781,-3.65875 z"
   id="path2139" />





<path
   fill="#d8bc3f"
   opacity="1"
   stroke="none"
   d="m 57.281355,30.464195 c 4.182114,2.743748 8.545952,5.754116 12.95404,9.104401 -4.227943,-2.719311 -8.500137,-5.778542 -12.95404,-9.104401 z"
   id="path2151" />
<path
   fill="#433b38"
   opacity="1"
   stroke="none"
   d="m 405.13153,153.96495 c -0.31372,0.0954 -0.58334,-0.21562 -0.97436,-1.02487 -0.18049,-0.85154 -0.38926,-1.03023 -0.74772,-1.03434 0,0 0.008,-0.0817 -0.10955,-0.41961 -2.18152,-3.65157 -4.24585,-6.96524 -6.23123,-10.35404 0.0789,-0.0751 0.23355,-0.22877 0.23358,-0.22879 2.62445,4.21842 5.2489,8.43682 7.82928,13.06165 z"
   id="path2153" />
<path
   fill="#c3b68b"
   opacity="1"
   stroke="none"
   d="m 161.61899,175.77113 c -0.29378,-6.53255 -0.30232,-13.3298 -0.28882,-20.57158 3.49423,6.38515 2.49083,13.33385 0.28882,20.57158 z"
   id="path2155" />

<path
   fill="#d19856"
   opacity="1"
   stroke="none"
   d="m 397.77472,125.07692 c 3.88232,1.70402 6.01251,-1.722 9.21741,-3.03667 -1.70386,1.86945 -3.75849,3.74722 -6.19349,5.48372 -0.76568,-0.30022 -1.15103,-0.45914 -1.53637,-0.61807 0,1e-5 0.0108,0.0582 -0.0961,-0.23136 -0.5351,-0.72557 -0.96329,-1.16159 -1.39148,-1.59762 z"
   id="path2159" />
<path
   fill="#d19856"
   opacity="1"
   stroke="none"
   d="m 415.87988,110.07536 c 1.36499,-3.22867 3.02323,-6.61249 5.00962,-10.107218 -1.35334,3.243428 -3.03483,6.597758 -5.00962,10.107218 z"
   id="path2161" />

<path
   fill="#4b3c1b"
   opacity="1"
   stroke="none"
   d="m 188.41678,67.592484 c -2.47716,-0.821869 -5.1174,-1.959153 -7.89084,-3.417321 2.48712,0.820054 5.10744,1.960984 7.89084,3.417321 z"
   id="path2165" />

<path
   fill="#48381d"
   opacity="1"
   stroke="none"
   d="m 338.59637,133.91273 c 1.75611,-1.97543 3.84952,-4.00338 6.31464,-6.00253 -1.74466,2.00255 -3.86096,3.97629 -6.31464,6.00253 z"
   id="path2169" />
<path
   fill="#48381d"
   opacity="1"
   stroke="none"
   d="m 68.758879,16.206017 c -2.288857,-0.457096 -4.647408,-1.255863 -7.557389,-1.746113 -0.926994,0.466434 -1.302543,0.624355 -1.789611,0.665058 -0.111527,-0.117218 -0.336777,-0.349545 -0.336777,-0.349545 3.746841,-4.423545 6.618347,-1.118865 9.683777,1.4306 z"
   id="path2171" />

<path
   fill="#d8bc3f"
   opacity="1"
   stroke="none"
   d="m 54.206129,22.85735 c 0.874634,2.215129 1.749268,4.430255 2.743935,6.982723 -1.289551,-0.323021 -2.699135,-0.98338 -4.340164,-2.172661 -0.173737,-1.22031 -0.116036,-1.911697 -0.05833,-2.603088 0,0 -0.08411,-0.03784 0.149162,-0.180848 0.367371,-0.737979 0.501465,-1.332954 0.635567,-1.927929 0,0 -0.06051,0.02191 0.18525,0.02198 0.245765,6.1e-5 0.684585,-0.120174 0.684585,-0.120174 z"
   id="path2175" />
<path
   fill="#4a3b15"
   opacity="1"
   stroke="none"
   d="m 302.04532,79.879522 c -2.67752,0.63215 -5.82089,1.24108 -9.29004,1.84494 2.72421,-0.62611 5.7742,-1.24713 9.29004,-1.84494 z"
   id="path2177" />
<path
   fill="#d8bc3f"
   opacity="1"
   stroke="none"
   d="m 77.035538,47.52314 c 1.26571,1.091118 2.61911,2.520958 4.13799,4.249649 0.39696,1.374558 0.62843,2.450256 0.83527,3.88134 -1.64493,-2.360496 -3.26526,-5.076378 -4.97326,-8.130989 z"
   id="path2179" />
<path
   fill="#d19856"
   opacity="1"
   stroke="none"
   d="m 411.58749,116.82469 c 0.91257,-2.05074 2.11789,-4.2692 3.67728,-6.5743 -0.89212,2.07776 -2.13834,4.24216 -3.67728,6.5743 z"
   id="path2181" />

<path
   fill="#d19856"
   opacity="1"
   stroke="none"
   d="m 407.66205,121.91203 c 0.77002,-1.55443 1.85382,-3.21078 3.29272,-4.9024 -0.75625,1.57664 -1.86758,3.18856 -3.29272,4.9024 z"
   id="path2185" />
<path
   fill="#d8bc3f"
   opacity="1"
   stroke="none"
   d="m 73.452938,43.234512 c 1.13467,0.89811 2.36558,2.098649 3.56247,3.648591 -1.17809,-0.882439 -2.32216,-2.114304 -3.56247,-3.648591 z"
   id="path2187" />

<path
   fill="#c3b68b"
   opacity="1"
   stroke="none"
   d="m 161.23456,153.57486 c -0.9859,-1.44124 -1.93761,-3.23346 -2.87744,-5.39275 0.97845,1.4359 1.94502,3.23882 2.87744,5.39275 z"
   id="path2191" />
<path
   fill="#48381d"
   opacity="1"
   stroke="none"
   d="m 351.48718,123.99318 c 1.42478,-0.9301 3.23291,-1.86896 5.39173,-2.82823 -1.43567,0.92622 -3.22202,1.87284 -5.39173,2.82823 z"
   id="path2193" />
<path
   fill="#4b3c1b"
   opacity="1"
   stroke="none"
   d="m 194.08907,69.638764 c -1.50005,-0.146119 -3.21177,-0.588028 -4.99105,-1.378617 1.54808,0.128495 3.16373,0.60566 4.99105,1.378617 z"
   id="path2195" />


<path
   fill="#ee9e27"
   opacity="1"
   stroke="none"
   d="m 155.27989,124.74791 c 1.20351,-0.0976 2.43505,0.1636 3.86417,1.07838 0.25844,1.06247 0.31927,1.47142 0.38012,1.88036 0,0 -0.18128,0.17621 -0.27211,0.26416 -1.37525,-0.89604 -2.65971,-1.88005 -3.97218,-3.2229 z"
   id="path2201" />
<path
   fill="#433b38"
   opacity="1"
   stroke="none"
   d="m 389.26059,134.97914 c 1.37033,0.65532 2.65265,1.41325 4.00009,2.54663 0.0651,0.37544 -0.0358,0.48543 -0.33673,0.38576 -1.50934,-0.94098 -2.71777,-1.78229 -3.92618,-2.6236 0,0 0.17484,-0.20618 0.26282,-0.30879 z"
   id="path2203" />


<path
   fill="#48381d"
   opacity="1"
   stroke="none"
   d="m 88.141268,30.70208 c -1.19893,-0.458138 -2.4197,-1.271992 -3.79118,-2.363716 1.15597,0.484089 2.46265,1.246044 3.79118,2.363716 z"
   id="path2209" />
<path
   fill="#48381d"
   opacity="1"
   stroke="none"
   d="m 73.049288,18.766167 c -1.27566,-0.372803 -2.577488,-1.084816 -4.073063,-2.054142 1.219803,0.400101 2.633343,1.057518 4.073063,2.054142 z"
   id="path2211" />
<path
   fill="#d8bc3f"
   opacity="1"
   stroke="none"
   d="m 70.425138,40.233002 c 0.85445,0.470817 1.8154,1.227524 2.82465,2.30661 -0.87384,-0.458656 -1.79599,-1.239685 -2.82465,-2.30661 z"
   id="path2213" />


<path
   fill="#88711d"
   opacity="1"
   stroke="none"
   d="m 114.99594,41.899628 c -1.5003,0.324097 -3.44244,0.572189 -5.59753,0.488167 1.57661,-0.409462 3.36615,-0.486817 5.59753,-0.488167 z"
   id="path2219" />
<path
   fill="#48381d"
   opacity="1"
   stroke="none"
   d="m 347.58576,125.96061 c 0.49795,-0.66612 1.33831,-1.33454 2.51757,-1.95674 -0.49908,0.6823 -1.33713,1.31838 -2.51757,1.95674 z"
   id="path2221" />
<path
   fill="#48381d"
   opacity="1"
   stroke="none"
   d="m 52.263647,25.160248 c 0.230217,0.595467 0.172516,1.286854 0.06596,2.319839 -0.150528,-0.513572 -0.252197,-1.368743 -0.06596,-2.319839 z"
   id="path2223" />
<path
   fill="#48381d"
   opacity="1"
   stroke="none"
   d="m 77.129518,21.769535 c -0.79594,-0.199814 -1.64287,-0.735378 -2.64215,-1.530651 0.76214,0.225159 1.67665,0.71003 2.64215,1.530651 z"
   id="path2225" />

<path
   fill="#433b38"
   opacity="1"
   stroke="none"
   d="m 346.186,143.87237 c 0.46289,-0.91589 0.99854,-1.76458 1.92136,-2.66951 0.38721,-0.0562 0.65506,0.18042 0.51483,0.44776 -0.8327,0.98588 -1.52514,1.70443 -2.21762,2.42299 0,0 -0.14581,-0.13404 -0.21857,-0.20124 z"
   id="path2229" />
<path
   fill="#48381d"
   opacity="1"
   stroke="none"
   d="m 90.267778,33.317047 c -0.60805,-0.36729 -1.20899,-1.058475 -1.95133,-1.99974 0.55855,0.391891 1.25849,1.033867 1.95133,1.99974 z"
   id="path2231" />

<path
   fill="#48381d"
   opacity="1"
   stroke="none"
   d="m 345.55966,127.89546 c 0.155,-0.5851 0.61505,-1.24135 1.40155,-1.92581 -0.14789,0.59941 -0.62219,1.22703 -1.40155,1.92581 z"
   id="path2235" />
<path
   fill="#48381d"
   opacity="1"
   stroke="none"
   d="m 83.043338,26.845936 c -0.60351,-0.09705 -1.22854,-0.530888 -1.99509,-1.217037 0.56351,0.125206 1.26854,0.502731 1.99509,1.217037 z"
   id="path2237" />
<path
   fill="#c3b68b"
   opacity="1"
   stroke="none"
   d="m 158.50122,179.14113 c 0.3951,-0.46401 0.9045,-0.70972 1.68721,-1.03836 0.099,0.49206 -0.0754,1.06709 -0.53513,1.75814 -0.60183,-0.01 -0.85261,-0.21568 -1.15208,-0.71978 z"
   id="path2239" />

<path
   fill="#48381d"
   opacity="1"
   stroke="none"
   d="m 54.224821,22.888985 c -0.01869,-0.03163 -0.457512,0.0886 -0.683655,0.114036 -0.0985,-0.572513 0.02912,-1.170459 0.44262,-1.91426 0.285865,-0.145848 0.474083,0.05007 0.416649,0.352684 -0.111855,0.706974 -0.166268,1.111339 -0.220688,1.515701 0,0 0.06377,-0.03653 0.04507,-0.06816 z"
   id="path2243" />
<path
   fill="#48381d"
   opacity="1"
   stroke="none"
   d="m 79.802258,24.16433 c -0.39927,-0.01309 -0.8642,-0.326828 -1.45645,-0.891827 0.37872,0.02955 0.88476,0.310368 1.45645,0.891827 z"
   id="path2245" />
<path
   fill="#48381d"
   opacity="1"
   stroke="none"
   d="m 53.102766,23.158447 c 0.09943,0.392075 -0.03467,0.98705 -0.417374,1.768525 -0.104454,-0.397545 0.03969,-0.981583 0.417374,-1.768525 z"
   id="path2247" />

<path
   fill="#c3b68b"
   opacity="1"
   stroke="none"
   d="m 160.65158,177.94426 c -0.0953,-0.41413 0.0865,-0.99416 0.50008,-1.78148 0.0802,0.40031 -0.0714,1.00795 -0.50008,1.78148 z"
   id="path2251" />
<path
   fill="#48381d"
   opacity="1"
   stroke="none"
   d="m 55.024618,19.742664 c 0.220673,-0.524772 0.441338,-1.049541 0.986717,-1.658832 0.324707,-0.08452 0.575989,0.155506 0.471116,0.42437 -0.20916,0.634968 -0.313454,1.001075 -0.41774,1.367183 7e-6,0 0.126114,-0.01594 -0.114281,-0.04071 -0.240395,-0.02478 -0.668106,0.132443 -0.732536,0.07633 -0.06442,-0.05611 -0.193276,-0.168339 -0.193276,-0.168339 z"
   id="path2253" />

<path
   fill="#c3b68b"
   opacity="1"
   stroke="none"
   d="m 158.38754,147.64375 c -0.31202,-0.15353 -0.66899,-0.59802 -1.08458,-1.32925 0.30747,0.15493 0.67356,0.59662 1.08458,1.32925 z"
   id="path2257" />

<path
   fill="#433b38"
   opacity="1"
   stroke="none"
   d="m 393.37634,137.84627 c 0.54074,0.19709 1.03098,0.44915 1.61035,1.02072 0.0891,0.31952 -0.12484,0.56656 -0.36889,0.4367 -0.62702,-0.51739 -1.00995,-0.90495 -1.39288,-1.29251 0,2e-5 0.10089,-0.10997 0.15142,-0.16491 z"
   id="path2261" />
<path
   fill="#48381d"
   opacity="1"
   stroke="none"
   d="m 336.31421,136.72539 c -0.0114,-0.37418 0.2337,-0.90026 0.74158,-1.56897 0.0134,0.37725 -0.23581,0.89717 -0.74158,1.56897 z"
   id="path2263" />
<path
   fill="#433b38"
   opacity="1"
   stroke="none"
   d="m 350.24426,138.93902 c 0.46771,-0.31219 0.93546,-0.62439 1.73218,-0.94343 0.32901,-0.007 0.43832,0.12094 0.30499,0.36125 -0.57928,0.55942 -1.0252,0.87852 -1.61224,1.04338 -0.14105,-0.15425 -0.42493,-0.4612 -0.42493,-0.4612 z"
   id="path2265" />
<path
   fill="#48381d"
   opacity="1"
   stroke="none"
   d="m 334.14801,139.56514 c -0.0136,-0.39003 0.2475,-0.91744 0.7663,-1.59705 0.008,0.3851 -0.24186,0.9224 -0.7663,1.59705 z"
   id="path2267" />

<path
   fill="#48381d"
   opacity="1"
   stroke="none"
   d="m 58.047911,15.763428 c 0.191032,-0.256302 0.41098,-0.484768 0.843513,-0.836704 0.183678,-0.151307 0.408928,0.08102 0.402497,0.404277 -0.220269,0.571278 -0.485466,0.737217 -0.912995,0.723881 -0.110969,-0.09719 -0.333015,-0.291454 -0.333015,-0.291454 z"
   id="path2271" />

<path
   fill="#48381d"
   opacity="1"
   stroke="none"
   d="m 57.050344,16.758145 c 0.182251,-0.258523 0.394814,-0.489094 0.817635,-0.84322 0.179932,-0.151497 0.401978,0.04276 0.464409,0.35437 0.06243,0.311607 -0.01089,0.745121 -0.01089,0.745121 0,0 -0.04799,-0.05501 -0.239121,0.005 -0.191131,0.05999 -0.625145,0.147865 -0.726349,0.04507 -0.101196,-0.102803 -0.305687,-0.306324 -0.305687,-0.306324 z"
   id="path2275" />





<path
   fill="#48381d"
   opacity="1"
   stroke="none"
   d="m 335.34222,137.77461 c -0.0587,-0.19899 0.11197,-0.53255 0.56678,-0.92541 0.0769,0.22409 -0.13022,0.50747 -0.56678,0.92541 z"
   id="path2287" />
<path
   fill="#433b38"
   opacity="1"
   stroke="none"
   d="m 353.21039,136.9078 c 0.18545,-0.26013 0.4021,-0.49098 0.84228,-0.83245 0.19239,-0.1399 0.45823,0.15783 0.42847,0.48246 -0.27832,0.53519 -0.56195,0.67426 -0.97766,0.64341 -0.097,-0.0985 -0.29309,-0.29342 -0.29309,-0.29342 z"
   id="path2289" />
<path
   fill="#48381d"
   opacity="1"
   stroke="none"
   d="m 337.54956,134.86287 c -0.20749,0.12175 -0.20483,-0.37786 -0.26984,-0.61905 0.11231,-0.26064 0.28962,-0.28008 0.73447,-0.29851 0.16998,0.317 -0.005,0.58194 -0.46463,0.91756 z"
   id="path2291" />
<path
   fill="#422f1a"
   opacity="1"
   stroke="none"
   d="m 399.46506,127.14299 c 0.18255,-0.0782 0.5679,0.0808 1.14371,0.49847 -0.18668,0.0854 -0.56379,-0.088 -1.14371,-0.49847 z"
   id="path2293" />
<path
   fill="#433b38"
   opacity="1"
   stroke="none"
   d="m 352.25226,137.92357 c 0.13418,-0.31377 0.3471,-0.53816 0.77185,-0.87705 0.18628,-0.13872 0.38232,0.0562 0.33154,0.35385 -0.3103,0.51622 -0.60699,0.65575 -0.94089,0.71616 0,0 -0.10931,-0.12781 -0.1625,-0.19296 z"
   id="path2295" />
<path
   fill="#d49f47"
   opacity="1"
   stroke="none"
   d="m 149.32191,122.18835 c 0.18854,-0.0485 0.46854,0.11756 0.78551,0.53104 -0.26149,0.13046 -0.50516,-0.0575 -0.78551,-0.53104 z"
   id="path2297" />
<path
   fill="#433b38"
   opacity="1"
   stroke="none"
   d="m 348.36145,141.02745 c 0.0498,-0.37921 0.25851,-0.61647 0.80658,-0.84671 0.31351,-0.0157 0.56927,0.24541 0.44702,0.4427 -0.32086,0.44309 -0.5643,0.6306 -0.85263,0.75984 0,0 -0.26785,-0.23663 -0.40097,-0.35583 z"
   id="path2299" />
<path
   fill="#48381d"
   opacity="1"
   stroke="none"
   d="m 54.176298,20.844238 c 0.09728,-0.338543 0.29995,-0.567791 0.681481,-0.943992 0.166839,-0.157582 0.295692,-0.04535 0.344566,0.261761 0.04951,0.474773 0.05016,0.642429 0.0508,0.810089 0,0 0.03458,-0.0045 -0.177101,0.02422 -0.211677,0.02869 -0.618171,0.142517 -0.618171,0.142517 0,0 -0.188218,-0.195919 -0.281571,-0.294594 z"
   id="path2301" />
<path
   fill="#48381d"
   opacity="1"
   stroke="none"
   d="m 78.097398,22.78672 c -0.18627,0.06576 -0.48871,-0.09919 -0.88848,-0.51337 0.19256,-0.07193 0.48245,0.105358 0.88848,0.51337 z"
   id="path2303" />
<path
   fill="#48381d"
   opacity="1"
   stroke="none"
   d="m 80.842268,25.110058 c -0.20889,0.09005 -0.50051,-0.07966 -0.91331,-0.477551 0.19606,-0.07953 0.51332,0.06913 0.91331,0.477551 z"
   id="path2305" />
<path
   fill="#48381d"
   opacity="1"
   stroke="none"
   d="m 84.051378,27.816708 c -0.18964,0.08342 -0.50055,-0.0605 -0.91778,-0.446018 0.19462,-0.08818 0.49556,0.06526 0.91778,0.446018 z"
   id="path2307" />
<path
   fill="#433b38"
   opacity="1"
   stroke="none"
   d="m 396.2981,139.91403 c 0.26464,0.17476 0.50186,0.38106 0.85791,0.80409 0.14621,0.1852 -0.008,0.33887 -0.30634,0.31891 -0.58145,-0.18776 -0.79218,-0.42126 -0.8349,-0.82059 0.0952,-0.10011 0.28333,-0.30241 0.28333,-0.30241 z"
   id="path2309" />
<path
   fill="#48381d"
   opacity="1"
   stroke="none"
   d="m 56.211515,17.878147 c 0.0745,-0.357315 0.283791,-0.583996 0.671082,-0.960605 0.167747,-0.159397 0.372238,0.04412 0.388062,0.369613 -0.1419,0.618431 -0.374955,0.827328 -0.683335,0.952183 0,0 -0.251282,-0.240021 -0.375809,-0.361191 z"
   id="path2311" />
<path
   fill="#48381d"
   opacity="1"
   stroke="none"
   d="m 333.35431,140.75914 c -0.0741,-0.16645 0.0562,-0.49121 0.41797,-0.94919 0.0832,0.1748 -0.0652,0.48283 -0.41797,0.94919 z"
   id="path2313" />
<path
   fill="#433b38"
   opacity="1"
   stroke="none"
   d="m 395.18332,139.06341 c 0.36917,0.0515 0.60605,0.25504 0.96646,0.66901 0.14832,0.18161 -0.0398,0.38391 -0.349,0.3867 -0.57761,-0.17314 -0.78751,-0.4026 -0.93893,-0.68557 0,0 0.21399,-0.24704 0.32147,-0.37014 z"
   id="path2315" />
<path
   fill="#433b38"
   opacity="1"
   stroke="none"
   d="m 349.35449,140.03364 c 0.0613,-0.3827 0.27515,-0.61018 0.70206,-0.95422 0.18771,-0.1404 0.47159,0.16655 0.46707,0.5041 -0.22848,0.5626 -0.4891,0.73095 -0.78632,0.84263 0,0 -0.25576,-0.26114 -0.38281,-0.39251 z"
   id="path2317" />
<path
   fill="#f2b311"
   opacity="1"
   stroke="none"
   d="m 111.24893,97.577822 c -2.15047,-1.32544 -4.91629,-2.57824 -6.64686,-4.68246 -4.37433,-5.31877 -8.868562,-10.69774 -12.168132,-16.68453 -2.12123,-3.848825 -2.21096,-8.817308 -3.21312,-13.718446 1.0253,1.938438 1.88484,4.402283 3.11267,6.666412 3.05456,5.632615 6.0089,11.350254 9.519032,16.695164 2.67427,4.07212 6.13924,7.62497 9.39641,11.72386 z"
   id="path2319" />
<path
   fill="#efaf15"
   opacity="1"
   stroke="none"
   d="m 159.87411,127.79385 c -0.41078,-0.49614 -0.47161,-0.90509 -0.54379,-1.6252 8.50893,2.45897 16.99297,5.34853 25.56474,7.94886 4.28519,1.29997 8.7306,2.07182 13.31347,3.43554 -11.88738,1.26996 -22.43332,-4.18477 -33.41153,-7.85225 -1.55358,-0.51899 -3.05004,-1.20892 -4.92289,-1.90695 z"
   id="path2321" />
<path
   fill="#efaf15"
   opacity="1"
   stroke="none"
   d="m 331.83893,136.81383 c 0.42022,0.0921 0.42059,0.30227 0.41955,0.82774 -4.97522,1.22574 -9.92184,2.34682 -14.92971,2.9939 -6.41068,0.8283 -12.87067,1.27482 -19.65921,1.68783 11.01663,-1.92915 22.38305,-3.66026 34.16937,-5.50947 z"
   id="path2323" />
<path
   fill="#f2b117"
   opacity="1"
   stroke="none"
   d="m 139.30969,116.63894 c -1.58691,0.30073 -3.35026,0.28084 -5.54959,0.24029 -3.98117,-2.66649 -7.58589,-5.23749 -11.04481,-7.99161 -1.5821,-1.25971 -2.87709,-2.88001 -4.35122,-4.6888 6.1933,3.42729 12.43369,7.20958 18.68027,10.98164 0.67809,0.40947 1.39176,0.76001 2.26535,1.45848 z"
   id="path2325" />
<path
   fill="#fdc21b"
   opacity="1"
   stroke="none"
   d="m 275.806,143.03157 c -9.6174,0.20534 -19.70099,0.3475 -30.14471,0.29507 9.65277,-0.24916 19.66561,-0.30371 30.14471,-0.29507 z"
   id="path2327" />
<path
   fill="#efaf15"
   opacity="1"
   stroke="none"
   d="m 213.18323,140.58447 c -4.3411,-0.40216 -8.8879,-1.15015 -13.67299,-2.18495 4.33023,0.42181 8.89876,1.13046 13.67299,2.18495 z"
   id="path2329" />
<path
   fill="#f2b117"
   opacity="1"
   stroke="none"
   d="m 408.89444,93.969652 c -1.47617,2.18736 -3.26148,4.51157 -5.39822,6.883888 1.46209,-2.216908 3.2756,-4.481978 5.39822,-6.883888 z"
   id="path2331" />
<path
   fill="#f2b117"
   opacity="1"
   stroke="none"
   d="m 400.86426,102.87419 c -1.44824,1.62042 -3.24005,3.29184 -5.39447,5.00769 1.44189,-1.62261 3.24637,-3.28963 5.39447,-5.00769 z"
   id="path2333" />
<path
   fill="#f2b117"
   opacity="1"
   stroke="none"
   d="m 387.85883,112.87518 c -1.42398,1.30667 -3.19733,2.66757 -5.34833,4.03166 1.41452,-1.3237 3.20672,-2.65057 5.34833,-4.03166 z"
   id="path2335" />
<path
   fill="#f2b117"
   opacity="1"
   stroke="none"
   d="m 116.2599,101.5748 c -1.51608,-0.80567 -3.17141,-1.918798 -4.87999,-3.389358 1.54477,0.789 3.14275,1.935448 4.87999,3.389358 z"
   id="path2337" />
<path
   fill="#f2b117"
   opacity="1"
   stroke="none"
   d="m 412.91144,88.992032 c -0.8248,1.49732 -1.95792,3.13234 -3.4336,4.83782 0.81342,-1.51972 1.96939,-3.10992 3.4336,-4.83782 z"
   id="path2339" />
<path
   fill="#f2b117"
   opacity="1"
   stroke="none"
   d="m 415.90652,84.012412 c -0.45376,1.51152 -1.2142,3.18028 -2.35833,4.8726 0.4281,-1.55608 1.2399,-3.13571 2.35833,-4.8726 z"
   id="path2341" />
<path
   fill="#f2b117"
   opacity="1"
   stroke="none"
   d="m 418.85998,77.979862 c -0.45541,1.80539 -1.22473,3.77469 -2.34582,5.83505 0.44278,-1.82967 1.23737,-3.7504 2.34582,-5.83505 z"
   id="path2343" />
<path
   fill="#f2b117"
   opacity="1"
   stroke="none"
   d="m 423.22937,67.318024 c -0.30978,1.279342 -0.77063,2.874878 -1.54019,4.572128 0.25723,-1.35083 0.82318,-2.80339 1.54019,-4.572128 z"
   id="path2345" />
<path
   fill="#f2b117"
   opacity="1"
   stroke="none"
   d="m 390.90344,110.85255 c -0.46277,0.63486 -1.25406,1.33522 -2.40137,2.03566 0.45359,-0.65666 1.26319,-1.3134 2.40137,-2.03566 z"
   id="path2347" />
<path
   fill="#f2b117"
   opacity="1"
   stroke="none"
   d="m 420.91193,72.942902 c 0.10733,0.720566 -0.10428,1.61988 -0.55728,2.779381 -0.0815,-0.693421 0.0784,-1.647027 0.55728,-2.779381 z"
   id="path2349" />
<path
   fill="#f2b117"
   opacity="1"
   stroke="none"
   d="m 419.89905,75.955712 c 0.0816,0.43535 -0.13471,1.00427 -0.58164,1.78663 -0.0592,-0.40873 0.11231,-1.03089 0.58164,-1.78663 z"
   id="path2351" />
<path
   fill="#f2b117"
   opacity="1"
   stroke="none"
   d="m 392.9967,108.91374 c 0.0315,0.18468 -0.2134,0.44859 -0.68627,0.8598 -0.0153,-0.162 0.19723,-0.47128 0.68627,-0.8598 z"
   id="path2353" />
<path
   fill="#f2b117"
   opacity="1"
   stroke="none"
   d="m 394.05054,108.0496 c 0.0784,0.3044 -0.17618,0.51465 -0.70505,0.77153 -0.0115,-0.20024 0.20395,-0.50434 0.70505,-0.77153 z"
   id="path2355" />
<path
   fill="#f2b117"
   opacity="1"
   stroke="none"
   d="m 118.29248,103.68725 c -0.18394,0.0372 -0.44647,-0.1994 -0.86249,-0.65432 0.15897,-0.0187 0.47145,0.18093 0.86249,0.65432 z"
   id="path2357" />
<path
   fill="#f2b117"
   opacity="1"
   stroke="none"
   d="m 401.99567,101.91534 c 0.0335,0.17517 -0.20264,0.44541 -0.65754,0.87499 -0.0166,-0.15374 0.1857,-0.46683 0.65754,-0.87499 z"
   id="path2359" />
<path
   fill="#f2b117"
   opacity="1"
   stroke="none"
   d="m 117.31499,102.68247 c -0.17667,0.0336 -0.44492,-0.20398 -0.8723,-0.66004 0.15413,-0.016 0.46744,0.18638 0.8723,0.66004 z"
   id="path2361" />
<path
   fill="#f2b117"
   opacity="1"
   stroke="none"
   d="m 402.99506,100.91683 c 0.0362,0.176 -0.1969,0.44645 -0.64624,0.87722 -0.0185,-0.15404 0.17919,-0.46839 0.64624,-0.87722 z"
   id="path2363" />
<path
   fill="#332c2e"
   opacity="1"
   stroke="none"
   d="m 130.77963,152.89699 c 3.52761,0.75016 6.59615,1.55992 9.67037,2.68533 0.006,6.89015 0.006,13.46463 0.006,20.71983 -6.3221,0 -13.07231,0.0858 -19.8142,-0.11203 -0.81395,-0.0239 -2.24356,-1.563 -2.26786,-2.4312 -0.18953,-6.77206 -0.10483,-13.55178 -0.10483,-20.80235 4.47691,0 8.26437,0 12.51086,-0.0596 m 3.76018,22.04957 c 6.36864,0.51273 4.6913,-4.24945 4.68506,-7.51935 -0.024,-12.61491 2.16339,-12.57228 -12.24115,-12.4631 -6.69159,0.0507 -6.69177,0.0285 -6.71298,6.5488 -0.0437,13.42407 -0.0437,13.42407 14.26907,13.43365 z"
   id="path2365" />
<path
   fill="#cdba6f"
   opacity="1"
   stroke="none"
   d="m 349.61505,140.62344 c 0.41947,-0.30897 0.68009,-0.47732 1.04965,-0.88566 0.59153,-0.50242 1.03745,-0.82152 1.61673,-1.38094 0.46723,-0.30072 0.76392,-0.44025 1.17127,-0.85802 0.46649,-0.26675 0.75012,-0.40582 1.16083,-0.79162 11.10354,-5.89199 22.29318,-5.88169 34.02551,-1.52329 1.56714,0.94533 2.77557,1.78664 4.28494,2.7276 0.68387,0.48723 1.0668,0.87479 1.69382,1.39218 0.39547,0.41283 0.60537,0.64229 1.0878,0.91556 0.35189,0.39652 0.56262,0.63002 1.06512,0.89288 2.28333,3.40876 4.34766,6.72243 6.48917,10.3649 -4.86084,-0.69893 -9.76547,-1.94571 -14.74445,-2.70526 -8.38324,-1.27888 -16.34088,0.25456 -24.3345,4.76428 -1.35815,1.02085 -2.13507,1.71663 -2.91199,2.41242 -9.08328,3.48447 -12.47626,11.61931 -15.97647,19.63585 -0.65436,1.49858 -0.98239,3.1396 -1.65118,5.00956 -0.19019,0.29467 -0.56818,0.12655 -0.74848,0.0252 -5.63107,-12.66559 -4.87158,-24.63469 3.38092,-36.22186 0.82331,-1.04215 1.51575,-1.7607 2.34845,-2.74658 0.42856,-0.39658 0.672,-0.58409 0.99286,-1.02718 z"
   id="path2367" />
<path
   fill="#353245"
   opacity="1"
   stroke="none"
   d="m 361.3609,156.41002 c 0.68497,-1.15734 1.46189,-1.85312 2.57932,-2.63608 6.79074,-0.0872 13.24093,-0.0872 19.99667,-0.0872 0,7.74578 0,14.95681 0,23.0821 -6.73502,0 -13.32938,0.12899 -19.90613,-0.1526 -0.88714,-0.038 -2.3519,-2.10736 -2.41165,-3.2934 -0.27576,-5.47267 -0.14887,-10.96562 -0.25821,-16.91285 z"
   id="path2369" />








<path
   fill="#d8bc3f"
   opacity="1"
   stroke="none"
   d="m 56.482451,18.508202 c 0.413253,-0.393719 0.646308,-0.602616 0.889404,-1.118244 0.08538,-0.222691 0.519394,-0.310563 0.738067,-0.346566 -0.331146,0.844994 -0.880958,1.725994 -1.737991,2.719494 -0.202934,-0.253609 -0.09864,-0.619716 0.11052,-1.254684 z"
   id="path2387" />
<path
   fill="#d8bc3f"
   opacity="1"
   stroke="none"
   d="m 58.653593,16.955383 c -0.332092,0.05903 -0.258774,-0.374481 -0.210236,-0.588893 0.365098,-0.298272 0.630295,-0.464211 0.962082,-0.918271 0.493508,-0.36396 0.869057,-0.521881 1.536148,-0.780395 -0.457603,0.675774 -1.206756,1.452152 -2.287994,2.287559 z"
   id="path2389" />
<path
   fill="#d8bc3f"
   opacity="1"
   stroke="none"
   d="m 54.400435,21.441445 c 0.05743,-0.302613 0.463928,-0.416436 0.67015,-0.461686 0.0049,0.509667 -0.196403,1.064591 -0.644287,1.798447 -0.192131,-0.225422 -0.137718,-0.629787 -0.02586,-1.336761 z"
   id="path2391" />
<path
   fill="#d8bc3f"
   opacity="1"
   stroke="none"
   d="m 55.476484,20.826515 c -0.223983,-0.02208 -0.224624,-0.189735 -0.209716,-0.608398 0.01556,-0.251003 0.443267,-0.408222 0.668579,-0.445191 0.0717,0.278027 -0.08191,0.593022 -0.458863,1.053589 z"
   id="path2393" />
<path
   fill="#322f4b"
   opacity="1"
   stroke="none"
   d="m 134.06702,174.94658 c -13.83997,-0.01 -13.83998,-0.01 -13.79628,-13.43367 0.0212,-6.52028 0.0214,-6.49808 6.71298,-6.5488 14.40454,-0.10918 12.2171,-0.15181 12.24115,12.4631 0.006,3.2699 1.68358,8.03208 -5.15785,7.51937 z"
   id="path2395" />
<path
   style="fill:#f6e394;fill-opacity:1;stroke:#fdfdfd;stroke-width:0.182019"
   d="m 369.0735,199.85835 c -2.74841,-0.52562 -5.79011,-1.54736 -6.33225,-2.12708 -0.1791,-0.1915 -0.44818,-0.34819 -0.59797,-0.34819 -0.14979,0 -0.47556,-0.13316 -0.72395,-0.2959 -0.24838,-0.16275 -1.84689,-0.76864 -3.55225,-1.34642 -2.9309,-0.99301 -3.14748,-1.09891 -3.95596,-1.9343 -0.47042,-0.48607 -1.64585,-1.483 -2.61207,-2.21539 -1.45704,-1.10444 -1.77625,-1.43554 -1.87102,-1.9407 -0.0875,-0.4665 -0.3154,-0.74096 -0.97353,-1.17256 -1.20778,-0.79205 -1.67834,-1.21508 -1.67834,-1.5088 0,-0.13951 -0.28668,-0.53151 -0.63707,-0.87112 -0.35039,-0.33961 -0.63707,-0.71663 -0.63707,-0.83782 0,-0.12119 -0.64476,-0.95091 -1.4328,-1.84382 -1.74835,-1.98103 -1.88993,-2.22031 -1.57142,-2.6559 0.15088,-0.20635 0.28294,-0.25572 0.35821,-0.13393 0.0656,0.1061 0.27469,0.19291 0.4647,0.19291 0.28312,0 0.47746,-0.41995 1.07689,-2.32708 0.7798,-2.481 2.89403,-7.38652 4.41,-10.23224 2.71526,-5.09699 5.55207,-8.37685 9.12014,-10.54453 0.98363,-0.59758 3.10116,-1.65075 3.31903,-1.65075 0.0252,0 0.0821,3.95209 0.12658,8.78242 l 0.0808,8.78243 0.47967,0.93343 c 0.71376,1.38896 1.40057,1.9947 2.42017,2.13445 0.47131,0.0646 5.10475,0.11745 10.29652,0.11745 h 9.43959 v -11.63564 -11.63565 l -9.96554,0.0912 -9.96555,0.0912 1.13202,-0.65823 c 1.49457,-0.86903 4.81375,-2.28352 6.96783,-2.96938 3.83586,-1.22134 7.98872,-1.78453 11.92225,-1.61684 3.01137,0.12838 4.63416,0.36337 10.83014,1.56832 2.55282,0.49646 5.40788,1.04104 6.34458,1.21018 1.83207,0.33082 2.44971,0.69524 2.67071,1.57578 0.0668,0.26624 0.31821,0.69633 0.55863,0.95576 0.24043,0.25942 0.43714,0.59977 0.43714,0.75633 0,0.15657 0.32392,1.29787 0.71981,2.53624 0.58473,1.82902 0.70013,2.41784 0.61489,3.13752 -0.0955,0.80629 -0.0373,0.99802 0.64687,2.13244 1.938,3.21325 1.7365,5.18384 -1.14325,11.18027 -0.9386,1.95444 -1.75733,3.70464 -1.81941,3.88934 -0.0621,0.18469 -0.27627,0.37854 -0.47598,0.43077 -0.29463,0.077 -0.36312,0.24872 -0.36312,0.91022 0,0.49768 -0.13115,1.00347 -0.33667,1.29841 -0.18517,0.26573 -0.77048,1.507 -1.30068,2.75839 -0.53021,1.25138 -1.11796,2.58319 -1.30611,2.95959 -0.41219,0.82456 -4.26392,4.60697 -5.84465,5.73945 -0.62256,0.44603 -1.50053,1.15721 -1.95102,1.58041 -1.00074,0.94008 -2.30064,1.65217 -6.14578,3.36665 -2.3065,1.02843 -3.09053,1.29995 -3.54937,1.2292 -0.43204,-0.0666 -1.07384,0.1185 -2.40913,0.69492 -2.90234,1.25289 -4.32728,1.57098 -7.37177,1.64558 -1.71252,0.042 -3.08668,-0.0209 -3.91342,-0.179 z"
   id="path3071" /><path
   style="fill:#f6cd13;fill-opacity:1;stroke:#fdfdfd;stroke-width:0.364038"
   d="m 243.16839,142.46483 c -1.71281,-0.44014 -5.31468,-0.73135 -12.55761,-1.01527 -14.56434,-0.57093 -16.67391,-0.71807 -18.99816,-1.32518 -1.1434,-0.29867 -4.04472,-0.80284 -6.44737,-1.12038 -2.40265,-0.31755 -5.19593,-0.89068 -6.20729,-1.27363 -1.01136,-0.38294 -4.36961,-1.33018 -7.46279,-2.10496 -7.11497,-1.78218 -31.42734,-9.37588 -32.90684,-10.27809 -0.61165,-0.373 -1.60355,-0.68028 -2.20421,-0.68286 -0.60067,-0.003 -1.91121,-0.40762 -2.91231,-0.90008 -1.00111,-0.49246 -2.04063,-0.9005 -2.31005,-0.90676 -0.26943,-0.006 -0.9247,-0.31545 -1.45616,-0.68709 -0.53146,-0.37164 -2.64347,-1.53255 -4.69335,-2.57981 -2.04989,-1.04725 -4.28242,-2.28097 -4.96119,-2.74159 -1.64245,-1.1146 -17.90924,-10.83307 -19.5015,-11.65102 -0.688,-0.35343 -2.25777,-1.66444 -3.48838,-2.91336 -1.2306,-1.24891 -3.00209,-2.718848 -3.93663,-3.266528 -0.93454,-0.54768 -1.69917,-1.12909 -1.69917,-1.29203 0,-0.16295 -1.35237,-1.90842 -3.00527,-3.87882 -5.90516,-7.03952 -7.92122,-10.06988 -13.353552,-20.071841 -2.56688,-4.726131 -5.84751,-11.491756 -5.84751,-12.05928 0,-0.156313 0.91961,-1.976282 2.04357,-4.044377 1.91635,-3.526067 2.00268,-3.790081 1.38658,-4.240584 -0.36135,-0.264227 -1.32492,-0.480413 -2.14126,-0.480413 -1.19525,0 -1.82738,0.283535 -3.24641,1.456153 -0.96918,0.800884 -2.14045,1.456153 -2.60283,1.456153 -0.46237,0 -1.08724,0.09461 -1.38859,0.210254 -0.67311,0.258293 -1.1619,-0.60481 -1.50055,-2.64965 l -0.25328,-1.529301 3.76037,-1.886437 c 5.39126,-2.70459 9.83274,-5.23624 13.56417,-7.731598 l 3.251112,-2.174146 3.11956,1.020278 c 3.5065,1.146825 7.6797,1.564539 9.53142,0.954041 4.50874,-1.486491 11.12061,-1.163162 18.26489,0.893178 6.19991,1.784521 20.50005,7.590744 27.74478,11.265088 3.40375,1.726301 9.05545,4.448213 12.55932,6.048692 3.50387,1.600479 6.61639,3.209993 6.91673,3.576699 0.60672,0.740814 3.22734,2.102513 6.00663,3.121101 1.0011,0.366898 2.19068,0.948225 2.6435,1.291837 0.45281,0.343612 1.68144,0.81621 2.73029,1.050216 1.04883,0.234007 2.23461,0.574361 2.63505,0.756343 0.96191,0.437141 14.6218,4.732081 19.47605,6.123654 7.16385,2.05367 26.67277,6.97122 29.23077,7.36811 1.85121,0.28723 3.11313,0.285 4.60303,-0.008 2.10118,-0.41338 33.23209,-2.21134 38.35761,-2.21533 1.56317,-0.001 3.52897,0.17025 4.36846,0.38105 1.26355,0.31728 2.34116,0.21755 6.25885,-0.57923 2.60287,-0.52937 5.46967,-1.09909 6.37067,-1.26605 1.59404,-0.29536 33.66019,-9.274138 42.41046,-11.875255 6.71205,-1.995234 12.64985,-4.232776 18.79237,-7.081534 10.01018,-4.642492 13.15114,-5.441431 27.80454,-7.072413 11.82037,-1.315654 15.17182,-1.866293 19.11201,-3.14007 1.9021,-0.614907 4.47192,-1.203983 5.71072,-1.309055 1.96384,-0.16657 2.45754,-0.07079 3.85422,0.747713 1.45289,0.851455 3.67103,3.345719 5.07781,5.709942 0.29785,0.500553 0.73378,1.820662 0.96874,2.933575 l 0.4272,2.023479 -1.84569,2.771448 c -1.01513,1.524296 -2.31615,4.053893 -2.89115,5.621326 -0.57501,1.567433 -1.30443,3.341329 -1.62093,3.941993 -0.31651,0.600663 -0.5779,1.33784 -0.58086,1.638172 -0.003,0.300332 -0.82305,2.158029 -1.82243,4.128209 -0.99938,1.97018 -1.81705,3.78774 -1.81705,4.03901 0,0.25127 -0.29967,0.72805 -0.66594,1.05951 -0.36626,0.33147 -1.06151,1.46262 -1.54499,2.51369 -0.48348,1.05105 -1.14054,2.10673 -1.46011,2.34595 -0.31959,0.23922 -1.22156,1.38594 -2.00439,2.54827 -0.78283,1.16233 -1.7222,2.33593 -2.0875,2.60801 -0.3653,0.27207 -1.65799,1.74643 -2.87264,3.27634 -1.21465,1.52992 -3.02886,3.518838 -4.03158,4.419838 -1.00272,0.90099 -2.93894,2.66203 -4.30271,3.91341 -1.36377,1.25138 -2.77275,2.27728 -3.13106,2.27978 -0.35832,0.003 -1.37293,0.67449 -2.25471,1.49331 -0.88178,0.81883 -3.25713,2.61781 -5.27855,3.99772 -2.02144,1.37992 -4.22969,2.97411 -4.90723,3.54264 l -1.2319,1.0337 2.87007,1.16892 c 1.57854,0.64291 3.27962,1.4167 3.78017,1.71953 l 0.9101,0.5506 -0.92872,-0.19156 c -6.66621,-1.37497 -11.95232,-1.55532 -23.35297,-0.79675 l -7.17188,0.4772 -2.97384,1.50892 c -1.63562,0.82991 -3.26927,1.50892 -3.63033,1.50892 -0.36107,0 -1.1432,0.40954 -1.73807,0.91009 -0.59488,0.50056 -1.2,0.9101 -1.34471,0.9101 -0.14472,0 -0.85825,0.56284 -1.58563,1.25076 -5.71752,5.40741 -7.27503,6.75808 -7.79301,6.75808 -0.3265,0 -1.81466,0.64306 -3.30702,1.42903 -2.67422,1.40841 -2.9332,1.46392 -17.94618,3.8466 -8.37804,1.32965 -15.88807,2.56649 -16.68896,2.7485 -0.80088,0.18203 -3.01209,0.33496 -4.9138,0.33985 -1.90171,0.005 -6.89813,0.16976 -11.10317,0.36636 -4.20503,0.19661 -14.52661,0.40849 -22.93684,0.47086 -13.43331,0.0996 -15.58315,0.0384 -17.69301,-0.50375 z"
   id="path3349" /></svg>
