<?xml version="1.0" encoding="UTF-8" standalone="no"?>
<!-- Created with Inkscape (http://www.inkscape.org/) -->

<svg
   width="307.7811mm"
   height="144.8101mm"
   viewBox="0 0 307.7811 144.8101"
   version="1.1"
   id="svg1482"
   xml:space="preserve"
   xmlns="http://www.w3.org/2000/svg"
   xmlns:svg="http://www.w3.org/2000/svg"><defs
     id="defs1479" /><g
     id="layer1"
     transform="translate(50.857457,-76.310354)"><g
       id="g1617"
       transform="translate(6.8788632,-5.6528214)"
       style="display:inline"><path
         style="display:none;fill:#f5e194;stroke-width:0.352778"
         d="m 21.704215,223.42852 c 0.25466,-0.10191 0.558934,-0.0894 0.676159,0.0278 0.117224,0.11723 -0.09114,0.20061 -0.463021,0.18529 -0.410968,-0.0169 -0.494559,-0.10052 -0.213138,-0.21313 z M 1.9486608,220.95907 c 0.2546597,-0.1019 0.5589305,-0.0894 0.6761586,0.0278 0.1172245,0.11722 -0.091137,0.2006 -0.4630208,0.18528 -0.4109685,-0.0169 -0.4945592,-0.10052 -0.2131378,-0.21313 z m -2.46944428,-0.35277 c 0.25465968,-0.10191 0.5589305,-0.0894 0.67615855,0.0278 0.11722452,0.11723 -0.09113661,0.2006 -0.46302081,0.18529 -0.41096845,-0.0169 -0.49455914,-0.10052 -0.21313774,-0.21314 z M -18.996238,215.35976 c -0.657585,-0.52683 -0.65326,-0.53334 0.108962,-0.16397 0.436563,0.21156 0.79375,0.45844 0.79375,0.54863 0,0.26995 -0.182954,0.19199 -0.902712,-0.38466 z m 55.654935,-0.55042 c -2.971429,-0.49457 -7.137685,-2.32183 -9.7437,-4.27346 -8.304075,-6.21886 -11.357846,-17.50566 -7.220422,-26.6868 0.922115,-2.04622 1.069742,-2.20568 1.632969,-1.76389 0.556482,0.4365 0.572057,0.42545 0.153755,-0.10911 -0.368491,-0.4709 -0.37742,-0.76487 -0.04286,-1.41111 0.628781,-1.2146 1.444851,-2.05892 1.786142,-1.84799 0.165876,0.10251 0.220673,-0.0245 0.121772,-0.28221 -0.249103,-0.64916 2.469476,-3.25357 3.032785,-2.90543 0.271755,0.16796 0.349842,0.12693 0.204872,-0.10764 -0.571656,-0.92496 5.308278,-4.03105 9.186491,-4.85279 3.310516,-0.70145 6.461809,-0.64335 9.907309,0.18267 3.118142,0.74754 5.328845,1.72088 6.446078,2.83811 0.380005,0.38001 0.809982,0.73061 0.955502,0.77912 0.145521,0.0485 0.226801,0.20154 0.180623,0.34008 -0.04618,0.13854 0.126728,0.17103 0.384242,0.0722 0.258028,-0.099 1.307648,0.65891 2.338175,1.68839 9.214502,9.2051 9.068205,23.77137 -0.326108,32.46907 -5.261577,4.87142 -12.171827,7.00687 -18.997622,5.87077 z m 11.217218,-15.12212 c 0,-0.19039 0.03969,-3.60363 0.08819,-7.58497 l 0.08819,-7.2388 -7.672916,2.5e-4 -7.672916,2.5e-4 v 7.58472 7.58472 h 7.584722 c 4.724763,0 7.584721,-0.13053 7.584721,-0.34617 z m 12.884827,-0.38597 c 0.340025,-1.07133 -0.0035,-1.18126 -0.472736,-0.15129 -0.221386,0.48589 -0.25787,0.88343 -0.08108,0.88343 0.176794,0 0.426011,-0.32946 0.553816,-0.73214 z M 59.40579,185.15058 c -0.112614,-0.28142 -0.196208,-0.19783 -0.213135,0.21314 -0.01531,0.37188 0.06806,0.58024 0.185286,0.46302 0.117225,-0.11723 0.129756,-0.4215 0.02784,-0.67616 z m -12.683751,-1.20533 c -0.117224,-0.11722 -0.421499,-0.12975 -0.676158,-0.0278 -0.281422,0.11261 -0.197831,0.19621 0.213137,0.21313 0.371885,0.0153 0.580246,-0.0681 0.463021,-0.18528 z m -6.607234,-2.05909 c 0,-0.0856 -0.15875,-0.25369 -0.352778,-0.3736 -0.194028,-0.11992 -0.352778,-0.0499 -0.352778,0.15556 0,0.20548 0.15875,0.3736 0.352778,0.3736 0.194028,0 0.352778,-0.07 0.352778,-0.15556 z m 15.918775,-3.81907 c -0.34841,-0.34581 -0.38893,-0.30529 -0.197485,0.19749 0.132479,0.34791 0.329738,0.54371 0.438355,0.43509 0.108616,-0.10862 2.25e-4,-0.39327 -0.24087,-0.63258 z m -30.735441,0.0941 c 0,-0.19403 -0.07,-0.35278 -0.155568,-0.35278 -0.08556,0 -0.253683,0.15875 -0.373599,0.35278 -0.119916,0.19403 -0.04991,0.35278 0.155568,0.35278 0.205479,0 0.373599,-0.15875 0.373599,-0.35278 z M 53.52036,177.6112 c 0,-0.30249 -0.15875,-0.45187 -0.352778,-0.33196 -0.194028,0.11992 -0.352778,0.36741 -0.352778,0.54999 0,0.18258 0.15875,0.33196 0.352778,0.33196 0.194028,0 0.352778,-0.2475 0.352778,-0.54999 z m 146.93194,37.37794 c -5.74172,-0.81947 -11.40609,-3.94585 -14.88352,-8.21476 -1.9191,-2.3559 -2.5571,-3.58673 -3.85991,-7.44652 -0.88649,-2.62638 -1.00756,-3.48033 -0.97532,-6.87917 0.0534,-5.62956 1.14649,-8.95517 4.41882,-13.44394 3.93349,-5.3957 11.12614,-8.95745 18.08878,-8.95745 2.82495,0 7.15239,1.09936 10.08447,2.5619 3.45212,1.72195 8.00495,6.35536 9.62365,9.794 1.87325,3.97938 2.47042,6.40828 2.46759,10.03667 -0.005,6.56028 -2.54178,12.33217 -7.35194,16.72838 -2.57883,2.35692 -4.91718,3.70083 -8.34145,4.79408 -2.64371,0.84405 -7.09643,1.3372 -9.27117,1.02681 z m 10.05416,-22.36406 v -7.76111 h -7.58472 -7.58472 v 7.5777 7.57771 l 7.49653,0.10261 c 4.12309,0.0564 7.53621,0.13897 7.58472,0.18341 0.0485,0.0444 0.0882,-3.41171 0.0882,-7.68032 z m -28.01732,5.37897 c -0.40702,-0.40702 -0.61583,0.23042 -0.33827,1.03264 l 0.28383,0.82033 0.12966,-0.82404 c 0.0713,-0.45322 0.0375,-0.91624 -0.0752,-1.02893 z m -0.55768,-7.84842 c 0,-0.58208 -0.0613,-1.05833 -0.13634,-1.05833 -0.075,0 -0.20625,0.47625 -0.29168,1.05833 -0.0854,0.58209 -0.0241,1.05834 0.13634,1.05834 0.16043,0 0.29168,-0.47625 0.29168,-1.05834 z m 3.77225,-9.43009 c -0.0894,-0.34324 -0.1685,-0.14782 -0.17569,0.43426 -0.007,0.58208 0.066,0.86291 0.16262,0.62407 0.0966,-0.23884 0.10252,-0.71509 0.0131,-1.05833 z m 34.74501,0.65573 c -0.36644,-0.37843 -0.686,-0.47706 -0.83495,-0.25772 -0.33675,0.49588 -0.10853,0.75498 0.71993,0.81739 0.6657,0.0501 0.67267,0.0162 0.11502,-0.55967 z m -30.40337,-3.57286 c 0,-0.19403 -0.15875,-0.35278 -0.35278,-0.35278 -0.19402,0 -0.35277,0.15875 -0.35277,0.35278 0,0.19403 0.15875,0.35278 0.35277,0.35278 0.19403,0 0.35278,-0.15875 0.35278,-0.35278 z m 4.93889,-4.94701 c 0,-0.15323 -0.3175,-0.19558 -0.70555,-0.0941 -0.38806,0.10148 -0.70556,0.30988 -0.70556,0.46312 0,0.15323 0.3175,0.19558 0.70556,0.0941 0.38805,-0.10148 0.70555,-0.30988 0.70555,-0.46312 z m 4.49057,-1.61613 c -0.11723,-0.11722 -0.4215,-0.12975 -0.67616,-0.0278 -0.28142,0.11261 -0.19783,0.19621 0.21314,0.21313 0.37188,0.0153 0.58024,-0.0681 0.46302,-0.18528 z m -220.009928,41.63514 c 0.01693,-0.41097 0.10052,-0.49456 0.213134,-0.21314 0.101907,0.25466 0.08938,0.55893 -0.02783,0.67616 -0.117228,0.11722 -0.200604,-0.0911 -0.185286,-0.46302 z m 1.383259,-2.26366 c 0,-0.19403 0.16812,-0.35278 0.373599,-0.35278 0.205479,0 0.275484,0.15875 0.155568,0.35278 -0.119916,0.19402 -0.288036,0.35277 -0.373599,0.35277 -0.08556,0 -0.155568,-0.15875 -0.155568,-0.35277 z m 7.694965,-3.06321 c 0.25466,-0.10191 0.55893,-0.0894 0.676159,0.0278 0.117224,0.11723 -0.09114,0.20061 -0.463021,0.18529 -0.410969,-0.0169 -0.494559,-0.10052 -0.213138,-0.21314 z m 11.9944438,-2.46945 c 0.25465968,-0.1019 0.5589305,-0.0894 0.6761585,0.0278 0.1172246,0.11722 -0.091137,0.2006 -0.46302076,0.18528 -0.41096846,-0.0169 -0.49455915,-0.10052 -0.21313774,-0.21313 z m 9.6818342,-1.95942 c -0.04673,-0.62033 0.01157,-0.67697 0.272302,-0.26459 0.407818,0.64502 0.432982,1.05389 0.06486,1.05389 -0.152735,0 -0.304458,-0.35519 -0.33716,-0.7893 z m 98.510696,-2.77293 c -13.344762,-0.90433 -20.591812,-2.19653 -32.009408,-5.70748 l -4.845518,-1.49002 -0.0052,-1.89527 c -0.0042,-1.54898 0.08161,-1.82325 0.469822,-1.50107 0.639078,0.53039 6.017828,2.19673 12.048613,3.73267 16.868351,4.29608 45.898151,5.18634 68.262501,2.09342 6.08665,-0.84176 17.00637,-2.91141 18.45384,-3.49762 0.57153,-0.23146 0.62708,-0.0801 0.52917,1.44222 l -0.1094,1.70083 -2.46944,0.63713 c -7.09912,1.8316 -21.20801,3.88238 -31.03843,4.51155 -6.45428,0.41309 -23.02194,0.39817 -29.28657,-0.0264 z M 8.7454359,196.65261 c 0.016933,-0.41097 0.1005205,-0.49456 0.2131342,-0.21314 0.1019069,0.25466 0.089376,0.55893 -0.027834,0.67616 -0.117228,0.11722 -0.2006035,-0.0911 -0.1852859,-0.46302 z m 0.027848,-8.26089 c 0,-0.48507 0.080073,-0.6835 0.1779375,-0.44097 0.097864,0.24254 0.097864,0.63941 0,0.88195 -0.097864,0.24253 -0.1779375,0.0441 -0.1779375,-0.44098 z M 174.06511,178.87828 c 0.0998,-0.3817 0.42699,-0.89764 0.72705,-1.14653 0.46122,-0.38257 0.45393,-0.27529 -0.0472,0.694 -0.66993,1.29582 -0.94896,1.48155 -0.67987,0.45253 z M 11.892584,178.18199 c 0,-0.18258 0.156933,-0.42895 0.348738,-0.54749 0.199976,-0.12359 0.259116,0.018 0.138646,0.33196 -0.234524,0.61115 -0.487384,0.72297 -0.487384,0.21553 z m 0.707309,-1.28494 c 0.0011,-0.17786 0.410958,-0.79963 0.911098,-1.38172 l 0.909348,-1.05833 -0.796858,1.23472 c -1.022167,1.58384 -1.025663,1.58796 -1.023588,1.20533 z m 216.251017,-2.59562 c 0,-0.18257 0.15693,-0.42895 0.34873,-0.54749 0.19998,-0.12359 0.25912,0.018 0.13865,0.33196 -0.23452,0.61116 -0.48738,0.72298 -0.48738,0.21553 z M 15.894851,172.22436 c 0.321116,-0.35483 0.583844,-0.83108 0.583844,-1.05833 0,-0.22726 0.267825,-0.4132 0.595168,-0.4132 0.46531,0 0.373937,0.23092 -0.418779,1.05834 -1.088729,1.13639 -1.730266,1.48507 -0.760233,0.41319 z m 162.685229,-0.0604 c 0.35118,-0.38805 0.71789,-0.70555 0.8149,-0.70555 0.097,0 -0.11094,0.3175 -0.46213,0.70555 -0.35118,0.38806 -0.71789,0.70556 -0.81491,0.70556 -0.097,0 0.11095,-0.3175 0.46214,-0.70556 z M 8.6514383,170.51185 c 0.2546596,-0.10191 0.5589305,-0.0894 0.6761585,0.0278 0.1172245,0.11723 -0.091137,0.20061 -0.4630208,0.18529 -0.4109685,-0.0169 -0.4945591,-0.10052 -0.2131377,-0.21314 z m 173.2800217,-1.6561 c 0,-0.0733 0.27782,-0.35107 0.61737,-0.61736 0.55952,-0.43881 0.572,-0.42633 0.13319,0.13319 -0.46086,0.58764 -0.75056,0.77452 -0.75056,0.48417 z m 40.10869,-1.16723 c -0.12857,-0.20804 1.1925,-1.83055 2.93571,-3.60559 1.74322,-1.77505 3.16949,-3.38172 3.16949,-3.57039 0,-0.18867 0.16803,-0.34304 0.3734,-0.34304 0.42501,0 -1.93252,3.12448 -4.50993,5.9771 -1.01701,1.12561 -1.83164,1.76365 -1.96867,1.54192 z m -38.3448,-0.24388 c 0,-0.0733 0.27782,-0.35107 0.61736,-0.61736 0.55953,-0.43881 0.57201,-0.42633 0.1332,0.13319 -0.46086,0.58764 -0.75056,0.77452 -0.75056,0.48417 z m 1.58868,-1.27982 c 0.23626,-0.38227 2.29188,-1.52739 2.29188,-1.27673 0,0.0828 -0.56517,0.48406 -1.25592,0.89162 -0.69076,0.40755 -1.15694,0.58085 -1.03596,0.38511 z M -10.045783,164.8674 c 0.2546597,-0.1019 0.5589305,-0.0894 0.6761586,0.0278 0.1172245,0.11722 -0.091137,0.2006 -0.4630208,0.18528 -0.4109688,-0.0169 -0.4945588,-0.10052 -0.2131378,-0.21313 z m 33.186922,-1.43471 c -2.418023,-2.53035 -6.558713,-8.08897 -7.749723,-10.40353 -0.550393,-1.06961 -0.06734,-0.53636 1.994214,2.20145 0.94966,1.26118 3.27044,3.87538 5.15729,5.80933 2.315619,2.37342 3.29221,3.60425 3.004731,3.78696 -0.655785,0.41679 -0.70086,0.39068 -2.406512,-1.39421 z m 164.787551,1.14988 c 0,-0.24139 2.16002,-1.3123 2.3214,-1.15092 0.0765,0.0765 -0.41445,0.40318 -1.09111,0.72586 -0.67666,0.32268 -1.23029,0.51396 -1.23029,0.42506 z M 10.790153,163.52089 c -0.02424,-0.097 -0.06637,-0.29545 -0.0936,-0.44097 -0.02723,-0.14552 -0.193421,-0.50271 -0.369323,-0.79375 -0.193784,-0.32064 -0.01789,-0.26433 0.446377,0.14287 0.814528,0.71443 0.995059,1.26824 0.413416,1.26824 -0.194027,0 -0.372621,-0.0794 -0.396875,-0.17639 z M 194.9181,161.6924 c 0.25465,-0.1019 0.55893,-0.0894 0.67615,0.0278 0.11723,0.11722 -0.0911,0.2006 -0.46302,0.18528 -0.41097,-0.0169 -0.49456,-0.10052 -0.21313,-0.21313 z m 11.64166,-0.70555 c 0.25466,-0.10191 0.55894,-0.0894 0.67616,0.0278 0.11722,0.11723 -0.0911,0.2006 -0.46302,0.18529 -0.41097,-0.0169 -0.49456,-0.10052 -0.21314,-0.21314 z M 2.4557789,154.28187 c 0.3395486,-0.0887 0.8951735,-0.0887 1.2347221,0 0.3395486,0.0887 0.061736,0.16134 -0.6173611,0.16134 -0.6790971,0 -0.9569096,-0.0726 -0.617361,-0.16134 z m -10.3848953,-0.35058 c 0.2546597,-0.10191 0.5589305,-0.0894 0.6761585,0.0278 0.1172245,0.11723 -0.091137,0.20061 -0.4630208,0.18529 -0.4109684,-0.0169 -0.4945591,-0.10052 -0.2131377,-0.21313 z m -9.3706596,-0.35497 c 0.339549,-0.0887 0.895174,-0.0887 1.234722,0 0.339549,0.0887 0.06174,0.16133 -0.617361,0.16133 -0.679097,0 -0.956909,-0.0726 -0.617361,-0.16133 z m -14.636163,-0.71188 c 0.438823,-0.0844 1.073823,-0.0812 1.411111,0.007 0.337287,0.0883 -0.02177,0.15734 -0.797864,0.15343 -0.776111,-0.004 -1.052071,-0.0762 -0.613247,-0.16055 z m -20.465224,-1.39525 c 0.242535,-0.0979 0.63941,-0.0979 0.881945,0 0.242534,0.0979 0.0441,0.17794 -0.440973,0.17794 -0.485069,0 -0.683506,-0.0801 -0.440972,-0.17794 z m 1.43316,-2.47679 c 0.254661,-0.10191 0.558932,-0.0894 0.676157,0.0278 0.117225,0.11723 -0.09113,0.20061 -0.46302,0.18529 -0.410966,-0.0169 -0.49456,-0.10052 -0.213137,-0.21313 z m 20.108332,-1.41111 c 0.25466,-0.10191 0.558931,-0.0894 0.676159,0.0278 0.117224,0.11723 -0.09114,0.20061 -0.463021,0.18529 -0.410968,-0.0169 -0.494559,-0.10052 -0.213138,-0.21313 z m 1.763889,0 c 0.25466,-0.10191 0.558931,-0.0894 0.676159,0.0278 0.117224,0.11723 -0.09114,0.20061 -0.463021,0.18529 -0.410969,-0.0169 -0.494559,-0.10052 -0.213138,-0.21313 z m 6.702777,-0.35278 c 0.25466,-0.10191 0.558931,-0.0894 0.676159,0.0278 0.117225,0.11722 -0.09114,0.2006 -0.463021,0.18528 -0.410968,-0.0169 -0.494559,-0.10052 -0.213138,-0.21313 z m 6.680729,-0.36076 c 0.436563,-0.0841 1.150938,-0.0841 1.5875,0 0.436563,0.0841 0.07938,0.15289 -0.79375,0.15289 -0.873125,0 -1.230312,-0.0688 -0.79375,-0.15289 z M 1.8872316,145.882 c 0.111686,-0.29104 0.2654512,-0.52917 0.3417076,-0.52917 0.076253,0 0.1386452,0.23813 0.1386452,0.52917 0,0.29104 -0.1537687,0.52916 -0.3417076,0.52916 -0.1879353,0 -0.2503275,-0.23812 -0.1386452,-0.52916 z m -0.90290641,-4.61551 c 0.0169333,-0.41097 0.10052051,-0.49456 0.21313421,-0.21314 0.1019069,0.25466 0.089376,0.55893 -0.027834,0.67616 -0.117228,0.11722 -0.20060351,-0.0911 -0.1852859,-0.46302 z m -0.31185554,-2.79283 c 0.007197,-0.58208 0.0862542,-0.7775 0.17569744,-0.43426 0.0894433,0.34325 0.0835625,0.8195 -0.0130881,1.05834 -0.0966364,0.23884 -0.16981663,-0.042 -0.16262702,-0.62408 z M 122.22383,138.74452 c 0.82462,-0.0743 2.17399,-0.0743 2.99861,0 0.82462,0.0743 0.14993,0.13505 -1.49931,0.13505 -1.64923,0 -2.32392,-0.0608 -1.4993,-0.13505 z m 16.6026,-0.68823 c 0.25466,-0.10191 0.55894,-0.0894 0.67616,0.0278 0.11722,0.11723 -0.0911,0.20061 -0.46302,0.18529 -0.41097,-0.0169 -0.49456,-0.10052 -0.21314,-0.21314 z m 7.40833,-0.70556 c 0.25466,-0.1019 0.55894,-0.0894 0.67616,0.0278 0.11723,0.11722 -0.0911,0.2006 -0.46302,0.18528 -0.41097,-0.0169 -0.49456,-0.10052 -0.21314,-0.21313 z M -0.71922097,136.99576 c 0.33954859,-0.0887 0.89517356,-0.0887 1.23472216,0 0.33954859,0.0887 0.0617361,0.16134 -0.61736108,0.16134 -0.67909719,0 -0.95690971,-0.0726 -0.61736108,-0.16134 z m 108.14843097,0.002 c 0.25466,-0.10191 0.55893,-0.0894 0.67616,0.0278 0.11722,0.11723 -0.0911,0.20061 -0.46302,0.18529 -0.41097,-0.0169 -0.49456,-0.10052 -0.21314,-0.21314 z m -115.3762616,-0.3613 c 0.4388237,-0.0844 1.0738237,-0.0812 1.411111,0.007 0.3372873,0.0883 -0.021766,0.15734 -0.7978634,0.15342 -0.776111,-0.004 -1.0520714,-0.0762 -0.6132476,-0.16054 z m -10.5653974,-0.69704 c 0.254659,-0.1019 0.55893,-0.0894 0.676158,0.0278 0.117225,0.11722 -0.09114,0.2006 -0.46302,0.18528 -0.410969,-0.0169 -0.49456,-0.10052 -0.213138,-0.21313 z m 174.624989,0 c 0.25466,-0.1019 0.55894,-0.0894 0.67616,0.0278 0.11722,0.11722 -0.0911,0.2006 -0.46302,0.18528 -0.41097,-0.0169 -0.49456,-0.10052 -0.21314,-0.21313 z m -183.797211,-0.70555 c 0.25466,-0.10191 0.558931,-0.0894 0.676159,0.0278 0.117224,0.11723 -0.09114,0.20061 -0.463021,0.18529 -0.410969,-0.0169 -0.494559,-0.10052 -0.213138,-0.21314 z m -3.902604,-0.34535 c 0.242535,-0.0979 0.63941,-0.0979 0.881944,0 0.242535,0.0979 0.0441,0.17793 -0.440972,0.17793 -0.485069,0 -0.683507,-0.0801 -0.440972,-0.17793 z m 25.0692696,-5.6518 c 0.2546597,-0.1019 0.5589305,-0.0894 0.6761586,0.0278 0.1172245,0.11722 -0.091137,0.2006 -0.4630209,0.18528 -0.4109684,-0.0169 -0.4945591,-0.10052 -0.2131377,-0.21313 z m 125.9416554,0 c 0.25466,-0.1019 0.55894,-0.0894 0.67616,0.0278 0.11723,0.11722 -0.0911,0.2006 -0.46302,0.18528 -0.41097,-0.0169 -0.49456,-0.10052 -0.21314,-0.21313 z m 9.87778,0 c 0.25466,-0.1019 0.55894,-0.0894 0.67616,0.0278 0.11723,0.11722 -0.0911,0.2006 -0.46302,0.18528 -0.41097,-0.0169 -0.49456,-0.10052 -0.21314,-0.21313 z m 1.74184,-0.008 c 0.43656,-0.0841 1.15094,-0.0841 1.5875,0 0.43656,0.0841 0.0794,0.15288 -0.79375,0.15288 -0.87312,0 -1.23031,-0.0688 -0.79375,-0.15288 z M 0.25091787,128.98641 c 0,-0.0763 0.23812498,-0.23003 0.52916664,-0.34171 0.29104169,-0.11168 0.52916659,-0.0493 0.52916659,0.13864 0,0.18794 -0.2381249,0.34171 -0.52916659,0.34171 -0.29104166,0 -0.52916664,-0.0624 -0.52916664,-0.13864 z M 140.75137,128.5278 c 0.34325,-0.0894 0.8195,-0.0836 1.05834,0.0131 0.23884,0.0966 -0.042,0.16982 -0.62408,0.16263 -0.58208,-0.007 -0.7775,-0.0863 -0.43426,-0.1757 z m -60.928733,-0.42818 c -0.108733,-0.17594 0.120022,-0.23679 0.508345,-0.13525 0.823733,0.21541 0.927859,0.45513 0.197697,0.45513 -0.27959,0 -0.597309,-0.14395 -0.706042,-0.31988 z m 161.111673,-1.6204 c 0.004,-0.77611 0.0762,-1.05207 0.16055,-0.61325 0.0844,0.43882 0.0812,1.07382 -0.007,1.41111 -0.0883,0.33729 -0.15734,-0.0218 -0.15342,-0.79786 z m -88.70232,0.64096 c 0.25466,-0.10191 0.55893,-0.0894 0.67615,0.0278 0.11723,0.11723 -0.0911,0.2006 -0.46302,0.18529 -0.41096,-0.0169 -0.49456,-0.10052 -0.21313,-0.21314 z m 88.28843,-2.78703 c 0.0169,-0.41096 0.10052,-0.49456 0.21314,-0.21313 0.1019,0.25466 0.0894,0.55893 -0.0278,0.67615 -0.11722,0.11723 -0.2006,-0.0911 -0.18528,-0.46302 z M 0.06002277,123.80991 c -0.12789253,-0.20693 -0.15687322,-0.4519 -0.06439958,-0.54438 0.0924701,-0.0925 0.26213504,0.0768 0.37703123,0.37625 0.23854126,0.62163 0.0352425,0.73098 -0.31263165,0.16813 z m 8.65756133,-3.71204 c 0,-0.26419 0.8672371,-1.00146 1.8520829,-1.57452 1.028093,-0.59823 0.693801,-0.12368 -0.6173608,0.87639 -0.6790971,0.51798 -1.2347221,0.83213 -1.2347221,0.69813 z M 234.67174,115.36672 c -0.57517,-0.24716 -0.59532,-0.30777 -0.10902,-0.32798 0.3281,-0.0137 0.69466,0.13395 0.81457,0.32798 0.25071,0.40565 0.23845,0.40565 -0.70555,0 z M 52.462026,115.01394 c -0.291041,-0.18809 -0.370416,-0.34197 -0.176389,-0.34197 0.194028,0 0.590903,0.15388 0.881945,0.34197 0.291041,0.18809 0.370416,0.34197 0.176389,0.34197 -0.194028,0 -0.590903,-0.15388 -0.881945,-0.34197 z m -60.3699969,-1.32292 c -0.4388097,-0.55952 -0.426332,-0.572 0.1331947,-0.13319 0.3395486,0.26629 0.6173611,0.5441 0.6173611,0.61736 0,0.29035 -0.2896975,0.10347 -0.7505558,-0.48417 z m 201.7398009,0.22081 c 0.23931,-0.2411 0.52396,-0.34949 0.63258,-0.24087 0.10862,0.10862 -0.0872,0.30588 -0.43509,0.43835 -0.50278,0.19145 -0.5433,0.15093 -0.19749,-0.19748 z m -204.008624,-1.91597 c -0.657585,-0.52683 -0.65326,-0.53334 0.108962,-0.16397 0.4365629,0.21156 0.7937504,0.45844 0.7937504,0.54863 0,0.26995 -0.1829541,0.19199 -0.9027124,-0.38466 z m 13.5577114,-0.4215 c -0.4388097,-0.55953 -0.426332,-0.57201 0.1331947,-0.1332 0.3395486,0.26629 0.6173611,0.54411 0.6173611,0.61736 0,0.29035 -0.2896975,0.10347 -0.7505558,-0.48416 z m 25.3568046,-1.02739 c 0.242535,-0.0979 0.63941,-0.0979 0.881944,0 0.242535,0.0979 0.0441,0.17794 -0.440972,0.17794 -0.485069,0 -0.683507,-0.0801 -0.440972,-0.17794 z m -43.30347,-1.00109 c -0.485069,-0.27729 -0.723194,-0.50416 -0.529167,-0.50416 0.194028,0 0.749653,0.22687 1.234722,0.50416 0.48507,0.27729 0.723195,0.50417 0.529167,0.50417 -0.194028,0 -0.749653,-0.22688 -1.234722,-0.50417 z m 48.418747,0.28599 c 0.339549,-0.0887 0.895174,-0.0887 1.234723,0 0.339548,0.0887 0.06174,0.16134 -0.617361,0.16134 -0.679098,0 -0.95691,-0.0726 -0.617362,-0.16134 z m -17.772082,-3.90196 c -0.43881,-0.55953 -0.426332,-0.572 0.133194,-0.13319 0.58764,0.46085 0.774517,0.75055 0.484167,0.75055 -0.07325,0 -0.351067,-0.27781 -0.617361,-0.61736 z m -36.511923,-3.43958 c 7.05e-4,-2.13431 0.0589,-2.961951 0.12912,-1.83921 0.07022,1.12275 0.06957,2.869 -0.0014,3.88056 -0.07102,1.01156 -0.128471,0.093 -0.127674,-2.04135 z m 251.332436,3.46318 c 0.25466,-0.10191 0.55893,-0.0894 0.67616,0.0278 0.11722,0.11723 -0.0911,0.20061 -0.46303,0.18529 -0.41096,-0.0169 -0.49455,-0.10052 -0.21313,-0.21314 z M 11.365915,102.67075 c -0.123592,-0.19997 0.01803,-0.25911 0.331957,-0.13864 0.611159,0.23452 0.722979,0.48738 0.215533,0.48738 -0.182577,0 -0.42895,-0.15693 -0.54749,-0.34874 z m -1.9877757,-1.67973 c -0.4388097,-0.55953 -0.4263319,-0.572 0.1331947,-0.13319 0.58764,0.46085 0.774517,0.75055 0.4841664,0.75055 -0.073254,0 -0.3510668,-0.27781 -0.6173611,-0.61736 z m 22.3649067,-0.33267 c 0.343242,-0.0894 0.819492,-0.0836 1.058334,0.0131 0.238841,0.0966 -0.04199,0.16981 -0.624075,0.16262 -0.582083,-0.007 -0.777501,-0.0862 -0.434259,-0.17569 z M 7.6142505,99.57991 c -0.4388097,-0.559527 -0.4263319,-0.572005 0.1331948,-0.133195 0.3395485,0.266294 0.617361,0.544107 0.617361,0.617365 0,0.29035 -0.2896975,0.10347 -0.7505558,-0.48417 z M 6.2031394,98.521576 c -0.4388096,-0.559527 -0.4263319,-0.572004 0.1331948,-0.133195 0.5876396,0.460859 0.7745165,0.750556 0.4841663,0.750556 -0.073254,0 -0.3510668,-0.277812 -0.6173611,-0.617361 z M 4.8370287,97.375048 c -0.317955,-0.205479 -0.3614666,-0.34413 -0.1090153,-0.347375 0.2310835,-0.003 0.5182658,0.153348 0.638182,0.347375 0.2706864,0.437985 0.1485617,0.437985 -0.5291667,0 z M 2.2119636,95.423551 C 1.835331,95.13868 1.6968304,94.905604 1.9041861,94.905604 c 0.2073522,0 0.5746327,0.238125 0.8161761,0.529166 0.5493455,0.661923 0.3765338,0.658109 -0.5083986,-0.01122 z M -14.918526,87.716854 c 0,-0.07326 0.277813,-0.351069 0.617361,-0.617361 0.559527,-0.43881 0.572005,-0.426332 0.133195,0.133193 -0.460858,0.587639 -0.750556,0.774516 -0.750556,0.484168 z"
         id="path1625" /><path
         style="display:inline;fill:#ed9d24;fill-opacity:1;stroke:#fdfdfd;stroke-width:0.526704"
         d="m 112.17537,190.89736 c -11.83377,-0.87925 -21.562407,-2.63286 -31.705912,-5.71507 -4.672025,-1.41964 -5.196229,-1.70709 -5.461075,-2.99462 -0.941707,-4.57804 -2.142844,-8.10683 -3.862855,-11.34863 -2.552684,-4.81117 -8.201351,-10.40446 -12.941619,-12.81474 -1.952303,-0.99268 -3.461172,-1.89201 -3.353047,-1.99849 0.108125,-0.10648 3.377343,1.10324 7.264931,2.68828 12.181813,4.96672 21.994267,7.82028 33.470578,9.73361 19.175429,3.19695 49.489219,3.76077 70.136769,1.30455 6.85686,-0.81569 18.28128,-2.958 20.79654,-3.89976 0.70862,-0.26532 1.28841,-0.36557 1.28841,-0.22278 0,0.4263 -2.78039,4.58958 -3.90953,5.85401 -0.57661,0.64568 -0.90797,1.31225 -0.73636,1.48124 0.17161,0.169 -0.15352,1.6398 -0.72251,3.26841 -0.56897,1.62864 -1.20602,4.49021 -1.41565,6.35903 l -0.38115,3.39789 -6.97572,1.38099 c -9.22548,1.82638 -17.39846,2.93048 -26.46192,3.57475 -8.56414,0.60878 -26.51697,0.58384 -35.02988,-0.0487 z"
         id="path2818"
         transform="translate(-6.8788632,5.6528214)" /><path
         style="fill:#ed9d24;fill-opacity:1;stroke:#fdfdfd;stroke-width:0.51547"
         d="m 225.36426,159.43989 c -2.35508,-1.21283 -5.65639,-2.43811 -7.52176,-2.79171 -3.70199,-0.70174 -4.20074,-1.45123 -1.56956,-2.35859 2.83707,-0.97837 10.31735,-6.45493 14.91452,-10.91941 6.31057,-6.12842 11.04517,-13.38922 13.87233,-21.27405 1.44971,-4.04318 1.4163,-5.80616 -0.17168,-9.05899 -1.58289,-3.2424 -0.90567,-3.43551 1.30449,-0.37197 2.67171,3.70327 3.09087,5.12452 2.8955,9.81777 -0.49387,11.86421 -7.07488,26.65786 -15.69733,35.28649 l -3.82924,3.83199 z"
         id="path2822"
         transform="translate(-6.8788632,5.6528214)" /><path
         style="display:inline;fill:#ed9d24;fill-opacity:1;stroke:#fdfdfd;stroke-width:0.547461"
         d="m 27.005203,155.6928 c -2.750272,-2.88186 -5.819667,-6.39546 -6.820876,-7.80797 -2.083499,-2.9394 -4.460422,-8.28864 -5.385725,-12.12055 -1.102381,-4.56523 0.392174,-13.7388 3.028456,-18.58868 l 1.23365,-2.26949 -0.0026,3.55946 c -0.0022,2.96287 0.329505,4.22408 1.979027,7.52478 5.561313,11.12824 18.351361,22.59785 33.405237,29.95655 3.892556,1.90278 6.440414,3.32813 5.661905,3.16743 -9.025813,-1.86295 -16.574274,-1.72561 -23.367278,0.42519 -2.419941,0.7662 -4.474452,1.39308 -4.56558,1.39308 -0.09112,0 -2.415905,-2.35791 -5.166176,-5.2398 z"
         id="path2820"
         transform="translate(-6.8788632,5.6528214)" /><path
         style="display:inline;fill:#322e44;stroke-width:0.352778"
         d="m 80.331469,226.45399 c -52.858956,-1.47066 -93.105215,-6.20607 -99.350694,-11.68967 -1.368552,-1.2016 -1.47858,-1.92291 -0.485842,-3.18497 1.85317,-2.35593 14.178512,-5.55113 27.5170956,-7.13348 3.3427314,-0.39655 3.2245864,-0.27734 2.4644634,-2.48667 -1.0263825,-2.98324 -1.5242895,-7.27899 -1.302484,-11.23733 0.3583763,-6.39558 2.34926,-11.86223 6.222541,-17.08613 l 2.084109,-2.81083 -3.4114,-0.2101 c -12.9471519,-0.79736 -16.2118173,-1.03249 -22.814173,-1.64314 -11.078252,-1.02463 -14.832908,-1.66562 -13.022047,-2.22313 1.971647,-0.607 14.7175639,-1.87353 27.3051401,-2.71324 3.1990345,-0.2134 5.8716469,-0.44322 5.9391369,-0.51071 0.06749,-0.0675 -0.656156,-1.28656 -1.6080985,-2.70904 -0.9519426,-1.42248 -2.2471414,-3.49914 -2.878222,-4.6148 -1.1387525,-2.01316 -1.1598663,-2.02854 -2.7972172,-2.03782 -8.8856992,-0.0503 -44.3655863,-1.87147 -55.0956343,-2.82796 -8.880553,-0.79163 -9.036439,-1.12998 -0.877695,-1.90508 9.85421,-0.93616 40.278353,-2.57165 50.1783866,-2.69741 2.6966791,-0.0343 3.9672646,-0.17863 3.9641143,-0.45045 -0.00255,-0.22002 -0.3179621,-1.90816 -0.70092,-3.75142 -0.3829579,-1.84327 -0.69837296,-3.85591 -0.70092001,-4.47253 -0.004516,-1.09346 -0.0503767,-1.12564 -1.85671874,-1.30305 -1.01864575,-0.10005 -6.23665575,-0.43189 -11.59557515,-0.73743 -10.241255,-0.58389 -18.262741,-1.26547 -24.962984,-2.12107 -5.786766,-0.73895 -5.815223,-1.00846 -0.186665,-1.76792 5.634805,-0.76029 14.282781,-1.50863 24.486197,-2.11889 4.9477081,-0.29591 10.3090587,-0.63057 11.9141128,-0.74367 l 2.9182799,-0.20565 -0.2167078,-1.81976 c -0.2963686,-2.4887 -2.26107614,-6.57574 -4.4807538,-9.32098 -3.4070359,-4.21372 -8.2199791,-7.50448 -15.5565471,-10.63647 l -1.717452,-0.73318 0.163523,-4.49929 c 0.187194,-5.150718 0.790691,-7.190746 3.261698,-11.025672 3.04401,-4.724214 9.3746847,-9.389379 12.2725036,-9.043788 3.3293859,0.397059 12.6805471,5.896239 17.8929194,10.522373 2.63755,2.340901 8.873804,6.673676 11.571139,8.039307 l 2.215772,1.12181 3.870057,-0.44188 c 4.509135,-0.51486 8.732883,-0.1193 13.807401,1.2931 6.713219,1.86849 10.721272,3.57468 24.281273,10.33632 21.841141,10.89098 34.549279,15.12611 49.918049,16.63574 8.5727,0.84207 27.77434,-0.68486 39.76602,-3.16221 10.48184,-2.16544 17.17583,-4.3595 30.43676,-9.97614 13.90766,-5.89056 19.06427,-7.23959 28.92777,-7.56784 5.64305,-0.1878 6.20484,-0.27095 9.51271,-1.408 4.13501,-1.42137 7.45701,-1.63408 10.37646,-0.66439 4.4773,1.48712 9.97676,8.94203 11.55963,15.66991 0.65188,2.77075 0.49982,7.50957 -0.3523,10.97903 -0.30975,1.26118 -1.03637,4.30505 -1.61472,6.76415 -2.77758,11.81016 -8.51057,22.47788 -17.36969,32.32085 l -1.68033,1.86694 1.04527,1.69878 c 1.72537,2.80409 3.14037,6.23361 3.9141,9.48657 0.61416,2.58208 0.70755,3.88882 0.58516,8.18771 -0.13139,4.61457 -0.2557,5.43666 -1.26999,8.39855 -0.61839,1.80579 -1.12435,3.41495 -1.12435,3.57591 0,0.16096 0.69914,0.39749 1.55365,0.52564 3.16254,0.47425 11.16018,2.62396 13.14838,3.53419 5.67205,2.59674 4.76811,5.11533 -2.70759,7.54402 -5.62783,1.82835 -15.91646,3.65141 -28.39861,5.03199 -1.74625,0.19315 -4.31924,0.58172 -5.71776,0.86349 -1.39852,0.28178 -3.80043,0.51233 -5.33756,0.51233 -1.53713,0 -6.90163,0.31225 -11.92112,0.6939 -11.25503,0.85575 -28.50733,1.67908 -44.5805,2.12751 -14.07498,0.39269 -52.700103,0.37152 -67.380551,-0.0369 z M 43.99536,214.82563 c 10.616346,-1.7217 18.668872,-11.08055 18.798243,-21.84779 0.0482,-4.01135 -0.450914,-6.28934 -2.202882,-10.05417 -2.335925,-5.01971 -6.146119,-8.73397 -11.357906,-11.07192 -4.544793,-2.03875 -11.044487,-2.34805 -15.820788,-0.75286 -7.151087,2.38833 -13.133986,8.85229 -15.020091,16.22779 -0.857349,3.35262 -0.563655,9.20836 0.631581,12.59246 3.625144,10.264 14.301367,16.63697 24.971843,14.90649 z M 32.864072,199.58247 c -0.09517,-0.24801 -0.129875,-3.62145 -0.07713,-7.49653 l 0.09591,-7.04561 7.496527,-0.0952 7.496527,-0.0952 v 7.59174 7.59174 h -7.419403 c -5.697424,0 -7.459567,-0.10465 -7.59244,-0.45092 z m 174.394068,15.07988 c 8.44192,-1.678 15.45774,-8.36092 17.5798,-16.74562 0.34619,-1.36784 0.57387,-3.6453 0.5643,-5.64445 -0.0453,-9.45649 -6.0542,-17.73861 -15.3069,-21.09761 -2.31356,-0.83989 -3.07301,-0.9381 -7.1736,-0.92766 -4.03941,0.0103 -4.89343,0.12188 -7.16417,0.93618 -7.08886,2.54208 -12.89377,8.84328 -14.70275,15.95974 -0.67693,2.66304 -0.67902,7.82343 -0.004,10.68501 0.88275,3.744 3.12451,7.70507 5.95624,10.52439 5.56866,5.54425 12.78768,7.79359 20.2514,6.31002 z m -11.92112,-22.21368 v -7.58472 h 7.58472 7.58472 v 7.58472 7.58472 h -7.58472 -7.58472 z m -49.74167,7.42837 c 8.69102,-0.97003 24.44943,-3.80063 25.7977,-4.63391 0.16932,-0.10465 0.30786,-1.66867 0.30786,-3.4756 0,-5.53389 2.14152,-12.36302 5.34471,-17.04388 5.28121,-7.71746 14.30308,-12.80056 23.73597,-13.37329 7.48878,-0.4547 14.47492,1.42041 20.03032,5.37623 l 1.6624,1.18374 2.12287,-2.37111 c 5.79498,-6.47263 10.36436,-14.27597 13.05995,-22.30306 1.78636,-5.31954 3.36461,-13.10593 3.36461,-16.59953 0,-2.77111 -0.1066,-3.23213 -1.30512,-5.64444 -0.71781,-1.44477 -2.00782,-3.42061 -2.86669,-4.39075 -1.45688,-1.64564 -1.66501,-1.75958 -3.1046,-1.69963 -0.84867,0.0353 -3.09873,0.63065 -5.00012,1.32292 -3.34127,1.21649 -3.6211,1.25865 -8.35294,1.25865 -5.68801,0 -9.10254,0.40532 -13.76598,1.63407 -3.10625,0.81846 -9.09725,3.00367 -12.74305,4.64802 -20.21434,9.11719 -38.2691,13.41406 -60.28233,14.34664 -2.61937,0.11096 -5.81486,0.28512 -7.10108,0.387 -2.84475,0.22535 -9.92808,-0.34916 -15.65308,-1.26957 -13.468548,-2.16536 -25.438093,-6.48881 -45.331947,-16.3741 -20.25042,-10.06246 -26.480719,-11.99075 -34.86105,-10.78956 -3.94021,0.56477 -5.743324,0.21294 -10.170815,-1.98457 -3.173769,-1.57525 -9.668902,-6.2003 -14.870285,-10.588829 -2.6958465,-2.274548 -5.31939827,-3.945393 -8.4683243,-5.393169 l -1.871867,-0.860625 -1.2663593,0.681981 c -2.1169452,1.140049 -5.3683954,6.076843 -5.3891034,8.182462 -0.0059,0.60066 0.432241,1.00806 1.844336,1.71494 7.0506375,3.52944 14.1136681,10.27212 17.2410499,16.45906 0.563947,1.11566 1.0948388,2.02848 1.179763,2.02848 0.084928,0 1.1728061,-0.71191 2.4175121,-1.58203 3.943607,-2.75677 8.364269,-4.4695 6.014095,-2.33007 -4.505565,4.10153 -7.033951,10.29932 -7.4245289,18.1996 -0.1796063,3.63296 -0.1022315,4.64549 0.5455919,7.13954 1.679748,6.46689 5.646402,13.585 11.158802,20.02435 1.494878,1.74625 2.832346,3.21851 2.972156,3.27169 0.139809,0.0532 1.48863,-0.46585 2.997383,-1.15341 7.847128,-3.57605 17.996594,-3.51289 25.836021,0.16079 10.336181,4.8437 16.928824,14.06461 18.157913,25.39686 l 0.410601,3.78576 2.959407,0.96378 c 11.311392,3.68371 20.929306,5.46973 32.744649,6.0806 2.32833,0.12038 4.3127,0.29373 4.40972,0.38523 0.44446,0.41918 28.66728,-0.23031 33.51388,-0.77126 z"
         id="path1619" /><path
         style="fill:#f7cd06;fill-opacity:1;stroke:#fdfdfd;stroke-width:1.89211"
         d="M 647.10255,356.43023 C 586.11203,353.4708 535.40008,345.83699 492.11097,333.09891 470.64557,326.78259 458.91674,322.61227 412.88955,304.9309 353.34845,282.05813 294.61789,232.2017 272.17767,185.48043 c -9.84612,-20.49995 -8.23928,-31.58994 7.10244,-49.01906 4.05623,-4.60811 7.37497,-8.97863 7.37497,-9.71226 0,-2.73905 -10.79727,1.46151 -22.46827,8.74104 -6.6339,4.13776 -12.23147,7.27459 -12.43905,6.97075 -0.20758,-0.30385 -3.16987,-5.179 -6.58287,-10.83367 -12.78272,-21.17847 -33.99937,-41.353157 -57.824,-54.984234 -10.01565,-5.730373 -10.72251,-6.583099 -9.69904,-11.700469 1.41664,-7.083223 11.32164,-21.500522 17.59555,-25.611342 4.71165,-3.087193 5.26528,-2.972896 18.33723,3.785692 7.41339,3.832946 21.4714,13.420001 31.24002,21.304567 35.24979,28.451226 59.77794,42.520126 74.77863,42.891656 4.25822,0.10547 15.90441,-0.003 25.88043,-0.24059 29.37582,-0.70021 43.08418,3.96181 119.03996,40.48386 68.46351,32.91951 99.28214,45.19027 137.98043,54.93831 35.96187,9.05874 53.65891,11.15598 92.85732,11.00434 89.83053,-0.34753 165.06876,-15.496 243.13648,-48.95312 53.34789,-22.86306 68.8951,-27.10114 106.9044,-29.14156 22.0192,-1.18205 32.1127,-2.57174 40.5036,-5.57661 14.3328,-5.13279 20.3421,-5.07148 24.9966,0.25502 5.5601,6.36278 10.1843,17.74532 10.1843,25.06856 0,13.08163 -14.1819,45.0006 -29.8451,67.17193 -17.2429,24.40756 -54.2331,57.34844 -77.4596,68.98021 -5.4235,2.71607 -10.3187,5.67893 -10.8781,6.58413 -0.5594,0.90521 -9.02244,1.69483 -18.80667,1.75469 -20.22525,0.12375 -31.14094,2.3582 -47.74143,9.77265 -13.55544,6.0544 -22.49171,11.88211 -32.69209,21.31985 -7.82463,7.23962 -15.81131,9.92493 -45.5807,15.32534 -59.28901,10.75551 -130.69377,14.26536 -210.97056,10.37012 z"
         id="path4530"
         transform="matrix(0.26458333,0,0,0.26458333,-57.73632,81.963175)" /></g><path
       style="fill:#f5e194;fill-opacity:1;stroke:#fdfdfd;stroke-width:1.33793"
       d="m 166.47431,790.03645 c -30.22454,-4.75815 -57.68881,-27.54617 -67.621599,-56.10791 -4.532604,-13.0335 -5.689258,-33.18907 -2.644542,-46.08316 6.031431,-25.54252 26.452321,-49.2407 51.632621,-59.91897 8.95321,-3.79681 11.76915,-4.31838 26.13332,-4.84049 17.50666,-0.63634 27.45083,1.08638 40.09401,6.94581 30.00471,13.90558 50.5452,48.04082 48.3839,80.40683 -1.82925,27.39349 -15.45125,51.18774 -37.90043,66.20268 -16.60717,11.10754 -39.32505,16.3473 -58.07728,13.39521 z m 41.57314,-84.49009 v -29.64384 l -21.07233,0.87398 c -11.58978,0.48068 -24.83525,0.87597 -29.43437,0.87842 l -8.36203,0.004 v 27.98495 c 0,21.13609 0.40929,28.1501 1.67241,28.65977 0.91982,0.37116 14.16528,0.72237 29.43436,0.78046 l 27.76196,0.10563 z"
       id="path3322"
       transform="scale(0.26458333)" /><path
       style="fill:#f5e194;fill-opacity:1;stroke:#fdfdfd;stroke-width:1.33793"
       d="m 432.81897,735.07209 c -36.46053,-2.8126 -60.53359,-6.34953 -86.29621,-12.67906 -21.62201,-5.31223 -45.35879,-12.91879 -47.16188,-15.11324 -0.91982,-1.11947 -1.67241,-4.39301 -1.67241,-7.27453 0,-4.45941 0.34846,-5.09782 2.34137,-4.28963 14.46136,5.86454 40.95504,13.15381 65.22388,17.9452 62.78253,12.39514 156.64039,14.02231 233.35643,4.04559 18.15745,-2.36133 66.30101,-10.80926 72.69408,-12.75591 1.98777,-0.60526 2.34137,0.19311 2.34137,5.28642 v 5.99935 l -11.70685,2.74172 c -14.79443,3.46482 -44.58733,8.69277 -69.35055,12.16938 -32.68234,4.58842 -122.54829,6.79596 -159.76923,3.92471 z"
       id="path3324"
       transform="scale(0.26458333)" /><path
       style="fill:#f5e194;fill-opacity:1;stroke:#fdfdfd;stroke-width:1.33793"
       d="m 779.773,789.99591 c -30.4016,-5.43679 -56.85451,-28.41179 -66.65184,-57.8888 -3.13091,-9.41992 -3.64247,-13.14574 -3.63012,-26.43895 0.0121,-13.0545 0.54116,-16.98855 3.38364,-25.16208 8.61066,-24.75995 30.0681,-45.99824 54.89197,-54.33134 8.50779,-2.85597 12.45417,-3.36601 25.85921,-3.34209 13.26196,0.0237 17.30056,0.55096 24.98292,3.26193 25.79246,9.10173 46.3991,29.67303 54.50038,54.40695 2.77367,8.46823 3.21988,12.33557 3.14543,27.26118 -0.0777,15.5751 -0.46183,18.35247 -3.67518,26.5724 -9.81778,25.11435 -30.17394,44.62023 -54.6266,52.34483 -11.84748,3.7426 -27.966,5.14253 -38.17981,3.31597 z m 42.38236,-84.24009 v -29.43436 h -29.43437 -29.43436 v 29.43436 29.43437 h 29.43436 29.43437 z"
       id="path3326"
       transform="scale(0.26458333)" /></g></svg>
