<?xml version="1.0" encoding="UTF-8" standalone="no"?>
<!-- Uploaded to: SVG Repo, www.svgrepo.com, Generator: SVG Repo Mixer Tools -->

<svg
   width="400"
   height="750"
   viewBox="0 0 64 120"
   aria-hidden="true"
   role="img"
   class="iconify iconify--noto"
   preserveAspectRatio="xMidYMid"
   version="1.1"
   id="svg911"
   sodipodi:docname="mobile.svg"
   inkscape:version="1.2.2 (b0a8486541, 2022-12-01)"
   xmlns:inkscape="http://www.inkscape.org/namespaces/inkscape"
   xmlns:sodipodi="http://sodipodi.sourceforge.net/DTD/sodipodi-0.dtd"
   xmlns="http://www.w3.org/2000/svg"
   xmlns:svg="http://www.w3.org/2000/svg">
  <defs
     id="defs915" />
  <sodipodi:namedview
     id="namedview913"
     pagecolor="#ffffff"
     bordercolor="#000000"
     borderopacity="0.25"
     inkscape:showpageshadow="2"
     inkscape:pageopacity="0.0"
     inkscape:pagecheckerboard="0"
     inkscape:deskcolor="#d1d1d1"
     showgrid="false"
     inkscape:zoom="1.085"
     inkscape:cx="200"
     inkscape:cy="375.11521"
     inkscape:window-width="1880"
     inkscape:window-height="1056"
     inkscape:window-x="40"
     inkscape:window-y="0"
     inkscape:window-maximized="1"
     inkscape:current-layer="svg911" />
  <path
     d="M 55.4,120 H 8.6 C 3.9,120 0,116.2 0,111.4 V 8.6 C 0,3.9 3.9,0 8.6,0 H 55.4 C 60.1,0 64,3.8 64,8.6 v 102.9 c 0,4.7 -3.9,8.5 -8.6,8.5 z"
     fill="#424242"
     id="path867"
     style="fill:#ffcc00" />
  <path
     d="M 54.77,116.11 H 7.93 c -2.15,0 -3.89,-1.74 -3.89,-3.89 V 15.65 c 0,-2.14 1.74,-3.88 3.88,-3.88 h 48.15 c 2.15,0 3.89,1.74 3.89,3.89 v 95.93 c 0,0.93 -1.4,4.52 -5.19,4.52 z"
     fill="#000000"
     id="path869" />
  <path
     d="m 41.65,7.59 h -19.2 c -0.7,0 -1.2,-0.6 -1.2,-1.2 0,-0.6 0.6,-1.2 1.2,-1.2 h 19.1 c 0.7,0 1.2,0.6 1.2,1.2 0,0.6 -0.5,1.2 -1.1,1.2 z"
     fill="#212121"
     id="path871" />
  <path
     d="M 55.4,2 C 59.04,2 62,4.96 62,8.6 v 102.9 c 0,3.58 -2.96,6.5 -6.6,6.5 H 8.6 C 4.96,118 2,115.04 2,111.4 V 8.6 C 2,5.02 5.02,2 8.6,2 h 46.8 m 0,-2 H 8.6 C 3.9,0 0,3.9 0,8.6 v 102.8 c 0,4.8 3.9,8.6 8.6,8.6 h 46.8 c 4.7,0 8.6,-3.8 8.6,-8.5 V 8.6 C 64,3.8 60.1,0 55.4,0 Z"
     fill="#757575"
     id="path873"
     style="fill:#d4aa00" />
  <path
     d="M 16.35,25.96 H 9.99 c -0.73,0 -1.32,-0.59 -1.32,-1.32 v -6.36 c 0,-0.73 0.59,-1.32 1.32,-1.32 h 6.36 c 0.73,0 1.32,0.59 1.32,1.32 v 6.36 c 0,0.73 -0.59,1.32 -1.32,1.32 z"
     fill="#eab56e"
     id="path875" />
  <path
     d="m 28.9,25.96 h -6.36 c -0.73,0 -1.32,-0.59 -1.32,-1.32 v -6.36 c 0,-0.73 0.59,-1.32 1.32,-1.32 h 6.36 c 0.73,0 1.32,0.59 1.32,1.32 v 6.36 c 0,0.73 -0.59,1.32 -1.32,1.32 z"
     fill="#fb8c00"
     id="path877" />
  <path
     d="M 41.45,25.96 H 35.1 c -0.73,0 -1.32,-0.59 -1.32,-1.32 v -6.36 c 0,-0.73 0.59,-1.32 1.32,-1.32 h 6.36 c 0.73,0 1.32,0.59 1.32,1.32 v 6.36 c 0,0.73 -0.59,1.32 -1.33,1.32 z"
     fill="#ff80ab"
     id="path879" />
  <path
     d="m 54.01,25.96 h -6.36 c -0.73,0 -1.32,-0.59 -1.32,-1.32 v -6.36 c 0,-0.73 0.59,-1.32 1.32,-1.32 h 6.36 c 0.73,0 1.32,0.59 1.32,1.32 v 6.36 c 0,0.73 -0.59,1.32 -1.32,1.32 z"
     fill="#0288d1"
     id="path881" />
  <path
     d="M 16.35,40.12 H 9.99 c -0.73,0 -1.32,-0.59 -1.32,-1.32 v -6.36 c 0,-0.73 0.59,-1.32 1.32,-1.32 h 6.36 c 0.73,0 1.32,0.59 1.32,1.32 v 6.36 c 0,0.73 -0.59,1.32 -1.32,1.32 z"
     fill="#00bfa5"
     id="path883" />
  <path
     d="m 28.9,40.12 h -6.36 c -0.73,0 -1.32,-0.59 -1.32,-1.32 v -6.36 c 0,-0.73 0.59,-1.32 1.32,-1.32 h 6.36 c 0.73,0 1.32,0.59 1.32,1.32 v 6.36 c 0,0.73 -0.59,1.32 -1.32,1.32 z"
     fill="#81d4fa"
     id="path885" />
  <path
     d="M 41.45,40.12 H 35.1 c -0.73,0 -1.32,-0.59 -1.32,-1.32 v -6.36 c 0,-0.73 0.59,-1.32 1.32,-1.32 h 6.36 c 0.73,0 1.32,0.59 1.32,1.32 v 6.36 c 0,0.73 -0.59,1.32 -1.33,1.32 z"
     fill="#fb8c00"
     id="path887" />
  <path
     d="m 54.01,40.12 h -6.36 c -0.73,0 -1.32,-0.59 -1.32,-1.32 v -6.36 c 0,-0.73 0.59,-1.32 1.32,-1.32 h 6.36 c 0.73,0 1.32,0.59 1.32,1.32 v 6.36 c 0,0.73 -0.59,1.32 -1.32,1.32 z"
     fill="#eab56e"
     id="path889" />
  <path
     d="M 16.35,54.28 H 9.99 c -0.73,0 -1.32,-0.59 -1.32,-1.32 V 46.6 c 0,-0.73 0.59,-1.32 1.32,-1.32 h 6.36 c 0.73,0 1.32,0.59 1.32,1.32 v 6.36 c 0,0.73 -0.59,1.32 -1.32,1.32 z"
     fill="#fb8c00"
     id="path891" />
  <path
     d="m 28.9,54.28 h -6.36 c -0.73,0 -1.32,-0.59 -1.32,-1.32 V 46.6 c 0,-0.73 0.59,-1.32 1.32,-1.32 h 6.36 c 0.73,0 1.32,0.59 1.32,1.32 v 6.36 c 0,0.73 -0.59,1.32 -1.32,1.32 z"
     fill="#ff80ab"
     id="path893" />
  <path
     d="M 41.45,54.28 H 35.1 c -0.73,0 -1.32,-0.59 -1.32,-1.32 V 46.6 c 0,-0.73 0.59,-1.32 1.32,-1.32 h 6.36 c 0.73,0 1.32,0.59 1.32,1.32 v 6.36 c 0,0.73 -0.59,1.32 -1.33,1.32 z"
     fill="#00bfa5"
     id="path895" />
  <path
     d="m 54.01,54.28 h -6.36 c -0.73,0 -1.32,-0.59 -1.32,-1.32 V 46.6 c 0,-0.73 0.59,-1.32 1.32,-1.32 h 6.36 c 0.73,0 1.32,0.59 1.32,1.32 v 6.36 c 0,0.73 -0.59,1.32 -1.32,1.32 z"
     fill="#0288d1"
     id="path897" />
  <path
     d="M 16.35,68.44 H 9.99 c -0.73,0 -1.32,-0.59 -1.32,-1.32 v -6.36 c 0,-0.73 0.59,-1.32 1.32,-1.32 h 6.36 c 0.73,0 1.32,0.59 1.32,1.32 v 6.36 c 0,0.73 -0.59,1.32 -1.32,1.32 z"
     fill="#0288d1"
     id="path899" />
  <path
     d="m 28.9,68.44 h -6.36 c -0.73,0 -1.32,-0.59 -1.32,-1.32 v -6.36 c 0,-0.73 0.59,-1.32 1.32,-1.32 h 6.36 c 0.73,0 1.32,0.59 1.32,1.32 v 6.36 c 0,0.73 -0.59,1.32 -1.32,1.32 z"
     fill="#81d4fa"
     id="path901" />
  <path
     d="M 16.35,110.92 H 9.99 c -0.73,0 -1.32,-0.59 -1.32,-1.32 v -6.36 c 0,-0.73 0.59,-1.32 1.32,-1.32 h 6.36 c 0.73,0 1.32,0.59 1.32,1.32 v 6.36 c 0,0.72 -0.59,1.32 -1.32,1.32 z"
     fill="#81d4fa"
     id="path903" />
  <path
     d="m 28.9,110.92 h -6.36 c -0.73,0 -1.32,-0.59 -1.32,-1.32 v -6.36 c 0,-0.73 0.59,-1.32 1.32,-1.32 h 6.36 c 0.73,0 1.32,0.59 1.32,1.32 v 6.36 c 0,0.72 -0.59,1.32 -1.32,1.32 z"
     fill="#0288d1"
     id="path905" />
  <path
     d="M 41.45,110.92 H 35.1 c -0.73,0 -1.32,-0.59 -1.32,-1.32 v -6.36 c 0,-0.73 0.59,-1.32 1.32,-1.32 h 6.36 c 0.73,0 1.32,0.59 1.32,1.32 v 6.36 c 0,0.72 -0.59,1.32 -1.33,1.32 z"
     fill="#00bfa5"
     id="path907" />
  <path
     d="m 54.01,110.92 h -6.36 c -0.73,0 -1.32,-0.59 -1.32,-1.32 v -6.36 c 0,-0.73 0.59,-1.32 1.32,-1.32 h 6.36 c 0.73,0 1.32,0.59 1.32,1.32 v 6.36 c 0,0.72 -0.59,1.32 -1.32,1.32 z"
     fill="#ff80ab"
     id="path909" />
</svg>
