<?xml version="1.0" encoding="UTF-8" standalone="no"?>
<svg
   width="160"
   height="160"
   viewBox="-60 -60 120 120"
   sodipodi:docname="new.svg"
   version="1.1"
   id="svg263"
   inkscape:version="1.4.2 (ebf0e940d0, 2025-05-08)"
   xml:space="preserve"
   xmlns:inkscape="http://www.inkscape.org/namespaces/inkscape"
   xmlns:sodipodi="http://sodipodi.sourceforge.net/DTD/sodipodi-0.dtd"
   xmlns="http://www.w3.org/2000/svg"
   xmlns:svg="http://www.w3.org/2000/svg"
   xmlns:rdf="http://www.w3.org/1999/02/22-rdf-syntax-ns#"
   xmlns:cc="http://creativecommons.org/ns#"
   xmlns:dc="http://purl.org/dc/elements/1.1/">
  <defs
   id="defs1">
    <style
   id="style1">
      :root { color-scheme: light; } /* dark-mode fix */
    </style>
  </defs>
  
  <defs
   id="defs265" /><sodipodi:namedview
   pagecolor="#ffffff"
   bordercolor="#666666"
   borderopacity="1.0"
   inkscape:pageopacity="0.0"
   inkscape:pageshadow="2"
   inkscape:zoom="2.8284271"
   inkscape:cx="119.14749"
   inkscape:cy="81.31728"
   inkscape:document-units="mm"
   inkscape:current-layer="Template"
   showgrid="false"
   units="mm"
   showguides="true"
   inkscape:guide-bbox="true"
   inkscape:snap-global="true"
   inkscape:snap-bbox="true"
   inkscape:snap-bbox-midpoints="true"
   inkscape:window-width="1883"
   inkscape:window-height="1055"
   inkscape:window-x="37"
   inkscape:window-y="0"
   inkscape:window-maximized="1"
   inkscape:bbox-paths="true"
   inkscape:bbox-nodes="true"
   inkscape:snap-bbox-edge-midpoints="true"
   inkscape:snap-grids="true"
   id="namedview253"
   inkscape:showpageshadow="2"
   inkscape:pagecheckerboard="0"
   inkscape:deskcolor="#d1d1d1"><sodipodi:guide
     orientation="1,0"
     position="226.771653543,226.771653543"
     id="guide2827"
     inkscape:locked="false" /><sodipodi:guide
     orientation="0,1"
     position="226.771653543,226.771653543"
     id="guide2829"
     inkscape:locked="false" /><inkscape:grid
     type="xygrid"
     id="grid3072"
     empspacing="10"
     visible="true"
     enabled="true"
     snapvisiblegridlinesonly="true"
     units="mm"
     dotted="false"
     spacingx="0.1mm"
     spacingy="0.1mm"
     originx="0"
     originy="0" /></sodipodi:namedview><metadata
   id="metadata2822"><rdf:RDF><cc:Work
       rdf:about=""><dc:format>image/svg+xml</dc:format><dc:type
         rdf:resource="http://purl.org/dc/dcmitype/StillImage" /></cc:Work></rdf:RDF></metadata><g
   inkscape:label="Layer 1"
   inkscape:groupmode="layer"
   id="Template"
   style="fill:none;stroke:black;stroke-width:0.05"><path
     style="fill:#d45500;stroke-width:0.0192461"
     d="M 8.4617757,29.942357 C 6.7095547,27.551897 4.7690515,24.860909 4.1495496,23.96238 3.5300451,23.063854 2.9123495,22.324984 2.7768973,22.320447 c -0.1354522,-0.0046 -3.1415961,1.302978 -6.6803176,2.905589 -3.5387175,1.602605 -6.6294087,2.838309 -6.8682027,2.745999 -0.265509,-0.102635 -0.709852,-3.018382 -1.14383,-7.505721 l -0.709654,-7.337884 -2.72242,-0.245096 c -7.174899,-0.645949 -11.341578,-1.143659 -11.761132,-1.404875 -0.330032,-0.205471 0.370166,-2.1696113 2.467268,-6.9209509 1.610442,-3.64873559 2.923137,-6.7533099 2.917108,-6.8990565 -0.0058,-0.1457411 -2.762286,-2.2421481 -6.124994,-4.6586748 l -6.114014,-4.3936868 5.837357,-4.227837 c 3.21054,-2.325313 5.989502,-4.378314 6.175468,-4.562229 0.193857,-0.191728 -0.910606,-3.142563 -2.588707,-6.916372 -2.890643,-6.500634 -3.202908,-7.374297 -2.639177,-7.383881 1.036946,-0.01762 14.363117,-1.491041 14.464475,-1.599261 0.06922,-0.07389 0.431312,-3.300416 0.804662,-7.170029 0.373344,-3.869618 0.793346,-7.222354 0.933336,-7.450529 0.162938,-0.265586 2.6922089,0.692216 7.0291017,2.661823 l 6.7745798,3.076689 4.2739248,-5.971175 c 2.3506565,-3.284147 4.3982857,-6.048603 4.5502867,-6.143237 0.151997,-0.09463 1.972491,2.21363 4.045543,5.129468 2.073053,2.915841 4.049674,5.674905 4.392499,6.131262 l 0.623314,0.829732 6.824755,-3.073492 c 3.75362,-1.690422 6.896998,-3.000723 6.985288,-2.91178 0.08829,0.08894 0.481159,3.411209 0.873039,7.382812 0.391879,3.971606 0.795325,7.304523 0.896546,7.406489 0.101215,0.101962 1.717371,0.34865 3.591457,0.548189 9.603265,1.022495 11.050807,1.195277 11.190171,1.335663 0.08315,0.08377 -1.227617,3.250834 -2.912813,7.037933 l -3.063991,6.885634 2.163849,1.545348 c 1.190112,0.849942 3.941769,2.872064 6.11479,4.493605 l 3.950947,2.948254 -4.141428,3.0614113 c -2.277786,1.6837765 -4.961186,3.6462523 -5.963108,4.3610578 -1.001924,0.7148008 -1.82168,1.5121994 -1.82168,1.7719965 0,0.2597955 1.301047,3.3876803 2.891212,6.9508547 1.590164,3.5631752 2.755082,6.5986637 2.588701,6.7455257 -0.166378,0.146863 -3.531824,0.580413 -7.478763,0.963444 l -7.176256,0.696418 -0.209623,1.58205 c -0.115291,0.870129 -0.464153,4.259378 -0.775242,7.531667 -0.311088,3.272286 -0.611628,5.994188 -0.667862,6.048673 -0.05623,0.05449 -3.116966,-1.275494 -6.801626,-2.955504 -3.68466,-1.680011 -6.803965,-3.054562 -6.931786,-3.054562 -0.12782,0 -2.174801,2.694701 -4.548848,5.988223 -2.374047,3.293523 -4.390029,5.988223 -4.479963,5.988223 -0.08993,0 -1.597145,-1.955829 -3.3493623,-4.34629 z M -8.483287,-2.9369315 c 0.3369735,-0.5180726 0.6945902,-2.2522328 0.8304519,-4.0270495 l 0.2386182,-3.117149 2.3999834,2.9944367 c 2.3830827,2.9733505 4.519698,5.0596637 5.18165717,5.0596637 0.18988562,0 0.65124157,-0.4703196 1.02523363,-1.0451513 0.5748652,-0.8835826 0.6799855,-1.9436765 0.6799855,-6.8574814 0,-6.2717717 -0.3122547,-7.5555387 -1.83517078,-7.5449337 -0.46717499,0.0031 -1.04118912,0.133642 -1.27558572,0.289753 -0.3680956,0.245157 -0.8725192,4.143727 -0.9054943,6.998325 -0.00823,0.7139929 -0.7075439,0.0019 -3.1296762,-3.187281 -2.5689671,-3.382434 -3.2960701,-4.105669 -4.1227475,-4.100797 -1.9608813,0.01155 -2.0133243,0.191438 -2.0371793,6.987287 -0.01323,3.767663 0.148999,6.766029 0.400256,7.3978522 0.527239,1.3258391 1.7393429,1.3983468 2.549668,0.1525253 z m 21.17906,0.3352243 c 0.468505,-0.1139155 1.033345,-0.5487884 1.255198,-0.966379 0.631828,-1.1892732 -0.665457,-2.2059498 -3.226029,-2.5282282 -2.0359933,-0.2562574 -2.1408491,-0.3234335 -2.1408491,-1.3715968 0,-1.0805653 0.039934,-1.1010876 2.0392831,-1.0480975 2.415709,0.064027 2.946366,-0.1953514 2.946366,-1.440137 0,-1.1868043 -1.014748,-1.7293103 -3.234636,-1.7293103 -1.6898969,0 -1.7510131,-0.04045 -1.7510131,-1.159011 0,-1.058849 0.1118586,-1.159011 1.2943516,-1.159011 0.7118925,0 1.8336645,-0.108657 2.4928235,-0.24146 1.048908,-0.211327 1.198474,-0.399025 1.198474,-1.504014 0,-1.570097 -0.38946,-1.731559 -4.1766932,-1.731559 -4.5715446,0 -4.4523144,-0.208649 -4.4523144,7.7915909 v 6.6960463 l 1.6388095,0.3982366 c 1.6247659,0.3948214 4.4769251,0.3915259 6.1162291,-0.00703 z m 9.40242,-0.1873421 c 0.853968,-0.6766764 1.517075,-2.0015695 3.002441,-5.9988789 0.428709,-1.1537066 0.435463,-1.1454854 1.475298,1.7959687 1.361349,3.8509481 2.103455,4.9649299 3.307524,4.9649299 1.693027,0 3.270695,-3.6890325 4.65598,-10.8870004 0.709342,-3.685756 0.476674,-4.566481 -1.206374,-4.566481 -1.353362,0 -2.06764,1.175268 -2.775392,4.566592 -0.362728,1.738084 -0.752365,3.1582398 -0.865853,3.1559062 -0.113494,-0.00232 -0.711296,-1.6621992 -1.328451,-3.6885952 l -1.1221,-3.684352 -1.72135,0.114977 -1.721348,0.114978 -1.086619,3.263616 c -0.597636,1.794988 -1.233388,3.411468 -1.412775,3.592177 -0.179388,0.1807093 -0.610496,-1.099538 -0.958023,-2.844989 -0.705339,-3.542579 -1.44363,-4.684842 -2.916283,-4.51201 -0.835955,0.09811 -0.996581,0.333381 -1.100697,1.612245 -0.128565,1.579195 1.109667,8.0174937 2.068411,10.7548922 0.620898,1.7727774 1.557126,3.0080442 2.279842,3.0080442 0.255257,0 0.896857,-0.3429099 1.425769,-0.7620197 z"
     id="path1640" /><path
     style="fill:#ffffff;stroke-width:0.0105613"
     d="m -10.376014,-2.4388367 c -0.680175,-0.4541661 -0.793666,-1.2601046 -0.888341,-6.3083615 -0.104225,-5.5574678 0.03286,-7.7257488 0.519183,-8.2120738 0.173198,-0.1732 0.669033,-0.314907 1.1018524,-0.314907 0.9662205,0 1.5006818,0.51412 4.6647035,4.487177 1.2253432,1.538664 2.3799661,2.8261223 2.5658275,2.8610188 0.2852682,0.053563 0.3603229,-0.2829618 0.4816507,-2.1595928 0.1643206,-2.54165 0.4929892,-4.539882 0.8099898,-4.924572 0.1196655,-0.145217 0.5839492,-0.264031 1.03174047,-0.264031 0.62172263,0 0.89111936,0.117441 1.13971673,0.496848 0.5242105,0.800048 0.7928299,3.95916 0.7046074,8.2865645 -0.077705,3.8115054 -0.1112016,4.0873593 -0.6155464,5.0694069 -0.69700539,1.3571943 -1.10962554,1.4009771 -2.4112739,0.2558635 -0.8674537,-0.7631358 -3.7708361,-4.1013022 -5.5478575,-6.3786572 -0.2630199,-0.3370712 -0.5252201,-0.5658537 -0.5826713,-0.5084027 -0.057451,0.057451 -0.1978209,1.093765 -0.3119312,2.3029178 -0.2774,2.9393963 -0.5723064,4.2811479 -1.0839152,4.931557 -0.4141727,0.5265319 -1.1075408,0.6931992 -1.577735,0.3792445 z"
     id="path184" /><path
     style="fill:#ffffff;stroke-width:0.0105613"
     d="M 6.9656458,-2.634556 C 6.733298,-2.6879854 6.1867526,-2.8231991 5.7511004,-2.9350324 l -0.7920948,-0.203336 0.00921,-4.374782 c 0.00507,-2.4061327 0.091615,-5.3704176 0.1923333,-6.5873056 0.1670243,-2.017953 0.2322612,-2.254783 0.7418612,-2.693122 0.5246266,-0.451264 0.7421021,-0.480601 3.5627222,-0.480601 3.6124937,0 3.9428877,0.134189 3.9428877,1.601394 0,1.155744 -0.277881,1.29969 -2.93676,1.521274 l -1.8158113,0.151324 -0.065702,1.03569 c -0.078572,1.238577 0.087696,1.385735 1.5706813,1.390167 2.211235,0.0066 3.247589,0.541252 3.247589,1.6754006 0,0.94126 -0.481097,1.1681793 -2.724327,1.2849869 l -2.0282417,0.1056126 -0.066354,0.9264046 c -0.036493,0.509524 0.013793,1.0065518 0.1117466,1.1045055 0.097956,0.097956 0.9781547,0.3298684 1.9559991,0.5153622 2.013304,0.3819164 2.842964,0.7435426 3.188915,1.3899595 0.317784,0.5937818 -0.305049,1.4582635 -1.302422,1.8077358 -0.686876,0.2406764 -4.6903588,0.3338457 -5.5776872,0.1298063 z"
     id="path186" /><path
     style="fill:#ffffff;stroke-width:0.0105613"
     d="m 20.07596,-2.5148609 c -1.12514,-0.8850361 -1.940083,-3.1577188 -2.982307,-8.3169471 -0.639174,-3.164047 -0.770381,-5.564808 -0.332975,-6.092584 0.402078,-0.485147 1.417738,-0.43757 1.946485,0.09118 0.593566,0.593564 0.95707,1.516976 1.466643,3.725712 0.553391,2.398664 0.826083,3.2262088 1.063093,3.2262088 0.246709,0 0.655848,-0.9781318 1.722876,-4.1188928 0.473619,-1.394087 0.918276,-2.593906 0.988124,-2.666265 0.06985,-0.07236 0.812653,-0.185353 1.650679,-0.251097 l 1.523682,-0.119534 0.762946,2.468962 c 1.056832,3.420014 1.602209,4.8980521 1.80732,4.8980521 0.181945,0 0.283458,-0.3332971 1.061493,-3.4852171 0.835523,-3.384805 1.319041,-4.118893 2.712969,-4.118893 1.005091,0 1.274783,0.376186 1.274783,1.778166 0,1.959997 -1.623194,8.5823158 -2.684893,10.9538435 -0.663537,1.4821446 -1.785868,2.5582339 -2.454626,2.3534869 -0.998981,-0.3058458 -1.392912,-0.9657431 -2.880847,-4.8258789 -0.534146,-1.385733 -1.069792,-2.5523851 -1.190322,-2.5925623 -0.120531,-0.040177 -0.583074,0.8559757 -1.027873,1.9914489 -1.396015,3.5637191 -2.037962,4.5807583 -3.311317,5.2461201 -0.502205,0.2624178 -0.616518,0.2475328 -1.115933,-0.1453061 z"
     id="path188" /></g></svg>
