<?xml version="1.0" encoding="UTF-8" standalone="no"?>
<!-- Created with Inkscape (http://www.inkscape.org/) -->

<svg
   width="120mm"
   height="120mm"
   viewBox="-60 -60 120 120"
   sodipodi:docname="new.svg"
   version="1.1"
   id="svg263"
   inkscape:version="1.2.2 (b0a8486541, 2022-12-01)"
   xml:space="preserve"
   xmlns:inkscape="http://www.inkscape.org/namespaces/inkscape"
   xmlns:sodipodi="http://sodipodi.sourceforge.net/DTD/sodipodi-0.dtd"
   xmlns="http://www.w3.org/2000/svg"
   xmlns:svg="http://www.w3.org/2000/svg"
   xmlns:rdf="http://www.w3.org/1999/02/22-rdf-syntax-ns#"
   xmlns:cc="http://creativecommons.org/ns#"
   xmlns:dc="http://purl.org/dc/elements/1.1/"><defs
     id="defs265" /><sodipodi:namedview
     pagecolor="#ffffff"
     bordercolor="#666666"
     borderopacity="1.0"
     inkscape:pageopacity="0.0"
     inkscape:pageshadow="2"
     inkscape:zoom="1"
     inkscape:cx="226.5"
     inkscape:cy="227"
     inkscape:document-units="mm"
     inkscape:current-layer="Template"
     showgrid="false"
     units="mm"
     showguides="true"
     inkscape:guide-bbox="true"
     inkscape:snap-global="true"
     inkscape:snap-bbox="true"
     inkscape:snap-bbox-midpoints="true"
     inkscape:window-width="1880"
     inkscape:window-height="1056"
     inkscape:window-x="40"
     inkscape:window-y="0"
     inkscape:window-maximized="1"
     inkscape:bbox-paths="true"
     inkscape:bbox-nodes="true"
     inkscape:snap-bbox-edge-midpoints="true"
     inkscape:snap-grids="true"
     id="namedview253"
     inkscape:showpageshadow="2"
     inkscape:pagecheckerboard="0"
     inkscape:deskcolor="#d1d1d1"><sodipodi:guide
       orientation="1,0"
       position="226.771653543,226.771653543"
       id="guide2827"
       inkscape:locked="false" /><sodipodi:guide
       orientation="0,1"
       position="226.771653543,226.771653543"
       id="guide2829"
       inkscape:locked="false" /><inkscape:grid
       type="xygrid"
       id="grid3072"
       empspacing="10"
       visible="true"
       enabled="true"
       snapvisiblegridlinesonly="true"
       units="mm"
       dotted="false"
       spacingx="0.1mm"
       spacingy="0.1mm" /></sodipodi:namedview><metadata
     id="metadata2822"><rdf:RDF><cc:Work
         rdf:about=""><dc:format>image/svg+xml</dc:format><dc:type
           rdf:resource="http://purl.org/dc/dcmitype/StillImage" /></cc:Work></rdf:RDF></metadata><g
     inkscape:label="Layer 1"
     inkscape:groupmode="layer"
     id="Template"
     style="fill:none;stroke:black;stroke-width:0.05"><path
       style="fill:#d45500;stroke-width:0.0241079"
       d="m -3.8863471,51.928375 c -2.194853,-2.99432 -4.6255507,-6.365083 -5.4015461,-7.490591 -0.7759988,-1.125505 -1.5497318,-2.051022 -1.7194008,-2.056705 -0.169669,-0.0057 -3.935201,1.632125 -8.367846,3.639575 -4.43264,2.007443 -8.304077,3.5553 -8.603193,3.439671 -0.33258,-0.128561 -0.889169,-3.780861 -1.432775,-9.401756 l -0.888921,-9.191521 -3.410136,-0.307011 c -8.987365,-0.809123 -14.206597,-1.432561 -14.732136,-1.759763 -0.413402,-0.257375 0.463675,-2.717681 3.09053,-8.669266 2.017259,-4.57045 3.661557,-8.459277 3.654005,-8.641841 -0.0073,-0.182557 -3.460073,-2.8085416 -7.672242,-5.835512 l -7.658487,-5.50358516 7.311944,-5.29583874 c 4.021561,-2.9127149 7.502522,-5.4843291 7.735465,-5.7147031 0.242828,-0.240161 -1.140636,-3.936412 -3.242646,-8.663531 -3.620854,-8.142772 -4.012,-9.237132 -3.305864,-9.249137 1.298891,-0.02207 17.991413,-1.867697 18.118375,-2.003254 0.08671,-0.09256 0.540266,-4.134141 1.007929,-8.981265 0.467655,-4.847129 0.993755,-9.046807 1.169108,-9.332621 0.204098,-0.332677 3.372293,0.867077 8.804737,3.334231 l 8.48592,3.853897 5.3535695,-7.479565 c 2.9444605,-4.113762 5.509345,-7.576553 5.69974355,-7.695093 0.19039323,-0.118534 2.47076645,2.77282 5.06749585,6.425234 2.5967305,3.652417 5.0726701,7.108454 5.5020971,7.680092 l 0.780771,1.039333 8.548769,-3.849894 c 4.70183,-2.117442 8.639263,-3.758741 8.749856,-3.64733 0.110597,0.11141 0.602706,4.272921 1.093579,9.247799 0.490873,4.974881 0.996234,9.149733 1.123025,9.277457 0.126783,0.127719 2.151199,0.436723 4.498702,0.686668 12.029165,1.28079 13.842373,1.497218 14.016942,1.673067 0.104156,0.104927 -1.537727,4.072034 -3.648624,8.8158 l -3.837992,8.625028 2.710463,1.9357211 c 1.490749,1.064647 4.937507,3.5975816 7.65946,5.6287438 L 57.323333,0.15392672 52.135731,3.9886876 C 49.282548,6.0978062 45.921289,8.5560269 44.66627,9.4514009 43.411248,10.346769 42.384412,11.3456 42.384412,11.671025 c 0,0.325423 1.629707,4.243449 3.621566,8.706724 1.991859,4.463276 3.451049,8.265565 3.242639,8.449526 -0.208408,0.183963 -4.424006,0.727033 -9.367989,1.206822 l -8.989064,0.872342 -0.262576,1.981694 c -0.144416,1.089934 -0.581404,5.335348 -0.971078,9.434257 -0.389673,4.098905 -0.766133,7.508392 -0.836572,7.57664 -0.07043,0.06825 -3.904349,-1.597699 -8.519798,-3.7021 -4.615449,-2.104401 -8.522729,-3.826181 -8.682838,-3.826181 -0.160109,0 -2.724183,3.375415 -5.6979421,7.500921 -2.9737604,4.125506 -5.49900329,7.50092 -5.61165532,7.50092 -0.11264681,0 -2.00060288,-2.449896 -4.19545168,-5.444215 z M -25.111936,10.743383 c 0.422097,-0.648944 0.870052,-2.8211738 1.040234,-5.0443305 l 0.298896,-3.9045777 3.006248,3.7508668 c 2.985078,3.7244545 5.661428,6.3377954 6.490606,6.3377954 0.237853,0 0.815753,-0.589128 1.28422,-1.309169 0.720083,-1.1067862 0.851758,-2.4346725 0.851758,-8.5897635 0,-7.8560965 -0.391134,-9.464158 -2.298757,-9.4508745 -0.585189,0.00385 -1.304206,0.167401 -1.597814,0.3629476 -0.461081,0.3070875 -1.092928,5.1904824 -1.134233,8.7661859 -0.01031,0.8943565 -0.886278,0.00241 -3.92027,-3.9924256 -3.217919,-4.2368783 -4.128697,-5.1428101 -5.164203,-5.1367079 -2.456224,0.01447 -2.521914,0.2397972 -2.551795,8.7523597 -0.01657,4.7194197 0.186638,8.4752089 0.501365,9.2666383 0.660426,1.660762 2.178722,1.751586 3.193745,0.191055 z M 1.417209,11.163289 C 2.0040643,11.020597 2.7115892,10.47587 2.989485,9.952791 3.7809197,8.4630932 2.1559255,7.1895918 -1.051478,6.785902 -3.6017874,6.464911 -3.7331311,6.3807654 -3.7331311,5.0678234 c 0,-1.3535291 0.050022,-1.3792355 2.5544311,-1.3128595 3.025945,0.080201 3.690653,-0.2446995 3.690653,-1.8039329 0,-1.48660504 -1.271086,-2.16615443 -4.0517435,-2.16615443 -2.1167857,0 -2.1933406,-0.0506718 -2.1933406,-1.45179117 0,-1.3263272 0.1401154,-1.4517911 1.6213203,-1.4517911 0.8917255,0 2.29686971,-0.1361053 3.122541,-0.3024563 1.3138743,-0.26471 1.5012228,-0.4998227 1.5012228,-1.8839459 0,-1.9667224 -0.4878424,-2.1689714 -5.2317762,-2.1689714 -5.7263717,0 -5.5770225,-0.261356 -5.5770225,9.7598403 v 8.387548 l 2.0527925,0.498836 c 2.0352013,0.494558 5.60784977,0.49043 7.6612622,-0.0088 z m 11.777584,-0.234667 c 1.069691,-0.847613 1.900306,-2.50719 3.760894,-7.5142677 0.537006,-1.4451468 0.545466,-1.4348488 1.847975,2.2496519 1.705243,4.8237438 2.634814,6.2191308 4.143045,6.2191308 2.120706,0 4.096911,-4.6209264 5.832136,-13.6371879 0.888531,-4.616822 0.597088,-5.7200284 -1.511118,-5.7200284 -1.695238,0 -2.589951,1.4721552 -3.47649,5.7201685 -0.454357,2.17714472 -0.942421,3.9560486 -1.084578,3.9531255 -0.142164,-0.00291 -0.890977,-2.08209089 -1.664033,-4.6203783 l -1.405556,-4.6150643 -2.156184,0.1440224 -2.156181,0.1440225 -1.361112,4.0880449 c -0.748606,2.24842285 -1.544956,4.2732454 -1.769659,4.4996039 -0.224703,0.2263584 -0.764715,-1.37729481 -1.200031,-3.563668 -0.883516,-4.4374767 -1.8083077,-5.868289 -3.6529706,-5.6517981 -1.047128,0.1228892 -1.2483301,0.417597 -1.3787463,2.0195184 -0.1610421,1.9781186 1.3899823,10.0428085 2.5909164,13.4717067 0.7777439,2.2206022 1.9504745,3.7679122 2.8557575,3.7679122 0.319738,0 1.123414,-0.429533 1.785935,-0.954515 z"
       id="path1640" /></g></svg>
