<?xml version="1.0" encoding="UTF-8" standalone="no"?>
<!-- Uploaded to: SVG Repo, www.svgrepo.com, Generator: SVG Repo Mixer Tools -->

<svg
   width="1147.0616"
   height="497.64218"
   viewBox="0 0 45.882466 19.905687"
   version="1.1"
   id="svg16698"
   sodipodi:docname="not_bitcoin.svg"
   xml:space="preserve"
   inkscape:version="1.2.2 (b0a8486541, 2022-12-01)"
   xmlns:inkscape="http://www.inkscape.org/namespaces/inkscape"
   xmlns:sodipodi="http://sodipodi.sourceforge.net/DTD/sodipodi-0.dtd"
   xmlns="http://www.w3.org/2000/svg"
   xmlns:svg="http://www.w3.org/2000/svg"><defs
     id="defs16702" /><sodipodi:namedview
     id="namedview16700"
     pagecolor="#ffffff"
     bordercolor="#000000"
     borderopacity="0.25"
     inkscape:showpageshadow="2"
     inkscape:pageopacity="0.0"
     inkscape:pagecheckerboard="0"
     inkscape:deskcolor="#d1d1d1"
     showgrid="false"
     inkscape:zoom="0.74157824"
     inkscape:cx="739.63875"
     inkscape:cy="266.32389"
     inkscape:window-width="1920"
     inkscape:window-height="1020"
     inkscape:window-x="0"
     inkscape:window-y="32"
     inkscape:window-maximized="1"
     inkscape:current-layer="svg16698" /><g
     fill="none"
     fill-rule="evenodd"
     id="g16696"
     transform="matrix(0.62126923,0,0,0.62126923,0,0.02507241)"><circle
       cx="16"
       cy="16"
       r="16"
       fill="#f7931a"
       id="circle16692" /><path
       fill="#ffffff"
       fill-rule="nonzero"
       d="m 23.189,14.02 c 0.314,-2.096 -1.283,-3.223 -3.465,-3.975 l 0.708,-2.84 -1.728,-0.43 -0.69,2.765 C 17.56,9.426 17.094,9.32 16.629,9.214 L 17.324,6.431 15.596,6 14.888,8.839 C 14.512,8.753 14.142,8.669 13.784,8.579 L 13.786,8.57 11.402,7.975 10.942,9.821 c 0,0 1.283,0.294 1.256,0.312 0.7,0.175 0.826,0.638 0.805,1.006 l -0.806,3.235 c 0.048,0.012 0.11,0.03 0.18,0.057 l -0.183,-0.045 -1.13,4.532 c -0.086,0.212 -0.303,0.531 -0.793,0.41 0.018,0.025 -1.256,-0.313 -1.256,-0.313 l -0.858,1.978 2.25,0.561 c 0.418,0.105 0.828,0.215 1.231,0.318 l -0.715,2.872 1.727,0.43 0.708,-2.84 c 0.472,0.127 0.93,0.245 1.378,0.357 l -0.706,2.828 1.728,0.43 0.715,-2.866 c 2.948,0.558 5.164,0.333 6.097,-2.333 0.752,-2.146 -0.037,-3.385 -1.588,-4.192 1.13,-0.26 1.98,-1.003 2.207,-2.538 z m -3.95,5.538 c -0.533,2.147 -4.148,0.986 -5.32,0.695 l 0.95,-3.805 c 1.172,0.293 4.929,0.872 4.37,3.11 z m 0.535,-5.569 c -0.487,1.953 -3.495,0.96 -4.47,0.717 l 0.86,-3.45 c 0.975,0.243 4.118,0.696 3.61,2.733 z"
       id="path16694" /></g><style
     type="text/css"
     id="style16846">
<![CDATA[
	.st0{fill:#E3F2FD;}
	.st1{fill:#80D8FF;}
	.st2{fill:#1AD2A4;}
	.st3{fill:#ECEFF1;}
	.st4{fill:#55FB9B;}
	.st5{fill:#BBDEFB;}
	.st6{fill:#C1AEE1;}
	.st7{fill:#FF5252;}
	.st8{fill:#FF8A80;}
	.st9{fill:#FFB74D;}
	.st10{fill:#FFF176;}
	.st11{fill:#FFFFFF;}
	.st12{fill:#65C7EA;}
	.st13{fill:#CFD8DC;}
	.st14{fill:#37474F;}
	.st15{fill:#78909C;}
	.st16{fill:#42A5F5;}
	.st17{fill:#455A64;}
]]>
</style><g
     id="Bitcoin_x2C__BTC_1_"
     transform="matrix(0.66129089,0,0,0.66129089,28.044269,-0.66129089)">

<path
   class="st9"
   d="m 7.48,8.75 c 0.03,-0.04 -1.94,0 -1.94,0 V 5.89 c 0,0 4.81,0.01 5.39,0 L 10.94,1.5 h 2.67 L 13.6,5.81 C 14.32,5.79 15.04,5.78 15.74,5.78 V 1.5 l 2.68,0.01 -0.01,4.39 c 3.45,0.3 6.19,1.37 6.49,4.53 0.22,2.32 -0.75,3.71 -2.3,4.5 2.55,0.61 4.15,2.13 3.83,5.53 -0.39,4.22 -3.54,5.35 -8.03,5.61 l -0.01,4.43 h -2.67 v -4.38 c -0.69,0 -1.4,0 -2.13,-0.02 v 4.4 l -2.68,-0.01 0.01,-4.44 c -0.63,0 -5.39,-0.02 -5.39,-0.02 l 0.53,-3.19 c 0,0 1.98,0.03 1.94,0 0.76,0 0.96,-0.54 1.01,-0.89 L 9.02,9.92 C 8.92,9.38 8.56,8.75 7.48,8.75 Z m 13.67,11.18 c 0,-3.46 -5.68,-2.95 -7.49,-2.95 l -0.01,5.89 c 1.82,0 7.5,0.38 7.5,-2.94 z m -7.49,-5.64 c 1.51,0 6.25,0.35 6.25,-2.66 0,-3.16 -4.74,-2.68 -6.25,-2.68 z"
   id="XMLID_95_"
   style="fill:#eebe00;fill-opacity:1" />

<g
   id="XMLID_157_">

<path
   class="st17"
   d="m 13.59,31 c 0,0 0,0 0,0 l -2.68,-0.01 c -0.28,0 -0.5,-0.23 -0.5,-0.5 l 0.01,-3.94 c -1.4,0 -4.89,-0.02 -4.89,-0.02 -0.15,0 -0.29,-0.07 -0.38,-0.18 -0.09,-0.11 -0.13,-0.26 -0.11,-0.4 l 0.53,-3.19 c 0.04,-0.24 0.25,-0.42 0.49,-0.42 0,0 0,0 0.01,0 0.77,0.01 1.63,0.02 1.84,0.01 0.03,-0.01 0.06,-0.01 0.1,-0.01 0.27,0 0.46,-0.08 0.51,-0.46 V 9.92 C 8.43,9.49 8.1,9.25 7.48,9.25 7.44,9.25 7.4,9.25 7.37,9.24 7.16,9.23 6.31,9.24 5.55,9.25 5.41,9.24 5.29,9.2 5.19,9.11 5.09,9.02 5.04,8.88 5.04,8.75 V 5.89 C 5.04,5.76 5.09,5.63 5.19,5.54 5.28,5.45 5.44,5.39 5.54,5.39 c 0,0 3.51,0.01 4.89,0 L 10.44,1.5 c 0,-0.28 0.22,-0.5 0.5,-0.5 h 2.67 c 0.13,0 0.26,0.05 0.35,0.15 0.09,0.09 0.15,0.22 0.15,0.35 L 14.1,5.3 C 14.48,5.29 14.86,5.29 15.24,5.28 V 1.5 c 0,-0.13 0.05,-0.26 0.15,-0.35 C 15.48,1.05 15.61,1 15.74,1 c 0,0 0,0 0,0 l 2.68,0.01 c 0.28,0 0.5,0.23 0.5,0.5 l -0.01,3.93 c 1.93,0.19 6.1,0.89 6.49,4.94 v 0 c 0.18,1.91 -0.36,3.38 -1.62,4.39 2.4,0.92 3.43,2.81 3.15,5.74 -0.44,4.74 -4.23,5.76 -8.03,6.03 l -0.01,3.96 c 0,0.28 -0.22,0.5 -0.5,0.5 h -2.67 c -0.28,0 -0.5,-0.22 -0.5,-0.5 v -3.88 c -0.37,0 -0.75,0 -1.13,-0.01 v 3.89 c 0,0.13 -0.05,0.26 -0.15,0.35 -0.09,0.1 -0.22,0.15 -0.35,0.15 z m 2.63,-1 h 1.67 l 0.01,-3.93 c 0,-0.26 0.21,-0.48 0.47,-0.5 5.13,-0.3 7.25,-1.74 7.56,-5.16 0.27,-2.82 -0.8,-4.36 -3.45,-5 -0.2,-0.05 -0.36,-0.22 -0.38,-0.43 -0.02,-0.21 0.08,-0.41 0.27,-0.5 1.55,-0.79 2.21,-2.1 2.03,-4.01 v 0 C 24.17,8 22.31,6.74 18.37,6.4 18.11,6.38 17.91,6.16 17.91,5.9 L 17.92,2.01 16.24,2 v 3.78 c 0,0.28 -0.22,0.5 -0.5,0.5 -0.7,0 -1.41,0.01 -2.13,0.03 -0.14,0 -0.27,-0.05 -0.36,-0.14 C 13.16,6.08 13.1,5.94 13.1,5.81 L 13.11,2 h -1.67 l -0.01,3.89 c 0,0.27 -0.22,0.49 -0.49,0.5 -0.46,0.01 -3.65,0 -4.9,0 V 8.24 C 6.83,8.22 7.26,8.22 7.51,8.25 8.6,8.26 9.33,8.83 9.51,9.83 V 21.95 C 9.39,22.85 8.82,23.34 8,23.34 v -0.01 c -0.27,0.03 -0.73,0.02 -1.52,0.01 l -0.36,2.19 c 1.29,0.01 4.31,0.02 4.8,0.02 0.13,0 0.26,0.05 0.35,0.15 0.09,0.09 0.15,0.22 0.15,0.35 l -0.01,3.94 1.68,0.01 v -3.9 c 0,-0.13 0.05,-0.26 0.15,-0.36 0.1,-0.09 0.22,-0.14 0.36,-0.14 0.73,0.02 1.43,0.02 2.12,0.02 0.28,0 0.5,0.22 0.5,0.5 z"
   id="XMLID_670_" />

<path
   class="st17"
   d="m 15.02,23.38 c -0.31,0 -0.6,0 -0.85,-0.01 l -0.51,-0.01 c -0.13,0 -0.26,-0.05 -0.35,-0.15 -0.09,-0.09 -0.15,-0.22 -0.15,-0.35 l 0.01,-3.95 c 0,-0.28 0.22,-0.5 0.5,-0.5 0,0 0,0 0,0 0.28,0 0.5,0.22 0.5,0.5 l -0.01,3.46 h 0.03 c 1.53,0.02 4.71,0.07 5.95,-1.16 0.35,-0.34 0.52,-0.77 0.52,-1.29 0,-0.56 -0.18,-1.01 -0.54,-1.37 -1.22,-1.2 -4.2,-1.13 -5.79,-1.09 -0.25,0.01 -0.47,0.01 -0.65,0.01 -0.28,0 -0.5,-0.22 -0.5,-0.5 0,-0.28 0.22,-0.5 0.5,-0.5 0.18,0 0.39,0 0.63,-0.01 1.87,-0.04 4.99,-0.11 6.52,1.38 0.56,0.55 0.85,1.25 0.85,2.09 0,0.79 -0.27,1.47 -0.82,2 -1.35,1.3 -3.99,1.45 -5.84,1.45 z"
   id="XMLID_669_" />

<path
   class="st17"
   d="m 14.81,14.8 c -0.26,0 -0.51,0 -0.72,-0.01 h -0.43 c -0.28,0 -0.5,-0.22 -0.5,-0.5 V 10.9 c 0,-0.28 0.22,-0.5 0.5,-0.5 0.28,0 0.5,0.22 0.5,0.5 v 2.9 c 1.25,0.02 3.75,0.05 4.78,-0.97 0.32,-0.31 0.47,-0.71 0.47,-1.2 0,-0.54 -0.16,-0.96 -0.5,-1.29 -1.02,-1 -3.41,-0.93 -4.69,-0.9 -0.22,0.01 -0.4,0.01 -0.56,0.01 -0.28,0 -0.5,-0.22 -0.5,-0.5 0,-0.28 0.22,-0.5 0.5,-0.5 0.15,0 0.33,0 0.53,-0.01 1.53,-0.04 4.09,-0.11 5.41,1.18 0.53,0.52 0.8,1.19 0.8,2.01 0,0.77 -0.26,1.41 -0.77,1.91 -1.14,1.13 -3.29,1.26 -4.82,1.26 z"
   id="XMLID_668_" />

</g>

</g><g
     style="fill:#f2f2f2"
     id="g19970"
     transform="matrix(0.0210933,0,0,0.0210933,20.850768,5.2584513)"><path
       d="m 416,208 c 17.67,0 32,-14.33 32,-32 v -32 c 0,-17.67 -14.33,-32 -32,-32 h -23.88 l 51.87,-66.81 c 5.37,-7.02 4.04,-17.06 -2.97,-22.43 L 415.61,3.3 c -7.02,-5.38 -17.06,-4.04 -22.44,2.97 L 311.09,112 H 32 C 14.33,112 0,126.33 0,144 v 32 c 0,17.67 14.33,32 32,32 h 204.56 l -74.53,96 H 32 C 14.33,304 0,318.33 0,336 v 32 c 0,17.67 14.33,32 32,32 h 55.49 l -51.87,66.81 c -5.37,7.01 -4.04,17.05 2.97,22.43 L 64,508.7 c 7.02,5.38 17.06,4.04 22.43,-2.97 L 168.52,400 H 416 c 17.67,0 32,-14.33 32,-32 v -32 c 0,-17.67 -14.33,-32 -32,-32 H 243.05 l 74.53,-96 z"
       id="path19961"
       style="fill:#f2f2f2" /></g><path
     style="fill:#f9f9f9;fill-opacity:1;stroke:#fdfdfd;stroke-width:1.34848"
     d="m 229.91505,399.5146 c -5.93329,-1.52493 -10.90491,-2.85386 -11.04804,-2.95321 -0.14313,-0.0994 2.16257,-9.81317 5.12379,-21.58629 2.96121,-11.77314 4.89876,-21.83771 4.30566,-22.36575 -1.05637,-0.94047 -17.92205,-5.37694 -20.44098,-5.37694 -0.703,0 -3.53375,9.55732 -6.29056,21.23849 -2.75681,11.68117 -5.20687,21.45551 -5.44458,21.72076 -0.23771,0.26523 -6.13996,-0.89376 -13.11611,-2.57555 l -12.68391,-3.05779 5.15517,-20.34855 c 2.83535,-11.1917 5.16981,-21.33819 5.18769,-22.54775 0.0257,-1.74 -5.38748,-3.54126 -25.92563,-8.62677 -14.27698,-3.53517 -26.14929,-6.57981 -26.38289,-6.76589 -0.58392,-0.4651 10.52864,-26.61483 11.94858,-28.11703 0.66954,-0.70833 4.42119,-0.2894 9.05703,1.01136 9.63951,2.7047 16.49699,2.83348 19.86192,0.37299 1.84886,-1.35193 5.00592,-11.57147 11.76827,-38.09443 5.08286,-19.93577 9.55854,-37.7639 9.94594,-39.61805 0.3874,-1.85415 3.09624,-12.9012 6.01964,-24.549 2.9234,-11.64779 5.31527,-23.19394 5.31527,-25.6581 0,-8.72296 -4.96234,-12.57815 -21.23849,-16.49997 -5.37704,-1.29563 -9.78622,-2.74543 -9.79815,-3.22179 -0.0119,-0.47635 1.32112,-6.47913 2.96236,-13.33949 1.89846,-7.93554 3.63248,-12.4734 4.76638,-12.4734 0.98026,0 13.01765,2.81125 26.74974,6.24723 13.7321,3.43598 25.30766,5.90702 25.72348,5.4912 0.41582,-0.41582 3.06858,-9.94581 5.89504,-21.17776 2.82645,-11.23195 5.42331,-20.706033 5.77079,-21.053517 0.47857,-0.478562 23.49203,4.570167 24.83082,5.447427 0.14351,0.094 -2.11742,9.56031 -5.02426,21.03617 -2.90685,11.47585 -5.29982,21.21696 -5.3177,21.6469 -0.0651,1.56397 21.90142,5.54005 22.77729,4.12285 0.46825,-0.75763 2.8849,-9.75627 5.37036,-19.99698 2.48545,-10.2407 4.94749,-19.09315 5.47119,-19.67211 0.52371,-0.57896 6.42229,0.28142 13.10798,1.91195 l 12.15579,2.96459 -5.15248,20.3379 c -2.83388,11.18584 -5.16713,21.12798 -5.18501,22.09364 -0.0179,0.96565 1.93962,2.44067 4.35002,3.2778 20.58539,7.14934 40.07166,21.72839 45.89068,34.33406 4.5695,9.89883 4.23951,27.93153 -0.70593,38.57763 -6.13009,13.19626 -11.23003,18.24041 -23.47327,23.21643 l -7.34082,2.98353 6.46799,4.15489 c 21.10778,13.55918 27.45268,32.73477 19.25814,58.20204 -6.09468,18.94126 -17.33737,31.72237 -33.31085,37.86897 -10.36912,3.99006 -32.67358,4.98916 -49.60004,2.22179 -6.67495,-1.09131 -12.1988,-1.9033 -12.27522,-1.80442 -0.0764,0.0988 -2.53719,9.88695 -5.46839,21.75127 -3.69411,14.95233 -5.92725,21.6405 -7.27766,21.79638 -1.07153,0.12368 -6.80274,-1.02278 -12.73604,-2.54771 z m 56.85953,-78.94442 c 6.83653,-3.58189 10.56258,-8.56508 12.67395,-16.95005 3.57298,-14.18959 -4.24409,-25.64117 -23.73945,-34.77701 -11.96493,-5.60694 -43.43389,-14.26348 -45.09289,-12.40423 -0.94674,1.06102 -14.86013,55.63708 -14.86013,58.28971 0,0.68949 6.52325,2.78695 14.49611,4.66102 20.46012,4.80927 19.69962,4.71639 36.07172,4.40545 12.27401,-0.23311 15.80242,-0.7895 20.45069,-3.22489 z m 4.91735,-85.54675 c 11.31071,-3.38877 18.32534,-15.22052 16.44756,-27.7425 -1.24617,-8.30996 -8.77786,-16.17774 -20.78454,-21.71197 -10.15985,-4.68299 -35.28406,-11.46112 -36.65998,-9.89031 -0.84201,0.96128 -13.3633,50.35303 -13.3633,52.71318 0,1.23348 11.69929,4.71875 22.92408,6.82919 9.22202,1.7339 25.32733,1.63267 31.43618,-0.19759 z"
     id="path20680"
     transform="scale(0.04)" /></svg>
