<?xml version="1.0" encoding="UTF-8" standalone="no"?>
<svg
   version="1.1"
   id="Layer_1"
   x="0px"
   y="0px"
   width="100%"
   viewBox="0 0 512 512"
   enable-background="new 0 0 512 512"
   xml:space="preserve"
   sodipodi:docname="old.svg"
   inkscape:version="1.2.2 (b0a8486541, 2022-12-01)"
   xmlns:inkscape="http://www.inkscape.org/namespaces/inkscape"
   xmlns:sodipodi="http://sodipodi.sourceforge.net/DTD/sodipodi-0.dtd"
   xmlns="http://www.w3.org/2000/svg"
   xmlns:svg="http://www.w3.org/2000/svg"><defs
   id="defs6716" /><sodipodi:namedview
   id="namedview6714"
   pagecolor="#ffffff"
   bordercolor="#000000"
   borderopacity="0.25"
   inkscape:showpageshadow="2"
   inkscape:pageopacity="0.0"
   inkscape:pagecheckerboard="0"
   inkscape:deskcolor="#d1d1d1"
   showgrid="false"
   inkscape:zoom="1.158716"
   inkscape:cx="395.69662"
   inkscape:cy="405.18988"
   inkscape:window-width="1920"
   inkscape:window-height="1020"
   inkscape:window-x="0"
   inkscape:window-y="32"
   inkscape:window-maximized="1"
   inkscape:current-layer="Layer_1" />

<path
   fill="#067FAC"
   opacity="1.000000"
   stroke="none"
   d=" M497.791382,269.705475   C495.810577,300.026459 489.411865,328.851898 476.598022,355.950043   C442.806610,427.410583 387.712219,474.022705 310.643372,491.623352   C231.819244,509.624908 160.551590,491.095062 99.059921,438.525635   C53.449303,399.532959 26.045565,349.493591 18.427702,290.030090   C7.816050,207.197662 33.751068,136.411087 94.615990,79.299324   C133.211075,43.084164 179.744049,22.614355 232.420135,17.226875   C345.108276,5.701625 451.132050,75.077202 486.296478,182.913361   C488.155060,188.612839 490.039032,193.847214 497.822662,192.989273   C499.174866,199.123672 500.468262,204.991104 501.836273,211.197174   C495.353821,213.485458 495.128265,218.184937 495.659241,224.372314   C496.938354,239.278458 497.164551,254.274933 497.791382,269.705475  M150.923233,63.198914   C145.615692,66.455589 140.308151,69.712265 134.397507,72.585075   C129.523651,68.698692 127.329025,68.621361 121.630020,73.080383   C51.299129,128.108765 20.364315,200.087799 31.108624,288.764648   C37.891689,344.747833 63.975979,391.538727 106.421761,428.462311   C160.658417,475.642822 224.105026,493.730072 294.889343,481.884613   C369.409424,469.414001 424.312622,428.103882 459.798248,361.773743   C483.750305,317.002289 490.276917,268.876251 482.067261,218.835648   C474.720917,174.056900 455.397919,134.987045 424.450775,101.881340   C384.862671,59.531960 336.146393,35.206863 278.306122,29.745075   C235.714157,25.723167 195.096649,33.017475 156.587418,51.810371   C151.773346,54.159679 149.945862,57.594311 150.923233,63.198914  z"
   id="path6671"
   style="fill:#017297;fill-opacity:1" /><path
   fill="#FD0364"
   opacity="1"
   stroke="none"
   d="m 447.97551,251.12941 c -21.92602,0.0828 -54.03078,-1.61881 -75.95683,-1.54431 -6.31382,0.0214 -12.62918,0.0861 -18.9412,-0.0221 -4.82473,-0.0827 -7.96209,1.85216 -9.0848,7.08349 -6.3508,0.3592 -12.60715,0.36149 -19.31702,0.3595 -1.97952,-5.93788 -3.76227,-7.44227 -9.80203,-7.52409 -6.14969,-0.0834 -12.3014,-0.0184 -19.776,-0.0184 1.89569,-2.06611 2.99856,-3.36033 4.19644,-4.55968 16.71756,-16.73876 33.52386,-33.38971 50.14996,-50.21872 11.87918,-12.02416 7.75247,-31.02747 -7.77923,-35.93674 -8.52979,-2.6961 -16.05662,-0.5478 -22.40549,5.81629 -16.59037,16.63021 -33.21265,33.22867 -49.83344,49.82855 -1.24484,1.24328 -2.57882,2.39734 -4.47848,4.15442 V 70.949516 c 10.43438,1.45681 20.77279,1.976425 30.63269,4.423828 74.85296,18.579781 122.41421,65.190326 142.32986,139.816846 0.085,0.31851 3.02245,0.71231 2.81438,1.72098 -0.36283,1.63899 0.43441,3.70247 0.45159,4.66118 0.17252,9.64044 6.59785,19.91714 6.7996,29.55706 z"
   id="path6679"
   style="fill:#fd0364;fill-opacity:1"
   sodipodi:nodetypes="cssccsccsscscccsccc" />

<path
   fill="#020303"
   opacity="1.000000"
   stroke="none"
   d=" M134.699066,72.777008   C137.340210,78.149963 135.350067,81.630630 131.047058,84.847557   C84.374115,119.740387 55.552025,165.956406 46.440876,223.428299   C37.031330,282.782471 50.731579,337.134186 86.818779,385.375702   C110.580414,417.140381 141.131516,440.347290 178.641266,455.360321   C228.926376,474.615173 278.902863,475.270691 329.095367,457.844360   C407.615875,430.582825 465.346405,354.102997 469.889008,271.171478   C473.158112,211.489258 455.061157,159.070679 415.417480,114.295258   C402.798767,100.043091 388.542480,87.556862 372.085785,77.770432   C371.869965,77.532837 371.654175,77.295242 371.043335,76.785629   C370.116577,76.291000 369.584930,76.068375 369.053253,75.845757   C349.450104,62.909004 327.970978,54.286880 305.172699,49.182972   C256.681000,38.327030 209.766159,43.165619 164.770126,64.591835   C160.033371,66.847382 155.752518,68.237106 151.748718,62.990997   C149.945862,57.594311 151.773346,54.159679 156.587418,51.810371   C195.096649,33.017475 235.714157,25.723167 278.306122,29.745075   C336.146393,35.206863 384.862671,59.531960 424.450775,101.881340   C455.397919,134.987045 474.720917,174.056900 482.067261,218.835648   C490.276917,268.876251 483.750305,317.002289 459.798248,361.773743   C424.312622,428.103882 369.409424,469.414001 294.889343,481.884613   C224.105026,493.730072 160.658417,475.642822 106.421761,428.462311   C63.975979,391.538727 37.891689,344.747833 31.108624,288.764648   C20.364315,200.087799 51.299129,128.108765 121.630020,73.080383   C127.329025,68.621361 129.523651,68.698692 134.699066,72.777008  z"
   id="path6675"
   style="fill:#017297;fill-opacity:1" />
<path
   fill="#060506"
   opacity="1.000000"
   stroke="none"
   d=" M436.007629,264.880493   C423.359436,264.780029 410.711365,264.634613 398.062988,264.590881   C383.403259,264.540161 368.743134,264.540222 354.083496,264.600037   C349.072266,264.620483 345.206024,263.227173 344.096130,256.997620   C345.115387,251.415207 348.252747,249.480392 353.077484,249.563049   C359.389496,249.671204 365.704865,249.606552 372.018677,249.585098   C393.944733,249.510605 415.870758,249.422653 438.194366,249.498230   C440.490662,249.713821 443.141632,250.510880 442.683350,247.213242   C441.280426,237.118637 439.633148,227.057968 438.056824,216.582550   C437.993713,215.850220 437.994934,215.508698 437.909943,215.190186   C417.994293,140.563675 370.433044,93.953125 295.580078,75.373344   C285.720184,72.925941 275.381775,72.406326 264.947388,70.949516   C264.947388,120.718513 264.947388,169.212097 264.947388,218.547638   C266.847046,216.790558 268.181030,215.636505 269.425873,214.393219   C286.046661,197.793335 302.668945,181.194885 319.259308,164.564667   C325.608185,158.200577 333.135010,156.052277 341.664795,158.748383   C357.196503,163.657654 361.323212,182.660965 349.444031,194.685120   C332.817932,211.514130 316.011627,228.165085 299.294067,244.903839   C298.096191,246.103195 296.993317,247.397415 295.097626,249.463516   C302.572235,249.463516 308.723938,249.398605 314.873627,249.481949   C320.913391,249.563766 322.696136,251.068161 324.222137,257.001831   C323.519379,262.501740 320.067108,264.591827 314.878540,264.580627   C307.221771,264.564087 299.564941,264.576355 291.707306,264.576355   C285.636688,282.519440 273.737671,293.107513 254.286942,291.820221   C237.683807,290.721405 227.535431,280.627106 222.423737,264.579071   C220.758057,264.579071 218.959457,264.579041 217.160858,264.579041   C181.339767,264.578979 145.518677,264.582489 109.697594,264.568756   C107.870277,264.568054 106.017845,264.583405 104.220779,264.307190   C99.983444,263.655914 97.699104,261.076050 97.808258,256.779053   C97.918182,252.451828 100.413109,250.100159 104.651237,249.636734   C106.134827,249.474518 107.646416,249.548294 109.145218,249.548126   C143.633438,249.544327 178.121643,249.545181 212.609863,249.545181   C214.380707,249.545181 216.151550,249.545181 219.010193,249.545181   C217.107452,247.473770 215.983337,246.156570 214.763168,244.935333   C184.971024,215.117874 155.108383,185.370529 125.397835,155.472031   C113.516228,143.515259 117.824631,124.483826 133.424469,119.643784   C142.189041,116.924477 149.700882,119.455643 156.155334,125.942551   C178.129395,148.027161 200.210327,170.005402 222.220871,192.053787   C230.916565,200.764420 239.534470,209.552689 249.478928,218.064041   C249.478928,216.235214 249.478928,214.406387 249.478928,212.577560   C249.478943,164.427353 249.477478,116.277138 249.480179,68.126930   C249.480759,57.865643 251.472290,55.881840 261.847870,56.256550   C315.436584,58.191879 361.333313,77.968887 399.881470,116.154770   C437.152313,154.824127 456.183380,200.529572 457.776215,253.546295   C458.032684,262.083069 455.605438,264.491791 446.964111,264.587158   C443.311310,264.627441 439.659760,264.779327 436.007629,264.880493  M308.161377,214.661484   C311.574188,211.248764 314.988647,207.837631 318.399506,204.422958   C325.338776,197.475952 332.320312,190.570282 339.192444,183.557449   C341.911163,180.783081 342.202057,177.509689 339.448730,174.675308   C336.698395,171.844009 333.513123,172.102478 330.566315,174.669525   C329.564514,175.542252 328.659668,176.527069 327.718262,177.468384   C309.006073,196.178879 290.273376,214.868958 271.604828,233.622925   C268.458099,236.784058 265.279999,238.276642 260.507263,237.319153   C251.456512,235.503418 242.945740,240.135376 238.974472,248.186279   C235.187546,255.863495 236.748367,265.158966 242.842239,271.220764   C248.918442,277.264984 258.264069,278.786560 265.898529,274.974640   C273.920990,270.968964 278.492249,262.424438 276.671570,253.381531   C275.755676,248.832367 277.047272,245.706177 280.106293,242.681061   C289.336304,233.553345 298.482513,224.340881 308.161377,214.661484  M162.366257,171.133621   C184.192963,192.956467 206.019669,214.779312 226.655243,235.411240   C230.323868,232.562332 233.306488,230.246155 236.265686,227.948151   C235.779709,227.261856 235.546036,226.808044 235.202393,226.464142   C205.197891,196.438171 175.194595,166.410980 145.158447,136.416687   C141.939026,133.201736 138.015213,132.938568 135.469360,135.507355   C132.925323,138.074295 133.236328,141.945419 136.455460,145.195145   C144.890091,153.709930 153.391846,162.158234 162.366257,171.133621  z"
   id="path6677" />









<path
   fill="#DDF4FB"
   opacity="1.000000"
   stroke="none"
   d=" M369.183533,76.116119   C369.584930,76.068375 370.116577,76.291000 370.789734,76.771576   C370.392059,76.815178 369.852936,76.600838 369.183533,76.116119  z"
   id="path6697" />
<path
   fill="#0680AD"
   opacity="1.000000"
   stroke="none"
   d=" M307.911377,214.911469   C298.482513,224.340881 289.336304,233.553345 280.106293,242.681061   C277.047272,245.706177 275.755676,248.832367 276.671570,253.381531   C278.492249,262.424438 273.920990,270.968964 265.898529,274.974640   C258.264069,278.786560 248.918442,277.264984 242.842239,271.220764   C236.748367,265.158966 235.187546,255.863495 238.974472,248.186279   C242.945740,240.135376 251.456512,235.503418 260.507263,237.319153   C265.279999,238.276642 268.458099,236.784058 271.604828,233.622925   C290.273376,214.868958 309.006073,196.178879 327.718262,177.468384   C328.659668,176.527069 329.564514,175.542252 330.566315,174.669525   C333.513123,172.102478 336.698395,171.844009 339.448730,174.675308   C342.202057,177.509689 341.911163,180.783081 339.192444,183.557449   C332.320312,190.570282 325.338776,197.475952 318.399506,204.422958   C314.988647,207.837631 311.574188,211.248764 307.911377,214.911469  M263.050903,261.309540   C262.886902,258.223755 263.717651,254.471954 262.240295,252.265488   C261.083740,250.538101 256.834991,249.771698 254.395615,250.365952   C252.467270,250.835724 250.095184,253.937973 249.935776,256.025085   C249.758636,258.344360 251.259399,261.601898 253.119171,263.081024   C256.075745,265.432495 259.684143,264.794250 263.050903,261.309540  z"
   id="path6699" />
<path
   fill="#017297"
   opacity="1.000000"
   stroke="none"
   d=" M162.116547,170.883331   C153.391846,162.158234 144.890091,153.709930 136.455460,145.195145   C133.236328,141.945419 132.925323,138.074295 135.469360,135.507355   C138.015213,132.938568 141.939026,133.201736 145.158447,136.416687   C175.194595,166.410980 205.197891,196.438171 235.202393,226.464142   C235.546036,226.808044 235.779709,227.261856 236.265686,227.948151   C233.306488,230.246155 230.323868,232.562332 226.655243,235.411240   C206.019669,214.779312 184.192963,192.956467 162.116547,170.883331  z"
   id="path6701" />




<path
   fill="#000304"
   opacity="1.000000"
   stroke="none"
   d=" M262.799072,261.633911   C259.684143,264.794250 256.075745,265.432495 253.119171,263.081024   C251.259399,261.601898 249.758636,258.344360 249.935776,256.025085   C250.095184,253.937973 252.467270,250.835724 254.395615,250.365952   C256.834991,249.771698 261.083740,250.538101 262.240295,252.265488   C263.717651,254.471954 262.886902,258.223755 262.799072,261.633911  z"
   id="path6711" />
<g
   aria-label="OLD"
   transform="scale(0.98309576,1.0171949)"
   id="text7404"
   style="font-weight:bold;font-size:121.672px;line-height:0px;font-family:'Bitstream Vera Sans';-inkscape-font-specification:'Bitstream Vera Sans Bold';text-align:center;text-anchor:middle;fill:#fd0364;stroke:#fdfdfd;stroke-width:0.912552;fill-opacity:1"><path
     d="m 172.83544,326.50808 q -10.45618,0 -16.21897,7.72332 -5.76278,7.72332 -5.76278,21.74412 0,13.96139 5.76278,21.68471 5.76279,7.72332 16.21897,7.72332 10.5156,0 16.27839,-7.72332 5.76278,-7.72332 5.76278,-21.68471 0,-14.0208 -5.76278,-21.74412 -5.76279,-7.72332 -16.27839,-7.72332 z m 0,-16.57543 q 21.38766,0 33.50733,12.23849 12.11967,12.23849 12.11967,33.80438 0,21.50647 -12.11967,33.74497 -12.11967,12.23849 -33.50733,12.23849 -21.32824,0 -33.50732,-12.23849 -12.11968,-12.2385 -12.11968,-33.74497 0,-21.56589 12.11968,-33.80438 12.17908,-12.23849 33.50732,-12.23849 z"
     id="path11471"
     style="fill:#fd0364;fill-opacity:1" /><path
     d="m 235.7508,311.53672 h 22.87291 v 71.41101 h 40.16126 v 17.28835 H 235.7508 Z"
     id="path11473"
     style="fill:#fd0364;fill-opacity:1" /><path
     d="m 336.15396,328.82508 v 54.12265 h 8.1986 q 14.0208,0 21.38766,-6.95099 7.42627,-6.95099 7.42627,-20.19945 0,-13.18906 -7.36686,-20.08063 -7.36686,-6.89158 -21.44707,-6.89158 z m -22.87291,-17.28836 h 24.12052 q 20.19946,0 30.06154,2.9111 9.9215,2.85169 16.99131,9.74327 6.23806,6.00042 9.26798,13.84256 3.02992,7.84214 3.02992,17.76364 0,10.04031 -3.02992,17.94186 -3.02992,7.84215 -9.26798,13.84257 -7.12922,6.89158 -17.11013,9.80268 -9.9809,2.85168 -29.94272,2.85168 h -24.12052 z"
     id="path11475"
     style="fill:#fd0364;fill-opacity:1" /></g></svg>
