<?xml version='1.0' encoding='utf-8'?>
<svg xmlns="http://www.w3.org/2000/svg" id="Layer_1" version="1.1" viewBox="0 0 2195.65 2000" width="160" height="145.7427">
  
  <defs>
    <style>
      .st0 {
        fill: #00e6ff;
      }

      .st1 {
        fill: #fff;
      }
    </style>
  </defs>
  <g>
    <path class="st0" d="M1220.18,1411.48c-6.59,7.35-19.1,12.06-32.16,12.06-24.83,0-43.55-20.05-43.55-46.63s18.79-46.44,42.77-46.44c15.14,0,28.01,7.23,35.32,19.85l1,1.73,19.39-11.21-.86-1.69c-9.81-19.24-30.54-31.2-54.08-31.2-18.43,0-35.58,7.18-48.3,20.22-12.58,12.89-19.51,30.07-19.51,48.37,0,38.78,29.79,69.16,67.81,69.16,27.54,0,46.43-13.21,54.91-25.57l.35-.51v-40.45h-23.11v32.33Z" />
    <path class="st0" d="M1290.77,1387.6h65.62v-21.95h-65.62v-33.63h69.48v-21.95h-73.02c-13.37,0-20.14,6.65-20.14,19.76v93.79c0,13.11,6.78,19.76,20.14,19.76h74.37v-21.95h-70.83v-33.83Z" />
    <path class="st0" d="M1478.22,1419.09l-53.75-100.46c-3.98-7.33-10.11-10.89-18.74-10.89-11.7,0-19.56,8.25-19.56,20.53v115.09h22.72v-109.77l53.74,100.98c3.78,7.16,10.58,11.1,19.14,11.1,9.53,0,19.18-6.99,19.18-20.33v-115.29h-22.72v109.03Z" />
    <polygon class="st0" points="1517.6 1332.21 1557.16 1332.21 1557.16 1443.37 1580.84 1443.37 1580.84 1332.21 1620.6 1332.21 1620.6 1310.07 1517.6 1310.07 1517.6 1332.21" />
    <rect class="st0" x="1638.79" y="1310.07" width="23.69" height="133.31" />
    <path class="st0" d="M1752.54,1330.47c15.33,0,27.88,7.05,35.33,19.85l1,1.72,19.4-11.22-.88-1.7c-10.07-19.35-30.79-31.38-54.08-31.38-18.21,0-35.25,7.11-48.01,20.01-12.77,12.93-19.8,30.24-19.8,48.76s7.03,36.12,19.8,49.1c12.73,12.94,29.78,20.07,48.01,20.07,23.35,0,44.07-11.95,54.08-31.18l.88-1.7-19.42-11.23-.99,1.75c-7.25,12.79-19.79,19.83-35.32,19.83-24.39,0-42.77-20.05-42.77-46.63s18.79-46.06,42.77-46.06Z" />
    <path class="st0" d="M1913.56,1322.06c-10.21-7.85-25.05-11.99-42.91-11.99h-43.11v133.31h23.69v-37.25h20.39c36.54,0,58.35-18.06,58.35-48.32,0-15.14-5.68-27.5-16.41-35.75ZM1905.71,1357.81c0,22.61-21.6,25.98-34.48,25.98h-20v-51.58h20c12.88,0,34.48,3.33,34.48,25.6Z" />
    <path class="st0" d="M2146.85,1310.07l-28.28,67.18c-2.12,4.67-3.42,5.58-4.93,5.58-1.78,0-2.84-1.21-4.91-5.53l-28.31-67.23h-25.42l32.29,74.22c3.62,8.2,8.5,13.93,14.5,17.04v42.05h23.69v-42.08c6.17-3.35,10.98-9.08,14.3-17.01l32.69-74.21h-25.62Z" />
    <path class="st0" d="M1107.91,1442.14c1.55,0,2.37-.94,2.65-1.35s.87-1.49.25-2.82l-62.7-124.63c-.55-1.17-1.69-1.86-2.94-1.86h-12.09c-1.21,0-2.29.63-2.83,1.65l-62.13,124.63c-.75,1.42-.18,2.55.1,2.98.28.42,1.1,1.41,2.69,1.41h19.26c1.23,0,2.36-.68,2.87-1.72l36.1-77.15c1.91-3.87,5.81-6.2,10.25-6.2h.27c4.55.1,8.45,2.61,10.17,6.56l35.55,76.66c.49,1.12,1.64,1.84,2.93,1.84h19.62-.02Z" />
    <path class="st0" d="M2070.13,1442.14c1.55,0,2.37-.94,2.65-1.35s.87-1.49.25-2.82l-62.7-124.63c-.55-1.17-1.69-1.86-2.94-1.86h-12.09c-1.21,0-2.29.63-2.83,1.65l-62.13,124.63c-.75,1.42-.18,2.55.1,2.98.28.42,1.1,1.41,2.69,1.41h19.26c1.23,0,2.36-.68,2.87-1.72l36.1-77.15c1.91-3.87,5.81-6.2,10.25-6.2h.27c4.55.1,8.45,2.61,10.17,6.56l35.55,76.66c.49,1.12,1.64,1.84,2.93,1.84h19.62-.02Z" />
  </g>
  <g>
    <g>
      <path class="st1" d="M579.08,769.57c0-78.37,63.67-138.13,147.58-138.13s148,59.77,148,138.13-64.09,138.13-148,138.13-147.58-59.37-147.58-138.13ZM810.99,769.57c0-47.1-36.68-83.51-84.33-83.51s-84.33,36.41-84.33,83.51,37.11,83.51,84.33,83.51,84.33-36.41,84.33-83.51Z" />
      <path class="st1" d="M948.02,902.55v-266.37h99.93c80.54,0,129.87,35.22,129.87,96.97s-48.49,98.95-126.5,98.95h-41.74v70.06l-61.56.39h0ZM1009.58,689.62v89.05h40.06c40.48,0,64.93-14.64,64.93-45.52,0-29.29-24.46-43.54-64.93-43.54h-40.06Z" />
      <path class="st1" d="M1298.83,902.55c-39.21,0-54.39-19-54.39-49.47v-167.02c0-30.48,15.18-49.87,54.39-49.87h150.11v51.85h-142.94v55.41h134.09v51.85h-134.09v55.41h145.47v51.85h-152.64Z" />
      <g>
        <polygon class="st1" points="1570.61 908.8 1656.02 629.96 1595.91 629.96 1510.85 908.8 1570.61 908.8" />
        <polygon class="st1" points="1764.75 908.8 1850.16 629.96 1790.09 629.96 1704.99 908.8 1764.75 908.8" />
        <polygon class="st1" points="1679.42 677.47 1649.39 775.49 1678.62 870.9 1708.53 772.89 1679.42 677.47" />
      </g>
    </g>
    <g>
      <path class="st0" d="M1021.54,1193.03v-266.37h109.21c64.09,0,113.42,28.1,113.42,84.7,0,36.41-22.77,64.51-59.03,73.62,18.13,9.5,28.67,27.71,43.43,55.41l27.41,52.64h-66.62l-25.3-47.49c-13.07-24.54-25.3-37.6-57.35-37.6h-24.03l-.42,85.1h-60.72ZM1083.1,980.1l-.42,76.39h48.07c29.09,0,50.18-14.25,50.18-39.18s-21.5-37.2-49.33-37.2h-48.5Z" />
      <path class="st0" d="M1326.81,1074.69v-148.03h61.56v146.84c0,46.31,20.24,68.87,61.98,68.87s61.98-22.56,61.98-68.87v-146.84h61.56v148.03c0,76.78-39.21,122.7-123.54,122.7s-123.55-45.91-123.55-122.7h.01Z" />
      <g>
        <polygon class="st0" points="1674.35 1200.93 1759.77 922.1 1699.65 922.1 1614.59 1200.93 1674.35 1200.93" />
        <polygon class="st0" points="1868.49 1200.93 1953.9 922.1 1893.83 922.1 1808.73 1200.93 1868.49 1200.93" />
        <polygon class="st0" points="1783.16 969.6 1753.13 1067.63 1782.36 1163.03 1812.27 1065.03 1783.16 969.6" />
      </g>
    </g>
    <g>
      <polygon class="st0" points="254.11 558.05 131.72 957.58 46.1 957.58 167.97 558.05 254.11 558.05" />
      <polygon class="st0" points="532.28 558.05 409.89 957.58 324.27 957.58 446.21 558.05 532.28 558.05" />
    </g>
  </g>
</svg>