<?xml version="1.0" encoding="UTF-8" standalone="no"?>
<svg
   version="1.0"
   width="529.897472pt"
   height="529.804747pt"
   viewBox="0 0 529.897472 529.804747"
   preserveAspectRatio="xMidYMid meet"
   id="svg4398"
   sodipodi:docname="orange.svg"
   inkscape:version="1.2.2 (b0a8486541, 2022-12-01)"
   xmlns:inkscape="http://www.inkscape.org/namespaces/inkscape"
   xmlns:sodipodi="http://sodipodi.sourceforge.net/DTD/sodipodi-0.dtd"
   xmlns="http://www.w3.org/2000/svg"
   xmlns:svg="http://www.w3.org/2000/svg">
  <defs
     id="defs4402" />
  <sodipodi:namedview
     id="namedview4400"
     pagecolor="#ffffff"
     bordercolor="#000000"
     borderopacity="0.25"
     inkscape:showpageshadow="2"
     inkscape:pageopacity="0.0"
     inkscape:pagecheckerboard="0"
     inkscape:deskcolor="#d1d1d1"
     inkscape:document-units="pt"
     showgrid="false"
     inkscape:zoom="1.2287546"
     inkscape:cx="354.42391"
     inkscape:cy="353.20317"
     inkscape:window-width="1492"
     inkscape:window-height="1080"
     inkscape:window-x="213"
     inkscape:window-y="72"
     inkscape:window-maximized="0"
     inkscape:current-layer="svg4398" />
  <metadata
     id="metadata4392"> Created by potrace 1.16, written by Peter Selinger 2001-2019 </metadata>
  <g
     transform="translate(-0.051264,529.856010) scale(0.100000,-0.100000)"
     fill="#000000"
     stroke="none"
     id="g4396"
     style="fill:#eab300;fill-opacity:1">
    <path
       d="M2480 5290 c-1224 -78 -2232 -988 -2440 -2203 l-19 -114 -10 -164 -10 -164 9 -147 c12 -183 32 -321 69 -474 252 -1028 1087 -1805 2134 -1984 l114 -19 164 -10 164 -10 147 9 c183 12 321 32 474 69 1028 252 1805 1087 1984 2134 l19 114 10 164 10 164 -9 147 c-12 183 -32 321 -69 474 -252 1028 -1087 1805 -2134 1984 l-114 19 -164 10 c-90 6 -175 10 -189 9 -14 0 -77 -4 -140 -8z m435 -220 c50 -6 100 -12 113 -15 l22 -5 0 -268 0 -268 -36 -13 c-19 -7 -75 -40 -124 -72 l-89 -60 -83 -88 -82 -89 -96 98 -95 98 -78 51 c-43 27 -94 56 -113 63 l-34 12 0 267 0 267 83 11 c45 6 96 12 112 14 17 2 116 5 220 5 l190 2 90 -10z m439 -90 l91 -28 3 -159 2 -159 113 -18 112 -17 107 -36 107 -35 12 -15 12 -14 -10 -10 -11 -11 -140 41 -141 40 -111 10 -112 9 -97 -9 c-54 -5 -120 -16 -146 -24 -27 -8 -52 -12 -55 -10 l-7 5 -8 244 c-4 135 -4 249 -1 254 l6 10 92 -20 c50 -11 132 -32 182 -48z m-1164 -142 c0 -112 -3 -226 -6 -254 l-6 -51 -72 20 -71 20 -160 0 -160 0 -75 -16 c-41 -10 -115 -30 -165 -46 l-90 -28 -17 5 c-31 8 -20 22 35 47 76 35 218 74 319 87 l88 12 0 137 c0 76 3 144 6 153 l6 15 77 26 c77 25 254 73 279 74 l12 1 0 -202z m-148 -569 l69 -19 87 -44 c108 -55 194 -118 271 -202 l59 -64 38 -73 c21 -39 48 -103 60 -142 l22 -70 5 15 c2 8 12 42 22 75 9 33 35 94 56 136 l39 75 52 58 c28 32 81 80 117 108 l66 50 81 39 81 39 84 21 83 22 126 -6 125 -5 90 -26 c168 -50 280 -114 401 -229 l72 -67 52 -75 c64 -93 111 -195 145 -311 l26 -89 9 -120 10 -120 0 -460 c0 -253 -3 -504 -7 -557 l-6 -98 -22 0 -23 0 -5 643 -5 642 -16 82 c-9 45 -29 119 -46 164 l-30 82 -44 71 c-57 91 -130 172 -209 232 l-62 47 -100 47 -100 48 -70 18 -70 19 -135 0 -135 0 -37 -13 -38 -14 0 -64 0 -64 8 0 c5 0 46 10 93 21 l84 22 90 -6 90 -6 65 -20 c36 -11 94 -37 130 -58 l65 -38 86 -85 86 -86 42 -84 41 -85 17 -70 16 -70 4 -687 4 -688 -39 0 -40 0 -5 683 -5 682 -16 64 -16 64 -37 71 -37 71 -76 76 -75 76 -75 37 c-41 20 -100 43 -130 51 l-55 15 -84 0 -83 0 -62 -16 c-33 -9 -88 -30 -121 -47 l-60 -31 -65 -66 -66 -65 -36 -70 c-19 -38 -41 -92 -47 -120 l-12 -50 3 -865 2 -865 -12 -139 -12 -140 -7 -7 -8 -8 -23 5 -22 6 0 1189 0 1189 -9 0 c-5 0 -12 -12 -16 -27 l-8 -28 -4 -1162 -5 -1163 -39 0 -39 0 0 1080 0 1080 -9 0 -8 0 -6 -82 c-4 -46 -7 -532 -7 -1080 l0 -998 -45 0 -45 0 0 943 c0 519 -3 1005 -7 1080 l-6 137 -14 0 -13 0 0 -1080 0 -1080 -40 0 -40 0 -1 1163 -1 1162 -7 24 c-4 14 -12 26 -19 29 l-12 4 0 -1191 0 -1191 -24 0 -24 0 -5 23 c-3 12 -11 128 -17 257 l-12 235 5 749 4 748 -8 47 -9 46 -36 73 -35 72 -53 58 -54 57 -63 38 -64 38 -65 20 -65 20 -90 1 -90 1 -64 -17 -64 -16 -70 -37 -70 -37 -66 -66 -66 -66 -33 -55 c-40 -69 -68 -147 -81 -230 l-11 -64 0 -652 0 -653 -40 0 -41 0 3 703 4 702 22 73 c29 94 63 162 120 235 l44 58 65 54 65 54 72 35 c39 19 99 42 132 50 l62 16 83 0 84 0 60 -14 c33 -8 68 -18 78 -21 l17 -7 0 70 0 69 -62 14 -63 14 -90 -2 -90 -1 -87 -21 c-101 -24 -180 -55 -268 -107 l-63 -37 -80 -76 -80 -76 -37 -55 c-72 -106 -118 -213 -147 -345 l-16 -70 -4 -657 -5 -658 -29 0 -29 0 0 598 0 597 11 90 c6 50 22 128 35 175 l24 85 45 90 45 91 65 82 65 81 75 60 c132 105 286 175 440 200 39 6 81 13 95 15 14 2 63 2 109 -1 l84 -5 69 -19z m-79 -296 c29 -8 73 -26 99 -39 l46 -23 60 -55 59 -55 33 -62 c18 -34 39 -84 46 -113 l14 -51 0 -1017 0 -1018 -35 0 -35 0 -2 1018 -3 1017 -13 37 c-7 20 -27 58 -45 84 l-32 48 -42 32 -42 32 -58 22 c-32 12 -85 26 -118 31 l-60 8 -64 -10 -64 -10 -54 -26 -53 -26 -51 -54 -50 -53 -34 -72 -35 -73 -10 -70 -10 -70 0 -637 0 -638 -28 0 -29 0 -6 152 c-4 83 -7 377 -7 652 l0 501 15 70 15 69 35 76 35 75 -30 -35 c-16 -19 -42 -60 -57 -90 l-26 -55 -8 -85 -8 -85 0 -622 -1 -623 -39 0 -39 0 3 693 3 692 20 65 c67 209 252 372 465 410 l52 9 68 -5 c37 -3 91 -12 120 -21z m1631 2 c33 -9 91 -32 129 -52 l70 -37 61 -61 61 -61 33 -55 c18 -31 42 -82 55 -115 l22 -59 3 -702 3 -703 -40 0 -39 0 5 463 4 462 -8 241 -9 241 -31 64 -32 64 -30 29 -30 29 34 -64 33 -64 18 -65 17 -65 1 -150 c1 -82 0 -383 -1 -667 l-3 -518 -35 0 -35 0 0 673 0 672 -15 54 c-7 29 -26 78 -42 109 l-28 56 -47 48 -47 49 -68 32 -68 32 -110 -1 -110 0 -58 -23 c-32 -12 -77 -37 -100 -55 l-42 -32 -32 -48 -33 -48 -15 -51 -15 -51 0 -1003 0 -1003 -40 0 -41 0 3 1028 3 1027 23 59 c31 82 75 147 138 205 l54 50 54 26 c30 15 76 33 103 40 l48 13 85 1 86 1 58 -15z m-1624 -160 c25 -9 68 -31 96 -50 l51 -35 30 -43 c16 -23 38 -64 48 -91 l19 -49 0 -91 c1 -50 0 -369 -1 -708 l-3 -618 -385 0 -385 0 0 659 0 658 10 53 c6 30 21 77 34 106 l25 53 47 51 c56 60 97 86 172 111 l57 19 70 -5 71 -4 44 -16z m1597 -7 l51 -19 44 -33 c55 -42 91 -90 126 -164 l27 -57 9 -677 8 -677 -6 -26 -6 -25 -384 0 -384 0 2 718 2 717 26 57 26 56 42 42 42 42 64 30 63 30 48 8 48 8 50 -6 c28 -2 73 -13 102 -24z m1402 -424 c48 -149 86 -330 102 -482 l12 -114 -6 -211 -5 -212 -21 -119 c-12 -65 -28 -146 -36 -180 -23 -90 -86 -280 -96 -291 l-10 -10 1 860 c1 473 -2 880 -5 905 l-6 45 15 -34 c9 -18 34 -89 55 -157z m-4341 -545 l-3 -704 -22 -3 -22 -3 -12 43 -11 43 6 575 7 575 10 60 c6 33 15 77 20 99 l10 39 10 -10 9 -9 -2 -705z m4056 593 l16 -87 0 -607 0 -608 -30 0 -30 0 0 713 1 712 13 -18 14 -18 16 -87z m-4332 -1157 l-6 -410 -28 90 c-35 113 -74 301 -87 427 l-11 97 0 171 0 171 11 97 c13 128 51 316 86 427 l28 90 6 -375 7 -375 -6 -410z m708 415 l0 -560 -25 0 -25 0 0 553 0 554 7 6 c3 4 15 7 25 7 l18 0 0 -560z m3190 541 l10 -20 0 -540 0 -541 -25 0 -25 0 0 553 0 554 7 6 c11 12 22 8 33 -12z m-3600 -1236 c0 -41 -2 -75 -5 -75 -4 0 -45 126 -45 141 l0 9 25 0 25 0 0 -75z m320 -290 l0 -365 35 0 35 0 0 365 0 365 30 0 30 0 0 -365 0 -365 30 0 30 0 0 365 0 365 35 0 35 0 0 -365 0 -365 20 0 20 0 0 365 0 365 35 0 35 0 2 -122 2 -123 3 123 4 122 29 0 30 0 0 -270 0 -270 -25 0 -24 0 -10 18 -10 17 -1 -112 0 -113 913 0 c501 0 1084 3 1295 7 l382 6 0 359 0 358 30 0 30 0 0 -360 0 -360 25 0 25 0 0 360 0 360 35 0 35 0 0 -360 0 -360 30 0 30 0 0 360 0 360 25 0 25 0 0 -360 0 -360 40 0 40 0 0 360 0 360 25 0 25 0 0 -361 0 -362 -54 -66 c-177 -217 -454 -433 -711 -555 -275 -132 -547 -199 -855 -213 l-145 -6 -120 12 c-66 6 -175 23 -242 36 l-121 25 -127 41 -126 41 -137 68 -137 68 -105 70 c-58 38 -155 112 -216 165 l-110 95 -85 99 c-47 54 -97 114 -112 134 l-27 36 0 336 0 337 25 0 25 0 0 -365z m1241 353 c1 -7 1 -125 -1 -263 l-2 -250 -12 -7 -11 -8 -372 0 -373 0 0 244 0 245 10 25 10 26 375 0 375 0 1 -12z m1610 -10 c2 -13 3 -134 1 -270 l-4 -248 -372 0 -372 0 -12 12 -12 12 0 251 0 252 7 6 6 7 378 0 377 0 3 -22z m97 -245 l-3 -268 -32 -3 -33 -3 0 270 0 271 35 0 35 0 -2 -267z m750 203 l3 -59 -22 -64 c-13 -34 -26 -63 -31 -63 l-8 0 0 118 0 119 7 7 c4 4 16 6 28 4 l20 -3 3 -59z m-4035 -431 l17 -36 0 -99 0 -100 63 0 62 0 61 -83 c138 -184 341 -374 549 -512 276 -184 563 -297 900 -355 l120 -21 165 -6 165 -6 125 12 c69 7 181 23 249 37 l124 25 123 40 c447 145 831 418 1116 792 l59 77 39 0 40 0 0 62 0 62 37 38 c20 21 41 38 45 38 l8 0 0 -104 0 -103 -62 -88 c-35 -49 -105 -137 -157 -197 l-93 -109 -97 -86 c-190 -170 -363 -287 -588 -395 l-142 -69 -148 -49 -148 -48 -125 -26 c-69 -14 -169 -30 -222 -35 l-97 -11 -171 0 -171 0 -97 11 c-683 74 -1302 437 -1711 1003 l-71 98 0 139 0 139 8 0 c5 0 16 -16 25 -35z"
       id="path4394"
       style="fill:#eab300;fill-opacity:1" />
  </g>
</svg>
