<?xml version="1.0" encoding="UTF-8" standalone="no"?>
<svg
   version="1.0"
   width="255.993619pt"
   height="255.876474pt"
   viewBox="0 0 255.993619 255.876474"
   preserveAspectRatio="xMidYMid meet"
   id="svg2726"
   sodipodi:docname="ordinals.svg"
   inkscape:version="1.2.2 (b0a8486541, 2022-12-01)"
   xmlns:inkscape="http://www.inkscape.org/namespaces/inkscape"
   xmlns:sodipodi="http://sodipodi.sourceforge.net/DTD/sodipodi-0.dtd"
   xmlns="http://www.w3.org/2000/svg"
   xmlns:svg="http://www.w3.org/2000/svg">
  <defs
     id="defs2730" />
  <sodipodi:namedview
     id="namedview2728"
     pagecolor="#ffffff"
     bordercolor="#000000"
     borderopacity="0.25"
     inkscape:showpageshadow="2"
     inkscape:pageopacity="0.0"
     inkscape:pagecheckerboard="0"
     inkscape:deskcolor="#d1d1d1"
     inkscape:document-units="pt"
     showgrid="false"
     inkscape:zoom="1.4142136"
     inkscape:cx="148.49242"
     inkscape:cy="121.62237"
     inkscape:window-width="1880"
     inkscape:window-height="1056"
     inkscape:window-x="40"
     inkscape:window-y="0"
     inkscape:window-maximized="1"
     inkscape:current-layer="svg2726" />
  <metadata
     id="metadata2718"> Created by potrace 1.16, written by Peter Selinger 2001-2019 </metadata>
  <path
     style="fill:#f0bb00;fill-opacity:1;stroke-width:0.5"
     d="M 158,272.41359 C 142.49131,270.4846 128.97783,265.6887 116,257.50789 96.113987,244.9724 80.404299,225.42226 73.486679,204.60162 68.3359,189.09881 66.836581,167.83062 69.717515,151.13515 72.139457,137.09961 79.257789,121.1599 88.75746,108.5 c 13.69429,-18.249928 34.44523,-32.253722 55.90253,-37.725877 12.25599,-3.125589 34.92641,-3.455259 48.59001,-0.70659 14.29179,2.875042 33.81661,12.948252 45.6734,23.563732 14.65035,13.116585 25.02568,29.143285 30.05727,46.429265 4.37036,15.01429 5.29457,36.14414 2.26712,51.83202 -1.89781,9.83421 -6.98339,22.484 -12.9994,32.33448 -16.16318,26.46521 -44.19472,44.71465 -73.74839,48.0126 -4.19251,0.46785 -23.13734,0.59222 -26.5,0.17396 z"
     id="path6894"
     transform="scale(0.75)" />
  <path
     style="fill:#1a1a1a;fill-opacity:1;stroke-width:0.353553"
     d="M 157.86159,340.60067 C 128.39726,338.75324 101.55487,329.61629 75.483649,312.55982 67.359123,307.24455 58.41536,299.54713 48.083261,288.97778 38.135764,278.80186 32.573842,272.00077 26.989006,263.1838 11.882235,239.33423 3.8906203,216.56356 1.0064147,189.15106 0.11831601,180.71026 0.12061622,160.55319 1.010651,152.02796 3.5723098,127.49101 10.303114,106.54381 22.431444,85.363465 30.186691,71.820068 37.452172,62.56006 50.572206,49.497475 59.716769,40.392951 67.650924,33.636205 74.599765,29.035545 94.32424,15.976445 118.16896,6.0775488 139.04935,2.2799434 c 13.05734,-2.37479297 40.63639,-2.78442835 56.39305,-0.8376136 16.26936,2.0101608 33.36371,7.3926332 50.98431,16.0533592 17.81681,8.757162 27.7897,15.854042 42.73217,30.408953 10.11663,9.854244 18.22684,19.328619 23.75937,27.755783 16.6291,25.329475 25.54545,51.195635 27.72627,80.433395 0.46274,6.20395 0.45854,22.58724 -0.007,28.65554 -2.34766,30.57804 -11.77191,57.24055 -29.36135,83.06733 -8.14083,11.95328 -27.21154,31.4481 -40.2735,41.16913 -11.86893,8.83316 -29.46521,17.98143 -44.87528,23.33055 -19.63457,6.81554 -44.18131,9.79439 -68.26544,8.2843 z m 21.74353,-45.20917 c 34.09409,-2.40874 65.10001,-18.81659 88.47178,-46.81791 14.15705,-16.96131 23.0148,-37.47357 26.65264,-61.72062 1.03733,-6.9141 1.29349,-21.23054 0.51239,-28.63783 -1.62177,-15.3795 -6.15168,-30.35756 -13.63325,-45.07806 C 276.22234,102.5391 271.34367,95.67498 262.55281,86.326138 245.62152,68.32018 231.0518,58.893106 208.82388,51.561806 c -14.17535,-4.675373 -25.95132,-6.406515 -41.01147,-6.028952 -13.01291,0.326238 -23.71545,2.15214 -35.937,6.131008 -14.4035,4.689232 -29.1554,12.582523 -39.067645,20.903908 -7.700414,6.464543 -20.87322,20.887058 -26.628376,29.15462 -9.453766,13.5808 -17.002213,33.34267 -19.485328,51.01267 -5.80926,41.33904 9.416594,82.49492 41.028754,110.90178 10.611541,9.53559 19.085695,15.24027 30.102895,20.26483 19.49608,8.8915 41.26133,12.93943 61.77941,11.48983 z"
     id="path7111"
     transform="scale(0.75)" />
</svg>
