<?xml version="1.0" encoding="UTF-8" standalone="no"?>
<svg
   version="1.0"
   width="464.000000pt"
   height="464.000000pt"
   viewBox="0 0 464.000000 464.000000"
   preserveAspectRatio="xMidYMid meet"
   id="svg1502"
   sodipodi:docname="qr.svg"
   inkscape:version="1.2.2 (b0a8486541, 2022-12-01)"
   xmlns:inkscape="http://www.inkscape.org/namespaces/inkscape"
   xmlns:sodipodi="http://sodipodi.sourceforge.net/DTD/sodipodi-0.dtd"
   xmlns="http://www.w3.org/2000/svg"
   xmlns:svg="http://www.w3.org/2000/svg">
  <defs
     id="defs1506" />
  <sodipodi:namedview
     id="namedview1504"
     pagecolor="#ffffff"
     bordercolor="#000000"
     borderopacity="0.25"
     inkscape:showpageshadow="2"
     inkscape:pageopacity="0.0"
     inkscape:pagecheckerboard="0"
     inkscape:deskcolor="#d1d1d1"
     inkscape:document-units="pt"
     showgrid="false"
     inkscape:zoom="1.4030172"
     inkscape:cx="309.33333"
     inkscape:cy="309.33333"
     inkscape:window-width="1880"
     inkscape:window-height="1056"
     inkscape:window-x="40"
     inkscape:window-y="0"
     inkscape:window-maximized="1"
     inkscape:current-layer="svg1502" />
  <metadata
     id="metadata1464"> Created by potrace 1.16, written by Peter Selinger 2001-2019 </metadata>
  <g
     transform="translate(-16.000000,480.000000) scale(0.100000,-0.100000)"
     fill="#000000"
     stroke="none"
     id="g1500"
     style="fill:#e6e6e6;fill-opacity:1">
    <path
       d="M160 4240 l0 -560 560 0 560 0 0 560 0 560 -560 0 -560 0 0 -560z m960 0 l0 -400 -400 0 -400 0 0 400 0 400 400 0 400 0 0 -400z"
       id="path1466"
       style="fill:#e6e6e6;fill-opacity:1" />
    <path
       d="M480 4240 l0 -240 240 0 240 0 0 240 0 240 -240 0 -240 0 0 -240z"
       id="path1468"
       style="fill:#e6e6e6;fill-opacity:1" />
    <path
       d="M1440 4480 l0 -320 80 0 80 0 0 -80 0 -80 -80 0 -80 0 0 -160 0 -160 80 0 80 0 0 80 0 80 80 0 80 0 0 -240 0 -240 80 0 80 0 0 80 0 80 80 0 80 0 0 -80 0 -80 80 0 80 0 0 -80 0 -80 160 0 160 0 0 -80 0 -80 -80 0 -80 0 0 -80 0 -80 -80 0 -80 0 0 80 0 80 -80 0 -80 0 0 -80 0 -80 -80 0 -80 0 0 -80 0 -80 -80 0 -80 0 0 -160 0 -160 80 0 80 0 0 -80 0 -80 80 0 80 0 0 -80 0 -80 80 0 80 0 0 -80 0 -80 160 0 160 0 0 -80 0 -80 -80 0 -80 0 0 -80 0 -80 -80 0 -80 0 0 80 0 80 -80 0 -80 0 0 -80 0 -80 -80 0 -80 0 0 240 0 240 -80 0 -80 0 0 80 0 80 -80 0 -80 0 0 160 0 160 -80 0 -80 0 0 -80 0 -80 -80 0 -80 0 0 80 0 80 -80 0 -80 0 0 80 0 80 160 0 160 0 0 80 0 80 -240 0 -240 0 0 -160 0 -160 -80 0 -80 0 0 320 0 320 80 0 80 0 0 80 0 80 160 0 160 0 0 -80 0 -80 -80 0 -80 0 0 -80 0 -80 80 0 80 0 0 80 0 80 80 0 80 0 0 -80 0 -80 80 0 80 0 0 -80 0 -80 80 0 80 0 0 80 0 80 80 0 80 0 0 80 0 80 -160 0 -160 0 0 80 0 80 -160 0 -160 0 0 80 0 80 -240 0 -240 0 0 -160 0 -160 -80 0 -80 0 0 80 0 80 -80 0 -80 0 0 80 0 80 -160 0 -160 0 0 -80 0 -80 160 0 160 0 0 -80 0 -80 -160 0 -160 0 0 -320 0 -320 80 0 80 0 0 80 0 80 80 0 80 0 0 80 0 80 80 0 80 0 0 -240 0 -240 80 0 80 0 0 -80 0 -80 -80 0 -80 0 0 -160 0 -160 -80 0 -80 0 0 80 0 80 -160 0 -160 0 0 -80 0 -80 160 0 160 0 0 -160 0 -160 -160 0 -160 0 0 -80 0 -80 160 0 160 0 0 80 0 80 80 0 80 0 0 -80 0 -80 320 0 320 0 0 80 0 80 -160 0 -160 0 0 80 0 80 -160 0 -160 0 0 80 0 80 160 0 160 0 0 80 0 80 -80 0 -80 0 0 80 0 80 80 0 80 0 0 160 0 160 80 0 80 0 0 -80 0 -80 80 0 80 0 0 -80 0 -80 -80 0 -80 0 0 -80 0 -80 80 0 80 0 0 -80 0 -80 -80 0 -80 0 0 -80 0 -80 80 0 80 0 0 80 0 80 240 0 240 0 0 -160 0 -160 -80 0 -80 0 0 80 0 80 -80 0 -80 0 0 -80 0 -80 80 0 80 0 0 -80 0 -80 -80 0 -80 0 0 -80 0 -80 240 0 240 0 0 -160 0 -160 -160 0 -160 0 0 80 0 80 -80 0 -80 0 0 -160 0 -160 240 0 240 0 0 80 0 80 80 0 80 0 0 -80 0 -80 80 0 80 0 0 -80 0 -80 160 0 160 0 0 -80 0 -80 -80 0 -80 0 0 -80 0 -80 -80 0 -80 0 0 80 0 80 -80 0 -80 0 0 -80 0 -80 -160 0 -160 0 0 80 0 80 80 0 80 0 0 80 0 80 -160 0 -160 0 0 -80 0 -80 -80 0 -80 0 0 -160 0 -160 80 0 80 0 0 80 0 80 80 0 80 0 0 -80 0 -80 160 0 160 0 0 80 0 80 80 0 80 0 0 -80 0 -80 160 0 160 0 0 80 0 80 80 0 80 0 0 -80 0 -80 240 0 240 0 0 80 0 80 80 0 80 0 0 -80 0 -80 240 0 240 0 0 80 0 80 160 0 160 0 0 -80 0 -80 240 0 240 0 0 80 0 80 80 0 80 0 0 240 0 240 -80 0 -80 0 0 80 0 80 80 0 80 0 0 80 0 80 -80 0 -80 0 0 -80 0 -80 -80 0 -80 0 0 -80 0 -80 -80 0 -80 0 0 320 0 320 -80 0 -80 0 0 80 0 80 -160 0 -160 0 0 80 0 80 400 0 400 0 0 80 0 80 80 0 80 0 0 160 0 160 -80 0 -80 0 0 -80 0 -80 -80 0 -80 0 0 80 0 80 -80 0 -80 0 0 80 0 80 -80 0 -80 0 0 -80 0 -80 -80 0 -80 0 0 80 0 80 -160 0 -160 0 0 80 0 80 80 0 80 0 0 80 0 80 80 0 80 0 0 -80 0 -80 160 0 160 0 0 80 0 80 80 0 80 0 0 -160 0 -160 80 0 80 0 0 80 0 80 80 0 80 0 0 160 0 160 -240 0 -240 0 0 160 0 160 80 0 80 0 0 -80 0 -80 160 0 160 0 0 240 0 240 -320 0 -320 0 0 -80 0 -80 -80 0 -80 0 0 80 0 80 -80 0 -80 0 0 -160 0 -160 -80 0 -80 0 0 80 0 80 -80 0 -80 0 0 240 0 240 -80 0 -80 0 0 80 0 80 -160 0 -160 0 0 -160 0 -160 -80 0 -80 0 0 80 0 80 -80 0 -80 0 0 -80 0 -80 -80 0 -80 0 0 80 0 80 -80 0 -80 0 0 -80 0 -80 -80 0 -80 0 0 80 0 80 -80 0 -80 0 0 -80 0 -80 -80 0 -80 0 0 320 0 320 -80 0 -80 0 0 80 0 80 -80 0 -80 0 0 160 0 160 -80 0 -80 0 0 -320z m1920 -880 l0 -240 80 0 80 0 0 -80 0 -80 80 0 80 0 0 -80 0 -80 160 0 160 0 0 80 0 80 80 0 80 0 0 -240 0 -240 -80 0 -80 0 0 80 0 80 -80 0 -80 0 0 -80 0 -80 -80 0 -80 0 0 -80 0 -80 -160 0 -160 0 0 -80 0 -80 -80 0 -80 0 0 -80 0 -80 80 0 80 0 0 -80 0 -80 160 0 160 0 0 80 0 80 -80 0 -80 0 0 80 0 80 80 0 80 0 0 -80 0 -80 80 0 80 0 0 -80 0 -80 -80 0 -80 0 0 -80 0 -80 -80 0 -80 0 0 -80 0 -80 80 0 80 0 0 -80 0 -80 -80 0 -80 0 0 80 0 80 -160 0 -160 0 0 -80 0 -80 -80 0 -80 0 0 80 0 80 -80 0 -80 0 0 -80 0 -80 -80 0 -80 0 0 -80 0 -80 320 0 320 0 0 -80 0 -80 -160 0 -160 0 0 -80 0 -80 80 0 80 0 0 -240 0 -240 80 0 80 0 0 80 0 80 80 0 80 0 0 -80 0 -80 80 0 80 0 0 80 0 80 160 0 160 0 0 -80 0 -80 80 0 80 0 0 80 0 80 80 0 80 0 0 -160 0 -160 80 0 80 0 0 -80 0 -80 -80 0 -80 0 0 80 0 80 -320 0 -320 0 0 -80 0 -80 -160 0 -160 0 0 80 0 80 -80 0 -80 0 0 -80 0 -80 -80 0 -80 0 0 80 0 80 -160 0 -160 0 0 80 0 80 -80 0 -80 0 0 80 0 80 -80 0 -80 0 0 160 0 160 80 0 80 0 0 -80 0 -80 80 0 80 0 0 -160 0 -160 160 0 160 0 0 80 0 80 -80 0 -80 0 0 80 0 80 80 0 80 0 0 80 0 80 -80 0 -80 0 0 80 0 80 -80 0 -80 0 0 80 0 80 -80 0 -80 0 0 -80 0 -80 -160 0 -160 0 0 80 0 80 -80 0 -80 0 0 -80 0 -80 -80 0 -80 0 0 80 0 80 80 0 80 0 0 80 0 80 80 0 80 0 0 -80 0 -80 160 0 160 0 0 160 0 160 80 0 80 0 0 80 0 80 80 0 80 0 0 80 0 80 -240 0 -240 0 0 160 0 160 240 0 240 0 0 80 0 80 -80 0 -80 0 0 80 0 80 -80 0 -80 0 0 -80 0 -80 -160 0 -160 0 0 80 0 80 -80 0 -80 0 0 -80 0 -80 -80 0 -80 0 0 80 0 80 80 0 80 0 0 80 0 80 80 0 80 0 0 -80 0 -80 160 0 160 0 0 160 0 160 80 0 80 0 0 80 0 80 -80 0 -80 0 0 80 0 80 -80 0 -80 0 0 160 0 160 80 0 80 0 0 -160 0 -160 80 0 80 0 0 -80 0 -80 80 0 80 0 0 -80 0 -80 -80 0 -80 0 0 -160 0 -160 240 0 240 0 0 -80 0 -80 80 0 80 0 0 160 0 160 -160 0 -160 0 0 80 0 80 80 0 80 0 0 80 0 80 80 0 80 0 0 80 0 80 -240 0 -240 0 0 80 0 80 80 0 80 0 0 80 0 80 80 0 80 0 0 80 0 80 80 0 80 0 0 -240z m-1120 0 l0 -80 -80 0 -80 0 0 80 0 80 80 0 80 0 0 -80z m-1760 -640 l0 -80 -80 0 -80 0 0 80 0 80 80 0 80 0 0 -80z m1760 -640 l0 -80 -80 0 -80 0 0 80 0 80 80 0 80 0 0 -80z m2240 -320 l0 -80 -80 0 -80 0 0 80 0 80 80 0 80 0 0 -80z m-480 -800 l0 -240 -240 0 -240 0 0 240 0 240 240 0 240 0 0 -240z m-1760 -160 l0 -80 -80 0 -80 0 0 80 0 80 80 0 80 0 0 -80z m2400 -320 l0 -80 -80 0 -80 0 0 80 0 80 80 0 80 0 0 -80z"
       id="path1470"
       style="fill:#e6e6e6;fill-opacity:1" />
    <path
       d="M3520 2880 l0 -160 80 0 80 0 0 160 0 160 -80 0 -80 0 0 -160z"
       id="path1472"
       style="fill:#e6e6e6;fill-opacity:1" />
    <path
       d="M2880 2320 l0 -80 80 0 80 0 0 80 0 80 -80 0 -80 0 0 -80z"
       id="path1474"
       style="fill:#e6e6e6;fill-opacity:1" />
    <path
       d="M3040 2000 l0 -80 80 0 80 0 0 80 0 80 -80 0 -80 0 0 -80z"
       id="path1476"
       style="fill:#e6e6e6;fill-opacity:1" />
    <path
       d="M3360 560 l0 -80 80 0 80 0 0 80 0 80 -80 0 -80 0 0 -80z"
       id="path1478"
       style="fill:#e6e6e6;fill-opacity:1" />
    <path
       d="M3680 1200 l0 -80 80 0 80 0 0 80 0 80 -80 0 -80 0 0 -80z"
       id="path1480"
       style="fill:#e6e6e6;fill-opacity:1" />
    <path
       d="M2240 4720 l0 -80 -160 0 -160 0 0 -80 0 -80 80 0 80 0 0 -240 0 -240 80 0 80 0 0 240 0 240 80 0 80 0 0 80 0 80 160 0 160 0 0 -80 0 -80 80 0 80 0 0 -80 0 -80 80 0 80 0 0 -80 0 -80 80 0 80 0 0 80 0 80 -80 0 -80 0 0 80 0 80 160 0 160 0 0 160 0 160 -560 0 -560 0 0 -80z"
       id="path1482"
       style="fill:#e6e6e6;fill-opacity:1" />
    <path
       d="M3680 4240 l0 -560 560 0 560 0 0 560 0 560 -560 0 -560 0 0 -560z m960 0 l0 -400 -400 0 -400 0 0 400 0 400 400 0 400 0 0 -400z"
       id="path1484"
       style="fill:#e6e6e6;fill-opacity:1" />
    <path
       d="M4000 4240 l0 -240 240 0 240 0 0 240 0 240 -240 0 -240 0 0 -240z"
       id="path1486"
       style="fill:#e6e6e6;fill-opacity:1" />
    <path
       d="M2560 4240 l0 -80 -80 0 -80 0 0 -80 0 -80 80 0 80 0 0 80 0 80 80 0 80 0 0 -80 0 -80 80 0 80 0 0 80 0 80 -80 0 -80 0 0 80 0 80 -80 0 -80 0 0 -80z"
       id="path1488"
       style="fill:#e6e6e6;fill-opacity:1" />
    <path
       d="M3360 4240 l0 -80 80 0 80 0 0 80 0 80 -80 0 -80 0 0 -80z"
       id="path1490"
       style="fill:#e6e6e6;fill-opacity:1" />
    <path
       d="M320 2320 l0 -80 80 0 80 0 0 80 0 80 -80 0 -80 0 0 -80z"
       id="path1492"
       style="fill:#e6e6e6;fill-opacity:1" />
    <path
       d="M4480 1520 l0 -80 80 0 80 0 0 -80 0 -80 80 0 80 0 0 160 0 160 -160 0 -160 0 0 -80z"
       id="path1494"
       style="fill:#e6e6e6;fill-opacity:1" />
    <path
       d="M160 720 l0 -560 560 0 560 0 0 560 0 560 -560 0 -560 0 0 -560z m960 0 l0 -400 -400 0 -400 0 0 400 0 400 400 0 400 0 0 -400z"
       id="path1496"
       style="fill:#e6e6e6;fill-opacity:1" />
    <path
       d="M480 720 l0 -240 240 0 240 0 0 240 0 240 -240 0 -240 0 0 -240z"
       id="path1498"
       style="fill:#e6e6e6;fill-opacity:1" />
  </g>
</svg>
