<?xml version="1.0" encoding="UTF-8" standalone="no"?>
<!-- Created with Inkscape (http://www.inkscape.org/) -->

<svg
   width="120mm"
   height="120mm"
   viewBox="-60 -60 120 120"
   version="1.1"
   id="svg12475"
   sodipodi:docname="rock.svg"
   inkscape:version="1.2.2 (b0a8486541, 2022-12-01)"
   xmlns:inkscape="http://www.inkscape.org/namespaces/inkscape"
   xmlns:sodipodi="http://sodipodi.sourceforge.net/DTD/sodipodi-0.dtd"
   xmlns="http://www.w3.org/2000/svg"
   xmlns:svg="http://www.w3.org/2000/svg"
   xmlns:rdf="http://www.w3.org/1999/02/22-rdf-syntax-ns#"
   xmlns:cc="http://creativecommons.org/ns#"
   xmlns:dc="http://purl.org/dc/elements/1.1/">
  <sodipodi:namedview
     id="namedview35"
     pagecolor="#ffffff"
     bordercolor="#000000"
     borderopacity="0.25"
     inkscape:showpageshadow="2"
     inkscape:pageopacity="0.0"
     inkscape:pagecheckerboard="0"
     inkscape:deskcolor="#d1d1d1"
     inkscape:document-units="mm"
     showgrid="false"
     inkscape:zoom="1.9138194"
     inkscape:cx="227.03291"
     inkscape:cy="268.57288"
     inkscape:window-width="1880"
     inkscape:window-height="1056"
     inkscape:window-x="40"
     inkscape:window-y="0"
     inkscape:window-maximized="1"
     inkscape:current-layer="Template" />
  <defs
     id="defs12477" />
  <metadata
     id="metadata2822">
    <rdf:RDF>
      <cc:Work
         rdf:about="">
        <dc:format>image/svg+xml</dc:format>
        <dc:type
           rdf:resource="http://purl.org/dc/dcmitype/StillImage" />
      </cc:Work>
    </rdf:RDF>
  </metadata>
  <g
     id="Template"
     style="fill:none;stroke:black;stroke-width:0.05">
    <g
       id="g7681"
       transform="matrix(0.59611883,0,0,0.59611883,-48.097148,-59.271417)"
       style="fill:#00bebe;fill-opacity:1">
      <path
         class="cls-1"
         d="m 81.05,92.79 c -0.47,0.3 -20.46,13.16 -43.44,39.19 -1.77,2.01 -3.59,4.13 -5.45,6.36 -1.33,1.6 -3.73,1.78 -5.28,0.38 v 0 c -1.46,-1.32 -1.62,-3.56 -0.36,-5.07 1.91,-2.29 3.77,-4.47 5.59,-6.53 24.05,-27.25 44.77,-40.38 45.04,-40.55 5.03,-3.13 6.72,-9.62 3.86,-14.8 -0.09,-0.16 -0.18,-0.32 -0.28,-0.47 -3.23,-5.21 -10.08,-6.82 -15.29,-3.6 -0.39,0.24 -4.4,2.75 -10.84,7.71 -1.62,1.25 -3.96,0.92 -5.18,-0.73 -1.19,-1.6 -0.87,-3.86 0.71,-5.08 6.78,-5.22 11.03,-7.89 11.44,-8.14 8.65,-5.36 20.04,-2.68 25.4,5.97 0.16,0.26 0.31,0.52 0.46,0.79 4.75,8.59 1.95,19.37 -6.37,24.57 z m -44.64,82.42 c 1.66,1.22 3.99,0.83 5.18,-0.86 0.94,-1.34 1.88,-2.64 2.81,-3.92 v -12.17 c -2.89,3.68 -5.85,7.64 -8.82,11.89 -1.15,1.63 -0.77,3.89 0.84,5.07 z m 66.85,-89.42 c 0.55,-2.05 -0.75,-4.13 -2.83,-4.54 -1.88,-0.37 -3.74,0.76 -4.24,2.61 -1.64,6.07 -5.48,11.55 -11.2,15.14 -0.5,0.32 -10.79,7.04 -24.78,20.2 -1.49,1.41 -1.54,3.77 -0.11,5.23 h 0.01 c 0.51,0.53 1.14,0.86 1.8,1.02 0.65,-0.01 1.24,-0.03 1.76,-0.04 0.57,-0.15 1.12,-0.43 1.58,-0.86 13.27,-12.47 23.1,-18.98 23.69,-19.36 7.3,-4.6 12.22,-11.62 14.32,-19.39 z m -8.77,28.99 v 0 c -1.17,-1.71 -3.52,-2.11 -5.19,-0.88 -4.12,3.02 -11.37,8.7 -20.09,17 l 4.11,6.22 c 8.88,-8.54 16.27,-14.33 20.31,-17.3 1.6,-1.17 1.98,-3.4 0.86,-5.04 z m 31.48,-67.87 c -0.49,-0.89 -1.02,-1.79 -1.56,-2.66 -6.19,-9.99 -14.76,-17.63 -24.53,-22.64 -1.93,-0.99 -4.28,-0.11 -5.09,1.9 v 0 c -0.7,1.75 0.04,3.75 1.71,4.61 8.62,4.42 16.19,11.16 21.66,19.99 0.48,0.77 0.94,1.56 1.37,2.35 7.32,13.24 8.61,28.29 4.71,41.88 -0.53,1.85 0.47,3.78 2.28,4.44 2,0.73 4.19,-0.4 4.78,-2.45 4.4,-15.4 2.94,-32.44 -5.35,-47.42 z m -25.78,63.28 c 1.4,1.67 3.94,1.75 5.45,0.18 12.06,-12.47 16.46,-30.7 11.32,-47.34 -0.63,-2.04 -2.84,-3.12 -4.83,-2.36 v 0 c -1.81,0.7 -2.75,2.68 -2.18,4.53 4.35,14.09 0.63,29.51 -9.58,40.07 -1.31,1.36 -1.39,3.48 -0.18,4.92 z m 23.83,-6.78 c -1.76,-1.02 -4,-0.42 -5.02,1.34 -4.3,7.46 -10.39,14 -18.1,18.91 -0.79,0.53 -12.34,9.55 -23.5,19.64 l 4.1,6.2 c 10.9,-9.93 22.61,-19.15 23.42,-19.69 8.71,-5.57 15.59,-12.98 20.44,-21.42 1,-1.74 0.39,-3.97 -1.35,-4.98 z"
         id="path7625"
         style="fill:#00bebe;fill-opacity:1" />
      <g
         id="g7679"
         style="fill:#00bebe;fill-opacity:1">
        <path
           class="cls-2"
           d="M 8.3,0.19 H 2.7 V 4.36 C 4.72,2.82 6.6,1.42 8.3,0.19 Z"
           id="path7627"
           style="fill:#00bebe;fill-opacity:1" />
        <path
           class="cls-2"
           d="m 2.7,13.65 v 9.41 C 16.57,11.69 26.07,5.74 26.79,5.3 29.91,3.37 33.11,1.67 36.36,0.19 h -15.2 c -3,1.96 -9.61,6.46 -18.47,13.46 z"
           id="path7629"
           style="fill:#00bebe;fill-opacity:1" />
        <path
           class="cls-2"
           d="M 43.43,9.27 C 42.65,7.3 40.37,6.4 38.45,7.3 35.8,8.55 33.2,9.96 30.65,11.54 29.88,12.02 18.64,19.05 2.7,32.59 v 9.7 c 17.96,-15.84 31,-24 31.82,-24.51 2.31,-1.43 4.67,-2.71 7.06,-3.83 1.75,-0.83 2.57,-2.87 1.86,-4.67 v 0 z"
           id="path7631"
           style="fill:#00bebe;fill-opacity:1" />
        <path
           class="cls-2"
           d="M 4.71,50.32 C 4.05,50.92 3.37,51.54 2.7,52.16 V 62.2 C 5.07,59.93 7.39,57.78 9.63,55.75 11.09,54.43 11.24,52.2 9.99,50.69 8.66,49.09 6.26,48.92 4.71,50.31 Z"
           id="path7633"
           style="fill:#00bebe;fill-opacity:1" />
        <path
           class="cls-2"
           d="M 82.31,15.68 C 67.65,13.04 52.01,15.59 38.38,24.03 37.7,24.45 28.37,30.29 14.77,41.61 13.22,42.9 13,45.2 14.28,46.76 c 1.29,1.57 3.61,1.79 5.17,0.49 13.16,-10.95 22.14,-16.57 22.8,-16.98 12.03,-7.45 25.83,-9.7 38.76,-7.37 2.01,0.36 3.93,-0.97 4.28,-2.98 v 0 c 0.34,-2 -0.99,-3.88 -2.97,-4.24 z"
           id="path7635"
           style="fill:#00bebe;fill-opacity:1" />
        <path
           class="cls-2"
           d="m 46.11,36.5 c -0.82,0.51 -15.17,9.49 -34.42,27.3 -1.49,1.38 -1.58,3.7 -0.2,5.19 v 0 c 1.38,1.48 3.69,1.57 5.18,0.2 18.68,-17.3 32.51,-25.96 33.31,-26.45 15.29,-9.47 34.5,-7.49 47.53,3.58 1.49,1.26 3.71,1.11 5.04,-0.32 v 0 c 1.42,-1.53 1.28,-3.94 -0.31,-5.29 C 86.85,27.65 64.17,25.31 46.11,36.5 Z"
           id="path7637"
           style="fill:#00bebe;fill-opacity:1" />
        <path
           class="cls-2"
           d="M 3.43,77.03 C 3.21,76.8 2.96,76.62 2.7,76.47 v 6.48 c 0.25,-0.26 0.51,-0.54 0.75,-0.8 1.38,-1.43 1.37,-3.7 -0.02,-5.12 z"
           id="path7639"
           style="fill:#00bebe;fill-opacity:1" />
        <path
           class="cls-2"
           d="M 47.43,53.07 C 37.94,60.26 19.3,75.68 2.7,93.71 v 11.06 c 0.59,-0.68 1.16,-1.38 1.75,-2.05 17.14,-19.42 37.53,-36.33 47.4,-43.8 1.56,-1.18 1.92,-3.38 0.81,-4.99 -1.18,-1.73 -3.57,-2.12 -5.23,-0.85 z"
           id="path7641"
           style="fill:#00bebe;fill-opacity:1" />
        <path
           class="cls-2"
           d="m 36.08,81.28 c -7.74,6.89 -16.7,15.62 -26.12,26.29 -2.47,2.8 -4.88,5.65 -7.26,8.54 v 11.74 c 4.11,-5.28 8.36,-10.43 12.76,-15.42 9.23,-10.46 17.97,-18.98 25.49,-25.68 1.48,-1.31 1.65,-3.56 0.39,-5.08 -1.33,-1.6 -3.71,-1.78 -5.26,-0.4 z"
           id="path7643"
           style="fill:#00bebe;fill-opacity:1" />
        <path
           class="cls-2"
           d="m 27.51,115.79 c -1.54,-1.47 -3.99,-1.38 -5.41,0.21 -0.38,0.43 -0.76,0.85 -1.14,1.29 -6.42,7.27 -12.5,14.89 -18.26,22.79 v 13.11 c 8.27,-12.21 16.49,-22.51 23.91,-30.92 0.37,-0.42 0.74,-0.84 1.11,-1.25 1.35,-1.51 1.27,-3.83 -0.2,-5.23 v 0 z"
           id="path7645"
           style="fill:#00bebe;fill-opacity:1" />
        <path
           class="cls-2"
           d="m 20.59,147.21 v 0 c -1.63,-1.27 -3.99,-0.95 -5.21,0.72 -4.19,5.72 -8.45,11.97 -12.68,18.72 v 7.39 c 1.69,0.9 3.82,0.36 4.84,-1.3 4.58,-7.44 9.21,-14.25 13.75,-20.45 1.18,-1.6 0.87,-3.85 -0.7,-5.07 z"
           id="path7647"
           style="fill:#00bebe;fill-opacity:1" />
        <path
           class="cls-2"
           d="m 42.75,198.98 c 0.55,-0.93 1.09,-1.87 1.64,-2.78 V 182.51 C 41,187.61 37.6,193.1 34.27,198.98 h 8.47 z"
           id="path7649"
           style="fill:#00bebe;fill-opacity:1" />
        <path
           class="cls-2"
           d="m 30.45,184.41 c -1.73,-1.03 -3.97,-0.47 -5.01,1.25 -2.56,4.22 -5.1,8.67 -7.6,13.32 h 8.38 c 1.82,-3.27 3.65,-6.47 5.5,-9.51 1.06,-1.74 0.49,-4.02 -1.26,-5.06 z"
           id="path7651"
           style="fill:#00bebe;fill-opacity:1" />
        <path
           class="cls-2"
           d="m 108.37,140.54 c -1.24,-1.72 -3.68,-2.03 -5.32,-0.68 -4.89,4.04 -10.89,9.41 -17.31,16.03 l 4.15,6.27 c 6.63,-6.94 12.85,-12.51 17.85,-16.64 1.49,-1.23 1.77,-3.41 0.64,-4.98 v 0 z"
           id="path7653"
           style="fill:#00bebe;fill-opacity:1" />
        <path
           class="cls-2"
           d="m 99.87,177.26 c 10.63,-13.26 21.52,-23.9 31.5,-32.31 l -3.83,-6.37 c -10.08,8.4 -21.09,19.06 -31.9,32.27 l 4.24,6.41 z"
           id="path7655"
           style="fill:#00bebe;fill-opacity:1" />
        <path
           class="cls-2"
           d="m 135.98,152.61 c -1.69,1.59 -3.42,3.15 -5.23,4.63 -1.54,1.26 -1.78,3.52 -0.56,5.09 1.27,1.63 3.62,1.89 5.22,0.58 1.52,-1.24 3,-2.54 4.44,-3.87 z"
           id="path7657"
           style="fill:#00bebe;fill-opacity:1" />
        <path
           class="cls-2"
           d="m 147.14,171.15 -3.81,-6.33 c -9.81,7.59 -20.79,17.55 -31.61,30.35 l 2.52,3.81 h 3.88 c 9.94,-11.61 19.98,-20.77 29.02,-27.83 z"
           id="path7659"
           style="fill:#00bebe;fill-opacity:1" />
        <path
           class="cls-2"
           d="m 125.22,165.1 v 0 c -1.24,-1.68 -3.63,-1.98 -5.26,-0.67 -4.3,3.48 -10.69,9.06 -17.68,16.48 l 4.16,6.29 c 7.19,-7.77 13.82,-13.56 18.15,-17.06 1.53,-1.24 1.8,-3.46 0.63,-5.04 z"
           id="path7661"
           style="fill:#00bebe;fill-opacity:1" />
        <path
           class="cls-2"
           d="m 139.72,195.79 c 1.48,-1.29 1.68,-3.51 0.46,-5.05 v 0 c -1.3,-1.64 -3.7,-1.86 -5.28,-0.49 -2.65,2.3 -5.85,5.25 -9.27,8.74 h 10.53 c 1.27,-1.17 2.47,-2.25 3.56,-3.19 z"
           id="path7663"
           style="fill:#00bebe;fill-opacity:1" />
        <path
           class="cls-2"
           d="m 151.24,177.95 c -1.89,1.46 -3.82,2.88 -5.8,4.23 -1.63,1.12 -2.1,3.32 -1.05,4.99 v 0 c 1.1,1.76 3.45,2.26 5.17,1.09 1.87,-1.28 3.69,-2.62 5.49,-3.98 z"
           id="path7665"
           style="fill:#00bebe;fill-opacity:1" />
        <path
           class="cls-2"
           d="m 162.6,196.83 -3.81,-6.32 c -2.7,2.09 -5.47,4.1 -8.33,6 -0.06,0.04 -0.12,0.08 -0.17,0.12 -0.5,0.37 -1.54,1.18 -2.97,2.35 h 12.43 c 0.96,-0.7 1.9,-1.43 2.84,-2.15 z"
           id="path7667"
           style="fill:#00bebe;fill-opacity:1" />
        <path
           class="cls-2"
           d="M 100.28,61.12 C 100.02,60.65 99.74,60.17 99.45,59.71 90.85,45.84 73.61,40.52 58.96,46.39 c -2.01,0.81 -2.91,3.16 -1.92,5.09 0.87,1.7 2.89,2.43 4.67,1.72 11.4,-4.56 24.81,-0.42 31.5,10.37 0.22,0.36 0.44,0.73 0.64,1.1 0.93,1.69 1.66,3.44 2.18,5.23 0.5,1.72 2.16,2.83 3.94,2.63 v 0 c 2.26,-0.25 3.76,-2.48 3.12,-4.66 -0.67,-2.3 -1.61,-4.57 -2.81,-6.75 z"
           id="path7669"
           style="fill:#00bebe;fill-opacity:1" />
        <path
           class="cls-2"
           d="m 69.3,73.95 c -0.71,0.44 -14.01,8.77 -32.04,26.25 -1.47,1.42 -1.54,3.75 -0.16,5.26 v 0 c 1.43,1.56 3.88,1.64 5.4,0.16 17.58,-17.01 30.6,-25.16 30.76,-25.27 1.77,-1.09 2.31,-3.41 1.22,-5.18 -1.1,-1.77 -3.42,-2.31 -5.18,-1.22 z"
           id="path7671"
           style="fill:#00bebe;fill-opacity:1" />
        <path
           class="cls-2"
           d="m 59.49,4.57 v 0 c -0.27,-2.04 1.18,-3.91 3.22,-4.13 28.61,-3.07 57.85,10.03 73.99,36.09 0.67,1.08 1.31,2.18 1.92,3.28 4.7,8.5 7.62,17.54 8.87,26.68 0.29,2.11 -1.3,4.01 -3.42,4.14 v 0 c -1.92,0.11 -3.59,-1.27 -3.85,-3.17 -1.14,-8.25 -3.78,-16.41 -8.03,-24.09 -0.55,-1 -1.14,-2 -1.74,-2.97 C 115.85,16.81 89.4,4.95 63.51,7.74 61.54,7.95 59.76,6.54 59.5,4.57 Z"
           id="path7673"
           style="fill:#00bebe;fill-opacity:1" />
        <path
           class="cls-2"
           d="m 145.07,85.64 h 0.02 c 2.01,0.34 3.37,2.26 3,4.26 -3.41,18.45 -13.47,35.59 -29.18,47.5 -1.65,1.25 -4.01,0.88 -5.2,-0.82 l -0.02,-0.02 c -1.13,-1.61 -0.78,-3.83 0.79,-5.02 14.21,-10.78 23.3,-26.27 26.39,-42.95 0.37,-1.97 2.23,-3.29 4.2,-2.96 z"
           id="path7675"
           style="fill:#00bebe;fill-opacity:1" />
        <path
           class="cls-2"
           d="m 8.33,199 c 15.96,-29.29 34.19,-51.01 48.92,-65.72 l 0.02,-0.02 c 1.35,-1.35 1.38,-3.53 0.05,-4.9 l -0.25,-0.26 c -1.35,-1.4 -3.59,-1.43 -4.97,-0.05 l -0.04,0.04 c -15.7,15.68 -35.27,39.1 -52.07,70.92 h 8.34 z"
           id="path7677"
           style="fill:#00bebe;fill-opacity:1" />
      </g>
    </g>
    <path
       style="fill:#00bebe;fill-opacity:1;stroke-width:0.0261258"
       d=""
       id="path3033"
       transform="matrix(0.26458333,0,0,0.26458333,-60,-60)" />
    <path
       style="fill:#cccccc;fill-opacity:1;stroke-width:0.0261258"
       d="m 106.85412,315.72989 c -3.34661,-2.28437 -4.54715,-6.56082 -2.79372,-9.95158 0.475,-0.91854 3.59049,-4.8446 6.92333,-8.72458 20.49492,-23.85953 41.36195,-44.98701 63.79765,-64.59394 15.33727,-13.40349 26.56612,-22.12148 45.88192,-35.62238 3.37353,-2.35795 6.92587,-6.91412 8.54231,-10.95623 1.01832,-2.54642 1.20004,-3.95027 1.20004,-9.271 0,-5.3437 -0.17966,-6.71985 -1.21591,-9.31343 -2.67953,-6.70649 -8.8763,-12.57624 -15.59592,-14.77286 -4.1892,-1.36943 -11.84347,-1.35633 -16.06691,0.0275 -3.40589,1.11596 -12.95041,7.27792 -24.16383,15.60022 -3.7976,2.81847 -7.6643,5.34234 -8.59269,5.6086 -3.79795,1.08924 -8.11642,-1.54136 -9.36352,-5.70379 -0.57827,-1.93011 -0.53569,-2.49612 0.35057,-4.65935 0.87694,-2.14051 1.89586,-3.13174 7.79567,-7.58385 9.30088,-7.0186 21.69317,-15.3064 25.21703,-16.86482 21.61162,-9.55769 47.35039,1.21401 55.3557,23.1664 3.57186,9.79484 3.55331,19.5503 -0.0552,29.05757 -3.24089,8.53859 -8.59297,14.76757 -18.5517,21.59122 -32.88837,22.53488 -71.45082,58.19389 -103.46243,95.67255 -3.26246,3.81964 -6.59511,7.28784 -7.40588,7.70711 -2.23606,1.15631 -5.77151,0.96886 -7.79648,-0.41336 z"
       id="path8641"
       transform="matrix(0.26458333,0,0,0.26458333,-60,-60)" />
    <path
       style="fill:#cccccc;fill-opacity:1;stroke-width:0.0261258"
       d="m 182.04324,283.84604 c -3.35584,-2.24184 -4.57405,-6.88378 -2.63921,-10.05652 3.52639,-5.78255 36.94176,-33.74903 55.35585,-46.32923 15.47655,-10.57332 21.07996,-17.92112 27.54305,-36.1174 2.13603,-6.01381 10.61999,-7.09975 13.86801,-1.77509 1.81013,2.96746 1.77988,4.499 -0.20608,10.43395 -5.04815,15.08619 -15.12865,28.59185 -27.9758,37.48147 -18.09922,12.5238 -32.67856,24.14289 -49.22463,39.22987 -3.85072,3.51115 -7.7067,6.81843 -8.56885,7.34951 -2.22625,1.37137 -5.92233,1.27318 -8.15234,-0.21656 z"
       id="path8643"
       transform="matrix(0.26458333,0,0,0.26458333,-60,-60)" />
    <path
       style="fill:#cccccc;fill-opacity:1;stroke-width:0.0261258"
       d="m 206.56414,305.54084 c -1.86183,-2.80199 -3.79016,-5.71729 -4.28518,-6.47844 l -0.90004,-1.38392 6.68744,-6.12692 c 16.82929,-15.41871 37.00812,-31.7557 40.85815,-33.07919 4.63404,-1.59299 9.98184,2.50335 9.98184,7.64597 0,3.0773 -1.59257,4.92997 -9.61724,11.18796 -12.35068,9.6316 -23.63941,19.30719 -34.13116,29.25388 -2.36418,2.24135 -4.50329,4.07518 -4.75358,4.07518 -0.2503,0 -1.9784,-2.29253 -3.84023,-5.09452 z"
       id="path8645"
       transform="matrix(0.26458333,0,0,0.26458333,-60,-60)" />
    <path
       style="fill:#cccccc;fill-opacity:1;stroke-width:0.0261258"
       d="m 224.4041,332.55677 c -2.33337,-3.48286 -4.12866,-6.62911 -3.98954,-6.99165 0.28902,-0.75318 12.44715,-11.48749 24.38387,-21.52832 12.64956,-10.64045 23.70692,-19.4085 30.82841,-24.44575 3.59229,-2.54093 8.47269,-6.26248 10.84533,-8.27011 8.84245,-7.4821 18.47721,-18.67823 24.39756,-28.35131 3.28105,-5.36082 4.75499,-6.94136 7.13938,-7.65574 5.71545,-1.71239 11.43047,3.85006 9.84718,9.58429 -0.62991,2.28133 -8.42972,14.10993 -13.3716,20.27835 -7.52629,9.39426 -19.06779,20.00429 -29.70441,27.3071 -8.41319,5.77625 -27.65013,21.47398 -44.6266,36.41618 -4.42261,3.89265 -8.82096,7.73272 -9.7741,8.53349 l -1.73299,1.45595 z"
       id="path8647"
       transform="matrix(0.26458333,0,0,0.26458333,-60,-60)" />
    <path
       style="fill:#cccccc;fill-opacity:1;stroke-width:0.0261258"
       d="m 273.52862,252.7137 c -2.57114,-1.36631 -4.17197,-3.91884 -4.17197,-6.65223 0,-3.19301 0.50948,-4.15079 4.70205,-8.83951 20.06511,-22.43963 27.57313,-54.20838 19.90213,-84.21203 -1.41674,-5.54131 -1.39671,-7.93202 0.0847,-10.10225 3.34384,-4.89876 9.79555,-4.73577 13.21192,0.33377 1.11416,1.6533 2.78524,7.75077 4.23481,15.45199 1.25977,6.69291 1.53073,23.78251 0.50109,31.60403 -2.54689,19.34714 -10.56305,38.13716 -22.80526,53.45593 -7.64205,9.56257 -10.95682,11.45927 -15.65944,8.9603 z"
       id="path8649"
       transform="matrix(0.26458333,0,0,0.26458333,-60,-60)" />
    <path
       style="fill:#cccccc;fill-opacity:1;stroke-width:0.0261258"
       d="m 328.90904,219.8644 c -4.14949,-2.88532 -4.5912,-5.13388 -2.60576,-13.26456 2.78737,-11.41475 3.38344,-16.74408 3.38344,-30.25092 0,-13.80884 -0.66978,-19.55123 -3.62407,-31.07103 -4.03773,-15.74455 -11.12983,-30.47469 -21.14428,-43.91627 -4.65047,-6.241941 -16.93574,-18.690114 -22.76009,-23.061884 -5.90808,-4.434619 -11.2823,-7.966711 -16.64718,-10.941007 -5.16131,-2.861433 -6.62564,-4.487065 -6.99519,-7.765735 -0.49854,-4.422981 2.56493,-8.089143 7.11926,-8.519896 2.06826,-0.195618 3.01565,0.08658 6.59532,1.964574 6.18712,3.245932 18.08375,11.338695 24.04331,16.355625 10.54393,8.876186 21.34377,21.395555 28.70985,33.280963 3.75509,6.05897 9.95279,18.82148 12.51982,25.78125 9.29663,25.2051 10.90754,54.41576 4.45757,80.82939 -1.7188,7.03875 -2.75225,9.17351 -5.11381,10.56343 -2.0301,1.19483 -6.23074,1.20333 -7.93819,0.0161 z"
       id="path8651"
       transform="matrix(0.26458333,0,0,0.26458333,-60,-60)" />
    <path
       style="fill:#cccccc;fill-opacity:1;stroke-width:0.0261258"
       d="m 129.64614,398.39995 c -3.12497,-0.93565 -5.54875,-4.30472 -5.54875,-7.71278 0,-2.54401 1.63366,-5.12574 12.21955,-19.31088 l 7.89729,-10.58242 0.13959,13.06004 0.13959,13.06005 -2.70873,3.79256 c -3.80589,5.3287 -5.6036,7.12113 -7.73632,7.71361 -2.12787,0.59114 -2.36411,0.59006 -4.40222,-0.0202 z"
       id="path8653"
       transform="matrix(0.26458333,0,0,0.26458333,-60,-60)" />
  </g>
</svg>
