<?xml version="1.0" encoding="UTF-8" standalone="no"?>
<!-- Created with Inkscape (http://www.inkscape.org/) -->

<svg
   width="120mm"
   height="120mm"
   viewBox="-60 -60 120 120"
   version="1.1"
   id="svg12475"
   xmlns="http://www.w3.org/2000/svg"
   xmlns:svg="http://www.w3.org/2000/svg"
   xmlns:rdf="http://www.w3.org/1999/02/22-rdf-syntax-ns#"
   xmlns:cc="http://creativecommons.org/ns#"
   xmlns:dc="http://purl.org/dc/elements/1.1/">
  <defs
     id="defs12477" />
  <metadata
     id="metadata2822">
    <rdf:RDF>
      <cc:Work
         rdf:about="">
        <dc:format>image/svg+xml</dc:format>
        <dc:type
           rdf:resource="http://purl.org/dc/dcmitype/StillImage" />
      </cc:Work>
    </rdf:RDF>
  </metadata>
  <g
     id="Template"
     style="fill:none;stroke:black;stroke-width:0.05">
    <g
       id="g7681"
       transform="matrix(0.59611883,0,0,0.59611883,-48.097148,-59.271417)">
      <path
         class="cls-1"
         d="m 81.05,92.79 c -0.47,0.3 -20.46,13.16 -43.44,39.19 -1.77,2.01 -3.59,4.13 -5.45,6.36 -1.33,1.6 -3.73,1.78 -5.28,0.38 v 0 c -1.46,-1.32 -1.62,-3.56 -0.36,-5.07 1.91,-2.29 3.77,-4.47 5.59,-6.53 24.05,-27.25 44.77,-40.38 45.04,-40.55 5.03,-3.13 6.72,-9.62 3.86,-14.8 -0.09,-0.16 -0.18,-0.32 -0.28,-0.47 -3.23,-5.21 -10.08,-6.82 -15.29,-3.6 -0.39,0.24 -4.4,2.75 -10.84,7.71 -1.62,1.25 -3.96,0.92 -5.18,-0.73 -1.19,-1.6 -0.87,-3.86 0.71,-5.08 6.78,-5.22 11.03,-7.89 11.44,-8.14 8.65,-5.36 20.04,-2.68 25.4,5.97 0.16,0.26 0.31,0.52 0.46,0.79 4.75,8.59 1.95,19.37 -6.37,24.57 z m -44.64,82.42 c 1.66,1.22 3.99,0.83 5.18,-0.86 0.94,-1.34 1.88,-2.64 2.81,-3.92 v -12.17 c -2.89,3.68 -5.85,7.64 -8.82,11.89 -1.15,1.63 -0.77,3.89 0.84,5.07 z m 66.85,-89.42 c 0.55,-2.05 -0.75,-4.13 -2.83,-4.54 -1.88,-0.37 -3.74,0.76 -4.24,2.61 -1.64,6.07 -5.48,11.55 -11.2,15.14 -0.5,0.32 -10.79,7.04 -24.78,20.2 -1.49,1.41 -1.54,3.77 -0.11,5.23 h 0.01 c 0.51,0.53 1.14,0.86 1.8,1.02 0.65,-0.01 1.24,-0.03 1.76,-0.04 0.57,-0.15 1.12,-0.43 1.58,-0.86 13.27,-12.47 23.1,-18.98 23.69,-19.36 7.3,-4.6 12.22,-11.62 14.32,-19.39 z m -8.77,28.99 v 0 c -1.17,-1.71 -3.52,-2.11 -5.19,-0.88 -4.12,3.02 -11.37,8.7 -20.09,17 l 4.11,6.22 c 8.88,-8.54 16.27,-14.33 20.31,-17.3 1.6,-1.17 1.98,-3.4 0.86,-5.04 z m 31.48,-67.87 c -0.49,-0.89 -1.02,-1.79 -1.56,-2.66 -6.19,-9.99 -14.76,-17.63 -24.53,-22.64 -1.93,-0.99 -4.28,-0.11 -5.09,1.9 v 0 c -0.7,1.75 0.04,3.75 1.71,4.61 8.62,4.42 16.19,11.16 21.66,19.99 0.48,0.77 0.94,1.56 1.37,2.35 7.32,13.24 8.61,28.29 4.71,41.88 -0.53,1.85 0.47,3.78 2.28,4.44 2,0.73 4.19,-0.4 4.78,-2.45 4.4,-15.4 2.94,-32.44 -5.35,-47.42 z m -25.78,63.28 c 1.4,1.67 3.94,1.75 5.45,0.18 12.06,-12.47 16.46,-30.7 11.32,-47.34 -0.63,-2.04 -2.84,-3.12 -4.83,-2.36 v 0 c -1.81,0.7 -2.75,2.68 -2.18,4.53 4.35,14.09 0.63,29.51 -9.58,40.07 -1.31,1.36 -1.39,3.48 -0.18,4.92 z m 23.83,-6.78 c -1.76,-1.02 -4,-0.42 -5.02,1.34 -4.3,7.46 -10.39,14 -18.1,18.91 -0.79,0.53 -12.34,9.55 -23.5,19.64 l 4.1,6.2 c 10.9,-9.93 22.61,-19.15 23.42,-19.69 8.71,-5.57 15.59,-12.98 20.44,-21.42 1,-1.74 0.39,-3.97 -1.35,-4.98 z"
         id="path7625"
         style="fill:#6eaea1" />
      <g
         id="g7679">
        <path
           class="cls-2"
           d="M 8.3,0.19 H 2.7 V 4.36 C 4.72,2.82 6.6,1.42 8.3,0.19 Z"
           id="path7627"
           style="fill:#3c5346" />
        <path
           class="cls-2"
           d="m 2.7,13.65 v 9.41 C 16.57,11.69 26.07,5.74 26.79,5.3 29.91,3.37 33.11,1.67 36.36,0.19 h -15.2 c -3,1.96 -9.61,6.46 -18.47,13.46 z"
           id="path7629"
           style="fill:#3c5346" />
        <path
           class="cls-2"
           d="M 43.43,9.27 C 42.65,7.3 40.37,6.4 38.45,7.3 35.8,8.55 33.2,9.96 30.65,11.54 29.88,12.02 18.64,19.05 2.7,32.59 v 9.7 c 17.96,-15.84 31,-24 31.82,-24.51 2.31,-1.43 4.67,-2.71 7.06,-3.83 1.75,-0.83 2.57,-2.87 1.86,-4.67 v 0 z"
           id="path7631"
           style="fill:#3c5346" />
        <path
           class="cls-2"
           d="M 4.71,50.32 C 4.05,50.92 3.37,51.54 2.7,52.16 V 62.2 C 5.07,59.93 7.39,57.78 9.63,55.75 11.09,54.43 11.24,52.2 9.99,50.69 8.66,49.09 6.26,48.92 4.71,50.31 Z"
           id="path7633"
           style="fill:#3c5346" />
        <path
           class="cls-2"
           d="M 82.31,15.68 C 67.65,13.04 52.01,15.59 38.38,24.03 37.7,24.45 28.37,30.29 14.77,41.61 13.22,42.9 13,45.2 14.28,46.76 c 1.29,1.57 3.61,1.79 5.17,0.49 13.16,-10.95 22.14,-16.57 22.8,-16.98 12.03,-7.45 25.83,-9.7 38.76,-7.37 2.01,0.36 3.93,-0.97 4.28,-2.98 v 0 c 0.34,-2 -0.99,-3.88 -2.97,-4.24 z"
           id="path7635"
           style="fill:#3c5346" />
        <path
           class="cls-2"
           d="m 46.11,36.5 c -0.82,0.51 -15.17,9.49 -34.42,27.3 -1.49,1.38 -1.58,3.7 -0.2,5.19 v 0 c 1.38,1.48 3.69,1.57 5.18,0.2 18.68,-17.3 32.51,-25.96 33.31,-26.45 15.29,-9.47 34.5,-7.49 47.53,3.58 1.49,1.26 3.71,1.11 5.04,-0.32 v 0 c 1.42,-1.53 1.28,-3.94 -0.31,-5.29 C 86.85,27.65 64.17,25.31 46.11,36.5 Z"
           id="path7637"
           style="fill:#3c5346" />
        <path
           class="cls-2"
           d="M 3.43,77.03 C 3.21,76.8 2.96,76.62 2.7,76.47 v 6.48 c 0.25,-0.26 0.51,-0.54 0.75,-0.8 1.38,-1.43 1.37,-3.7 -0.02,-5.12 z"
           id="path7639"
           style="fill:#3c5346" />
        <path
           class="cls-2"
           d="M 47.43,53.07 C 37.94,60.26 19.3,75.68 2.7,93.71 v 11.06 c 0.59,-0.68 1.16,-1.38 1.75,-2.05 17.14,-19.42 37.53,-36.33 47.4,-43.8 1.56,-1.18 1.92,-3.38 0.81,-4.99 -1.18,-1.73 -3.57,-2.12 -5.23,-0.85 z"
           id="path7641"
           style="fill:#3c5346" />
        <path
           class="cls-2"
           d="m 36.08,81.28 c -7.74,6.89 -16.7,15.62 -26.12,26.29 -2.47,2.8 -4.88,5.65 -7.26,8.54 v 11.74 c 4.11,-5.28 8.36,-10.43 12.76,-15.42 9.23,-10.46 17.97,-18.98 25.49,-25.68 1.48,-1.31 1.65,-3.56 0.39,-5.08 -1.33,-1.6 -3.71,-1.78 -5.26,-0.4 z"
           id="path7643"
           style="fill:#3c5346" />
        <path
           class="cls-2"
           d="m 27.51,115.79 c -1.54,-1.47 -3.99,-1.38 -5.41,0.21 -0.38,0.43 -0.76,0.85 -1.14,1.29 -6.42,7.27 -12.5,14.89 -18.26,22.79 v 13.11 c 8.27,-12.21 16.49,-22.51 23.91,-30.92 0.37,-0.42 0.74,-0.84 1.11,-1.25 1.35,-1.51 1.27,-3.83 -0.2,-5.23 v 0 z"
           id="path7645"
           style="fill:#3c5346" />
        <path
           class="cls-2"
           d="m 20.59,147.21 v 0 c -1.63,-1.27 -3.99,-0.95 -5.21,0.72 -4.19,5.72 -8.45,11.97 -12.68,18.72 v 7.39 c 1.69,0.9 3.82,0.36 4.84,-1.3 4.58,-7.44 9.21,-14.25 13.75,-20.45 1.18,-1.6 0.87,-3.85 -0.7,-5.07 z"
           id="path7647"
           style="fill:#3c5346" />
        <path
           class="cls-2"
           d="m 42.75,198.98 c 0.55,-0.93 1.09,-1.87 1.64,-2.78 V 182.51 C 41,187.61 37.6,193.1 34.27,198.98 h 8.47 z"
           id="path7649"
           style="fill:#3c5346" />
        <path
           class="cls-2"
           d="m 30.45,184.41 c -1.73,-1.03 -3.97,-0.47 -5.01,1.25 -2.56,4.22 -5.1,8.67 -7.6,13.32 h 8.38 c 1.82,-3.27 3.65,-6.47 5.5,-9.51 1.06,-1.74 0.49,-4.02 -1.26,-5.06 z"
           id="path7651"
           style="fill:#3c5346" />
        <path
           class="cls-2"
           d="m 108.37,140.54 c -1.24,-1.72 -3.68,-2.03 -5.32,-0.68 -4.89,4.04 -10.89,9.41 -17.31,16.03 l 4.15,6.27 c 6.63,-6.94 12.85,-12.51 17.85,-16.64 1.49,-1.23 1.77,-3.41 0.64,-4.98 v 0 z"
           id="path7653"
           style="fill:#3c5346" />
        <path
           class="cls-2"
           d="m 99.87,177.26 c 10.63,-13.26 21.52,-23.9 31.5,-32.31 l -3.83,-6.37 c -10.08,8.4 -21.09,19.06 -31.9,32.27 l 4.24,6.41 z"
           id="path7655"
           style="fill:#3c5346" />
        <path
           class="cls-2"
           d="m 135.98,152.61 c -1.69,1.59 -3.42,3.15 -5.23,4.63 -1.54,1.26 -1.78,3.52 -0.56,5.09 1.27,1.63 3.62,1.89 5.22,0.58 1.52,-1.24 3,-2.54 4.44,-3.87 z"
           id="path7657"
           style="fill:#3c5346" />
        <path
           class="cls-2"
           d="m 147.14,171.15 -3.81,-6.33 c -9.81,7.59 -20.79,17.55 -31.61,30.35 l 2.52,3.81 h 3.88 c 9.94,-11.61 19.98,-20.77 29.02,-27.83 z"
           id="path7659"
           style="fill:#3c5346" />
        <path
           class="cls-2"
           d="m 125.22,165.1 v 0 c -1.24,-1.68 -3.63,-1.98 -5.26,-0.67 -4.3,3.48 -10.69,9.06 -17.68,16.48 l 4.16,6.29 c 7.19,-7.77 13.82,-13.56 18.15,-17.06 1.53,-1.24 1.8,-3.46 0.63,-5.04 z"
           id="path7661"
           style="fill:#3c5346" />
        <path
           class="cls-2"
           d="m 139.72,195.79 c 1.48,-1.29 1.68,-3.51 0.46,-5.05 v 0 c -1.3,-1.64 -3.7,-1.86 -5.28,-0.49 -2.65,2.3 -5.85,5.25 -9.27,8.74 h 10.53 c 1.27,-1.17 2.47,-2.25 3.56,-3.19 z"
           id="path7663"
           style="fill:#3c5346" />
        <path
           class="cls-2"
           d="m 151.24,177.95 c -1.89,1.46 -3.82,2.88 -5.8,4.23 -1.63,1.12 -2.1,3.32 -1.05,4.99 v 0 c 1.1,1.76 3.45,2.26 5.17,1.09 1.87,-1.28 3.69,-2.62 5.49,-3.98 z"
           id="path7665"
           style="fill:#3c5346" />
        <path
           class="cls-2"
           d="m 162.6,196.83 -3.81,-6.32 c -2.7,2.09 -5.47,4.1 -8.33,6 -0.06,0.04 -0.12,0.08 -0.17,0.12 -0.5,0.37 -1.54,1.18 -2.97,2.35 h 12.43 c 0.96,-0.7 1.9,-1.43 2.84,-2.15 z"
           id="path7667"
           style="fill:#3c5346" />
        <path
           class="cls-2"
           d="M 100.28,61.12 C 100.02,60.65 99.74,60.17 99.45,59.71 90.85,45.84 73.61,40.52 58.96,46.39 c -2.01,0.81 -2.91,3.16 -1.92,5.09 0.87,1.7 2.89,2.43 4.67,1.72 11.4,-4.56 24.81,-0.42 31.5,10.37 0.22,0.36 0.44,0.73 0.64,1.1 0.93,1.69 1.66,3.44 2.18,5.23 0.5,1.72 2.16,2.83 3.94,2.63 v 0 c 2.26,-0.25 3.76,-2.48 3.12,-4.66 -0.67,-2.3 -1.61,-4.57 -2.81,-6.75 z"
           id="path7669"
           style="fill:#3c5346" />
        <path
           class="cls-2"
           d="m 69.3,73.95 c -0.71,0.44 -14.01,8.77 -32.04,26.25 -1.47,1.42 -1.54,3.75 -0.16,5.26 v 0 c 1.43,1.56 3.88,1.64 5.4,0.16 17.58,-17.01 30.6,-25.16 30.76,-25.27 1.77,-1.09 2.31,-3.41 1.22,-5.18 -1.1,-1.77 -3.42,-2.31 -5.18,-1.22 z"
           id="path7671"
           style="fill:#3c5346" />
        <path
           class="cls-2"
           d="m 59.49,4.57 v 0 c -0.27,-2.04 1.18,-3.91 3.22,-4.13 28.61,-3.07 57.85,10.03 73.99,36.09 0.67,1.08 1.31,2.18 1.92,3.28 4.7,8.5 7.62,17.54 8.87,26.68 0.29,2.11 -1.3,4.01 -3.42,4.14 v 0 c -1.92,0.11 -3.59,-1.27 -3.85,-3.17 -1.14,-8.25 -3.78,-16.41 -8.03,-24.09 -0.55,-1 -1.14,-2 -1.74,-2.97 C 115.85,16.81 89.4,4.95 63.51,7.74 61.54,7.95 59.76,6.54 59.5,4.57 Z"
           id="path7673"
           style="fill:#3c5346" />
        <path
           class="cls-2"
           d="m 145.07,85.64 h 0.02 c 2.01,0.34 3.37,2.26 3,4.26 -3.41,18.45 -13.47,35.59 -29.18,47.5 -1.65,1.25 -4.01,0.88 -5.2,-0.82 l -0.02,-0.02 c -1.13,-1.61 -0.78,-3.83 0.79,-5.02 14.21,-10.78 23.3,-26.27 26.39,-42.95 0.37,-1.97 2.23,-3.29 4.2,-2.96 z"
           id="path7675"
           style="fill:#3c5346" />
        <path
           class="cls-2"
           d="m 8.33,199 c 15.96,-29.29 34.19,-51.01 48.92,-65.72 l 0.02,-0.02 c 1.35,-1.35 1.38,-3.53 0.05,-4.9 l -0.25,-0.26 c -1.35,-1.4 -3.59,-1.43 -4.97,-0.05 l -0.04,0.04 c -15.7,15.68 -35.27,39.1 -52.07,70.92 h 8.34 z"
           id="path7677"
           style="fill:#3c5346" />
      </g>
    </g>
  </g>
</svg>
