<?xml version="1.0" encoding="UTF-8" standalone="no"?>
<svg
   id="Layer_1"
   version="1.1"
   viewBox="0 0 496.21158 510.17133"
   width="496.21158"
   height="510.17133"
   xmlns="http://www.w3.org/2000/svg"
   xmlns:svg="http://www.w3.org/2000/svg">
  <!-- Generator: Adobe Illustrator 30.2.1, SVG Export Plug-In . SVG Version: 2.1.1 Build 1)  -->
  <defs
     id="defs1">
    <style
       id="style1">
      .st0 {
        fill: #e69a50;
      }

      .st1 {
        fill: #d85c45;
      }

      .st2 {
        fill: #e8cc86;
      }

      .st3 {
        fill: #f9de55;
      }

      .st4 {
        fill: #e28c4f;
      }

      .st5 {
        fill: #df7c4a;
      }

      .st6 {
        fill: #fefefd;
      }

      .st7 {
        fill: #f0bc49;
      }

      .st8 {
        fill: #f9ac0f;
      }

      .st9 {
        fill: #f5cd49;
      }

      .st10 {
        fill: #ecb04b;
      }

      .st11 {
        fill: #dd7649;
      }

      .st12 {
        fill: #d55144;
      }

      .st13 {
        fill: #f3c846;
      }

      .st14 {
        fill: #f6d451;
      }

      .st15 {
        fill: #e9a44d;
      }
    </style>
  </defs>
  <path
     class="st5"
     d="m 291.96896,393.73008 c 0.96,1.02 2.37,1.99 3.14,3.22 -0.08,3.38 2.8,6.21 6.04,6.55 1.44,0.15 2.45,2.26 4.02,2.22 2.66,4.77 12,14.31 13.98,19.19 -0.43,0.56 -0.77,1.18 -1.04,1.82 -3.9,-0.32 -1.86,-4.35 -5.59,-5.12 -0.05,-0.01 -11.95,4.53 -16.45,1.22 -3.04,-2.24 -4.03,-3.02 -8.22,-3.34 l -13.41,-1.04 -24.47,-0.37 -5.59,-3.6 c -9.99,-0.09 -19.73,-0.78 -29.77,0.06 -4.97,0.41 -9.87,-2.24 -13.42,-5.91 -2.25,-2.32 -5.02,-2.66 -7.76,-4.41 -3.99,-2.56 -8.73,-7.93 -14.13,-7.17 -3.62,0.51 -6.46,4.1 -10.8,3.41 -3.1,-0.49 -4.65,2.63 -4.81,6.08 -17.84,2.93 -12.49,-2.78 -22.28,3.83 -2.68,1.81 -5.28,3.94 -8.24,5.45 l -6.53,3.34 c -15.03,7.68 -18.59,2.91 -20.95,5.01 -2.78,2.47 -4.71,3.47 -8.329999,4.36 -3.07,0.76 -5.72,3.02 -9.25,3.5 -2.35,0.31 -2.45,4.68 -4.1,5.99 -5.95,4.72 -11.96,5.67 -12.87,7.6 -4.94,-3.48 -11.43,-8.74 -14.8,-14.01 l -3.23,-5.05 c -2.21,-3.45 -5.53,-5.9 -7.06,-9.47 -0.62,-1.44 -1.03,-2.98 -1.14,-4.53 1.97,-1.12 2.82,-3.18 4.83,-5.28 7.11,1.27 11.46,-4.06 16.82,-6.71 5.36,-2.65 10.16,-3.37 13.47,-8.84 4.21,-6.97 18.55,1.83 24.349999,-7.53 0.79,-1.27 0.58,-5.99 2.67,-5.64 3.26,0.53 24.67,3.11 23.78,-0.8 2.19,-0.3 4.17,-2.37 6.42,-2.41 2.88,-0.05 4.89,-1.94 5.92,-4.75 l 0.97,-2.68 c 2.41,-0.6 4.09,1.58 6.37,2.38 6.26,2.2 12.56,3.51 18.54,6.55 5.95,10.38 14.95,3.67 32.09,9.04 5.35,1.68 11.01,-0.73 16.27,-1.54 16.61,-2.55 13.82,4.15 24.75,2.53 8.31,-1.23 16.57,-0.44 24.78,-0.33 3.63,0.05 4.91,1.36 7.69,2.43 4.87,1.86 10.26,1.58 14.06,6.43 0.35,0.45 2.15,0.27 2.71,0.19 0.56,-0.08 0.6,-1.22 0.58,-1.86 z"
     id="path2" />
  <path
     class="st11"
     d="m 318.10896,426.74008 5.55,10.1 c 1.6,2.91 0.88,7.03 4.21,8.03 0.09,0.52 -0.06,1.36 0.14,1.85 -1.66,1.74 -0.21,3.97 -2.05,6.81 -4.48,-3.45 -9.32,-1.59 -13.6,-2.42 -2.73,-0.53 -4.94,-2.53 -8.33,-2.63 -6.65,-0.19 -13.37,1 -20.06,0.08 -9.66,-1.33 -19.07,-2.6 -28.93,-1.39 -4.75,0.58 -8.67,-0.89 -13.09,-1.45 -4.42,-0.56 -8.98,-0.42 -13.29,-1.31 -4.96,-1.03 -6.58,-2.14 -8.85,-6.98 -2.06,-4.4 -6.35,-8.74 -9.55,-12.95 -3.83,-5.03 -11.87,7.58 -27.27,8.64 -7.21,0.5 -12.83,5.81 -19.25,8.35 -4.94,1.96 -9.41,3.67 -14.16,6.01 -14.47,7.13 -30.39,9.26 -42.64,19.53 -1.46,1.22 -4.85,-0.21 -5.89,1.58 l -2.119999,0.18 c -1.45,-0.82 -2.6,-1.96 -3.99,-2.83 0.08,-1 -1.26,-1.01 -1.96,-1.23 -0.84,-0.53 -1.65,-1.09 -2.13,-2.07 -1.15,-2.36 -3.38,-4.28 -5.96,-4.81 -0.28,-0.06 -0.57,-0.13 -0.84,-0.24 0.4,-5.06 -5.19,-3.21 -8.18,-9.67 -1.18,-1.01 -2.47,-1.09 -3.65,-1.03 -0.19,-0.38 -0.81,-0.98 -1.12,-1.27 0.91,-1.94 6.92,-2.88 12.87,-7.6 1.65,-1.31 1.75,-5.68 4.1,-5.99 3.53,-0.47 6.18,-2.74 9.25,-3.5 3.619999,-0.89 5.549999,-1.9 8.329999,-4.36 2.36,-2.1 5.92,2.67 20.95,-5.01 l 6.53,-3.34 c 2.96,-1.51 5.56,-3.64 8.24,-5.45 9.8,-6.61 4.44,-0.9 22.28,-3.83 0.16,-3.45 1.7,-6.57 4.81,-6.08 4.34,0.69 7.18,-2.9 10.8,-3.41 5.4,-0.75 10.14,4.61 14.13,7.17 2.74,1.75 5.51,2.09 7.76,4.41 3.55,3.68 8.45,6.32 13.42,5.91 10.04,-0.83 19.78,-0.14 29.77,-0.06 l 5.59,3.6 24.47,0.37 13.41,1.04 c 4.19,0.32 5.18,1.1 8.22,3.34 4.5,3.31 16.4,-1.23 16.45,-1.22 3.73,0.77 1.7,4.79 5.59,5.12 z"
     id="path4" />
  <path
     class="st1"
     d="m 328.01896,446.72008 c 1.96,4.6 0.66,9.88 0.82,14.83 -0.62,-0.68 -1.42,0.07 -1.74,0.82 -0.21,0.47 0.3,1.23 0.86,1.56 l -0.08,1.7 c -1.04,0.08 -0.61,1.59 -0.83,2.29 -0.31,1.99 -2.13,3.74 -2.19,5.85 -0.46,0.15 -0.79,0.53 -0.85,1.02 -2.43,2.77 -3.03,6.92 -6.13,8.96 0.31,-1.56 0.35,-3.23 -0.69,-4.56 -2.32,-2.96 -34.13,-3.62 -40.14,-3.46 -7.94,0.2 -15.54,-0.37 -22.94,-3.51 -6.05,0.35 -12.05,-0.54 -17.97,0.38 -14.97,2.35 -10.97,-12.95 -17.14,-15.7 -3.51,-1.56 -6.44,1.6 -9.08,2.53 l -10.39,3.65 c -7.81,2.75 -16.5,3.17 -21.69,10.66 -4.63,0.19 -8.6,2.04 -12.01,5.17 -5.72,-0.49 -9.66,2.46 -13.88,5.59 -2.95,2.19 -7.27,2.25 -8.72,6.76 -2.56,-1.3 -2.62,-3.26 -5.41,-3.69 -0.86,1.26 0.22,2.34 0.24,3.36 -0.98,-0.44 -2.01,-0.48 -2.95,-1.13 l -0.12,-2.88 c -1.01,-0.42 -1.56,-0.24 -1.94,0.34 -0.26,0.39 -0.5,0.87 -0.25,1.41 -11.14,-5.14 -22.32,-10.9 -31.76,-18.71 l 0.04,-1.36 c 1.04,-1.79 4.43,-0.35 5.89,-1.58 12.26,-10.28 28.18,-12.4 42.64,-19.53 4.75,-2.34 9.22,-4.05 14.16,-6.01 6.42,-2.54 12.04,-7.85 19.25,-8.35 15.4,-1.06 23.44,-13.67 27.27,-8.64 3.2,4.21 7.49,8.55 9.55,12.95 2.27,4.84 3.89,5.95 8.85,6.98 4.31,0.89 8.79,0.73 13.29,1.31 4.5,0.58 8.34,2.03 13.09,1.45 9.86,-1.21 19.27,0.06 28.93,1.39 6.69,0.92 13.4,-0.27 20.06,-0.08 3.39,0.1 5.6,2.09 8.33,2.63 4.27,0.84 9.12,-1.02 13.6,2.42 1.84,-2.84 0.39,-5.07 2.05,-6.81 z"
     id="path7" />
  <path
     class="st12"
     d="m 317.85896,483.73008 -0.68,0.13 c -6.58,1.22 -2.88,5.85 -13.11,10.88 -1.14,0.56 -1.3,0.51 -0.33,1.16 0.47,0.31 0.8,0.58 1.29,0.27 -0.66,1.83 -2.45,2.09 -4.72,2.81 -53.28,17.11 -111.49,14.74 -162.27,-8.07 -0.02,-1.01 -1.1,-2.1 -0.24,-3.36 2.79,0.43 2.85,2.39 5.41,3.69 1.45,-4.51 5.77,-4.58 8.72,-6.76 4.22,-3.13 8.16,-6.08 13.88,-5.59 3.41,-3.13 7.38,-4.98 12.01,-5.17 5.18,-7.49 13.87,-7.92 21.69,-10.66 l 10.39,-3.65 c 2.64,-0.93 5.57,-4.09 9.08,-2.53 6.17,2.75 2.17,18.04 17.14,15.7 5.92,-0.93 11.92,-0.03 17.97,-0.38 7.41,3.14 15,3.71 22.94,3.51 6.01,-0.15 37.82,0.5 40.14,3.46 1.04,1.33 1,3 0.69,4.56 z"
     id="path9" />
  <path
     class="st0"
     d="m 178.31896,290.94008 c 8.32,-3.26 -0.01,1.13 17.74,1.98 5.57,0.27 11.22,1.92 16.72,0.2 3.01,-0.94 5.7,-2.55 9.11,-2.37 1.78,-2.11 4.04,-2.99 6.81,-2.26 4.18,-3.17 16.54,-2.83 16.34,-7.68 8.42,4.94 16.11,11.68 24.98,15.86 0.43,4.28 4.29,2.16 5.81,5.75 -1.72,-0.23 -3.03,1 -3.2,3.07 -0.3,3.52 -3.13,4.9 -6.71,4.21 -2.82,-0.54 -6.4,-3.58 -9.44,-2.22 -9.62,4.3 -12.62,9.08 -22.85,5.53 -12.79,6.52 -9.05,-0.06 -19.06,5.34 -0.56,2.78 -0.71,5.48 -0.94,8.66 3.72,2.19 5.86,5.56 8.71,8.33 l 11.79,11.48 c 3.25,3.17 8.35,4.23 10.81,8 -11.93,-6.01 -16.31,-1.41 -20.7,-7.37 -1.41,-1.91 -6.22,0.68 -7.73,-0.68 -2.47,-2.23 -4.11,-2.91 -7.29,-3.46 l -11.07,-1.93 c -3.52,-0.61 -6.45,-0.98 -10.17,-0.82 l -9.34,0.4 -11.76,-0.3 c -4.8,-0.12 -10.63,-2.68 -15.32,-0.22 -4.69,2.46 -9.31,6.3 -15.34,5 -0.81,-1.8 0.45,-4.74 -0.61,-6.48 -1.72,-2.82 -5.12,0.04 -7.35,0.84 l -2.58,-3.35 c -0.67,-0.87 -2.3,-1.25 -3.93,0.23 2.71,0.69 2.17,3.37 2.97,4.34 -0.15,-0.26 -1.06,-0.11 -1.44,-0.57 -13.76,-16.67 -29.469999,-42.08 -33.989999,-62.81 2.25,0.38 3.22,2.74 3.66,5.19 1.41,7.89 5.98,14.25 9.649999,21.22 0.97,1.84 1.11,3.9 2.82,4.83 4.31,2.33 10.2,-4.96 20.11,0.38 2.46,1.33 5.86,0.4 8.41,1.56 4.98,2.25 10.17,2.26 15.27,0.25 2.03,-0.8 4.69,2.16 6.68,1.57 5.19,-1.54 9.59,-0.67 12.57,3.67 1.86,1.54 6.1,-0.54 8.5,-0.63 4.19,-0.16 9.17,0.96 12.7,-1.79 -5.18,-9.21 2.44,-3.76 -6.89,-15.68 -2.17,-2.78 -3.5,-4.52 -4.45,-7.29 z"
     id="path10" />
  <path
     class="st4"
     d="m 244.95896,354.84008 c 2.99,1.5 6.29,4.71 8.99,6.97 l 21.23,17.77 c 2.52,2.11 4.54,4.73 7.64,4.98 2.51,3.51 6.2,6.04 9.16,9.17 0.02,0.64 -0.02,1.78 -0.58,1.86 -0.56,0.08 -2.37,0.26 -2.71,-0.19 -3.8,-4.86 -9.19,-4.57 -14.06,-6.43 -2.79,-1.07 -4.07,-2.38 -7.69,-2.43 -8.21,-0.11 -16.47,-0.9 -24.78,0.33 -10.93,1.62 -8.14,-5.08 -24.75,-2.53 -5.26,0.81 -10.92,3.22 -16.27,1.54 -17.14,-5.37 -26.14,1.34 -32.09,-9.04 -5.98,-3.04 -12.29,-4.35 -18.54,-6.55 -2.28,-0.8 -3.96,-2.98 -6.37,-2.38 1.75,-4.82 -1.15,-8.01 -4.95,-11.21 -5.57,-4.67 -10.08,-10.37 -14.44,-15.66 -0.8,-0.97 -0.26,-3.64 -2.97,-4.34 1.63,-1.48 3.26,-1.1 3.93,-0.23 l 2.58,3.35 c 2.23,-0.8 5.64,-3.65 7.35,-0.84 1.06,1.74 -0.2,4.67 0.61,6.48 6.03,1.3 10.56,-2.49 15.34,-5 4.78,-2.51 10.51,0.1 15.32,0.22 l 11.76,0.3 9.34,-0.4 c 3.72,-0.16 6.65,0.21 10.17,0.82 l 11.07,1.93 c 3.18,0.55 4.82,1.23 7.29,3.46 1.51,1.36 6.32,-1.23 7.73,0.68 4.39,5.97 8.77,1.37 20.7,7.37 z"
     id="path11" />
  <path
     class="st13"
     d="m 402.02896,403.65008 c 1.7,1.24 1.65,3.26 2.19,5.03 -1.38,-0.14 -1.46,1.41 -1.15,2.58 0.21,0.79 1.45,0.52 2.12,0.5 0.8,1.7 1.41,4.85 0.99,6.89 -0.29,0.3 -0.81,0.56 -0.99,0.89 -0.3,0.56 -0.08,1.07 0.36,1.26 0.59,0.24 1.06,0.35 1.48,0.05 -0.01,1.15 0.58,2.96 -0.01,4.02 -4.82,8.75 -13.26,14.96 -20.23,22.62 -4,4.4 -8.25,7.5 -12.8,11.2 l -10.98,8.92 c -7.44,6.04 -44.34,27.56 -53.07,27.07 -0.54,-4.41 5.53,-4.23 7.23,-10.82 l 0.68,-0.13 c 3.1,-2.04 3.7,-6.18 6.13,-8.96 0.37,0.27 0.88,0.31 1.01,0.6 0.21,0.45 0.99,0.45 0.94,-0.09 -0.05,-0.57 -1.12,-1.02 -1.1,-1.52 0.06,-2.1 1.89,-3.85 2.19,-5.85 0.42,-0.23 1.62,-0.06 1.85,-0.82 0.2,-0.64 -0.45,-1.27 -1.02,-1.48 l 0.08,-1.7 c 1.01,-0.06 0.91,-1.62 0.88,-2.37 -0.16,-4.95 1.15,-10.23 -0.82,-14.83 -0.21,-0.49 -0.06,-1.33 -0.14,-1.85 l -1.01,-6.02 c -0.95,-5.66 -5.84,-18.14 0.48,-19.19 6.42,-1.06 13.12,-0.51 18.76,-5.05 19.12,1.84 8.68,-4.49 20.23,-5.93 4.13,-0.51 8.3,-1.67 11.58,-4.4 8.51,0.67 16.44,1.07 24.11,-0.63 z"
     id="path13" />
  <path
     class="st2"
     d="m 270.02896,194.86008 c 6.92,-2.52 14.74,-1.72 22.01,-0.93 l 7.88,0.86 c 1.07,10.1 -4.86,6.87 -3.99,12.85 -2.84,1.39 -3.7,4.92 -5.69,7.48 -2.74,3.53 -6.86,5.96 -8.85,11.04 24.01,4.09 38.82,7.43 61.56,14.58 5.17,1.63 9.71,4.36 14.51,6.29 5.91,2.38 9.69,5.68 14.4,9.99 7.72,7.05 12.53,16.76 8.53,28.08 11.35,0.77 36.39,-11.84 40.74,-22.2 -4.26,-0.88 -8.37,0.35 -12,-1.36 -9.49,-4.49 -6.04,-15.72 -7.44,-17.84 -1.63,-2.48 -20.16,1.69 -34.17,-12.39 -5.92,-5.95 -7.08,-8.82 -6.29,-15.6 2.03,-1.59 1.79,-4.95 3.87,-7.08 4.24,-4.33 9.86,-8.91 15.98,-10.35 14.97,-3.52 25.6,-2.15 35.93,10.44 7.66,9.33 4.59,20.81 9.69,22.85 2.74,1.1 7.46,-3.52 16.19,-5.68 1.64,-0.41 3.65,-1.2 5.3,-1.13 l 8.54,0.35 c -0.53,1.41 1.42,1.47 2.32,1.74 0.54,0.34 1.21,1.07 1.91,1.19 6.31,10.37 4.35,15.26 1.18,25.35 4.1,-0.02 5.66,-2.99 7.97,-4.31 5.14,-2.95 8.71,-6.24 12.5,-10.7 1.99,-2.35 2.43,-4.56 3.55,-6.63 l 5.82,-10.76 c 0.69,-1.28 1.6,-2.4 1.9,-3.93 0.3,-1.53 -0.22,-2.95 -2.05,-3.27 -17.4,-3.01 -33.97,-11.67 -48.92,-22.3 -3.96,-2.82 -7.44,-6.71 -11.86,-8.73 1.56,-0.76 -7.43,-7.73 -7.87,-7.1 -0.03,-1.02 -0.13,-2.04 -0.29,-3.05 -0.79,-5.01 -0.29,-10.17 1.84,-15.12 0.82,-1.91 -1.09,-2.17 -1.7,-2.79 -7.61,-7.67 -33.92,-22.07 -36.13,-24.78 -1.97,-2.43 -5.49,-3.22 -7.59,-5.07 -1.51,-1.33 -2.5,-3.81 -5.32,-4.13 -3.79,-0.43 -5.47,-3.79 -8.25,-5.6 -4.17,-2.71 -12,-9.23 -14.79,-13.41 -4.69,-7.04 -10.9,-13.35 -14.27,-21.31 -1.25,-2.95 -3.2,-4.86 -4.64,-7.53 -9.27,-17.23 -15.38,-35.31 -20.51,-54.7 -4.84,3.15 -1.64,7.8 -1.74,11.67 -0.21,7.68 0.2,14.77 1.55,22.2 l 3.08,16.93 c 1.62,8.89 3.21,17.34 6.47,25.83 0.41,1.07 0.05,3.16 -0.54,3.7 -3.25,2.96 -33.13,-22.34 -36,-25.47 l -18.88,-20.6 -11.26,-15.88 c -2.29,-3.22 -4.27,-6.09 -6.39,-10.21 -2.88,4.01 1.28,6.72 2.2,10.08 1.12,4.07 1.76,7.57 3.75,11.33 l 4.81,9.12 c 2.48,4.7 3.59,9.71 6.29,14.08 4.72,7.64 8.5,15.54 13.97,22.86 0.52,0.69 0.03,2.66 -0.24,3.23 -0.71,1.47 -19.17,-1.2 -23.3,-1.67 -11.98,-1.38 -23.33,-1.18 -35.3,0.22 l -11.6,1.36 c -9.59,1.12 -30.28,6.08 -38.59,10.46 -2.52,1.33 -6.16,1.13 -6.77,4.38 -8.88,1.39 -23.62,11.63 -30.07,18.17 -3.31,3.35 -8.09,5.91 -11.07,9.94 -0.9,0.1 -1.8,0.13 -2.71,0.08 0.39,-1.63 1.37,-3.65 3.12,-4.91 6.36,-4.56 11.36,-10.76 18.02,-14.71 6.47,-3.84 12.09,-8.11 18.73,-11.27 21.32,-10.16 43.64,-15.49 67.09,-16.8 20.54,-1.15 20.32,0.76 35.88,0.77 4.64,0 8.69,2.53 14.06,0.77 -10.21,-12.72 -24.54,-42.17 -29.08,-56.18 l -5.89,-18.17 c -0.91,-2.81 -1.17,-4.99 1.4,-6.54 19.67,34.61 41.16,61.23 75.59,83.12 -3.61,-13.23 -10.49,-43.83 -10.62,-55.33 l -0.42,-37.9300001 c -0.01,-1.35 0.53,-2.79000002 1.38,-2.800000020725 0.74,-0.0099999993 2.2,0.920000000725 2.42,2.180000020725 6.2,34.6200001 18.84,67.8500001 40.75,96.0100001 3.32,4.27 6.33,8.02 10.91,11.16 l 19.11,13.07 11.14,7.79 c 11.79,8.24 23.56,15.99 35.12,24.72 -0.72,5.8 -3.39,12.17 -1.78,17.73 16.68,17.82 37.89,30.12 61,37.74 2.91,0.96 7.65,1.29 8.99,3.98 1.26,6.13 -9.4,24.08 -14.57,28.96 -6.08,5.73 -17.1,15.94 -26.66,15.32 6.75,-6.92 12.07,-21.39 3.99,-28.4 -6.75,-5.85 -20.51,-0.69 -27.65,3.74 -2.81,1.74 -5.2,3.36 -9.08,2.21 0,-15.43 -8.58,-34.79 -26.05,-36.56 -12.45,-1.27 -24.56,4.1 -30.85,14.36 -2.61,4.26 -1.99,8.79 0.93,12.6 11.03,14.39 36.62,12.64 39.16,15.37 1.36,1.47 -2.4,13.14 4.35,16.9 4.94,2.75 10.95,0.42 16.88,-1.24 0.98,4.26 -2.79,7.34 -5.51,10.35 -10.5,11.66 -25.21,18.85 -41,19.79 -1.19,0.07 -2.16,-0.62 -2.48,-1.09 -2.31,-3.45 4.48,-5.14 -0.18,-16.99 -4.86,-12.36 -12.68,-16.04 -23.94,-21.57 -5.45,-2.68 -10.44,-4.99 -16.35,-6.78 -19.51,-5.92 -39.24,-9.43 -59.52,-12.44 -1.78,-0.26 0.25,-5.04 1.63,-5.77 2.17,-1.14 3.2,-3.83 4.75,-5.44 6.11,-6.33 10.73,-13.33 13.33,-21.98 -6.7,-0.34 -12.76,-0.83 -19.29,-0.72 -2.88,0.05 -5.88,1.37 -8.04,-0.09 z"
     id="path14" />
  <path
     class="st4"
     d="m 217.03896,226.64008 c 2.02,7.02 -1.56,-0.6 0.28,12.65 2.76,19.88 15.46,28.09 18.06,33.43 1.63,3.33 3.76,7.61 7.96,7.81 0.49,0.02 1.28,0.04 1.71,0.28 0.2,4.84 -12.16,4.51 -16.34,7.68 -2.77,-0.74 -5.02,0.14 -6.81,2.26 -3.42,-0.19 -6.1,1.42 -9.11,2.37 -5.5,1.72 -11.16,0.07 -16.72,-0.2 -17.76,-0.85 -9.42,-5.24 -17.74,-1.98 -1.25,-3.67 -5.67,-6.58 -6.37,-10.79 -0.6,-3.62 -3.3,-6.46 -3.93,-9.33 -2.42,-10.89 -3.09,-22.1 0.01,-32.81 2.51,-1.36 4.99,-1.06 7.99,-0.35 3.31,0.79 6.1,-2.32 9.06,-2.63 5.11,-0.54 9.95,-0.22 14.49,-2.81 4.54,-2.59 10.09,-0.55 14.9,-1.53 0.94,-1.01 0.7,-4.63 2.57,-4.04 z"
     id="path15" />
  <path
     class="st15"
     d="m 178.31896,290.94008 c 0.95,2.77 2.27,4.52 4.45,7.29 9.33,11.91 1.72,6.47 6.89,15.68 -3.54,2.75 -8.52,1.63 -12.7,1.79 -2.4,0.09 -6.64,2.17 -8.5,0.63 -2.98,-4.34 -7.38,-5.21 -12.57,-3.67 -1.99,0.59 -4.64,-2.37 -6.68,-1.57 -5.1,2.02 -10.29,2 -15.27,-0.25 -2.56,-1.16 -5.95,-0.23 -8.41,-1.56 -9.91,-5.35 -15.8,1.94 -20.11,-0.38 -1.72,-0.93 -1.86,-2.99 -2.82,-4.83 -3.659999,-6.97 -8.229999,-13.33 -9.649999,-21.22 -0.44,-2.45 -1.42,-4.82 -3.66,-5.19 -0.12,-0.55 -0.36,-1.16 -0.34,-1.72 l 0.08,-3.18 c 4.11,-3.89 0.89,3.56 12.949999,-0.66 3.02,4.11 7.09,2.36 11.04,2.72 10.16,0.92 19.81,2.33 30.13,1.59 7.28,-0.52 14.33,-1.45 21.54,0.48 1.79,-2.42 1.72,-4.62 3.33,-6.08 0.64,2.87 3.34,5.71 3.93,9.33 0.7,4.21 5.11,7.13 6.37,10.79 z"
     id="path17" />
  <path
     class="st10"
     d="m 358.97896,353.71008 c -0.07,0.38 -0.04,0.88 0.18,1.4 0.14,0.32 0.72,0.29 1.1,0.39 l 4.77,1.24 c -2.21,1.66 3.11,5.83 3.46,5.89 0.49,0.1 1.08,-0.37 1.54,-0.82 1.19,0.78 2.44,1.49 3.86,1.69 l 1.18,1.2 c -0.02,0.66 0.05,1.47 0.6,1.87 0.42,0.3 0.93,0.21 1.36,0.25 0.38,0.04 0.85,-0.08 1.21,0.05 1.2,1.93 2.91,3.54 3.75,5.66 -2.62,1.04 -4.86,-2.15 -7.18,-2.25 -17.07,-0.7 -15.29,4.31 -28.93,1.77 l -6.19,7.5 c -8.03,1.3 -16.22,1.81 -23.94,3.85 -5.12,1.36 -7.37,4.44 -9.44,8.93 -0.75,1.63 -5.86,0.98 -6.05,3.72 -0.34,4.93 7.7,7.54 4.91,9.67 -1.57,0.04 -2.58,-2.07 -4.02,-2.22 -0.72,-3.07 -3.83,-4.63 -6.04,-6.55 -0.77,-1.23 -2.18,-2.2 -3.14,-3.22 -2.96,-3.13 -6.65,-5.66 -9.16,-9.17 -1.12,-1.56 -1.56,-3.54 -3.65,-5.14 -2.59,-1.99 -5.91,-5.77 -4.81,-9.26 0.64,-2.03 3.8,-3.43 4.88,-5.03 2.97,-4.4 10.02,0.81 21.43,-5.84 16.82,-9.8 22.06,-0.38 27.62,-10.18 2.34,-4.13 12.09,4.21 18.85,-3.17 1.71,-1.99 11.89,7.83 11.86,7.77 z"
     id="path18" />
  <path
     class="st4"
     d="m 88.968961,371.52008 c 0.35,0.05 0.71,0.03 1.05,0.12 0.81,2.61 3.92,2.64 6.27,2.81 4.119999,0.31 8.269999,1.46 12.669999,2.48 7.34,1.7 14.7,0.55 21.85,0.83 0.89,3.91 -20.52,1.33 -23.78,0.8 -2.1,-0.34 -1.89,4.38 -2.67,5.64 -5.809999,9.35 -20.149999,0.56 -24.349999,7.53 -3.3,5.47 -8.3,6.29 -13.47,8.84 -5.17,2.55 -9.71,7.98 -16.82,6.71 -2.01,2.1 -2.86,4.16 -4.83,5.28 -0.98,-0.4 -2.03,-0.5 -3.06,-0.71 -0.68,-0.14 -1.25,-0.63 -1.68,-1.14 -0.19,-0.46 -0.52,-0.87 -1,-1.04 -0.11,-1.39 -0.8,-2.54 -1.36,-3.77 -1.28,-2.8 -2.25,-6.82 -5.57,-7.4 -0.3,-0.44 -0.12,-1.22 -0.35,-1.71 1.53,0.23 1.27,-1.32 -0.15,-1 -2.22,-1.32 -2.93,-4.32 -3.56,-6.72 0.76,0.02 1.68,-0.06 2.91,-0.78 -0.82,-0.91 -1.99,-0.55 -2.99,-0.69 -1.48,-0.2 -0.56,-2.12 -1.05,-2.74 l 0.51,-5.27 c 5.44,4.77 13.28,-6.68 14.92,-10.8 2.77,0.7 6.61,3.4 9.89,0 1.29,-1.34 4.69,-0.61 5.84,-2.82 1.15,-2.21 3.05,-2.56 5.22,-2.37 1.66,0.14 2.2,1.83 3.61,3.05 0.9,0.78 2.23,-0.58 2.22,-1.38 -0.01,-1.86 -3.66,-2.06 -3.03,-3.95 0.12,-0.35 0.14,-1.05 1.18,-1.74 1.29,3.16 5.33,2.72 7.45,4.37 4.46,3.49 8.78,6.74 14.13,7.55 z"
     id="path19" />
  <path
     class="st5"
     d="m 280.98896,189.69008 c -4.29,-0.81 20.05,4.32 11.05,4.24 -7.27,-0.79 -15.08,-1.58 -22.01,0.93 -1.79,0.65 -3.98,0.04 -5.82,0.07 -0.61,0.01 -1.7,-0.29 -2.43,-0.06 -0.53,0.17 -1.56,0.67 -0.99,1.6 -1.2,-0.03 -2.41,0.14 -3.61,0.19 -0.63,-0.72 -1.76,-1.19 -2.53,-0.86 -0.83,0.36 -1.43,1.25 -0.84,1.94 -0.86,0.06 -1.74,0.15 -2.61,0.15 -0.66,0 -1.39,-0.16 -2.16,0.4 -0.34,0.24 -0.78,0.62 -0.27,1.16 -0.57,-0.04 -1.16,0.09 -1.73,0.09 -1.74,-1.42 -4.11,0.34 -4.94,2.11 -0.31,-0.03 -0.7,-0.02 -1,0.08 -0.47,0.14 -1.53,0.33 -1.14,1.02 -0.6,0.18 -1.33,0.84 -1.91,0.91 -2.74,-0.23 -4.55,2.12 -7.03,3.08 -0.43,0.17 -0.62,0.77 -1,1 -0.72,0.44 -1.21,1.12 -1.22,1.98 -2.93,1.18 -3.78,4.62 -6.58,6.03 -2.05,1.03 -2.99,2.75 -3.1,5.18 l -0.03,0.76 c -0.8,-0.56 -1.81,-0.04 -1.99,0.7 -0.22,0.93 0.08,1.81 0.27,2.65 l -0.34,1.59 c -1.87,-0.58 -1.63,3.03 -2.57,4.04 -4.82,0.99 -10.45,-1 -14.9,1.53 -4.45,2.53 -9.38,2.27 -14.49,2.81 -2.96,0.31 -5.75,3.42 -9.06,2.63 -2.99,-0.71 -5.48,-1.01 -7.99,0.35 0.52,-1.79 1.21,-3.51 1.89,-5.25 0.84,0.17 1.77,0.14 2.02,-0.62 0.32,-0.97 -0.17,-1.84 -0.09,-2.6 0.21,-1.99 1.28,-3.79 1.33,-5.82 l 3.18,-4.15 c 3.63,0.41 5.29,-3.53 6.24,-6.65 0.32,-1.26 1.62,-2.14 2.41,-3.02 2.41,-0.53 4.85,-1.73 5.12,-4.45 l 0.12,-1.23 c 1.27,-0.14 2.52,-0.6 3.81,-0.65 2.03,-0.08 3.37,-1.65 3.78,-3.57 5.49,-2.23 10.72,-5.32 16.69,-7.26 21.23,-6.89 45.47,-7 66.47,-3.05 z"
     id="path20" />
  <path
     class="st0"
     d="m 88.968961,371.52008 c -5.36,-0.8 -9.67,-4.06 -14.13,-7.55 -2.11,-1.65 -6.15,-1.21 -7.45,-4.37 -1.03,0.68 -1.06,1.39 -1.18,1.74 -0.63,1.89 3.02,2.09 3.03,3.95 0,0.8 -1.32,2.16 -2.22,1.38 -1.41,-1.22 -1.94,-2.91 -3.61,-3.05 -2.16,-0.19 -4.07,0.17 -5.22,2.37 -1.15,2.2 -4.55,1.48 -5.84,2.82 -3.28,3.41 -7.12,0.7 -9.89,0 -1.65,4.12 -9.48,15.57 -14.92,10.8 l -0.51,5.27 c -1.4,-1.26 -1.95,-3.82 -3.82,-4.14 -0.04,-0.59 -0.32,-1.19 -0.31,-1.78 0.01,-1.82 -0.63,-4.64 -2.84,-4.42 -0.29,-1.53 -1.14,-2.98 -1.17,-4.57 -0.02,-1.39 -3.9,-14.19 -5.71,-12.38 -0.09,-0.54 -0.28,-1.44 -0.14,-1.96 0.64,-2.34 -0.04,-6.76 -2.93,-6.9 -0.1400003,-0.51 -0.1300003,-1.61 -0.02,-2.13 0.62,-2.49 -0.2400003,-6.68 -2.0900003,-8.86 0.18,-0.46 -0.13,-1.27 -0.15,-1.77 -0.04,-0.95 0.29,-2.09 0.04,-3.03 2.8800003,-0.95 5.0000003,9.5 4.1300003,11.81 3.7,0.08 1.91,-4.55 3.76,-5.43 l 6.68,-3.16 c 1.28,-0.61 3.95,0.13 4.79,-1.11 3.69,-5.48 7.34,2.79 11.86,-10.82 1.52,-4.57 -2.24,-8.12 -3.34,-11.79 l -2.67,-8.96 c -1.79,-5.99 -1.75,-12.62 -5.08,-17.76 l 0.07,-3.87 c 1.21,0.24 1.26,-1.51 0,-1.18 0.01,-0.26 -0.14,-0.59 -0.04,-0.83 0.14,-0.35 0,-1.02 0.26,-1.29 0.84,-0.67 1.59,1.01 1.77,2.07 6.24,36.06 22.28,71.85 56.67,88.58 1.24,0.6 2.06,1.29 2.22,2.33 z"
     id="path21" />
  <path
     class="st4"
     d="m 391.04896,363.68008 c 1.37,4.24 6.73,4.07 10.43,5.75 8,3.63 15.12,8.55 23.52,11.29 2.88,0.94 5.36,2.01 7.26,3.96 -0.17,0.95 -0.14,1.95 -0.36,2.89 -2.01,-0.99 -3.77,6.21 -5.2,7.61 -1.66,1.61 -3.55,3.06 -5.75,4.96 -12.34,-3.7 -4.36,1.93 -17,-4.1 -0.6,1.18 -2.01,2.53 -1.99,3.59 -7.91,-11.82 -5.35,-10.44 -14.79,-21.87 -0.36,-0.44 0.01,-1.64 -0.8,-1.78 l -1.42,-0.24 c -1.55,-0.26 -2.37,-1.82 -2.93,-3.22 -0.84,-2.13 -2.55,-3.73 -3.75,-5.66 0.91,0.32 0.8,-0.53 0.78,-1.1 5.2,0.42 6.09,-2.9 12.02,-2.08 z"
     id="path22" />
  <path
     class="st2"
     d="m 28.148961,271.75008 -1.02,-0.05 c -0.2,-3.91 -2.61,-11.1 -1.98,-15.92 0.73,-5.59 -1.65,-11.17 -1.01,-16.01 l 2.69,-20.49 1.85,-11.18 2.6,-9.43 c 1.26,-4.58 2.8,-9.11 2.94,-13.59 0.09,-2.71 2.87,-3.95 3.73,-6.37 1.69,-4.75 2.72,-9.38 5.18,-14.01 2.22,-4.17 3.82,-8.68 6.37,-12.54 3.79,-5.74 7.66,-11.14 11.09,-17.12 3.13,-5.47 8.23,-8.96 10.66,-15.47 -5.13,2.42 -8.57,6.42 -11.77,10.52 l -8.84,11.33 c -7.8,10 -11.03,14.52 -17.22,25.88 -1,1.83 -8.55,13.2 -7.39,16.55 -3.34,1.75 -4.5,5.87 -5.83,9.38 l -2.74,7.25 c -2.13,5.64 -3.41,11.03 -5.26,16.59 -2.11,6.32 -4.6800003,11.57 -4.8400003,18.58 -0.05,2.04 0.12,5.39 -0.33,7.06 -4.92,18.09 -4.85,37.27 -3.83,56.04 l 0.81,14.95 1.3,8.08 c 0.62,3.83 1.68,7.76 2.6,11.13 0.25,0.93 -0.08,2.07 -0.04,3.03 -0.92,0.66 -1.35,-0.38 -1.64,-0.9 -0.33,-0.58 0.09,-1.27 -0.12,-2.1 -14.91,-60.27 -1.99,-127.92 32.8900003,-179.19 3.41,-5.01 6.21,-9.43 10.09,-14.01 l 9.6,-11.36 c 6.73,-7.97 33.73,-34.45 44.369999,-37 -1.22,6.52 -7.599999,8.17 -11.499999,12.04 -4.64,4.6 -9.34,9.13 -13.55,14.12 l -9.23,10.97 c -3.56,4.23 -6.41,9.01 -9.55,13.56 -15.94,23.07 -27.23,54.57 -30.44,82.7 -0.82,7.17 -1.77,13.69 -0.99,21.02 0.69,6.55 -0.9,13.34 0.35,19.79 0.53,2.74 0.56,4.09 0.04,6.17 z"
     id="path23" />
  <path
     class="st15"
     d="m 408.86896,355.68008 c -3.53,4.41 27.53,13.83 30.15,13.03 -0.46,5.6 -4.19,10.08 -6.02,15.33 -0.28,0.13 -0.44,0.51 -0.74,0.63 -1.9,-1.94 -4.39,-3.02 -7.26,-3.96 -8.4,-2.74 -15.52,-7.65 -23.52,-11.29 -3.7,-1.68 -9.05,-1.51 -10.43,-5.75 0.56,-1.08 1.66,-1.49 3.13,-1.88 5.36,-1.42 10.18,-3.63 14.69,-6.12 z"
     id="path24" />
  <path
     class="st2"
     d="m 432.99896,384.05008 c 1.83,-5.25 5.56,-9.73 6.02,-15.33 0.11,-1.37 1.73,-2.58 2,-3.93 1.08,-0.2 1.33,-1.26 0.17,-1.1 1.8,-3.87 2.89,-7.86 3.87,-11.96 1.6,-6.76 6.82,-22.87 6.25,-30.04 -0.13,-1.57 -3.36,-0.96 -4.32,-0.65 -1.39,0.45 -1.58,2.42 -2.77,3.98 -5.16,6.75 -10.67,13.52 -17.08,18.73 -5.62,4.57 -11.96,8.47 -18.26,11.94 -4.5,2.49 -9.32,4.69 -14.69,6.12 -1.47,0.39 -2.58,0.8 -3.13,1.88 -5.94,-0.83 -6.83,2.5 -12.02,2.08 -0.8,-0.06 -1.9,0.1 -1.99,1.06 -0.43,-0.04 -0.94,0.05 -1.36,-0.25 -0.55,-0.39 -0.62,-1.2 -0.6,-1.87 23.45,-3 47.74,-15.86 62.28,-35.54 9.01,-12.19 15.09,-25.36 17.53,-40.32 0.31,-1.93 0.61,-5.39 2.93,-5.33 2.9,1.92 0.51,5.71 0.42,8.57 -0.93,28.49 -7.65,55.82 -18.9,81.89 -1.73,4 -2.53,8.26 -6.33,10.09 z"
     id="path25" />
  <path
     class="st11"
     d="m 426.76896,396.09008 c -1.61,5.07 -15.11,24.83 -19.74,28.78 0.59,-1.07 0,-2.87 0.01,-4.02 0,-0.68 0.05,-2.17 -0.86,-2.2 0.41,-2.03 -0.19,-5.18 -0.99,-6.89 -0.35,-0.74 -0.72,-2.26 -0.97,-3.08 -0.54,-1.77 -0.49,-3.79 -2.19,-5.03 l -0.08,-4.01 c -0.02,-1.06 1.39,-2.41 1.99,-3.59 12.64,6.03 4.66,0.4 17,4.1 2.2,-1.91 4.09,-3.35 5.75,-4.96 -0.04,0.28 0.16,0.64 0.08,0.91 z"
     id="path26" />
  <path
     class="st2"
     d="m 370.06896,359.78008 c -2.09,-0.12 -3.42,-1.87 -5.03,-3.05 l -4.77,-1.24 c 0.16,-0.95 -0.96,-1.2 -1.29,-1.78 0.03,0.06 -10.14,-9.76 -11.86,-7.77 -1.8,-1.64 -3.02,-4.32 -5.46,-5.61 -5.11,-2.69 -9.46,-6 -14.4,-8.92 l -9.91,-5.87 -14.29,-8.8 c -5.33,-3.29 -11.97,-4.35 -15.97,-8.95 -0.3,-0.34 -0.84,-0.92 -1.27,-1.05 -4.36,-0.9 -4,-3.65 -9.99,-4.31 -1.52,-3.6 -5.38,-1.48 -5.81,-5.75 8.58,4.04 16.88,8.49 25.64,13.55 19.55,11.29 51.76,29.25 68.17,43.81 2.24,1.98 5.08,3.11 6.23,5.75 z"
     id="path27" />
  <path
     class="st2"
     d="m 119.12896,140.67008 c -0.22,0.61 0.04,1.49 -0.26,2.06 -0.34,0.64 -0.98,1.16 -1.06,1.94 -1.85,-0.24 -1.77,2.69 -2.83,3.18 -2.81,1.3 -2.93,4.45 -4.16,6.7 -1.49,1.84 -3.08,2.8 -4.8,5.54 l -2.91,4.64 -1.16,2.06 c -3.029999,5.37 -10.559999,19.38 -10.439999,25.04 -2.52,2.45 -3.41,10.95 -5.43,15.75 -0.32,-0.29 -0.71,-0.37 -1.06,-0.08 1.19,-15.61 11.32,-38.98 20.959999,-51.87 2.71,-3.62 8.99,-14.52 13.15,-14.97 z"
     id="path28" />
  <path
     class="st2"
     d="m 84.798961,210.74008 c 1.53,0.02 1.25,1.91 1.11,3.02 l -0.78,5.91 c -1.18,8.88 -1.69,18.47 -0.83,27.98 l 1.01,11.13 c -0.23,-2.47 3.3,16.95 3.71,13.98 l -0.08,3.18 c -2.79,0.35 -1.78,-3.44 -2.43,-5.36 -4.22,-12.41 -5.85,-38.7 -3.34,-51.86 0.54,-2.83 -1.55,-6.9 1.62,-7.98 z"
     id="path29" />
  <path
     class="st2"
     d="m 18.878961,369.96008 c -1.71,2.31 -5.63,-11.91 -5.71,-12.38 1.81,-1.81 5.69,10.99 5.71,12.38 z"
     id="path30" />
  <path
     class="st0"
     d="m 243.34896,280.53008 c -4.2,-0.19 -6.33,-4.47 -7.96,-7.81 3.14,1.8 6.82,4.3 7.96,7.81 z"
     id="path31" />
  <path
     class="st2"
     d="m 10.088961,346.58008 c -1.7600003,-2.35 -3.2100003,-6.06 -2.0900003,-8.86 1.85,2.18 2.7100003,6.38 2.0900003,8.86 z"
     id="path32" />
  <path
     class="st5"
     d="m 84.058961,457.58008 c -2.99,-1.21 -10.08,-8.1 -11.82,-10.7 1.17,-0.06 2.46,0.02 3.65,1.03 2.98,6.46 8.58,4.6 8.18,9.67 z"
     id="path33" />
  <path
     class="st15"
     d="m 370.06896,359.78008 0.03,0.83 -0.06,1.19 c -0.46,0.44 -1.04,0.91 -1.54,0.82 -0.35,-0.07 -5.67,-4.23 -3.46,-5.89 1.61,1.18 2.94,2.93 5.03,3.05 z"
     id="path34" />
  <path
     class="st15"
     d="m 28.148961,271.75008 c -0.49,1.94 2.05,4.81 0.15,6.78 -0.26,0.27 -0.12,0.94 -0.26,1.29 -3.15,-1.87 -0.81,-5.94 -0.92,-8.12 l 1.02,0.05 z"
     id="path35" />
  <path
     class="st2"
     d="m 431.89896,387.57008 c -0.74,3.17 -1.71,7.62 -5.13,8.52 0.08,-0.27 -0.11,-0.63 -0.08,-0.91 1.43,-1.39 3.19,-8.6 5.2,-7.61 z"
     id="path36" />
  <path
     class="st2"
     d="m 37.798961,405.91008 c -2.88,-1.32 -3.83,-4.85 -5.57,-7.4 3.32,0.58 4.29,4.6 5.57,7.4 z"
     id="path37" />
  <path
     class="st2"
     d="m 27.028961,384.86008 c 0.48,0.62 -0.43,2.54 1.05,2.74 0.09,0.48 -0.04,1 0.08,1.47 -3.42,-1.15 -4.71,-4.94 -4.95,-8.35 1.88,0.32 2.43,2.88 3.82,4.14 z"
     id="path38" />
  <path
     class="st1"
     d="m 317.17896,483.86008 c -1.71,6.59 -7.78,6.41 -7.23,10.82 -0.28,-0.02 -0.6,-0.03 -0.87,0.05 -0.7,0.21 -2.26,0.08 -2.13,1.13 -0.62,0.18 -1.29,0.18 -1.92,0.31 -0.48,0.31 -0.82,0.04 -1.29,-0.27 -0.98,-0.65 -0.81,-0.6 0.33,-1.16 10.23,-5.03 6.53,-9.66 13.11,-10.88 z"
     id="path39" />
  <path
     class="st2"
     d="m 13.038961,355.61008 c -1.77,-1.75 -2.17,-4.77 -2.93,-6.9 2.89,0.14 3.56,4.55 2.93,6.9 z"
     id="path40" />
  <path
     class="st4"
     d="m 143.14896,370.59008 c -1.02,2.82 -3.03,4.71 -5.92,4.75 1.59,-2.02 3.26,-4.35 5.92,-4.75 z"
     id="path41" />
  <path
     class="st0"
     d="m 44.888961,412.56008 c 0.11,1.56 0.53,3.1 1.14,4.53 -2.46,-0.47 -3.73,-2.93 -4.2,-5.24 1.03,0.21 2.08,0.31 3.06,0.71 z"
     id="path42" />
  <path
     class="st0"
     d="m 96.288961,374.45008 c -2.35,-0.17 -5.46,-0.2 -6.27,-2.81 2.17,0.59 5.68,0.26 6.27,2.81 z"
     id="path43" />
  <path
     class="st4"
     d="m 219.12896,220.95008 c 0.11,-2.43 1.05,-4.15 3.1,-5.18 -0.18,2.1 -0.59,5.08 -3.1,5.18 z"
     id="path44" />
  <path
     class="st2"
     d="m 247.03896,199.55008 c -0.81,1.91 -3.03,2.27 -4.94,2.11 0.82,-1.77 3.2,-3.53 4.94,-2.11 z"
     id="path45" />
  <path
     class="st10"
     d="m 85.908961,213.76008 c 0.15,-1.11 0.42,-3 -1.11,-3.02 -0.01,-1.09 0.14,-2.16 0.23,-3.24 0.35,-0.3 0.73,-0.21 1.06,0.08 1.57,1.41 1.76,5.05 -0.17,6.18 z"
     id="path46" />
  <path
     class="st2"
     d="m 373.89896,363.49008 c -1.42,-0.2 -2.67,-0.91 -3.86,-1.69 l 0.06,-1.19 c 1.88,-0.1 3.37,1.05 3.8,2.88 z"
     id="path47" />
  <path
     class="st5"
     d="m 90.858961,462.63008 c -2.48,-0.67 -5.23,-2.25 -5.96,-4.81 2.58,0.54 4.81,2.45 5.96,4.81 z"
     id="path48" />
  <path
     class="st14"
     d="m 121.92896,139.86008 c -0.83,1.13 -0.92,3.12 -3.06,2.87 0.3,-0.57 0.04,-1.45 0.26,-2.06 0.08,-0.23 0.04,-0.49 0.1,-0.73 0.9,0.05 1.81,0.02 2.71,-0.08 z"
     id="path49" />
  <path
     class="st2"
     d="m 22.888961,378.94008 c -2.36,0.1 -2.49,-2.6 -2.84,-4.42 2.22,-0.22 2.85,2.6 2.84,4.42 z"
     id="path50" />
  <path
     class="st2"
     d="m 238.05896,203.68008 c -2.49,2.55 -5.9,4.71 -9.25,6.07 0.01,-0.87 0.5,-1.55 1.22,-1.98 0.37,-0.3 0.7,-0.63 1,-1 2.48,-0.96 4.29,-3.31 7.03,-3.08 z"
     id="path51" />
  <path
     class="st2"
     d="m 257.17896,196.66008 c -0.42,1.32 -2.26,1.01 -3.38,1.08 -0.58,-0.7 0.01,-1.59 0.84,-1.94 0.77,-0.33 1.9,0.15 2.53,0.86 z"
     id="path52" />
  <path
     class="st4"
     d="m 219.09896,221.70008 c -0.06,1.22 0.04,3.72 -1.71,3.35 -0.2,-0.84 -0.5,-1.71 -0.27,-2.65 0.18,-0.74 1.19,-1.26 1.99,-0.7 z"
     id="path53" />
  <path
     class="st2"
     d="m 264.20896,194.93008 c 0.63,0.92 -0.32,1.58 -0.89,1.73 -0.93,0.25 -1.8,-0.17 -2.54,-0.19 -0.57,-0.93 0.46,-1.43 0.99,-1.6 0.73,-0.23 1.82,0.07 2.43,0.06 z"
     id="path54" />
  <path
     class="st12"
     d="m 135.08896,489.79008 c -0.61,-0.42 -1.62,-0.81 -2.31,-1.13 -0.24,-0.54 0,-1.02 0.25,-1.41 0.39,-0.58 0.93,-0.76 1.94,-0.34 z"
     id="path55" />
  <path
     class="st2"
     d="m 251.19896,197.90008 c 0.58,0.8 -0.16,1.57 -0.82,1.7 -0.66,0.13 -1.14,-0.11 -1.61,-0.14 -0.52,-0.55 -0.07,-0.92 0.27,-1.16 0.77,-0.55 1.5,-0.39 2.16,-0.4 z"
     id="path56" />
  <path
     class="st5"
     d="m 94.948961,465.93008 -1.96,-1.23 c 0.71,0.23 2.04,0.23 1.96,1.23 z"
     id="path57" />
  <path
     class="st5"
     d="m 101.05896,468.58008 -0.04,1.36 c -0.51,-0.42 -1.479999,-0.84 -2.079999,-1.18 z"
     id="path58" />
  <path
     class="st13"
     d="m 309.07896,494.72008 c 0.25,1.09 -1.43,0.93 -2.13,1.13 -0.13,-1.05 1.43,-0.92 2.13,-1.13 z"
     id="path59" />
  <path
     class="st2"
     d="m 239.96896,202.77008 c -0.4,-0.69 0.67,-0.88 1.14,-1.02 -0.38,0.28 -0.66,0.89 -1.14,1.02 z"
     id="path60" />
  <path
     class="st0"
     d="m 31.878961,396.79008 c -0.14,-0.3 -0.05,-0.68 -0.15,-1 1.42,-0.32 1.68,1.23 0.15,1 z"
     id="path61" />
  <path
     class="st2"
     d="m 40.158961,410.72008 c -0.25,-0.29 -0.97,-0.6 -1,-1.04 0.48,0.17 0.81,0.58 1,1.04 z"
     id="path62" />
  <path
     class="st7"
     d="m 381.99896,372.53008 c 0.56,1.4 1.38,2.96 2.93,3.22 -0.2,0.74 0.04,1.58 0.69,1.83 0.55,0.21 1.08,0.23 1.54,0.19 9.44,11.43 6.88,10.05 14.79,21.87 l 0.08,4.01 c -7.67,1.7 -15.59,1.3 -24.11,0.63 -3.28,2.74 -7.46,3.89 -11.58,4.4 -11.55,1.44 -1.11,7.77 -20.23,5.93 -5.64,4.54 -12.34,3.99 -18.76,5.05 -6.32,1.05 -1.43,13.53 -0.48,19.19 -2.44,-4.65 -5.74,-9.05 -7.71,-13.93 -1.97,-4.88 -11.32,-14.43 -13.98,-19.19 2.79,-2.13 -5.25,-4.74 -4.91,-9.67 0.19,-2.74 5.3,-2.09 6.05,-3.72 2.07,-4.49 4.32,-7.58 9.44,-8.93 7.71,-2.04 15.91,-2.55 23.94,-3.85 l 6.19,-7.5 c 13.65,2.53 11.86,-2.48 28.93,-1.77 2.32,0.1 4.56,3.29 7.18,2.25 z"
     id="path63" />
  <path
     class="st4"
     d="m 301.14896,403.50008 c -3.25,-0.35 -6.12,-3.17 -6.04,-6.55 2.21,1.92 5.32,3.48 6.04,6.55 z"
     id="path64" />
  <path
     class="st1"
     d="m 326.85896,438.84008 1.01,6.02 c -3.34,-1 -2.61,-5.12 -4.21,-8.03 l -5.55,-10.1 c 0.28,-0.65 0.62,-1.26 1.04,-1.82 1.98,4.88 5.27,9.28 7.71,13.93 z"
     id="path65" />
  <path
     class="st7"
     d="m 328.83896,461.54008 c 0.02,0.75 0.13,2.32 -0.88,2.37 -0.56,-0.33 -1.06,-1.09 -0.86,-1.56 0.32,-0.74 1.12,-1.49 1.74,-0.82 z"
     id="path67" />
  <path
     class="st7"
     d="m 327.02896,467.91008 c 0.22,-0.71 -0.2,-2.21 0.83,-2.29 0.57,0.2 1.22,0.83 1.02,1.48 -0.24,0.76 -1.43,0.59 -1.85,0.82 z"
     id="path68" />
  <path
     class="st7"
     d="m 323.98896,474.78008 c 0.06,-0.48 0.39,-0.86 0.85,-1.02 -0.01,0.5 1.05,0.95 1.1,1.52 0.05,0.54 -0.73,0.54 -0.94,0.09 -0.13,-0.28 -0.64,-0.33 -1.01,-0.6 z"
     id="path69" />
  <path
     class="st15"
     d="m 275.83896,302.43008 c 5.99,0.65 5.63,3.41 9.99,4.31 0.39,0.39 0.81,0.74 1.27,1.05 4,4.6 10.63,5.66 15.97,8.95 l 14.29,8.8 9.91,5.87 c 4.94,2.93 9.28,6.24 14.4,8.92 2.44,1.28 3.66,3.96 5.46,5.61 -6.76,7.38 -16.5,-0.96 -18.85,3.17 -5.57,9.8 -10.81,0.38 -27.62,10.18 -11.41,6.65 -18.45,1.44 -21.43,5.84 -1.08,1.6 -4.24,3.01 -4.88,5.03 -1.1,3.49 2.21,7.27 4.81,9.26 2.09,1.6 2.54,3.59 3.65,5.14 -3.09,-0.25 -5.11,-2.87 -7.64,-4.98 l -21.23,-17.77 c -2.7,-2.26 -6,-5.46 -8.99,-6.97 -2.46,-3.77 -7.56,-4.83 -10.81,-8 l -11.79,-11.48 c -2.85,-2.77 -5,-6.15 -8.71,-8.33 0.23,-3.19 0.37,-5.88 0.94,-8.66 10.01,-5.4 6.27,1.18 19.06,-5.34 10.23,3.55 13.23,-1.23 22.85,-5.53 3.04,-1.36 6.63,1.67 9.44,2.22 3.58,0.69 6.41,-0.69 6.71,-4.21 0.18,-2.07 1.48,-3.3 3.2,-3.07 z"
     id="path70" />
  <path
     class="st7"
     d="m 405.18896,411.75008 c -0.67,0.02 -1.91,0.3 -2.12,-0.5 -0.31,-1.17 -0.23,-2.72 1.15,-2.58 0.25,0.81 0.62,2.33 0.97,3.08 z"
     id="path71" />
  <path
     class="st7"
     d="m 407.03896,420.84008 c -0.43,0.29 -0.89,0.19 -1.48,-0.05 -0.45,-0.18 -0.66,-0.7 -0.36,-1.26 0.18,-0.33 0.7,-0.59 0.99,-0.89 0.91,0.03 0.87,1.52 0.86,2.2 z"
     id="path72" />
  <path
     class="st13"
     d="m 422.91896,172.57008 c 0.16,1.01 0.26,2.03 0.29,3.05 -1.17,0.03 -2.07,0.58 -2.31,1.6 -0.24,1.02 5.56,7.51 10.17,5.51 4.43,2.02 7.9,5.91 11.86,8.73 14.95,10.64 31.52,19.29 48.92,22.3 0.7,1.16 -1.93,7.8 0.15,7.2 l -5.82,10.76 c -9.37,-1.6 -5.93,8.42 -14.98,2.56 -2.86,-1.85 -2.93,-7.77 -3.82,-8.26 -1.89,-1.05 -3.36,2.22 -6.4,1.99 -0.7,-0.11 -1.37,-0.84 -1.91,-1.19 0.09,-0.74 0.15,-1.82 -0.64,-1.95 -0.67,-0.11 -1.25,0.23 -1.67,0.21 l -8.54,-0.35 c 0,-1.69 -2.08,-2.18 -3.55,-1.74 -1.11,0.33 -1.64,1.72 -1.75,2.87 -8.73,2.16 -13.45,6.78 -16.19,5.68 -5.1,-2.04 -2.03,-13.52 -9.69,-22.85 -10.33,-12.59 -20.96,-13.96 -35.93,-10.44 -6.13,1.44 -11.75,6.02 -15.98,10.35 -2.08,2.13 -1.84,5.49 -3.87,7.08 -21.9,3.56 -16.55,-2.15 -20.67,-2.77 -16.22,-2.46 -12.8,6.12 -21.58,3.56 -3.37,-0.99 -6.79,-1.71 -8.79,-5.92 -11.14,2.79 -5.19,-1.81 -14.27,-2.94 -0.87,-5.98 5.06,-2.75 3.99,-12.85 0.22,-0.41 0.87,-0.95 0.71,-1.39 -0.38,-1.06 -22.5,-7.73 -19.64,-3.71 -21,-3.95 -45.24,-3.84 -66.47,3.05 -5.97,1.94 -11.2,5.03 -16.69,7.26 -1.75,0.71 -3.61,1.27 -3.78,3.57 -1.29,0.05 -2.54,0.52 -3.81,0.65 -5.09,0.54 -9.49,5.36 -14.23,7.26 -3,-2.03 -6.72,-3.52 -10.98,-3.07 -4.26,0.45 -8.29,-3.05 -12.88,-1.36 -2.92,-5.1 -7.58,-4.89 -12.41,-3.47 -3.78,1.11 -7.8,-1.69 -11.63,-0.79 -14.14,3.33 -19.07,-4.05 -23.7,3.4 -0.74,1.19 -1.82,1.8 -2.74,1.37 -2.019999,-0.94 -2.069999,-4.44 -4.179999,-4.61 -0.77,-0.06 -2.11,0.67 -3.45,0.67 -1.4,-3.65 -1.77,-8.08 -2.53,-11.8 -0.12,-5.66 7.42,-19.66 10.439999,-25.04 1,0.04 0.88,-1.39 1.16,-2.06 l 2.91,-4.64 c 1.72,-2.74 3.3,-3.7 4.8,-5.54 2.15,-0.41 4.23,1.92 5.96,2.28 2.75,-1.69 6.93,-0.38 9.67,-1.46 3.36,-1.33 4.79,-1 8.07,-0.14 4.14,1.08 46.35,1.54 46.33,1.53 l 4.74,2.85 28.27,0.36 c 3.33,0.04 6.64,2.62 10.07,1.72 3.43,-0.9 5.71,1.33 8.47,1.65 9.69,1.12 19.26,0.03 29.21,0.42 2.27,4.27 6.12,4.12 10.26,4.08 10.63,-0.11 1.87,-5.56 22.2,-4 3.74,9.18 13.74,-1.34 18.8,7.76 l 44.87,0.44 c 1.29,0.01 2.01,3.75 3.81,3.72 7.83,-0.13 15.34,0.37 23.24,-0.34 6.26,-0.56 12.54,1.22 18.88,-0.04 2.1,-0.42 1.89,-3.99 19.26,-2.8 z"
     id="path73" />
  <path
     class="st9"
     d="m 132.99896,129.91008 c 3.23,4.31 8.31,2.59 12.99,2.16 6.06,-0.55 11.93,1.77 18.13,0.66 1.56,-0.28 3.32,0.91 4.95,1.01 9.03,0.6 17.86,-0.85 26.78,0.45 3.42,0.5 6.82,2.1 10.65,2.27 11.47,0.52 22.83,0.38 34.53,0.11 3.15,-0.07 5.76,-0.38 7.27,3.07 9.79,0.84 19.59,-1.05 29.13,0.79 3.5,5.8 17.5,2.42 29.61,3.6 6.12,0.6 11.69,0.83 18,0.78 l 28.92,-0.22 7.26,4.29 c 2.02,1.19 5.9,-1.39 7.89,0.63 2.69,2.71 5.87,4.2 8.75,6.47 1.72,1.36 2.09,4.73 4.95,3.83 1.92,0.39 2.31,2.73 3.35,3.85 -0.44,4.17 3.79,9.45 7.91,7.93 1.1,-0.41 2.62,0.17 3.78,0.02 3.29,-0.44 7.4,-1.72 8.31,-5.04 0.38,-1.39 0.37,-1.32 -0.06,-2.72 -1.8,-5.95 -12.88,-8.6 -14.11,-7.88 -0.87,0.51 -2.08,-0.79 -2.78,-1.08 -0.04,-1.52 -1.15,-2.89 -2.28,-4.34 4.44,-2.04 9.19,0.14 13.91,-0.97 4.72,-1.11 8.54,-0.14 11.33,3.84 8.34,-2.71 3.74,5.54 10.9,1.27 0.61,0.61 2.52,0.88 1.7,2.79 -2.13,4.95 -2.63,10.1 -1.84,15.12 -17.37,-1.19 -17.15,2.38 -19.26,2.8 -6.34,1.27 -12.62,-0.52 -18.88,0.04 -7.9,0.71 -15.41,0.21 -23.24,0.34 -1.8,0.03 -2.52,-3.71 -3.81,-3.72 l -44.87,-0.44 c -5.06,-9.09 -15.06,1.42 -18.8,-7.76 -20.34,-1.55 -11.58,3.89 -22.2,4 -4.14,0.04 -7.99,0.19 -10.26,-4.08 -9.95,-0.39 -19.52,0.7 -29.21,-0.42 -2.76,-0.32 -5.09,-2.53 -8.47,-1.65 -3.38,0.88 -6.74,-1.67 -10.07,-1.72 l -28.27,-0.36 -4.74,-2.85 c 0,0 -42.19,-0.44 -46.33,-1.53 -3.28,-0.86 -4.71,-1.19 -8.07,0.14 -2.74,1.08 -6.92,-0.23 -9.67,1.46 -1.72,-0.36 -3.81,-2.69 -5.96,-2.28 1.24,-2.24 1.35,-5.4 4.16,-6.7 0.96,-0.33 2.57,0.24 3.55,-0.57 0.87,-0.71 -0.22,-2.2 -0.73,-2.61 0.08,-0.79 0.72,-1.3 1.06,-1.94 2.15,0.25 2.23,-1.74 3.06,-2.87 2.98,-4.04 7.76,-6.6 11.07,-9.94 z"
     id="path74" />
  <path
     class="st3"
     d="m 379.35896,124.82008 c 0.24,1.17 1.14,2.5 1.88,3.62 -2.54,3.34 -6,-0.64 -8.55,-0.2 -4.57,0.78 -8.25,2.87 -12.84,-0.36 -2.53,-1.78 -6.33,-3.34 -9.78,-2.6 -3.24,0.7 -5.62,-1.24 -8.42,-1.25 l -42.5,-0.25 c -3.81,-0.02 -7.46,-3.4 -10.98,-2.94 -4.26,0.55 -6.97,-0.86 -10.46,-1.5 -7.32,-1.35 -15.07,-0.09 -22.73,-0.37 -4.14,-0.15 -8.11,-1.9 -12.03,-2.13 l -14.87,-0.85 c -7.58,-0.43 -48.1,-2.83 -51.76,-2.55 -4.7,0.37 -10.22,3.11 -13.23,-1.69 0.61,-3.25 4.26,-3.05 6.77,-4.38 8.32,-4.38 29.01,-9.34 38.59,-10.46 l 11.6,-1.36 c 11.97,-1.4 23.32,-1.6 35.3,-0.22 4.13,0.47 22.59,3.15 23.3,1.67 0.27,-0.56 0.76,-2.54 0.24,-3.23 -5.47,-7.32 -9.25,-15.22 -13.97,-22.86 -2.7,-4.37 -3.81,-9.38 -6.29,-14.08 l -4.81,-9.12 c -1.99,-3.76 -2.63,-7.26 -3.75,-11.33 -0.92,-3.37 -5.08,-6.08 -2.2,-10.08 2.12,4.12 4.1,6.98 6.39,10.21 l 11.26,15.88 18.88,20.6 c 2.87,3.13 32.76,28.42 36,25.47 0.59,-0.54 0.95,-2.62 0.54,-3.7 -3.25,-8.49 -4.85,-16.94 -6.47,-25.83 l -3.08,-16.93 c -1.35,-7.43 -1.76,-14.52 -1.55,-22.2 0.1,-3.87 -3.09,-8.52 1.74,-11.67 5.13,19.39 11.24,37.47 20.51,54.7 1.44,2.67 3.39,4.58 4.64,7.53 3.37,7.97 9.58,14.28 14.27,21.31 2.79,4.18 10.62,10.7 14.79,13.41 2.77,1.81 4.46,5.17 8.25,5.6 2.83,0.32 3.82,2.8 5.32,4.13 z"
     id="path75" />
  <path
     class="st14"
     d="m 163.07896,111.74008 c 3.02,4.8 8.54,2.06 13.23,1.69 3.66,-0.29 44.18,2.11 51.76,2.55 l 14.87,0.85 c 3.92,0.22 7.89,1.98 12.03,2.13 7.66,0.28 15.41,-0.97 22.73,0.37 3.49,0.64 6.2,2.05 10.46,1.5 3.52,-0.46 7.17,2.92 10.98,2.94 l 42.5,0.25 c 2.81,0.02 5.19,1.95 8.42,1.25 3.45,-0.74 7.25,0.82 9.78,2.6 4.59,3.24 8.27,1.15 12.84,0.36 2.55,-0.44 6.01,3.54 8.55,0.2 -0.74,-1.13 -1.64,-2.46 -1.88,-3.62 2.1,1.85 5.62,2.65 7.59,5.07 2.2,2.71 28.52,17.12 36.13,24.78 -7.16,4.27 -2.56,-3.98 -10.9,-1.27 -2.79,-3.98 -6.77,-4.92 -11.33,-3.84 -4.56,1.08 -9.47,-1.07 -13.91,0.97 1.13,1.45 2.23,2.82 2.28,4.34 -2.12,-0.89 -6.48,-2.2 -8.72,-3.53 -1.91,-1.13 -3.82,-2.44 -5.58,-0.55 3.2,3.07 7.42,5.15 7.89,9.02 -2.85,0.9 -3.22,-2.47 -4.95,-3.83 -2.89,-2.27 -6.06,-3.76 -8.75,-6.47 -2,-2.01 -5.88,0.56 -7.89,-0.63 l -7.26,-4.29 -28.92,0.22 c -6.3,0.05 -11.88,-0.18 -18,-0.78 -12.1,-1.18 -26.11,2.2 -29.61,-3.6 -9.54,-1.83 -19.35,0.05 -29.13,-0.79 -1.51,-3.45 -4.12,-3.14 -7.27,-3.07 -11.7,0.27 -23.06,0.41 -34.53,-0.11 -3.83,-0.17 -7.23,-1.77 -10.65,-2.27 -8.92,-1.31 -17.76,0.14 -26.78,-0.45 -1.63,-0.11 -3.39,-1.29 -4.95,-1.01 -6.2,1.11 -12.07,-1.21 -18.13,-0.66 -4.68,0.42 -9.75,2.15 -12.99,-2.16 6.46,-6.54 21.2,-16.78 30.07,-18.17 z"
     id="path76" />
  <path
     class="st7"
     d="m 361.24896,215.70008 c -0.79,6.78 0.37,9.65 6.29,15.6 14.01,14.08 32.54,9.91 34.17,12.39 1.39,2.12 -2.06,13.35 7.44,17.84 3.62,1.71 7.73,0.49 12,1.36 -4.35,10.36 -29.39,22.97 -40.74,22.2 4,-11.32 -0.81,-21.03 -8.53,-28.08 -4.71,-4.31 -8.49,-7.61 -14.4,-9.99 -4.8,-1.94 -9.34,-4.67 -14.51,-6.29 -22.74,-7.15 -37.55,-10.49 -61.56,-14.58 1.99,-5.09 6.11,-7.52 8.85,-11.04 1.99,-2.56 2.85,-6.1 5.69,-7.48 9.08,1.13 3.13,5.72 14.27,2.94 2,4.2 5.42,4.93 8.79,5.92 8.78,2.56 5.36,-6.01 21.58,-3.56 4.12,0.62 -1.23,6.33 20.67,2.77 z"
     id="path77" />
  <path
     class="st7"
     d="m 486.18896,231.73008 c -1.12,2.07 -1.56,4.28 -3.55,6.63 -3.79,4.46 -7.36,7.74 -12.5,10.7 -2.3,1.32 -3.87,4.29 -7.97,4.31 3.17,-10.09 5.13,-14.98 -1.18,-25.35 3.04,0.23 4.51,-3.04 6.4,-1.99 0.89,0.49 0.96,6.41 3.82,8.26 9.04,5.86 5.6,-4.16 14.98,-2.56 z"
     id="path78" />
  <path
     class="st10"
     d="m 299.91896,194.78008 -7.88,-0.86 c 9,0.08 -15.33,-5.05 -11.05,-4.24 -2.86,-4.02 19.26,2.64 19.64,3.71 0.16,0.44 -0.49,0.98 -0.71,1.39 z"
     id="path79" />
  <path
     class="st9"
     d="m 423.20896,175.62008 c 0.43,-0.63 9.43,6.34 7.87,7.1 -4.62,2 -10.41,-4.47 -10.17,-5.51 0.24,-1.04 1.13,-1.57 2.31,-1.6 z"
     id="path80" />
  <path
     class="st7"
     d="m 492.00896,220.97008 c -2.08,0.6 0.55,-6.04 -0.15,-7.2 1.83,0.32 2.37,1.69 2.05,3.27 -0.32,1.58 -1.21,2.65 -1.9,3.93 z"
     id="path81" />
  <path
     class="st7"
     d="m 448.21896,224.73008 c -1.66,-0.07 -3.66,0.73 -5.3,1.13 0.11,-1.16 0.64,-2.54 1.75,-2.87 1.48,-0.44 3.55,0.05 3.55,1.74 z"
     id="path82" />
  <path
     class="st7"
     d="m 459.07896,226.83008 c -0.9,-0.27 -2.85,-0.32 -2.32,-1.74 0.43,0.02 1.01,-0.32 1.67,-0.21 0.79,0.13 0.73,1.21 0.64,1.95 z"
     id="path83" />
  <path
     class="st10"
     d="m 173.16896,223.72008 c -0.05,2.03 -1.12,3.83 -1.33,5.82 -0.91,-0.74 -1.34,0.41 -1.64,0.92 -0.45,0.76 -0.03,1.65 -0.29,2.31 -0.68,1.74 -1.37,3.46 -1.89,5.25 -3.1,10.71 -2.43,21.92 -0.01,32.81 -1.61,1.45 -1.54,3.66 -3.33,6.08 -7.21,-1.93 -14.27,-0.99 -21.54,-0.48 -10.32,0.73 -19.97,-0.67 -30.13,-1.59 -3.96,-0.36 -8.03,1.39 -11.04,-2.72 -12.049999,4.23 -8.829999,-3.23 -12.949999,0.66 -0.42,2.98 -3.94,-16.45 -3.71,-13.98 l -1.01,-11.13 c -0.87,-9.52 -0.35,-19.1 0.83,-27.98 0.61,0.28 0.91,1.01 0.91,1.99 l 0.11,15.77 c 3.4,-4.65 6.43,-2.48 10.13,-2.15 11.539999,1.02 4.629999,9.16 36.639999,3.61 3,3.75 7.67,2.58 12.13,3.03 l 11.94,1.22 c 3.44,0.35 5.78,0.22 7.33,-3.49 l 5.5,-13.1 c 0.74,-1.77 1.69,-2.82 3.36,-2.84 z"
     id="path84" />
  <path
     class="st15"
     d="m 379.02896,365.76008 c 0.02,0.57 0.13,1.42 -0.78,1.1 -0.36,-0.13 -0.83,0 -1.21,-0.05 0.1,-0.95 1.2,-1.12 1.99,-1.06 z"
     id="path85" />
  <path
     class="st15"
     d="m 360.26896,355.49008 c -0.38,-0.1 -0.96,-0.07 -1.1,-0.39 -0.23,-0.51 -0.26,-1.01 -0.18,-1.4 0.33,0.59 1.44,0.84 1.29,1.78 z"
     id="path86" />
  <path
     class="st0"
     d="m 28.158961,389.08008 c -0.12,-0.47 0.02,-1 -0.08,-1.47 0.99,0.14 2.16,-0.22 2.99,0.69 -1.23,0.73 -2.15,0.8 -2.91,0.78 z"
     id="path87" />
  <path
     class="st7"
     d="m 91.508961,191.84008 c 0.76,3.71 1.12,8.14 2.53,11.8 1.33,0 2.68,-0.73 3.45,-0.67 2.11,0.17 2.16,3.67 4.179999,4.61 0.92,0.43 2,-0.18 2.74,-1.37 4.63,-7.45 9.56,-0.07 23.7,-3.4 3.83,-0.9 7.85,1.9 11.63,0.79 4.84,-1.42 9.49,-1.63 12.41,3.47 4.59,-1.69 8.74,1.8 12.88,1.36 4.14,-0.44 7.98,1.03 10.98,3.07 4.74,-1.9 9.14,-6.73 14.23,-7.26 l -0.12,1.23 c -2.64,-0.05 -3.58,2.74 -5.12,4.45 -0.79,0.88 -2.09,1.76 -2.41,3.02 -2.78,1.31 -4.45,4.29 -6.24,6.65 l -3.18,4.15 c -1.68,0.02 -2.62,1.07 -3.36,2.84 l -5.5,13.1 c -1.55,3.7 -3.89,3.84 -7.33,3.49 l -11.94,-1.22 c -4.46,-0.46 -9.13,0.72 -12.13,-3.03 -32.01,5.55 -25.1,-2.59 -36.639999,-3.61 -3.7,-0.33 -6.73,-2.5 -10.13,2.15 l -0.11,-15.77 c 0,-0.98 -0.3,-1.72 -0.91,-1.99 l 0.78,-5.91 c 1.93,-1.13 1.75,-4.77 0.17,-6.18 2.02,-4.79 2.9,-13.3 5.43,-15.75 z"
     id="path88" />
  <path
     class="st4"
     d="m 182.58896,212.91008 c -0.96,3.11 -2.61,7.06 -6.24,6.65 1.8,-2.35 3.46,-5.34 6.24,-6.65 z"
     id="path89" />
  <path
     class="st4"
     d="m 190.11896,205.45008 c -0.27,2.71 -2.7,3.91 -5.12,4.45 1.53,-1.7 2.47,-4.49 5.12,-4.45 z"
     id="path90" />
  <path
     class="st4"
     d="m 197.82896,199.99008 c -0.41,1.93 -1.75,3.49 -3.78,3.57 0.17,-2.3 2.03,-2.86 3.78,-3.57 z"
     id="path91" />
  <path
     class="st4"
     d="m 171.84896,229.54008 c -0.08,0.76 0.41,1.63 0.09,2.6 -0.25,0.76 -1.18,0.8 -2.02,0.62 0.26,-0.66 -0.16,-1.54 0.29,-2.31 0.3,-0.5 0.72,-1.66 1.64,-0.92 z"
     id="path92" />
  <path
     class="st4"
     d="m 230.02896,207.76008 c 0.38,-0.23 0.57,-0.83 1,-1 -0.3,0.37 -0.63,0.7 -1,1 z"
     id="path93" />
  <path
     class="st15"
     d="m 7.8889607,332.92008 c -0.92,-3.37 -1.98,-7.31 -2.6,-11.13 l -1.3,-8.08 -0.81,-14.95 c 3.09,0.27 4.87,-2.97 6.13,-6.07 l 11.1000003,-2.44 c 2.94,-0.65 4.85,-3.77 7.6,-4.54 3.32,5.14 3.29,11.77 5.08,17.76 l 2.67,8.96 c 1.09,3.67 4.86,7.22 3.34,11.79 -4.52,13.61 -8.17,5.34 -11.86,10.82 -0.84,1.24 -3.5,0.5 -4.79,1.11 l -6.68,3.16 c -1.85,0.88 -0.06,5.51 -3.76,5.43 0.87,-2.31 -1.25,-12.76 -4.1300003,-11.81 z"
     id="path94" />
  <path
     class="st10"
     d="m 24.128961,239.79008 c -0.63,4.84 1.74,10.41 1.01,16.01 -0.63,4.82 1.78,12 1.98,15.92 0.11,2.18 -2.23,6.25 0.92,8.12 -0.1,0.24 0.06,0.57 0.04,0.83 -0.02,0.39 0,0.79 0,1.18 l -0.07,3.87 c -2.75,0.76 -4.66,3.89 -7.6,4.54 l -11.1000003,2.44 c -1.26,3.1 -3.04,6.34 -6.13,6.07 -1.01,-18.77 -1.08,-37.95 3.83,-56.04 0.91,1.25 2.01,4.69 3.7900003,4.71 8.32,-1.72 4.73,-8.9 13.33,-7.64 z"
     id="path95" />
  <path
     class="st15"
     d="m 28.088961,281.84008 c 0,-0.39 -0.02,-0.79 0,-1.18 1.26,-0.33 1.21,1.42 0,1.18 z"
     id="path96" />
  <path
     class="st10"
     d="m 387.15896,377.77008 c -0.45,0.04 -0.99,0.02 -1.54,-0.19 -0.65,-0.25 -0.89,-1.09 -0.69,-1.83 l 1.42,0.24 c 0.82,0.14 0.44,1.34 0.8,1.78 z"
     id="path97" />
  <path
     class="st7"
     d="m 34.218961,185.09008 c -0.14,4.49 -1.68,9.01 -2.94,13.59 l -2.6,9.43 -1.85,11.18 -2.69,20.49 c -8.6,-1.26 -5.01,5.93 -13.33,7.64 -1.7800003,-0.02 -2.8800003,-3.46 -3.7900003,-4.71 0.45,-1.67 0.29,-5.02 0.33,-7.06 0.17,-7 2.7300003,-12.26 4.8400003,-18.58 1.86,-5.56 3.13,-10.96 5.26,-16.59 l 2.74,-7.25 c 1.33,-3.51 2.48,-7.62 5.83,-9.38 1.44,-0.76 2.6,-1.4 4.03,-3.57 0.87,2.78 1.52,5.35 4.16,4.79 z"
     id="path98" />
  <path
     class="st13"
     d="m 34.218961,185.09008 c -2.63,0.55 -3.29,-2.01 -4.16,-4.79 -1.43,2.18 -2.58,2.82 -4.03,3.57 -1.16,-3.36 6.39,-14.72 7.39,-16.55 6.19,-11.36 9.42,-15.88 17.22,-25.88 l 8.84,-11.33 c 3.19,-4.1 6.64,-8.1 11.77,-10.52 -2.43,6.51 -7.53,10 -10.66,15.47 -3.43,5.98 -7.29,11.38 -11.09,17.12 -2.55,3.86 -4.15,8.37 -6.37,12.54 -2.46,4.62 -3.49,9.25 -5.18,14.01 -0.86,2.42 -3.64,3.66 -3.73,6.37 z"
     id="path99" />
  <path
     class="st10"
     d="m 445.05896,351.73008 c -0.97,4.1 -2.06,8.08 -3.87,11.96 -0.15,0.32 -0.04,0.76 -0.17,1.1 -0.27,1.35 -1.89,2.57 -2,3.93 -2.62,0.79 -33.68,-8.62 -30.15,-13.03 6.3,-3.47 12.64,-7.38 18.26,-11.94 0.14,2 1.73,4.05 4.05,4.76 8.78,2.69 2.47,5.21 13.88,3.23 z"
     id="path100" />
  <path
     class="st13"
     d="m 445.05896,351.73008 c -11.4,1.98 -5.1,-0.54 -13.88,-3.23 -2.31,-0.71 -3.91,-2.76 -4.05,-4.76 6.41,-5.21 11.92,-11.98 17.08,-18.73 1.19,-1.56 1.37,-3.52 2.77,-3.98 0.96,-0.31 4.19,-0.92 4.32,0.65 0.57,7.17 -4.64,23.29 -6.25,30.04 z"
     id="path101" />
  <path
     class="st15"
     d="m 441.01896,364.78008 c 0.12,-0.34 0.01,-0.77 0.17,-1.1 1.16,-0.16 0.91,0.9 -0.17,1.1 z"
     id="path102" />
  <path
     class="st14"
     d="m 101.94896,166.80008 1.16,-2.06 c -0.28,0.67 -0.16,2.1 -1.16,2.06 z"
     id="path103" />
  <path
     class="st0"
     d="m 287.09896,307.79008 c -0.46,-0.31 -0.88,-0.66 -1.27,-1.05 0.43,0.13 0.97,0.7 1.27,1.05 z"
     id="path104" />
  <path
     class="st14"
     d="m 114.98896,147.86008 c 1.06,-0.49 0.98,-3.42 2.83,-3.18 0.51,0.42 1.6,1.9 0.73,2.61 -0.98,0.8 -2.59,0.24 -3.55,0.57 z"
     id="path105" />
  <path
     class="st6"
     d="m 389.21896,154.88008 c 0.7,0.29 1.91,1.58 2.78,1.08 1.41,2.21 4.36,2.68 7.03,3.72 2.81,1.09 4.46,3.57 7.08,4.17 0.42,1.4 0.44,1.33 0.06,2.72 -0.35,-0.05 -10.36,4.15 -8.31,5.04 -1.16,0.16 -2.68,-0.42 -3.78,-0.02 -3.2,-2.08 -5.31,-5.13 -7.91,-7.93 -1.04,-1.12 -1.43,-3.46 -3.35,-3.85 -0.47,-3.88 -4.69,-5.95 -7.89,-9.02 1.76,-1.89 3.67,-0.58 5.58,0.55 2.24,1.33 6.6,2.65 8.72,3.53 z"
     id="path106" />
  <path
     class="st14"
     d="m 406.09896,163.84008 c -2.62,-0.6 -4.27,-3.07 -7.08,-4.17 -2.66,-1.04 -5.61,-1.5 -7.03,-3.72 1.23,-0.72 12.3,1.94 14.11,7.88 z"
     id="path107" />
  <path
     class="st14"
     d="m 394.06896,171.59008 c -4.12,1.52 -8.35,-3.76 -7.91,-7.93 2.6,2.8 4.71,5.85 7.91,7.93 z"
     id="path108" />
  <path
     class="st14"
     d="m 406.15896,166.56008 c -0.91,3.32 -5.01,4.6 -8.31,5.04 -2.06,-0.89 7.95,-5.1 8.31,-5.04 z"
     id="path109" />
</svg>
