<?xml version="1.0" encoding="UTF-8" standalone="no"?>
<!-- Uploaded to: SVG Repo, www.svgrepo.com, Generator: SVG Repo Mixer Tools -->

<svg
   width="558.49438"
   height="633.33331"
   viewBox="0 0 33.509663 37.999999"
   id="a"
   version="1.1"
   sodipodi:docname="substack.svg"
   inkscape:version="1.2.2 (b0a8486541, 2022-12-01)"
   xmlns:inkscape="http://www.inkscape.org/namespaces/inkscape"
   xmlns:sodipodi="http://sodipodi.sourceforge.net/DTD/sodipodi-0.dtd"
   xmlns="http://www.w3.org/2000/svg"
   xmlns:svg="http://www.w3.org/2000/svg">
  <sodipodi:namedview
     id="namedview13"
     pagecolor="#ffffff"
     bordercolor="#000000"
     borderopacity="0.25"
     inkscape:showpageshadow="2"
     inkscape:pageopacity="0.0"
     inkscape:pagecheckerboard="0"
     inkscape:deskcolor="#d1d1d1"
     showgrid="false"
     inkscape:zoom="1.07"
     inkscape:cx="103.73832"
     inkscape:cy="329.43925"
     inkscape:window-width="1920"
     inkscape:window-height="1020"
     inkscape:window-x="0"
     inkscape:window-y="32"
     inkscape:window-maximized="1"
     inkscape:current-layer="a" />
  <defs
     id="defs4">
    <style
       id="style2">.b{fill:none;stroke:#000000;stroke-linecap:round;stroke-linejoin:round;}</style>
  </defs>
  <path
     class="b"
     d="M 32.7779,5.0818 V 0.5004 c -0.3229,0 -0.7411,-4e-4 -1.6553,-4e-4 l -28.9669,4e-4 c -0.9142,0 -1.318,0 -1.6553,0 v 4.5814 c 0.2164,0 0.7411,5e-4 1.6553,5e-4 l 28.9669,-5e-4 c 0.9142,0 1.4122,0 1.6553,0 z"
     id="path6"
     style="fill:#ff6600;stroke:#ff6600;stroke-opacity:1" />
  <path
     class="b"
     d="M 32.7779,13.3504 V 8.769 H 2.1556 c -0.9142,0 -1.3777,0 -1.6553,0 v 4.5814 c 0.2646,0 0.7411,0 1.6553,0 z"
     id="path8"
     style="fill:#ff6600;stroke:#ff6600;stroke-opacity:1" />
  <path
     class="b"
     d="M 33.0088,37.5 V 17.3179 c 0,-0.1633 -0.9724,-0.1077 -1.8866,-0.1077 H 2.1553 C 1.2411,17.2102 0.5,17.1547 0.5,17.3179 v 19.8878 c 0.2814,-0.1622 15.3415,-8.2118 16.1691,-8.5978 0.5156,0.2972 13.6461,7.3385 16.3406,8.8914 l -8e-4,7e-4 z"
     id="path10"
     style="fill:#ff6600;stroke:#ff6600;stroke-opacity:1" />
</svg>
