<?xml version="1.0" encoding="UTF-8" standalone="no"?>
<svg
   version="1.0"
   width="654.416245pt"
   height="334.864364pt"
   viewBox="0 0 654.416245 334.864364"
   preserveAspectRatio="xMidYMid meet"
   id="svg12"
   sodipodi:docname="teragun.svg"
   xml:space="preserve"
   inkscape:version="1.2.2 (b0a8486541, 2022-12-01)"
   xmlns:inkscape="http://www.inkscape.org/namespaces/inkscape"
   xmlns:sodipodi="http://sodipodi.sourceforge.net/DTD/sodipodi-0.dtd"
   xmlns="http://www.w3.org/2000/svg"
   xmlns:svg="http://www.w3.org/2000/svg"><defs
     id="defs16" /><sodipodi:namedview
     id="namedview14"
     pagecolor="#ffffff"
     bordercolor="#000000"
     borderopacity="0.25"
     inkscape:showpageshadow="2"
     inkscape:pageopacity="0.0"
     inkscape:pagecheckerboard="0"
     inkscape:deskcolor="#d1d1d1"
     inkscape:document-units="pt"
     showgrid="false"
     inkscape:zoom="1.5494725"
     inkscape:cx="437.24558"
     inkscape:cy="223.3018"
     inkscape:window-width="1880"
     inkscape:window-height="1056"
     inkscape:window-x="40"
     inkscape:window-y="0"
     inkscape:window-maximized="1"
     inkscape:current-layer="svg12" /><metadata
     id="metadata2"> Created by potrace 1.16, written by Peter Selinger 2001-2019 </metadata><g
     transform="translate(-199.313100,693.000000) scale(0.100000,-0.100000)"
     fill="#000000"
     stroke="none"
     id="g10"
     style="fill:#00c5fa;fill-opacity:1"><path
       d="M2063 6893 c7 -39 272 -491 293 -500 6 -2 108 32 225 75 270 101 575 199 749 242 184 45 168 40 150 49 -21 12 -248 57 -430 86 -281 44 -701 84 -894 85 l-99 0 6 -37z"
       id="path4"
       style="fill:#00c5fa;fill-opacity:1" /><path
       d="M4575 6809 c-433 -27 -858 -95 -1212 -194 -374 -105 -1096 -364 -1233 -442 -81 -46 -155 -132 -133 -154 9 -9 277 -13 1428 -25 325 -3 610 -9 635 -13 25 -5 38 -9 30 -10 -8 -1 -55 -6 -105 -11 -161 -17 -772 -40 -1748 -66 -246 -6 -248 -7 -241 -28 26 -85 81 -154 154 -191 51 -26 156 -60 395 -130 319 -92 405 -159 405 -315 0 -88 -45 -192 -177 -410 -167 -276 -247 -442 -320 -659 -46 -137 -62 -243 -49 -315 8 -40 64 -104 114 -130 60 -31 271 -88 397 -107 192 -29 498 -37 597 -15 65 14 82 23 107 52 43 49 42 104 -3 189 -48 91 -63 183 -48 291 24 163 112 458 234 784 123 329 207 423 398 448 44 5 265 7 541 3 440 -6 468 -7 488 -25 15 -14 21 -31 21 -62 0 -168 -228 -435 -439 -515 -167 -63 -500 -66 -771 -7 -149 32 -140 35 -172 -52 -15 -41 -27 -82 -25 -90 4 -23 127 -39 362 -46 215 -7 354 2 482 32 80 18 224 69 288 102 134 67 274 189 378 327 55 73 167 281 167 310 0 15 67 25 165 25 191 0 573 52 815 111 119 29 316 91 352 110 9 5 21 32 28 61 17 77 40 256 40 311 l0 47 80 0 80 0 0 -27 c1 -90 21 -301 31 -332 16 -49 47 -81 79 -81 15 0 36 10 48 23 28 30 50 151 55 297 l4 115 76 3 c68 3 77 1 77 -15 1 -86 23 -261 37 -290 31 -67 90 -65 124 4 17 36 22 69 27 174 l5 129 73 0 74 0 0 -65 0 -65 28 6 c15 3 106 26 202 51 96 25 184 48 196 50 14 3 28 -3 40 -20 28 -35 76 -57 124 -57 143 0 212 184 105 279 -71 62 -159 62 -226 0 -32 -29 -33 -30 -88 -18 -31 6 -114 26 -186 44 -71 18 -145 35 -162 38 l-33 7 0 -55 0 -55 -74 0 -73 0 -5 128 c-4 100 -10 139 -26 175 -36 81 -97 85 -128 10 -13 -31 -33 -203 -34 -285 0 -28 0 -28 -74 -28 l-74 0 -6 118 c-12 219 -34 298 -91 324 -32 14 -71 -10 -90 -56 -16 -38 -35 -206 -35 -307 l0 -69 -70 0 c-38 0 -73 -1 -77 -2 -5 -2 -9 13 -11 32 -7 99 -33 301 -43 346 l-12 52 -71 20 c-250 72 -802 162 -1176 192 -361 28 -772 36 -1045 19z"
       id="path6"
       style="fill:#00c5fa;fill-opacity:1" /><path
       d="M4383 5226 c-67 -6 -124 -14 -127 -17 -11 -11 36 -129 75 -190 104 -160 244 -235 338 -181 36 20 38 28 12 41 -24 13 -76 95 -96 151 -9 25 -19 81 -23 125 -8 94 6 88 -179 71z"
       id="path8"
       style="fill:#00c5fa;fill-opacity:1" /></g></svg>
