<?xml version="1.0" encoding="UTF-8" standalone="no"?>
<!-- Uploaded to: SVG Repo, www.svgrepo.com, Generator: SVG Repo Mixer Tools -->

<svg
   version="1.1"
   id="_x32_"
   width="799.98553"
   height="585.86725"
   viewBox="0 0 511.99074 374.95504"
   xml:space="preserve"
   sodipodi:docname="tip.svg"
   inkscape:version="1.2.2 (b0a8486541, 2022-12-01)"
   xmlns:inkscape="http://www.inkscape.org/namespaces/inkscape"
   xmlns:sodipodi="http://sodipodi.sourceforge.net/DTD/sodipodi-0.dtd"
   xmlns="http://www.w3.org/2000/svg"
   xmlns:svg="http://www.w3.org/2000/svg"><defs
   id="defs15" /><sodipodi:namedview
   id="namedview13"
   pagecolor="#ffffff"
   bordercolor="#000000"
   borderopacity="0.25"
   inkscape:showpageshadow="2"
   inkscape:pageopacity="0.0"
   inkscape:pagecheckerboard="0"
   inkscape:deskcolor="#d1d1d1"
   showgrid="false"
   inkscape:zoom="1.085"
   inkscape:cx="400"
   inkscape:cy="293.08756"
   inkscape:window-width="1880"
   inkscape:window-height="1056"
   inkscape:window-x="40"
   inkscape:window-y="0"
   inkscape:window-maximized="1"
   inkscape:current-layer="_x32_" />
<style
   type="text/css"
   id="style2">
<![CDATA[
	.st0{fill:#000000;}
]]>
</style>
<g
   id="g10"
   style="fill:#ffcc00"
   transform="translate(-0.00542085,-68.523543)">
	<path
   class="st0"
   d="m 506.582,85.283 c -4.141,-1.375 -8.625,0.875 -10,5.016 -3.594,10.672 -8.391,16.688 -13.781,20.703 -1.625,1.219 -3.375,2.188 -5.156,3.078 0.875,-3.266 1.484,-6.609 1.484,-10.031 0,-5.344 -1.188,-10.828 -4.094,-15.75 -2.547,-4.25 -6.109,-7.625 -10.172,-9.875 -4.078,-2.234 -8.625,-3.438 -13.266,-3.438 -4.609,0 -9.281,1.219 -13.531,3.641 -0.047,0.047 -0.109,0.031 -0.156,0.063 h -0.031 c 0,0.016 0,0.016 0,0.016 h -0.016 l -0.172,0.109 c -0.016,0 -0.016,0.016 -0.047,0.031 v 0 c -0.094,0.063 -0.141,0.156 -0.234,0.203 -0.047,0.031 -0.094,0.094 -0.156,0.141 -3.922,2.5 -7.109,5.828 -9.25,9.672 -2.25,4.078 -3.421,8.641 -3.421,13.281 0,4.734 1.234,9.578 3.843,13.938 v 0 c 3.281,5.422 8.109,9.813 13.688,13.031 1.078,0.609 2.203,1.141 3.328,1.656 -2.609,1.656 -5.563,3.188 -8.781,4.516 -2.25,0.906 -4.656,1.656 -7.172,2.313 C 415.224,119.675 395.849,103.144 370.083,88.831 297.942,48.768 202.224,75.393 154.661,105.128 125.083,86.408 98.77,91.299 90.786,93.643 l 10.891,58.047 c -21.75,26.906 -39.266,35.906 -39.266,35.906 l -43.953,8.688 c -6.219,0 -12,3.125 -15.422,8.313 -3.406,5.188 -3.984,11.75 -1.516,17.453 l 33.719,96.125 c 2.938,6.766 9.594,11.156 16.953,11.156 l 72.078,15.094 30.391,76.5 c 15.203,33.641 55.891,26.594 57.516,-1.078 l 6.516,-37.984 h 105.266 c 0,0 3.266,16.906 4.891,31.484 2.438,21.953 34.719,50.453 67.281,6.5 38.968,-52.594 102.015,-175.734 42.937,-268.703 4.047,-1.422 7.906,-3.016 11.313,-4.906 4.828,-2.656 9,-5.703 12.484,-8.844 1.281,-1.172 2.359,-2.344 3.438,-3.531 0.094,-0.016 0.188,0 0.281,-0.031 v 0.016 c 0.047,0 0.063,-0.016 0.094,-0.016 0.078,-0.016 0.188,-0.016 0.281,-0.031 l -0.016,-0.031 c 8.344,-1.391 17.266,-4.078 25.297,-10.031 8.156,-6.016 15.016,-15.328 19.344,-28.422 1.389,-4.143 -0.846,-8.628 -5.002,-10.034 z M 313.754,289.955 c -1.859,3.813 -4.547,7.094 -8.078,9.875 -3.516,2.781 -6.547,4.953 -11.688,6.5 -4.094,1.234 -9.203,1.984 -13.984,2.234 v 14.438 h -12.891 v -14.328 h -11.688 v 14.328 H 242.52 v -14.328 h -10.234 -13.219 v -13.078 c 0,-2.531 -0.188,-4.078 2.438,-4.594 0.234,-0.031 0.578,-0.078 1,-0.172 0.422,-0.063 5.563,-0.375 6.734,-0.375 2.078,0 3.047,-1.984 3.047,-3.953 v -63.578 c 0,-2.406 -1.266,-3.359 -3.047,-3.578 -1.156,-0.172 -6.313,-0.328 -6.734,-0.422 -0.422,-0.063 -0.766,-0.125 -1,-0.141 -2.625,-0.516 -2.438,-2.063 -2.438,-4.594 v -11.734 h 13.219 10.234 v -14.641 h 12.906 v 14.688 l 11.688,0.031 v -14.719 h 12.891 v 14.922 c 6.984,0.594 15.563,2.781 21.469,7.359 3.328,2.563 5.891,5.406 7.484,8.906 1.578,3.484 2.359,7.391 2.359,11.734 0,2.516 -0.391,4.875 -1.172,7.172 -0.781,2.25 -2.016,4.391 -3.672,6.375 -1.672,1.984 -7.203,7.594 -12.188,9.531 15.141,2.609 22.219,11.156 22.219,23.641 0,4.517 -0.921,8.673 -2.75,12.501 z M 301.739,133.33 c -10.391,0 -18.797,-8.406 -18.797,-18.797 0,-10.406 8.406,-18.797 18.797,-18.797 10.375,0 18.797,8.391 18.797,18.797 0,10.391 -8.422,18.797 -18.797,18.797 z m 114.656,117.016 c -9.094,1.109 -17.359,-5.344 -18.484,-14.422 -2.359,-19.172 -8.719,-36.766 -18.203,-51.094 -9.5,-14.359 -21.984,-25.453 -37.047,-32.25 -8.328,-3.766 -12.063,-13.578 -8.281,-21.922 3.75,-8.328 13.563,-12.047 21.906,-8.281 21.234,9.578 38.516,25.172 51.063,44.172 12.563,19.031 20.5,41.469 23.453,65.328 1.108,9.062 -5.329,17.328 -14.407,18.469 z m 45.531,-138.563 c -0.875,2.453 -2.125,4.781 -3.594,6.625 -2.703,-0.422 -5.656,-1.469 -8.328,-3 -3.531,-2.016 -6.5,-4.891 -7.984,-7.453 v 0.016 c -1.109,-1.859 -1.625,-3.844 -1.625,-5.828 0,-1.953 0.516,-3.906 1.469,-5.594 0.906,-1.656 2.25,-3.063 3.984,-4.156 1.828,-1.047 3.797,-1.563 5.75,-1.578 1.938,0 3.875,0.516 5.578,1.453 1.703,0.969 3.156,2.328 4.25,4.125 1.203,2 1.875,4.641 1.875,7.656 0.015,2.484 -0.485,5.203 -1.375,7.734 z"
   id="path4"
   style="fill:#ffcc00" />
	<path
   class="st0"
   d="m 282.411,268.783 c -1.281,-0.984 -2.969,-1.75 -4.969,-2.297 -2.031,-0.516 -4.5,-0.781 -7.359,-0.781 h -13.484 v 23.969 h 13.547 c 3.031,0 5.563,-0.359 7.609,-1.016 2.047,-0.688 3.703,-1.609 4.953,-2.719 1.203,-1.125 2.109,-2.453 2.656,-3.953 0.563,-1.5 0.813,-3.109 0.813,-4.813 0,-1.766 -0.281,-3.359 -0.906,-4.781 -0.61,-1.406 -1.563,-2.624 -2.86,-3.609 z"
   id="path6"
   style="fill:#ffcc00" />
	<path
   class="st0"
   d="m 278.317,242.096 c 2.875,-1.906 4.328,-4.875 4.328,-9 0,-4.266 -1.313,-7.297 -3.875,-9.109 -2.625,-1.797 -6.672,-2.719 -12.172,-2.719 h -10.469 v 23.641 h 9.547 c 5.547,-0.001 9.766,-0.938 12.641,-2.813 z"
   id="path8"
   style="fill:#ffcc00" />
</g>
</svg>
