<?xml version="1.0" encoding="UTF-8" standalone="no"?>
<!-- Uploaded to: SVG Repo, www.svgrepo.com, Generator: SVG Repo Mixer Tools -->

<svg
   height="800px"
   width="800px"
   version="1.1"
   id="Layer_1"
   viewBox="0 0 450.409 450.409"
   xml:space="preserve"
   sodipodi:docname="twitter.svg"
   inkscape:version="1.2.2 (b0a8486541, 2022-12-01)"
   xmlns:inkscape="http://www.inkscape.org/namespaces/inkscape"
   xmlns:sodipodi="http://sodipodi.sourceforge.net/DTD/sodipodi-0.dtd"
   xmlns="http://www.w3.org/2000/svg"
   xmlns:svg="http://www.w3.org/2000/svg"><defs
   id="defs19806" /><sodipodi:namedview
   id="namedview19804"
   pagecolor="#ffffff"
   bordercolor="#000000"
   borderopacity="0.25"
   inkscape:showpageshadow="2"
   inkscape:pageopacity="0.0"
   inkscape:pagecheckerboard="0"
   inkscape:deskcolor="#d1d1d1"
   showgrid="false"
   inkscape:zoom="0.76721086"
   inkscape:cx="422.96065"
   inkscape:cy="385.8131"
   inkscape:window-width="1880"
   inkscape:window-height="1056"
   inkscape:window-x="40"
   inkscape:window-y="0"
   inkscape:window-maximized="1"
   inkscape:current-layer="Layer_1" />
<g
   id="g19801"
   transform="matrix(0.87947681,0,0,0.87947681,19.150221,30.120854)">
	<g
   id="g19788">
		<path
   style="fill:#15ace5"
   d="m 440.409,91.608 -44.025,45.809 c 0,182.439 -146.537,266.406 -244.902,262.844 C 53.224,396.697 10.002,359.904 10.002,359.904 84.266,369.916 139.09,324.621 139.09,324.621 71.776,315.984 58.492,263.04 58.492,263.04 c 17.641,4.764 39.059,-2.382 39.059,-2.382 -75.35,-23.394 -69.211,-87.347 -69.211,-87.347 6.051,6.642 38.275,11.395 38.275,11.395 C 0.182,135.538 40.344,66.821 40.344,66.821 c 82.98,94.986 181.84,92.613 181.84,92.613 -15.279,-47.793 22.008,-83.589 22.008,-83.589 69.201,-59.19 127.897,1.985 127.897,1.985 24.295,0 55.83,-22.019 55.83,-22.019 -2.381,25.784 -37.287,50.175 -37.287,50.175 12.994,1.396 49.777,-14.378 49.777,-14.378 z"
   id="path19786" />
	</g>
	<g
   id="XMLID_44_">
		<g
   id="g19792">
			<path
   style="fill:#ffffff"
   d="m 304.969,97.95 c 12.297,0 22.309,10.013 22.309,22.309 0,12.297 -10.012,22.309 -22.309,22.309 -12.297,0 -22.309,-10.012 -22.309,-22.309 10e-4,-12.296 10.013,-22.309 22.309,-22.309 z"
   id="path19790" />
		</g>
		<g
   id="g19798">
			<path
   style="fill:#231f20"
   d="m 448.633,85.921 c -2.706,-3.912 -7.791,-5.376 -12.164,-3.504 -3.367,1.443 -7.522,3.117 -11.962,4.788 7.977,-10.449 12.463,-20.661 13.369,-30.473 0.357,-3.874 -1.566,-7.602 -4.928,-9.559 -3.361,-1.957 -7.556,-1.786 -10.749,0.435 -7.513,5.229 -29.439,18.214 -46.366,20.014 -8.979,-7.985 -34.525,-27.579 -68.975,-27.579 -24.017,0 -47.288,9.489 -69.167,28.202 -0.146,0.125 -0.287,0.253 -0.426,0.386 -1.555,1.492 -34.812,34.084 -27.852,80.054 -10.915,-1.138 -28.271,-3.981 -48.845,-11.082 C 117.718,122.816 79.802,96.788 47.876,60.242 45.759,57.819 42.607,56.559 39.4,56.866 c -3.204,0.304 -6.065,2.131 -7.689,4.909 -0.457,0.783 -11.229,19.468 -13.115,44.808 -1.211,16.261 1.146,37.414 14.884,58.149 -2.463,-1.476 -5.49,-1.847 -8.302,-0.909 -3.752,1.25 -6.415,4.595 -6.793,8.532 -0.072,0.754 -1.674,18.722 7.073,39.703 5.277,12.659 15.101,28.122 33.359,40.985 -2.697,-0.076 -5.36,0.922 -7.334,2.861 -2.53,2.485 -3.555,6.126 -2.691,9.567 0.158,0.629 4.016,15.592 17.022,31.458 9.105,11.107 24.26,24.456 48.027,32.264 -17.818,9.891 -47.021,22.152 -82.28,22.154 -6.747,0 -13.551,-0.456 -20.224,-1.355 -4.391,-0.59 -8.66,1.783 -10.469,5.836 -1.808,4.053 -0.729,8.813 2.65,11.688 1.873,1.595 47.025,39.089 147.601,42.736 2.111,0.077 4.27,0.115 6.418,0.115 56.159,0 117.094,-25.072 163.001,-67.069 38.658,-35.365 84.645,-98.959 85.822,-201.832 l 41.259,-42.93 c 3.296,-3.428 3.72,-8.703 1.014,-12.615 z m -59.459,44.566 c -1.79,1.863 -2.79,4.347 -2.79,6.93 0,97.974 -43.148,158.013 -79.346,191.126 -42.318,38.714 -98.206,61.826 -149.501,61.826 -1.907,0 -3.823,-0.034 -5.693,-0.102 -46.07,-1.671 -79.63,-10.936 -101.81,-19.896 55.901,-5.902 93.681,-36.602 95.424,-38.041 3.072,-2.538 4.345,-6.658 3.237,-10.487 -1.106,-3.828 -4.381,-6.634 -8.334,-7.142 -38.738,-4.97 -57.455,-25.739 -65.913,-40.062 13.902,-0.423 25.741,-4.321 26.267,-4.496 4.118,-1.374 6.88,-5.249 6.834,-9.591 -0.045,-4.342 -2.887,-8.158 -7.034,-9.446 -45.354,-14.081 -57.863,-43.824 -61.179,-61.918 8.851,2.615 18.754,4.368 25.819,5.41 4.535,0.677 8.949,-1.835 10.701,-6.074 1.752,-4.239 0.395,-9.127 -3.293,-11.856 -42.509,-31.462 -36.275,-71.533 -29.262,-91.831 79.114,82.127 167.953,84.604 178.224,84.603 0.592,0 0.898,-0.008 0.898,-0.008 3.145,-0.084 6.081,-1.644 7.901,-4.209 1.821,-2.564 2.344,-5.837 1.386,-8.833 -12.777,-39.965 16.446,-70.378 19.238,-73.163 18.075,-15.383 36.886,-23.183 55.911,-23.183 33.634,0 57.794,24.484 58.014,24.711 1.886,1.965 4.492,3.076 7.216,3.076 10.698,0 22.313,-3.552 32.545,-7.915 -7.118,8.089 -15.291,14.758 -19.729,17.874 -3.418,2.389 -4.995,6.647 -3.958,10.686 1.038,4.039 4.473,7.01 8.618,7.455 0.893,0.096 1.85,0.144 2.842,0.144 3.45,0 7.683,-0.649 12.233,-1.68 z"
   id="path19794" />
			<path
   style="fill:#231f20"
   d="m 304.969,87.95 c -17.815,0 -32.309,14.494 -32.309,32.309 0,17.815 14.493,32.309 32.309,32.309 17.815,0 32.309,-14.493 32.309,-32.309 0,-17.815 -14.493,-32.309 -32.309,-32.309 z m 0,44.618 c -6.787,0 -12.309,-5.521 -12.309,-12.309 0,-6.787 5.521,-12.309 12.309,-12.309 6.787,0 12.309,5.522 12.309,12.309 0,6.788 -5.521,12.309 -12.309,12.309 z"
   id="path19796" />
		</g>
	</g>
</g>
</svg>
