<?xml version="1.0" encoding="UTF-8" standalone="no"?>
<!-- Created with Inkscape (http://www.inkscape.org/) -->

<svg
   width="120mm"
   height="120mm"
   viewBox="-60 -60 120 120"
   sodipodi:docname="video.svg"
   version="1.1"
   id="svg263"
   inkscape:version="1.2.2 (b0a8486541, 2022-12-01)"
   xml:space="preserve"
   xmlns:inkscape="http://www.inkscape.org/namespaces/inkscape"
   xmlns:sodipodi="http://sodipodi.sourceforge.net/DTD/sodipodi-0.dtd"
   xmlns="http://www.w3.org/2000/svg"
   xmlns:svg="http://www.w3.org/2000/svg"
   xmlns:rdf="http://www.w3.org/1999/02/22-rdf-syntax-ns#"
   xmlns:cc="http://creativecommons.org/ns#"
   xmlns:dc="http://purl.org/dc/elements/1.1/"><defs
     id="defs265" /><sodipodi:namedview
     pagecolor="#ffffff"
     bordercolor="#666666"
     borderopacity="1.0"
     inkscape:pageopacity="0.0"
     inkscape:pageshadow="2"
     inkscape:zoom="1.4142136"
     inkscape:cx="105.00535"
     inkscape:cy="165.46298"
     inkscape:document-units="mm"
     inkscape:current-layer="Template"
     showgrid="false"
     units="mm"
     showguides="true"
     inkscape:guide-bbox="true"
     inkscape:snap-global="true"
     inkscape:snap-bbox="true"
     inkscape:snap-bbox-midpoints="true"
     inkscape:window-width="1880"
     inkscape:window-height="1056"
     inkscape:window-x="40"
     inkscape:window-y="0"
     inkscape:window-maximized="1"
     inkscape:bbox-paths="true"
     inkscape:bbox-nodes="true"
     inkscape:snap-bbox-edge-midpoints="true"
     inkscape:snap-grids="true"
     id="namedview253"
     inkscape:showpageshadow="2"
     inkscape:pagecheckerboard="0"
     inkscape:deskcolor="#d1d1d1"><sodipodi:guide
       orientation="1,0"
       position="226.771653543,226.771653543"
       id="guide2827"
       inkscape:locked="false" /><sodipodi:guide
       orientation="0,1"
       position="226.771653543,226.771653543"
       id="guide2829"
       inkscape:locked="false" /><inkscape:grid
       type="xygrid"
       id="grid3072"
       empspacing="10"
       visible="true"
       enabled="true"
       snapvisiblegridlinesonly="true"
       units="mm"
       dotted="false"
       spacingx="0.1mm"
       spacingy="0.1mm" /></sodipodi:namedview><metadata
     id="metadata2822"><rdf:RDF><cc:Work
         rdf:about=""><dc:format>image/svg+xml</dc:format><dc:type
           rdf:resource="http://purl.org/dc/dcmitype/StillImage" /></cc:Work></rdf:RDF></metadata><g
     inkscape:label="Layer 1"
     inkscape:groupmode="layer"
     id="Template"
     style="fill:none;stroke:black;stroke-width:0.05"><path
       style="fill:#55bdaa;fill-opacity:0.992157;stroke-width:0.0125"
       d=""
       id="path7292"
       transform="matrix(0.26458333,0,0,0.26458333,-60,-60)" /><path
       style="fill:none;stroke:#152b3b;stroke-width:0.00569512"
       d="m 54.342205,-2.5176998 c 0.183725,0.526799 0.0541,0.828868 0.08862,1.139025 0.09044,0.81406099 0.02529,1.43118399 0.02529,2.16414699 0,0.30730901 0,0.71656001 0,1.36683001 0,0.209352 0,0.417224 0,0.911219 0,0.300817 0,0.816226 0,1.139025 v 2.619757 c 0,0.309359 0,0.874544 0,1.139025 0,0.578511 0,0.83126 0,1.139025 0,0.05353 -0.01743,0.251838 0.0032,0.45561 0.02961,0.292729 0.0014,0.319041 0.237258,0.41768 0.149554,0.06242 0.467684,0.03747 0.670772,0.03793 0.356173,7.97e-4 0.538417,0.02642 0.91122,0.08862 0.463241,0.07723 1.010429,0.09921 1.480732,0.164475 0.559945,0.0778 1.175816,0.236803 1.708537,0.386016 0.846979,0.237258 1.666735,0.367677 2.505855,0.756198 1.764577,0.816909 3.476873,1.622655 5.011709,2.841184 0.37155,0.295007 0.703917,0.593432 1.025122,0.879668 0.309132,0.275531 0.486819,0.382371 0.797318,0.692869 0.310498,0.310498 0.417338,0.488186 0.692868,0.797318 0.144884,0.162538 0.282592,0.288401 0.42087,0.45561 0.302183,0.365399 0.577941,0.739341 0.857458,1.139024 0.435449,0.622933 0.832285,1.287782 1.218073,1.936342 0.376448,0.632729 0.756996,1.225477 1.021933,1.936343 0.70836,1.900577 1.273202,3.787371 1.474468,5.809026 0.05456,0.548669 0.03258,0.668038 0.09807,1.139025 0.06846,0.493198 0.0336,1.307031 0.02529,1.82244 -0.0091,0.564728 -0.05741,0.78718 -0.139189,1.36683 -0.131329,0.929786 -0.250585,1.834399 -0.45242,2.733659 -0.179511,0.799254 -0.546049,1.720839 -0.81315,2.505855 -0.253092,0.743669 -0.609606,1.373891 -0.961907,2.050244 -0.346149,0.664621 -0.787635,1.320813 -1.20224,1.936342 -0.431121,0.639904 -0.89983,1.218985 -1.398495,1.82244 -1.738266,2.103551 -3.982486,3.619935 -6.308944,4.869331 -1.080251,0.580105 -2.383637,1.026945 -3.530977,1.350997 -1.04198,0.294324 -2.190914,0.491034 -3.303172,0.604367 -0.445245,0.04533 -0.599127,0.07142 -1.025122,0.113902 -0.422009,0.04203 -1.04198,0.02586 -1.480733,0.01264 -0.248649,-0.0075 -0.422578,0.0088 -0.683414,-0.0064 -0.336241,-0.01948 -0.49559,-0.07575 -0.797318,-0.110713 -0.202518,-0.02346 -0.460621,-0.08224 -0.683415,-0.104449 -1.912308,-0.190331 -3.671418,-0.701411 -5.467319,-1.420591 -0.433854,-0.173702 -0.831716,-0.339885 -1.252927,-0.550491 -1.207936,-0.604025 -2.381473,-1.45966 -3.417075,-2.297071 -0.168006,-0.135772 -0.29421,-0.260951 -0.45561,-0.401848 -0.209352,-0.1827 -0.365171,-0.290452 -0.569512,-0.474518 -0.268582,-0.241815 -0.401279,-0.391825 -0.683415,-0.673961 -0.267671,-0.267671 -0.425426,-0.413238 -0.658129,-0.683415 -0.138049,-0.160375 -0.236005,-0.294438 -0.373372,-0.45561 -0.148529,-0.174499 -0.328836,-0.392052 -0.471328,-0.569512 -0.22268,-0.277125 -0.411416,-0.510853 -0.61701,-0.797318 -0.166298,-0.231677 -0.301728,-0.443194 -0.461989,-0.683415 -0.723964,-1.08606 -1.217959,-2.214378 -1.727445,-3.417074 -0.178257,-0.420756 -0.419388,-0.935139 -0.544226,-1.36683 -0.192723,-0.666101 -0.312662,-1.358287 -0.484085,-2.050244 -0.147846,-0.596621 -0.249219,-1.576525 -0.332254,-2.164147 -0.03588,-0.254117 -0.02529,-0.429185 -0.02529,-0.683415 0,-0.243182 0.0036,-0.371778 0,-0.569513 -0.0026,-0.143061 -0.008,-0.865089 -0.0032,-1.025122 0.0085,-0.284756 0.0032,-0.402531 0.0032,-0.683415 0,-0.273138 -0.0097,-0.461419 0.0032,-0.683415 0.01845,-0.31961 0.150465,-0.907005 0.19933,-1.252927 0.06344,-0.449231 0.08907,-0.823971 0.164475,-1.252927 0.15673,-0.89049 0.479643,-1.86242 0.772031,-2.73366 0.157071,-0.468025 0.327014,-0.913498 0.544226,-1.36683 0.428501,-0.894362 0.880124,-1.794875 1.430045,-2.619757 0.541037,-0.811441 1.122054,-1.685415 1.7877,-2.391952 0.37417,-0.397178 0.617124,-0.620313 1.021933,-1.025122 0.33886,-0.33886 0.482377,-0.504247 0.797317,-0.787864 0.187028,-0.168461 0.376904,-0.311181 0.569513,-0.465064 0.516206,-0.412213 1.150984,-0.882516 1.708537,-1.252927 0.283731,-0.188508 0.515523,-0.33157 0.797317,-0.499918 0.781713,-0.466772 1.779157,-0.906891 2.619758,-1.294046 0.344896,-0.158894 0.785016,-0.29011 1.139024,-0.408112 0.496046,-0.165387 0.96726,-0.277011 1.480733,-0.401848 0.945504,-0.229856 2.240575,-0.382941 3.189269,-0.541037 0.27872,-0.04647 0.531355,-0.04431 0.797318,-0.04431 0.365399,0 0.591495,0 1.025122,0 m 20.388533,20.160762 c -0.0434,0 0.18361,0 0.455609,0 0.648789,0 0.668722,0 1.252928,0 0.278719,0 0.884908,0 1.252927,0 h 2.847562 c 0.440347,0 0.852674,0 1.139025,0 1.383345,0 1.833602,0.0287 2.278049,-0.04431 0.512448,-0.08417 0.998811,-0.07506 1.594635,-0.06959 0.366538,0.0034 0.682959,-0.0097 1.36683,0.113903 m -65.038316,0 c 0.600266,0 0.901538,0 1.252927,0 0.609036,0 1.185041,0 1.708537,0 0.461647,0 0.966463,0 2.391952,0 0.286351,0 0.698678,0 1.139025,0 h 2.847562 c 0.346947,0 0.875454,0 1.139025,0 0.431804,0 0.633525,0 0.91122,0 0.09283,0 0.205366,0 0.45561,0 0.252407,0 0.470303,0 0.455609,0 m 20.274642,20.160739 c 0,0.06082 0,0.193976 0,0.45561 0,0.646282 0,0.708245 0,1.366829 0,0.27872 0,0.884909 0,1.252928 v 2.847562 c 0,0.440347 0,0.852674 0,1.139025 0,1.335164 -0.06572,1.735418 -0.104448,2.164147 -0.05297,0.586825 -0.0031,1.138569 -0.0095,1.822439 -0.0031,0.331798 0,0.506639 0,1.36683"
       id="path18822" /><path
       style="fill:#999999;stroke-width:0.00853424"
       d="M 0.13819901,55.902363 C -9.5268044,55.147746 -18.640907,51.909329 -25.635205,46.744576 l -1.621507,-1.197359 -2.305907,-2.315423 -2.305904,-2.315425 -1.107791,-1.578231 c -2.784258,-3.96664 -4.614732,-8.599724 -5.111735,-12.938239 l -0.175031,-1.5279 -0.0016,-3.499039 c -0.0017,-3.573052 -0.27075,-13.1598441 -0.481495,-17.1538218 l -0.117077,-2.2189024 h -0.197772 -0.197767 l -1.142152,1.3654784 c -0.628181,0.7510132 -1.756834,2.2871764 -2.508115,3.4136961 l -1.365967,2.0482176 -1.168497,2.3895871 -1.168496,2.389586 -0.841356,2.479484 -0.84136,2.479485 -0.454224,2.024825 c -0.511415,2.279771 -0.598202,2.49047 -1.230746,2.988031 l -0.450809,0.354606 h -0.483096 -0.483098 l -0.593247,-0.520879 -0.593249,-0.520879 -0.929869,-1.826038 c -2.45065,-4.812483 -4.150107,-10.674544 -4.982836,-17.1876674 l -0.261874,-2.0482176 -0.103971,-3.1576696 -0.103971,-3.1576682 0.199824,-2.6456139 c 0.736761,-9.7544793 3.528373,-18.1234843 8.629109,-25.8692943 l 1.580526,-2.400135 1.712074,-2.03767 1.712073,-2.037669 2.195656,-2.14523 c 7.924415,-7.74241 16.894651,-12.116749 28.566458,-13.930449 l 1.962875,-0.305014 4.6084901,-0.0025 4.6084897,-0.0025 1.7921912,0.225307 c 9.292903,1.168278 17.485307,4.392976 24.41963,9.61206 l 1.974583,1.486158 1.739001,1.653503 c 7.818393,7.433998 12.223252,16.554673 13.186834,27.304582 l 0.198895,2.218901 -0.107598,2.304246 -0.107612,2.3042443 -0.327963,2.2304926 C 37.617978,6.8064246 29.02639,19.154264 17.323579,25.461381 l -1.675289,0.90288 -2.293267,0.739416 c -1.261296,0.40668 -2.542833,0.853699 -2.847858,0.99338 -0.305024,0.139676 -0.9002278,0.344964 -1.3226728,0.456188 l -0.7680823,0.202224 0.4022686,0.183371 0.4022672,0.183367 1.9873193,-0.402891 C 26.422822,25.634839 41.51361,16.961505 55.543152,3.2381253 l 2.748694,-2.68871108 h 0.260062 c 0.143027,0 0.356192,0.1158302 0.473688,0.2574052 l 0.213628,0.25740508 -0.08934,0.7240328 C 59.074194,2.4015934 57.093953,13.846661 54.831051,26.749532 l -0.598689,3.413694 -0.33647,0.682739 c -0.491192,0.996688 -2.52607,3.46315 -4.771158,5.783093 -7.151118,7.389548 -16.26483,13.103219 -26.129236,16.38123 l -2.289784,0.76091 -2.698804,0.62299 c -3.036137,0.700862 -6.155814,1.182099 -9.3864392,1.447942 l -2.1855292,0.179844 -2.7643301,-0.02983 c -1.520382,-0.01648 -3.10996743,-0.0568 -3.53241249,-0.08979 z m -1.80438341,-9.877642 0.2682202,-0.268219 v -3.553279 -3.55328 L -1.696663,38.282456 -1.9953617,37.914971 -4.9823451,37.48309 c -1.6428417,-0.237535 -3.5219147,-0.532793 -4.1757184,-0.656127 l -1.1887345,-0.224245 -0.23249,0.08922 c -0.12786,0.04907 -0.298607,0.263118 -0.379416,0.475662 l -0.146922,0.386444 0.101392,3.439319 0.101392,3.439315 0.411446,0.323643 0.411446,0.323646 1.2260077,0.271656 c 0.6743031,0.149419 2.0324902,0.415802 3.0181959,0.591982 l 1.7921911,0.320326 1.0545874,0.01448 1.0545874,0.01448 0.2682202,-0.26822 z M 12.993968,44.492436 c 2.303883,-0.576741 4.461251,-1.228074 5.41198,-1.633937 l 0.772563,-0.329802 0.220766,-0.353504 0.220765,-0.353503 0.182816,-3.324187 0.182815,-3.324186 -0.24714,-0.24714 -0.24714,-0.247138 -1.697083,0.523195 c -0.933396,0.287758 -2.618783,0.752743 -3.745302,1.0333 -1.126519,0.280557 -2.265901,0.596423 -2.531961,0.701921 l -0.48374,0.191815 -0.156326,0.41117 -0.156325,0.411168 v 3.283105 3.283105 l 0.204822,0.204822 c 0.254821,0.254823 0.03185,0.279636 2.068492,-0.230204 z m -34.62377,-5.669295 c -0.0031,-0.58544 -0.02233,-2.079015 -0.04268,-3.319051 l -0.03698,-2.254611 -0.810753,-0.724514 c -1.668699,-1.491205 -5.160339,-4.324613 -5.329265,-4.324613 h -0.17532 v 3.166145 3.166145 l 0.243246,0.460907 c 0.415589,0.787461 3.300663,3.42361 4.962641,4.534464 l 0.682738,0.456336 0.256028,-0.04839 0.256027,-0.04839 -0.0057,-1.064443 z m 54.524065,-3.456292 c 3.004076,-2.042196 3.405818,-2.359232 3.692791,-2.914172 l 0.243555,-0.470988 0.275922,-2.93143 0.275922,-2.931429 -0.160686,-0.160686 -0.160686,-0.160686 -2.203709,1.392581 c -3.699373,2.337735 -3.977205,2.529972 -4.243222,2.935964 l -0.25721,0.392551 -0.195095,2.931117 -0.195095,2.931112 0.100638,0.262254 0.100639,0.262252 h 0.231612 c 0.127383,0 1.249977,-0.692291 2.494643,-1.538427 z M 47.796728,23.359254 c 0.973402,-0.878948 2.091947,-1.964043 2.485658,-2.411321 l 0.715839,-0.813234 0.175665,-0.618333 c 0.154844,-0.545045 0.852486,-4.899973 0.852486,-5.32153 0,-0.08873 -0.104183,-0.161323 -0.231519,-0.161323 h -0.231516 l -2.747088,2.471488 -2.747086,2.47149 -0.09721,0.558167 c -0.185745,1.066488 -0.56348,5.167411 -0.487692,5.294669 0.04194,0.0704 0.181179,0.128017 0.309443,0.128017 h 0.233205 z m -53.3879162,-3.468837 0.1104319,-0.287749 -0.022698,-2.912591 -0.022699,-2.912592 1.377573,-0.04952 1.3775743,-0.04952 0.046474,3.207184 0.046474,3.207182 h 2.21890239 2.21890101 l 0.046332,-3.171946 0.046332,-3.171945 2.0018855,-0.196977 2.0018856,-0.196978 1.2801353,-0.353758 1.2801353,-0.353762 1.2558967,-0.626616 1.2558964,-0.626618 1.0896,-0.998421 1.0896,-0.9984221 0.687553,-1.3943276 0.687553,-1.394329 0.189112,-1.486279 0.189111,-1.486279 L 14.66361,2.3061337 14.466445,0.97611282 13.95815,-0.11175288 13.449853,-1.1996201 12.380919,-2.2453137 11.311986,-3.2910073 10.168586,-3.8683914 9.0251892,-4.445774 9.6595858,-4.9131909 c 1.2918692,-0.9518336 2.2249082,-2.2663628 2.6682262,-3.7591818 l 0.270417,-0.910588 v -1.2986373 -1.298638 l -0.261644,-1.004522 c -0.14391,-0.552485 -0.46329,-1.375009 -0.709746,-1.827827 l -0.4481,-0.823309 -0.990685,-0.944953 L 9.1973716,-17.7258 8.1081174,-18.235525 7.0188631,-18.745246 5.8401256,-18.985775 C 5.1918181,-19.118069 4.04692,-19.259535 3.2959083,-19.30015 L 1.9304298,-19.374 1.8450908,-22.427015 1.7597518,-25.480034 H -0.45915034 -2.6780514 l -0.085339,3.072328 -0.085339,3.072326 -0.1280153,-0.04268 c -0.070405,-0.02346 -0.6656715,-0.04268 -1.3228076,-0.04268 h -1.1947922 v -2.802339 c 0,-1.541287 -0.046615,-2.923833 -0.1036025,-3.072327 l -0.1036022,-0.269978 h -2.1905676 -2.1905682 l -0.136332,0.213357 -0.136333,0.213355 -0.01547,2.8163 -0.01547,2.8163 -4.338736,0.09274 c -2.386307,0.05101 -4.360236,0.108604 -4.386511,0.128015 -0.02628,0.01941 -0.02628,1.01459 0,2.211516 l 0.04776,2.176232 2.056424,0.08534 2.056422,0.08534 0.475433,0.311974 0.475436,0.311974 0.241772,0.578639 0.241769,0.578638 -0.0012,10.0332147 -0.0012,10.0332131 -0.315686,0.4787831 c -0.173628,0.2633292 -0.499555,0.6089664 -0.724285,0.768081 l -0.408466,0.2892991 -1.877533,0.085339 -1.877533,0.085339 v 2.389611 2.389587 l 4.166407,0.08534 4.166404,0.08534 0.0297,3.000078 0.02968,3.000079 0.123779,0.200261 0.123779,0.200261 h 2.1905694 2.1905662 z m 0.096801,-16.1833332 v -4.52314798 h 3.2346091 3.23461056 l 0.90449604,0.1919154 c 0.4974747,0.1055578 1.2615643,0.3717362 1.6979798,0.5915203 L 4.3707911,0.36697782 4.8830113,0.98839012 5.3952343,1.6098038 5.606126,2.3630386 5.8170162,3.116272 5.7278093,4.2276367 5.6386023,5.3389986 5.1911975,6.015077 4.7437898,6.6911526 4.1011738,7.1164173 3.4585565,7.5416791 2.1124525,7.8859548 0.76634714,8.2302304 H -2.3640163 -5.4943825 Z m 0,-9.354801 c -0.046927,-0.049067 -0.063448,-1.9494095 -0.036669,-4.2229795 l 0.048684,-4.1337613 3.023641,0.09149 3.02364374,0.09149 0.89849936,0.280038 0.8985021,0.280037 0.6050473,0.53124 0.6050473,0.531238 0.3583396,0.698899 0.3583438,0.6989 0.00136,0.9541263 0.00137,0.954126 -0.3924681,0.810731 -0.3924681,0.81073 -0.6880213,0.4984 -0.6880185,0.4983986 -0.8681653,0.2736809 -0.86816245,0.2736794 -2.90164025,0.084375 c -1.5959047,0.046403 -2.9400477,0.044221 -2.9869847,-0.00482 z M -48.590948,3.2486981 c 0.586645,-0.267295 0.598309,-0.3567159 0.47852,-3.66871798 l -0.108944,-3.01209342 -0.313481,-0.3134796 -0.313481,-0.3134811 h -1.844909 -1.84491 l -0.331322,0.2422685 -0.331321,0.2422686 v 3.27184912 3.27185188 l 0.426713,0.346911 0.426711,0.3469125 1.674923,-0.1145266 1.674917,-0.1145125 z m 1.259119,-19.1561771 0.7024,-1.351291 -0.0027,-2.915827 -0.0027,-2.915832 -0.171314,-0.256028 -0.171315,-0.256025 -0.234655,0.30653 c -0.129064,0.168593 -0.51566,1.15244 -0.859105,2.186328 l -0.624448,1.879798 -0.100981,2.008432 -0.100981,2.008433 0.122404,0.65251 0.122405,0.65251 0.309205,-0.324125 c 0.170061,-0.178269 0.625283,-0.932202 1.011603,-1.675413 z m 10.61818,-13.16847 c 0.97687,-1.085938 1.948947,-2.211013 2.16017,-2.500172 l 0.384041,-0.525743 v -2.716934 -2.716937 l -0.17669,-0.330149 c -0.09717,-0.181581 -0.252513,-0.330148 -0.345185,-0.330148 -0.525266,0 -3.541285,3.444632 -4.109781,4.693831 l -0.310706,0.682738 -0.0038,2.325581 c -0.002,1.27907 0.04425,2.565607 0.102936,2.858969 l 0.106677,0.533392 h 0.208082 0.20808 l 1.77613,-1.974428 z m 53.213255,-7.370566 0.158356,-0.298697 0.124072,-2.004384 0.124073,-2.004385 -0.260255,-0.397196 -0.260255,-0.3972 -1.63287,-0.97442 c -0.89808,-0.535931 -2.115081,-1.202544 -2.70445,-1.481364 l -1.07158,-0.50694 -0.388266,-1.34e-4 -0.388265,-1.35e-4 -0.166459,0.437823 -0.1664614,0.437824 v 2.301071 2.301072 l 0.4693814,0.263467 c 1.030894,0.578647 5.437691,2.588177 5.711938,2.604684 l 0.292691,0.01761 z m -38.917833,-2.461821 c 3.584139,-1.413551 3.276192,-0.968278 3.093457,-4.472932 l -0.121044,-2.321353 -0.213954,-0.257801 -0.213954,-0.257796 h -0.478353 -0.478356 l -2.274373,0.853127 -2.274373,0.853125 -0.487428,0.535241 -0.487429,0.535242 0.06127,2.511808 0.06127,2.511809 0.233709,0.281601 0.233708,0.281601 h 0.337103 c 0.185408,0 1.539346,-0.474153 3.008755,-1.053672 z m 23.25608422,-2.394096 c 0.0562361,-0.08731 0.15309704,-1.223624 0.21522028,-2.525146 l 0.1129681,-2.366398 -0.19468684,-0.427297 -0.19469105,-0.427296 -0.44724051,-0.180122 c -0.71942798,-0.289744 -3.8559506,-0.702133 -6.1956083,-0.814598 l -2.1639869,-0.104014 -0.5201249,0.215444 -0.5201264,0.215443 -0.091814,0.535748 -0.091814,0.535747 0.1303108,2.560272 0.1303107,2.560272 3.4990377,0.122688 c 1.9244714,0.06747 3.9598875,0.191629 4.52314799,0.275899 l 1.02410744,0.153213 0.34137103,-0.08555 c 0.18775257,-0.04705 0.38738288,-0.15699 0.44362463,-0.244293 z"
       id="path19698" /></g></svg>
