<?xml version="1.0" encoding="UTF-8" standalone="no"?>
<svg
   version="1.0"
   width="379.54663pt"
   height="113pt"
   viewBox="0 0 379.54663 113"
   preserveAspectRatio="xMidYMid"
   id="svg44"
   sodipodi:docname="whatsonchain.svg"
   inkscape:version="1.2.2 (b0a8486541, 2022-12-01)"
   xmlns:inkscape="http://www.inkscape.org/namespaces/inkscape"
   xmlns:sodipodi="http://sodipodi.sourceforge.net/DTD/sodipodi-0.dtd"
   xmlns="http://www.w3.org/2000/svg"
   xmlns:svg="http://www.w3.org/2000/svg">
  <defs
     id="defs48" />
  <sodipodi:namedview
     id="namedview46"
     pagecolor="#ffffff"
     bordercolor="#000000"
     borderopacity="0.25"
     inkscape:showpageshadow="2"
     inkscape:pageopacity="0.0"
     inkscape:pagecheckerboard="0"
     inkscape:deskcolor="#d1d1d1"
     inkscape:document-units="pt"
     showgrid="false"
     inkscape:zoom="1.2755829"
     inkscape:cx="246.55395"
     inkscape:cy="-77.611577"
     inkscape:window-width="1880"
     inkscape:window-height="1056"
     inkscape:window-x="40"
     inkscape:window-y="0"
     inkscape:window-maximized="1"
     inkscape:current-layer="g42" />
  <metadata
     id="metadata2"> Created by potrace 1.16, written by Peter Selinger 2001-2019 </metadata>
  <g
     transform="matrix(0.1,0,0,-0.1,-46.10587,236)"
     fill="#000000"
     stroke="none"
     id="g42">
    <path
       d="m 880,2345 c -201,-45 -348,-193 -405,-406 -23,-88 -17,-246 14,-340 24,-77 80,-165 143,-228 49,-49 177,-114 256,-130 33,-7 199,-11 437,-11 335,0 386,2 399,16 26,25 20,67 -15,100 -17,16 -49,55 -70,86 -21,31 -44,60 -50,64 -7,4 -37,10 -68,13 l -56,6 -5,136 c -4,106 -9,141 -23,162 -54,83 -188,73 -240,-18 -7,-11 -14,-78 -17,-150 l -5,-130 h -125 c -100,0 -132,4 -161,18 -200,100 -204,416 -6,518 21,11 72,24 113,28 82,10 115,27 144,74 35,57 22,124 -35,177 -21,20 -38,25 -93,27 -37,1 -96,-4 -132,-12 z"
       id="path4"
       style="fill:#e6e6e6" />
    <path
       d="m 1615,2345 c -68,-36 -95,-130 -56,-192 30,-48 63,-64 145,-74 85,-9 137,-32 182,-81 53,-56 67,-94 71,-193 3,-49 9,-102 15,-117 18,-47 80,-95 140,-108 94,-21 114,6 125,176 14,210 -78,405 -243,517 -100,68 -311,108 -379,72 z"
       id="path6"
       style="fill:#e6e6e6" />
    <path
       d="m 2120,2340 c -11,-11 -20,-26 -20,-34 0,-13 25,-50 61,-89 9,-10 32,-41 50,-68 19,-27 41,-51 49,-55 25,-10 400,-4 423,7 13,6 36,31 52,56 16,26 46,66 67,91 29,33 37,50 32,66 -13,45 -20,46 -366,46 h -328 z"
       id="path8"
       style="fill:#e7b900;fill-opacity:1" />
    <path
       d="m 3124,2345 c -133,-29 -243,-104 -319,-215 -87,-128 -121,-286 -95,-439 16,-95 43,-126 97,-116 69,13 115,37 144,78 26,36 29,48 29,117 0,110 21,172 79,230 79,79 95,82 478,78 l 328,-3 40,-22 c 22,-12 62,-44 90,-72 58,-60 101,-76 160,-60 74,21 116,95 96,167 -9,31 -59,103 -91,130 -44,38 -138,93 -193,113 l -62,23 -360,3 c -276,1 -374,-1 -421,-12 z"
       id="path10"
       style="fill:#e6e6e6" />
    <path
       d="m 1653,2002 c -18,-12 -33,-59 -43,-140 -35,-271 120,-521 377,-609 41,-14 110,-17 447,-20 435,-5 481,-1 595,53 179,83 302,282 303,494 1,87 -16,195 -34,218 -23,28 -134,5 -189,-40 -32,-26 -49,-76 -49,-146 0,-137 -56,-235 -162,-283 l -53,-24 h -375 -375 l -51,23 c -61,28 -117,82 -140,137 -11,24 -20,80 -24,140 -5,84 -9,105 -29,132 -39,52 -157,91 -198,65 z"
       id="path12"
       style="fill:#e7b900;fill-opacity:1" />
    <path
       d="m 3997,1608 c -95,-93 -114,-98 -384,-98 -122,0 -233,-4 -246,-9 -14,-6 -40,-31 -58,-58 -18,-26 -50,-68 -71,-92 -41,-47 -48,-80 -22,-105 13,-14 57,-16 328,-16 354,0 417,9 525,74 116,71 200,182 186,248 -17,80 -64,118 -143,118 h -51 z"
       id="path14"
       style="fill:#e6e6e6" />
  </g>
</svg>
