<?xml version='1.0' encoding='utf-8'?>
<svg xmlns="http://www.w3.org/2000/svg" id="a" viewBox="0 0 1847.79 917.79" width="160" height="79.4714">
  <defs>
    <style>
      :root { color-scheme: light; } /* dark-mode fix */
    </style>
  </defs>
  <rect id="fix-darkmode-bg" width="100%" height="100%" fill="transparent" />
  <path d="M979.16,773.85c-4.54-11.73-11.39-22.42-20.17-31.43-8.34-8.5-18.45-15.06-29.62-19.19-23.06-8.53-48.42-8.53-71.48,0-11.24,4.14-21.45,10.69-29.9,19.19-8.89,8.97-15.85,19.67-20.44,31.43-9.83,28.04-9.83,58.6,0,86.64,4.48,11.8,11.35,22.54,20.17,31.57,8.45,8.4,18.59,14.9,29.76,19.05,11.58,4.25,23.82,6.41,36.16,6.4,12.29.03,24.49-2.14,36.02-6.4,11.16-4.08,21.28-10.59,29.62-19.05,8.78-9,15.56-19.76,19.89-31.57,5.14-13.88,7.64-28.59,7.37-43.39.33-14.76-2.17-29.44-7.37-43.25ZM947.17,817.1c.13,9.41-1.13,18.78-3.75,27.81-2.08,7.66-5.73,14.81-10.71,21-4.46,5.92-10.28,10.69-16.97,13.91-7.01,3.24-14.67,4.86-22.39,4.73-7.82.15-15.56-1.47-22.67-4.73-6.68-3.21-12.5-7.98-16.97-13.91-4.87-6.25-8.51-13.38-10.71-21-2.62-9.03-3.89-18.41-3.75-27.81-.15-9.41,1.12-18.78,3.75-27.81,2.23-7.56,5.86-14.64,10.71-20.86,4.48-5.91,10.3-10.67,16.97-13.91,7.19-3.12,14.97-4.64,22.81-4.45,7.72-.06,15.36,1.55,22.39,4.73,6.65,3.27,12.45,8.03,16.97,13.91,4.98,6.14,8.62,13.24,10.71,20.86,2.59,8.95,3.86,18.22,3.75,27.54h-.14ZM1140.34,831.01v81.77h-36.02v-76.07c.07-6.38-.44-12.76-1.53-19.05-.7-4.43-2.26-8.68-4.59-12.52-2.06-3.06-5.03-5.39-8.48-6.68-8.63-2.52-17.72-2.99-26.56-1.39l-8.48,1.11v115.15h-36.71v-140.88h1.25c8.2-2.21,16.51-3.98,24.89-5.28,11.25-1.97,22.65-3.04,34.07-3.2,10.14-.34,20.26,1.31,29.76,4.87,7.56,2.92,14.26,7.7,19.47,13.91,4.91,6.31,8.38,13.62,10.15,21.42,1.98,9,2.96,18.18,2.92,27.4l-.14-.56ZM808.38,43.73c-4.48-4.49-7.11-10.49-7.37-16.83-.77-13.8,9.8-25.62,23.6-26.39.52-.03,1.05-.04,1.57-.04h305.95c13.98.26,25.1,11.8,24.84,25.77-.12,6.57-2.8,12.84-7.46,17.48-19.08,18.42-35.6,39.33-49.09,62.16-9.09,15.41-25.64,24.87-43.53,24.89h-159.37c-16.01-.13-30.73-8.76-38.66-22.67h0c-8.22-13.78-17.52-26.9-27.81-39.22h0c-7-8.88-14.57-17.29-22.67-25.17ZM1384.82,184.61h0c-3.14-9.22-11.96-15.28-21.69-14.88-18.62.36-36.94,4.77-53.68,12.93-9.27,5.01-17.52,11.71-24.34,19.75-5.82,7.53-10.51,15.87-13.91,24.75-3.29,8.88-4.29,18.44-2.92,27.81,3.12,27.52-.65,55.38-10.99,81.08-21.19,52.72-73.72,85.99-130.45,82.61h-296.78c-56.72,3.38-109.25-29.88-130.45-82.61-10.39-26.51-13.89-55.22-10.15-83.44,1.39-8.85.43-17.92-2.78-26.28-8.34-20.3-31.01-53.82-90.4-56.6-11.26-.51-21.49,6.54-25.03,17.24-20.01,64.79-17.26,134.47,7.79,197.48,39.72,102.99,140.74,169.15,251.02,164.38h296.64c110.02,4.42,210.66-61.67,250.33-164.38,25.54-63.73,28.29-134.32,7.79-199.84Z" style="fill:#fbba00;" /><path d="M208.29,721.14h39.08v2.09c-6.4,34.07-13.91,67.17-21.28,98.6-7.37,31.43-16.55,61.89-26.15,90.4v1.11h-36.3v-1.11c-13.91-35.05-26.7-73.57-39.22-114.73-6.26,20.03-12.52,39.22-18.77,57.3-6.26,18.08-13.91,38.94-20.72,57.44v1.11h-36.16v-1.11c-9.87-28.65-18.64-59.1-26.28-90.4-7.65-31.29-14.88-64.67-21.14-98.6v-2.09h40.33v1.39c2.23,12.38,4.45,25.03,6.95,37.97s5.01,25.73,7.65,37.83c2.64,12.1,5.28,24.48,8.07,36.16,2.23,9.46,4.45,18.5,6.68,26.84,2.92-8.07,5.84-16.13,8.62-24.2,2.78-8.07,6.95-20.58,10.43-31.29,3.48-10.71,6.95-21.56,9.87-31.71,2.92-10.15,6.26-20.86,8.9-30.46v-1.25h31.99v1.25c2.78,9.73,5.98,20.03,9.18,30.6,3.2,10.57,6.81,21.56,10.29,31.85,3.48,10.29,6.95,21,10.57,31.29,3.62,10.29,5.56,16.27,8.34,23.78,2.23-8.34,4.31-17.24,6.4-26.56,2.5-11.54,5.15-23.5,7.65-35.88s5.01-25.17,7.51-38.11h0c2.5-13.07,4.73-25.87,6.95-38.11l.56-1.39ZM654.01,879.54c-2.78,1.11-6.54,2.23-10.85,3.48-5.04,1.3-10.23,1.91-15.44,1.81-6.5.77-12.96-1.73-17.24-6.68-3.97-7.11-5.71-15.25-5.01-23.36v-56.32h50.62v-31.01h-50.62v-43.39l-36.44,6.12v125.16c-.11,8.6.73,17.18,2.5,25.59,1.42,7.11,4.42,13.81,8.76,19.61,4.47,5.49,10.26,9.75,16.83,12.38,8.38,2.99,17.25,4.41,26.15,4.17,7.5.15,14.99-.74,22.25-2.64,5.2-1.42,10.3-3.13,15.3-5.15h1.25l-6.12-29.48-1.95-.28ZM769.58,844.08h0c-4.12-3.97-8.81-7.29-13.91-9.87-6.55-3.27-13.28-6.15-20.17-8.62-4.59-1.67-8.62-3.2-11.82-4.73-2.67-1.18-5.19-2.67-7.51-4.45-1.59-1.11-2.87-2.59-3.75-4.31-.7-1.77-1.03-3.66-.97-5.56-.18-3.79,1.89-7.34,5.28-9.04,4.87-2.26,10.21-3.31,15.58-3.06,6.45-.13,12.9.53,19.19,1.95,4.76,1,9.42,2.44,13.91,4.31l1.95.97,6.81-30.32h-1.39c-5.68-1.89-11.49-3.38-17.38-4.45-8.12-1.86-16.42-2.83-24.75-2.92-14.35-.74-28.54,3.32-40.33,11.54-9.92,7.76-15.51,19.82-15.02,32.4-.2,6.05.89,12.07,3.2,17.66,2.15,4.73,5.22,8.99,9.04,12.52,4.04,3.72,8.58,6.86,13.49,9.32,5.39,2.66,10.91,5.02,16.55,7.09,7.33,2.31,14.31,5.63,20.72,9.87,3.55,2.21,5.71,6.11,5.7,10.29.33,3.79-1.64,7.4-5.01,9.18-5.82,2.34-12.1,3.34-18.36,2.92-7.68.11-15.35-.78-22.81-2.64-5.91-1.55-11.71-3.45-17.38-5.7h-1.95l-6.4,30.87h1.39c5.3,2.07,10.74,3.79,16.27,5.15,10.02,2.37,20.3,3.44,30.6,3.2,15.5.95,30.92-2.83,44.22-10.85,10.74-7.4,16.73-19.96,15.71-32.96.12-5.76-.72-11.49-2.5-16.97-1.79-4.8-4.59-9.16-8.21-12.79ZM378.93,783.31h0c-4.98-6.16-11.44-10.94-18.77-13.91-9.22-3.75-19.11-5.59-29.07-5.42-4.94,0-9.87.42-14.74,1.25-3.89.83-7.37,1.67-10.57,2.64v-69.53l-35.88,5.98v208.6h36.44v-113.34c2.09,0,5.01-1.25,8.76-1.95,8.72-2.09,17.85-1.81,26.42.83,3.39,1.33,6.31,3.65,8.34,6.68,2.38,3.81,3.95,8.07,4.59,12.52,1.09,6.29,1.6,12.67,1.53,19.05v76.63h36.44v-81.77c.14-9.35-.84-18.69-2.92-27.81-1.96-7.51-5.57-14.5-10.57-20.44ZM531.91,798.6c2.01,7.67,3,15.57,2.92,23.5v87.75h-1.39c-5.28,1.11-12.93,2.36-23.09,3.89-11.45,1.91-23.02,2.98-34.63,3.2-8.04.07-16.07-.76-23.92-2.5-6.71-1.42-13.06-4.21-18.64-8.21-5.3-3.79-9.56-8.86-12.38-14.74-3.09-7.05-4.57-14.7-4.31-22.39-.23-7.54,1.49-15.02,5.01-21.69,3.46-5.68,8.23-10.45,13.91-13.91,5.95-3.79,12.55-6.43,19.47-7.79,7.49-1.64,15.14-2.43,22.81-2.36,3.89-.27,7.79-.27,11.68,0,3.48,0,7.09.97,10.85,1.81v-3.2c.01-3.56-.41-7.11-1.25-10.57-1.76-6.44-6.53-11.62-12.79-13.91-4.46-1.6-9.18-2.3-13.91-2.09-6.94-.05-13.88.51-20.72,1.67-5.14.86-10.21,2.11-15.16,3.75h-1.95l-4.73-30.18h1.39c6.07-1.85,12.25-3.34,18.5-4.45,8.64-1.48,17.38-2.23,26.15-2.23,9.44-.19,18.85,1.22,27.81,4.17,7.03,2.4,13.37,6.45,18.5,11.82,4.81,5.32,8.29,11.71,10.15,18.64h-.28ZM493.11,850.48c-3.68-.58-7.4-.86-11.13-.83-3.63,0-7.26.28-10.85.83-3.31.51-6.53,1.44-9.6,2.78-2.59,1.31-4.83,3.21-6.54,5.56-1.65,2.72-2.47,5.86-2.36,9.04-.48,5.47,2.02,10.78,6.54,13.91,5.78,3.17,12.33,4.67,18.91,4.31,7.17.17,14.33-.3,21.42-1.39v-32.96l-6.4-1.25ZM1312.93,873.01c-5.64,2.8-11.5,5.12-17.52,6.95-9.46,2.6-19.26,3.77-29.07,3.48-8.74.28-17.43-1.38-25.45-4.87-6.83-3.16-12.8-7.93-17.38-13.91-4.69-6.29-8.14-13.42-10.15-21-2.37-9.08-3.49-18.43-3.34-27.81-.2-9.86,1.26-19.69,4.31-29.07,2.41-7.6,6.39-14.61,11.68-20.58,4.9-4.99,10.83-8.83,17.38-11.26,7.08-2.82,14.63-4.24,22.25-4.17,8.71-.06,17.37,1.16,25.73,3.62,6.35,1.76,12.47,4.28,18.22,7.51l1.95,1.25,11.26-31.57-1.25-.7-6.68-3.48c-3.75-2.03-7.65-3.75-11.68-5.15-5.53-1.61-11.15-2.91-16.83-3.89-7.11-1.28-14.33-1.88-21.56-1.81-12.59-.1-25.09,2.17-36.85,6.68-11.32,4.28-21.57,10.97-30.04,19.61-8.82,8.97-15.68,19.67-20.17,31.43-5.05,13.61-7.5,28.04-7.23,42.56-.25,14.43,1.87,28.81,6.26,42.56,3.89,11.67,10.13,22.42,18.36,31.57,8.16,8.68,18.2,15.39,29.34,19.61,12.36,4.62,25.47,6.88,38.66,6.68,6.91.34,13.83.25,20.72-.28,5.86-.73,11.67-1.84,17.38-3.34,4.73-1.12,9.37-2.56,13.91-4.31,3.24-1.09,6.32-2.58,9.18-4.45l1.11-.83-10.29-31.15-2.23.14ZM1668.11,705.29c-5.77-.07-11.34,2.07-15.58,5.98-8.91,8.9-8.91,23.35,0,32.25,0,0,0,0,0,0,8.83,7.77,22.05,7.77,30.87,0,4.42-4.11,6.81-9.96,6.54-15.99.3-6.12-2.09-12.06-6.54-16.27-4.18-3.9-9.71-6.05-15.44-5.98h.14ZM1843.2,804.58c-1.78-7.8-5.24-15.11-10.15-21.42-5.19-6.17-11.83-10.95-19.33-13.91-9.56-3.54-19.71-5.2-29.9-4.87-11.4-.12-22.8.67-34.07,2.36-8.39,1.31-16.7,3.07-24.89,5.28h-1.25v141.3h36.44v-115.15l8.48-1.11c8.84-1.6,17.94-1.12,26.56,1.39,3.46,1.29,6.42,3.62,8.48,6.68,2.33,3.84,3.88,8.09,4.59,12.52,1.09,6.29,1.6,12.67,1.53,19.05v76.63h36.44v-81.77c.03-9.08-1-18.14-3.06-26.98h.14ZM1650.03,913.34h36.44v-145.88h-36.44v145.88ZM1458.11,783.17c-5-6.12-11.46-10.9-18.77-13.91-9.24-3.67-19.12-5.47-29.07-5.28-4.66.04-9.31.46-13.91,1.25-3.89.83-7.51,1.67-10.57,2.64v-69.53l-36.58,6.12v208.6h36.58v-113.48c1.95,0,4.87-1.25,8.62-1.95,8.77-2.09,17.94-1.8,26.56.83,3.37,1.36,6.27,3.68,8.34,6.68,2.33,3.84,3.88,8.09,4.59,12.52,1.03,6.3,1.5,12.67,1.39,19.05v76.63h36.44v-81.77c.11-9.35-.82-18.68-2.78-27.81-2.23-7.53-5.97-14.54-10.99-20.58h.14ZM1611.09,798.6c1.96,7.68,2.94,15.58,2.92,23.5v87.75h-1.39c-5.28,1.11-13.07,2.36-23.09,3.89-11.61,1.64-23.32,2.43-35.05,2.36-8,.08-15.98-.76-23.78-2.5-6.75-1.42-13.14-4.21-18.77-8.21-5.26-3.8-9.47-8.87-12.24-14.74-3.16-7.03-4.68-14.69-4.45-22.39-.21-7.5,1.51-14.92,5.01-21.56,3.46-5.68,8.23-10.45,13.91-13.91,5.96-3.76,12.56-6.4,19.47-7.79,7.54-1.64,15.23-2.43,22.95-2.36,3.84-.27,7.7-.27,11.54,0,3.48,0,7.23.97,10.99,1.81v-3.2c-.03-3.57-.5-7.12-1.39-10.57-.83-3.08-2.36-5.93-4.45-8.34-2.23-2.54-5.05-4.5-8.21-5.7-4.46-1.57-9.18-2.28-13.91-2.09-6.9-.05-13.78.5-20.58,1.67-5.19.84-10.31,2.1-15.3,3.75h-1.95l-4.59-30.18h1.25c6.08-1.83,12.25-3.32,18.5-4.45,8.6-1.42,17.29-2.12,26.01-2.09,9.44-.19,18.85,1.22,27.81,4.17,7.03,2.4,13.37,6.45,18.5,11.82,4.95,5.54,8.52,12.16,10.43,19.33h-.14ZM1572.15,850.48c-7.24-1.11-14.6-1.11-21.83,0-3.31.49-6.54,1.42-9.6,2.78-2.64,1.23-4.9,3.15-6.54,5.56-4.52,7.82-2.83,17.76,4.03,23.64,5.82,3.19,12.42,4.69,19.05,4.31,7.17.16,14.33-.31,21.42-1.39v-33.65l-6.54-1.25ZM527.04,65.71c0-36.02,29.2-65.22,65.22-65.22h0c110.07-4.44,210.74,61.72,250.33,164.52h0c25.07,63.11,27.77,132.9,7.65,197.76-3.35,10.44-13.1,17.48-24.06,17.38-38.69,1.1-74.22-21.25-89.98-56.6-3.61-8.8-4.76-18.41-3.34-27.81,3.62-28,.13-56.46-10.15-82.75-21.19-52.72-73.72-85.99-130.45-82.61h0c-35.81,0-64.92-28.86-65.22-64.67ZM271.29,548.97h325.56c13.93-.38,24.93-11.94,24.62-25.87-.12-6.56-2.81-12.8-7.51-17.38h0c-8.11-7.86-15.77-16.17-22.95-24.89-10.33-12.34-19.63-25.5-27.81-39.36h0c-7.93-13.9-22.66-22.54-38.66-22.67h-25.87c-7.67.38-14.2-5.52-14.58-13.19-.01-.24-.02-.48-.02-.71v-99.85c0-36.1-29.26-65.36-65.36-65.36s-65.36,29.26-65.36,65.36v99.44c.38,7.67-5.52,14.2-13.19,14.58-.24.01-.48.02-.71.02h-68.14c-56.71,3.34-109.22-29.91-130.45-82.61-15.29-39.5-15.29-83.29,0-122.8,21.23-52.69,73.74-85.95,130.45-82.61,35.95,0,65.08-29.15,65.07-65.1,0-35.94-29.14-65.07-65.07-65.07C140.98.9,57.4,73.08,20.97,165.42c-27.95,70.48-27.95,148.97,0,219.45,36.44,91.93,120.16,164.1,250.33,164.1ZM1820.67,348.02c-29.16-20.69-69.53-14.05-90.53,14.88-26.76,36.97-70.4,57.9-115.98,55.63h-180.79c-16.01.13-30.73,8.76-38.66,22.67h0c-8.22,13.78-17.52,26.9-27.81,39.22-7.17,8.73-14.83,17.04-22.95,24.89-9.84,9.93-9.76,25.96.17,35.79,4.56,4.51,10.66,7.13,17.07,7.32h252.41c10.85,0,21.14-.7,31.29-1.53l7.65-.83c9.46-1.25,18.77-2.64,27.81-4.59h1.25c62.7-13.18,117.89-50.05,154.09-102.91h0c20.82-29.16,14.1-69.66-15.02-90.53ZM1106.96,362.62c3.6,10.7,13.89,17.7,25.17,17.11,38.61,1.24,74.13-21.03,89.84-56.32,3.44-8.6,4.49-17.97,3.06-27.12-3.75-28.24-.2-56.96,10.29-83.44,21.18-52.75,73.7-86.06,130.45-82.75h247.96c6.81,0,13.91,0,20.3,1.25l5.98.83c4.59.7,9.04,1.67,13.91,2.64l5.84,1.39c4.72,1.41,9.37,3.08,13.91,5.01,3.06,1.25,5.98,2.64,8.9,4.17l4.45,2.36c10.77,5.83,20.61,13.24,29.2,21.97,5.08,5.28,9.73,10.95,13.91,16.97h0c21.59,28.84,62.47,34.71,91.3,13.12,20.57-15.4,30.18-41.45,24.54-66.52-1.8-7.82-5.05-15.22-9.6-21.83C1786.19,38.68,1702.21-3.31,1613.87.2h-248.1c-10.71,0-21.14.7-31.29,1.67l-7.51.83c-9.27,1.11-18.54,2.64-27.81,4.59h-.83c-84.01,17.97-153.15,77.36-183.57,157.71-25.05,63.06-27.8,132.78-7.79,197.62Z" style="fill:#333;" /></svg>