<?xml version="1.0" encoding="UTF-8" standalone="no"?>
<!-- Created with Inkscape (http://www.inkscape.org/) -->

<svg
   width="87.121208mm"
   height="117.44893mm"
   viewBox="-60 -60 87.121208 117.44893"
   version="1.1"
   id="svg263"
   xmlns="http://www.w3.org/2000/svg"
   xmlns:svg="http://www.w3.org/2000/svg"
   xmlns:rdf="http://www.w3.org/1999/02/22-rdf-syntax-ns#"
   xmlns:cc="http://creativecommons.org/ns#"
   xmlns:dc="http://purl.org/dc/elements/1.1/">
  <defs
     id="defs265" />
  <metadata
     id="metadata2822">
    <rdf:RDF>
      <cc:Work
         rdf:about="">
        <dc:format>image/svg+xml</dc:format>
        <dc:type
           rdf:resource="http://purl.org/dc/dcmitype/StillImage" />
      </cc:Work>
    </rdf:RDF>
  </metadata>
  <g
     id="Template"
     style="fill:none;stroke:#000000;stroke-width:0.05"
     transform="translate(-17.501483,-1.5326072)">
    <path
       style="fill:#54bdaa;fill-opacity:0.996078;stroke:#000000;stroke-width:0.00872157"
       d="m -5.3459291,-11.052941 c -0.3856406,-0.198097 -0.8803267,-0.731208 -1.3430595,-1.447402 -1.6817018,-2.602846 -2.9416696,-3.831128 -4.9860614,-4.860659 -2.237608,-1.126836 -3.249743,-1.267407 -9.456927,-1.313413 -5.404818,-0.04006 -5.635492,-0.05582 -7.274806,-0.497496 -6.968767,-1.877496 -11.556415,-6.966604 -13.248169,-14.696291 -0.354122,-1.618002 -0.30277,-6.634109 0.0862,-8.419485 1.884892,-8.651787 7.446996,-14.554799 15.0294,-15.950587 0.962856,-0.177238 6.992922,-0.224758 28.5195471,-0.224758 H 29.27872 l 1.569884,0.487537 c 3.080885,0.956783 5.641407,2.479884 7.6599,4.556409 3.008628,3.095127 5.135883,7.17147 5.878898,11.265397 0.37394,2.060385 0.281567,6.00276 -0.189968,8.107388 -1.692175,7.552714 -6.564409,13.149378 -12.825536,14.732497 -2.073585,0.524307 -4.136455,0.705344 -8.055281,0.706935 l -3.520062,0.0014 0.158093,-0.551241 c 0.08696,-0.303173 0.545154,-1.382473 1.018225,-2.398432 0.473073,-1.015958 0.948866,-2.132053 1.057314,-2.480219 0.355952,-1.142707 0.499237,-1.191576 3.686253,-1.257143 2.018075,-0.04151 3.19959,-0.149047 3.998353,-0.363871 7.393329,-1.988433 11.133976,-11.545529 7.41292,-18.939469 -1.90279,-3.7809 -5.159244,-6.257403 -9.331666,-7.096586 -1.132653,-0.227817 -4.620843,-0.260068 -25.990291,-0.240394 -15.636987,0.01424 -25.225393,0.08828 -26.164722,0.201603 -3.036811,0.366382 -5.366739,1.483004 -7.371307,3.532719 -4.708875,4.814945 -5.479966,12.040517 -1.869738,17.520589 1.256764,1.907688 2.742532,3.289373 4.437977,4.127111 2.130947,1.052918 3.039058,1.181655 8.64056,1.2249 5.221098,0.04033 6.17572,0.140926 8.626655,0.909076 3.9567775,1.240123 7.6615559,4.252874 9.3821258,7.629617 0.4388988,0.861372 0.5523905,1.321265 0.6059547,2.455341 0.057276,1.212772 0.01345,1.484649 -0.3347977,2.076781 -0.7735752,1.315316 -1.9769275,1.781307 -3.1043982,1.202152 z"
       id="path9339" />
    <path
       style="fill:#d34b91;fill-opacity:0.996078;stroke:#000000;stroke-width:0.00872157"
       d="M -0.09367068,12.345628 C -0.6845547,11.848433 -0.76335571,11.555913 -0.9652422,9.1102221 -1.1488354,6.8862297 -1.7740198,5.5148561 -3.2933385,4.0034563 -4.7636288,2.5408269 -5.7551186,2.0715569 -7.4391069,2.0412831 -8.1586379,2.0283613 -8.9710495,2.0086893 -9.2444719,1.9976127 -9.5592041,1.9849545 -9.9592031,1.759854 -10.33467,1.3843953 c -0.486,-0.48600223 -0.593068,-0.72519019 -0.593068,-1.32493471 0,-0.80827908 0.365245,-1.55930469 0.9360847,-1.92480049 0.239658,-0.1534514 0.9931783,-0.2504167 2.1164666,-0.272344 1.9268839,-0.037604 2.7904993,-0.277436 4.0028126,-1.1115268 1.7374971,-1.1954283 2.6530682,-2.878712 2.89714784,-5.3264312 0.22404591,-2.2467901 0.30634896,-2.6152031 0.69452101,-3.1086751 0.46405919,-0.589956 1.21710746,-0.739319 1.91304715,-0.379431 0.6871345,0.355332 1.0455764,1.182241 1.0455764,2.4121088 0,2.3004991 0.70508,4.1368287 2.1835216,5.6868216 1.3240799,1.3881584 2.2471561,1.7703392 4.432811,1.8352981 2.4701031,0.073416 3.1518311,0.5522693 3.1518311,2.21388197 0,0.57142501 -0.113711,0.82067345 -0.593067,1.30003283 C 11.47844,1.758968 11.076802,1.9851789 10.762819,1.9984065 10.489398,2.0100102 9.7145897,2.0295242 9.0410182,2.0420244 6.1501169,2.0955303 3.6052583,4.408287 2.8741478,7.6464956 2.7658437,8.126182 2.6094014,9.2873518 2.5264924,10.226873 2.4011781,11.646957 2.307852,12.007385 1.9731312,12.363659 1.4319824,12.939687 0.60374844,12.932466 -0.09367068,12.345727 Z"
       id="path14428" />
    <path
       style="fill:#54beaa;fill-opacity:0.996078;stroke:#000000;stroke-width:0.00872157"
       d="m -12.54194,40.860743 c -1.800426,-0.424329 -3.439816,-1.813682 -4.361743,-3.696509 -0.823603,-1.682007 -1.0705,-3.066653 -1.079969,-6.056707 -0.0082,-2.580016 0.02216,-2.822875 0.660539,-5.309283 1.402339,-5.460963 3.293093,-9.679252 6.560876,-14.637377 1.4418649,-2.1876989 2.2734716,-3.1426889 3.3136761,-3.8053199 1.2083366,-0.7697303 2.2473254,-0.5910922 3.2089531,0.5517393 1.1136048,1.3234422 0.9337326,2.3639396 -0.8759939,5.0673756 -2.6562434,3.967988 -4.5892506,7.968231 -6.0585313,12.537779 -1.560699,4.853856 -1.71739,7.600051 -0.488929,8.569496 1.834222,1.447495 5.6354121,-1.920684 10.73890797,-9.515592 0.96699149,-1.43906 2.00014973,-3.065282 2.29590293,-3.613836 l 0.5377364,-0.997364 1.410133,1.529059 c 0.7927841,0.859646 1.7628237,1.716162 2.2157472,1.956438 0.4430915,0.235041 0.8056156,0.475165 0.8056156,0.533579 0,0.05841 -0.7522208,1.229127 -1.6715913,2.601604 -2.4421662,3.645741 -5.9419883,8.285948 -7.2448086,9.605454 -3.7147702,3.762353 -7.1046449,5.353956 -9.9665212,4.679464 z"
       id="path16447" />
    <path
       style="fill:#54beaa;fill-opacity:0.996078;stroke:#000000;stroke-width:0.00872157"
       d="M -3.4271834,58.83274 C -28.2111,58.725121 -27.433649,58.751068 -30.202415,57.939038 c -4.162395,-1.220771 -7.965309,-4.463354 -10.05504,-8.573511 -0.797905,-1.569331 -1.69571,-4.440552 -1.981582,-6.337143 -1.177525,-7.812264 1.774998,-15.422478 7.742425,-19.956274 1.598952,-1.214819 4.329131,-2.52136 6.182632,-2.958735 1.6337,-0.3855 4.982073,-0.676425 7.902433,-0.686604 l 1.767011,-0.0062 -0.818098,3.270589 -0.818097,3.270591 -2.518799,0.131272 c -3.137616,0.163525 -4.760296,0.478202 -6.342657,1.229958 -3.246064,1.542164 -5.954524,5.084126 -6.89543,9.01743 -0.436099,1.823064 -0.475528,4.794054 -0.08565,6.453967 0.83784,3.567138 3.999593,7.356488 7.108724,8.519757 2.221015,0.830992 1.535073,0.812327 29.86093862,0.812327 30.00919138,0 27.31384938,0.118984 30.10494738,-1.328904 3.271031,-1.696855 5.526562,-4.420615 6.632478,-8.009327 0.3251,-1.05494 0.402707,-1.715945 0.408869,-3.482484 0.0082,-2.34834 -0.174795,-3.348776 -0.96148,-5.256512 -1.288179,-3.1239 -3.66042,-5.58552 -6.719286,-6.972474 C 28.356136,26.189938 27.316936,26.055388 22.388681,26.050896 16.18721,26.045271 14.427999,25.742799 11.222787,24.131277 8.6546893,22.840073 6.5029399,21.017335 4.4588041,18.40154 3.1879394,16.775259 2.6779214,15.88037 2.6779214,15.276746 c 0,-0.223808 0.3465406,-0.913007 0.7700891,-1.531583 0.4802718,-0.701417 0.9807773,-1.765264 1.3299342,-2.826804 0.307921,-0.936167 0.618798,-1.7669063 0.6908403,-1.8460843 0.072046,-0.079192 0.3848223,0.4658022 0.6950795,1.2110713 0.6824033,1.639208 1.1481432,2.404739 2.4049354,3.952951 2.0539171,2.530186 5.3311501,4.567727 8.2380721,5.121827 1.20902,0.230453 2.184356,0.263627 5.284493,0.179768 2.297018,-0.06211 4.402797,-0.02938 5.320159,0.08275 9.426111,1.15212 16.155133,8.767722 16.556709,18.738141 0.294873,7.32107 -2.769748,13.668068 -8.426556,17.451834 -3.505123,2.344541 -7.218971,3.248989 -12.978566,3.160708 -1.295155,-0.01979 -12.9907859,-0.08228 -25.9902913,-0.138736 z"
       id="path16449" />
    <path
       style="fill:#56bcaa;fill-opacity:0.992157;stroke:#000000;stroke-width:0.00872157"
       d="m 6.8677495,-6.3519071 c -1.9235398,-0.9664201 -1.840567,-3.0988587 0.246013,-6.3228689 1.5355127,-2.372538 3.9783015,-7.487612 5.1647625,-10.814752 1.896753,-5.318988 2.480367,-8.926061 1.627563,-10.059371 -0.863839,-1.147977 -2.709745,-0.356435 -5.5298341,2.371248 -0.7513788,0.726752 -1.9396418,2.069303 -2.640585,2.983434 -1.2428955,1.620922 -3.9835615,5.714339 -5.15655596,7.701763 -0.67897289,1.150383 -0.70761409,1.147454 -2.01063744,-0.205561 -0.4740141,-0.492201 -1.3916843,-1.249186 -2.0392655,-1.682181 -0.6475731,-0.433002 -1.1774113,-0.895252 -1.1774113,-1.027233 0,-0.33587 1.258781,-2.689412 2.1271907,-3.977219 1.64082986,-2.433257 4.9780922,-6.677663 6.2525114,-7.95208 5.158769,-5.158772 10.4868972,-6.348896 13.6862152,-3.057044 1.057717,1.088312 1.619728,2.132298 2.037722,3.785238 0.48801,1.929798 0.372369,5.260846 -0.279489,8.050656 -1.006265,4.30663 -3.236716,9.9727 -5.515265,14.01056 -2.286538,4.0520144 -3.571136,5.6681779 -4.9698119,6.2525875 -0.7723198,0.3226913 -1.0866377,0.3128391 -1.8231226,-0.057224 z"
       id="path16451" />
  </g>
</svg>
