<?xml version="1.0" encoding="UTF-8"?>
<svg id="Layer_1" data-name="Layer 1" xmlns="http://www.w3.org/2000/svg" xmlns:xlink="http://www.w3.org/1999/xlink" viewBox="0 0 576 576">
  <defs>
    <style>
      .cls-1 {
        fill: #36178f;
      }

      .cls-2 {
        fill: #0cdbfd;
      }

      .cls-3 {
        fill: url(#linear-gradient-2);
      }

      .cls-4 {
        fill: #0dd6fd;
      }

      .cls-5 {
        fill: #2529b1;
      }

      .cls-6 {
        fill: #97d87a;
      }

      .cls-7 {
        fill: #4e1fcf;
      }

      .cls-8 {
        fill: #a3b2af;
      }

      .cls-9 {
        fill: #2b17af;
      }

      .cls-10 {
        fill: #99dd79;
      }

      .cls-11 {
        fill: url(#linear-gradient-4);
      }

      .cls-12 {
        fill: #4e28cf;
      }

      .cls-13 {
        fill: #3a16b3;
      }

      .cls-14 {
        fill: #2523ad;
      }

      .cls-15 {
        fill: #95d875;
      }

      .cls-16 {
        fill: url(#linear-gradient-3);
      }

      .cls-17 {
        fill: #9996b2;
      }

      .cls-18 {
        fill: url(#linear-gradient-5);
      }

      .cls-19 {
        fill: #190f5c;
      }

      .cls-20 {
        fill: #9bdb7c;
      }

      .cls-21 {
        fill: #291969;
      }

      .cls-22 {
        fill: #8c46f3;
      }

      .cls-23 {
        fill: #94d378;
      }

      .cls-24 {
        fill: #583cdf;
      }

      .cls-25 {
        fill: #0cdafd;
      }

      .cls-26 {
        fill: #241072;
      }

      .cls-27 {
        fill: #723eea;
      }

      .cls-28 {
        fill: #2b0f8c;
      }

      .cls-29 {
        fill: #98db77;
      }

      .cls-30 {
        fill: #9934f5;
      }

      .cls-31 {
        fill: #461cc3;
      }

      .cls-32 {
        fill: #1e1983;
      }

      .cls-33 {
        fill: url(#linear-gradient);
      }

      .cls-34 {
        fill: #392ec7;
      }

      .cls-35 {
        fill: #a339fb;
      }

      .cls-36 {
        fill: #2a21b2;
      }

      .cls-37 {
        fill: #9c9fb4;
      }

      .cls-38 {
        fill: #1b1585;
      }

      .cls-39 {
        fill: #1f0f8c;
      }
    </style>
    <linearGradient id="linear-gradient" x1="366.3" y1="816.22" x2="735.65" y2="1016.17" gradientTransform="translate(-65.91 -365.52) scale(.75)" gradientUnits="userSpaceOnUse">
      <stop offset="0" stop-color="#2e159e"/>
      <stop offset="1" stop-color="#181b79"/>
    </linearGradient>
    <linearGradient id="linear-gradient-2" x1="201.86" y1="765.06" x2="630.02" y2="900.25" gradientTransform="translate(-65.91 -365.52) scale(.75)" gradientUnits="userSpaceOnUse">
      <stop offset="0" stop-color="#5522d6"/>
      <stop offset="1" stop-color="#1a0f83"/>
    </linearGradient>
    <linearGradient id="linear-gradient-3" x1="283.69" y1="651.71" x2="660.56" y2="794.48" gradientTransform="translate(-65.91 -365.52) scale(.75)" gradientUnits="userSpaceOnUse">
      <stop offset="0" stop-color="#a23cf9"/>
      <stop offset="1" stop-color="#3f21bf"/>
    </linearGradient>
    <linearGradient id="linear-gradient-4" x1="189.36" y1="833.72" x2="454.15" y2="1023.89" gradientTransform="translate(-65.91 -365.52) scale(.75)" gradientUnits="userSpaceOnUse">
      <stop offset="0" stop-color="#a43afb"/>
      <stop offset="1" stop-color="#4429ca"/>
    </linearGradient>
    <linearGradient id="linear-gradient-5" x1="347.51" y1="743.71" x2="343.05" y2="878.63" gradientTransform="translate(-65.91 -365.52) scale(.75)" gradientUnits="userSpaceOnUse">
      <stop offset="0" stop-color="#c067fc"/>
      <stop offset="1" stop-color="#954af6"/>
    </linearGradient>
  </defs>
  <path class="cls-33" d="M493.61,202.24c.61,57.04.66,115.95,0,173.02-.37,16.24-8.87,30.99-19.46,42.62,1.55,2-3.54,5.82-5.33,4.56l-13.48,8.23c.91,2.04-2.07,2.96-3.64,2.2-1.99,1.48-4.02,2.5-6.09,3.05-.52.7-1.06,1.38-1.67,1.98s-1.2,1.15-1.9,1.54c-7.57,4.23-15.36,8.4-23.05,12.41-1.49.77-3.19.97-4.84,1.16-2.39,2.11-5.91,3.78-8.99,4.65-.68.79-1.38,1.56-2.15,2.26s-1.52,1.34-2.39,1.81c-11.16,6.11-22.49,12.18-33.76,18.09-1.8.95-3.83,1.35-5.82,1.71-2.38,1.68-4.91,2.97-7.59,3.86l-.52,1.99c-3.79,1.63-7.43,3.53-10.89,5.72l-1.97-.32c-2.45,1.61-4.98,2.89-7.59,3.85.17,2.15-.48,2.39-2.23,1.37-2.01,1.64-5.03,3.02-7.52,3.88.98,2.02-1.33,2.82-2.76,1.53-1.55,1.1-4.18,2.49-6.05,2.23,0,.6-.01,1.51-.43,1.66-2.84,1.02-17.22,4.99-18.95,3.91-.27-.17-.36-.63-.39-1.18-3.52-.19-6.95-.41-10.29-.65-12.17-.56-23.18-5.71-33.97-11.65l-18.49-10.17c-11.9-6.55-23.72-12.58-35.03-19.5-6.72-4.22-13.72-7.96-20.99-11.22-3.68-1.64-7.16-3.46-10.95-5.56l-27.47-15.2-10.67-5.81c-7.13-3.89-13.74-8.22-19.71-12.96-.76-.78-.84-1.31-.25-1.58l1.66-.54c2.56,3.6,5.21,4.38,7.96,2.34,3.39.27,5.92-.5,7.62-2.33,2.65.68,3.65.26,2.98-1.25l1.52-1.06,1.17-1.07,63.54,34.22c12.41,5.96,24.06,12.8,34.94,20.52.7.49,1.21.19,1.67-.78l22.31,12.23c10.39,3.99,20.46,1.74,25.66-8.59l1.83-.46c.81-3.09,1.36-6.23,1.64-9.43-.91-14.67-.85-29.94-.71-45.11l1.5-.89-.64-.23c-.15-9.59-.19-19.22-.11-28.89l-.75-.68v-14.24l1.5-.9c-.62-7.29-.61-15.77,0-23.22.45-18.35.52-36.81.22-55.37.27-2.74-.32-5.01-1.77-6.8l-2.03-1.4c-2.33-6.79-5.81-13.22-10.89-18.34l-.41-2.45,2.68-.39c14.71,6.53,31.32,4.29,45.11-3.48l130.52-72.95c8.12-6.13,7.8-13.64-.83-19.02l.02-1.82c-.15-.7,0-1.28.51-1.7,6.36.98,8.9,1.04,5.56-5.87.55-2.69.03-4.51-1.58-5.45-2.2-.85-3.21-2.01-3.01-3.49-1.02-1.01-.67-1.06.68-.67l9.73,4.55c7.32,3.43,19.42,11.28,24.11,17.87,6.92,9.71,13.1,21.51,13.36,33.71Z"/>
  <path class="cls-3" d="M364.71,102.7c27.38,13.84,54.38,28.53,81.02,44.07,1.69.92,3.91,2.04,5.45,3.56s-.14,4.15.92,5.98c.97,1.69,1.98,4.76.33,6.29-2.38,2.21-7.89-.32-8.18.67l-1.17,1.07-129.96-69.63c-5.16-2.7-10.55-5.07-16.31-6.07l-1.69-1.75c-3.29-.88-7.27-.76-10.6,0l-1.55,1.68c-5,.74-9.74,2.6-14.16,5l-136.54,74.13c-6.96,5.07-5.95,12.68-.39,18.49,0,.84-.52,1.16-1.45,1.1l-1.59,1.28c-17.27-1.73-26.7,13.09-26.15,28.88-.57,2.2-1.08,4.37-1.56,6.52.65,29.35.66,60.93,0,90.63,2.21,1.08,2.71,5.49.47,6.74-.06,13.76-.19,27.49-.39,41.2l1.49,2.11c-1.77,21.18,7.15,36.19,25.48,46.43l-.08,1.76c-.22,1.13.58,3.41-.89,4.15-.8.41-2.29-.64-3.12-.52-.66.09-1.22,1.9-2.06,1.97-3.35.29-6.55-.3-8.99,2.52-2.95-1.27-4.57-3.53-6.68-5.28-15.71-9.37-22.2-32-19.47-49.39-.45-5.86-.45-11.6,0-17.23.65-15.18.64-31.24,0-46.44-1.21-.26-1.12-3.94,0-4.49.66-23.31.65-47.83,0-71.16-.4-.46-.72-.91-.73-1.38-.66-24.27.35-45.38,19.68-62.36.38-.29,1.03-.8,1.35-1.15,5.74-3.96,11.76-7.71,18.06-11.24.2-.08.55-.04.76-.02,12.88-7,25.17-13.98,36.87-20.94.16-.07.36-.05.53-.09,15.08-7.64,30.13-15.82,45.16-24.55l.58-1.11c3.25-1.82,6.96-3.91,10.33-5.21,12.34-6.01,24.52-12.51,36.54-19.49,21.89-9.92,35.72-12.54,58.75-3.94,16.95,8.72,33.6,17.79,49.96,27.22Z"/>
  <path class="cls-37" d="M283.88,510.09q1.05.39,0,0c.06-.24-.03-.51,0-.76,3.47.16,7.38-.48,10.97.37,2.56.6,3.61.01,5.9-.6l13.18-3.5c1.78.33,4.6-1.16,6.05-2.23.56-.78,2.06-1,2.76-1.53,2.92-.91,5.43-2.21,7.52-3.88.41-.72,1.61-.94,2.23-1.37.72-.59.97-.57.73.06l6.86-3.91c3.81-3.35,9.01-4.88,13.39-7.38,2.09-.56,4.62-1.84,7.59-3.86,14.28-8.64,29.33-16.07,44.11-23.86,2.87-.69,8.15-3.29,8.99-4.65,10.13-6.23,20.84-11.61,31.45-17.08,2.05-.52,4.08-1.54,6.09-3.05.67-1.34,2.52-1.52,3.64-2.2-.66,2.77,12.53-6.24,13.28-6.73l.78,3.3c-2.09,2.07-5.29,3.26-7.13,5.67-1.7,2.22-4.19,2.76-6.21,4.44-1.44,1.2-2.25,2.84-4.46,3.05-5.93.57-5.44,5.26-11.42,7.12-2.93.92-4.91,2.38-7.27,4.06-3.12,2.22-7.31,2.73-9.82,6.03-5.19,1.25-9.83,3.96-14.54,6.97-1.18.75-2.79,1.38-3.89,2.12l-5.37,3.65c-3.2,2.18-7.49,2.47-10.48,5.36-2.14,2.07-5.43,2.61-7.64,4.32-5.97,4.62-12.54,4.34-17.37,7.96-3.03,2.27-5.59,3.43-8.77,4.92-5.82,2.73-10.98,6.67-16.99,9.05-2.54,1.01-4.69,2.17-7.06,3.28-13.21,6.2-13.06,6.52-27,9.75-2.12.49-17.84-.44-21.07-1.09-1.74-.35-3.14-1.62-5.26-1.27-4.11.68-2.2-4.73-8.33-1.67-.39-1.17-1.45-2.16-1.68-3.38,6.17,1.54,10.98,2.8,16.25,2.5Z"/>
  <path class="cls-28" d="M105.84,163.22c.42-.28.75.27.32.67-9.96,9.15-17.02,21.13-18.75,35.04-1.16,9.32-.51,18.79-.51,28.02.65,23.33.65,47.81,0,71.16v4.49c.65,15.23.64,31.21,0,46.44v17.23l-.7-2.09c-.2-19.88-.46-39.65-.8-59.33l.06-101.54c1.98-15.91,8.1-30.77,20.39-40.1Z"/>
  <path class="cls-26" d="M364.7,101.89c.44.24.43.51,0,.81l-47.61-25.21c-5.8-3.07-12.46-4.55-18.88-5.65-14.22-2.44-28.5,1.01-41.05,7.85l-34.89,19.03c-1.12.61-2.05.56-2.81.18l34.09-19.08c21-11.75,45.07-14.45,66.38-2.68l44.77,24.74Z"/>
  <path class="cls-19" d="M446.41,146.1c-.28.16-.51.39-.68.67l-81.02-44.07v-.81s70.77,37.78,70.77,37.78c4.07,2.18,7.19,4.68,10.93,6.43Z"/>
  <path class="cls-17" d="M493.61,375.26v-173.02c1.22,57.45,1.32,115.57,0,173.02Z"/>
  <path class="cls-21" d="M86.89,366.27c.42,4.52-.51,9.16.31,13.91,1.98,11.41,6.45,21.64,13.76,30.52,1.66,2.02,3.6,3.47,5.4,4.96l.25,1.58-5.68-4.51c-10.08-8.01-15.12-22.23-15.19-36.3l-.34-71.58c.44-.08.57.23.59.84.86,20.46-.94,40.7.91,60.58Z"/>
  <path class="cls-1" d="M126.01,150.81c-1.47-.73,10.67-6.83,11.97-7.53l9.23-4.96c5.43-2.92,10.3-6.26,15.68-8.45.17.19.38.36.39.56.04.5-.51.77-1,1.03l-16.49,9.08-18.16,10.2c-.59.33-1.24.11-1.61.07Z"/>
  <path class="cls-1" d="M163.4,129.77l45.73-25.66c.02.28.46,1.27-.06,1.61-6.38,4.1-13.08,7.18-19.74,10.87l-22.76,12.6c-1.12.62-2.21,1.12-3.16.58Z"/>
  <path class="cls-32" d="M196.4,468c-1.64-.68-3.81-1.36-5.76-2.45l-10.12-5.68c-1.74-.98-3.55-2.39-5.11-3.08.37-1.45,10.23,4.82,14.53,6.4,2.83,1.04,5.25,2.06,6.46,4.82Z"/>
  <path class="cls-1" d="M125.25,150.83c-1.38,3.02-13.15,7.58-17.28,11.72-.48,0-1.02-.06-.78-.48,4.67-5.17,11.55-8.72,18.06-11.24Z"/>
  <path class="cls-8" d="M468.82,422.44c1.55-1.14,3.99-3.08,5.33-4.56.58.41,1.18.88,1.38,1.38,1.15,2.77-2.83,1.62-4.97,6.67l-1.74-3.49Z"/>
  <path class="cls-16" d="M284.52,86.88c3.41-.75,7.24-.84,10.6,0,7.17.82,13.76,3.84,20.54,7.47l128.59,68.92c.91.49,1.82,1.6,2.95,2.29,6.11,3.75,6.87,11.83,1.98,16.94-2.08,2.17-4.21,3.64-7.02,5.2l-126.89,70.67c-15.43,8.59-33.01,10.32-48.52,2.56-2.6-.2-5.22-1.39-7.87-3.56-40.83-22.27-81.67-44.52-122.53-66.74-2.75-.53-4.73-1.65-5.93-3.36.58-.2.26-.55.08-.73-2.98-3.02-5.32-7.09-4.56-11.54.46-2.7,2.42-6.92,5.96-8.84l93.8-51.13,4.05-2.08,38.35-20.71c5.21-2.81,10.84-4.88,16.42-5.36Z"/>
  <path class="cls-11" d="M272.78,301.11c2.4.61,2.86,4.12.62,5.24-.25,14.75-.5,29.48-.75,44.19-.25,18.67-.49,37.41-.71,56.22l.32,1.93c-9.36,10.19-18.26,20.72-26.71,31.6-4.65,5.25-10.75,11.07-17.16,13.84-2.18,2.09-4.49,3.56-6.94,4.39l7.57,6.42c1.14,1.81.54,2.59-1.29,1.54l-99.64-53.67-3.75-2.55c-20.41-13.87-23.33-23.46-23.14-47.75l.36-.91.03-40.29c-.02-2.27-.47-4.47-.47-6.74.25-30.22.5-60.43.75-90.63-.83-4.33,1.29-8.44,4-11.89,7.55-9.59,16.64-11.67,27.96-7.46l116.11,63.17c11.83,6.56,23.57,19.2,22.84,33.33Z"/>
  <path class="cls-5" d="M477.03,275.64l-.14,99.56c-.01,10.03-3.68,19.3-9.61,26.85-4.43,5.64-10.12,8.75-16.47,12.16l-123.07,66.22c-2.48,1.33-4.5,1.23-6.54,1.88-4.62-.48.23-3.14,2.77-4.01,4-2.34,7.76-4.87,11.29-7.58,1.62-3.9,3.64-7.44,6.05-10.61-1.28-3.1.74-4.96,3.09-6.69-.81-2.67.54-5.6,2.99-6.88-3.03-2.02-1.89-3.64.9-5.15,1.6-4.35,5.95-6.38,10.46-5.8.82-1.27.7-2.9-.37-4.89.61-2.34,2.65-3.34,6.12-3.01,2.59-1.7,4.6-1.35,7.5-.75,3.39.18,6.69-.58,9.9-2.26,6.36,1.52,11.77.93,16.23-1.79.02-4.01,2.32-5.39,5.89-6.08-1.17-2.43.03-4.4,3.58-5.92l7.34-3.5c-.49-2.98,2.82-5.95,5.58-6.73-.38-.35-.08-.9.29-1.33,7.24-8.46,15.98-19.39,18.86-29.92l-1.03-1.62c6.57-9.09.3-23.36-9.21-12.66-5.34,14.45-15.63,31.38-29.25,39.37-.41.24-.92.32-1.45.37-.57.05-1.15,0-1.73-.08l-2.37.45c-12.91,6.13-22.84,10-37.64,4.29-5.93-2.29-10.99-4.36-7.73-11.04-.67-5.16-2.82-9.2-6.46-12.13.54-4.94,3.26-7.56,8.19-7.29l4.03-1.5.79-2.3c11.52-8.14,16.86-22.27,16.49-36.06l1.4-1.88c-.09-3.95-.42-7.97-.99-12.06-4.24-3.97-4.69-6.93-1.34-8.88,3.69.11,7.38.27,11.08.5,4.03-3.53,8.69-8.47,8.88-14.26,3.39-2.53,5.41-6.17,6.06-10.92.55-1.79,6.83-3.86,7.9-2.72.51.55-.65,5.48-.97,6.66-4.72,11.77-6.16,20.77-3.94,33.23.22,1.22-.61.02.46-.54l1.77.42c13.12,30.36,37.89-5.56,34.05-25.4l1.36-2.19c.73-10.33-6.39-20.33-17.46-19.46-1.95-.53-5.11-1.88-4.12-4.42.23-.6,8.18-4.99,9.55-4.35,2.95-1.48,6.41-1.6,10.39-.36,1.76-3.74,4.31-5.43,7.64-5.06-.04-4.28,2.52-6.02,5.65-8.1,1.13-1.86,2.75-3.35,4.86-4.47l7.13-9.05c2.9-6.47,7.2-4.75,6.41,1.85,2.02-5.22,5.46-4.23,5.84,1.29-1.54,3.88-.79,6.26,2.25,7.13l.17,27.81.67,1.66Z"/>
  <path class="cls-36" d="M477.03,275.64c-.49-.14-1.32-.64-1.33-1.58l-.33-27.02c-8.04-1.76.66-8.3-4.92-11.86.53,2.07-2.21,5.51-3.4,4.12-1.42-1.68,1.22-5.11-2.07-6.43-1.09,3.63-4.01,5.96-6.17,8.72-1.97,2.52-2.85,5.41-6.51,6.34-2.21,5.86-6.9,2.38-6.72,11.04-5.69.18-4.82-.5-7.07,3.55s-7.72-.8-9.71.65c-2.27,1.65-4.21,1.48-6.52,2.02-1.37.32-2.47,3.27-4.98,2.42,2.24,4.19,5.94,1.86,8.86,3.29,3.9,1.91,9.7,4.74,10.73,8.83l1.65,6.56c.39,1.55.6,4.06-.48,4.87l-1.72-1.15c-10.93-37.8-40.02,1.59-34.78,24.43.59,1.75.37,3.05-.68,3.9-.25.32.22.94-.64,1.52-3.57-14.41-1.35-17.34,2.07-30.73.84-3.27.25-6.47,2.43-9.6-1.45.45-1.87,1.27-3.24,1.27-5.75.49-1.04,8.04-8.93,12.48.26,4.47-2.24,7.39-5.06,10.48-1.35,1.47-2.83,5.03-5.5,4.55-2.45-.44-4.46-.46-7.12-.04-.98.15-2.65-1-3.53-.31-.67.52-1.38,2.49-.29,3.21,5.7,3.7,1.85,6.01,3.43,13.2.25,1.13.25,2.74-.75,2.95l-1.62-1.13c-1.4-10.05-7.86-18.95-18.67-14.2l-1.59-.93c-8.75,4.24-13.39,14.72-16.02,23.71l-.83.83-1.85,2.68c-.51,11.04-.41,22.09.3,33.15.03,3.8-.77,8.48-5.49,6.97-1.98,7.5-8.96,10.96-14.87,5.27-2.16-2.77-.21-7.37,2.64-9.23-1.4-4.6-.49-7.57,1.45-11.8,1.18-15.69,3.78-34.16,13.07-47.06-.23-3.99.92-7.21,3.4-10.35,6.28-8.12,12.77-15.97,19.48-23.57.8-2.67,1.95-5.04,3.46-7.12l7.34-3.65c5.56-5.22,11.56-9.96,17.98-14.24,3.46-1.59,6.24-4.15,8.36-7.68,5.76-3.38,11.36-7.1,16.8-11.15,2.74-5.43,6.63-8.39,11.66-8.87l1.32-3.14c4.31-4.13,9.08-7.55,14.3-10.25,5.14-3.34,4.46-3.54-2.04-.61l-.92-1.64c7.59-5.24,16.17-8.98,24.46-13.76,6.94-4.01,15.25-2.15,18.89,5.18,1.79,3.6,2.27,7.52,2.27,11.76l.03,59.14Z"/>
  <path class="cls-14" d="M335,335.62l.36,1.29c-.62,3.73-2.07,15.66-.16,18.27.04.05.25-.03.51-.14l1.78.42c2.3,7.95,7.47,13.57,16.21,10.94l1.35,1.18c-1.64,1-3.88,2.91-7.29,2.64-1.32,1.45-2.95,3.47-3.78,5.72,4.51,2.1,4.78,5.9,6.02,9.52.99,2.91,1.41,4.57-.72,7.17.2,2.05,3.62,3.66,5.56,4.6,7.44,3.63,16.19,4.86,24.2,3.17,2.85-.6,5.17-2.09,7.71-3.07,1.78-.68,3.91.02,5.35-1.47,1.37-1.41,3.43-2.25,4.91-1.07-1.05,3.74-7.76,6.28-11.55,7.59-2.29.79-6.68,2.28-8.91,2.08l-1.99-1.35c-2.75.44-5.54.38-8.3.04l-1.31,1.46c-5.37-.76-10.39-2.71-15.07-5.84-11.09-3.48-13.67,10.88-6.96,16.03,31.98,24.55,81.65-12.77,94.45-43.94l2.31-1.44c2.41-1.44-3.27,10.54-2.18,9.15-3.65,4.65-10.38,13.2-13.15,18.21-.74,1.35-2.69,2.98-2.76,4.79-2.84,1.12-5.45,2.56-5.42,6.52-5.05,3.96-9.92,3.78-11.49,6.99,4.06,5.83-4.69,1.06-4.95,7.06-.11,2.49-1.36,3.04-3.32,3.74-7.85,2.79-12.63-.95-15.5.7-4.24,2.43-8.59,2.34-13.19,1.11-4.58,3.34-6.27.37-7.58,2.43-1.47,2.31,2.48,2.31-.06,6.13-1.57,2.36-2.94-1.47-9.42,3.4-.44,2.45-1.65,3.58-4.19,4.4,1.48,1.06,2.63,1.56,2.92,3.45-2.83.29-4.31,3.28-3.61,6.26-.64,1.54-2.48,2.06-3.24,3.55-.61,1.21.51,2.5.47,4.05-4.31.32-3.77,10.39-9.72,12.92-4.16,1.77-7.13,5.17-11.31,6.6-.7.24-1.62.19-1.41.99.07.27.09.55.59.49-5.47,1.74-11.78.99-16.47-2.72-5.77-4.57-6.81-10.98-7.5-17.45-.5-7.59-.45-15.09.13-22.47-.52-11.94-.49-25.25.11-37.35l1.28-2.44c-.81-6.12,6.48-12.35,11.66-14.23.47-1.45,1-2.3,2.67-1.95,1.67-1.14,6.23,3.28,10.04.15,2.25-1.85,2.75-5.46,4.46-7.71.67-.08,1.56,1.49,2.32,1.28,3.55-1.01,1.31-12.69,1.74-16.77.31-2.95-.88-5.65-.4-8.6,1.72-10.47-2.66-14.69,3.76-16.42Z"/>
  <path class="cls-9" d="M313.08,383.7c-.47,1.02-1.2,1.89-1.58,3.5-3.82-.26-5.06,2.66-7.27,4.57-8.3,7.2-.67,7.83-6.76,10.56-1.04-29.9-.56-61.85-.06-92.23.75-14.73,12.43-29.25,24.99-36.23l108.97-60.53c2.3,1.2,7.82-4.74,8.16-2.12.57,4.44-10.09,8.48-10.41,8.73-2.64,2.02-3.95,4.6-7.13,5.85-1.2.59-1.16,4-2.8,4.58s-3.46.23-4.95,1.08c-3.06,1.73-3.9,5.82-6.52,7.77-3.15,2.34-6.8,3.88-9.76,6.83-1.52,1.51-3.05,2.6-5.12,3.18-3.12.86-4.37,5.89-6.72,6.86-3.77,1.55-5.21,3.45-8.39,5.64l-6.62,4.55c-6.45,4.44-1.38,4.3-13.67,9.48-1.96,1.74-1.75,6.39-4.15,7.8-2.19,1.29-2.3,3.8-3.82,5.12-2.06,1.8-17.37,19.12-17.56,23.09l-.23,4.87c-3.75,2.6-4.21,6.52-5.78,10.12-1.81,4.16-2.61,8.03-3.66,12.4-2.51,10.36-3,12.49-3.54,23.24-.14,2.89-3.53,6.03-1.87,9.58.47,1,.56,2.28.21,3.17s-1.56,1.17-2.17,2.06c-1.36,1.97-.88,4.56-1.79,6.5Z"/>
  <path class="cls-18" d="M130.42,187.28c6.44,1.13,12.17,4.81,18.2,8.12l101.43,55.68c5.75,3.16,12.07,5.74,16.69,9.87,6.55,5.84,10.81,14.02,13.34,22.19,1.39,1.6,1.98,3.73,1.76,6.41.26,13.95.19,27.79-.21,41.52-.25,12.5-.5,24.99-.75,37.45-1.27,1.13-2.15.74-2.31-.92l-.14-33.8,1.48-4.13-1-2.11c-.27-11.38-.41-22.8-.44-34.26-3,.91-4.11,3.09-3.34,6.54-.12,1.75-.87,2.32-2.35,1.27-2.59-13.66-10.92-25.27-23.56-32.02l-23.48-12.55-4.34-2.52-86.95-47.43c-10.27-5.6-23.18-1.8-28.35,8.01-1.04,1.98-1.48,3.04-3.37,4.17-.46,1.51.25,3.99-.86,5.19-.21.65-.46.64-.75,0,0-10.59-.15-21.9,8.56-30.53,5.23-5.19,13.45-7.43,20.74-6.15Z"/>
  <path class="cls-34" d="M273.39,309.35c.48,11.1.65,22.3.51,33.62l.99.79v23.11l-1.5.9c.48,7.28.67,14.64.58,22.08l1.02.61.19,59.14c1.47-.54,3.2-.71,5.17-.53,1.28,6.61.41,13.4-1.15,19.82-2.06,5.18-6.47,9.72-12.03,11.48-6.71,2.11-13.38.66-19.26-2.62l-20.18-11.26c4.07,1.81-8.42-6.84-8.57-8.05.89-1.91,3.19-1.06,4.22-2.14,2.81-2.93,5.94-4.65,9.72-6.04.72-.27,8.89-8.85,10.2-9.92,2.45-2.01,3.52-4.22,5.53-6.76l6.06-7.65c2.02-2.55,6.68-6.99,9.48-10.28l7.57-8.9c.24-18.76.47-37.5.71-56.22v-43.38c0-.55.48-.9.75-.82,2.19,0,2.1,2.5,0,3Z"/>
  <path class="cls-24" d="M281.63,413.46l-.13,47.12c0,2.92-1.36,5.94-2.3,8.31-1.29-1.27.27-3.13.57-4.93.72-4.36.3-9.13.38-13.55-2.29-1.15-4.01,2.03-5.79.65-.43-.33-.68-.88-.68-1.72l-.13-45.6-.16-35.97c1.03-.84,1.9-.76,2.13.51l.36,16.49c1.4-1.54,3.87-2.94,5.01-.88l-.02,28.24c0,.29.26.73.76,1.33Z"/>
  <path class="cls-27" d="M279.91,329.67l.15,38.04c0,.54.64.9.83.81.21-.65.46-.64.75,0v44.94c-.32.01-.81.13-1.09-.03-.37-.23-.44-.77-.44-1.43l.04-27.87c-3.66.53-3.92,3.24-5.69,5.92l-.39-21.5c0-.51-.32-.87-.68-.78v-58.42c1.19-.95,2.03-.71,2.2.77l.22,21.84c1.3-2.24,2.67-3,4.1-2.29Z"/>
  <path class="cls-39" d="M297.47,402.32l-.11,37.35c-.21.65-.46.64-.75,0,.77-43.23-1.39-86.67.8-129.58l.06,92.23Z"/>
  <path class="cls-38" d="M281.63,345.3c-.62-4.29-.58-9.69,0-14.23l-.15-40.36c0-2.64-.73-5.39-1.4-7.58,1.37-.44,2.15,1.79,2.15,3.36l.18,57.97c0,.58-.54.93-.78.84Z"/>
  <path class="cls-22" d="M281.63,345.3v23.22h-.75v-36.64c0-.54.47-.9.75-.81v14.23Z"/>
  <path class="cls-38" d="M297.23,462.15c-.78-7.39-.75-14.93-.62-22.47h.75l-.13,22.47Z"/>
  <path class="cls-23" d="M414.16,452.99c1.16.3.7,1.09-.38,1.11l-7.57,3.89c-.63.44-1.02.4-1.04-.36,2.86-1.51,6.24-2.96,8.99-4.65Z"/>
  <path class="cls-29" d="M330.26,497.95c.31.05.8.21.76.72-3,1.18-5.4,2.49-7.95,3.92-.3-.4-.38-.63-.33-.76,2.12-1.6,5.1-2.96,7.52-3.88Z"/>
  <path class="cls-6" d="M361.05,481.5c1.56.4-9.86,6.26-7.59,3.86,2.43-1.39,4.78-3.21,7.59-3.86Z"/>
  <path class="cls-20" d="M340.08,492.74c-5.14,4.52-3.41,1.86-6.68,4.34-.44.33-.84.29-.91-.49,2.31-1.6,4.87-3.04,7.59-3.85Z"/>
  <path class="cls-10" d="M451.69,432.87c-.65,1.31-6.8,5.26-6.09,3.05,1.97-1.02,3.72-2.84,6.09-3.05Z"/>
  <path class="cls-15" d="M319.99,503.36c.38-.14.67.11.54.53-1.1.35-7.68,3.82-6.59,1.7,1.93-.51,4.15-1.8,6.05-2.23Z"/>
  <path class="cls-35" d="M101.12,314.59v-90.63h.75v89.75c0,.65-.47.97-.75.88Z"/>
  <path class="cls-7" d="M86.89,298.11v-71.16c.27-.09.75.24.75.85v69.46c0,.6-.47.94-.75.85Z"/>
  <path class="cls-31" d="M86.89,349.05v-46.44c.27-.09.75.26.75.82v44.8c0,.56-.47.91-.75.82Z"/>
  <path class="cls-30" d="M101.2,362.53c.11-13.8-.65-27.66.39-41.2l.33,40.37c0,.51-.5.9-.72.82Z"/>
  <path class="cls-13" d="M295.12,86.89c-3.31-.38-7.28-.29-10.6,0-2.16-1.01,12.71-1.18,10.6,0Z"/>
  <path class="cls-22" d="M279.91,329.67c-3.77,3.07-4.58,8.27-5.49,13.44l-.32-32.95c0-.54-.38-.89-.71-.81v-3c0-1.77-.29-3.51-.62-5.24,2.03-.11-.47-6.64,2.33-7.59,2.32-.79,2.84-1.81,4.73-4.2.81,13.81.01,27.01.06,40.35Z"/>
  <path class="cls-12" d="M271.94,406.76l-.05-55.39c0-.57.49-.92.76-.83l.02,53.96c0,1.17-.23,1.67-.73,2.26Z"/>
  <path class="cls-4" d="M439.7,369.41c-11.52,26.08-38.65,51.69-68.08,54.34-10.46.94-20.42-1.15-28.73-7.09-3.75-2.69-5.41-6.89-4.98-11.39.35-3.66,2.32-6.57,5.13-7.89,8-3.78,11.55,5.77,23.24,5.77,2.76.34,5.55.4,8.3-.04,8.69-.4,15.8-4.17,22.45-8.32,14.66-9.15,24.81-23.15,30.56-39.12,1.51-4.18,5.43-6.48,9.31-5.59,4.3.99,6.58,4.99,5.99,9.48-.48,3.64-2.19,6.66-3.19,9.84Z"/>
  <path class="cls-2" d="M373.73,327.32c1.09,14.85-4.94,31.85-18.68,40.24-4.16,1.27-9,1.54-12.77-1.35s-4.95-7.19-6.57-11.18c-.31-.08-.57-.18-.63-.34-4.32-11.92,4.41-38.1,16.77-43.62,6.4-3.07,13.52-2.67,17.77,4.04,2.21,3.48,3.81,8.05,4.12,12.21Z"/>
  <path class="cls-25" d="M438.05,291.16c1.05,12.76-1.99,25.32-10.41,34.46-4.54,4.93-10.92,7.81-17.21,5.28-5.44-2.19-7.64-7.58-9.55-12.56-1.01-2.62-.85-4.92-.95-7.57-.46-13.03,4.17-26.62,14.26-34.67,6.34-5.06,14.53-3.8,18.99,2.21,2.94,3.97,4.16,8.32,4.87,12.84Z"/>
  <path class="cls-9" d="M351.85,311.07c-10.93,7.22-16.76,22.44-17.07,35.7-.07,2.91-.04,5.86.94,8.26-.19.49.14,1.27-.79,1.5-1.33-7.18-1.31-14.21.07-20.92,1.63-7.91,5.93-15.21,11.17-21.48,1.91-2.29,3.93-2.22,5.68-3.06Z"/>
  <path class="cls-5" d="M374.57,403.11c-2.4,1.02-5.49,1.09-8.3.04,2.75-.3,5.54-.24,8.3-.04Z"/>
</svg>