<?xml version="1.0" encoding="UTF-8" standalone="no"?>
<svg
   version="1.0"
   width="443.984598pt"
   height="444.502862pt"
   viewBox="0 0 443.984598 444.502862"
   preserveAspectRatio="xMidYMid meet"
   id="svg611"
   sodipodi:docname="agid.svg"
   inkscape:version="1.2.2 (b0a8486541, 2022-12-01)"
   xmlns:inkscape="http://www.inkscape.org/namespaces/inkscape"
   xmlns:sodipodi="http://sodipodi.sourceforge.net/DTD/sodipodi-0.dtd"
   xmlns="http://www.w3.org/2000/svg"
   xmlns:svg="http://www.w3.org/2000/svg">
  <defs
     id="defs615" />
  <sodipodi:namedview
     id="namedview613"
     pagecolor="#ffffff"
     bordercolor="#000000"
     borderopacity="0.25"
     inkscape:showpageshadow="2"
     inkscape:pageopacity="0.0"
     inkscape:pagecheckerboard="0"
     inkscape:deskcolor="#d1d1d1"
     inkscape:document-units="pt"
     showgrid="false"
     inkscape:zoom="1.4156264"
     inkscape:cx="245.82757"
     inkscape:cy="296.33525"
     inkscape:window-width="1920"
     inkscape:window-height="1020"
     inkscape:window-x="0"
     inkscape:window-y="32"
     inkscape:window-maximized="1"
     inkscape:current-layer="svg611" />
  <metadata
     id="metadata485"> Created by potrace 1.16, written by Peter Selinger 2001-2019 </metadata>
  <g
     transform="translate(-28.007704,472.308009) scale(0.100000,-0.100000)"
     fill="#000000"
     stroke="none"
     id="g609"
     style="fill:#00d2d2;fill-opacity:1">
    <path
       d="M2393 4719 c-44 -4 -119 -18 -165 -30 -97 -26 -189 -66 -167 -73 7 -2 45 -12 83 -20 86 -21 221 -75 287 -115 l49 -31 78 45 c83 48 238 108 311 120 l45 7 -19 15 c-11 7 -54 25 -96 38 -133 42 -267 56 -406 44z"
       id="path487"
       style="fill:#00d2d2;fill-opacity:1" />
    <path
       d="M3228 4501 c77 -72 153 -167 198 -248 l29 -53 75 0 c91 0 240 -22 333 -49 l68 -20 -27 32 c-62 76 -168 178 -229 222 -125 89 -297 155 -450 174 l-68 8 71 -66z"
       id="path489"
       style="fill:#00d2d2;fill-opacity:1" />
    <path
       d="M1867 4505 c-88 -73 -182 -178 -232 -260 -47 -77 -46 -79 25 -90 104 -17 254 -79 372 -155 l62 -40 40 77 c61 117 111 186 200 280 l80 85 -15 10 c-8 5 -51 27 -97 49 -87 42 -194 73 -305 87 l-67 9 -63 -52z"
       id="path491"
       style="fill:#00d2d2;fill-opacity:1" />
    <path
       d="M2891 4545 c-112 -25 -240 -76 -329 -134 -10 -6 6 -26 58 -77 91 -87 158 -177 211 -279 23 -44 43 -82 45 -84 2 -3 35 16 72 42 38 26 102 62 144 81 71 33 234 86 264 86 22 0 16 21 -24 85 -48 75 -169 205 -239 256 l-52 39 -43 -1 c-24 0 -72 -7 -107 -14z"
       id="path493"
       style="fill:#00d2d2;fill-opacity:1" />
    <path
       d="M1660 4530 c-225 -49 -400 -159 -562 -354 -27 -32 -47 -60 -45 -62 2 -3 17 0 33 7 81 31 189 50 306 56 l128 6 5 18 c14 43 128 202 197 273 l73 76 -25 -1 c-14 0 -63 -9 -110 -19z"
       id="path495"
       style="fill:#00d2d2;fill-opacity:1" />
    <path
       d="M2398 4277 c-87 -87 -168 -201 -210 -297 l-31 -70 61 -64 c120 -129 203 -272 253 -435 l22 -74 24 83 c46 161 133 315 244 435 l57 60 -27 60 c-16 33 -49 93 -75 133 -51 78 -207 242 -231 242 -8 0 -47 -33 -87 -73z"
       id="path497"
       style="fill:#00d2d2;fill-opacity:1" />
    <path
       d="M3503 4124 c-8 -4 -6 -20 8 -61 37 -109 52 -205 53 -344 l1 -136 105 5 c123 5 232 -7 349 -41 l84 -25 -6 112 c-6 116 -33 232 -80 339 l-25 54 -83 30 c-46 17 -118 38 -159 46 -79 17 -227 29 -247 21z"
       id="path499"
       style="fill:#00d2d2;fill-opacity:1" />
    <path
       d="M1335 4099 c-88 -8 -211 -40 -307 -81 l-46 -20 -26 -60 c-45 -102 -67 -205 -73 -330 l-6 -118 69 24 c112 38 201 51 339 51 l130 0 1 160 1 160 26 95 c14 52 28 103 32 113 l7 17 -28 -1 c-16 -1 -70 -5 -119 -10z"
       id="path501"
       style="fill:#00d2d2;fill-opacity:1" />
    <path
       d="M3272 4084 c-113 -33 -198 -73 -288 -135 l-76 -53 5 -20 c3 -12 13 -55 23 -96 14 -58 18 -112 17 -235 l-1 -160 -20 -79 -20 -78 62 59 c75 73 123 110 202 157 71 41 213 100 265 110 46 8 49 18 49 163 0 116 -15 209 -52 326 l-22 67 -30 -1 c-17 0 -68 -11 -114 -25z"
       id="path503"
       style="fill:#00d2d2;fill-opacity:1" />
    <path
       d="M1557 4093 c-12 -22 -47 -145 -57 -200 -13 -75 -14 -276 -2 -317 l8 -30 45 -12 c155 -40 337 -139 452 -245 l73 -67 -24 92 -24 91 -1 150 c-1 140 7 199 39 311 l6 21 -71 47 c-38 26 -103 62 -144 81 -103 48 -290 96 -300 78z"
       id="path505"
       style="fill:#00d2d2;fill-opacity:1" />
    <path
       d="M4116 3917 c28 -77 53 -211 60 -321 l7 -109 30 -16 c83 -45 189 -124 259 -193 l78 -76 -6 56 c-15 131 -73 286 -155 412 -48 74 -172 206 -241 255 l-47 34 15 -42z"
       id="path507"
       style="fill:#00d2d2;fill-opacity:1" />
    <path
       d="M792 3867 c-195 -168 -322 -400 -348 -639 l-7 -63 74 74 c80 79 145 131 236 186 l57 34 2 113 c3 110 17 200 48 303 8 27 14 50 13 52 -2 1 -35 -26 -75 -60z"
       id="path509"
       style="fill:#00d2d2;fill-opacity:1" />
    <path
       d="M2799 3788 c-53 -62 -118 -156 -146 -213 -22 -43 -72 -177 -79 -210 -32 -160 -35 -314 -9 -448 l18 -88 20 18 c38 35 139 177 171 242 48 97 83 196 97 281 19 107 15 308 -8 398 l-18 74 -46 -54z"
       id="path511"
       style="fill:#00d2d2;fill-opacity:1" />
    <path
       d="M2121 3786 c-20 -82 -30 -223 -21 -308 14 -130 22 -182 30 -193 4 -5 13 -28 20 -50 37 -117 107 -237 204 -349 l51 -58 13 43 c30 97 25 432 -8 504 -5 11 -21 51 -35 90 -14 38 -42 98 -61 132 -33 59 -136 196 -167 222 l-15 11 -11 -44z"
       id="path513"
       style="fill:#00d2d2;fill-opacity:1" />
    <path
       d="M3635 3512 c-76 -4 -95 -10 -95 -31 0 -33 -60 -192 -100 -268 -46 -86 -106 -170 -169 -237 -29 -31 -39 -46 -26 -42 115 42 413 54 540 23 39 -10 77 -20 85 -22 20 -6 87 92 140 207 40 85 75 200 82 267 l3 34 -55 19 c-106 37 -271 57 -405 50z"
       id="path515"
       style="fill:#00d2d2;fill-opacity:1" />
    <path
       d="M1220 3493 c-82 -6 -174 -24 -253 -50 l-78 -26 6 -50 c16 -113 100 -309 178 -415 23 -31 37 -41 52 -38 249 53 359 59 525 27 55 -11 106 -23 113 -27 6 -4 -16 22 -49 58 -122 131 -219 297 -259 446 -14 48 -23 63 -39 67 -36 7 -149 12 -196 8z"
       id="path517"
       style="fill:#00d2d2;fill-opacity:1" />
    <path
       d="M3375 3456 c-149 -58 -258 -128 -366 -235 -41 -42 -95 -104 -118 -139 -50 -75 -114 -207 -135 -279 l-15 -53 15 0 c27 0 168 59 237 100 84 49 206 145 236 185 12 17 39 53 62 80 55 69 104 159 139 254 45 124 44 125 -55 87z"
       id="path519"
       style="fill:#00d2d2;fill-opacity:1" />
    <path
       d="M1524 3439 c9 -47 64 -172 104 -238 123 -201 311 -353 541 -435 41 -15 76 -24 79 -21 10 10 -39 140 -82 220 -65 119 -159 232 -255 308 -95 74 -232 148 -330 177 l-63 19 6 -30z"
       id="path521"
       style="fill:#00d2d2;fill-opacity:1" />
    <path
       d="M4167 3402 c-3 -4 -8 -29 -12 -56 -15 -104 -84 -272 -157 -379 -22 -32 -38 -60 -36 -61 1 -2 41 -23 88 -47 105 -54 217 -137 292 -216 l57 -61 31 54 c58 103 101 241 115 371 l7 62 -35 48 c-40 54 -142 155 -202 200 -62 46 -144 93 -148 85z"
       id="path523"
       style="fill:#00d2d2;fill-opacity:1" />
    <path
       d="M749 3340 c-80 -48 -223 -181 -274 -254 l-38 -56 11 -80 c14 -99 51 -211 104 -315 22 -44 41 -82 43 -83 2 -2 34 28 71 67 83 89 175 159 279 212 44 23 82 43 84 45 2 2 -12 27 -31 56 -88 134 -127 221 -162 360 l-22 87 -65 -39z"
       id="path525"
       style="fill:#00d2d2;fill-opacity:1" />
    <path
       d="M4597 2873 c-20 -90 -72 -221 -116 -293 -17 -28 -31 -54 -31 -58 0 -5 20 -44 45 -88 54 -95 80 -160 109 -277 l22 -89 36 109 c45 132 58 207 58 338 0 109 -18 219 -51 317 -20 59 -46 118 -53 118 -1 0 -10 -35 -19 -77z"
       id="path527"
       style="fill:#00d2d2;fill-opacity:1" />
    <path
       d="M337 2824 c-44 -131 -57 -207 -57 -339 0 -140 37 -312 88 -410 l15 -30 23 91 c24 98 79 236 119 296 30 45 31 55 4 93 -57 85 -113 222 -142 349 l-13 59 -37 -109z"
       id="path529"
       style="fill:#00d2d2;fill-opacity:1" />
    <path
       d="M3470 2899 c-225 -21 -418 -106 -590 -261 -29 -27 -50 -48 -47 -48 3 0 39 -7 79 -16 200 -42 446 -6 648 96 112 57 278 189 253 203 -36 21 -236 36 -343 26z"
       id="path531"
       style="fill:#00d2d2;fill-opacity:1" />
    <path
       d="M1350 2884 c-14 -2 -61 -11 -106 -20 l-81 -16 46 -42 c132 -121 294 -202 481 -241 104 -22 295 -21 399 1 l83 18 -43 38 c-127 112 -274 192 -414 228 -120 31 -283 46 -365 34z"
       id="path533"
       style="fill:#00d2d2;fill-opacity:1" />
    <path
       d="M2482 2823 l-13 -46 13 -8 c23 -15 33 -3 31 35 -4 63 -17 72 -31 19z"
       id="path535"
       style="fill:#00d2d2;fill-opacity:1" />
    <path
       d="M3840 2777 c-110 -105 -236 -180 -395 -236 -49 -18 -91 -33 -93 -35 -1 -2 28 -11 65 -20 142 -36 315 -134 441 -250 l58 -54 71 33 c40 18 93 48 119 66 65 44 171 142 212 194 l34 44 -44 51 c-48 56 -148 140 -223 187 -49 31 -158 83 -173 83 -4 -1 -36 -29 -72 -63z"
       id="path537"
       style="fill:#00d2d2;fill-opacity:1" />
    <path
       d="M1005 2781 c-44 -21 -107 -59 -140 -84 -69 -52 -177 -156 -201 -192 l-16 -25 31 -35 c95 -108 243 -218 358 -266 l53 -22 67 64 c115 108 247 187 399 238 47 16 87 31 90 34 3 2 -26 12 -63 21 -142 36 -324 139 -443 252 l-55 53 -80 -38z"
       id="path539"
       style="fill:#00d2d2;fill-opacity:1" />
    <path
       d="M2316 2795 c13 -55 23 -75 39 -75 32 0 28 31 -9 68 l-37 37 7 -30z"
       id="path541"
       style="fill:#00d2d2;fill-opacity:1" />
    <path
       d="M2642 2787 l-32 -33 13 -19 c8 -10 19 -15 25 -11 12 7 36 85 29 92 -2 2 -18 -11 -35 -29z"
       id="path543"
       style="fill:#00d2d2;fill-opacity:1" />
    <path
       d="M2765 2676 c-42 -12 -59 -41 -30 -52 11 -5 29 5 53 30 40 39 38 41 -23 22z"
       id="path545"
       style="fill:#00d2d2;fill-opacity:1" />
    <path
       d="M2210 2645 c37 -38 39 -39 58 -27 21 14 2 41 -36 52 -56 15 -59 13 -22 -25z"
       id="path547"
       style="fill:#00d2d2;fill-opacity:1" />
    <path
       d="M2431 2621 c-64 -34 -87 -116 -54 -186 47 -99 199 -99 246 0 61 128 -68 252 -192 186z"
       id="path549"
       style="fill:#00d2d2;fill-opacity:1" />
    <path
       d="M2767 2523 c-12 -11 -8 -33 7 -39 8 -3 34 0 57 7 l44 11 -45 14 c-52 16 -55 16 -63 7z"
       id="path551"
       style="fill:#00d2d2;fill-opacity:1" />
    <path
       d="M2160 2508 l-35 -10 49 -15 49 -14 8 13 c21 32 -11 44 -71 26z"
       id="path553"
       style="fill:#00d2d2;fill-opacity:1" />
    <path
       d="M3040 2454 c-19 -2 -75 -12 -124 -21 l-90 -16 49 -45 c129 -117 318 -211 480 -241 148 -26 212 -25 445 8 l45 7 -40 38 c-130 124 -325 223 -500 255 -71 12 -216 21 -265 15z"
       id="path555"
       style="fill:#00d2d2;fill-opacity:1" />
    <path
       d="M1812 2439 c-220 -21 -461 -129 -596 -268 -28 -29 -35 -42 -25 -45 50 -17 144 -27 246 -27 263 0 486 86 682 263 l51 46 -52 12 c-106 22 -204 29 -306 19z"
       id="path557"
       style="fill:#00d2d2;fill-opacity:1" />
    <path
       d="M4332 2379 c-78 -84 -172 -156 -277 -210 -44 -23 -82 -43 -84 -45 -2 -2 12 -27 31 -56 86 -131 153 -289 173 -405 4 -24 9 -43 11 -43 2 0 34 20 71 44 87 56 219 179 268 250 l38 56 -11 80 c-6 44 -23 115 -37 158 -28 81 -92 217 -109 231 -7 6 -35 -17 -74 -60z"
       id="path559"
       style="fill:#00d2d2;fill-opacity:1" />
    <path
       d="M568 2356 c-49 -85 -95 -224 -109 -332 l-12 -92 36 -48 c40 -55 142 -155 202 -201 63 -46 144 -93 149 -85 2 4 7 30 11 57 16 106 84 270 157 378 22 32 38 60 36 61 -1 2 -41 23 -88 47 -107 55 -219 139 -291 216 l-56 61 -35 -62z"
       id="path561"
       style="fill:#00d2d2;fill-opacity:1" />
    <path
       d="M2738 2383 c-21 -5 -23 -26 -5 -41 6 -6 30 -13 52 -17 l40 -7 -34 36 c-19 20 -35 35 -35 35 -1 -1 -9 -3 -18 -6z"
       id="path563"
       style="fill:#00d2d2;fill-opacity:1" />
    <path
       d="M2210 2345 l-35 -36 30 7 c59 14 77 24 73 41 -6 30 -32 25 -68 -12z"
       id="path565"
       style="fill:#00d2d2;fill-opacity:1" />
    <path
       d="M2342 2268 c-6 -7 -13 -31 -17 -53 l-7 -40 35 33 c23 23 33 40 30 53 -6 22 -26 25 -41 7z"
       id="path567"
       style="fill:#00d2d2;fill-opacity:1" />
    <path
       d="M2623 2264 c-4 -10 7 -29 31 -52 l37 -37 -7 30 c-13 55 -23 75 -39 75 -9 0 -18 -7 -22 -16z"
       id="path569"
       style="fill:#00d2d2;fill-opacity:1" />
    <path
       d="M2750 2245 c0 -28 59 -169 100 -238 125 -215 319 -372 555 -451 53 -18 71 -21 73 -11 5 21 -55 165 -102 245 -122 207 -310 360 -544 444 -86 31 -82 30 -82 11z"
       id="path571"
       style="fill:#00d2d2;fill-opacity:1" />
    <path
       d="M2144 2217 c-45 -19 -110 -50 -145 -71 -69 -41 -207 -147 -208 -159 -1 -4 -18 -26 -38 -48 -55 -59 -111 -145 -148 -224 -39 -84 -71 -182 -62 -191 8 -9 113 29 192 69 189 95 347 253 445 447 26 52 80 191 80 207 0 10 -45 -1 -116 -30z"
       id="path573"
       style="fill:#00d2d2;fill-opacity:1" />
    <path
       d="M2484 2226 c-3 -8 0 -34 7 -57 l12 -44 14 49 14 49 -13 8 c-19 12 -28 11 -34 -5z"
       id="path575"
       style="fill:#00d2d2;fill-opacity:1" />
    <path
       d="M2363 2112 c-96 -115 -145 -199 -196 -337 -54 -147 -68 -374 -32 -534 l18 -84 39 44 c48 54 128 170 155 224 22 43 72 177 79 210 16 82 23 128 29 183 7 68 -8 228 -28 306 l-13 50 -51 -62z"
       id="path577"
       style="fill:#00d2d2;fill-opacity:1" />
    <path
       d="M2582 2127 c-21 -83 -31 -223 -22 -309 13 -121 20 -170 30 -193 5 -11 22 -55 39 -98 38 -100 94 -194 172 -286 44 -52 64 -69 69 -60 16 30 34 159 34 249 0 97 -18 249 -34 285 -5 11 -21 52 -35 90 -42 114 -103 211 -203 324 l-39 45 -11 -47z"
       id="path579"
       style="fill:#00d2d2;fill-opacity:1" />
    <path
       d="M3286 2029 c117 -125 200 -265 253 -428 l29 -86 68 -6 c76 -7 243 5 307 21 23 6 70 21 105 33 l63 21 -6 50 c-16 112 -100 308 -178 414 -23 30 -38 41 -52 38 -11 -2 -67 -13 -125 -26 l-105 -22 -120 5 c-111 5 -261 28 -288 44 -7 3 15 -23 49 -58z"
       id="path581"
       style="fill:#00d2d2;fill-opacity:1" />
    <path
       d="M1073 2008 c-79 -118 -154 -308 -165 -422 l-3 -29 55 -19 c95 -33 200 -48 332 -49 69 -1 135 2 145 5 13 4 25 30 40 86 43 155 127 305 241 431 34 37 49 60 37 55 -137 -52 -492 -52 -627 -1 -8 3 -31 -21 -55 -57z"
       id="path583"
       style="fill:#00d2d2;fill-opacity:1" />
    <path
       d="M4485 1757 c-70 -72 -156 -139 -248 -192 l-48 -27 6 -42 c12 -77 -24 -316 -61 -410 -11 -28 102 60 161 126 108 121 185 258 229 410 22 78 44 208 35 208 -2 0 -36 -33 -74 -73z"
       id="path585"
       style="fill:#00d2d2;fill-opacity:1" />
    <path
       d="M455 1744 c17 -140 76 -291 163 -425 47 -71 182 -211 249 -258 l32 -22 -15 43 c-29 79 -53 214 -60 325 l-7 110 -45 22 c-73 36 -172 110 -250 190 l-74 73 7 -58z"
       id="path587"
       style="fill:#00d2d2;fill-opacity:1" />
    <path
       d="M2948 1686 l24 -91 1 -150 c1 -140 -7 -199 -39 -311 l-6 -21 71 -47 c124 -83 296 -150 405 -158 l39 -3 19 55 c33 93 49 200 49 325 1 146 -7 170 -56 179 -60 12 -220 80 -306 132 -45 27 -114 79 -153 115 l-72 67 24 -92z"
       id="path589"
       style="fill:#00d2d2;fill-opacity:1" />
    <path
       d="M2040 1724 c-57 -59 -141 -123 -217 -168 -69 -40 -217 -102 -267 -112 -43 -7 -46 -18 -46 -161 0 -116 15 -209 52 -325 l22 -68 27 0 c38 0 189 45 264 79 68 31 215 128 215 141 0 5 -10 48 -22 97 l-23 88 2 160 c1 123 5 178 21 238 10 42 19 77 18 77 -1 0 -22 -21 -46 -46z"
       id="path591"
       style="fill:#00d2d2;fill-opacity:1" />
    <path
       d="M2500 1642 c0 -34 -59 -192 -101 -270 -43 -82 -129 -199 -182 -251 l-35 -33 27 -62 c47 -103 121 -207 209 -293 47 -46 90 -83 97 -83 22 0 162 147 214 224 28 40 64 106 82 145 l32 71 -55 58 c-120 125 -194 249 -249 415 -34 100 -39 111 -39 79z"
       id="path593"
       style="fill:#00d2d2;fill-opacity:1" />
    <path
       d="M4080 1494 c-82 -36 -212 -57 -355 -58 l-140 -1 0 -140 c0 -143 -13 -236 -47 -334 -10 -30 -18 -59 -18 -64 0 -13 144 -2 246 19 44 9 118 32 166 51 l86 34 23 52 c44 103 70 218 76 340 3 64 4 117 2 117 -2 -1 -20 -8 -39 -16z"
       id="path595"
       style="fill:#00d2d2;fill-opacity:1" />
    <path
       d="M903 1369 c5 -119 32 -232 81 -342 l24 -54 68 -26 c136 -52 309 -83 389 -72 l43 7 -22 66 c-37 109 -51 199 -51 337 l0 130 -155 1 -155 0 -95 26 c-52 14 -104 30 -114 34 l-19 7 6 -114z"
       id="path597"
       style="fill:#00d2d2;fill-opacity:1" />
    <path
       d="M2872 974 c-52 -105 -121 -203 -204 -290 -43 -45 -78 -83 -78 -86 0 -3 42 -26 93 -51 102 -51 204 -82 315 -95 l72 -8 63 51 c88 73 182 178 232 260 47 77 46 79 -25 90 -89 14 -266 84 -340 135 -14 9 -41 26 -61 38 l-35 21 -32 -65z"
       id="path599"
       style="fill:#00d2d2;fill-opacity:1" />
    <path
       d="M2054 988 c-32 -23 -95 -58 -139 -79 -74 -35 -239 -89 -271 -89 -22 0 -17 -17 24 -83 45 -74 167 -206 241 -260 l54 -40 64 6 c93 9 205 43 308 93 50 24 95 47 102 51 8 6 -17 38 -79 103 -94 97 -164 195 -207 288 -14 28 -27 52 -31 52 -4 0 -33 -19 -66 -42z"
       id="path601"
       style="fill:#00d2d2;fill-opacity:1" />
    <path
       d="M3910 879 c-58 -24 -203 -50 -312 -56 l-116 -6 -12 -26 c-30 -66 -130 -203 -195 -268 l-73 -73 22 0 c37 0 199 38 255 60 169 66 336 193 442 338 32 44 31 48 -11 31z"
       id="path603"
       style="fill:#00d2d2;fill-opacity:1" />
    <path
       d="M1099 831 c173 -216 420 -359 674 -389 l65 -8 -72 70 c-81 80 -149 166 -192 243 l-29 53 -60 0 c-94 0 -224 18 -323 44 l-91 23 28 -36z"
       id="path605"
       style="fill:#00d2d2;fill-opacity:1" />
    <path
       d="M2450 510 c-74 -46 -192 -94 -295 -120 l-70 -17 50 -22 c179 -79 432 -95 633 -41 94 25 183 61 177 71 -3 3 -26 10 -52 14 -65 9 -245 78 -316 120 -32 19 -59 35 -60 35 -1 0 -31 -18 -67 -40z"
       id="path607"
       style="fill:#00d2d2;fill-opacity:1" />
  </g>
</svg>
