<?xml version="1.0" encoding="UTF-8" standalone="no"?>
<svg
   id="Layer_1"
   data-name="Layer 1"
   viewBox="0 0 198.79057 218.70311"
   version="1.1"
   sodipodi:docname="authsig.svg"
   width="198.79057"
   height="218.70311"
   inkscape:version="1.2.2 (b0a8486541, 2022-12-01)"
   xmlns:inkscape="http://www.inkscape.org/namespaces/inkscape"
   xmlns:sodipodi="http://sodipodi.sourceforge.net/DTD/sodipodi-0.dtd"
   xmlns="http://www.w3.org/2000/svg"
   xmlns:svg="http://www.w3.org/2000/svg">
  <sodipodi:namedview
     id="namedview391"
     pagecolor="#ffffff"
     bordercolor="#000000"
     borderopacity="0.25"
     inkscape:showpageshadow="2"
     inkscape:pageopacity="0.0"
     inkscape:pagecheckerboard="0"
     inkscape:deskcolor="#d1d1d1"
     showgrid="false"
     inkscape:zoom="9.7429928"
     inkscape:cx="95.247941"
     inkscape:cy="43.467137"
     inkscape:window-width="1920"
     inkscape:window-height="1020"
     inkscape:window-x="0"
     inkscape:window-y="32"
     inkscape:window-maximized="1"
     inkscape:current-layer="Layer_1" />
  <defs
     id="defs4">
    <style
       id="style2">
      .cls-1 {
        fill: #4d9253;
      }

      .cls-2 {
        fill: #fafcfa;
      }

      .cls-3 {
        fill: #356a3b;
      }

      .cls-4 {
        fill: #3d7844;
      }

      .cls-5 {
        fill: #2a5632;
      }

      .cls-6 {
        fill: #498c4e;
      }

      .cls-7 {
        fill: #539d56;
      }

      .cls-8 {
        fill: #63c169;
      }

      .cls-9 {
        fill: #84db89;
      }

      .cls-10 {
        fill: #97e59d;
      }

      .cls-11 {
        fill: #adebbd;
      }

      .cls-12 {
        fill: #5aad5c;
      }

      .cls-13 {
        fill: #fefefe;
      }

      .cls-14 {
        fill: #427f47;
      }

      .cls-15 {
        fill: #e8fcea;
      }

      .cls-16 {
        fill: #1d3e23;
      }
    </style>
  </defs>
  <path
     class="cls-15"
     d="m 133.67288,38.18061 c -4.99,-3.24 -17.73,-5.6 -20.5,-9.75 -5.15,-7.71 7.53,-18.19 13.24,-21.7699996 4.12,-2.58 12.39,-6.39 17.17,-5.14 5.21,1.36 4.4,6.08 2.69,9.9999996 -0.43,0.99 -4.39,7.3 -5.1,3.89 -0.15,-0.73 7.96,-10.6499996 2.24,-11.7299996 -6.81,-1.28 -17.78,5.31 -22.5,9.9699996 -18.46,18.22 5.68,16.49 15.76,23.78 1.38,1 0.3,2.31 3.01,1.5 1.25,-0.37 10.18,-4.62 11.19,-5.32 0.77,-0.53 2.1,-4.18 3.3,-2.94 0.53,0.55 -2.15,7.66 -2.36,9.39 -0.36,3.03 -1.15,6.65 2.86,5.11 1.75,-0.67 1.86,-1.45 3,-2.5 2.37,-2.18 2.36,-2.41 4,-5 1.27,-1.99 2.24,-4.17 3.74,-6.01 1.5,-1.84 5.01,-4.97 7.44,-4.83 0.68,0.04 1.37,0.57 2.13,0.68 0.76,0.11 2.21,-0.94 2.64,0.48 0.55,1.82 -3.21,12.8 -2.46,13.67 1.24,-0.32 2.75,-1.67 3.73,-2.51 2.1,-1.79 3.92,-4.26 6.01,-5.99 0.56,-0.46 0.81,-1.21 1.75,-1 1.82,1.95 -11.23,11.5 -12.42,13.33 -2.29,3.52 -4.02,13.27 -5.99,18.01 -1.77,4.27 -7.36,16.66 -13.47,13.79 -3.09,-1.45 -1.72,-6.64 -0.86,-9.12 2.33,-6.72 8.93,-13.2 13.52,-18.55 0.45,-0.53 -0.27,-0.88 -0.28,-0.96 -0.09,-0.7 -0.08,-1.39 -0.5,-2 2.02,-0.79 3.11,-3.16 4.75,-4.5 l 0.74,1.49 c 0.2,-0.86 1.71,-5.76 1.5,-5.99 -0.76,-0.88 -1.11,0.72 -1.3,0.93 -2.02,2.28 -3.74,6.35 -6.99,7.03 -0.87,0.18 -1.9,-0.1 -2.71,0.03 l -1.75,-3.5 c -3.23,3.84 -9.58,9.07 -11.75,1.5 l 1.5,-8 c -0.4,-0.37 -9.42,3.61 -10,4.24 -1.57,1.72 0.4,2.45 0.5,2.76 3.76,10.93 -14.54,24.25 -23.88,25.37 -8.15,0.98 -10.33,-3.26 -5.83,-9.83 4.9,-7.15 15.39,-11.84 22.21,-17.04 l 0.5,-1.5 c -1.07,0.06 -1.77,0.25 -1.5,-1 0.28,0.07 0.69,-0.06 1,0 0.11,0.02 1.34,1.32 1,-0.24 -0.12,-0.56 -0.77,-0.1 -1,-0.26 z m 33,4.5 c 0.54,-0.08 0.79,-0.03 1.24,-0.49 0.53,-0.55 2.86,-4.11 3.47,-5.05 1.21,-1.88 2.19,-3.34 2.8,-5.45 0.49,-1.71 0.54,-3.02 -2.01,-2.81 -3.28,0.26 -6.35,5.85 -7.37,8.68 -0.44,1.21 -2.23,6.08 -0.35,6.63 1.35,0.22 1.63,-0.71 2.23,-1.5 z m -31.25,-3 v 0.5 c 0.32,-0.17 0.32,-0.33 0,-0.5 z m 1.25,3 c -8.1,3.85 -17.71,9.65 -23.51,16.74 -0.7,0.85 -2.6,3.55 -2.5,4.49 0.46,4.25 9.45,1.31 11.85,0.36 6.01,-2.38 11.58,-6.93 14.66,-12.59 2.08,-3.82 2.84,-5.6 0.99,-10 -1.03,-0.37 -1.24,0.88 -1.49,1 z m 23,31 c 3.24,-3.09 3.78,-5.84 5.5,-9.5 1.83,-3.89 2.8,-5.5 4,-10 0.09,-0.32 2.12,-4.77 0.26,-4 -0.41,0.17 -3.89,3.8 -4.51,4.49 -3.67,4.07 -11.01,13.18 -10.27,18.78 0.54,4.01 3.27,1.9 5.02,0.23 z"
     id="path8" />
  <path
     class="cls-7"
     d="m 153.67288,168.68061 c 0.37,0.22 0.76,0.32 0.93,0.79 5.98,14.78 14.75,28.98 21,43.53 0.77,1.79 1.78,3.66 1.57,5.68 -7.16,0.03 -14.34,0.03 -21.5,0 -0.74,-1.31 -0.24,-3.28 1.37,-3.4 2.2,0.38 15.44,0.88 16.13,-0.1 0.08,-2.04 -2.06,-2.88 -3,-3.99 -9.07,-10.72 -20.61,-24.31 -31,-33.5 -0.53,-0.47 -1.22,-0.55 -1,-1.5 4.33,-2.27 8.7,-3.74 12.91,-5.84 0.84,-0.42 1.57,-0.38 1.59,-1.66 0.21,0.11 0.81,-0.11 1,0 z"
     id="path10" />
  <path
     class="cls-9"
     d="m 19.172878,42.18061 c 1.64,-6.56 13.42,-24.57 18.24,-30.01 4.82,-5.4399996 11.21,-8.4199996 10.75,2.25 l -4.99,23.25 c 1.98,-0.82 4.97,1.04 6.27,0.98 1.3,-0.06 3.51,-4.43 6.11,-1.86 1.85,1.83 -0.68,4.6 -1.27,6.24 -0.67,1.87 -1.23,3.69 -1.61,5.64 -0.02,0.1 -1.09,1.12 0.26,1.5 1.22,0.34 1.33,-0.64 1.74,-1 0.44,-0.38 0.61,-0.41 1,-1 l 0.5,0.5 c -5.7,7.44 -6.56,4.89 -4.36,-3.11 0.62,-2.26 2.23,-4.72 2.64,-6.37 0.46,-1.84 -1.44,-2.08 -2.5,-0.49 -0.64,0.95 -2.32,6.02 -2.63,7.37 -0.43,1.88 -1.59,7.87 0.46,8.77 4.43,1.93 7.84,-4.93 10.14,-7.67 0.84,1.84 0.28,5.15 2.37,6.13 3.98,1.87 7.33,-4.48 10.38,-6.13 -0.12,11.9 5.92,9.22 12.01,3 l 0.5,1.5 c -2.6,1.52 -3.33,4.45 -6.79,4.95 -2.6,0.38 -4.43,0.31 -5.91,-2 -0.6,-0.93 -0.62,-2.99 -2.04,-2.98 -1.35,0 -4.4,5.45 -9.22,2.74 -1.13,-0.64 -1.84,-2.95 -2.78,-2.71 -2.09,2.82 -4.47,5.79 -8.4,4.89 -5.87,-1.34 -0.86,-13.4 -1.86,-14.39 -1.34,0.18 -5.52,0.15 -5.92,1.33 -0.21,3.72 -1.77,7.23 -2.07,10.93 -0.18,2.18 0.51,12.95 -0.6,13.65 -0.65,0.42 -3.79,0.67 -4.45,-0.26 -2.93,-4.13 0.65,-18 1.04,-23.16 -0.66,-0.66 -14.65,2.25 -15.53,3.35 l -13.24,26.63 c -1.9,2.37 -5.73,0.67 -4.91,-2.36 0.75,-3.01 11.49,-21 10.67,-22.12 -1.29,0.78 -2.77,0.32 -4.13,0.62 -2.02,0.44 -7.3,3.57 -8.61999999,0.89 -0.88,-1.8 -0.35,-2.92 1.24999999,-3.76 2.02,-1.06 9.44,-3.13 11.87,-3.63 1.13,-0.23 3.62,0.11 4.07,-0.18 0.3,-0.2 0.24,-1.48 0.67,-1.85 0.27,-0.23 0.8,-0.02 0.89,-0.09 -0.16,0.66 -0.31,2.24 -0.85,2.52 -2.02,0.85 -16.05,3.87 -16.6,4.54 -0.14,0.17 -0.12,1.87 -0.05,1.94 0.54,0.56 13.05,-3.61 14.99,-4 -0.73,3.58 -13.72,24.98 -12.76,26.5 0.45,0.71 1.12,0.61 1.78,0.26 1.34,-0.71 11.53,-24.04 13.96,-27.04 1.42,-1.43 17.62,-5.06 18.52,-4.23 -0.78,6.74 -3.13,14.47 -2.52,21.27 0.13,1.44 1.25,4.89 2.79,2.73 0.27,-0.38 -0.36,-7.62 -0.26,-9.25 0.17,-2.75 1.56,-13.25 2.5,-15.38 0.59,-1.33 4.21,-0.24 4.99,-2.13 0.74,-1.9 -4.16,0.54 -4.46,-1.02 l 5.4,-24.53 c 0.8,-8.8399996 -4.03,-5.6899996 -7.92,-1.43 -6.14,6.72 -14.82,25.49 -19.51,29.24 z"
     id="path12" />
  <path
     class="cls-8"
     d="m 137.67288,101.18061 c 0.16,0.18 0.33,0.34 0.5,0.5 1.7,1.64 4.31,1.59 6.02,3.23 4.25,4.03 3.67,12.03 4.54,17.46 1.32,8.22 3.15,16.12 4.81,24.19 1.17,5.71 2.11,15.03 3.86,20.14 3.04,8.91 14,23.55 19.77,31.48 0.27,1.47 -1.94,1.83 -2.04,2.34 -0.09,0.48 1.41,9.12 1.66,9.54 0.59,1.01 8.83,4.6 10.19,6.08 1.09,0.24 0.99,-2.71 3.19,-0.96 0.08,0.11 -0.08,0.39 0,0.5 l 0.5,0.5 c 0.39,0.59 1.82,1.22 1.5,2.5 -4.99,0.02 -10,-0.02 -15,0 0.21,-2.02 -0.8,-3.89 -1.57,-5.68 -6.25,-14.54 -15.01,-28.75 -21,-43.53 -0.17,-0.48 -0.56,-0.57 -0.93,-0.79 -0.07,-0.82 0.1,-1.69 0,-2.5 -1.86,-15.6 -4,-31.14 -6.5,-46.64 -0.21,-0.48 -5.17,-2.3 -6,-3.36 -0.68,-0.88 -1.03,-3.22 -1.73,-4.52 -0.95,-1.76 -2.2,-3.32 -3.27,-4.98 -0.11,-0.16 0.07,-0.96 -0.27,-1.47 -2.24,-3.34 -2.56,-1.78 -5.01,-1.99 -0.69,-0.06 -1.16,-0.55 -1.23,-0.55 2.32,-1.32 5.61,-1.02 8,-1.5 z m 6.68,7.85 c -1.81,-3.18 -0.24,-5.12 -5.68,-4.35 l 3.01,10.99 3.49,-6.25 c 0.07,-0.39 -0.68,-0.15 -0.82,-0.39 z"
     id="path14" />
  <path
     class="cls-15"
     d="m 94.172878,35.68061 c -0.03,0.09 -0.84,0.53 -1.16,1.58 -0.91,3.07 -1.68,6.23 -2.1,9.41 2.56,-0.49 2.28,-2.96 3.75,-4.74 l -2,0.5 2.01,-6.74 c 0.16,0.04 0.36,-0.05 0.5,0 0.56,0.21 1.22,0.85 1,1.5 -0.14,0.12 -1.09,2.95 -0.99,3.5 1.33,-0.57 1.72,-2.61 2.49,-3.5 4.460002,-5.15 7.480002,-3.41 7.020002,3.27 -0.12,1.75 -2.28,7.16 0.22,7.54 3.14,0.48 6.33,-5.84 8.76,-7.31 -0.43,2.8 -5.17,8.46 -7.87,8.92 -5.43,0.91 -3.38,-7.02 -3.12,-9.92 0.04,-0.48 0.01,-1.01 0,-1.5 -0.01,-0.49 0.02,-1 0,-1.5 -3.000002,-0.53 -2.780002,0.89 -4.000002,2.5 -1.22,1.61 -1.34,2.45 -2,3.5 -0.13,0.2 -0.98,0.57 -1.42,1.32 -1.01,1.74 -5.39,11.53 -6.06,11.95 -2.51,1.56 -2.09,-3.18 -2.02,-4.77 0.65,-0.62 1.67,-4.79 1.5,-5 -0.64,-0.77 -2.75,3.3 -3.87,3.14 -0.25,0.26 -0.06,0.8 -0.12,0.86 -6.09,6.22 -12.13,8.9 -12.01,-3 -3.04,1.65 -6.4,7.99 -10.38,6.13 -2.09,-0.98 -1.53,-4.29 -2.37,-6.13 -2.3,2.74 -5.71,9.59 -10.14,7.67 -2.06,-0.9 -0.9,-6.88 -0.46,-8.77 0.31,-1.35 1.99,-6.42 2.63,-7.37 1.07,-1.58 2.97,-1.35 2.5,0.49 -0.41,1.65 -2.02,4.12 -2.64,6.37 -2.2,7.99 -1.34,10.55 4.36,3.11 1.51,-1.98 2.25,-3.39 3.5,-5.5 0.65,-1.09 2.79,-5.74 3.08,-5.91 0.47,-0.28 1.33,-0.01 1.92,-0.09 0.88,0.85 -2,6.04 -2,7.25 v 7.25 c 2.4,0.42 4.87,-1.7 6.22,-3.53 0.32,-0.43 1.29,-1.68 0.28,-1.97 0.38,-0.37 -0.68,-0.18 1,-1 2.52,-1.24 3.16,-2.35 4.24,-5.01 0.58,-1.41 3.75,-11.5 3.26,-11.99 l -9,1 v -1.5 c 1.84,-0.29 9.25,-1.06 10.27,-1.99 0.92,-0.85 3.43,-9.79 4.63,-11.87 0.94,-1.61 2.6,-1.5 2.53,0 -0.07,1.5 -5.04,10.77 -4.42,11.35 l 10,-0.99 v 1.5 c -2.32,-0.08 -5.01,0.18 -7,1.5 -0.33,0.03 -0.69,-0.05 -1,0 -1.63,-0.1 -2.77,0.21 -3.61,1.64 -1.48,2.5 -4.55,15.02 -4.82,18.18 -0.51,5.87 0.2,8.87 5.44,3.69 2.44,-1.08 6.08,-5.47 7,-8 1.1,-0.56 1.72,-1.41 2.25,-2.5 1.9,-3.86 3.16,-10.37 4.74,-14.76 0.68,-1.9 5.3,-14.58 5.990002,-15.01 0.47,-0.3 1.12,-0.4399996 1.53,0.02 l 0.41,1.38 c -3.110002,7.12 -5.960002,14.35 -8.300002,21.77 -0.23,0.73 0.02,1.66 -0.12,2.11 z"
     id="path16" />
  <path
     class="cls-4"
     d="m 138.17288,176.18061 c -0.22,0.95 0.47,1.03 1,1.5 -0.19,1.4 0.5,2.54 1,3.75 4.37,10.53 9.4,20.87 14,31.25 0.24,0.54 0.31,1.38 0.5,2 -1.92,-0.19 -0.71,0.75 -0.5,1.5 0.27,0.95 0.59,1.36 0,2.5 -6.55,-0.03 -13.12,0.09 -19.67,-0.08 -1.12,-0.38 -3.2,-6.02 -3.83,-7.42 h 0.5 c 0.94,1.67 2.69,1.18 3.25,2 0.39,0.58 0.12,1.87 0.71,2.28 0.22,0.15 3.61,0.65 4.29,0.71 3.31,0.28 6.62,-0.46 9.92,-0.04 1.49,-0.45 0.12,-2.03 0.36,-2.38 0.23,-0.33 1.49,-0.12 1.41,-1.24 -0.14,-1.89 -12.92,-16.9 -14.46,-20.08 l -10.5,-8.25 c 0.01,-0.18 -0.05,-0.4 0,-0.5 0.3,-0.62 10.07,-6.73 11.5,-7.5 0.13,-0.07 0.37,0.07 0.5,0 z"
     id="path18" />
  <path
     class="cls-9"
     d="m 131.67288,38.18061 c -4.09,-0.63 -14.53,-4.39 -17.75,-7 -5.23,-4.24 -3.75,-9.96 -0.37,-14.86 5.03,-7.2599996 15.44,-14.1299996 24.1,-15.8999996 10.51,-2.15 14.14,4.19 9.37,13.3699996 -1.13,2.18 -2.73,4.61 -5.5,3.79 -5.54,-1.65 3.23,-7.9299996 1.41,-10.8999996 -1.82,-2.97 -10.13,0.86 -12.42,2.1 -4.09,2.2099996 -7.73,5.5699996 -10.62,8.8699996 -1.91,2.19 -4.32,3.79 -3.72,7.25 0.78,4.48 13.63,7.47 17.67,9.35 1.36,0.63 3.57,2.67 4.67,2.85 0.86,0.14 9.22,-3.29 10.32,-3.99 2.1,-1.33 3.06,-5.67 6.49,-3.47 2.09,1.34 -0.66,5.53 -1.14,7.31 -0.42,1.56 -1.01,3.9 -1.04,5.47 -0.03,1.57 -0.37,1.97 1.52,1.75 -0.07,0.27 0.05,0.68 0,1 -4.01,1.54 -3.22,-2.08 -2.86,-5.11 0.21,-1.73 2.89,-8.84 2.36,-9.39 -1.21,-1.24 -2.53,2.41 -3.3,2.94 -1.01,0.7 -9.94,4.95 -11.19,5.32 -2.71,0.81 -1.63,-0.5 -3.01,-1.5 -10.08,-7.29 -34.22,-5.56 -15.76,-23.78 4.72,-4.6599996 15.69,-11.2599996 22.5,-9.9699996 5.72,1.08 -2.39,10.9899996 -2.24,11.7299996 0.7,3.4 4.67,-2.9 5.1,-3.89 1.71,-3.9299996 2.53,-8.6399996 -2.69,-9.9999996 -4.78,-1.25 -13.05,2.57 -17.17,5.14 -5.71,3.5799996 -18.39,14.0599996 -13.24,21.7699996 2.77,4.15 15.51,6.5 20.5,9.75 v 0.5 c -0.31,-0.06 -0.72,0.07 -1,0 -0.15,-0.04 -0.33,0.03 -0.5,0 -0.06,-0.23 -0.27,-0.46 -0.5,-0.5 z"
     id="path20" />
  <path
     class="cls-5"
     d="m 126.17288,184.18061 10.5,8.25 c 1.53,3.18 14.32,18.18 14.46,20.08 0.08,1.13 -1.19,0.92 -1.41,1.24 -0.24,0.35 1.13,1.94 -0.36,2.38 -3.3,-0.42 -6.61,0.32 -9.92,0.04 -0.68,-0.06 -4.07,-0.56 -4.29,-0.71 -0.6,-0.41 -0.32,-1.71 -0.71,-2.28 -0.56,-0.82 -2.31,-0.33 -3.25,-2 -0.7,-1.25 -0.42,-3.21 -2.5,-3.5 -0.06,-0.14 0.06,-0.36 0,-0.5 -0.8,-1.95 -0.75,-5.28 -3.5,-6 -0.06,-0.14 0.06,-0.36 0,-0.5 -1.9,-4.24 -2.21,-5.8 -5.5,-9 -0.17,-0.16 -0.33,-0.34 -0.5,-0.5 0.93,-0.71 1.34,-0.47 2.28,-0.05 2.94,1.33 5.63,4.76 8.72,6.05 0.56,-0.71 -4.19,-10.38 -3.99,-13 z m 19.5,28.5 c 0.84,-0.99 -3.83,-5.13 -4.74,-6.01 -1.92,-1.85 -4.51,-4.25 -6.53,-5.97 -0.46,-0.39 -3.4,-2.87 -3.73,-2.51 l 3.52,13.98 c 4.24,-0.79 7.54,1.7 11.48,0.52 z"
     id="path22" />
  <path
     class="cls-11"
     d="m 186.17288,84.68061 c 2.96,1.34 7.22,-0.07 10.25,0.5 1.27,0.24 1.32,0.89 1.25,2 -1.28,1.55 -2.35,1.87 -4.26,2.55 -0.93,0.33 -1.61,-0.11 -1.93,-0.03 -1.74,0.44 -4.22,1.97 -7.4,2.64 -12.05,2.54 -24.18,4.77 -36.41,6.84 -3.39,0.57 -6.73,1.34 -10,2 -2.39,0.48 -5.68,0.18 -8,1.5 -0.33,0 -0.67,0 -1,0 -1.38,0.03 -3.32,0.25 -4.5,1 -0.08,-0.06 -1.61,-0.03 -2,0 -0.58,0.04 -1.08,0.02 -1.5,0.5 -1.37,-0.14 -2.29,0.31 -3.5,0.5 -1.14,0.18 -2.26,0.72 -3.5,0.5 l -0.5,0.5 c -0.63,-0.46 -2.41,0.43 -3,0.5 -3.06,0.34 -6.76,0.58 -9.5,2 -0.31,-0.05 -0.67,0.02 -1.000002,0 -0.49,-0.02 -1.01,-0.03 -1.5,0 -1.08,0.07 -1.6,0.45 -2,0.5 -0.48,0.06 -1.03,-0.07 -1.5,0 -5.48,0.79 -10.87,2.52 -16.5,2 -0.04,-0.13 0.02,-0.33 0,-0.5 -0.02,-0.15 -0.01,-0.35 0,-0.5 15.52,-0.96 30.750002,-4.74 46.000002,-7.5 17.42,-3.15 35.33,-5.85 52.6,-9.65 5.66,-1.25 12.1,-2.52 17.4,-4.85 0.87,-0.38 2.48,-0.36 2.5,-1.75 0,-0.48 -1.93,-0.23 -2.5,-0.25 -0.83,-0.04 -1.67,-0.01 -2.5,0 -11.44,0.14 -25.16,2.9 -36.68,4.57 -19.3,2.8 -38.68,5.88 -57.920002,9.08 -7.16,1.19 -15.31,3.42 -22.21,4.29 -1.18,0.15 -3.26,0.43 -4.2,-0.45 0.5,-0.15 1.07,-0.4 1.5,-0.5 0.76,-0.18 1.59,-0.27 2.5,-0.5 0.83,-0.21 1.76,-0.3 2.5,-0.5 0.22,-0.06 0.4,-0.29 0.5,-0.5 0.5,-0.02 1,0.03 1.5,0 1.24,-0.08 1.73,-0.38 2.5,-0.5 1.27,-0.2 2.75,-0.26 4,-0.5 0.81,-0.15 0.95,-0.49 1,-0.5 0.31,-0.06 0.7,0.06 1,0 0.7,-0.14 1.22,-0.44 1.5,-0.5 0.44,-0.09 1.04,0.08 1.5,0 0.24,-0.04 0.44,-0.26 0.5,-0.5 1.48,-0.25 3,-0.31 4.5,-0.5 0.16,-0.02 0.34,0.02 0.5,0 0.16,-0.02 0.34,0.02 0.5,0 2.13,-0.32 4.180002,-0.74 7.000002,-1 0.42,-0.04 0.88,0 1,-0.5 0.49,0.04 1.01,0.02 1.5,0 6.06,-0.19 13.06,-2.07 19,-3 8.05,-1.26 17.22,-2.86 24.69,-3.64 3.88,-0.41 8.34,-1.58 12.14,-2.22 1.54,-0.26 3.83,-0.07 5.39,-0.15 3.18,-0.16 6.88,-1.43 10.05,-1.55 1.99,-0.07 6.01,-1.29 8.72,-1.44 z"
     id="path24" />
  <path
     class="cls-16"
     d="m 89.672878,153.18061 c 0.17,0.04 0.58,0.37 1,0.5 -0.11,1.01 0.32,1.65 0.78,2.47 1.78,3.17 11.160002,18.11 13.190002,19.82 1.91,1.6 16.82,6.45 20.03,7.22 0.45,0.11 0.95,0.5 1.5,0.5 -0.05,0.1 0.01,0.32 0,0.5 -0.2,2.62 4.56,12.29 3.99,13 -3.09,-1.29 -5.78,-4.72 -8.72,-6.05 -0.93,-0.42 -1.35,-0.66 -2.28,0.05 -0.84,-0.77 -1.22,-1.08 -2,-2 -4.6,-5.41 -13.2,-8.82 -17.270002,-13.48 -2.73,-3.12 -9.64,-13.7 -11.73,-17.52 -0.09,-0.17 0.16,-0.77 -0.02,-1.13 -0.54,-1.06 -2.55,-2.43 -1.97,-4.37 1.06,0.5 2.6,0.27 3.5,0.5 z"
     id="path26" />
  <path
     class="cls-9"
     d="m 95.172878,35.68061 c -0.14,-0.05 -0.34,0.04 -0.5,0 h -0.5 c 0.14,-0.45 -0.11,-1.38 0.12,-2.11 2.34,-7.41 5.19,-14.65 8.300002,-21.77 l -0.41,-1.38 c -0.41,-0.4599996 -1.05,-0.31 -1.53,-0.02 -0.690002,0.43 -5.310002,13.11 -5.990002,15.01 -1.58,4.4 -2.84,10.9 -4.74,14.76 -0.53,1.09 -1.15,1.94 -2.25,2.5 0.05,-0.15 -0.06,-0.36 0,-0.5 1.58,-4.08 2.86,-8.28 4,-12.5 0,-0.03 0.43,-0.06 0.5,-0.5 0.48,-2.9 -5.28,-2.19 -7.5,-2 1.99,-1.32 4.69,-1.58 7,-1.5 v -1.5 c 0,0 -10,0.99 -10,0.99 -0.61,-0.58 4.35,-9.88 4.42,-11.35 0.07,-1.47 -1.59,-1.61 -2.53,0 -1.2,2.07 -3.71,11.02 -4.63,11.87 -1.01,0.93 -8.42,1.7 -10.27,1.99 v 1.5 c 0,0 9,-1 9,-1 0.49,0.5 -2.68,10.58 -3.26,11.99 -1.08,2.66 -1.72,3.77 -4.24,5.01 2.46,-4.74 4.56,-9.75 5.5,-15 -0.56,-0.57 -10.38,3.07 -8.42,-2.67 0.65,-1.9 8.84,-1.93 10.81,-2.94 0.63,-2.26 4.11,-12.75 5.96,-13.31 1.85,-0.56 3.56,0.82 3.6,2.66 0.04,1.66 -4.2,8.55 -3.45,9.26 1.99,0.4 3.91,-0.47 5.75,-0.54 1.05,-0.04 2.12,0.63 2.99,0.55 2.21,-0.2 2.37,-3.92 3.02,-5.49 1.1,-2.66 2.85,-9.2399996 5.990002,-9.0599996 5.48,0.31 0.04,8.4999996 -0.86,10.6899996 -0.34,0.84 -0.26,1.77 -0.54,2.46 -1.850002,4.55 -4.660002,8.91 -5.350002,13.9 z"
     id="path28" />
  <path
     class="cls-9"
     d="m 161.67288,37.68061 c 0.09,-0.14 0.11,-2.27 0.47,-3.28 2.2,-6.08 7.72,-9.76 14.25,-8.69 6.07,0.99 0.7,8.96 0.78,12.47 1.44,1.44 7.09,-6.85 8.01,-7.27 0.92,-0.42 2.62,0.13 2.93,1.11 1.45,4.62 -11.06,11.15 -12.88,14.48 -2.25,4.12 -3.67,13.18 -5.98,18.52 -2.31,5.34 -8.03,17.28 -15.27,13.6 -5.78,-2.94 -0.25,-13.69 2.28,-17.59 2.83,-4.38 6.93,-9.07 10.91,-12.34 0.01,0.08 0.74,0.42 0.28,0.96 -4.59,5.35 -11.19,11.83 -13.52,18.55 -0.86,2.48 -2.24,7.67 0.86,9.12 6.11,2.87 11.7,-9.52 13.47,-13.79 1.97,-4.74 3.7,-14.49 5.99,-18.01 1.19,-1.83 14.24,-11.38 12.42,-13.33 -0.94,-0.22 -1.18,0.53 -1.75,1 -2.09,1.73 -3.91,4.19 -6.01,5.99 -0.98,0.84 -2.49,2.19 -3.73,2.51 -0.76,-0.87 3.01,-11.85 2.46,-13.67 -0.43,-1.43 -1.89,-0.37 -2.64,-0.48 -0.75,-0.11 -1.45,-0.64 -2.13,-0.68 -2.43,-0.13 -5.95,3.01 -7.44,4.83 -1.49,1.82 -2.48,4.02 -3.74,6.01 z"
     id="path30" />
  <path
     class="cls-8"
     d="m 56.172878,105.68061 c 0.69,-0.16 1.45,0.2 1.99,-0.75 -1.47,-1.36 -2.07,-3.18 -1.01,-5.03 0.55,-0.96 11.71,-9.14 13.37,-10.13 3.82,-2.26 19.1,-8.05 23.52,-8.98 1.01,-0.21 4.19,-0.57 5.13,-0.4 1.520002,0.27 1.840002,1.51 2.640002,1.92 2.53,1.31 5.29,2.23 7.88,3.6 4.98,2.63 10.05,6.55 15.49,7.76 -5.94,0.93 -12.94,2.81 -19,3 -0.16,-1.77 -0.14,-1.25 1.15,-1.58 2.31,-0.58 4.96,-0.94 7.35,-0.93 -0.38,-1.51 -2.31,-1.94 -3,-2.5 -3.38,-2.71 -5.66,-4.79 -9.5,-7 -0.18,-0.1 -0.45,-0.77 -1.12,-1.1 -0.75,-0.37 -4.090002,-1.69 -4.780002,-1.82 -1.2,-0.23 -1.24,0.34 -1.6,0.43 -4.23,1.02 -8.42,2.97 -12.5,4.5 -1.18,0.44 -2.36,1.07 -3.5,1.5 -1.97,0.75 -4.72,1.06 -6.46,1.79 -1.18,0.49 -4.65,2.84 -5.04,4.21 -2.43,0.32 -2.1,1.06 -3.5,2.5 -1.26,1.29 -2.73,2.85 -3.5,4.5 -0.49,0.22 -1.91,0.8 -1.95,1.24 l 1.46,3.26 c 1.87,-0.29 2.32,-2.39 4.49,-2.5 v 1 c -4.29,0.07 -3.48,3.98 -4.05,4.45 -0.39,0.32 -2.25,-0.15 -2.46,0.05 -0.13,0.12 -0.08,2.99 0.25,3.51 0.99,1.59 2.17,-2.53 2.76,0.99 0.15,0.9 0.23,2.27 0.5,3.5 -0.42,-0.44 -0.56,-0.9 -0.51,-1.5 -0.67,-0.59 -4.82,4.06 -5.49,5 -0.06,0 -0.53,0.68 -1,0.5 0.23,-2.1 2.65,-3.37 3.5,-5 1.5,-2.88 -0.26,-2.11 -0.89,-3.34 -0.68,-1.33 -1.14,-5.57 0.88,-5.67 l -1.5,-0.99 z"
     id="path32" />
  <path
     class="cls-9"
     d="m 133.67288,41.18061 c -6.81,5.2 -17.3,9.89 -22.21,17.04 -4.5,6.57 -2.32,10.81 5.83,9.83 9.34,-1.12 27.63,-14.44 23.88,-25.37 h 0.5 c 0.81,3.72 1.71,4.85 0.24,8.99 -2.99,8.4 -19.49,19.89 -28.37,18.39 -4.12,-0.69 -6.62,-3.78 -5.75,-8.02 1.04,-5.07 11.59,-13.17 15.93,-16.07 2.82,-1.88 6.61,-4.63 9.95,-4.8 z"
     id="path34" />
  <path
     class="cls-11"
     d="m 56.172878,105.68061 1.5,0.99 c -2.02,0.1 -1.56,4.34 -0.88,5.67 0.63,1.23 2.39,0.46 0.89,3.34 -1.45,-0.84 -4.1,-0.62 -5.74,-0.49 -4.52,0.36 -13.69,1.72 -16.64,3.09 -0.11,0.05 -0.09,0.77 -0.49,0.87 -6.75,1.67 -14.97,0.13 -19.12,-5.73 l 2.78,-0.66 c 2.03,0.77 2.59,-0.12 4.21,-0.58 1.05,0.9 3.58,-0.65 4.5,-1.5 0.15,-0.05 0.35,0.05 0.5,0 l 2,-1 c 1.6,-0.6 4.37,-1.19 6.27,-1.06 0.91,0.06 0.67,0.96 1.07,1.05 1.51,0.36 16.32,-3.33 19.16,-3.99 z m -1,3.5 c -0.06,-0.52 0.24,-2.02 -0.26,-2.01 l -15.92,3.49 c -0.66,0.29 -0.22,1.08 -0.32,1.52 -0.24,0.99 -0.89,1.55 0.08,2.93 1.28,0.13 2.85,0.42 3.92,-0.43 0.3,0.06 0.68,-0.04 1,0 3.69,0.47 2.36,-0.27 3.33,-0.5 1.32,-0.31 8.15,-0.3 8.65,-1.03 -0.27,-1.32 -0.34,-2.64 -0.49,-3.98 z m -24.5,1.5 c -0.46,0.11 -0.75,0.42 -1,0.5 -3.63,1.17 -7.06,3.33 -11,3 1.08,2.22 3.03,2.37 5,3 1.61,0.51 2.1,0.86 4,1 2.21,0.17 3.5,-0.08 5.5,-0.5 3.76,-0.79 4.17,-0.83 4,-5 -0.04,-0.95 0.43,-1.7 -0.6,-2.16 -1.93,-0.85 -4.08,-0.29 -5.9,0.16 z"
     id="path36" />
  <path
     class="cls-9"
     d="m 97.172878,37.18061 c 0.63,-3.32 4.950002,-6.09 7.760002,-3.51 2.64,2.41 1.19,8.11 0.76,11.3 -0.22,1.67 2.02,0.42 2.75,-0.26 1.82,-1.69 5.32,-10.33 8.49,-7.53 1.79,1.58 -1.07,5.03 -2.07,6.45 -1.69,2.4 -5.27,6.79 -8.18,7.34 -5.91,1.13 -6.49,-4.31 -6.02,-8.79 0.04,-0.43 0.97,-1.56 0.5,-2.5 0.5,-0.03 1,0.02 1.5,0 -0.26,2.9 -2.31,10.82 3.12,9.92 2.71,-0.45 7.45,-6.11 7.87,-8.92 -2.43,1.47 -5.62,7.79 -8.76,7.31 -2.5,-0.38 -0.34,-5.79 -0.22,-7.54 0.47,-6.68 -2.56,-8.42 -7.020002,-3.27 h -0.5 z"
     id="path38" />
  <path
     class="cls-12"
     d="m 190.17288,215.18061 c -2.2,-1.75 -2.11,1.19 -3.19,0.96 -1.35,-1.47 -9.6,-5.07 -10.19,-6.08 -0.24,-0.42 -1.75,-9.07 -1.66,-9.54 0.1,-0.51 2.31,-0.87 2.04,-2.34 4.11,5.65 8.92,11.18 13,17 z"
     id="path40" />
  <path
     class="cls-1"
     d="m 170.17288,211.18061 c 0.94,1.11 3.08,1.96 3,3.99 -0.69,0.99 -13.93,0.48 -16.13,0.1 -1.61,0.12 -2.1,2.09 -1.37,3.4 -0.5,0 -1,0 -1.5,0 0.59,-1.14 0.27,-1.55 0,-2.5 1.89,0.18 0.74,-0.7 0.5,-1.5 -0.19,-0.62 -0.26,-1.46 -0.5,-2 5.26,-0.99 11,0.47 16,-1.5 z"
     id="path42" />
  <path
     class="cls-9"
     d="m 58.672878,43.18061 c 1.44,-2.62 2,-8.65 6.15,-7.4 4.15,1.25 -2.12,10.45 -0.65,13.4 1,0.97 4.22,-2.25 5,-3 1.01,0.29 0.04,1.54 -0.28,1.97 -1.35,1.83 -3.82,3.95 -6.22,3.53 v -7.25 c 0,-1.21 2.88,-6.4 2,-7.25 -0.59,0.07 -1.44,-0.19 -1.92,0.09 -0.29,0.17 -2.44,4.82 -3.08,5.91 z"
     id="path44" />
  <path
     class="cls-14"
     d="m 71.172878,135.68061 c 5.09,6.34 9.24,12.61 13.99,18.74 0.97,1.25 1.73,2.8 3.01,3.76 2.09,3.82 9,14.39 11.73,17.52 4.070002,4.66 12.670002,8.08 17.270002,13.48 l -17.770002,-12.48 c -7.3,-12.43 -17.35,-23.48 -24.76,-35.76 -0.32,-0.53 -0.43,-1.12 -0.51,-1.71 -2.06,-0.22 -2.75,1.2 -4.96,1.45 -0.28,-1.48 3.47,-1.75 3.49,-2.75 0,-0.36 -1.32,-1.01 -1.49,-1.25 -0.12,-0.17 0.12,-0.86 0,-1 z"
     id="path46" />
  <path
     class="cls-14"
     d="m 71.172878,135.68061 c -0.14,-0.18 -0.35,-0.32 -0.5,-0.5 0.18,0.14 0.35,0.33 0.5,0.5 z"
     id="path48" />
  <path
     class="cls-14"
     d="m 64.672878,126.68061 c 0.88,2.34 4.31,6.42 6,8.5 -1.69,-1.32 -6.76,-0.59 -6.91,1.83 -0.04,0.74 1.21,1.63 0.91,2.67 -5.48,-4.2 -0.36,-5.65 0,-9.29 0.14,-1.49 -0.63,-2.84 -0.99,-4.21 0.25,0.01 0.69,0.41 1,0.5 z"
     id="path50" />
  <path
     class="cls-9"
     d="m 96.672878,43.68061 c 0,0.68 0.1,1.33 -0.28,1.95 -2.06,1.88 -4.34,10.54 -6.07,11.57 -4.2,2.51 -5.4,-2.26 -4.15,-5.53 0.29,-0.14 0.83,-0.34 1,-0.5 -0.07,1.59 -0.49,6.33 2.02,4.77 0.67,-0.42 5.05,-10.21 6.06,-11.95 0.44,-0.75 1.29,-1.11 1.42,-1.32 0,0.33 0,0.67 0,1 z"
     id="path52" />
  <path
     class="cls-3"
     d="m 62.172878,122.18061 c -1.78,1.15 -4.22,0.46 -5.5,2.25 l 2.5,1.75 c -3.05,-0.67 -5.41,-1.73 -5,-5.5 0.47,0.18 0.94,-0.49 1,-0.5 2.31,-0.29 4.15,0.72 6,-1.5 0.25,0.98 0.69,2.35 1,3.5 z"
     id="path54" />
  <path
     class="cls-9"
     d="m 162.67288,45.68061 c -0.1,0.02 -0.31,0.41 -0.5,0.5 -3.21,-1.63 -5.12,3.17 -9.25,3.04 -2.88,-0.09 -3.42,-1.15 -4.25,-3.54 l -0.5,-1 c -0.05,-0.31 0.02,-0.67 0,-1 h 1 c 2.17,7.57 8.52,2.34 11.75,-1.5 z"
     id="path56" />
  <path
     class="cls-10"
     d="m 141.17288,42.68061 c -0.1,-0.3 -2.07,-1.04 -0.5,-2.76 0.58,-0.63 9.6,-4.61 10,-4.24 l -1.5,8 h -1 c -0.08,-1.74 -0.01,-3.33 0.5,-5 -1.92,-0.29 -7.47,1.81 -7,4 z"
     id="path58" />
  <path
     class="cls-9"
     d="m 158.49288,21.39061 c 2.57,1.35 0.18,5.92 -2.09,6.3 -6.55,1.09 -3.92,-9.46 2.09,-6.3 z m -0.82,0.79 c -0.54,-0.55 -3.53,0.28 -3.55,2.24 -0.03,4.4 5.17,-0.59 3.55,-2.24 z"
     id="path60" />
  <path
     class="cls-5"
     d="m 63.172878,117.18061 c 0.1,0.19 0.42,0.34 0.5,0.5 1.25,2.47 2.13,4.16 3.5,6.5 0.84,1.44 0.79,4.29 3.5,4 0.03,0.64 0.28,0.66 0.5,1 0.71,1.09 4.95,3.89 6.34,4.91 3.05,2.23 9.56,7.25 12.66,8.59 0.47,0.2 0.96,0.52 1.5,0.5 v 0.5 c -0.04,0.17 0.06,0.4 0,0.5 -0.08,0.13 -0.75,0.22 -0.9,0.83 -0.6,2.51 -0.27,5.64 -1.1,8.17 -0.9,-0.23 -2.43,0 -3.5,-0.5 -0.58,1.95 1.43,3.31 1.97,4.37 0.18,0.36 -0.07,0.95 0.02,1.13 -1.28,-0.95 -2.05,-2.51 -3.01,-3.76 -4.75,-6.13 -8.9,-12.4 -13.99,-18.74 -0.15,-0.17 -0.32,-0.36 -0.5,-0.5 -1.69,-2.08 -5.12,-6.16 -6,-8.5 -1.03,-2.76 -1.56,-6.59 -2.5,-9.5 0.27,0.07 0.68,-0.05 1,0 z"
     id="path62" />
  <path
     class="cls-5"
     d="m 70.672878,135.18061 c 0.15,0.18 0.36,0.32 0.5,0.5 0.12,0.14 -0.12,0.83 0,1 l -6,3.5 c -0.16,-0.08 -0.32,-0.36 -0.5,-0.5 0.3,-1.03 -0.95,-1.92 -0.91,-2.67 0.15,-2.43 5.22,-3.15 6.91,-1.83 z"
     id="path64" />
  <path
     class="cls-10"
     d="m 162.67288,45.68061 c 0.81,-0.13 1.84,0.16 2.71,-0.03 3.26,-0.69 4.98,-4.75 6.99,-7.03 0.19,-0.22 0.54,-1.82 1.3,-0.93 0.2,0.23 -1.3,5.13 -1.5,5.99 l -0.74,-1.49 c -1.64,1.34 -2.73,3.71 -4.75,4.5 -0.9,0.35 -2.3,0.65 -3.25,0.51 -1.04,-0.15 -1.11,-0.94 -1.25,-1.01 0.19,-0.09 0.4,-0.48 0.5,-0.5 z"
     id="path66" />
  <path
     class="cls-16"
     d="m 63.672878,126.18061 c -1.83,-0.1 -1.96,0.56 -4.5,0 l -2.5,-1.75 c 1.28,-1.79 3.72,-1.11 5.5,-2.25 0.24,0.9 1.07,2.39 1.5,4 z"
     id="path68" />
  <path
     class="cls-16"
     d="m 71.172878,136.68061 c 0.17,0.25 1.5,0.89 1.49,1.25 -0.02,1 -3.77,1.27 -3.49,2.75 -1.57,0.18 -2.64,0.13 -4,-0.5 z"
     id="path70" />
  <path
     class="cls-10"
     d="m 84.672878,50.18061 c 0.06,-0.06 -0.12,-0.6 0.12,-0.86 1.12,0.17 3.24,-3.91 3.87,-3.14 0.17,0.2 -0.85,4.38 -1.5,5 -0.17,0.16 -0.71,0.36 -1,0.5 -0.22,0.11 -0.81,-0.11 -1,0 l -0.5,-1.5 z"
     id="path72" />
  <path
     class="cls-10"
     d="m 102.67288,38.18061 c 0.01,0.49 0.04,1.02 0,1.5 -0.5,0.02 -1,-0.03 -1.5,0 -1.640002,0.11 -1.620002,0.24 -2.500002,1.5 -0.49,0.71 -0.56,2.09 -2,2.5 0,-0.33 0,-0.67 0,-1 0.66,-1.05 0.83,-1.96 2,-3.5 z"
     id="path74" />
  <path
     class="cls-9"
     d="m 197.67288,87.18061 c 0.07,-1.11 0.02,-1.76 -1.25,-2 -3.03,-0.57 -7.29,0.84 -10.25,-0.5 2.12,-0.12 10.18,-0.39 11.67,0.08 1.98,0.62 0.32,1.82 -0.17,2.42 z"
     id="path76" />
  <path
     class="cls-10"
     d="m 59.672878,43.18061 c -1.25,2.11 -1.99,3.52 -3.5,5.5 l -0.5,-0.5 c 0.76,-1.16 2.37,-3.85 3,-5 z"
     id="path78" />
  <path
     class="cls-9"
     d="m 147.67288,99.18061 -9.5,2.5 c -0.17,-0.16 -0.34,-0.32 -0.5,-0.5 3.27,-0.66 6.61,-1.43 10,-2 z"
     id="path80" />
  <path
     class="cls-11"
     d="m 161.67288,37.68061 c -1.64,2.59 -1.63,2.82 -4,5 l -0.5,-0.5 c 0.67,-0.67 4.33,-4.22 4.5,-4.5 z"
     id="path82" />
  <path
     class="cls-14"
     d="m 119.67288,191.68061 c 3.29,3.2 3.6,4.76 5.5,9 z"
     id="path84" />
  <path
     class="cls-14"
     d="m 128.67288,207.18061 c -1.56,-1.48 -2.64,-4.05 -3.5,-6 2.75,0.72 2.7,4.05 3.5,6 z"
     id="path86" />
  <path
     class="cls-10"
     d="m 97.172878,37.18061 h 0.5 c -0.77,0.89 -1.17,2.93 -2.49,3.5 -0.09,-0.55 0.86,-3.38 0.99,-3.5 0.11,-0.1 0.72,0.06 1,0 z"
     id="path88" />
  <path
     class="cls-15"
     d="m 101.17288,39.68061 c 0.47,0.94 -0.46,2.07 -0.5,2.5 -0.26,-0.92 -1.130002,-1.09 -2.000002,-1 0.88,-1.26 0.86,-1.39 2.500002,-1.5 z"
     id="path90" />
  <path
     class="cls-10"
     d="m 157.67288,42.68061 c -1.14,1.05 -1.25,1.83 -3,2.5 0.05,-0.32 -0.07,-0.73 0,-1 0.33,-1.22 1.76,-1.26 2.5,-2 z"
     id="path92" />
  <path
     class="cls-14"
     d="m 128.67288,207.68061 c 2.08,0.29 1.8,2.25 2.5,3.5 h -0.5 c -0.46,-1.02 -1.47,-2.22 -2,-3.5 z"
     id="path94" />
  <path
     class="cls-10"
     d="m 54.672878,49.18061 c -0.42,0.36 -0.52,1.34 -1.74,1 -1.35,-0.37 -0.28,-1.4 -0.26,-1.5 z"
     id="path96" />
  <path
     class="cls-10"
     d="m 27.172878,110.68061 c -0.92,0.85 -3.45,2.4 -4.5,1.5 1.53,-0.43 3.01,-0.96 4.5,-1.5 z"
     id="path98" />
  <path
     class="cls-10"
     d="m 148.67288,45.68061 c -0.08,-0.24 -0.42,-0.46 -0.5,-1 z"
     id="path100" />
  <path
     class="cls-10"
     d="m 29.672878,109.68061 -2,1 c 0.36,-0.13 1.13,-0.67 2,-1 z"
     id="path102" />
  <path
     class="cls-10"
     d="m 132.17288,38.68061 c -0.23,-0.04 -0.42,-0.28 -0.5,-0.5 0.23,0.04 0.44,0.27 0.5,0.5 z"
     id="path104" />
  <path
     class="cls-12"
     d="m 190.67288,216.18061 -0.5,-0.5 c 0.12,0.18 0.38,0.31 0.5,0.5 z"
     id="path106" />
  <path
     class="cls-9"
     d="m 136.67288,42.68061 v 0.5 c -3.35,3.27 -8.12,5.02 -11.97,7.78 -2.28,1.63 -11.75,9.41 -11.57,11.96 0.13,1.83 4.29,1.42 5.74,1.22 4.39,-0.62 15.69,-9.04 17.79,-12.96 l 0.5,0.5 c -3.08,5.66 -8.65,10.21 -14.66,12.59 -2.4,0.95 -11.39,3.89 -11.85,-0.36 -0.1,-0.94 1.8,-3.64 2.5,-4.49 5.8,-7.09 15.41,-12.9 23.51,-16.74 z"
     id="path108" />
  <path
     class="cls-9"
     d="m 159.67288,73.68061 c -1.75,1.67 -4.49,3.78 -5.02,-0.23 -0.75,-5.6 6.6,-14.71 10.27,-18.78 0.62,-0.69 4.1,-4.32 4.51,-4.49 1.86,-0.77 -0.17,3.68 -0.26,4 -1.97,-0.19 -2.45,0.94 -3.5,2 -2.29,2.3 -7.93,10.13 -8.66,13.09 -0.32,1.32 -0.47,2.56 -0.34,3.91 h 3 c 0,0 0,0.5 0,0.5 z"
     id="path110" />
  <path
     class="cls-10"
     d="m 166.67288,42.68061 c -0.61,0.79 -0.89,1.72 -2.23,1.5 -1.87,-0.55 -0.08,-5.42 0.35,-6.63 1.02,-2.83 4.1,-8.41 7.37,-8.68 2.54,-0.21 2.5,1.1 2.01,2.81 h -0.5 c 0.26,-1.33 -0.89,-1.15 -1.75,-1.03 -3.24,0.45 -7.54,8.61 -6.75,12.03 0.48,-0.04 1.03,0.07 1.5,0 z"
     id="path112" />
  <path
     class="cls-11"
     d="m 169.17288,54.18061 c -1.2,4.5 -2.17,6.11 -4,10 h -0.5 c 0.71,-1.57 1.8,-5.18 2.3,-6.95 0.45,-1.59 -0.16,-0.97 -1.3,-1.05 1.05,-1.06 1.53,-2.19 3.5,-2 z"
     id="path114" />
  <path
     class="cls-10"
     d="m 136.67288,42.68061 c 0.25,-0.12 0.46,-1.37 1.49,-1 1.84,4.4 1.09,6.18 -0.99,10 l -0.5,-0.5 c 0.21,-0.39 1.28,-4.27 1.32,-4.82 0.06,-0.85 -0.09,-3.69 -1.32,-3.18 z"
     id="path116" />
  <path
     class="cls-10"
     d="m 165.17288,64.18061 c -1.72,3.66 -2.26,6.41 -5.5,9.5 v -0.5 c 0.9,-3.15 3.72,-6.15 5,-9 z"
     id="path118" />
  <path
     class="cls-11"
     d="m 166.67288,42.68061 c 2.62,-3.4 4.92,-7.12 7,-11 h 0.5 c -0.61,2.11 -1.58,3.58 -2.8,5.45 -0.61,0.95 -2.94,4.51 -3.47,5.05 -0.44,0.46 -0.69,0.41 -1.24,0.49 z"
     id="path120" />
  <path
     class="cls-10"
     d="m 133.67288,38.18061 c 0.24,0.15 0.88,-0.3 1,0.26 0.34,1.57 -0.89,0.27 -1,0.24 z"
     id="path122" />
  <path
     class="cls-10"
     d="m 135.42288,39.68061 c 0.32,0.17 0.32,0.33 0,0.5 z"
     id="path124" />
  <path
     class="cls-1"
     d="m 133.67288,122.18061 c 5.64,14.21 12.15,28.74 18.58,42.7 0.34,0.74 0.27,1.55 1.42,1.3 0.1,0.81 -0.07,1.68 0,2.5 -0.19,-0.11 -0.79,0.11 -1,0 -5.15,-2.79 -10.5,-5.4 -16,-7.5 0.07,4.45 1.03,9.05 1,13.5 -0.32,0.05 -0.72,-0.07 -1,0 l -16,-27.5 c 5.1,3.15 8.65,7.86 13.26,11.49 0.44,0.35 2.39,1.9 2.73,1.51 l -3.49,-32.75 0.49,-5.24 z"
     id="path126" />
  <path
     class="cls-6"
     d="m 170.17288,211.18061 c -5,1.97 -10.74,0.51 -16,1.5 -4.59,-10.38 -9.63,-20.72 -14,-31.25 -0.5,-1.21 -1.19,-2.35 -1,-3.75 10.39,9.19 21.93,22.78 31,33.5 z"
     id="path128" />
  <path
     class="cls-12"
     d="m 152.67288,168.68061 c -0.01,1.28 -0.74,1.24 -1.59,1.66 -4.21,2.1 -8.58,3.57 -12.91,5.84 -0.13,0.07 -0.37,-0.07 -0.5,0 0,-0.5 0,-1 0,-1.5 0.03,-4.44 -0.93,-9.04 -1,-13.5 5.5,2.1 10.85,4.7 16,7.5 z"
     id="path130" />
  <path
     class="cls-15"
     d="m 19.172878,42.18061 c 4.7,-3.75 13.38,-22.52 19.51,-29.24 3.9,-4.2699996 8.72,-7.4099996 7.92,1.43 l -5.4,24.53 c 0.3,1.56 5.2,-0.88 4.46,1.02 -0.78,1.9 -4.4,0.8 -4.99,2.13 -0.94,2.13 -2.33,12.63 -2.5,15.38 -0.1,1.63 0.53,8.88 0.26,9.25 -1.55,2.15 -2.67,-1.3 -2.79,-2.73 -0.6,-6.8 1.74,-14.53 2.52,-21.27 -0.9,-0.84 -17.1,2.8 -18.52,4.23 -2.43,2.99 -12.62,26.32 -13.96,27.04 -0.65,0.35 -1.32,0.45 -1.78,-0.26 -0.97,-1.52 12.03,-22.92 12.76,-26.5 -1.94,0.38 -14.45,4.55 -14.99,4 -0.07,-0.07 -0.08,-1.78 0.05,-1.94 0.55,-0.67 14.58,-3.69 16.6,-4.54 0.54,-0.28 0.68,-1.86 0.85,-2.52 z m 25,-29 c 0.01,-0.12 0.47,-0.55 0.52,-1.22 0.14,-1.79 -1.93,-0.06 -2.55,0.45 -7.62,9.55 -14.88,19.65 -19.98,30.77 2.06,0.05 4.01,-0.63 6,-1 2.6,-0.48 6.68,-1 9,-2 0.23,-0.1 0.71,0.03 1.01,-0.23 1.94,-3.79 2.09,-8.24 2.99,-12.27 0.23,-1.04 0.72,-2.16 1,-3.5 0.65,-3.14 1.41,-6.36 2,-9.5 0.08,-0.44 -0.06,-1.02 0,-1.5 z"
     id="path132" />
  <path
     class="cls-12"
     d="m 141.17288,116.18061 c 0.83,1.06 5.8,2.88 6,3.36 2.5,15.5 4.64,31.04 6.5,46.64 -1.15,0.25 -1.08,-0.56 -1.42,-1.3 -6.43,-13.95 -12.94,-28.49 -18.58,-42.7 -0.12,-0.3 -0.47,-1.29 -0.5,-1.5 -0.04,-0.32 0.03,-0.67 0,-1 z"
     id="path134" />
  <path
     class="cls-12"
     d="m 129.67288,102.68061 c 0.07,0 0.54,0.49 1.23,0.55 2.45,0.21 2.77,-1.35 5.01,1.99 0.34,0.51 0.16,1.3 0.27,1.47 -1.12,0.32 -0.89,1.33 -1.09,2.16 -0.6,2.43 -1.01,4.96 -1.66,7.37 -0.22,0.8 -0.06,1.6 -1.25,1.47 -0.62,-2.41 -3.42,-10.28 -5.51,-11.24 -3.78,-1.73 -7.29,2.98 -10.99,2.24 -0.39,-0.45 -0.54,-1.26 -1.5,-1 -0.06,-0.28 0.09,-0.92 0,-1 0.97,-1.07 3.36,-0.24 3,-2 1.21,-0.19 2.13,-0.64 3.5,-0.5 0.14,0.01 1.71,1.61 1.5,-0.5 0.39,-0.03 1.92,-0.06 2,0 0.07,0.05 -0.12,0.73 0.08,0.92 0.2,0.19 5.2,-0.78 4.42,-1.92 0.33,0 0.67,0 1,0 z"
     id="path136" />
  <path
     class="cls-7"
     d="m 141.17288,116.18061 -8,3.5 c -0.51,-0.07 -0.83,-0.91 -1,-1 -0.05,-0.32 0.07,-0.72 0,-1 1.19,0.13 1.04,-0.67 1.25,-1.47 0.65,-2.41 1.05,-4.94 1.66,-7.37 0.2,-0.83 -0.03,-1.84 1.09,-2.16 1.07,1.66 2.32,3.22 3.27,4.98 0.7,1.3 1.04,3.64 1.73,4.52 z"
     id="path138" />
  <path
     class="cls-12"
     d="m 144.35288,109.03061 c 0.14,0.25 0.89,0 0.82,0.39 l -3.49,6.25 -3.01,-10.99 c 5.45,-0.78 3.87,1.17 5.68,4.35 z"
     id="path140" />
  <path
     class="cls-9"
     d="m 83.672878,27.18061 c -0.4,0.07 -1.21,0.7 -1.93,0.58 -0.3,0.42 0.04,1.1 -0.07,1.42 -0.06,0.16 -0.45,0.33 -0.5,0.5 -2.15,6.81 -4.72,14.33 -4.46,21.47 0.48,0.13 0.98,0 1.46,0.03 0.3,0.02 0.05,0.06 0.5,0 0.2,-0.03 1.17,-0.38 1.5,-0.5 0.15,-0.05 0.37,0.06 0.5,0 -5.24,5.18 -5.94,2.19 -5.44,-3.69 0.27,-3.15 3.34,-15.67 4.82,-18.18 0.84,-1.43 1.98,-1.73 3.61,-1.64 z"
     id="path144" />
  <path
     class="cls-10"
     d="m 94.672878,35.68061 -2.01,6.74 2,-0.5 c -1.46,1.79 -1.19,4.25 -3.75,4.74 0.42,-3.18 1.19,-6.33 2.1,-9.41 0.31,-1.06 1.13,-1.49 1.16,-1.58 h 0.5 z"
     id="path146" />
  <path
     class="cls-10"
     d="m 87.672878,42.68061 c -0.92,2.53 -4.56,6.92 -7,8 -0.13,0.06 -0.35,-0.05 -0.5,0 l 4.18,-5.32 3.32,-3.18 c -0.06,0.14 0.05,0.35 0,0.5 z"
     id="path148" />
  <path
     class="cls-9"
     d="m 98.672878,39.18061 c 1.22,-1.61 1,-3.03 4.000002,-2.5 0.02,0.5 -0.01,1 0,1.5 z"
     id="path150" />
  <path
     class="cls-3"
     d="m 136.67288,174.68061 c 0.28,-0.07 0.68,0.05 1,0 0,0.5 0,1 0,1.5 -1.43,0.77 -11.2,6.88 -11.5,7.5 -0.55,0 -1.05,-0.39 -1.5,-0.5 l -14,-21 c 8.62,3.54 16.82,8.32 25.02,12.81 0.74,0.23 0.82,-0.27 0.98,-0.31 z"
     id="path152" />
  <path
     class="cls-6"
     d="m 154.67288,214.68061 c 0.24,0.8 1.39,1.68 -0.5,1.5 -0.21,-0.75 -1.42,-1.69 0.5,-1.5 z"
     id="path154" />
  <path
     class="cls-16"
     d="m 145.67288,212.68061 c -3.94,1.18 -7.24,-1.31 -11.48,-0.52 l -3.52,-13.98 c 0.33,-0.36 3.28,2.12 3.73,2.51 2.02,1.73 4.61,4.12 6.53,5.97 0.9,0.87 5.57,5.02 4.74,6.01 z"
     id="path156" />
  <path
     class="cls-8"
     d="m 191.67288,85.68061 -0.03,0.96 c -0.81,-0.36 -1.87,0.52 -1.97,0.54 -12.88,1.82 -25.63,3.88 -38.5,6 -0.62,0.1 -1.38,-0.1 -2,0 -2.33,0.38 -4.74,1.13 -7,1.5 -14.83,2.44 -29.76,5.02 -44.500002,7.5 -1.2,0.2 -2.8,-0.2 -4,0 -1.32,0.22 -2.78,0.79 -4,1 -2.01,0.34 -3.98,0.62 -6,1 -2.21,0.42 -4.45,1.07 -6.5,1.5 -1.12,0.24 -2.77,-0.17 -4,0.5 -0.52,-0.39 -3.29,-2.44 -3.5,-2.5 0.18,-0.49 0.63,-0.39 1,-0.5 0.94,0.87 3.02,0.59 4.2,0.45 6.89,-0.87 15.04,-3.1 22.21,-4.29 19.240002,-3.21 38.610002,-6.28 57.920002,-9.08 11.52,-1.67 25.24,-4.43 36.68,-4.57 z"
     id="path158" />
  <path
     class="cls-3"
     d="m 94.672878,87.68061 c -0.08,1.23 0.77,1.27 1.49,1.76 1.36,0.93 3.65,2.57 5.010002,3.24 -1.570002,2.17 -5.090002,2 -7.500002,2 1.84,3.3 -2.81,1.59 -3,4 v 0.5 c -0.46,0.08 -1.06,-0.09 -1.5,0 -0.36,-0.64 -0.98,-0.4 -1.5,-0.5 -2.6,-0.49 -4.44,0.43 -7,1 -0.43,0.09 -1.03,-0.06 -1.5,0 -0.06,-0.18 -0.4,-0.33 -0.5,-0.5 -0.29,-0.51 -0.49,-1.45 -0.99,-1.75 -3.08,-1.85 -8.14,4.27 -11.51,3.75 l 4,-4.5 c 1.04,-0.53 3.22,-1.38 3,-2.5 1.13,-0.1 1.58,-0.31 2.5,-0.5 0.67,-0.14 1.34,-0.32 2,-0.5 -0.29,1.58 0.78,0.85 1.71,1.01 2,0.35 3.99,0.69 5.99,1.04 1.35,0.23 1.87,1.33 3.94,0.45 0.38,-0.16 3.4,-6.45 3.35,-7.5 0.46,-0.03 0.82,-0.46 1,-0.5 0.31,-0.06 0.72,0.07 1,0 z"
     id="path160" />
  <path
     class="cls-4"
     d="m 132.67288,99.18061 c -2.65,1.3 -5.61,1.97 -8.5,2.5 -13.3,2.43 -27.960002,5.17 -41.300002,6.95 -1.55,0.21 -3.15,-0.03 -4.7,0.05 -0.03,0.33 0.03,0.67 0,1 -0.01,0.15 -0.02,0.35 0,0.5 -1.99,-0.61 -3.26,-2.7 -5,-4 1.23,-0.67 2.88,-0.26 4,-0.5 1.73,0.84 4.49,0.6 6.5,0.5 3.48,-0.16 3.12,-0.34 6,-1.5 1.32,-0.53 4.21,-1.09 4,-2.5 1.2,-0.2 2.8,0.2 4,0 l 0.82,2.04 32.460002,-5.56 c 0.87,-0.42 1.63,0.53 1.72,0.52 z"
     id="path162" />
  <path
     class="cls-12"
     d="m 194.17288,85.68061 v 2 c -5.3,2.33 -11.73,3.61 -17.4,4.85 -17.27,3.8 -35.18,6.5 -52.6,9.65 v -0.5 c 2.89,-0.53 5.85,-1.2 8.5,-2.5 9.03,-0.64 17.76,-2.66 26.46,-4.78 1.4,-0.34 2.87,0.15 4.04,-0.72 0.33,-0.04 0.67,0.03 1,0 0.92,-0.1 1.73,-0.47 2,-0.5 7.41,-0.72 14.89,-2.66 22.02,-4.76 0.81,-0.24 1.71,0.06 1.48,-1.24 0.1,-0.01 1.16,-0.89 1.97,-0.54 l 0.03,-0.96 c 0.83,-0.01 1.67,-0.04 2.5,0 z"
     id="path164" />
  <path
     class="cls-14"
     d="m 70.172878,96.68061 -4,4.5 c 3.37,0.53 8.42,-5.59 11.51,-3.75 0.5,0.3 0.7,1.23 0.99,1.75 -0.44,0.89 -1.75,0.88 -1.5,2 v 0.5 c -0.74,0.2 -1.67,0.29 -2.5,0.5 0.58,-1.81 -2.88,-1 -2.5,0.5 -0.43,0.1 -1,0.35 -1.5,0.5 -0.37,0.11 -0.82,0 -1,0.5 -0.26,-0.08 -5.04,-0.52 -5.5,-0.5 -2.18,0.11 -2.63,2.21 -4.49,2.5 l -1.46,-3.26 c 0.04,-0.44 1.46,-1.02 1.95,-1.24 3.21,-1.46 6.79,-2.88 10,-4.5 z"
     id="path166" />
  <path
     class="cls-7"
     d="m 124.17288,101.68061 v 0.5 c -15.25,2.76 -30.480002,6.54 -46.000002,7.5 0.03,-0.33 -0.03,-0.67 0,-1 1.55,-0.08 3.15,0.15 4.7,-0.05 13.34,-1.78 28.000002,-4.51 41.300002,-6.95 z"
     id="path168" />
  <path
     class="cls-14"
     d="m 94.672878,108.68061 c 0.16,0.48 0.57,0.46 1,0.5 -0.29,1.78 2.9,1.55 4,2 0.840002,0.34 2.710002,1.72 3.500002,2 v 0.5 c -1.67,-0.45 -3.360002,-0.97 -5.000002,-1.5 -1.02,-0.33 -2.39,-1.48 -3.68,-1.37 -1.29,0.11 -3.98,2.27 -5.32,2.87 -1.72,0.24 -2.7,1.23 -5,1.5 l 5,-2.99 c -3.28,-0.95 -6.23,-0.9 -9,0.99 -0.28,-0.52 -1.64,-1.42 -2,-2.5 5.63,0.52 11.02,-1.21 16.5,-2 z"
     id="path170" />
  <path
     class="cls-14"
     d="m 84.172878,115.18061 c -0.32,0.92 -1.1,1.09 -2,1 -0.2,-0.3 -0.54,-0.52 -0.5,-1 0.82,-0.07 1.69,0.1 2.5,0 z"
     id="path172" />
  <path
     class="cls-12"
     d="m 111.67288,91.68061 c 0.69,0.55 2.62,0.99 3,2.5 -2.39,-0.01 -5.04,0.34 -7.35,0.93 -1.29,0.33 -1.31,-0.19 -1.15,1.58 -0.49,0.02 -1.01,0.04 -1.5,0 -0.23,-0.02 -1.2,-1.48 -1,0.5 -2.82,0.26 -4.870002,0.68 -7.000002,1 l -0.25,-0.49 -0.25,0.49 c -0.16,0.02 -0.34,-0.02 -0.5,0 -0.14,-2.01 -0.11,-1.25 1.24,-1.49 2.31,-0.41 4.630002,-0.98 6.990002,-1.01 l -0.23,-2 8,-2 z"
     id="path174" />
  <path
     class="cls-6"
     d="m 103.67288,93.68061 0.23,2 c -2.37,0.03 -4.680002,0.6 -6.990002,1.01 -1.34,0.24 -1.37,-0.52 -1.24,1.49 -1.5,0.19 -3.02,0.25 -4.5,0.5 h -0.5 c 0.19,-2.41 4.84,-0.69 3,-4 2.41,0 5.92,0.16 7.500002,-2 0.78,0.38 1.67,0.72 2.5,1 z"
     id="path176" />
  <path
     class="cls-9"
     d="m 69.672878,103.68061 c 0.21,0.06 2.98,2.11 3.5,2.5 1.74,1.3 3.01,3.39 5,4 0.02,0.17 -0.04,0.37 0,0.5 0.36,1.08 1.72,1.98 2,2.5 0.28,0.52 0.32,1.19 0.5,1.5 -3.67,-1.87 -7.08,-8.57 -11.5,-9 -0.16,-0.02 -0.34,0 -0.5,0 0.15,-1.39 -0.07,-0.88 -1,-1 -0.93,-0.12 -2.9,-0.51 -3.5,-0.5 v -1 c 0.46,-0.02 5.24,0.42 5.5,0.5 z"
     id="path178" />
  <path
     class="cls-6"
     d="m 113.17288,105.68061 c 0.09,0.06 -0.19,0.62 0.12,0.92 0.21,0.2 0.79,0 0.88,0.08 0.09,0.08 -0.06,0.72 0,1 -0.16,0.04 -0.51,0.76 -1.29,0.85 -0.89,0.1 -2.95,0.16 -3.96,0.19 -0.96,0.03 -1.91,-0.02 -2.75,-0.54 1.61,-2.19 4.21,0.19 4,-2 0.59,-0.07 2.37,-0.96 3,-0.5 z"
     id="path180" />
  <path
     class="cls-12"
     d="m 110.17288,106.18061 c 0.21,2.19 -2.39,-0.19 -4,2 -0.28,0.39 -0.41,0.41 -0.5,1 -0.07,0.47 0.05,1.02 0,1.5 h -0.5 c -0.22,-0.64 -0.52,-1.03 -1,-1.5 -0.73,-0.71 -1.79,-1.92 -2.5,-0.5 -0.38,0.04 -0.83,-0.47 -1,-0.5 2.74,-1.42 6.44,-1.66 9.5,-2 z"
     id="path182" />
  <path
     class="cls-6"
     d="m 87.672878,98.68061 v 1 c -0.3,0.06 -0.69,-0.06 -1,0 -0.77,-0.92 -1.19,-0.63 -1,0.5 -1.25,0.24 -2.73,0.3 -4,0.5 l -1,-1 c 2.56,-0.57 4.4,-1.49 7,-1 z"
     id="path184" />
  <path
     class="cls-8"
     d="m 128.67288,102.68061 c 0.79,1.14 -4.22,2.1 -4.42,1.92 -0.2,-0.18 -0.02,-0.87 -0.08,-0.92 1.18,-0.75 3.12,-0.97 4.5,-1 z"
     id="path186" />
  <path
     class="cls-8"
     d="m 117.17288,104.68061 c 0.36,1.76 -2.03,0.93 -3,2 -0.08,-0.07 -0.67,0.11 -0.88,-0.08 -0.31,-0.29 -0.03,-0.85 -0.12,-0.92 l 0.5,-0.5 c 1.24,0.22 2.36,-0.32 3.5,-0.5 z"
     id="path188" />
  <path
     class="cls-8"
     d="m 194.17288,85.68061 c 0.57,0.03 2.51,-0.22 2.5,0.25 -0.02,1.39 -1.64,1.36 -2.5,1.75 z"
     id="path190" />
  <path
     class="cls-8"
     d="m 80.672878,99.68061 1,1 c -0.77,0.12 -1.26,0.42 -2.5,0.5 -0.08,-0.45 0.12,-1.14 0,-1.5 0.47,-0.06 1.07,0.09 1.5,0 z"
     id="path192" />
  <path
     class="cls-1"
     d="m 72.172878,102.68061 c -0.38,-1.5 3.08,-2.31 2.5,-0.5 -0.91,0.23 -1.74,0.32 -2.5,0.5 z"
     id="path194" />
  <path
     class="cls-1"
     d="m 79.172878,99.68061 c 0.12,0.36 -0.08,1.05 0,1.5 -0.5,0.03 -1,-0.02 -1.5,0 h -0.5 c -0.25,-1.12 1.06,-1.11 1.5,-2 0.1,0.17 0.44,0.32 0.5,0.5 z"
     id="path196" />
  <path
     class="cls-14"
     d="m 100.67288,108.18061 c 0.17,0.03 0.62,0.54 1,0.5 -0.28,0.57 0.57,1.42 -1.780002,1.04 -1.18,-0.19 -0.59,-0.91 -0.72,-1.04 l 0.5,-0.5 c 0.330002,0.02 0.690002,-0.05 1.000002,0 z"
     id="path198" />
  <path
     class="cls-14"
     d="m 98.172878,108.18061 v 0.5 c -0.55,0.1 -0.89,0.42 -2,0.5 v -0.5 c 0.4,-0.05 0.92,-0.43 2,-0.5 z"
     id="path200" />
  <path
     class="cls-12"
     d="m 89.172878,99.18061 c -0.28,0.06 -0.8,0.36 -1.5,0.5 v -1 c 0.52,0.1 1.14,-0.14 1.5,0.5 z"
     id="path202" />
  <path
     class="cls-8"
     d="m 122.17288,103.68061 c 0.21,2.11 -1.36,0.51 -1.5,0.5 0.42,-0.48 0.92,-0.46 1.5,-0.5 z"
     id="path204" />
  <path
     class="cls-8"
     d="m 104.67288,96.68061 c -0.12,0.49 -0.58,0.46 -1,0.5 -0.2,-1.98 0.77,-0.52 1,-0.5 z"
     id="path206" />
  <path
     class="cls-12"
     d="m 86.672878,99.68061 c -0.05,0.01 -0.19,0.35 -1,0.5 -0.19,-1.13 0.23,-1.42 1,-0.5 z"
     id="path208" />
  <path
     class="cls-12"
     d="m 99.672878,108.18061 -0.5,0.5 c 0,0 -0.79,-0.04 -1,0 v -0.5 c 0.49,-0.03 1.01,-0.02 1.5,0 z"
     id="path210" />
  <path
     class="cls-6"
     d="m 96.172878,108.68061 v 0.5 c -0.16,0.01 -0.34,0.01 -0.5,0 -0.43,-0.04 -0.84,-0.02 -1,-0.5 0.47,-0.07 1.02,0.06 1.5,0 z"
     id="path212" />
  <path
     class="cls-12"
     d="m 113.17288,105.68061 0.5,-0.5 z"
     id="path214" />
  <path
     class="cls-8"
     d="m 77.172878,101.68061 v -0.5 h 0.5 c -0.1,0.21 -0.28,0.44 -0.5,0.5 z"
     id="path216" />
  <path
     class="cls-12"
     d="m 90.672878,99.18061 v -0.5 h 0.5 c -0.06,0.24 -0.26,0.46 -0.5,0.5 z"
     id="path218" />
  <path
     class="cls-8"
     d="m 96.672878,98.18061 c -0.16,0.02 -0.34,-0.02 -0.5,0 l 0.25,-0.49 z"
     id="path220" />
  <path
     class="cls-5"
     d="m 108.17288,160.18061 c 0.34,0.15 0.67,0.34 1,0.5 l 1.5,1.5 14,21 c -3.21,-0.77 -18.12,-5.62 -20.03,-7.22 -2.03,-1.7 -11.400002,-16.64 -13.190002,-19.82 -0.46,-0.82 -0.89,-1.46 -0.78,-2.47 4.79,1.49 13.010002,4.45 17.500002,6.5 z"
     id="path222" />
  <path
     class="cls-3"
     d="m 108.17288,160.18061 c -4.49,-2.05 -12.710002,-5.01 -17.500002,-6.5 -0.42,-0.13 -0.83,-0.46 -1,-0.5 0.83,-2.52 0.5,-5.66 1.1,-8.17 0.15,-0.61 0.82,-0.71 0.9,-0.83 z"
     id="path224" />
  <path
     class="cls-10"
     d="m 91.672878,29.68061 0.5,-0.5 c -0.07,0.44 -0.49,0.47 -0.5,0.5 z"
     id="path226" />
  <path
     class="cls-7"
     d="m 111.67288,91.68061 -8,2 c -0.83,-0.28 -1.72,-0.62 -2.5,-1 -1.360002,-0.67 -3.650002,-2.31 -5.010002,-3.24 -0.72,-0.49 -1.57,-0.53 -1.49,-1.76 2.29,-0.58 5.450002,-1.78 7.500002,-3 3.84,2.21 6.12,4.29 9.5,7 z"
     id="path228" />
  <path
     class="cls-7"
     d="m 64.172878,104.18061 c 0.6,0 2.6,0.38 3.5,0.5 0.03,0.32 -0.05,0.68 0,1 0.25,1.63 1.29,2.71 1.5,4 -2.28,0.37 -2.99,-3.22 -5.2,-2.47 -1.14,0.39 -0.97,5.3 -2.8,5.97 h -0.5 c -0.59,-3.52 -1.77,0.59 -2.76,-0.99 -0.33,-0.52 -0.37,-3.39 -0.25,-3.51 0.21,-0.2 2.07,0.28 2.46,-0.05 0.57,-0.48 -0.24,-4.38 4.05,-4.45 z"
     id="path230" />
  <path
     class="cls-6"
     d="m 82.172878,86.68061 c -0.28,1.59 0.8,0.89 1.74,0.98 2.28,0.23 5.73,0.63 7.76,0.52 -4.26,1.81 -9.51,3.77 -14,5 -0.66,0.18 -1.33,0.36 -2,0.5 0.05,-2.47 3.17,-3.12 3,-5.5 1.14,-0.43 2.32,-1.06 3.5,-1.5 z"
     id="path232" />
  <path
     class="cls-7"
     d="m 94.672878,82.18061 -1,5.5 c -0.18,0.04 -0.54,0.47 -1,0.5 -0.33,0.02 -0.67,-0.02 -1,0 -2.02,0.11 -5.48,-0.28 -7.76,-0.52 -0.94,-0.1 -2.02,0.6 -1.74,-0.98 4.08,-1.53 8.27,-3.48 12.5,-4.5 z"
     id="path234" />
  <path
     class="cls-7"
     d="m 78.672878,88.18061 c 0.17,2.38 -2.95,3.03 -3,5.5 -0.92,0.19 -1.37,0.4 -2.5,0.5 -1.13,0.1 -2.34,-0.06 -3.5,0 -0.81,0.04 -1.73,-0.1 -2.5,0 0.39,-1.38 3.86,-3.72 5.04,-4.21 1.74,-0.73 4.49,-1.04 6.46,-1.79 z"
     id="path236" />
  <path
     class="cls-12"
     d="m 102.17288,84.68061 c -2.05,1.22 -5.210002,2.42 -7.500002,3 -0.28,0.07 -0.69,-0.06 -1,0 l 1,-5.5 c 0.36,-0.09 0.4,-0.65 1.6,-0.43 0.68,0.13 4.020002,1.45 4.780002,1.82 0.68,0.33 0.94,1 1.12,1.1 z"
     id="path238" />
  <path
     class="cls-6"
     d="m 73.172878,94.18061 c 0.22,1.12 -1.96,1.97 -3,2.5 -3.21,1.62 -6.79,3.04 -10,4.5 0.77,-1.65 2.24,-3.21 3.5,-4.5 1.02,2.39 5.68,-0.92 6,-2.5 1.16,-0.06 2.35,0.1 3.5,0 z"
     id="path240" />
  <path
     class="cls-14"
     d="m 55.172878,120.18061 c 0.67,-0.94 4.83,-5.59 5.49,-5 -0.05,0.6 0.09,1.06 0.51,1.5 0.13,0.58 -0.14,1.45 0,2 -1.85,2.22 -3.69,1.21 -6,1.5 z"
     id="path242" />
  <path
     class="cls-14"
     d="m 67.172878,94.18061 c 0.77,-0.1 1.69,0.04 2.5,0 -0.32,1.58 -4.98,4.89 -6,2.5 1.4,-1.44 1.07,-2.18 3.5,-2.5 z"
     id="path244" />
  <path
     class="cls-4"
     d="m 61.172878,113.18061 c 0.73,1.28 1.33,2.71 2,4 -0.32,-0.05 -0.73,0.07 -1,0 -0.19,-0.05 -0.91,-0.4 -1,-0.5 -0.27,-1.23 -0.35,-2.6 -0.5,-3.5 z"
     id="path246" />
  <path
     class="cls-1"
     d="m 37.172878,112.68061 c 0.17,4.17 -0.24,4.21 -4,5 -0.45,-0.74 -5.28,-0.67 -5.5,-0.5 -0.08,0.06 0.05,0.72 0,1 -1.9,-0.14 -2.39,-0.49 -4,-1 l -1.5,-2.5 c 1.49,-0.05 3.03,-0.27 4.5,-0.5 1.82,-0.3 3.68,-0.73 5.5,-1 1.64,-0.25 3.32,-0.56 5,-0.5 z"
     id="path248" />
  <path
     class="cls-8"
     d="m 38.672878,112.18061 c 0.1,-0.44 -0.34,-1.23 0.32,-1.52 l 15.92,-3.49 c 0.5,-0.01 0.2,1.48 0.26,2.01 -0.33,0.01 -0.67,-0.02 -1,0 -4.67,0.31 -10.3,2.23 -15,3 z"
     id="path250" />
  <path
     class="cls-8"
     d="m 29.672878,111.18061 c 0.35,1.94 -3.13,0.74 -3,3 -1.47,0.24 -3,0.45 -4.5,0.5 l 1.5,2.5 c -1.96,-0.63 -3.92,-0.77 -5,-3 3.94,0.32 7.37,-1.83 11,-3 z"
     id="path252" />
  <path
     class="cls-1"
     d="m 54.172878,111.18061 c 0,0.05 0.71,0.39 0.5,1 -3.06,0.69 -6.18,0.99 -9.28,1.49 -0.94,0.15 -2,-0.56 -1.72,1.01 -0.32,-0.04 -0.7,0.06 -1,0 -0.04,0 0.09,-0.32 -0.74,-0.48 -0.9,-0.17 -2.39,0.42 -2.76,-0.52 z"
     id="path254" />
  <path
     class="cls-12"
     d="m 55.172878,109.18061 c 0.14,1.33 0.22,2.66 0.49,3.98 -0.51,0.73 -7.34,0.72 -8.65,1.03 -0.97,0.23 0.36,0.97 -3.33,0.5 -0.29,-1.57 0.78,-0.86 1.72,-1.01 3.1,-0.51 6.22,-0.8 9.28,-1.49 0.22,-0.6 -0.49,-0.94 -0.5,-1 -0.1,-0.61 0.07,-1.36 0,-2 0.33,-0.02 0.67,0.01 1,0 z"
     id="path256" />
  <path
     class="cls-8"
     d="m 30.672878,110.68061 c 1.81,-0.44 3.97,-1 5.9,-0.16 1.04,0.46 0.57,1.21 0.6,2.16 -1.68,-0.06 -3.36,0.25 -5,0.5 0.23,-1.28 -0.59,-1.83 -1.5,-2.5 z"
     id="path258" />
  <path
     class="cls-12"
     d="m 30.672878,110.68061 c 0.91,0.67 1.73,1.22 1.5,2.5 -1.82,0.27 -3.68,0.7 -5.5,1 -0.13,-2.26 3.35,-1.06 3,-3 0.25,-0.08 0.54,-0.39 1,-0.5 z"
     id="path260" />
  <path
     class="cls-12"
     d="m 39.172878,112.18061 c 0.09,0.43 -0.13,1.18 0,1.5 0.37,0.93 1.86,0.34 2.76,0.52 0.83,0.16 0.7,0.48 0.74,0.48 -1.07,0.85 -2.65,0.56 -3.92,0.43 -0.97,-1.38 -0.31,-1.94 -0.08,-2.93 z"
     id="path262" />
  <path
     class="cls-8"
     d="m 33.172878,117.68061 c -2,0.42 -3.29,0.67 -5.5,0.5 0.04,-0.28 -0.09,-0.94 0,-1 0.23,-0.17 5.05,-0.24 5.5,0.5 z"
     id="path264" />
  <path
     class="cls-1"
     d="m 62.172878,117.18061 c 0.94,2.91 1.47,6.74 2.5,9.5 -0.31,-0.09 -0.75,-0.49 -1,-0.5 -0.43,-1.61 -1.26,-3.1 -1.5,-4 -0.31,-1.15 -0.75,-2.52 -1,-3.5 -0.14,-0.55 0.13,-1.42 0,-2 0.09,0.1 0.81,0.45 1,0.5 z"
     id="path266" />
  <path
     class="cls-15"
     d="m 157.67288,22.18061 c 1.63,1.66 -3.58,6.64 -3.55,2.24 0.01,-1.97 3.01,-2.79 3.55,-2.24 z"
     id="path268" />
  <path
     class="cls-6"
     d="m 133.17288,120.68061 c 0.03,0.21 0.38,1.2 0.5,1.5 l -0.49,5.24 3.49,32.75 c -0.35,0.39 -2.29,-1.16 -2.73,-1.51 -4.61,-3.63 -8.16,-8.34 -13.26,-11.49 -1.32,-0.82 -1.65,-2.26 -3.01,-0.76 -2,2.2 -4.49,8.49 -6.08,11.42 -0.44,0.82 -1.29,3 -2.41,2.84 -0.33,-0.16 -0.66,-0.35 -1,-0.5 l -16.500002,-16 c 0.06,-0.1 -0.04,-0.33 0,-0.5 l 26.500002,1 c -4.08,-2.95 -9.12,-7.76 -13.5,-10 -0.36,-0.18 -0.51,-0.32 -1,-0.5 -0.94,-0.47 -1.76,-2.26 -2,-2.5 5.61,-2.18 11.72,-1.47 17.5,-0.5 -0.09,2.58 0.12,5.19 0.02,7.77 -0.05,1.39 -1.51,4.64 0.47,4.23 l 12.01,-22 c 0.38,-0.13 0.82,-0.71 1.5,-0.5 z"
     id="path276" />
  <path
     class="cls-14"
     d="m 120.67288,147.18061 16,27.5 c -0.16,0.04 -0.24,0.54 -0.98,0.31 -8.2,-4.49 -16.4,-9.27 -25.02,-12.81 l -1.5,-1.5 c 1.12,0.15 1.97,-2.02 2.41,-2.84 1.59,-2.93 4.08,-9.22 6.08,-11.42 1.36,-1.5 1.69,-0.06 3.01,0.76 z"
     id="path278" />
  <path
     class="cls-9"
     d="m 28.172878,42.18061 c -1.99,0.37 -3.94,1.05 -6,1 5.09,-11.12 12.35,-21.22 19.98,-30.77 0.62,-0.5 2.69,-2.23 2.55,-0.45 -0.05,0.67 -0.51,1.09 -0.52,1.22 -0.7,-0.1 -2.62,0.69 -2.89,1.12 -0.31,0.49 0,1.08 -0.11,1.38 -0.05,0.17 0.07,0.41 0,0.5 -5.57,7.55 -10.83,15.62 -16,24 -0.17,0.27 -1.25,0.43 -1,1.25 -0.01,0.43 0.62,0.28 1,0.25 0.99,-0.06 2.02,-0.33 3,-0.5 v 1 z"
     id="path280" />
  <path
     class="cls-9"
     d="m 41.172878,27.68061 c -0.9,4.03 -1.06,8.48 -2.99,12.27 -0.3,0.27 -0.77,0.13 -1.01,0.23 0.05,-0.32 -0.07,-0.72 0,-1 0.93,-3.82 2.26,-7.63 3,-11.5 z"
     id="path282" />
  <path
     class="cls-10"
     d="m 37.172878,39.18061 c -0.07,0.28 0.05,0.68 0,1 -2.32,1 -6.4,1.52 -9,2 v -1 c 3.02,-0.51 5.94,-1.66 9,-2 z"
     id="path284" />
  <path
     class="cls-9"
     d="m 44.172878,14.68061 c -0.59,3.14 -1.35,6.36 -2,9.5 h -1.5 c 0.05,-0.32 -0.04,-0.68 0,-1 1.52,0.24 0.85,-0.42 1,-1.5 0.24,-1.74 0.76,-2.98 1,-4.5 0.07,-0.46 -0.05,-1.02 0,-1.5 0.15,-0.06 0.62,-1.24 1.5,-1 z"
     id="path286" />
  <path
     class="cls-10"
     d="m 42.172878,24.18061 c -0.28,1.34 -0.77,2.46 -1,3.5 h -1 c 0.19,-1.01 0.33,-2.39 0.5,-3.5 z"
     id="path288" />
  <path
     class="cls-8"
     d="m 44.172878,13.18061 c -0.06,0.48 0.08,1.06 0,1.5 -0.88,-0.24 -1.35,0.94 -1.5,1 -0.31,0.13 -1.07,-0.09 -1.5,0 0.1,-0.3 -0.2,-0.89 0.11,-1.38 0.27,-0.43 2.2,-1.22 2.89,-1.12 z"
     id="path290" />
  <path
     class="cls-4"
     d="m 132.17288,118.68061 c 0.17,0.09 0.49,0.93 1,1 0.03,0.33 -0.04,0.68 0,1 -0.68,-0.21 -1.12,0.37 -1.5,0.5 -3.68,1.23 -8.09,6.49 -11.16,9.34 -0.27,0.25 -0.77,0.1 -0.84,0.16 v -17.5 c 3.27,1.86 8.87,3.54 12.5,5.5 z"
     id="path292" />
  <path
     class="cls-1"
     d="m 132.17288,117.68061 c 0.07,0.28 -0.05,0.68 0,1 -3.63,-1.96 -9.23,-3.64 -12.5,-5.5 -0.18,-0.11 -2.54,-2.52 -3,-3 -0.37,-0.38 -0.63,-1.07 -1,-1.5 3.71,0.74 7.21,-3.97 10.99,-2.24 2.08,0.96 4.89,8.83 5.51,11.24 z"
     id="path294" />
  <path
     class="cls-3"
     d="m 115.67288,108.68061 c 0.37,0.43 0.63,1.12 1,1.5 -2.78,0.99 -6.05,0.36 -9,0.5 -0.16,0 -0.34,-0.02 -0.5,0 l -1.5,-1.5 c 0.09,-0.59 0.22,-0.61 0.5,-1 0.84,0.53 1.79,0.57 2.75,0.54 1.01,-0.03 3.07,-0.08 3.96,-0.19 0.79,-0.09 1.13,-0.81 1.29,-0.85 0.96,-0.26 1.11,0.55 1.5,1 z"
     id="path296" />
  <path
     class="cls-10"
     d="m 78.172878,51.18061 h 0.5 c -0.45,0.06 -0.2,0.02 -0.5,0 z"
     id="path298" />
  <path
     class="cls-6"
     d="m 163.17288,93.68061 c -1.16,0.86 -2.64,0.37 -4.04,0.72 -8.71,2.12 -17.43,4.14 -26.46,4.78 -0.09,0 -0.85,-0.94 -1.72,-0.52 l -32.460002,5.56 -0.82,-2.04 c 14.740002,-2.48 29.670002,-5.06 44.500002,-7.5 0.19,0.72 -0.63,2.12 0.71,1.97 6.22,-0.71 12.44,-2.41 18.62,-3.44 0.89,-0.47 1.58,0.48 1.67,0.47 z"
     id="path302" />
  <path
     class="cls-1"
     d="m 189.67288,87.18061 c 0.22,1.3 -0.67,1 -1.48,1.24 -7.13,2.1 -14.61,4.04 -22.02,4.76 -0.86,-0.96 -2.42,-0.84 -2,0.5 -0.33,0.03 -0.67,-0.04 -1,0 -0.09,0.01 -0.78,-0.94 -1.67,-0.47 -6.18,1.03 -12.4,2.73 -18.62,3.44 -1.34,0.15 -0.52,-1.25 -0.71,-1.97 2.26,-0.37 4.67,-1.12 7,-1.5 -0.54,1.49 2.46,1.61 2,0 12.87,-2.12 25.62,-4.18 38.5,-6 z"
     id="path304" />
  <path
     class="cls-6"
     d="m 89.672878,103.18061 v 1.5 c -2.88,1.16 -2.52,1.34 -6,1.5 v -2 c 2.02,-0.38 3.99,-0.66 6,-1 z"
     id="path306" />
  <path
     class="cls-1"
     d="m 83.672878,104.18061 v 2 c -2.01,0.1 -4.77,0.34 -6.5,-0.5 2.05,-0.43 4.29,-1.08 6.5,-1.5 z"
     id="path308" />
  <path
     class="cls-1"
     d="m 93.672878,102.18061 c 0.21,1.41 -2.68,1.97 -4,2.5 v -1.5 c 1.22,-0.21 2.68,-0.78 4,-1 z"
     id="path310" />
  <path
     class="cls-6"
     d="m 151.17288,93.18061 c 0.46,1.61 -2.54,1.49 -2,0 0.62,-0.1 1.38,0.1 2,0 z"
     id="path312" />
  <path
     class="cls-4"
     d="m 92.672878,88.18061 c 0.04,1.06 -2.97,7.34 -3.35,7.5 -2.07,0.88 -2.59,-0.22 -3.94,-0.45 -2,-0.35 -3.99,-0.69 -5.99,-1.04 -0.93,-0.16 -2,0.56 -1.71,-1.01 4.49,-1.23 9.74,-3.19 14,-5 0.33,-0.02 0.67,0.02 1,0 z"
     id="path314" />
  <path
     class="cls-6"
     d="m 166.17288,93.18061 c -0.27,0.03 -1.08,0.4 -2,0.5 -0.42,-1.34 1.14,-1.46 2,-0.5 z"
     id="path316" />
  <path
     class="cls-5"
     d="m 80.172878,113.18061 c 2.77,-1.9 5.72,-1.95 9,-0.99 l -5,2.99 c -0.81,0.1 -1.68,-0.07 -2.5,0 h -0.5 c -0.11,-0.19 -0.4,-0.33 -0.5,-0.5 -0.18,-0.31 -0.22,-0.98 -0.5,-1.5 z"
     id="path318" />
  <path
     class="cls-5"
     d="m 103.17288,113.68061 c 0.82,0.22 1.64,0.47 2.5,0.5 0.21,0.72 0.8,1.62 1,2.5 -2.85,0.85 -9.010002,-2.3 -11.190002,-1.88 -1.38,0.27 -7.34,6.05 -9.31,6.88 -0.87,-1.26 -1.98,-1.89 -3,-3.5 -0.3,-0.47 -0.52,-1.27 -1,-2 0.9,0.09 1.68,-0.08 2,-1 2.3,-0.27 3.28,-1.26 5,-1.5 1.72,-0.24 4.43,-0.09 6.76,-0.49 0.87,-0.15 1.89,0.23 2.24,-1.01 1.64,0.53 3.330002,1.05 5.000002,1.5 z"
     id="path320" />
  <path
     class="cls-3"
     d="m 98.172878,112.18061 c -0.35,1.24 -1.37,0.86 -2.24,1.01 -2.33,0.4 -5.07,0.25 -6.76,0.49 1.34,-0.6 4.05,-2.76 5.32,-2.87 1.27,-0.11 2.66,1.04 3.68,1.37 z"
     id="path322" />
  <path
     class="cls-4"
     d="m 104.17288,109.18061 c 0.29,1.85 -3.16,1.05 -4.500002,2 -1.1,-0.45 -4.29,-0.22 -4,-2 0.16,0.01 0.34,0.01 0.5,0 1.11,-0.08 1.45,-0.4 2,-0.5 0.21,-0.04 0.96,-0.03 1,0 0.13,0.13 -0.46,0.84 0.72,1.04 2.350002,0.39 1.490002,-0.47 1.780002,-1.04 0.71,-1.42 1.77,-0.21 2.5,0.5 z"
     id="path324" />
  <path
     class="cls-5"
     d="m 105.17288,110.68061 c 0.28,0.82 0.24,2.14 0.5,3 -0.69,-0.65 -1.92,-0.3 -2.5,-0.5 -0.79,-0.28 -2.66,-1.66 -3.500002,-2 1.340002,-0.95 4.790002,-0.15 4.500002,-2 0.48,0.47 0.78,0.86 1,1.5 z"
     id="path326" />
  <path
     class="cls-4"
     d="m 105.67288,113.68061 c 0.05,0.15 -0.04,0.35 0,0.5 -0.86,-0.03 -1.68,-0.28 -2.5,-0.5 v -0.5 c 0.58,0.2 1.81,-0.15 2.5,0.5 z"
     id="path328" />
  <path
     class="cls-8"
     d="m 80.672878,114.68061 c 0.1,0.17 0.39,0.31 0.5,0.5 0.28,0.5 0.66,3.28 2,3 1.02,1.61 2.13,2.24 3,3.5 0.3,0.44 0.42,0.98 0.5,1.5 -0.25,-0.19 -1.27,-0.22 -1.97,-0.77 -2.16,-1.69 -4.1,-4.04 -6.53,-5.23 -0.4,-0.95 -1,-1.65 -1.5,-2.5 -2.09,-3.53 -4.85,-5.96 -7.5,-9 4.42,0.43 7.83,7.13 11.5,9 z"
     id="path330" />
  <path
     class="cls-12"
     d="m 68.672878,105.68061 c 0.16,0 0.34,-0.02 0.5,0 2.65,3.04 5.41,5.47 7.5,9 -2.79,-0.75 -3.48,-2.27 -6.5,-3 -0.32,-0.08 -0.67,-0.38 -1,-0.5 0.07,-0.26 0.05,-1.18 0,-1.5 -0.21,-1.29 -1.25,-2.37 -1.5,-4 0.33,0 0.67,0 1,0 z"
     id="path332" />
  <path
     class="cls-8"
     d="m 67.672878,104.68061 c 0.93,0.12 1.15,-0.39 1,1 -0.33,0 -0.67,0 -1,0 -0.05,-0.32 0.03,-0.68 0,-1 z"
     id="path334" />
  <path
     class="cls-6"
     d="m 107.17288,123.68061 c -0.56,0.68 -0.94,0.93 -1,1 0.03,-0.04 -0.08,-0.48 0.15,-0.86 0.14,-0.22 0.81,-0.09 0.85,-0.14 z"
     id="path336" />
  <path
     class="cls-6"
     d="m 105.67288,125.18061 c 0.15,-0.18 0.35,-0.33 0.5,-0.5 -0.17,0.2 -0.38,0.35 -0.5,0.5 z"
     id="path338" />
  <path
     class="cls-6"
     d="m 105.67288,125.18061 c -0.07,0.08 0.07,0.54 -0.17,0.82 -1.5,1.77 -3.21,3.5 -4.83,5.18 -0.34,-0.13 -1.160002,-0.19 -2.000002,-0.5 0.1,-2.62 2.210002,-0.79 2.910002,-1.08 0.54,-0.22 2.63,-3.39 3.09,-3.92 0.18,-0.2 0.84,-0.3 1,-0.5 z"
     id="path340" />
  <path
     class="cls-6"
     d="m 106.17288,111.18061 c 0.72,2.15 1.24,5.54 1.86,7.92 0.23,0.87 -0.31,1.88 1.14,1.58 -0.29,0.31 -1.19,2.03 -2,3 0.13,-0.18 -0.09,-1.08 0,-1.5 0.04,-0.19 0.5,-0.4 0.48,-1.16 -0.04,-1.13 -0.7,-3.1 -0.98,-4.34 -0.2,-0.88 -0.79,-1.78 -1,-2.5 -0.04,-0.15 0.05,-0.35 0,-0.5 -0.26,-0.86 -0.22,-2.18 -0.5,-3 h 0.5 c -0.09,0.57 0.49,0.47 0.5,0.5 z"
     id="path342" />
  <path
     class="cls-5"
     d="m 107.17288,110.68061 c -0.38,0.05 -0.77,0.15 -1,0.5 -0.01,-0.03 -0.59,0.07 -0.5,-0.5 0.05,-0.48 -0.07,-1.03 0,-1.5 z"
     id="path344" />
  <path
     class="cls-7"
     d="m 103.67288,134.18061 c 0.49,0.18 0.64,0.32 1,0.5 -1.7,1.78 -11.200002,8.44 -13.000002,8.5 -0.54,0.02 -1.03,-0.3 -1.5,-0.5 l -7.5,-14 c 5.32,1.08 16.17,3.67 21.000002,5.5 z"
     id="path346" />
  <path
     class="cls-12"
     d="m 104.67288,134.68061 c 4.38,2.24 9.42,7.05 13.5,10 l -26.500002,-1 v -0.5 c 1.8,-0.06 11.300002,-6.72 13.000002,-8.5 z"
     id="path348" />
  <path
     class="cls-4"
     d="m 81.672878,128.18061 c 0.28,0.26 0.62,0.42 1,0.5 l 7.5,14 c -3.1,-1.34 -9.6,-6.36 -12.66,-8.59 -1.39,-1.02 -5.64,-3.82 -6.34,-4.91 z"
     id="path350" />
  <path
     class="cls-4"
     d="m 70.172878,111.68061 c 0.96,1.98 1.75,4.06 2.76,6.02 0.26,0.5 0.14,1.32 0.24,1.48 -0.13,0.18 -0.3,0.41 -0.5,0.5 -2.45,1.09 -3.34,3 -5.5,4.5 -1.37,-2.34 -2.25,-4.03 -3.5,-6.5 0.73,-1.67 5.18,-5.35 5.5,-6.5 0.33,0.12 0.68,0.42 1,0.5 z"
     id="path352" />
  <path
     class="cls-6"
     d="m 73.172878,119.18061 c 0.71,1.15 6.43,6.33 8,8 0.21,0.22 0.3,0.72 0.5,1 l -10.5,1 c -0.22,-0.34 -0.47,-0.36 -0.5,-1 -0.14,-2.65 2.14,-5.75 2,-8.5 0.2,-0.09 0.37,-0.32 0.5,-0.5 z"
     id="path354" />
  <path
     class="cls-1"
     d="m 69.172878,109.68061 c 0.05,0.32 0.07,1.24 0,1.5 -0.32,1.15 -4.77,4.83 -5.5,6.5 -0.08,-0.16 -0.4,-0.31 -0.5,-0.5 -0.67,-1.29 -1.27,-2.72 -2,-4 1.83,-0.67 1.66,-5.58 2.8,-5.97 2.2,-0.75 2.92,2.84 5.2,2.47 z"
     id="path356" />
  <path
     class="cls-3"
     d="m 72.672878,119.68061 c 0.14,2.75 -2.14,5.85 -2,8.5 -2.71,0.29 -2.66,-2.56 -3.5,-4 2.16,-1.5 3.05,-3.41 5.5,-4.5 z"
     id="path358" />
  <path
     class="cls-7"
     d="m 54.172878,109.18061 c 0.07,0.64 -0.1,1.39 0,2 l -15,2.5 c -0.13,-0.32 0.09,-1.07 0,-1.5 4.7,-0.77 10.33,-2.69 15,-3 z"
     id="path360" />
  <path
     class="cls-5"
     d="m 119.67288,113.18061 v 17.5 c -0.15,0.14 -0.23,0.43 -0.5,0.5 -5.78,-0.97 -11.89,-1.68 -17.5,0.5 -0.04,-0.04 -0.87,-0.45 -1,-0.5 1.62,-1.68 3.32,-3.41 4.83,-5.18 0.24,-0.28 0.11,-0.74 0.17,-0.82 0.12,-0.15 0.33,-0.3 0.5,-0.5 0.06,-0.07 0.44,-0.32 1,-1 0.81,-0.97 1.71,-2.69 2,-3 0.54,-0.57 3.32,-0.62 0.5,-1.75 1.55,-0.94 1.92,-3.27 1.52,-4.93 -0.18,-0.72 -4.25,-0.8 -3.52,-3.33 2.95,-0.14 6.22,0.49 9,-0.5 0.46,0.48 2.82,2.89 3,3 z"
     id="path362" />
  <path
     class="cls-5"
     d="m 105.67288,122.18061 c 0.46,-0.08 1.02,0.05 1.5,0 -0.09,0.42 0.13,1.32 0,1.5 -0.03,0.05 -0.71,-0.08 -0.85,0.14 -0.23,0.38 -0.12,0.82 -0.15,0.86 -0.15,0.17 -0.35,0.32 -0.5,0.5 -0.16,0.2 -0.82,0.3 -1,0.5 l -6.140002,-1.93 -6.36,3.93 c -1.35,-0.86 -2.27,-1.63 -3.5,-2.5 -0.26,-1.58 0.51,-0.75 1,-1 2.83,0.48 5.29,-3.45 7.8,-3.46 2.760002,0 4.840002,2.05 8.200002,1.46 z"
     id="path364" />
  <path
     class="cls-12"
     d="m 86.672878,123.18061 c 0.87,0.66 1.15,1.4 2,2 1.23,0.87 2.15,1.64 3.5,2.5 2.71,1.72 3.67,1.95 6.5,3 0.84,0.31 1.660002,0.37 2.000002,0.5 0.13,0.05 0.96,0.46 1,0.5 0.24,0.24 1.06,2.03 2,2.5 -4.830002,-1.83 -15.680002,-4.42 -21.000002,-5.5 -0.38,-0.08 -0.72,-0.24 -1,-0.5 -0.2,-0.28 -0.29,-0.78 -0.5,-1 -0.98,-3.09 -1.78,-7.09 -3,-10 2.43,1.2 4.38,3.54 6.53,5.23 0.7,0.55 1.72,0.58 1.97,0.77 z"
     id="path366" />
  <path
     class="cls-14"
     d="m 131.67288,121.18061 -12.01,22 c -1.98,0.41 -0.52,-2.83 -0.47,-4.23 0.1,-2.58 -0.11,-5.19 -0.02,-7.77 0.27,-0.07 0.35,-0.36 0.5,-0.5 0.06,-0.06 0.56,0.1 0.84,-0.16 3.07,-2.85 7.48,-8.11 11.16,-9.34 z"
     id="path368" />
  <path
     class="cls-10"
     d="m 42.672878,15.68061 c -0.05,0.48 0.07,1.04 0,1.5 -0.73,0 -1.28,-0.28 -1.5,-1 0.07,-0.09 -0.05,-0.33 0,-0.5 0.43,-0.09 1.19,0.13 1.5,0 z"
     id="path372" />
  <path
     class="cls-10"
     d="m 25.172878,41.68061 c -0.38,0.02 -1.02,0.17 -1,-0.25 -0.25,-0.81 0.84,-0.97 1,-1.25 z"
     id="path374" />
  <path
     class="cls-10"
     d="m 41.672878,21.68061 c -0.15,1.08 0.52,1.74 -1,1.5 0.15,-1.08 -0.52,-1.74 1,-1.5 z"
     id="path376" />
  <path
     class="cls-16"
     d="m 107.17288,110.68061 c 0.16,-0.02 0.34,0 0.5,0 -0.73,2.53 3.35,2.61 3.52,3.33 0.4,1.65 0.03,3.98 -1.52,4.93 2.82,1.13 0.03,1.17 -0.5,1.75 -1.45,0.3 -0.91,-0.71 -1.14,-1.58 -0.62,-2.38 -1.14,-5.77 -1.86,-7.92 0.23,-0.35 0.62,-0.45 1,-0.5 z"
     id="path378" />
  <path
     class="cls-16"
     d="m 106.67288,116.68061 c 0.28,1.25 0.94,3.21 0.98,4.34 0.03,0.76 -0.44,0.97 -0.48,1.16 -0.48,0.05 -1.04,-0.08 -1.5,0 -2.27,-1.11 -5.13,-1.29 -7.380002,-2.36 -0.64,-0.3 -0.7,-1.11 -0.87,-1.16 -1.73,-0.43 -0.97,0.85 -1.98,2.02 -0.91,1.05 -4.36,2.77 -5.77,3.49 -0.49,0.25 -1.26,-0.58 -1,1 -0.85,-0.6 -1.13,-1.34 -2,-2 -0.08,-0.52 -0.2,-1.06 -0.5,-1.5 1.97,-0.82 7.93,-6.61 9.31,-6.88 2.18,-0.42 8.340002,2.73 11.190002,1.88 z"
     id="path380" />
  <path
     class="cls-9"
     d="m 82.172878,116.18061 c 0.48,0.73 0.7,1.53 1,2 -1.34,0.28 -1.72,-2.5 -2,-3 h 0.5 c -0.04,0.48 0.3,0.7 0.5,1 z"
     id="path382" />
  <path
     class="cls-7"
     d="m 76.672878,114.68061 c 0.5,0.85 1.1,1.55 1.5,2.5 1.22,2.91 2.02,6.91 3,10 -1.57,-1.67 -7.29,-6.85 -8,-8 -0.1,-0.16 0.01,-0.99 -0.24,-1.48 -1.01,-1.95 -1.8,-4.04 -2.76,-6.02 3.02,0.73 3.71,2.25 6.5,3 z"
     id="path384" />
  <path
     class="cls-16"
     d="m 104.67288,125.68061 c -0.47,0.53 -2.55,3.7 -3.09,3.92 -0.7,0.29 -2.810002,-1.54 -2.910002,1.08 -2.83,-1.05 -3.79,-1.28 -6.5,-3 l 6.36,-3.93 z"
     id="path386" />
  <path
     class="cls-4"
     d="m 89.672878,124.18061 c 1.41,-0.72 4.86,-2.43 5.77,-3.49 1.01,-1.17 0.25,-2.46 1.98,-2.02 0.17,0.04 0.23,0.85 0.87,1.16 2.250002,1.06 5.110002,1.24 7.380002,2.36 -3.36,0.59 -5.44,-1.47 -8.200002,-1.46 -2.51,0 -4.98,3.94 -7.8,3.46 z"
     id="path388" />
</svg>
