<?xml version="1.0" encoding="UTF-8" standalone="no"?>
<!-- Created with Inkscape (http://www.inkscape.org/) -->

<svg
   version="1.1"
   id="svg1"
   width="1242.2994"
   height="563.63898"
   viewBox="0 0 1242.2994 563.63898"
   xml:space="preserve"
   xmlns="http://www.w3.org/2000/svg"
   xmlns:svg="http://www.w3.org/2000/svg"><defs
     id="defs1" /><g
     id="g1"
     transform="translate(-122.06879,-718.39662)"><g
       id="g2"
       transform="translate(-7.0750931e-7,280.10892)"><path
         style="fill:#ffcc00"
         d="m 582.22252,913.93789 c -10.41339,-2.05221 -20.45336,-10.59345 -24.18917,-20.57831 -1.97645,-5.28252 -2.03047,-7.37144 -1.93031,-74.64709 0.0935,-62.82355 0.22841,-68.2894 1.46118,-59.21249 10.1102,74.4414 53.1523,130.77594 115.43578,151.08514 4.675,1.52441 8.9275,3.14137 9.45,3.59326 1.25097,1.0819 -94.68541,0.85169 -100.22748,-0.24051 z M 743,831.45232 c -45.29282,-8.26267 -66.05349,-43.28452 -65.98267,-111.30827 0.0576,-55.29232 14.34514,-88.84295 44.04069,-103.41806 39.93517,-19.6009 89.99502,-4.67465 108.24093,32.27401 18.24614,36.94914 16.47289,116.71704 -3.33815,150.16293 C 810.82502,824.71584 777.39553,837.72702 743,831.45232 Z M 556.10304,621.28751 c -0.10016,-67.27565 -0.0461,-69.36457 1.93031,-74.64709 2.861,-7.64672 8.73375,-13.90792 16.74601,-17.85367 l 6.67408,-3.28675 51.52328,-0.30074 c 30.43652,-0.17766 51.11401,0.0662 50.52328,0.59579 -0.55,0.4931 -5.24075,2.3511 -10.42389,4.12889 -63.30021,21.71167 -105.49464,76.7136 -115.51359,150.57606 -1.23052,9.07173 -1.366,3.57521 -1.45948,-59.21249 z"
         id="path3" /><path
         style="fill:#f2f2f2"
         d="m 838.55,914.12376 c 0.5225,-0.48193 4.1,-1.90374 7.95,-3.15957 C 911.95107,889.61472 953.90021,831.36564 962.06124,750.5 973.25538,639.58002 930.30506,558.93173 844,528.81508 l -9.5,-3.31508 74.82846,-0.25639 c 41.15565,-0.14101 108.20564,-0.14101 149.00004,0 L 1132.5,525.5 l -13.9015,2.76643 c -53.5452,10.65558 -87.721,38.47186 -101.2997,82.44949 -4.0858,13.23279 -4.0852,43.33735 0,56.5724 15.0581,48.7706 54.9822,73.85459 154.7,97.19689 47.4859,11.11565 65.5,24.32092 65.5,48.01479 0,24.75348 -20.8164,40.53147 -53.41,40.48264 -38.0952,-0.0571 -60.5752,-19.05468 -68.0197,-57.48264 l -1.7435,-9 -5.4134,0.26841 c -2.9774,0.14762 -22.7384,1.36474 -43.9134,2.7047 -21.175,1.33997 -44.5018,2.74727 -51.8373,3.12734 -16.05654,0.83193 -15.24863,-0.23305 -12.4258,16.37956 7.7089,45.36736 33.5044,84.00319 67.4187,100.97781 4.5538,2.27927 8.4817,4.34619 8.7287,4.59316 0.247,0.24696 -53.491,0.44902 -119.41763,0.44902 -68.68053,0 -119.461,-0.37418 -118.91667,-0.87624 z m 438.45,0.52865 c 0,-0.28662 4.4536,-2.85014 9.8968,-5.6967 79.2124,-41.42432 93.7985,-149.13488 27.1416,-200.42615 -25.8171,-19.86584 -58.9518,-31.60603 -145.5384,-51.56684 -31.8172,-7.33481 -43.6555,-16.28265 -42.2372,-31.92434 1.7636,-19.44936 20.4092,-30.53955 48.2372,-28.69088 28.7776,1.91176 45.5805,15.52443 52.3225,42.38843 0.9988,3.97976 2.047,7.46688 2.3292,7.74915 0.2823,0.28227 18.9262,-0.5878 41.4308,-1.93349 22.5046,-1.34569 46.5425,-2.71382 53.4175,-3.04027 21.7251,-1.03161 20.2306,0.34159 16.9813,-15.60327 -11.4896,-56.38013 -45.3484,-87.72385 -106.3768,-98.47485 -4.3426,-0.765 -8.1544,-1.64979 -8.4708,-1.96621 -0.3165,-0.31642 24.8469,-0.43843 55.9186,-0.27115 l 56.4939,0.30416 6.6743,3.28675 c 8.0124,3.94574 13.8851,10.20681 16.7462,17.85367 3.2021,8.55855 3.2021,338.16061 0,346.71916 -2.8609,7.64631 -8.7338,13.90788 -16.7456,17.85367 l -6.6736,3.28675 -30.7737,0.33678 C 1290.8482,915.022 1277,914.93904 1277,914.65241 Z"
         id="path2" /></g><path
       style="fill:#ffcc00;stroke-width:1.06952"
       d="m 226.91884,1239.2546 v -42.781 h -51.87182 c -48.71007,0 -51.86858,-0.1141 -51.81631,-1.8715 0.0308,-1.0296 2.34144,-14.8664 5.13517,-30.7489 l 5.0795,-28.877 4.75792,-0.7229 c 2.61686,-0.3975 10.29272,-0.7742 17.05746,-0.837 6.76465,-0.064 15.66846,-0.5442 19.78626,-1.0697 6.79155,-0.8664 7.80926,-1.3265 10.96262,-4.9559 l 3.47586,-4.0009 V 999.6636 875.93754 l -3.09336,-4.27038 c -4.0962,-5.65446 -8.00008,-8.61071 -13.35654,-10.11436 -2.42312,-0.68024 -14.75339,-1.52411 -27.40055,-1.8753 l -22.99477,-0.6385 -0.28574,-27.00548 -0.28575,-27.00548 h 52.42497 52.42508 v -43.3157 -43.31572 h 26.19122 26.1912 l 0.2794,43.04833 0.2796,43.04833 20.5885,0.29049 20.5882,0.29047 v -43.33883 -43.33879 h 26.738 26.7382 l 0.1061,40.90929 c 0.058,22.50008 0.4391,42.10361 0.8457,43.56335 0.7049,2.53117 1.3101,2.71058 13.064,3.87363 23.3539,2.31086 43.1847,7.63246 60.3155,16.18559 26.2019,13.08225 41.1312,30.2071 47.7974,54.82718 3.2422,11.97461 3.5097,37.21483 0.5096,48.12858 -4.9124,17.87188 -14.9845,32.8723 -30.2044,44.98307 -9.6623,7.68852 -9.3208,8.81605 4.3575,14.3828 26.0061,10.58415 39.0272,20.99069 47.6583,38.08859 6.9175,13.7034 10.3004,34.9695 9.167,57.6265 -1.1706,23.4012 -4.7101,38.3889 -12.7547,54.011 -5.975,11.6027 -20.8765,26.5599 -34.3502,34.4784 -23.9847,14.0959 -65.228,24.88 -95.1521,24.88 h -11.3602 v 43.8504 43.8506 h -26.738 -26.7383 v -42.781 -42.781 h -20.8556 -20.8557 v 42.781 42.781 h -26.2033 -26.20331 z m 116.72192,-106.4414 c 44.7985,-4.5761 69.072,-15.8731 78.8293,-36.6872 2.6414,-5.6345 2.8454,-7.1072 2.8454,-20.5328 0,-14.1482 -0.076,-14.6161 -3.4666,-21.5027 -8.3822,-17.0223 -27.8105,-27.0051 -61.2396,-31.4665 -10.4579,-1.3959 -54.793,-3.5552 -75.1339,-3.6596 l -6.1498,-0.031 v 57.576 c 0,31.6668 0.3609,57.9501 0.802,58.407 1.1304,1.1709 46.0149,-0.3152 63.5132,-2.1026 z m -32.7644,-165.25038 c 27.1617,-1.24902 40.3948,-2.99996 52.3783,-6.93032 25.4481,-8.34658 37.1974,-20.99202 38.7448,-41.70016 2.4589,-32.90425 -20.1783,-50.97656 -69.0735,-55.14479 -13.3775,-1.14043 -50.7436,-1.00996 -51.9349,0.1813 -0.2372,0.23725 -0.5886,23.89116 -0.781,52.56426 l -0.3498,52.13296 3.7433,-0.0101 c 2.0589,-0.004 14.3317,-0.49753 27.2728,-1.09267 z"
       id="path2-5" /></g></svg>
