<?xml version="1.0" encoding="UTF-8" standalone="no"?>
<svg
   version="1.0"
   width="183.2pt"
   height="463.54736pt"
   viewBox="0 0 183.2 463.54736"
   preserveAspectRatio="xMidYMid"
   id="svg2774"
   xmlns="http://www.w3.org/2000/svg"
   xmlns:svg="http://www.w3.org/2000/svg">
  <defs
     id="defs2778" />
  <metadata
     id="metadata2756"> Created by potrace 1.16, written by Peter Selinger 2001-2019 </metadata>
  <path
     style="fill:#fac569;stroke:#fdfdfd;stroke-width:1.11819"
     d="m 146.97415,555.65866 c -1.76534,-2.12709 -7.78925,-5.2741 -15.91529,-8.31443 l -6.02281,-2.25342 -0.73803,-28.68184 c -0.40592,-15.77501 -0.74105,-53.88528 -0.74474,-84.68949 -0.007,-55.638 -0.72151,-77.83466 -2.32592,-72.22142 -0.43946,1.53751 -0.84918,44.18248 -0.91048,94.7666 l -0.11146,91.97112 h -3.66567 c -3.7365,0 -18.934545,6.61414 -20.3093,8.83854 -2.046192,3.3108 -2.861917,0.23773 -2.865554,-10.79538 C 93.347191,490.57663 84.866101,447.91188 64.832039,400.74236 58.512256,385.86264 42.631506,352.84337 35.785472,340.34871 l -4.059164,-7.40837 14.062183,-39.83437 c 29.021473,-82.21002 46.827652,-136.29032 62.266719,-189.11431 5.57224,-19.065135 10.57029,-35.418663 11.10677,-36.34117 0.56159,-0.965674 0.98986,33.75666 1.00943,81.84142 0.0312,76.69016 0.79114,98.38623 2.66825,76.18008 0.39618,-4.6868 0.77494,-38.76247 0.84169,-75.7237 0.0667,-36.96123 0.44414,-70.221349 0.83864,-73.911375 l 0.71728,-6.70914 9.77341,33.545695 c 16.41706,56.34894 30.5996,99.30524 58.70024,177.7922 7.04607,19.68014 14.0393,39.35108 15.54051,43.71321 l 2.72947,7.93113 -13.91498,28.41004 c -21.35024,43.59053 -30.33478,66.35584 -38.13044,96.61605 -6.83096,26.51554 -8.51698,39.54377 -9.22556,71.28819 -0.3535,15.83636 -1.01019,28.79339 -1.45932,28.79339 -0.44913,0 -1.47354,-0.79156 -2.27645,-1.75902 z M 131.68886,341.56525 c 0.33668,-3.71301 1.16517,-7.41726 1.84107,-8.23168 0.67591,-0.81441 3.70662,-1.77421 6.73492,-2.13286 9.4606,-1.12047 17.48734,-6.47725 20.12092,-13.42802 2.98419,-7.87616 -0.37673,-19.33445 -6.61778,-22.56183 l -3.51344,-1.81687 4.10887,-4.54804 c 3.95049,-4.37272 4.09012,-4.80752 3.62206,-11.27853 -0.43454,-6.00733 -0.9178,-7.1254 -4.49789,-10.40632 -2.9105,-2.66727 -5.83465,-4.03461 -10.65736,-4.98343 l -6.64632,-1.30757 -1.00056,-7.43417 c -0.97549,-7.24787 -1.08754,-7.44262 -4.47197,-7.77241 -3.404,-0.33169 -3.48467,-0.22626 -4.15455,5.4298 -1.46344,12.35646 -8.58779,11.96664 -8.58779,-0.46991 0,-4.01568 -0.44247,-5.17045 -2.19415,-5.72641 -4.01414,-1.27404 -6.50809,1.21716 -7.5358,7.52749 l -0.95719,5.87738 -9.1929,-0.29851 -9.192901,-0.2985 v 4.3548 c 0,4.92932 1.355417,6.50099 6.076173,7.04562 4.743107,0.5472 5.311348,4.11962 3.962343,24.91037 -1.537267,23.69221 -1.311881,22.99119 -7.391938,22.99119 -4.272068,0 -5.085434,0.38696 -6.028824,2.86827 -0.599783,1.57754 -1.090514,4.04925 -1.090514,5.49266 0,2.79901 0.159741,2.85007 14.256922,4.55657 l 5.870499,0.71064 0.11146,5.20648 c 0.17895,8.35887 1.21455,10.74653 4.84328,11.16651 3.91635,0.45326 5.06953,-1.19238 5.09184,-7.26632 0.0246,-6.70198 0.87965,-8.19834 4.68454,-8.19834 h 3.30997 l -0.15987,7.54778 c -0.0879,4.15128 -0.12169,7.92518 -0.075,8.38643 0.0467,0.46125 2.0277,0.83864 4.4023,0.83864 h 4.31745 l 0.61215,-6.75091 z"
     id="path6507"
     transform="scale(0.75)" />
  <path
     style="fill:#fac569;stroke:#fdfdfd;stroke-width:1.11819"
     d="M 115.30522,616.60932 C 104.37923,613.91055 86.249039,600.50594 74.488753,586.43154 l -5.966103,-7.14007 0.961657,-8.98007 C 71.215676,554.14371 70.545011,501.34145 68.425774,486.97171 61.489445,439.9391 42.310623,397.87917 10.726005,360.43376 L 0.66873337,348.51028 34.556091,255.32391 C 82.212823,124.27332 95.225805,86.669172 117.1071,16.772849 l 4.90075,-15.6546591 2.04679,8.3864244 c 6.638,27.1981697 51.489,154.7897857 111.90655,318.3504957 l 7.51812,20.35289 -10.66383,13.19281 c -34.45932,42.63155 -51.40398,81.59781 -58.49505,134.51642 -2.36125,17.62128 -2.6651,53.31239 -0.58775,69.03598 0.83194,6.29707 1.20348,12.68097 0.82562,14.18645 -0.94497,3.76505 -17.07024,20.56332 -26.32662,27.42535 -12.62466,9.35906 -22.94946,12.50866 -32.92646,10.04431 z m 21.69751,-17.92188 c 8.95103,-4.77085 22.34972,-17.53835 22.31279,-21.26168 -0.0145,-1.47187 -1.26986,-5.69525 -2.78948,-9.38528 -3.95796,-9.61094 -4.23637,-13.77342 -2.84203,-42.49122 1.44067,-29.67188 3.11405,-42.3985 8.40602,-63.93046 7.53369,-30.65313 18.26139,-57.80906 39.8557,-100.89009 l 14.23615,-28.40138 -10.42554,-28.06721 C 184.40959,246.79124 162.98976,183.71812 147.04818,131.38732 123.96233,55.604255 123.79245,54.858483 123.61322,28.513843 c -0.0481,-7.072551 -0.57525,-13.613962 -1.17142,-14.536469 -0.90065,-1.393658 -1.0959,-1.299116 -1.15458,0.559095 -0.8779,27.797679 -2.24299,39.798697 -6.1052,53.673116 C 98.969296,126.45137 63.129731,236.57469 38.760044,303.02947 l -11.071414,30.19113 4.4172,7.82733 c 8.341913,14.78196 26.403708,52.56788 32.604412,68.20958 11.494159,28.9948 18.929102,56.127 22.521417,82.18696 0.974936,7.07255 2.058122,25.18723 2.407079,40.25484 l 0.634467,27.39565 -3.484028,8.69508 c -4.471454,11.1594 -4.391833,12.93317 0.751621,16.74432 2.282927,1.69158 7.15059,5.59583 10.817029,8.67611 13.101183,11.00667 25.083873,12.70493 38.644903,5.47697 z"
     id="path6509"
     transform="scale(0.75)" />
  <path
     style="fill:#fac569;stroke:#fdfdfd;stroke-width:1.11819"
     d="m 115.02788,316.7273 c 0.37083,-1.38376 0.68882,-5.53504 0.70663,-9.22507 0.0478,-9.90462 0.47433,-10.26167 10.25445,-8.58457 8.83954,1.51582 12.20282,3.18849 15.00243,7.46124 1.6832,2.56888 1.66118,3.01125 -0.3192,6.41402 -2.69324,4.62762 -7.44359,6.30569 -18.08126,6.38719 -8.00929,0.0614 -8.21863,-0.007 -7.56305,-2.45281 z"
     id="path6511"
     transform="scale(0.75)" />
  <path
     style="fill:#fac569;stroke:#fdfdfd;stroke-width:1.11819"
     d="m 116.85085,280.09145 v -9.25475 l 8.05858,0.6756 c 9.40711,0.78866 13.57481,3.21052 14.07829,8.18093 0.57064,5.63346 -3.69946,8.46972 -13.71962,9.11278 l -8.41725,0.54018 z"
     id="path6513"
     transform="scale(0.75)" />
  <path
     style="fill:#fac569;stroke:#fdfdfd;stroke-width:1.11819"
     d="m 123.55999,576.46876 c 0,-13.45252 0.28619,-25.20494 0.63599,-26.1165 0.51373,-1.33875 1.42734,-1.44504 4.75231,-0.5529 10.12026,2.71542 22.11635,12.94167 25.4639,21.7071 1.76381,4.61847 1.74318,4.94395 -0.54846,8.65189 -3.9309,6.36034 -16.90501,16.0578 -25.55144,19.09836 l -4.7523,1.67117 z"
     id="path6515"
     transform="scale(0.75)" />
  <path
     style="display:inline;fill:#fac569;stroke:#fdfdfd;stroke-width:1.11819"
     d="m 113.96947,598.95236 c -7.33229,-2.48412 -16.323348,-9.12386 -21.888465,-16.16426 -3.710049,-4.69357 -4.293524,-6.12488 -3.686642,-9.04366 2.264562,-10.89132 13.773637,-21.15311 27.513847,-24.53206 l 2.97103,-0.73063 0.73519,10.33846 c 0.40435,5.68615 0.57695,17.47478 0.38354,26.19694 l -0.35165,15.85848 z"
     id="path6517"
     transform="scale(0.75)" />
</svg>
