<?xml version="1.0" encoding="UTF-8" standalone="no"?>
<!-- Created with Inkscape (http://www.inkscape.org/) -->

<svg
   width="105.3198mm"
   height="111.44071mm"
   viewBox="0 0 105.3198 111.44071"
   version="1.1"
   id="svg5"
   xml:space="preserve"
   xmlns="http://www.w3.org/2000/svg"
   xmlns:svg="http://www.w3.org/2000/svg"><defs
     id="defs2" /><g
     id="layer1"
     transform="translate(-45.81168,-39.83823)"><g
       id="g302"
       transform="translate(-9.0774622,-2.9282079)"><path
         style="fill:#f19519;stroke-width:0.264583"
         d="m 104.91032,153.7036 c -2.08884,-0.75907 -3.01846,-1.33749 -7.347482,-4.57164 -1.85248,-1.38395 -4.304664,-2.9883 -5.449302,-3.56521 l -2.081157,-1.04893 H 73.056263 c -14.93649,0 -17.046765,-0.0495 -17.564153,-0.41187 -0.950342,-0.66565 -0.760532,-1.54664 0.450923,-2.09293 1.446501,-0.65228 2.575548,-1.86041 2.1819,-2.33473 -0.236671,-0.28517 0.0043,-0.62295 1.150289,-1.61231 1.664939,-1.43741 1.815043,-1.94521 0.610164,-2.0642 -1.304954,-0.12888 -1.140495,-0.53007 0.647035,-1.57842 1.776423,-1.04183 2.044568,-1.05561 2.044568,-0.10506 0,0.84707 0.261329,0.89088 8.013144,1.34338 18.745593,1.09424 24.103638,2.78586 31.562097,9.96465 1.88795,1.81716 2.22892,2.04735 2.22892,1.50478 0,-1.25672 -5.400103,-6.96387 -8.598955,-9.08789 -7.131309,-4.73514 -10.354778,-5.44316 -25.796873,-5.66615 L 58.74053,132.2147 v -0.63602 c 0,-0.50008 0.469899,-0.95712 2.198413,-2.13828 1.209127,-0.82625 2.509346,-1.81319 2.889375,-2.19322 l 0.690963,-0.69097 -0.671947,-1.00721 c -0.369571,-0.55397 -1.658271,-2.19721 -2.863778,-3.65164 -3.215331,-3.87926 -2.904484,-0.65259 -2.904484,-30.149315 V 65.948772 l 0.597322,-0.391382 c 0.328527,-0.21526 3.334855,-1.660318 6.680729,-3.211245 10.032577,-4.650437 16.996487,-7.907135 20.635489,-9.650262 1.891771,-0.906181 5.523177,-2.63047 8.069792,-3.831754 2.546614,-1.201284 6.494456,-3.090169 8.772976,-4.197522 4.79432,-2.330019 4.58735,-2.297992 6.9849,-1.080806 1.59517,0.809834 5.55435,2.709361 19.43171,9.322911 1.67348,0.797537 3.87614,1.836869 4.89479,2.309627 1.01864,0.472759 2.86411,1.339649 4.10104,1.926424 1.23693,0.586776 5.64224,2.625369 9.78958,4.530208 4.14734,1.904839 7.83828,3.635465 8.20208,3.845841 l 0.66146,0.382497 v 26.011945 c 0,23.966416 -0.0353,26.074366 -0.4486,26.805696 -0.24674,0.43656 -1.58973,2.15632 -2.98442,3.82168 -3.61068,4.31141 -3.62259,4.16061 0.54584,6.90926 4.42102,2.91521 4.63764,2.84547 -9.28365,2.98857 -11.74009,0.12068 -13.1571,0.25447 -17.40118,1.64301 -5.65524,1.85022 -11.93646,6.48284 -15.43235,11.38189 -1.62,2.27023 -1.28629,2.46147 0.76004,0.43556 7.24187,-7.16965 12.63076,-8.96605 30.3537,-10.11852 9.50582,-0.61813 9.35944,-0.59426 9.18669,-1.49793 -0.19998,-1.04615 0.39281,-0.99208 2.27435,0.20745 1.81918,1.15978 2.00102,1.55924 0.70979,1.55924 -0.41939,0 -0.83865,0.12318 -0.9317,0.27374 -0.16027,0.25932 2.16465,2.62787 2.58535,2.63385 0.10914,0.002 0.19843,0.33926 0.19843,0.75045 0,0.87983 0.7848,1.70037 2.18643,2.286 0.74646,0.3119 0.98857,0.56625 0.98857,1.03857 0,1.37511 0.40462,1.34194 -18.10244,1.48405 l -17.22778,0.1323 -1.73458,0.88987 c -0.95402,0.48942 -3.39292,2.12742 -5.41978,3.63998 -6.39933,4.77554 -9.30106,5.79997 -12.81333,4.52363 z m 0.29702,-3.03421 c -0.13792,-0.25466 -1.1839,-1.38101 -2.32441,-2.503 -8.113962,-7.9822 -13.039183,-9.19496 -34.109165,-8.39883 l -9.137309,0.34525 -0.514109,0.722 c -1.04649,1.46966 -1.944885,1.35843 10.730683,1.32857 4.220104,-0.01 10.649479,0.0835 14.287499,0.20759 8.685683,0.29633 7.400213,-0.19824 17.462501,6.71852 2.90051,1.99379 4.11734,2.52717 3.60431,1.5799 z m 6.72727,-0.3659 c 0.71889,-0.4559 2.79602,-1.92964 4.61587,-3.27498 6.48831,-4.79656 5.69695,-4.63965 24.07859,-4.7743 7.93088,-0.0581 14.74721,-0.10834 15.14739,-0.11163 0.87586,-0.007 0.91312,-0.42261 0.12278,-1.36872 l -0.5858,-0.70126 -9.12812,-0.2908 c -20.78481,-0.66217 -26.06463,0.6026 -33.40538,8.00216 -3.34439,3.37118 -3.65688,4.30257 -0.84533,2.51953 z m -2.54973,-4.3966 c 7.96626,-11.57578 18.47922,-17.17899 33.33662,-17.76779 5.7917,-0.22953 6.39603,-0.44789 5.81919,-2.10261 -0.52238,-1.4985 -4.62709,-4.802 -5.96665,-4.802 -0.59482,0 -0.41116,-0.43511 0.74705,-1.76984 2.68519,-3.09446 4.38127,-6.35632 5.13309,-9.87183 0.55286,-2.58522 0.5348,-29.592219 -0.0214,-31.951152 -1.03658,-4.39652 -4.34963,-8.426852 -9.12665,-11.10261 -5.63927,-3.158726 -27.11317,-12.100461 -30.65312,-12.76396 -2.61875,-0.490839 -9.198066,1.928143 -27.290626,10.033804 -8.898664,3.986697 -13.02773,7.68056 -14.682377,13.134856 -0.613946,2.02378 -0.584036,30.428692 0.03497,33.211922 0.675596,3.03768 2.780835,6.95204 5.098961,9.48072 1.279972,1.39623 1.307597,1.53373 0.354174,1.76289 -3.654846,0.87842 -7.516866,5.73373 -5.023054,6.31495 0.325205,0.0758 2.862604,0.2513 5.638663,0.39002 14.797396,0.73941 26.735287,7.2891 33.425509,18.33881 0.57335,0.94697 1.26718,1.77892 1.48356,1.77892 0.0544,0 0.81581,-1.0418 1.69207,-2.3151 z m -9.560455,-24.19794 -0.07348,-3.78175 -5.027083,-0.13229 c -6.038403,-0.15891 -5.688541,0.0117 -5.688541,-2.77484 0,-2.77486 0.215455,-3.046 2.4205,-3.046 1.403435,0 1.679253,-0.0903 2.362351,-0.77339 l 0.773398,-0.7734 -0.0059,-11.860459 c -0.007,-14.180045 0.166537,-13.580248 -3.929856,-13.580248 -2.345105,0 -2.291509,0.116123 -2.165181,-4.691092 0.01548,-0.589042 0.02514,-0.590174 5.637901,-0.661458 l 5.622395,-0.07141 0.07322,-3.902605 0.07322,-3.902604 h 1.977301 1.97731 v 3.8056 c 0,4.32358 -0.11992,4.120891 2.44235,4.128289 1.56699,0.0045 1.60904,-0.124177 1.48525,-4.545791 l -0.0911,-3.255806 2.04339,-0.07715 2.04338,-0.07715 0.0733,3.909037 0.0733,3.909036 2.15709,0.306289 c 6.80015,0.965571 10.67003,4.45633 10.67003,9.624725 0,2.595639 -0.70845,4.15254 -2.73051,6.000589 -1.80298,1.647819 -1.78907,1.514729 -0.24088,2.304637 3.47614,1.773581 4.96093,4.318011 4.96093,8.501381 0,6.49759 -4.04392,10.30082 -11.95675,11.24509 -1.42743,0.17034 -2.68463,0.36479 -2.79377,0.43212 -0.10914,0.0673 -0.19843,1.78226 -0.19843,3.81096 v 3.68855 h -1.95607 c -2.35568,0 -2.31898,0.0571 -2.10052,-3.2687 0.0892,-1.35824 0.0796,-2.91013 -0.0215,-3.44864 l -0.18368,-0.9791 -1.77174,0.0779 -1.77174,0.0779 -0.13229,3.70417 -0.1323,3.70416 -1.91089,0.0776 -1.9109,0.0776 z M 112.98011,111.3158 c 3.81961,-1.28804 5.46948,-4.58552 3.79236,-7.57954 -1.24684,-2.22588 -4.07739,-3.13357 -9.78332,-3.13727 -3.3151,-0.002 -3.35197,0.0143 -3.25789,1.45321 0.0285,0.43656 0.0674,2.86487 0.0863,5.39624 l 0.0344,4.6025 3.9026,-0.14451 c 2.62014,-0.097 4.33734,-0.29112 5.22552,-0.59063 z m -1.19062,-16.054702 c 4.5165,-1.947196 4.81622,-7.066801 0.52916,-9.03895 -0.96653,-0.444627 -1.86738,-0.568081 -4.78625,-0.655923 l -3.59563,-0.108207 -0.17867,4.759328 c -0.0983,2.617631 -0.10721,4.945549 -0.0199,5.173152 0.32367,0.843473 6.00654,0.752139 8.05126,-0.1294 z M 85.780922,138.33542 c 0.290526,-0.29053 -5.751621,-0.91065 -17.250809,-1.7705 -6.466332,-0.48352 -5.941117,-0.53716 -6.626612,0.67686 -0.328671,0.58209 -0.549446,1.1367 -0.490612,1.23248 0.109941,0.17898 24.187394,0.0418 24.368033,-0.13884 z m 67.649638,0.0828 c 0.081,-0.0805 -0.0575,-0.5961 -0.30782,-1.14567 l -0.45513,-0.99921 -3.175,0.14164 c -5.38284,0.24013 -17.1837,1.27697 -19.05,1.67376 -0.76049,0.16169 -0.76734,0.17519 -0.16331,0.32234 0.80492,0.1961 22.95432,0.20292 23.15126,0.007 z"
         id="path304" /></g></g></svg>
