<?xml version="1.0" encoding="UTF-8" standalone="no"?>
<svg
   width="148.9655"
   height="160"
   viewBox="0 0 118.89991 127.7073"
   version="1.1"
   id="svg343"
   sodipodi:docname="bsvgolf.svg"
   inkscape:version="1.2.2 (b0a8486541, 2022-12-01)"
   xmlns:inkscape="http://www.inkscape.org/namespaces/inkscape"
   xmlns:sodipodi="http://sodipodi.sourceforge.net/DTD/sodipodi-0.dtd"
   xmlns="http://www.w3.org/2000/svg"
   xmlns:svg="http://www.w3.org/2000/svg">
  <sodipodi:namedview
     id="namedview16508"
     pagecolor="#ffffff"
     bordercolor="#000000"
     borderopacity="0.25"
     inkscape:showpageshadow="2"
     inkscape:pageopacity="0.0"
     inkscape:pagecheckerboard="0"
     inkscape:deskcolor="#d1d1d1"
     showgrid="false"
     inkscape:zoom="3.7078912"
     inkscape:cx="8.76509"
     inkscape:cy="78.34642"
     inkscape:window-width="1920"
     inkscape:window-height="1020"
     inkscape:window-x="0"
     inkscape:window-y="32"
     inkscape:window-maximized="1"
     inkscape:current-layer="text518" />
  <defs
     id="defs340" />
  <g
     id="layer1"
     transform="translate(-43.198381,-61.971141)"
     style="fill:#f9f9f9">
    <g
       aria-label="⛳"
       id="text518"
       style="font-weight:bold;font-size:157.275px;line-height:0px;font-family:'Bitstream Vera Sans';-inkscape-font-specification:'Bitstream Vera Sans Bold';text-align:center;text-anchor:middle;fill:#f9f9f9;stroke:#000000;stroke-width:0;stroke-miterlimit:0">
      <path
         style="display:inline;fill:#483737;stroke:none;stroke-width:3.12963;stroke-miterlimit:0"
         d="m 73.307632,126.14577 c -3.808779,-0.35711 -5.35066,-1.74041 -6.232382,-5.59136 -0.285276,-1.24594 -0.317623,-6.55543 -0.371155,-60.921964 L 66.645452,0.07538101 69.295267,2.2307776 C 70.752665,3.4162456 87.992721,17.430274 107.6065,33.373063 l 35.66142,28.986889 -30.29312,0.04826 -30.293116,0.04826 -0.06535,28.557223 c -0.07032,30.731525 -0.03574,29.641325 -1.022083,32.224015 -0.581785,1.52338 -2.272425,2.5724 -4.550155,2.8233 -1.896764,0.20894 -2.311657,0.21835 -3.736468,0.0848 z"
         id="path16767"
         transform="matrix(0.79817071,0,0,0.79817071,43.198381,61.971141)" />
      <path
         style="display:inline;fill:#008000;stroke:none;stroke-width:3.12963;stroke-miterlimit:0"
         d="M 66.841478,159.77925 C 48.7198,158.83168 33.614396,155.31977 20.958062,149.11167 9.7102528,143.59447 2.6851419,136.70929 0.6301497,129.18869 0.25200482,127.8048 0.19294358,127.15481 0.20676348,124.5292 c 0.014414,-2.73849 0.0689169,-3.22718 0.53171427,-4.76758 1.14705725,-3.81792 3.16425905,-6.93937 6.72578825,-10.40757 5.552779,-5.40728 13.60671,-9.911028 24.150683,-13.505048 6.403814,-2.182804 15.004127,-4.172262 21.114491,-4.884286 0.576877,-0.06722 1.199046,-0.164705 1.382598,-0.21663 0.315854,-0.08935 0.333818,0.731117 0.335361,15.317724 9.54e-4,8.79373 0.08431,16.34627 0.194165,17.58743 0.870146,9.83114 8.710808,15.32443 21.162965,14.8271 3.090184,-0.12342 4.960319,-0.41621 7.050573,-1.10385 6.23006,-2.04952 10.683881,-7.23579 11.438013,-13.31904 0.125444,-1.01191 0.20033,-7.55815 0.20033,-17.51218 V 90.649075 l 0.524433,0.103516 c 0.288439,0.05693 1.511323,0.241415 2.717521,0.409958 15.559141,2.174088 31.855791,8.445905 40.899921,15.740451 4.95877,3.99951 8.17529,8.33277 9.57636,12.90122 0.46577,1.51872 0.5144,1.96514 0.52507,4.82033 0.0139,3.71091 -0.26525,4.96937 -1.8059,8.14212 -5.21551,10.74066 -21.68559,19.99497 -43.379,24.37407 -9.947033,2.00794 -18.531296,2.79525 -29.749705,2.72852 -3.251489,-0.0193 -6.38379,-0.0598 -6.960667,-0.09 z"
         id="path16838"
         transform="matrix(0.79817071,0,0,0.79817071,43.198381,61.971141)" />
    </g>
  </g>
</svg>
