<?xml version="1.0" encoding="UTF-8" standalone="no"?>
<svg
   width="160"
   height="151.873"
   viewBox="0 0 109.44801 103.88875"
   version="1.1"
   id="svg3120"
   sodipodi:docname="bsvmuseum.svg"
   inkscape:version="1.2.2 (b0a8486541, 2022-12-01)"
   xmlns:inkscape="http://www.inkscape.org/namespaces/inkscape"
   xmlns:sodipodi="http://sodipodi.sourceforge.net/DTD/sodipodi-0.dtd"
   xmlns="http://www.w3.org/2000/svg"
   xmlns:svg="http://www.w3.org/2000/svg">
  <sodipodi:namedview
     id="namedview19772"
     pagecolor="#ffffff"
     bordercolor="#000000"
     borderopacity="0.25"
     inkscape:showpageshadow="2"
     inkscape:pageopacity="0.0"
     inkscape:pagecheckerboard="0"
     inkscape:deskcolor="#d1d1d1"
     showgrid="false"
     inkscape:zoom="5.5243525"
     inkscape:cx="65.075499"
     inkscape:cy="47.154847"
     inkscape:window-width="1920"
     inkscape:window-height="1020"
     inkscape:window-x="0"
     inkscape:window-y="32"
     inkscape:window-maximized="1"
     inkscape:current-layer="svg3120" />
  <defs
     id="defs3117" />
  <g
     id="layer1"
     transform="translate(-31.822883,-86.461091)"
     style="fill:#dbd2c4;fill-opacity:1">
    <g
       aria-label="🏛️"
       id="text4828"
       style="font-weight:bold;font-size:115.818px;line-height:0px;font-family:'Bitstream Vera Sans';-inkscape-font-specification:'Bitstream Vera Sans Bold';text-align:center;text-anchor:middle;fill:#dbd2c4;stroke:#000000;stroke-width:0;stroke-miterlimit:0;fill-opacity:1">
      <path
         d="m 31.822884,190.34984 v -9.6129 q 0,-1.73727 1.73727,-1.73727 h 0.463272 v -4.40108 q 0,-1.96891 1.968906,-1.96891 h 1.389816 v -3.01126 q 0,-0.92655 0.57909,-1.50564 0.694908,-0.57909 1.505634,-0.57909 h 6.94908 l 1.273998,-35.09285 h -1.621452 v -2.66382 h -6.601626 v -6.36999 h 1.505634 v -9.0338 H 36.10815 v -4.16945 L 85.446618,86.57691 q 0.347454,-0.115818 0.810726,-0.115818 0.57909,0 0.810726,0.115818 l 49.45429,23.62687 v 4.16945 h -4.63272 v 9.0338 h 1.38981 v 6.36999 h -6.36999 v 2.66382 h -1.38981 l 1.38981,35.09285 h 6.60163 q 0.92654,0 1.50563,0.57909 0.57909,0.57909 0.57909,1.50564 v 3.01126 h 1.50564 q 1.9689,0 1.9689,1.96891 v 4.40108 h 0.57909 q 1.62145,0 1.62145,1.73727 v 9.6129 z M 63.90447,106.38179 h 44.35829 q 0.81073,0 0.81073,-0.69491 0,-0.46327 -0.46327,-0.57909 L 86.952252,94.568352 q -0.57909,-0.231636 -0.810726,-0.231636 -0.231636,0 -0.694908,0.231636 L 63.557016,105.10779 q -0.347454,0.11582 -0.347454,0.57909 0,0.69491 0.694908,0.69491 z m -7.759806,61.1519 h 13.782342 l 1.273998,-35.09285 h -1.73727 v -2.66382 H 56.492118 v 2.66382 h -1.73727 z m 23.395236,0 h 13.782342 l 1.389816,-35.09285 h -1.73727 v -2.66382 H 80.003172 v 2.66382 h -1.73727 z m 23.51105,0 h 14.24562 q 0.23163,-8.80217 0.46327,-17.48852 0.34745,-8.80216 0.57909,-17.60433 h -1.85309 v -2.66382 h -13.08743 v 2.66382 h -1.62145 z"
         id="path4830"
         style="fill:#dbd2c4;fill-opacity:1" />
    </g>
  </g>
</svg>
