<?xml version="1.0" encoding="UTF-8" standalone="no"?>
<!-- Uploaded to: SVG Repo, www.svgrepo.com, Generator: SVG Repo Mixer Tools -->

<svg
   version="1.1"
   id="_x32_"
   width="573.80615"
   height="799.98413"
   viewBox="0 0 367.23594 511.98984"
   xml:space="preserve"
   sodipodi:docname="coinflip.svg"
   inkscape:version="1.2.2 (b0a8486541, 2022-12-01)"
   xmlns:inkscape="http://www.inkscape.org/namespaces/inkscape"
   xmlns:sodipodi="http://sodipodi.sourceforge.net/DTD/sodipodi-0.dtd"
   xmlns="http://www.w3.org/2000/svg"
   xmlns:svg="http://www.w3.org/2000/svg"><defs
   id="defs21" /><sodipodi:namedview
   id="namedview19"
   pagecolor="#ffffff"
   bordercolor="#000000"
   borderopacity="0.25"
   inkscape:showpageshadow="2"
   inkscape:pageopacity="0.0"
   inkscape:pagecheckerboard="0"
   inkscape:deskcolor="#d1d1d1"
   showgrid="false"
   inkscape:zoom="0.5425"
   inkscape:cx="344.70046"
   inkscape:cy="383.41014"
   inkscape:window-width="1880"
   inkscape:window-height="1056"
   inkscape:window-x="40"
   inkscape:window-y="0"
   inkscape:window-maximized="1"
   inkscape:current-layer="g16" />
<style
   type="text/css"
   id="style2">
<![CDATA[
	.st0{fill:#000000;}
]]>
</style>
<g
   id="g16"
   transform="translate(-72.382,-0.005)">
	<path
   class="st0"
   d="m 405.82,328.693 c -6.672,0 -29.906,0 -63.75,0 -27.203,0 -32.422,-4.578 -32.422,-11.906 0,-8.359 13.609,-23.016 16.734,-28.25 3.156,-5.234 23.016,-23.016 27.203,-49.188 4.188,-26.141 -27.203,-44.984 -37.656,-27.188 -6.203,10.563 -21.969,41.844 -40.797,55.454 -34.938,25.234 -63.828,80.172 -100.234,80.172 v 118.422 c 29.984,0 97.953,33.328 122.016,38.156 27.266,5.453 62.875,17.5 81.781,-8.172 11.656,-15.828 29.922,-58.453 43.625,-102.047 34.782,-33.406 10.766,-65.453 -16.5,-65.453 z"
   id="path4"
   style="fill:#ececec" />
	<rect
   x="348.35101"
   y="106.396"
   class="st0"
   width="7.4840002"
   height="61.280998"
   id="rect6"
   style="fill:#ececec" />
	<polygon
   class="st0"
   points="379.398,126.286 371.898,126.302 372.164,187.583 379.664,187.552 "
   id="polygon8"
   style="fill:#ececec" />
	<path
   class="st0"
   d="m 72.382,378.662 v 100.469 c 0,14.734 11.953,26.688 26.703,26.688 h 31.859 c 9.813,0 17.797,-7.953 17.797,-17.781 V 351.975 H 99.085 c -14.75,0 -26.703,11.953 -26.703,26.687 z"
   id="path10"
   style="fill:#ececec" />
	
	<path
   class="st0"
   d="m 344.304,87.692 c 13.781,12.031 30.563,19.203 44.875,19.203 9.609,0 17.453,-3.141 22.609,-9.094 L 423.21,84.707 c 6.532,-7.469 8.063,-18.453 4.313,-30.922 C 423.851,41.535 415.491,29.238 403.991,19.207 390.195,7.192 373.414,0.005 359.101,0.005 c -9.625,0 -17.453,3.156 -22.625,9.094 l -11.391,13.094 c -6.516,7.484 -8.063,18.469 -4.328,30.922 3.688,12.265 12.032,24.546 23.547,34.577 z m -0.187,-71.937 c 3.25,-3.703 8.406,-5.672 14.938,-5.672 11.75,0 26.406,6.422 38.266,16.75 9.469,8.25 16.578,18.266 20.016,28.203 3.375,9.688 2.75,17.875 -1.75,23.031 -3.234,3.703 -8.406,5.672 -14.938,5.672 -11.75,0 -26.422,-6.422 -38.297,-16.766 -9.453,-8.234 -16.563,-18.234 -20,-28.188 -3.345,-9.686 -2.735,-17.874 1.765,-23.03 z"
   id="path14"
   style="fill:#d4aa00" />
<path
   style="fill:#ffcc00;stroke-width:0.921659"
   d="M 614.28571,129.15891 C 593.71422,124.35642 574.47308,112.90242 558.22193,95.784869 542.87577,79.62056 533.45059,61.407658 532.50116,46.082949 c -0.83657,-13.503256 3.13722,-21.421071 13.24923,-26.399198 5.88703,-2.898174 6.86884,-3.091755 15.52055,-3.060157 11.69758,0.04272 20.3828,2.380416 34.12077,9.183854 27.79528,13.765028 51.20452,40.416298 57.65587,65.640826 4.43781,17.351676 0.52667,29.391996 -11.46533,35.295636 -5.14906,2.53487 -7.25188,3.02392 -14.13807,3.28809 -4.52861,0.17372 -10.32064,-0.21059 -13.15847,-0.87309 z"
   id="path983"
   transform="scale(0.64)" /></g>
</svg>
