<?xml version="1.0" encoding="UTF-8" standalone="no"?>
<svg
   version="1.0"
   width="223.603834pt"
   height="223.824797pt"
   viewBox="0 0 223.603834 223.824797"
   preserveAspectRatio="xMidYMid meet"
   id="svg12"
   sodipodi:docname="coolcert.svg"
   inkscape:version="1.2.2 (b0a8486541, 2022-12-01)"
   xmlns:inkscape="http://www.inkscape.org/namespaces/inkscape"
   xmlns:sodipodi="http://sodipodi.sourceforge.net/DTD/sodipodi-0.dtd"
   xmlns="http://www.w3.org/2000/svg"
   xmlns:svg="http://www.w3.org/2000/svg">
  <defs
     id="defs16" />
  <sodipodi:namedview
     id="namedview14"
     pagecolor="#ffffff"
     bordercolor="#000000"
     borderopacity="0.25"
     inkscape:showpageshadow="2"
     inkscape:pageopacity="0.0"
     inkscape:pagecheckerboard="0"
     inkscape:deskcolor="#d1d1d1"
     inkscape:document-units="pt"
     showgrid="false"
     inkscape:zoom="2.0566377"
     inkscape:cx="262.07825"
     inkscape:cy="169.20822"
     inkscape:window-width="1880"
     inkscape:window-height="1056"
     inkscape:window-x="40"
     inkscape:window-y="0"
     inkscape:window-maximized="1"
     inkscape:current-layer="svg12" />
  <metadata
     id="metadata2"> Created by potrace 1.16, written by Peter Selinger 2001-2019 </metadata>
  <g
     transform="translate(-0.727447,224.481341) scale(0.100000,-0.100000)"
     fill="#000000"
     stroke="none"
     id="g10">
    <path
       d="M1006 2239 c-485 -54 -878 -411 -978 -889 -26 -122 -28 -310 -4 -433 75 -390 348 -710 724 -847 232 -85 522 -85 754 0 318 116 562 360 678 678 83 228 85 518 3 745 -116 325 -365 574 -690 690 -139 50 -339 73 -487 56z m369 -159 c168 -45 321 -134 446 -259 178 -178 274 -393 286 -642 15 -293 -82 -545 -286 -750 -205 -204 -457 -301 -750 -286 -249 12 -464 108 -642 286 -126 127 -214 278 -261 451 -19 72 -23 109 -23 245 0 136 4 173 23 245 102 373 401 653 777 726 104 20 327 12 430 -16z"
       id="path4" />
    <path
       d="M352 1580 c-48 -5 -80 -14 -94 -27 l-20 -18 5 -90 c13 -216 115 -398 262 -471 l60 -29 110 1 c90 0 121 4 167 23 85 33 172 102 230 181 28 39 52 70 53 70 1 0 25 -31 53 -70 58 -79 145 -148 230 -181 46 -19 77 -23 167 -23 l110 -1 60 29 c147 73 249 255 262 471 l5 90 -20 18 c-25 23 -148 37 -329 37 -172 0 -345 -23 -456 -61 l-88 -30 -63 25 c-102 41 -221 58 -436 61 -107 2 -228 0 -268 -5z m465 -140 c43 -6 111 -20 151 -32 l72 -21 -6 -21 c-27 -91 -128 -212 -210 -252 -63 -31 -166 -42 -230 -25 -57 15 -120 73 -155 143 -31 61 -64 191 -54 209 8 12 334 12 432 -1z m1048 1 c10 -18 -23 -147 -54 -208 -32 -64 -84 -117 -137 -139 -51 -21 -154 -18 -221 8 -91 33 -207 163 -237 264 l-6 20 52 17 c47 14 117 28 198 41 56 8 399 5 405 -3z"
       id="path6" />
    <path
       d="M1652 651 c-115 -129 -287 -216 -449 -228 -112 -9 -153 -54 -104 -114 l19 -24 74 2 c203 7 402 103 552 264 72 78 85 119 48 152 -39 35 -73 22 -140 -52z"
       id="path8" />
  </g>
  <path
     style="fill:#ffcc00;stroke-width:0.486231"
     d="M 138.19745,279.77205 C 110.17048,277.61794 85.498604,267.31583 63.86436,248.73317 43.153885,230.94397 28.164955,206.82311 21.396214,180.39152 c -2.17304,-8.48561 -2.676339,-14.33765 -2.676339,-31.11875 0,-16.77188 0.502718,-22.62453 2.673652,-31.12673 C 30.0432,84.270633 52.365223,54.433994 82.519114,36.442778 97.870559,27.28339 116.60822,20.79849 132.45607,19.160144 c 7.0565,-0.729499 28.6129,-0.28648 36.97896,0.759977 38.43054,4.807036 76.71289,32.253692 95.98526,68.816948 14.90054,28.269111 18.55169,64.418091 9.75516,96.583061 -9.3951,34.35363 -35.86825,65.8368 -69.01371,82.07449 -20.50901,10.04719 -43.59068,14.25074 -67.96429,12.37743 z m 25.48916,-18.93875 c 19.03497,-1.94911 36.49986,-8.91043 52.8106,-21.04973 6.36722,-4.73882 18.60176,-16.89452 21.3606,-21.22295 3.87624,-6.08158 3.97429,-9.52229 0.36993,-12.98126 -3.38193,-3.24551 -7.07509,-3.4327 -11.26593,-0.57103 -1.27782,0.87255 -4.83955,4.19432 -7.91496,7.38172 -8.93962,9.26515 -17.01738,15.46511 -26.59164,20.41003 -10.76999,5.56247 -20.02361,8.34427 -32.67521,9.82272 -8.48531,0.99158 -12.15029,2.17467 -14.9008,4.81012 -1.87987,1.80123 -2.17054,2.34714 -2.17054,4.07637 0,2.65425 0.64906,4.22518 3.01023,7.2857 l 1.97033,2.55391 h 5.481 c 3.01455,0 7.74693,-0.23202 10.51639,-0.5156 z m -61.5782,-87.99631 c 14.13353,-2.01367 29.76753,-12.83251 41.78103,-28.91276 2.59732,-3.47655 4.91042,-6.32099 5.14021,-6.32099 0.2298,0 2.5429,2.84444 5.14022,6.32099 8.2276,11.01277 17.32777,18.9893 27.43723,24.04944 9.46008,4.73509 12.90688,5.34453 30.30259,5.35788 l 12.55519,0.01 6.16469,-3.13947 c 12.63129,-6.43271 21.19787,-15.55066 27.78866,-29.57725 5.32327,-11.32906 7.7617,-22.09261 8.72562,-38.51605 l 0.42807,-7.293454 -1.28815,-1.381663 c -2.62254,-2.812946 -6.79963,-4.067148 -17.57686,-5.2776 -7.64007,-0.858099 -43.77926,-0.859728 -52.02667,-0.0024 -16.48015,1.713243 -26.29484,3.701853 -39.3982,7.982694 l -9.0088,2.943246 -7.03681,-2.704628 C 130.28988,92.167211 122.47812,90.425383 107.70006,88.896776 97.319524,87.823043 49.430107,87.62241 43.517631,88.627886 c -6.267767,1.065895 -8.666017,1.954686 -10.946499,4.056757 l -2.119565,1.953748 0.213245,3.248778 c 1.438353,21.913231 3.254496,30.560141 8.976271,42.737291 6.560723,13.9626 15.122398,23.09796 27.701843,29.55802 l 6.077882,3.12125 12.641993,0.009 c 6.953097,0.005 14.173619,-0.20912 16.045609,-0.47583 z"
     id="path524"
     transform="scale(0.75)" />
  <path
     style="fill:#666666;stroke-width:0.486231"
     d="m 79.626401,154.16227 c -4.988263,-1.13976 -8.629186,-3.39826 -13.742166,-8.52437 -5.171413,-5.18469 -7.781833,-9.30671 -10.547231,-16.65476 -2.044761,-5.43321 -4.407658,-14.57661 -4.83028,-18.69111 l -0.308113,-2.99968 2.372719,-0.40394 c 3.603267,-0.61342 45.765447,-0.40586 51.69425,0.25449 6.78172,0.75534 17.72873,3.00564 25.93655,5.33159 3.68477,1.04419 6.81079,2.00975 6.94671,2.14567 0.4485,0.4485 -2.5603,7.97684 -4.54882,11.38167 -8.52255,14.59262 -20.07331,24.42684 -32.19342,27.40922 -5.457444,1.3429 -16.451275,1.74034 -20.780199,0.75122 z"
     id="path1086"
     transform="scale(0.75)" />
  <path
     style="fill:#666666;stroke-width:0.486231"
     d="m 202.51501,154.54076 c -7.45466,-1.17271 -14.10046,-4.01116 -19.53402,-8.34306 -8.41418,-6.70818 -17.30155,-18.01668 -20.26502,-25.78567 -2.40026,-6.2925 -2.71169,-5.52573 2.96079,-7.2897 5.82117,-1.81021 12.7944,-3.4073 22.98068,-5.2633 7.25784,-1.32242 7.40149,-1.32887 29.41695,-1.32075 12.16791,0.004 23.81921,0.177 25.89177,0.38334 l 3.76829,0.37518 -0.008,1.53876 c -0.0179,3.61624 -2.87923,14.51863 -5.77534,22.00544 -4.4231,11.43427 -14.71926,21.60412 -23.77946,23.48773 -2.40206,0.49939 -12.92451,0.64189 -15.657,0.21203 z"
     id="path1088"
     transform="scale(0.75)" />
</svg>
