<?xml version="1.0" encoding="UTF-8" standalone="no"?>
<svg
   id="Layer_1"
   data-name="Layer 1"
   viewBox="0 0 394.39999 445.43939"
   version="1.1"
   sodipodi:docname="dropblocks.svg"
   width="394.39999"
   height="445.43939"
   inkscape:version="1.2.2 (b0a8486541, 2022-12-01)"
   xmlns:inkscape="http://www.inkscape.org/namespaces/inkscape"
   xmlns:sodipodi="http://sodipodi.sourceforge.net/DTD/sodipodi-0.dtd"
   xmlns="http://www.w3.org/2000/svg"
   xmlns:svg="http://www.w3.org/2000/svg">
  <sodipodi:namedview
     id="namedview27"
     pagecolor="#ffffff"
     bordercolor="#000000"
     borderopacity="0.25"
     inkscape:showpageshadow="2"
     inkscape:pageopacity="0.0"
     inkscape:pagecheckerboard="0"
     inkscape:deskcolor="#d1d1d1"
     showgrid="false"
     inkscape:zoom="1.6621359"
     inkscape:cx="197.93808"
     inkscape:cy="222.30432"
     inkscape:window-width="1920"
     inkscape:window-height="1020"
     inkscape:window-x="0"
     inkscape:window-y="32"
     inkscape:window-maximized="1"
     inkscape:current-layer="Layer_1" />
  <defs
     id="defs4">
    <style
       id="style2">
      .cls-1 {
        fill: #004095;
      }

      .cls-2 {
        fill: #075494;
      }

      .cls-3 {
        fill: #1467a9;
      }

      .cls-4 {
        fill: #328fd6;
      }

      .cls-5 {
        fill: #4fb1f8;
      }

      .cls-6 {
        fill: #3999e0;
      }

      .cls-7 {
        fill: #66c0f7;
      }

      .cls-8 {
        fill: #fefefe;
      }

      .cls-9 {
        fill: #40a1ea;
      }

      .cls-10 {
        fill: #075394;
      }
    </style>
  </defs>
  <path
     class="cls-3"
     d="m 394.37,119.73148 v 210 c -1.05,1.78 -2.08,3.45 -3.65,4.85 -7.06,6.26 -22.88,14.09 -31.67,19.32 -50.3,29.93 -101.62,58.21 -152,88 -6.57,3.25 -8.18,4.8 -15.64,2.3 -63.04,-35.14 -125.21,-71.94 -187.38,-108.61 -5.16,-5 -3.45,-15.99 -3.64,-22.86 -0.52,-64.31 -0.52,-128.65 0,-193 0.87,-7.68 3.43,-8.65 9.09,-12.42 C 66.62,69.211485 133.16,38.051485 191.71,1.541485 c 8.93,-3.21 10.63,-1.02 18.36,3.02 59.86,31.26 117.51,71.71 177.24,103.759995 5.15,2.29 6.21,6.26 7.09,11.41 z"
     id="path8" />
  <path
     class="cls-1"
     d="m 0.37,312.73148 c -1.45,-51.13 -1.05,-102.34 0.04,-153.46 0.26,-12.36 -1.37,-27.74 -0.04,-39.54 z"
     id="path10" />
  <polygon
     class="cls-7"
     points="90,155.01 239.34,69.16 387.99,155.02 239.43,242 "
     id="polygon12"
     transform="translate(-41.63,-35.268515)" />
  <path
     class="cls-6"
     d="m 363.37,149.73148 c 0.93,54.63 0.93,111.33 0,166 l -149,86 -1.01,-0.7 0.1,-165.39 0.9,-1.91 146.77,-84.85 c 1.56,-0.54 1.5,0.07 2.23,0.85 z"
     id="path14" />
  <path
     class="cls-4"
     d="m 181.37,235.73148 c 1.02,55.33 1.02,110.66 0,166 l -149.01,-84.49 c -1.74,-1.94 -1.09,-21.26 -0.99,-25.51 l 0.49,-139.2 c -0.29,-1.87 0.22,-3.13 1.51,-3.8 l 145.98,84.56 c 0.95,0.6 1.53,1.46 2.02,2.44 z"
     id="path16" />
  <polygon
     class="cls-5"
     points="254.2,270.65 256,269 256,437 253.99,436.43 "
     id="polygon18"
     transform="translate(-41.63,-35.268515)" />
  <path
     class="cls-2"
     d="m 363.37,315.73148 v -166 c 1.11,1.18 1.23,1.81 1.06,3.41 v 160.19 c 0,0 -1.06,2.4 -1.06,2.4 z"
     id="path20" />
  <path
     class="cls-10"
     d="m 181.37,401.73148 v -166 c 0.52,1.03 1.52,1.72 1.07,3.39 -1.75,52.7 2.08,106.63 -0.01,159.19 -0.05,1.21 0.3,2.84 -1.06,3.42 z"
     id="path22" />
  <path
     class="cls-9"
     d="m 33.37,148.73148 c -1.13,1.67 -0.98,3.55 -1.04,5.45 -1.37,45.67 0.11,92.04 -0.96,137.55 v -142.43 c 0,0 2,-0.57 2,-0.57 z"
     id="path24" />
</svg>
