<?xml version="1.0" encoding="UTF-8" standalone="no"?>
<svg
   id="Layer_1"
   data-name="Layer 1"
   viewBox="0 0 378.94176 170.20643"
   version="1.1"
   sodipodi:docname="everdraw.svg"
   width="378.94177"
   height="170.20644"
   inkscape:version="1.2.2 (b0a8486541, 2022-12-01)"
   xmlns:inkscape="http://www.inkscape.org/namespaces/inkscape"
   xmlns:sodipodi="http://sodipodi.sourceforge.net/DTD/sodipodi-0.dtd"
   xmlns="http://www.w3.org/2000/svg"
   xmlns:svg="http://www.w3.org/2000/svg">
  <sodipodi:namedview
     id="namedview101"
     pagecolor="#ffffff"
     bordercolor="#000000"
     borderopacity="0.25"
     inkscape:showpageshadow="2"
     inkscape:pageopacity="0.0"
     inkscape:pagecheckerboard="0"
     inkscape:deskcolor="#d1d1d1"
     showgrid="false"
     inkscape:zoom="1.6697877"
     inkscape:cx="189.84449"
     inkscape:cy="84.741312"
     inkscape:window-width="1920"
     inkscape:window-height="1020"
     inkscape:window-x="0"
     inkscape:window-y="32"
     inkscape:window-maximized="1"
     inkscape:current-layer="Layer_1" />
  <defs
     id="defs4">
    <style
       id="style2">
      .cls-1 {
        fill: #d6741f;
      }

      .cls-2 {
        fill: #84c7e7;
      }

      .cls-3 {
        fill: #603396;
      }

      .cls-4 {
        fill: #b1c4da;
      }

      .cls-5 {
        fill: #68218f;
      }

      .cls-6 {
        fill: #5b2d90;
      }

      .cls-7 {
        fill: #b4885c;
      }

      .cls-8 {
        fill: #9d4698;
      }

      .cls-9 {
        fill: #d19d4f;
      }

      .cls-10 {
        fill: #f7c762;
      }

      .cls-11 {
        fill: #dd1498;
      }

      .cls-12 {
        fill: #631e8c;
      }

      .cls-13 {
        fill: #6c8bb5;
      }

      .cls-14 {
        fill: #8c0784;
      }

      .cls-15 {
        fill: #28ace1;
      }

      .cls-16 {
        fill: #920788;
      }

      .cls-17 {
        fill: #40bae8;
      }

      .cls-18 {
        fill: #f19f44;
      }

      .cls-19 {
        fill: #ebb045;
      }

      .cls-20 {
        fill: #4a4faa;
      }

      .cls-21 {
        fill: #7e0d88;
      }

      .cls-22 {
        fill: #6e6695;
      }

      .cls-23 {
        fill: #5a41a0;
      }

      .cls-24 {
        fill: #7b0e87;
      }

      .cls-25 {
        fill: #e68a34;
      }

      .cls-26 {
        fill: #1f9cce;
      }

      .cls-27 {
        fill: #5857ae;
      }

      .cls-28 {
        fill: #5cbfe8;
      }

      .cls-29 {
        fill: #cc24a4;
      }

      .cls-30 {
        fill: #921d80;
      }

      .cls-31 {
        fill: #f5b355;
      }

      .cls-32 {
        fill: #ad0687;
      }

      .cls-33 {
        fill: #661b73;
      }

      .cls-34 {
        fill: #5e429b;
      }

      .cls-35 {
        fill: #9f0884;
      }

      .cls-36 {
        fill: #3a5fbd;
      }

      .cls-37 {
        fill: #c10787;
      }

      .cls-38 {
        fill: #a43ea5;
      }

      .cls-39 {
        fill: #fefefe;
      }

      .cls-40 {
        fill: #632276;
      }

      .cls-41 {
        fill: #997867;
      }

      .cls-42 {
        fill: #f2d37f;
      }

      .cls-43 {
        fill: #3e70c4;
      }

      .cls-44 {
        fill: #b20581;
      }

      .cls-45 {
        fill: #789cb1;
      }
    </style>
  </defs>
  <path
     class="cls-20"
     d="m 294.05822,129.6879 c 0.02,2.98 -2.3,4.4 -6.97,4.27 -22.06,-3.6 -23.31,-1.53 -3.74,6.2 2.41,1.52 2.67,3.07 0.66,5.33 -26.65,-4.32 -51.97,-22.87 -71.8,-40.21 -8.32,-3.62 5.03,-13.060004 11.49,-10.050004 2.28,0.07 25.13,17.770004 30.27,20.710004 12.07,6.88 26.05,12.91 40.09,13.76 z"
     id="path8" />
  <path
     class="cls-37"
     d="m 12.608219,65.067896 2.82,1.94 c 1.67,8.48 4.08,16.93 7.23,25.34 2.4,0.92 3.56,5.83 1.44,7.18 1.54,8.680004 3.04,17.210004 4.51,25.580004 3.72,0.53 11.85,3.52 8.39,8.31 -0.64,0.88 -19.31,7.54 -19,0.3 l -8.25,-11.22 c -8.42,-17.28 -11.68,-33.870004 -8.62,-53.130004 2.96,-3.02 4.49,-1.03 5.33,2.63 0.85,-5.86 2.9,-8.17 6.16,-6.94 z"
     id="path10" />
  <path
     class="cls-21"
     d="m 120.30822,136.8679 c 10.34,-7.68 16.09,-0.76 7.21,7.57 3.38,8.96 1.89,14.76 -4.44,17.39 -6.55,1.5 -12.74,3.72 -18.56,6.64 -20.300001,3.45 -33.120001,1.88 -51.690001,-5.74 4.26,-2.19 8.21,-2.89 11.86,-2.11 9.05,9.19 20.57,0.99 27.79,-6.52 -6.03,-1.69 -11.62,-4.47 -16.75,-8.07 l 0.07,-3.41 c 14.29,-0.52 28.760001,-1.65 42.500001,-6.65 l 2.02,0.9 z"
     id="path12" />
  <path
     class="cls-5"
     d="m 141.84822,122.5079 c 23.59,-12.27 23.49,17.72 7.18,27.28 -13.6,7.99 -28.76,15.99 -44.51,18.67 3.19,-7.7 18.04,-4.41 20.84,-10.03 2.7,-5.43 -1.34,-11.6 -0.52,-14.83 0.61,-2.37 5.5,-4.1 4.08,-8.17 -2.63,1.08 -6.29,0.82 -8.61,1.43 -0.77,-0.84 0.18,-2.27 2.87,-4.31 0.33,-4.96 14.71,-14.25 18.67,-10.05 z"
     id="path14" />
  <path
     class="cls-16"
     d="m 55.688219,136.8679 c 6.72,1.65 13.42,3.57 20.1,5.74 6.23,4.19 13.83,9.18 21.54,8.62 0.53,2.2 0.12,1.88 -0.95,2.99 -7.36,7.58 -16.58,16 -28.2,12.51 -2.07,-0.62 -2.92,-3.35 -6.07,-4 -2.82,-0.58 -6.34,0.26 -9.3,-0.02 -8.93,-3.66 -18.82,-7.23 -24.41,-15.8 l 3.53,-1.49 c 4.71,3.91 9.82,6.36 15.33,7.34 1,-3.4 3.52,-5.86 7.55,-7.39 -7.52,-3.47 -9.62,-7.26 -6.31,-11.38 1.63,-1.93 6.08,0.82 7.18,2.87 z"
     id="path16" />
  <path
     class="cls-32"
     d="m 48.508219,133.9979 c 0.9,7.2 5.87,6.48 10.04,10.79 0.72,3.53 -7.13,4.57 -8.58,7.16 2.38,3.17 6.22,4.52 10.02,5.04 -8.24,9.66 -7.88,1.4 -11.51,-0.69 -2.66,-1.53 -7.08,-1.08 -9.97,-2.97 -5.29,-3.46 -2.62,-2.9 -10.11,-6.41 -8.41,-3.93 -14.69,-16.25 -18.67,-24.41 4.96,1.67 9.94,13.6 14.82,12.64 2.86,-0.56 5.4,-5.48 11.02,-2.6 -1.02,-4.39 -6.11,-3.51 -8.55,-5.08 -5.34,-3.41 -2.03,-21.72 -2.93,-27.940004 l 1.72,0.45 c 4.29,12.520004 11.78,24.340004 22.66,32.090004 l 0.04,1.92 z"
     id="path18" />
  <path
     class="cls-3"
     d="m 169.12822,103.8479 c 4.11,-6.610004 15.48,16.5 15.29,17.82 -2.12,2.57 -4.35,5.24 -6.68,8.02 -2.43,4.12 -23.33,16.94 -28.72,20.1 l 8.27,-13.99 c 1.76,-13 -3.43,-16.68 -15.45,-13.29 -0.38,-1.09 -0.93,-2.7 -0.25,-3.31 2.48,-2.22 21.9,-15.72 24.2,-16.56 l 3.33,1.2 z"
     id="path20" />
  <path
     class="cls-34"
     d="m 189.22822,86.607896 c 4.4,-5.74 15.76,12.18 18.36,16.780004 l -1.13,3.32 c -9.54,6.47 -18.31,17.15 -28.72,22.98 0.28,-0.48 -0.64,-2.6 0.33,-3.95 0.66,-0.93 3.63,-1.19 3.79,-2.44 0.16,-1.25 -4.65,-9.29 -5.83,-11.28 -1.28,-2.17 -4.14,-8.47 -6.91,-8.18 -0.61,-0.93 -1.44,-2.33 -0.91,-3 1.14,-1.450004 16.07,-14.300004 17.6,-15.090004 l 3.41,0.86 z"
     id="path22" />
  <path
     class="cls-25"
     d="m 266.76822,19.117896 c 3.15,0.14 6.45,-0.57 9.9,-2.13 0.59,-1.17 9.82,3.52 9.98,4.08 1.5,5.41 -6.29,8.95 -11.27,6.67 l -0.3,1.95 c 6.63,-0.04 10.73,0.69 9.64,8.59 3.06,4 6.7,9.6 5.25,14.49 5.92,-0.19 15.15,4.61 8.87,10.39 1.89,3.88 1.04,6.03 -2.97,7.6 l -20.49,1.5 c -0.48,-0.01 -0.96,0.02 -1.44,0 -3.7,-1.08 -3.66,-1.8 0,-2.87 0.52,-3.84 1.37,-7.95 2.53,-12.34 -4.23,-4.69 -7.79,-10.01 -10.68,-15.98 2.5,-3.18 0.95,-5.51 -4.64,-6.99 -0.56,-3.45 -1.56,-6.04 -3.01,-7.77 3.46,-3.01 3.63,-4.29 8.62,-7.18 z"
     id="path24" />
  <path
     class="cls-31"
     d="m 282.56822,13.377896 13.93,1.69 c 2.24,1.17 2.64,3.53 1.2,7.06 3.62,1.24 7.5,5.8 4.86,8.77 2.81,2.03 4.18,4.32 4.12,6.89 4.43,2.93 9.96,6.85 11.03,12.91 5.6,3.04 6.34,5.44 2.19,7.19 -0.02,2.16 -1.94,4.56 -5.74,7.18 -3.98,1.82 -8.51,3.94 -12.92,4.31 -0.35,-2.83 1.98,-5.84 6.99,-9.05 l -5.45,-0.99 c -2.21,-5.34 -5.53,-8.28 -9.96,-8.83 -0.24,-4.32 -0.54,-9.2 -4.95,-11.33 -0.37,-6.29 -6.61,-9.34 -12.58,-9.25 l 0.1,-2.2 c 1.91,-0.08 3.85,0.07 5.75,-0.01 l -1.45,-2.84 7.18,-2.88 c -5.75,2.46 -7.52,-2.88 -8,-2.9 -1.13,-0.06 -6.19,1.3 -8.34,1.64 -2.76,0.44 -4.24,3.09 -3.76,-1.63 5.39,-3.12 9.28,-5.05 15.8,-5.74 z"
     id="path26" />
  <path
     class="cls-42"
     d="m 292.61822,13.377896 c 5.23,-2 15.53,-2.25 20.91,-1.55 3.16,0.41 1.76,2.66 3.5,4.42 0.37,2.14 0.85,4.53 1.44,7.18 l 3.1,0.52 c 4.63,9.39 13.71,16.05 22.75,19.59 -3.25,7.45 -22.03,17.82 -30.16,21.54 -0.18,-2.3 3.87,-5.93 5.74,-7.18 -2.19,-5.25 -2.38,-9.12 -0.55,-11.6 -4.55,-1.29 -8.09,-5.09 -10.62,-11.4 -4.44,-0.72 -8.8,-2.43 -5.13,-6.88 -1.8,-2.98 -2.08,-6.39 -0.84,-10.22 -4.34,-0.57 -7.72,-2.05 -10.14,-4.42 z"
     id="path28" />
  <path
     class="cls-1"
     d="m 258.15822,26.297896 5.02,-2.84 c 8.23,5.37 -3.71,4.73 -0.02,8.61 2.36,2.48 6.47,1.18 9.35,1.43 -0.48,5.32 -9.44,8.98 0.01,8.61 l -1.44,4.29 5.74,0.02 c -5.76,5.18 -0.12,9.24 5.74,8.62 -1.16,3.27 -7.92,2.99 -1.43,5 -3.17,2.89 -5.48,4 -2.1,7.87 l -5.07,1.47 c -4.41,4.43 -11.63,-4.9 -14.88,-9.16 -7.42,-9.72 -12.21,-22.76 -2.35,-32.48 0.49,-0.46 0.92,-0.99 1.44,-1.44 z"
     id="path30" />
  <path
     class="cls-43"
     d="m 348.61822,106.7179 c 4.36,-7.370004 8.56,-5.12 5.74,2.87 -8.01,17.65 -25.08,32.2 -44.51,35.9 -6.85,-0.79 -12.33,-12.82 -2.87,-14.36 9.02,-0.85 22.3,-5.78 29.44,-11.49 4.43,-3.54 8.2,-10.73 12.21,-12.92 z"
     id="path32" />
  <path
     class="cls-27"
     d="m 202.15822,73.687896 c 1.11,-0.54 2.24,-0.63 2.69,0.26 4.3,8.5 10.98,14.72 18.85,19.84 v 1.44 c -1.46,-0.05 -9.56,4.48 -10.52,5.680004 -1.63,2.02 -0.81,4.21 -0.96,4.37 -0.2,0.22 -3.85,0.15 -5.74,1.44 l -13.39,-18.260004 c -0.99,-1.15 -3.24,-1.25 -3.84,-1.84 -3.82,0.6 -4.3,-0.31 -1.44,-2.87 -0.42,-3.54 0.99,-7.74 4.24,-12.61 l -12.38,-10.56 c -4.14,-3.44 -7.66,-7.75 -4.78,-12.73 6.07,5.49 23.95,20.17 27.28,25.85 z"
     id="path34" />
  <path
     class="cls-18"
     d="m 275.38822,27.737896 c 1.1,1.8 20.02,2.94 17.23,5.73 l -4.27,2.86 c 3.52,1.07 3.81,4.32 8.58,2.91 0.86,1.81 -6.12,1.65 -2.87,4.29 0.46,0.38 3.2,-0.25 4.31,0 1.25,4.16 -3.46,2.49 -4.31,5.73 l 8.62,-1.41 -2.87,4.28 4.33,0.03 -1.47,4.29 8.63,1.46 c 2.84,3.33 -7.51,10.16 -10.05,11.47 -8.18,4.22 -16.71,3.12 -25.85,2.87 3.09,-3.28 18.08,-0.47 20.1,-2.07 3.52,-2.79 -0.09,-6.16 -0.08,-8.62 0,-1.32 3.94,0.29 2.97,-2.94 -5.54,-3.06 -5.81,-3.8 -12.93,-2.18 l 2.87,-8.59 -5.74,-0.03 c 5.26,-4.84 1.31,-8.14 -4.31,-8.62 8.78,-6.17 0.41,-3.94 2.88,-8.59 l -8.62,1.42 c -2.07,-2.47 0.2,-4.19 2.86,-4.3 z"
     id="path36" />
  <path
     class="cls-11"
     d="m 51.378219,14.817896 c -0.25,4.78 -8.42,10.32 -12.92,8.62 -11.01,12.01 -18.62,25.21 -22.83,39.6 l -3.02,2.04 c -2.78,2.26 -4.13,12.78 -5.77,14.35 -4.28,4.12 -1.25,-10.28 -5.72,-10.05 0.8,-5.01 2.59,-9.62 4.31,-14.36 8.12,-15.82 19.15,-32.58 34.89,-41.64 5.38,-3.1 16.37,-8.3900001 11.06,1.44 z"
     id="path38" />
  <path
     class="cls-19"
     d="m 273.94822,69.377896 c 0.25,0.21 -0.16,2.08 0,2.87 -1.42,-0.07 -2.89,0.13 -4.31,0 l -13.86,0.31 c -4.37,0.79 -17.33,-23.32 -17.3,-24.86 0.04,-2.46 4.34,-7.29 6.74,-8.48 3.28,-4.7 7.4,-7.68 11.49,-11.49 -7.66,16.02 1.88,29.75 13.63,40.29 1.36,1.22 3.32,1.11 3.6,1.35 z"
     id="path40" />
  <path
     class="cls-36"
     d="m 294.05822,129.6879 c 3.19,0 7.72,1.93 12.92,1.44 -5.66,8.51 0.8,7.19 2.87,14.36 -7.22,1.37 -18.55,1.18 -25.85,0 -2.12,-6.47 -18.9,-7.68 -18.63,-13.65 0.2,-4.46 15.92,-0.73 19.28,-0.64 3.86,0.11 8.56,-1.51 9.4,-1.51 z"
     id="path42" />
  <path
     class="cls-23"
     d="m 174.86822,47.837896 c -0.36,8.47 18.21,17.99 19.86,22.54 1.04,2.85 -4.37,10.39 -6.94,13.36 -5.87,0.57 -18.54,-9.81 -18.67,-15.8 -3.17,-5.42 -5.54,-9.67 1.02,-16.1 -0.62,-1.85 -0.48,-3.67 0.41,-5.44 -1.9,-2.02 -1.1,-2.76 1.44,-1.44 1.01,0.88 1.87,1.97 2.87,2.87 z"
     id="path44" />
  <path
     class="cls-7"
     d="m 235.17822,47.837896 c 1.92,1.55 2.08,4.21 0.46,7.96 4.85,4.65 7.46,10.98 9.59,17.2 5.02,-1.09 8.37,-0.38 10.05,2.12 -4.65,3.35 -12.47,4.42 -17.23,7.18 -7.15,6.28 -21.75,-10.8 -19.43,-17.75 l 6.5,-8.1 c 3.51,-5.55 6.5,-5.49 10.05,-8.62 z"
     id="path46" />
  <path
     class="cls-41"
     d="m 238.04822,82.307896 c -3.75,2.18 -7.95,7.65 -12.92,10.05 -6.69,0.34 -21.01,-13.23 -18.67,-20.1 6.5,-3.99 11.16,-12.49 18.67,-15.8 -1.31,2.07 -4.68,9.82 -4.11,11.89 0.47,1.73 12.73,16.99 17.04,13.96 z"
     id="path48" />
  <path
     class="cls-10"
     d="m 292.61822,13.377896 c 2.03,0.13 12.47,0.98 12.93,1.43 0.92,0.9 -0.9,7.43 -0.74,9.36 0.12,1.48 2.48,2.94 2.26,5.69 -0.12,1.51 -3.54,-0.33 -2.95,2.17 10.04,-2.65 6.01,6.75 12.92,5.77 l -2.88,4.28 c 2.19,-0.24 8.22,1.68 8.63,3.65 0.44,2.11 -3.73,3.7 -2.88,6.42 l 11.48,-1.42 c -1.97,4.42 -8.26,5.01 -11.49,7.17 0.3,-6.91 -2.13,-3 -3.91,-4.62 -2.45,-2.23 -0.99,-10.88 -9.02,-8.32 l 1.43,-4.28 -7.18,-0.03 c 5.06,-5.57 2.47,-7.47 -4.31,-7.18 l 4.3,-3.57 c -2.89,-7.34 -6.89,-4.61 -7.16,-5.03 -0.68,-1.05 2.65,-6.58 1.32,-8.5 l -12.82,-2.99 c 2.9,-0.31 7.07,-0.19 10.05,0 z"
     id="path50" />
  <path
     class="cls-29"
     d="m 95.888219,1.8878959 8.490001,3.31 c -0.26,1.47 -1.21,2.25 -2.75,2.43 -2.960001,3.5300001 -8.380001,2.7300001 -10.050001,-1.44 -2.11,3.53 -15.99,4.9700001 -18.67,1.44 l -18.48,8.8100001 -3.06,-1.63 c -1.48,-1.62 -0.04,-4.26 -2.95,-3.72 -4.22,0.78 -9.49,4.6 -12.86,7.29 -3.58,2.86 -12.88,11.46 -15.79,14.78 -6.06,6.91 -8.1,15.67 -14.35,21.86 8.87,-24.38 30.94,-47.3300001 57.44,-51.6900001 10.73,-2.55999999 22.13,-3.41999999 33.03,-1.44 z"
     id="path52" />
  <path
     class="cls-9"
     d="m 245.22822,39.227896 c -7.02,10.03 -3.62,6.52 -0.2,13.85 6.93,14.88 6.31,17.54 24.61,19.18 -4.15,1.85 -9.79,2.3 -14.36,2.87 -16.69,2.07 -9.94,1.12 -17.46,-11.98 -4.09,-7.13 -7.6,-3.99 -2.65,-15.3 2.91,-2.57 5.16,-8.39 10.05,-8.62 z"
     id="path54" />
  <path
     class="cls-26"
     d="m 331.38822,13.377896 c 2.13,0.4 4.05,0.88 5.74,1.44 -1.4,3.46 -0.51,7.63 2.69,12.49 -1.61,6.81 -0.34,10.19 3.79,10.14 l 0.7,3.21 c 2.4,-0.77 2.9,-0.71 1.44,1.44 -0.33,0.55 -1.25,1 -1.44,1.44 -8.81,2.45 -24.51,-12.44 -25.85,-20.1 -0.94,-1.06 -1.13,-10.56 -0.63,-10.78 4.63,-0.34 9.15,-0.1 13.56,0.72 z"
     id="path56" />
  <path
     class="cls-38"
     d="m 171.99822,44.967896 -1.44,1.44 c -3.96,1.33 -17.27,-6.99 -15.8,-11.49 l -3.68,0.76 c -5.78,-5.45 -12.24,-9.79 -19.37,-13.03 l -1.37,-3.53 c -8.57,-4.04 -17.6,-6.78 -27.07,-8.22 l -1.65,-3.2700001 c 1.05,-3.87 -2.340001,-2.41 -4.160001,-3.68 -1.01,-0.7 -1.45,-2 -1.59,-2.07 29.210001,1.82 55.150001,24.6600001 76.110001,43.0800001 z"
     id="path58" />
  <path
     class="cls-28"
     d="m 352.92822,13.377896 c 15.1,-2.62 15.89,4.51 8.62,15.8 -3.56,3.75 -9.42,12.33 -14.36,12.92 l -0.45,-1.48 c 7.87,-14.1 6.87,-17.77 -5.3,-27.24 3.19,-1.12 8.42,-1.37 11.49,0 z"
     id="path60" />
  <path
     class="cls-17"
     d="m 341.43822,13.377896 c 19.29,6.88 15.2,14.79 5.74,28.72 -0.42,0.05 -1.02,0.06 -1.44,0 -0.44,-0.07 -1.01,-1.31 -1.44,-1.44 2.04,-10.6 -0.03,-18.11 -6.22,-22.55 l -0.96,-3.3 c -1.57,-0.41 -4.74,0.97 -5.74,-1.44 3.13,-1.17 6.85,-1.19 10.05,0 z"
     id="path62" />
  <path
     class="cls-2"
     d="m 370.15822,9.0678959 c 3.85,0 4.33,2.8700001 1.44,8.6200001 -3.81,5.26 -5.87,7.08 -10.05,11.49 -2.95,-4.28 3.41,-5.59 2.16,-9.95 -0.12,-0.42 -2.25,-3.98 -2.46,-4.09 -0.37,-0.2 -7.29,-1.63 -8.31,-1.75 l 4.31,-1.44 c 5.18,-2.3400001 8.3,-1.74 12.92,-2.8700001 z"
     id="path64" />
  <path
     class="cls-13"
     d="m 354.36822,109.5879 c 0.85,-5.55 -1.2,-5.36 -5.74,-2.87 l 11.47,-31.580004 c 1.09,13.21 -0.31,22.53 -5.73,34.460004 z"
     id="path66" />
  <path
     class="cls-22"
     d="m 206.45822,72.247896 c 5.03,7.41 10.37,16.04 18.67,20.1 -0.42,0.2 -0.89,1.33 -1.44,1.44 -7.22,1.37 -6.74,-3.45 -10.2,-6.32 -2.25,-1.87 -6.9,-4.22 -8.38,-5.97 -2.47,-2.92 -1.81,-5.85 -2.96,-7.81 1.54,-0.19 2.98,-0.62 4.31,-1.44 z"
     id="path68" />
  <path
     class="cls-45"
     d="m 357.23822,11.937896 c -1.21,0.55 -2.15,2.14 -4.31,1.44 -3.51,-0.43 -7.79,0.13 -11.49,0 -3.32,-0.12 -6.73,-0.07 -10.05,0 -4.3,0.09 -8.63,-0.07 -12.93,0 0.36,3.15 -0.51,7.09 0,10.06 -2.22,-1.17 -1.49,-4.9 -1.44,-7.18 0.03,-1.44 -0.06,-2.88 0,-4.31 h 40.22 z"
     id="path70" />
  <path
     class="cls-8"
     d="m 95.888219,1.8878959 c -9.63,-0.6 -23.53,-0.13 -33.03,1.44 7.66,-3.34999999 26.31,-4.75 33.03,-1.44 z"
     id="path72" />
  <path
     class="cls-4"
     d="m 370.15822,9.0678959 c 2,-0.49 5.19,-4.02 8.61,-2.86 1.39,1.27 -5.99,9.8500001 -7.17,11.4800001 z"
     id="path74" />
  <path
     class="cls-44"
     d="m 24.098219,67.947896 c 0.49,7.37 0.27,17.27 -1.44,24.41 -2.56,-7.65 -7.8,-11.13 -9.38,-17.19 -0.91,-3.51 -0.78,-6.56 -0.68,-10.1 0.46,-15.65 14.08,-32.39 25.85,-41.64 l 1.71,3.41 c -7.64,13.1 -12.99,26.8 -16.07,41.11 z"
     id="path76" />
  <path
     class="cls-30"
     d="m 57.118219,30.607896 -1.23,4.1 c -36.91,23.05 -37.65,74.990004 0.35,97.030004 l 0.88,3.7 c 1.91,1.94 1.17,1.85 -1.44,1.44 -2.05,-0.86 -5.72,-2.07 -7.18,-2.87 -11.08,-6.08 -20.25,-22.93 -24.41,-34.460004 -0.51,-1.41 -0.5,-4.38 -1.44,-7.18 -0.04,-8.21 -0.49,-16.39 1.44,-24.41 -2.48,-8.62 17.48,-38.89 23.74,-37 0.74,0.22 1.43,0.64 2.11,1.1 1.59,-2.54 5.83,-4.98 7.18,-1.44 z"
     id="path78" />
  <path
     class="cls-33"
     d="m 123.17822,132.5579 1.42,0.72 -4.29,3.59 c -16.26,4.31 -26.960001,7 -44.510001,5.74 -8.39,-0.6 -12.55,-2.57 -20.1,-5.74 l 1.44,-1.44 4.25,-1.24 c 18.67,7.5 39.400001,4.04 57.640001,-3.05 l 4.16,1.42 z"
     id="path80" />
  <path
     class="cls-35"
     d="m 72.918219,7.6378959 c 2.2,2.6300001 -0.15,5.5800001 -7.05,8.8500001 4.17,5.67 -0.16,10.1 -12.99,13.29 l -2.94,2.27 c -9.02,3.69 -23.51,26.19 -25.85,35.9 -2.4,-17.36 8.56,-29.56 14.36,-44.51 4.26,-3.35 8.11,-6.04 12.92,-8.62 9.13,-4.8800001 11.77,-5.2100001 21.54,-7.1800001 z"
     id="path84" />
  <path
     class="cls-6"
     d="m 170.55822,46.407896 c 6,7.31 -0.54,7.64 -1.96,13.23 -0.98,3.85 3.54,6.13 0.53,8.31 -10.55,-8.96 -21.29,-18.46 -33.03,-25.85 2.22,-2.06 5.94,-2.88 11.18,-2.47 2.44,-2.84 4.93,-4.41 7.49,-4.71 4.39,3.38 12.4,7.35 15.8,11.49 z"
     id="path86" />
  <path
     class="cls-24"
     d="m 101.63822,7.6378959 c 9.89,2.03 21.29,3.9500001 28.72,11.4900001 -1.51,2.42 -4.47,2.74 -8.87,0.94 6.35,10.5 -6.42,9.29 -15.54,4.8 -9.280001,0.12 -18.850001,-0.36 -28.720001,-1.44 -1.05,-3.87 1.36,-5.29 7.24,-4.27 l 1.08,-4.29 c 3.21,-2.19 5.23,-5.0900001 6.04,-8.6800001 4.25,0.3 6,0.6 10.050001,1.44 z"
     id="path88" />
  <path
     class="cls-14"
     d="m 91.588219,6.1978959 c 3.48,8.7300001 -1.64,6.9300001 -3.59,10.0900001 -1.13,1.83 -0.39,5.26 -0.76,5.65 -0.87,0.93 -8.47,-1.56 -10,1.49 -1.01,0.77 -2.44,1.25 -4.31,1.44 -5.2,1.52 -10.52,4.02 -15.8,5.74 -1.86,0.61 -4.05,0.16 -7.18,1.44 -0.49,-6.78 18.61,-8.31 15.61,-12.78 -0.25,-0.37 -4.82,0.5 -2,-4.49 1.82,-3.22 7.79,-3.34 9.37,-7.1400001 8.54,-1.72 10.54,-2.01 18.67,-1.44 z"
     id="path90" />
  <path
     class="cls-15"
     d="m 344.31822,40.657896 c -13.38,-3.98 -6.75,-2.91 -7.22,-12.13 -0.27,-5.32 -8.91,-11.61 0.04,-13.71 1.34,0.35 4.81,1.53 5.64,2.23 2.73,2.29 9.01,21.65 1.54,23.62 z"
     id="path92" />
  <path
     class="cls-12"
     d="m 130.35822,19.117896 c 10.82,3.51 16.01,9.33 24.41,15.8 -3.65,9.13 -10.19,9.13 -18.67,7.18 -4.9,-3.09 -10.6,-6.04 -15.8,-8.62 -1.57,-2.32 -4.44,-3.75 -8.62,-4.31 -1.95,-0.42 -3.45,-1.25 -4.31,-1.44 -2.62,-1.06 -3.1,-2.02 -1.44,-2.87 5.29,0.43 10.51,1 15.79,1.43 l -5.73,-10.04 c 0.55,-0.49 12.76,2.35 14.35,2.86 z"
     id="path94" />
  <path
     class="cls-40"
     d="m 77.228219,23.427896 c 9.33,-1.07 19.43,0.68 28.720001,1.44 l 1.44,2.87 c -11.410001,-2.45 -22.730001,-3.61 -34.460001,-2.87 1.27,-0.37 1.52,-1.12 4.31,-1.44 z"
     id="path96" />
  <path
     class="cls-40"
     d="m 120.30822,33.477896 c -2.88,-1.43 -6.09,-2.3 -8.62,-4.31 3.52,0.76 7.38,-1.2 10.02,3.6 l -1.41,0.71 z"
     id="path98" />
</svg>
