<?xml version="1.0" encoding="UTF-8"?>
<svg id="Layer_1" data-name="Layer 1" xmlns="http://www.w3.org/2000/svg" viewBox="0 0 1920 642">
  <defs>
    <style>
      .cls-1 {
        fill: #faf8fa;
      }

      .cls-2 {
        fill: #484746;
      }

      .cls-3 {
        fill: #9c9b9b;
      }

      .cls-4 {
        fill: #838281;
      }

      .cls-5 {
        fill: #e2b9d6;
      }

      .cls-6 {
        fill: #efdae9;
      }
    </style>
  </defs>
  <path class="cls-1" d="M313.81,158.04c-2.06,7.67-2.78,15.33-7.19,22.65-5.17,8.59-13.46,15.54-23.51,16.71-6.51.76-13.89.39-20.11-.98l-11.79-2.59-4.76-5.16c-1.86-2.02.22-5.35.63-7.7,3.98-6.47,6.44-13.72,8.61-20.89,2.42-8.01,3.93-15.95,2.38-24.13-1.15-6.09-1.74-12.84-8.82-16.22-10.98-5.25-24.98,15.79-30.39,24.14-13.64,21.07-23.01,43.91-31.18,67.6-5.25,15.24-10.32,41.99-11.64,57.48-2.69-1.11-5.79-.55-9.07-.06-3.84.57-7.21.09-10.99.37l-15.18,1.11c-10.35.76-26.21.73-36.69,1.02-.15-2.88-.19-4.53-.1-6.39,1.16-24.91,7.23-49.61,15.41-73.57.66-1.95.92-3.1,1.59-4.43,6.18-12.4,11.22-25.01,18.65-37.38,10.8-17.98,23.5-34.12,39.12-47.58,7.96-6.86,18.75-11.52,28.6-15.43,21.98-8.73,54.35-1.51,74.01,10.94,17.79,11.27,29.41,29.35,31.57,50.4.37,3.61-.1,7.05.85,10.09Z"/>
  <path class="cls-5" d="M209.99,342.47c3.77-.03,7.54-1.14,9.83-4.47.43-.16,1,0,1.39-.23,1.1-.63,2.69,1.18,4.02.9,6.34-1.31,12.36-.13,18.79-.53,4.66-.29,9.12-2.14,13.98-.96,3.69.9,6.96-.41,10.43-.85,6.99-.88,13.86-.12,20.52-.33l-19.46,88.24c-8.14.09-16.56-.97-25.01.33-4.89.75-9.54.04-14.51.44-3.45.27-21,2.44-22.11.19l1.98-13.07c1.31-8.63,4.51-17.25,5.85-26.33-14.04,4.01-26.95,7.01-40.74,5.95-2.61-.2-6.93.15-8.9-.66-4.41-1.83-13.87-3.08-18.21-5.99-6.18-4.15-12.8-8.79-17.91-14.24-9.88-10.54-15.05-24.19-19.45-37.64,4.39.07,8.72-.89,13.5-1.03l15.88-.47c4.17-.12,7.81-1.49,12.15-.89,4.75.66,9.4.18,13.94-1.37,6.26.36,19.63,1.7,23.91-1.18,5.8,5.45,10.47,14.24,20.12,14.18Z"/>
  <path class="cls-6" d="M666,213.04c7.51-.11,15.48,2.77,22.16,6.34,4.88,2.61,7.95,9.12,11.95,12.58.43.01,1.24-1.35,1.29-2.03,16.53.7,30.69-1.41,48.27-1.07,2.26-1.05,4.43-1.32,6.38-.82-3.71,23.08-9.36,45.92-13.22,68.93-5.74.72-11.53,1.48-17.85.75.95.11-27.19,2.46-31.32,1.25-.6-.18-.85-1.15-.67-1.95.4-.63-.28-1.64.19-3,1.55-4.49,1.67-9.37,1.47-14.88-.23-6.27.09-13.31-3.72-19.14-2.1-10.06-12.11-17.77-22.75-14.55-7.55,2.28-13.33,7.58-17.95,14.06-12.1,16.99-16.94,38.13-14.29,59.4-13.46,3.35-14.88-1.06-26.86,2.64l-22.09-.93c-3.45,1.35-7.09,2.35-9.94.55,8.1-24.35,4.3-36.95,14.99-60.21,2.54-5.53,7.1-10.53,10.13-15.84,2.6-4.56,7.98-8.19,12.09-11.86,14.42-12.86,32.87-19.93,51.73-20.19Z"/>
  <path class="cls-3" d="M854.1,283.06c-.36-.43-13.76,14.41-13,13.19l-14.87,23.61c.41-2.24-9.19.51-9.22,7.23l-.06,15.94c-.02,5.85-1.82,11.45-4.36,16.54-10.49,21.03-20.68,37.34-43.94,46.1-4.91,1.85-10.17,3.91-15.64,4.15-25.53,1.12-25.08-2.35-41.05-2.78-9.88-.27-34,8.45-45.68,7.8-13.95-.96-25.94-5.62-37.63-12.46-16.15-9.44-23.27-7.42-38.88-.5-8.55,3.79-17.12,7.57-26.74,7.95-5.92.23-12.01.65-17.8-.22-10.5-1.58-20.34-5.17-30.87-4.98-13.16.24-17.92,4.71-39.36,5.44-15.56.53-20.97-2.66-32.02-2.93-18.6-.45-41.11,13.27-63.9,4.76s-25.21-17.77-40.76-26.07c-3.11-1.66-6.9-1.22-8.51,1.93-1.21,2.36-3.21,4.46-3.95,7.05-3.62,12.73-4.84,25.43-6.46,38.56-4.2,34.1-6.36,61.9-21.58,93.49-15.27,31.69-41.08,55.55-79.08,52.06-32.57-2.99-59.81-25.75-70.76-55.95,2.79,1.53,8.13,1.78,10.43,4.59,11.73,23.5,32.16,39.78,59.07,43.04,17.19,2.08,34.19-3.29,47.98-14.57,3.92-3.21,7.72-7.4,11.08-11.09,7.66-8.41,12.18-17.95,16.68-27.95,11.27-25.03,14.45-50.57,17.69-77.94l1.15-9.73,2.73-22.43c.41-3.34.69-6.11,1.43-9.34,2.59-11.18,2.37-27.21,15.75-31.43,2.41,2.68,8.57,6.81,11.96,8.08-5.32-3.62,12.9,14.26,8.99,10.83,16.96,14.85,27.99,24.14,52.87,20.4,10-1.51,19.02-6.76,29.26-6.8,2.6,0,6.16-.6,8.65-.25l22.9,3.23c24.51,3.46,35.69-12.75,71.61-1.98,4.96,1.49,10.51,1.86,15.73,2.13,30.54,1.59,44.44-24.98,66.51-13.18l25.33,13.54c3.31,1.77,7.61,2.79,11.37,3.39,22.03,3.51,36.88-6.92,48.83-7l8.09-.06c14.2-.1,30.18,8.86,52.84-1.66,10.86-5.04,20.65-12.64,26.6-23.28,2.74-4.89,4.38-10.4,6.21-15.63,3.9-11.14-.91-22.21-11.32-27.2-2.2-1.05-3.67-3.54-6-3.46,3.6-7.64,4.39-16.67,7.48-25.59-3.78-1.02-6.11-.75-9.11-1.02,4.12-13.3,24.99-7.31,27.1-17.72,21.25.03,31.92-6.51,49.12-9.99,1.57-.32,3.01.2,3.56,1.59,1.25,3.21-8,3.71-6.48,8.56Z"/>
  <path class="cls-3" d="M1145.06,279.12c-3.23,4.68-6.23,9.58-9.87,13.92-6.72-6.19-39,2.72-46.08,8.15l-25.99,19.95c3.05-2.34-21.84,9.92-29.83,18.36-15.41,16.29-30.7,32.16-48.02,46.68-17.44,14.62-33.39,23.53-55,30.22-7.18,2.22-14.37,3.04-21.81,4.19-18.76,2.88-44.25-7.15-54.97-22.15-3.54-4.96-8.06-9.47-9.35-15.19,5.17,2.66,11.64,5.54,17.78,5.52l16.09-.06c7.73-.03,14.82-3.42,21.91-4.52,19.08,6.59,48.7-14.3,65.26-25.95l16.48-11.59,30.89-22.04c2.28-1.63,4.36-2.13,6.71-3.48,4.05-2.33,19.51-16.71,17.53-20.38.42-.18.67-.79,1.12-.93.38-.11.9-.01,1.42-.09.82-.12.39-1.23.73-1.64l8.69-10.23c6.31-7.43,12.34-15.14,19.45-21.83-.34,6.09-.22,12.39-.21,18.9,0,3.92,2.39,6.03,6.04,6.16,5.64.2,10.08-2.69,15.37-3.79,14.65-3.07,46.38-11.2,40.49-31.34.6-.73,1.1-1.92,2.31-2.71,7.23-4.7,14.1-9.6,20.25-15.64,3.1-3.04,5.13-6.42,9.6-8.1-1.48,8.88.11,18.53-3.64,27.1-11.21,25.62-4.48,9.66-13.37,22.52Z"/>
  <path class="cls-3" d="M1529,208.99c-1.25,6.28-11.36,13.74-1.81,21,2.4,1.82,4.49,4.23,7.6,4.22-2.66,3.56-9.35,17.21-9.52,23.67,0,.3-.31.69-.21.96-3.33-1.04-7.02-1.26-10.37.98-8.95,5.99-16.18,13.55-24.17,20.72-41.98,37.68-53.7,16.6-80.95,14.91-23.06-1.44-30.98,19.79-64.49,16.29-7.8-.81-14.58-4.55-21.95-6.75-17.06-5.09-24.08-6.25-40.48,3.74-25.33,15.43-18.55,11.11-44.64,15.05-8.87,1.34-25.32-2.7-33.66,5.58-5.78,5.74-8.88,13.18-10.96,21.06-4.34,16.4-8.72,32.12-15.07,47.97-6.74,16.82-21.21,39-42.25,32.8-6.32-1.86-9.65-5.47-12.23-11.14-3.04-6.69-6.22-13.21-4.65-21.09-3.55,1.3-5.27,3.76-8.64,4.7-4.97,1.38-10.83-1.45-13.56-5.41-3.57-5.18,5.37-27.49,6.09-30.21,3.81,1.78,8.26.61,12.94.82,1.59.81-.44,4.72,1.96,4.16l3.17-2.11c6.63,2.51,10.68-1.42,17.94,1-2.52,3.34-3.85,8.29-7.76,11.38-3.24,2.56-3.2,5.97-3.58,9.69-.84,8.25-.76,13.82,4.04,20.16,3.3,4.35,6.7,6.27,12.17,6.18,6.55-.12,11.05-2.64,14.91-7.48,8.83-11.08,9.03-12.71,12.96-25.1l9.13-28.77c2.93-9.24,8.16-30.04,15.81-35.18,2.44-1.64,5.02-3.86,7.52-5.09,19.78-9.69,33.98,6.38,68.13-20.24l8.44-6.58c10.31-8.04,21.48-4.4,34.73-.74,7.93,2.19,16.18,2.01,24.4,2.9,2.67.29,4.44-.26,5.87-2.58.82-1.34,1.22-3.25.04-5.1,14.37-5.15,27.7-13.41,38.14-24.39,3.16-3.32,8.08-5.65,11.28-9.72,2.02,2.46,1.69,4.67,3.03,6.75.56.87.13,2.28.48,3.14-2.39,3.71-5.31,9.51-2.82,13.98,2.3,4.14,8.3,5.28,12.52,6.38l22.31,5.8c6.64,1.73,13.08,3.86,20.29,2.58,15.41-2.74,28.11-11.85,38.31-23.35,6.96-7.84,20.72-26.18,6.55-32.62,1.93-1.55,6.03-10.09,14.88-11.13l10.22-12.67c2.15-2.67,5.56-.39,7.87-1.13Z"/>
  <path class="cls-3" d="M147.86,385.09c-3.49.04,8.84,11.97,9.42,12.61,6.83,7.67,14.54,13.19,22.85,19.13,6.69,4.78,13.01,10.13,21.89,10.18,1.9.01,5.54.29,5.86-1.82,1.11,2.26,18.66.09,22.11-.19,4.97-.39,9.62.31,14.51-.44,8.45-1.29,16.86-.24,25.01-.33-4.57,20.73-8.95,40.88-20.64,59-6.09-1.11-12.34.62-18.76.54-12.07-.14-25.04,1.49-37.22,1.88l-22.74.72c-12.67.4-24.95,1.72-37.28,1.53-4.64-.07-9.1,1.89-13.43,1.27-2.43-7.63-4.15-14.16-3.7-23.48,1.01-20.52,13.87-39.54,32.97-47.89,5.47-2.39,10.55-2.21,16.55-.68l-16.73-17.58c-5.65-5.94-16.73-21.4-18.57-28.69,5.11,5.45,11.73,10.09,17.91,14.24ZM162.77,478.66c10.01,2.95,25.16-8.16,29.2-17.71,3.3-3.3,6.86-9.14,7.62-14.03-3.37-6.65-12.63-6.65-18.47-3-5.1,3.18-10.31,5.48-14.27,9.94-5.47,6.17-10.3,12.92-12.57,20.85,1.14,2.64,5.58,3.75,8.49,3.95ZM155.99,452.49c1.08-1.1,1.8-1.81-.21-3.03-3.17,4.23-7.23,8-6.67,13.68l6.87-10.65Z"/>
  <path class="cls-6" d="M1119.07,211.08c-5.23,3.93-9.7,8.96-14.07,13.91l-16.26,18.41c3.47,4.39,9.03,10.48,15.14,10.23,8.42-.34,15.04-5.81,21.36-9.82,4.24-2.7,8.15-5.74,12.53-9.04l10.09-7.59c4.61-3.47,14.6-10.12,15.08-17.57.17-2.61,2.05-6.98,5.42-7.02,5.12-.06,11.93,4.36,11.62,9.52l-.6,9.84c-.23,3.82-1.76,7.63-.37,12.64,5.85-3.65,10.98-7.73,14.91-12.5.72-.87,2.66-1.12,3.58-2.4,2.34-3.26,5.85-4.42,8.57-6.62,3.08-2.49,7.42-2.59,10.6-4.18,10.04-5.01,20.67-5.72,29.23,1.16,7.64,6.13,13.1,14.9,10.1,24.83-6.31,20.88-34.26,37.87-53.96,44.02-4.33-1.48-9.09-.17-14.1-.26-3.93-.07-7.85-1.8-10.91.39-1.45-.33-2.22-1.55-4.14-2.7l-1.96,3.8c-3.72-1.22-26.68,3.25-25.91-1,8.88-12.86,2.16,3.1,13.37-22.52,3.75-8.57,2.16-18.22,3.64-27.1-4.47,1.68-6.5,5.07-9.6,8.1-6.16,6.03-13.02,10.93-20.25,15.64-1.21.79-1.71,1.97-2.31,2.71-6.23,4.47-12.57,7.55-20.41,8.88-5.31.9-10.61,3.19-16.17,1.73-6.29-1.66-11.26-5.92-16.99-8.76-3.69,2.34-5.56,5.82-8.12,8.22-7.12,6.69-13.15,14.4-19.45,21.83-5.57.19-11.25.64-16.65-.83-.06-4.03,10.8-18.67,13.87-21.96l13.02-13.94c1.36-1.45,3.45-3.42,4.25-5.4.91-2.26-2.4-4.03-2.93-5.54-3.31-9.45-10.05-19.31-8.6-30.1.75-5.56,12.92-5.75,15.65-1.83,2.46,3.52,1.25,6.94,2.63,9.76l7.23,13.5c6.19-6.29,12.23-11.97,17.52-18.27,3.14-3.74,6.79-7.29,10.63-10.75,6.16-5.55,16.57-3.58,17.73-2.33.83.89,2.68,2.94,1.36,4.35-1.92,2.05-3.41,5.08-5.4,6.58ZM1209.52,228.38c-6.68,3.74-11.7,9.72-17.3,15.5s-18.44,15.23-19.33,26.75c6.03-3.1,10.55-3.2,15.85-1.49,4.86,1.57,8.97-1.4,13.28-3.37,7.73-3.51,15.89-7.24,22.75-13.01,5.31-4.47,12.44-16.55,12.31-25.78-.04-2.55.11-5.24-1.44-7.17-5.35-6.68-21.03,4.02-26.12,8.55Z"/>
  <path class="cls-4" d="M331.99,366.15c-13.38,4.22-13.16,20.25-15.75,31.43-.75,3.23-1.03,6-1.43,9.34l-2.73,22.43-1.15,9.73c-3.24,27.38-6.42,52.91-17.69,77.94-4.5,10-9.01,19.54-16.68,27.95-3.37,3.69-7.17,7.89-11.08,11.09-13.79,11.28-30.79,16.65-47.98,14.57-26.91-3.26-47.34-19.54-59.07-43.04-2.3-2.82-7.63-3.06-10.43-4.59-13.57-7.44-23.91-19.21-28.57-33.81,4.33.62,8.79-1.34,13.43-1.27,12.33.19,24.61-1.12,37.28-1.53l22.74-.72c12.18-.39,25.15-2.02,37.22-1.88,6.42.08,12.67-1.65,18.76-.54-7.97,12.37-15.2,24.7-28.07,33.77-14.65,10.33-31.24,15.25-49.9,12.54.67,4.51,4.13,5.79,5.9,8.6,5.39,8.57,17.85,16.04,27.68,19.47,24.72,8.64,50.49.16,66.46-21.05,14.6-19.39,22.65-42.79,26.4-67.09l2.41-15.62,3.34-26.77,2.8-22.29c2.24-17.84,3.92-40.9,12.26-56.53.46-.04.74-.12.9-.22,2.94,5.77,8.63,13.27,12.94,18.07Z"/>
  <path class="cls-1" d="M464,205c5.67.18,10.76-.71,16.85,1.29,4.17,1.37,10.47,6.59,8.1,11.71s-2.5,10.37-3.67,15.93l-5.71,27.2c-5.02.52-10.1-.07-15.77-1.11-13.49,5.74-8.82-1.1-24.15,2.75-5.66,1.42-11.65-.18-17.11.48-.07-1.04-1.17-1.78-1.65-3.38-1.76-5.87-5.64-11.45-11.85-13.97-10.58-4.31-22.92,4.45-28.33,12.1-8.14-.06-16.57.57-25.08.82l-18.4.54c-4.67.14-9.71,2.24-13.44-.41,2.35-3.74,4.19-9.42,7.2-12.77l8.94-9.97c15.64-13.78,35.11-23.45,56.08-23.2,6.51.08,14.03,2.18,19.94,5.19,5.54,2.82,9.21,9.39,13.95,13.72,1.61-4.07,1.9-8.91,2.09-12.85,1.38-2.63,4.27-4.65,6.1-6.97,8.17-3.63,16.68-7.38,25.92-7.09Z"/>
  <path class="cls-1" d="M868.9,175.82c-13.64,2.07-26.96-.91-38.65-9.22-4.14,2.03-5.75,6.04-8.35,8.37-13.14,11.8-25.72,25.55-34.15,40.97-2.29,4.19-6.32,8.15-7.78,13.15-5.34-.47-10.71.57-16.02-.31l4.09-10.6c1.06-1,2.28-2.58,2.73-4.52.8-3.43,4.54-4.16,6.69-6.27,1.32-1.29.26-3.8.7-5.12,1.74-5.19,5.93-9.1,9.91-13.26l18.6-19.45c1.49-1.55,1.49-4.21,3.65-4.69,1.47.13,1.35,1.72,3,3.06.86-7.7,4.73-5.7,5.88-12.33.27-1.58-1.49-2.32-2.09-3.62-1.11-2.39-1.34-5.86,1.48-7.25,2.51-1.24,5.13-.61,7.45-.67,2.6,2.52,6.22,4.6,10.39,4.45-1.05-3.71.22-7.23,3.66-8.4,10.04-3.41,6.7-10.88,14.98-7.15.98-4.14,3.66-6.75,7.19-8.74l21.09-11.88c5.99-3.37,12.44-5.38,18.79-8.18,2.51-1.11,4.2-3.37,6.85-4.32,6.19-2.23,12.48-5.41,18.95-6.01,4.24-.39,15.31-6.66,26.85-5.3l9.27,1.09c6.79.8,14.05,7.22,16.63,13.51,1.45,3.54.58,9.19-.08,12.54-1.1,5.61-6.51,8.1-10.15,11.59-14.06,13.5-29.92,23.47-47.62,31.39-4.22,1.89-7.58,4.64-12.18,6l-30,8.83c-4.16,1.23-7.89,1.71-11.75,2.3ZM861.92,141.22c-7.58,2.58-13.28,8.58-19.06,14.79,4.41,5.38,10.6,6.19,17.16,5.86,6.45-.32,12.82.68,18.96-2.05,6.87-.99,14.13-2.18,21-4.78,5.69-2.15,10.48-6.02,17.01-6.12,13.4-10.01,36.82-19.83,46.65-32.36,2.92-3.72,5.4-9.48,2.52-13.68-4.68-6.81-37.09,2.21-45.11,4.31l-43.88,21.87-15.24,12.16Z"/>
  <path class="cls-6" d="M1569.85,191.05c1.22,3.38,1.53,6.84-.03,10.7l-2.46,6.08c-5.82,14.41-16.48,19.51-25.58,50.11-7.86-.15-7.03,2.49-16.51-.07.17-6.46,6.86-20.12,9.52-23.67,4.59-6.14,8.96-12.41,13.35-19.16,3.06-4.71,7.42-8.93,7.63-14.98-.05-.79-2.94-.62-3.76-.1-7.4,4.59-15.25,6.55-23,9.03-2.31.74-5.71-1.54-7.87,1.13l-10.22,12.67c-8.85,1.04-12.95,9.58-14.88,11.13l-16.18,12.99c-6.04,4.85-13.22,7.05-19.86,10.14-2.05-1.77-11.3,1.45-18.22-.07-10.41-7.26-14.57-7.71-22.76-19-2.2-3.03-1.17-8.15-3.22-12-4.14,5.22-6.4,11.68-5.71,17.94.48,4.38,1,8.98,2.91,13.1-4.81.68-9.75,1.33-14.6.98-1.33-2.09-1.01-4.29-3.03-6.75-3.2,4.06-8.12,6.39-11.28,9.72-4.85-1.7-14.09-.7-18.8-.96l.05-.9c.72.39.6-.68.67-1.1,11.35-7.51,21.64-16.42,30.55-27.4,3.81-4.7,6.71-9.66,11.12-13.93,17.02-16.54,49.86-17.95,55.22-9.67,2.65,4.09,6.24,8.25,8.14,12.8,1.81,4.92-1.43,10.99-.23,16.47,5.46-3.29,11.74-6.17,15.31-10.98,5.34-1.91,9.71-6.25,13.8-10.1,2.69-2.53,7.75-4.07,6.64-8.88-.41-1.78-3.28-2.76-4.12-4.73.07-3.56,2.51-7.97,6.5-8.42,3.62-.41,7.39.17,10.51-1.57,3.27-1.83,5.39,1.47,7.72,1.64,4.38.31,8.74-3.18,13.21-3.78,18.23-2.47,25.25-10.15,29.49,1.61ZM1453.56,242.3c2.59-4.74,5.57-9.18,5.26-14.52-.25-4.45-3.16-9.91-7.03-12.5-6.16-4.11-15.94-1.3-18.98,5.29-2.71,5.87.54,12.06,3.86,16.72,3.94,5.54,10.34,8.06,16.89,5Z"/>
  <path class="cls-6" d="M567.1,231.96l-13.32,65-6.79,1.09c-6.62,1.06-13.31-.27-19.98,1.1-9.31-1.07-21.43,1.95-28.65-.14l12.42-66.08c.97-5.15,2.96-10.54,3.35-15.81,2.63-1.9,5.82-6.3,9.2-7.06,5.18-1.16,10.51-4.25,15.73-4.88,6.77-.81,35.84-2.06,30.69,12.59-1.7,4.84-1.74,9.71-2.66,14.18Z"/>
  <path class="cls-5" d="M869.85,283.06c-3.51,4.75-6.98,9.81-11.42,14.26-3.33,3.32-4.83,7.51-7.32,10.74-14.71,19.16-20.11,51.91,5.52,64.39,9.14,4.45,19.03,4.59,28.1,1.5,10.48-3.57,21.19-6.53,31.58-11.81,10.91-5.55,21.51-11.23,31.44-18.39l21.38-15.44c2.27-1.64,5.02-1.8,6.77-4.98l1.95,4.05c1.44-.64,1.22-2.1,1.98-3,.43-.51-1.37-1.41-1.4-2.13,5.47-3.47,7.86-10.52,13.52-9.88,4.33.5,8.72-1.47,9.11-6.46.1-1.34.64-3.01,1.57-2.84l2.63.46c4.39.76,9.32-12.12,16.34-12.89,2.82-.31,4.46-1.8,5.4-4.53,1.87,1.05,3.66.52,5.11.92,5.4,1.47,11.08,1.02,16.65.83l-8.69,10.23c-.93.26-1.84.77-2.15,1.73-.44.13-.7.75-1.12.93-1.85.79-3.78,1.57-5.83.81-1.57-.58-2.69-1.94-3.54-3.59-7.17,7.72-14.16,14.08-22.27,20.28l-44.72,34.14c-13.81,10.54-44.52,29.32-60.51,31.81-7.09,1.1-14.18,4.49-21.91,4.52l-16.09.06c-6.14.02-12.61-2.85-17.78-5.52-18.38-9.46-29.99-37.5-18.37-57.65,1.08-1.88.96-4.06.47-5.73l14.87-23.61c-.76,1.21,12.65-13.62,13-13.19.46.75,1.43.79,2.06.78.44,0,1.45-1.34,1.93-1.1,3.72,1.82,7.88,1.01,11.76.32Z"/>
  <path class="cls-3" d="M821.01,267.13c-2.23.02-4.64.92-7.64.81l-10.37-.37c-1.25-6.62-6.27-30.55-5.72-36.48.73-7.89-2.42-12.63-9.54-15.14,8.43-15.42,21.01-29.17,34.15-40.97,1.2,1.69,1.05,4.64,2.86,6.17,4.25,3.58,9.79,2.74,14.9,2.31,4.31-.37,29.98-2.38,29.25-7.63,3.87-.59,7.59-1.07,11.75-2.3l30-8.83c4.61-1.36,7.96-4.11,12.18-6,17.7-7.92,33.55-17.89,47.62-31.39,3.64-3.5,9.05-5.99,10.15-11.59.66-3.36,1.53-9,.08-12.54-2.58-6.29-9.84-12.71-16.63-13.51l-9.27-1.09c-11.54-1.36-22.6,4.91-26.85,5.3-6.47.59-12.76,3.78-18.95,6.01-2.65.95-4.34,3.22-6.85,4.32-6.36,2.8-12.8,4.81-18.79,8.18l-21.09,11.88c-3.53,1.99-6.21,4.59-7.19,8.74-8.28-3.73-4.94,3.74-14.98,7.15-3.45,1.17-4.72,4.68-3.66,8.4-4.16.14-7.78-1.94-10.39-4.45,4.62-4.9,10.82-8.54,17.44-11.62,13.05-6.06,25.28-12.72,37.48-20.44s27.78-13.78,41.54-19.67l6.83-2.92c8.41-3.6,16.33-5.07,25.93-4.51,14.63.86,28.4,11.23,31.28,26.35,1.85,9.74-2.48,19.99-9.18,27.15-14.83,15.83-32.36,27.61-51.94,37.05-16.82,8.11-33.7,16.24-52.4,17.4l-13,.8c-17.74,1.09-32.16,4.67-40.95,21.08-4.04,7.55-8.8,15.07-9.16,24.14-.52,13.11,1.95,20.52,11.11,28.24Z"/>
  <path class="cls-6" d="M176.04,268.96c-.66,7.7,0,15.84.74,24.05,1.15,13.03,7.65,24.07,13.1,35.28-4.28,2.88-17.65,1.54-23.91,1.18-4.54,1.55-9.19,2.02-13.94,1.37-4.34-.6-7.98.76-12.15.89l-15.88.47c-4.78.14-9.11,1.1-13.5,1.03-6.58-20.11-8.45-41.44-7.31-63.26.1-1.88-1.04-4.29.81-4.97-.09,1.86-.05,3.51.1,6.39,10.48-.29,26.34-.26,36.69-1.02l15.18-1.11c3.78-.28,7.16.2,10.99-.37,3.28-.49,6.37-1.05,9.07.06Z"/>
  <path class="cls-3" d="M944.85,226.87l6.05,4.33c5.83,4.17,4.91,14.31.87,20.48-7.27,11.12-19.2,17.75-27.38,27.78l-39.32,48.23c-10.97,13.46-9.21,32.65-.35,46.26-9.08,3.09-18.96,2.95-28.1-1.5-25.63-12.48-20.23-45.23-5.52-64.39l9.59,13.04c2,1.24,7.89,1.87,9.92.34,13.32-10.06,40.2-37.16,39.46-54.47-.3-6.92-17.47-1.56-19.84-2.14,6.52-5.51,12.28-12.65,20.01-17.27l34.6-20.68Z"/>
  <path class="cls-3" d="M1711.87,208.83l-5.8,11.19c-4.51,8.71,1.57,18.65,8.68,20.27-2.37,3.97-3.74,8.39-4.71,12.73s-3.3,13.6.12,18.77c-18.3-5.65-26.98,19.86-53.02,27.3-23.9,6.83-42.81-5.38-59.95-2.81-9.05,1.36-21.9,8.89-32.21,7.67-13.82-1.62-24.49-11.65-28.76-24.1,4.81,1.3,12.04,2.75,16.66.57,4.32,9.49,13.81,7.93,23.18,5.63,9.44-6.47,15.5-6.84,26.7-3.67,19.64,5.57,42.58,13.67,58.32-4.39,3.57-1.61,10.82-15.45,6.38-19l4.65-5.91c6.88-8.75,14.01-17.88,20.26-28.03,2.35-3.82,7.1-7.18,9.15-11.25,2.65-5.26,6.23-4.21,10.35-4.98Z"/>
  <path class="cls-6" d="M944.85,226.87l-34.6,20.68c-7.74,4.62-13.49,11.76-20.01,17.27-9.11,6.8-13.68,9.17-20.39,18.24-3.87.69-8.04,1.5-11.76-.32-.48-.23-1.49,1.1-1.93,1.1-.63.01-1.6-.03-2.06-.78-1.51-4.85,7.74-5.35,6.48-8.56-.54-1.39-1.99-1.91-3.56-1.59-17.2,3.48-27.87,10.02-49.12,9.99-11.13-.02-22.02-4.1-31.97-8.83-10.71-5.1-16.39-16.38-16.48-28.57-.04-6.02,2.67-11.11,3.61-16.65.28.02.59-.11.87-.06,5.31.87,10.68-.16,16.02.31-2,6.85-3.14,14.03-2.44,21.52,1.11,11.91,18.5,16.7,25.48,16.95l10.37.37c3,.11,5.41-.79,7.64-.81,17.91-.2,45.8-12.54,63.04-20.23,14.45-6.45,27.1-15.35,38.96-25.83,3.82-3.38,7.68-6.46,12.94-7.1,5.87-.72,10.81,2.38,12.71,7.84-1.38,1.64-2.22,4.12-3.8,5.06Z"/>
  <path class="cls-3" d="M339.92,236.2l-8.94,9.97c-4.15-.67-15.34-12.86-18.73-12.24,2.42-5.87-6.35-7.06-9.03-8.86,2.42-1.05-4.18-3.92.37-11.38,2.78-4.57,6.27-8.35,9.37-12.63,1.98-2.74,3.21-5.85,5.52-8.44,3.14-3.54,2.96-8.54,4.47-12.82,4.49-12.69,1.01-34.82-4.58-46.12-14.03-28.36-37.63-46.51-68.32-53.53-27.43-6.28-51.36,2.02-71.74,20.1-.49.68-.51,2.07.46,1.79-15.62,13.46-28.32,29.6-39.12,47.58-7.43,12.37-12.47,24.98-18.65,37.38,13.73-53.76,55.39-125.78,121.5-116.41,20,2.84,38.9,10.36,54.14,23.74,2.91,2.56,5.85,4.79,8.58,7.53,16.1,16.23,26.21,36.86,27.82,60.04,2.57,37.05-26.43,49.06-8.39,66.45,4.4,4.24,9.26,8.1,15.28,7.85Z"/>
  <path class="cls-5" d="M1170.97,280.12c-2.92,16.56-8.74,32.43-13.72,49.05-4.57,15.25-8.94,30.51-18.13,42.71-7.26-2.41-11.32,1.51-17.94-1,.12-2.63,5.28-6.26,6.83-11.89,5.62-5.77,11.04-24.81,13.48-33.57,2.15-7.73,6.51-14.29,6.62-22.9-3.57,3.64-6.2,7.47-8.09,11.41-1.57,3.26-5.24,5.76-6.54,9.48-2.6,7.43-7.32,13.26-10.57,20.39-1.75,3.85-1.94,8.69-5.16,11.92l-.05,11.04c0,2.14,1.02,4.39.31,6.23-2.4.56-.37-3.35-1.96-4.16-4.67-.21-9.13.96-12.94-.82,4.52-17.05,11.16-33.66,18.71-50.1,1.05-.87,3.5-.97,3.82-1.97,1.15-3.58-.6-8.1.97-8.71l2.67-1.04,1.4-6.25c.55-2.47,2.88-4.94,4.51-6.89,3.64-4.35,6.64-9.24,9.87-13.92-.77,4.26,22.19-.21,25.91,1Z"/>
  <path class="cls-6" d="M1371.01,185.18c-27.8,28.95-41.79,23.98-50.52,34.32-6.41,7.6-10.68,39.91-6.54,49.72-.42,1.01-1.66,1.47-3.08,1.5l-10.9.24c-.92-2.34-3.08-.62-4.39-17.46-7.67,9.57-17.37,15.73-26.43,22.52-2.79-1.87-16.99.48-22.06-1.98,8.81-3.94,16.44-10.55,24.01-16.1,7.01-5.14,13.74-10.53,18.8-17.72,4-5.7,10.21-10.25,13.03-17.29,1.52-19.87,3.41-13.12,9.47-23.82l6.81-12.03c4.48,2.34,9.49.19,14.37.1,1.66-2.38-6.19,12.24-2.37,10.67,7.9-3.24,14.46-8.69,21.9-13.52-.48,3.55,15.98.75,17.89.86Z"/>
  <path class="cls-6" d="M1752.88,190c1.93,8.28,3.59,1.69-.84,16.03l-18.47,30.41c-3.26,5.37-4.92,11.31-7.4,16.66-7.27-.92-10.72,2.74-16.12-.08.96-4.34,2.33-8.76,4.71-12.73.59-.99,17.78-26.64,17.9-26.77,3.01-3.5,5.88-7.72,6.51-12.82.21-1.7-2.92-1.05-3.92-.5-7.56,4.14-15.27,7.12-23.37,8.64-4.11.77-7.7-.28-10.35,4.98-2.05,4.08-6.8,7.43-9.15,11.25-6.25,10.15-13.38,19.28-20.26,28.03-4.68-1.35-9.61-1.01-14.98-1.07-.37-.58-.06-1.39-.03-1.97l6.82-7.22c2.93-3.1,20.21-18.78,20.02-26.69-.09-3.71,7.66-5.43,6.53-8.94-.78-2.43-4.7-4.05-4.38-7.33.21-2.18,3.65-6.28,5.87-6.48,14.78-1.31,11.92-4.2,20.07.59,6.32-3.34,12.95-4.63,19.88-5.96,4.89-.94,9.22-3.45,14.35-3.53,3.09-.05,5.97,2.82,6.6,5.52Z"/>
  <path class="cls-1" d="M577.38,154.18c5.21,9.32,1.71,20.5-7.44,26.79-11.14,7.67-25.43,7.88-37.84,3.16-5.44-2.07-9.07-7.25-12.98-11.23-4.22-9.53-1.31-21.45,8.03-27.15,16.38-10,41.58-7.05,50.24,8.43Z"/>
  <path class="cls-1" d="M1397.95,124c2.61,7.86-2.58,18.24-2.19,24.11-2.43,4.19-3.63,9.23-5.93,13.85-4.72,9.48-12.12,16.23-18.82,23.21-1.9-.11-18.37,2.68-17.89-.86,15.33-15.94,27.81-29.06,33.06-52.46-4.08-5.47-26.35,19.27-29.01,22.32-8.91,10.22-15.6,21.53-23.58,32.99-4.88.09-9.89,2.25-14.37-.1-1.07-5.39,17.95-28.47,22.33-33.47l21.01-23.95c5.05-5.76,11.92-9.02,18.83-11.11,7.45-2.25,11.94,1.42,16.56,5.46Z"/>
  <path class="cls-5" d="M1672.12,253.09l-4.65,5.91c-9.32,11.85-26.06,15.29-42.03,17.62-16.29,2.37-30.56-6.78-36.35-23.08-10.83,12-22.75,20.55-36.21,26.89-4.62,2.18-11.85.73-16.66-.57-5.65-1.53-10.44-8.35-11.78-13.74-.69-2.79,1.42-5.09.62-7.27-.1-.27.2-.67.21-.96,9.48,2.55,8.64-.08,16.51.07-.59,1.98-.73,6.82.84,8.16,6.67,5.72,26.71-10.4,30.62-15l1.02-.22c4.84,2.82,10.95.12,16.66.13l15.11.02c.12,19.87,42.3,8.31,51.07-.98-.04.58-.34,1.38.03,1.97,5.37.07,10.3-.28,14.98,1.07Z"/>
  <path class="cls-3" d="M1352,266.24c-4.32,3.38-9.45,4.93-14.85,5.92-1.74-10.53-6.35-26.68,2.35-36.76,4.37-5.06,9.23-10.03,14.36-14.48,13.3-11.53,36.15-43.89,41.7-61.09,1.29-3.99.43-8.26.2-11.71-.39-5.87,4.8-16.25,2.19-24.11,6.19,5.41,10.81,11.28,11.77,20.55s-.89,19.41-4.81,28.28c-6.07,13.77-12.4,25.35-23.12,36.02-5.32,5.3-9.65,11.54-15.67,16.27-12.92,10.15-26.08,25.45-14.13,41.11Z"/>
  <path class="cls-6" d="M1654.17,200.23c-.07,4.64-.42,10.36-2.07,14.79-8.26,11.43-18.46,22.12-31.35,28.78-5.15,2.66-11.51,2.8-14.71,7.23l-15.11-.02c-5.72,0-11.83,2.69-16.66-.13,12.23-11.53,17.39-14.19,25.05-29.81l12.56-12.15c7.5-7.25,33.85-24.92,42.29-8.7ZM1640.78,208.52c.89-1.54-.27-2.44-1.19-2.12-10.97,3.74-21.6,14.99-27.83,25.65,12.39-4.39,22.51-12.25,29.02-23.53Z"/>
  <path class="cls-3" d="M1717.17,278.83c5.85,1.7,12.77,3.94,18.58,1.65,1.44,4.93,7.59,7.39,12.04,8.17,5.67.99,11.35-1.75,14.75-5.91,4.66-5.71,4.94-13.71.43-18.89,3.26-2.22,5.25-7.29,8.22-9.65,5.49-4.22,9.57-9.76,14.71-14.41l9.49,7.02c4.19,3.1,3.5,10.79,1.35,16.1-7,17.34-26.18,43.02-47.71,40.94-14.43-1.4-25.69-13.74-31.85-25Z"/>
  <path class="cls-3" d="M602.18,245.09c-3.03,5.31-7.59,10.31-10.13,15.84-1.73-1.27-1.47-3.62-1.99-5.92-4.55-20.05-3.51-20.34-12.62-40.24-2.46-5.38-1.42-9.46.7-14.61l4.3-10.48c4.38-10.68,5.4-22.56-.68-32.19-1.21-1.91-2.34-3.86-4.38-3.32-8.66-15.48-33.86-18.43-50.24-8.43-.46-1.94,1.58-2.56,2.83-3.7,7.07-6.45,15.45-8.54,25.18-8.24,16.45.51,31.85,10.58,37.67,26.28,4.29,11.58,2.7,23.8-1.54,35.06-3.58,9.5-3.32,19.11.04,28.5,1.82,5.08,6.39,20.12,10.86,21.44Z"/>
  <path class="cls-1" d="M734,205c6.03-.07,12.13-.59,18.14,1.75,4.5,1.75,8.01,5.57,7.07,10.25-.61,3.01-2.49,5.84-1.98,9.07-.17.69-1.07,1.26-1.18,1.95-1.95-.5-4.12-.23-6.38.82-17.58-.34-31.74,1.77-48.27,1.07l.8-10.86c1.75-1.82,3.23-3.9,4.62-6,8.23-4.76,17.63-7.95,27.18-8.07Z"/>
  <path class="cls-5" d="M1365.28,260c4.71.26,13.95-.73,18.8.96-10.44,10.97-23.78,19.24-38.14,24.39-6.99,2.5-15.2,2.45-22.89,1.98-10.45-.64-19.5-7.29-23.07-16.38l10.9-.24c1.43-.03,2.66-.49,3.08-1.5,6.43,7.07,16.17,4.23,23.2,2.94,5.39-.99,10.53-2.54,14.85-5.92-.93.73,10.46-6.39,13.28-6.24Z"/>
  <path class="cls-5" d="M1771.2,254.19c-2.96,2.36-4.96,7.43-8.22,9.65-8.81,6.02-17.22,12.7-27.23,16.64-5.81,2.29-12.73.05-18.58-1.65-2.93-.85-5.46-4.69-7.01-7.04-3.42-5.17-1.09-14.41-.12-18.77,5.4,2.82,8.85-.84,16.12.08-1.32,2.84-1.47,9.52-.44,12.41,1.15,3.21,7.29,1.64,9.6.71,8.55-3.43,14.39-9.6,21.67-14.11,2.73,2.66,13.3-.08,14.2,2.08Z"/>
  <path class="cls-3" d="M1599.32,221.08c-7.66,15.62-12.82,18.28-25.05,29.81l-1.02.22-2.19-7.15c-1.29-4.21,9.77-30.13-3.69-36.12l2.46-6.08c1.56-3.86,1.25-7.32.03-10.7,7.85,1.64,12.44,8.85,16.35,15.87,2.05,3.67,4.8,6.56,6.24,10.63,1.56,1.82,5.17,2.3,6.88,3.53Z"/>
  <path class="cls-3" d="M1777.18,231.14c-5.79,7.25-12.47,14.38-20.26,19.77-7.21-15.07,10.91-29.34-4.89-44.88,4.43-14.34,2.77-7.75.84-16.03,9.7,4.42,16.03,13.26,19.25,23.95,1.78,5.9,1.9,12.2,5.06,17.2Z"/>
  <path class="cls-3" d="M1289.91,240.2c-5.05,7.19-11.78,12.58-18.8,17.72-.67-1.94-1.5-3.94-3.08-5.85-1.1-3.92-7.34-18.97-11.99-17.2,3-9.93-2.47-18.69-10.1-24.83,6.13.71,11.32,3.68,16.54,7.51,13.1,9.62,16.38,23.22,27.43,22.65Z"/>
  <path class="cls-3" d="M1683.95,216.14c.19,7.91-17.09,23.59-20.02,26.69-2.53-9.77,1.38-10.41-5.15-21.67-1.7-2.94-3.41-5.59-6.67-6.14,1.65-4.43,2-10.15,2.07-14.79,3.04-.15,5.31,1.97,8.06,3.52,11.06,6.23,12.74,13.44,21.71,12.38Z"/>
  <path class="cls-3" d="M1147.87,227.18l-10.09,7.59c-4.39,3.3-8.29,6.34-12.53,9.04-2.04-5.58-4.93-12.54-10.86-14.97l-9.38-3.85c4.37-4.94,8.84-9.98,14.07-13.91.6,1.37,2.66.96,3.92,1.88l8.68,6.35c2.57,1.88,4.34,4.56,7.78,5.16,2.31,2.65,5.47,2.8,8.41,2.71Z"/>
  <path class="cls-6" d="M1785.91,239.78c-5.14,4.66-9.21,10.2-14.71,14.41-.91-2.17-11.48.58-14.2-2.08-.12-.36.09-.86-.07-1.19,7.79-5.39,14.46-12.52,20.26-19.77,3.22-4.02,8.24-7.97,12.39-11.45,3-2.51,7.76-3.23,6.34-8.61,1.52-.45,3.22-.04,3.62.92,2.35,5.72-2.85,10.06-6.71,15.88-2.38,3.58-3.81,9.09-6.91,11.9Z"/>
  <path class="cls-3" d="M514.13,217.12c-.38,5.26-2.38,10.66-3.35,15.81-3.33,1-16.13-13.86-21.83-14.93,2.36-5.13-3.93-10.34-8.1-11.71-6.09-2-11.18-1.11-16.85-1.29,12.65-3.33,25.94.53,37.66,7.38,4.14,2.42,7.92,4.99,12.47,4.74Z"/>
  <path class="cls-3" d="M532.1,184.13c.9,6.78,6.55,11.65,6.97,21.06-5.23.63-10.55,3.72-15.73,4.88,6.33-12.35-2.8-23.63-4.22-37.16,3.91,3.98,7.54,9.15,12.98,11.23Z"/>
  <path class="cls-3" d="M768.03,218.18c-3,.16-5.9-.57-8.82-1.18.94-4.68-2.57-8.51-7.07-10.25-6.02-2.34-12.11-1.82-18.14-1.75.9-2.19,4.05-.33,5.91-.93,4.48-1.45,7.9-.9,12.18-.36,3.99.5,22.91.98,26.04-1.44-.44,1.32.62,3.83-.7,5.12-2.15,2.11-5.89,2.84-6.69,6.27-.45,1.94-1.67,3.52-2.73,4.52Z"/>
  <path class="cls-3" d="M1499.91,215.19c-4.09,3.84-8.46,8.19-13.8,10.1.55-.51-17.35-7.92-15.08-5.49-1.91-4.56-5.49-8.71-8.14-12.8,15.27,2.99,20.47,11.83,37.02,8.2Z"/>
  <path class="cls-3" d="M1094.75,213.22c-5.29,6.3-11.32,11.98-17.52,18.27l-7.23-13.5c9.26-1.95,13.49-6.29,24.75-4.78Z"/>
  <path class="cls-3" d="M1206.1,213.07c-2.72,2.19-6.23,3.35-8.57,6.62-.92,1.28-2.86,1.53-3.58,2.4-4.46-2.15-9.77-1-14.55-.14l.6-9.84c10.92-.92,16.12,1.06,26.1.96Z"/>
  <path class="cls-3" d="M706.82,213.07c-1.38,2.1-2.87,4.18-4.62,6-4.69.28-9.41-.53-14.04.31-6.68-3.57-14.65-6.44-22.16-6.34-1.73-2.05,20.35-.81,21.66-.58,6.58,1.18,12.93.22,19.15.61Z"/>
  <path class="cls-3" d="M438.08,212.09c-1.83,2.32-4.72,4.34-6.1,6.97-5.92,1.46-9.48-5.31-16.04-.87-5.91-3.01-13.43-5.11-19.94-5.19,6.85-3.48,34.68,2.37,42.08-.91Z"/>
  <path class="cls-3" d="M810.31,164.88l6.8-12.88c.6,1.29,2.36,2.04,2.09,3.62-1.15,6.63-5.02,4.62-5.88,12.33-1.66-1.35-1.53-2.93-3-3.06Z"/>
  <path class="cls-3" d="M1059,251.11c-.25-3.74-.01-7.42,1.32-10.93.53,1.51,3.84,3.28,2.93,5.54-.8,1.98-2.9,3.94-4.25,5.4Z"/>
  <path class="cls-5" d="M1365.33,259.1c.03-.5.28-.84.67-1.1-.07.42.05,1.49-.67,1.1Z"/>
  <path class="cls-2" d="M258.07,135.95c-2.24.12-3.79-2.19-6-2.99-18.71-6.76-31.12,16.95-37.03,31.14-16.26,39.01-24.92,84.46-22.64,126.59.4,7.38,2.17,14.15,3.57,21.35,2.24,11.51,8.16,20.94,14.02,30.42-9.65.07-14.32-8.73-20.12-14.18-5.45-11.21-11.94-22.25-13.1-35.28-.73-8.22-1.39-16.35-.74-24.05,1.32-15.49,6.39-42.24,11.64-57.48,8.16-23.69,17.54-46.53,31.18-67.6,5.41-8.36,19.41-29.39,30.39-24.14,7.08,3.38,7.66,10.13,8.82,16.22Z"/>
  <path class="cls-4" d="M258.07,135.95c1.55,8.17.04,16.11-2.38,24.13-3.46,1.01-2.86-6.52-7.29-9.19-2.47-1.49-6.34-1.73-8.74-.26-9.36,5.73-13.89,15.35-17.88,25.28-5.18,12.88-10.61,30.13-13.19,43.8s-5.06,25.84-5.74,39.36c-.48,9.71-1.48,18.79-.42,28.52,1.33,12.18,2.21,24.64,8.37,35.43,2.11,3.69,3.74,7.52,6.47,10.69,1.26,1.47,2.92,2.46,2.56,4.3-2.28,3.33-6.06,4.44-9.83,4.47-5.87-9.47-11.79-18.91-14.02-30.42-1.4-7.2-3.17-13.97-3.57-21.35-2.28-42.13,6.39-87.59,22.64-126.59,5.91-14.19,18.32-37.9,37.03-31.14,2.21.8,3.76,3.11,6,2.99Z"/>
  <path class="cls-4" d="M303.23,225.07c-8.06-.56-16.03-2.28-24.14-2.15,0-1.49.68-3.73-.54-5.3l-13.66-17.49c-1.53-.9-2.03-2.37-1.89-3.71,6.22,1.37,13.6,1.74,20.11.98,2.48,3.65,8.97,3.37,13.49.78,13.65-7.81,21.82-25.38,17.21-40.14-.95-3.04-.48-6.47-.85-10.09-2.16-21.06-13.78-39.14-31.57-50.4-19.66-12.45-52.03-19.67-74.01-10.94-9.85,3.91-20.64,8.57-28.6,15.43-.96.28-.95-1.11-.46-1.79,20.37-18.07,44.31-26.38,71.74-20.1,30.68,7.02,54.28,25.17,68.32,53.53,5.59,11.29,9.07,33.43,4.58,46.12-1.51,4.28-1.33,9.28-4.47,12.82-2.3,2.59-3.54,5.7-5.52,8.44-3.1,4.28-6.59,8.07-9.37,12.63-4.54,7.45,2.05,10.32-.37,11.38Z"/>
  <path class="cls-3" d="M255.68,160.08c-2.17,7.17-4.62,14.42-8.61,20.89-2.13-1.56-1.42-7.25-5.84-8.79-7.48-2.61-15.93,18.08-17.99,24.2-7.09,21.04-10.9,42.6-12.84,64.87-1.47,16.84-1.67,58.84,16.37,66.96-.82,3.7-4.19,6.11-5.57,9.56-.4.23-.96.07-1.39.23.36-1.84-1.29-2.84-2.56-4.3-2.73-3.17-4.37-7-6.47-10.69-6.16-10.79-7.04-23.25-8.37-35.43-1.06-9.73-.07-18.81.42-28.52.67-13.51,3.25-26.19,5.74-39.36s8-30.91,13.19-43.8c4-9.93,8.53-19.55,17.88-25.28,2.4-1.47,6.27-1.22,8.74.26,4.44,2.67,3.83,10.2,7.29,9.19Z"/>
  <path class="cls-3" d="M262.99,196.42c-.14,1.34.36,2.81,1.89,3.71l13.66,17.49c1.22,1.57.54,3.81.54,5.3-5.76.09-11.5.95-17.08,2.08,1.82-2.63.79-6.27-.68-9.43l-10.12-21.75,11.79,2.59Z"/>
  <path class="cls-2" d="M283.11,197.4c10.05-1.17,18.34-8.12,23.51-16.71,4.41-7.32,5.13-14.98,7.19-22.65,4.61,14.76-3.56,32.33-17.21,40.14-4.52,2.59-11,2.87-13.49-.78Z"/>
  <path class="cls-2" d="M323.04,259.11c-9.69,18.26-13.55,44.89-10.01,64.97,1.38,7.84,2.3,16.7,6.02,24-.17.09-.45.17-.9.22-8.34,15.63-10.02,38.69-12.26,56.53l-2.8,22.29-3.34,26.77-2.41,15.62c-3.75,24.3-11.8,47.7-26.4,67.09-15.97,21.21-41.73,29.68-66.46,21.05-9.83-3.43-22.3-10.91-27.68-19.47-1.77-2.81-5.23-4.1-5.9-8.6,18.66,2.7,35.25-2.22,49.9-12.54,12.87-9.07,20.1-21.41,28.07-33.77,11.68-18.12,16.06-38.26,20.64-59l19.46-88.24,20.41-89.13c2.12-1.33,12.04,10.4,13.67,12.23Z"/>
  <path class="cls-6" d="M279.08,222.92c8.11-.13,16.08,1.59,24.14,2.15,2.68,1.8,11.44,2.99,9.03,8.86-1.7,4.14-1.9,8.65-2.88,12.94l-20.41,89.13c-6.66.21-13.53-.55-20.52.33-3.48.44-6.74,1.75-10.43.85-4.86-1.19-9.32.67-13.98.96-6.43.4-12.45-.78-18.79.53-1.33.28-2.92-1.53-4.02-.9,1.38-3.45,4.75-5.86,5.57-9.56l21.27-96.15c2.51-5.12,9.52-6.16,13.95-7.05,5.59-1.13,11.32-1.99,17.08-2.08Z"/>
  <path class="cls-4" d="M166.07,391.08c-.13,2.18,2,2.91,3.61,4.36,11.28,10.14,25.35,16.22,40.17,16.69l-1.98,13.07c-.32,2.11-3.96,1.83-5.86,1.82-8.88-.05-15.2-5.4-21.89-10.18-8.31-5.93-16.01-11.46-22.85-19.13-.57-.65-12.91-12.57-9.42-12.61,4.34,2.91,13.8,4.16,18.21,5.99Z"/>
  <path class="cls-2" d="M209.85,412.13c-14.82-.47-28.89-6.55-40.17-16.69-1.61-1.45-3.74-2.18-3.61-4.36,1.97.81,6.29.46,8.9.66,13.78,1.06,26.69-1.94,40.74-5.95-1.35,9.09-4.55,17.7-5.85,26.33Z"/>
  <path class="cls-5" d="M553.78,296.95l-2.15,13.48c-1.04,6.52-2.5,12.98-1.56,19.53.67,4.73,4.53,7.59,9.13,6.84,7.36-1.21,13.71-6.09,15.46-12.94.67-.88,2.03-1.61,2.4-2.72,2.85,1.8,6.49.79,9.94-.55l22.09.93c11.98-3.7,13.4.71,26.86-2.64.84,6.73,10.31,27.48,24.14,21.98,4.91,1.03,7.86-3.38,11.79-5.97,3.27-2.15,4.46-4.25,7.15-7.7,6.79-8.69,11.36-18.8,13.97-30.2-.19.8.07,1.78.67,1.95,4.13,1.21,32.27-1.14,31.32-1.25,6.31.73,12.1-.03,17.85-.75l-3.55,21.19c-.88,5.26-1.38,11.65,1.38,16.21,3.72,6.17,20.23.1,22.16-8.57,5.24-6.78,6.08-15.8,8.45-24.74,3.18-.58,6.59-.68,9.53-.41s5.33,0,9.11,1.02c-3.08,8.92-3.88,17.95-7.48,25.59-2.82,5.99-6.43,12.58-10.43,17.89-12.22,16.23-30.44,26.26-50.98,28.77-14.66,3.06-32.11-.17-38.07-16.77-14.42,15.38-37.75,25.15-56.9,21.11-4.89-1.03-10.09-3.54-14.82-5.39-2.08-.81-2.72-3.56-5.46-2.95-.06-1.62-1.44-2.71-2.81-3.95-7.94-7.19-12.72-16.31-16.61-26.35-12.15,19.88-31.32,31.26-53.51,34.18-15.76,3.46-34.7.02-39.26-19.4-12.5,11.28-27.58,17.85-44.32,19.73-14.53,2.7-31.04-1.08-36.69-17-13.42,14-30.81,22.19-49.68,22.25-5.98.02-13.41-3.04-18.95-5.12-3.39-1.27-9.55-5.4-11.96-8.08-4.32-4.8-10.01-12.3-12.94-18.07-3.72-7.3-4.63-16.16-6.02-24,5.78.79,11.7-.9,17.91-.96,7.19-.07,13.86-.24,21.01-1.16,4.95-.64,9.88,1.01,14.1-.91,1.01,6.26,6.05,13.1,10.3,17,3.93,3.6,7.59,3.93,12.62,3.71s7.96-3.83,11.88-6.5c3.12-2.13,4.36-4.08,7.15-7.19,6.08-6.76,9.54-14.98,13.18-24.11,1.69.43,3.53.97,5.8.87l44.51-1.95c-1.5,6.78-2.24,13.62-3.33,21.17-.53,3.66.72,10.7,4.47,11.88,10.04,3.18,18.33-4.46,20.27-12.99l5.44-23.93c7.22,2.09,19.34-.93,28.65.14,6.68-1.37,13.36-.04,19.98-1.1l6.79-1.09Z"/>
  <path class="cls-4" d="M592.05,260.93c-10.68,23.26-6.89,35.86-14.99,60.21-.37,1.11-1.73,1.84-2.4,2.72-4.43.33,1.79-6.8-1.55-15.92-1.62-4.42,1.58-8.08,1.57-11.76-.02-4.69-.08-8.42.13-13.2l.55-12.72c.19-4.3,3.18-9.51,1.09-13.69-1.6-3.2-.95-5.46-1.11-8.69-.03-.7-4.38-17.54-8.23-15.92.92-4.47.95-9.34,2.66-14.18,5.15-14.64-23.93-13.4-30.69-12.59-.42-9.41-6.07-14.28-6.97-21.06,12.41,4.73,26.7,4.51,37.84-3.16,9.14-6.29,12.65-17.47,7.44-26.79,2.04-.54,3.18,1.41,4.38,3.32,6.08,9.63,5.06,21.51.68,32.19l-4.3,10.48c-2.12,5.16-3.16,9.24-.7,14.61,9.11,19.89,8.06,20.19,12.62,40.24.52,2.29.26,4.65,1.99,5.92Z"/>
  <path class="cls-2" d="M690.94,259.98c-23.54.2-35.6,29.64-35.05,49.06.18,6.46-.88,12.75.66,18.55l3.53,13.28c-13.83,5.5-23.3-15.25-24.14-21.98-2.65-21.27,2.2-42.41,14.29-59.4,4.62-6.49,10.4-11.79,17.95-14.06,10.65-3.21,20.65,4.49,22.75,14.55Z"/>
  <path class="cls-2" d="M763.07,228.85c-.94,5.55-3.65,10.64-3.61,16.65.09,12.18,5.76,23.47,16.48,28.57.89,2.05-.25,3.52-1.74,5.2-10.81,12.22-14.01,31.59-11.38,46.51-1.93,8.67-18.44,14.75-22.16,8.57-2.75-4.56-2.26-10.95-1.38-16.21l3.55-21.19c3.85-23,9.51-45.85,13.22-68.93.11-.69,1.01-1.26,1.18-1.95,2.27-.05,4.47.95,5.84,2.77Z"/>
  <path class="cls-4" d="M690.94,259.98c3.81,5.83,3.49,12.88,3.72,19.14-4.57-.83-9.55-2.08-13.68.75-8.34,5.72-11.58,14.41-13.39,23.76-2.15,11.06-1.54,21.85,4.29,31.27-3.93,2.58-6.88,7-11.79,5.97l-3.53-13.28c-1.54-5.8-.48-12.09-.66-18.55-.56-19.42,11.51-48.86,35.05-49.06Z"/>
  <path class="cls-3" d="M694.66,279.12c.2,5.51.08,10.39-1.47,14.88-.31-2.58-2.84-2.95-4.79-3.08-13.55-.89-17.28,28.47-9.37,36.28-2.7,3.45-3.89,5.55-7.15,7.7-5.83-9.42-6.43-20.21-4.29-31.27,1.81-9.35,5.05-18.04,13.39-23.76,4.13-2.83,9.11-1.58,13.68-.75Z"/>
  <path class="cls-4" d="M702.2,219.07l-.8,10.86c-.05.68-.86,2.05-1.29,2.03-4-3.45-7.07-9.96-11.95-12.58,4.63-.84,9.35-.04,14.04-.31Z"/>
  <path class="cls-4" d="M343.96,374.23c5.54,2.07,12.97,5.13,18.95,5.12,6.42,10.72,25.26,18.21,38.55,14.42,4.91-1.4,9.88-2.18,14.68-4.53,22.17-10.88,43.17,4.31,60.77,1.6,24.45-3.77,26.05-12.75,54.66-4.54,17.05,4.89,24.12,7.09,41.18.47,6.66-2.59,16.11-11.5,22.45-14.48,3.47-1.63,7.27-1.65,10.59-2.39,2.74-.61,3.38,2.14,5.46,2.95,4.73,1.85,9.93,4.36,14.82,5.39,3.8,5.29,25.67,18.6,33.68,16.89,3.05,2.12,6.48,2.44,9.35-.1,6.34.36,12.14-1.64,17.7-4.1,20.24-8.96,34.38-.57,52.14.93,17.26,1.46,33.76-6.99,41.17-22.36,3.56-7.39,1.6-14.71-2.69-20.94-1.48-2.15-2.75-4.27-5.4-3.43,4-5.31,7.6-11.89,10.43-17.89,2.33-.07,3.79,2.41,6,3.46,10.41,4.99,15.22,16.05,11.32,27.2-1.83,5.23-3.47,10.75-6.21,15.63-5.96,10.64-15.75,18.24-26.6,23.28-22.66,10.52-38.65,1.57-52.84,1.66l-8.09.06c-11.96.08-26.8,10.52-48.83,7-3.76-.6-8.06-1.62-11.37-3.39l-25.33-13.54c-22.07-11.8-35.98,14.77-66.51,13.18-5.21-.27-10.76-.64-15.73-2.13-35.92-10.77-47.1,5.44-71.61,1.98l-22.9-3.23c-2.49-.35-6.05.24-8.65.25-10.24.04-19.26,5.29-29.26,6.8-24.88,3.75-35.91-5.54-52.87-20.4,3.92,3.43-14.3-14.45-8.99-10.83Z"/>
  <path class="cls-4" d="M807.9,282.9c-2.12,10.41-22.99,4.42-27.1,17.72-2.93-.26-6.34-.16-9.53.41-2.37,8.94-3.21,17.97-8.45,24.74-2.63-14.92.56-34.29,11.38-46.51,1.49-1.68,2.63-3.15,1.74-5.2,9.94,4.73,20.84,8.82,31.97,8.83Z"/>
  <path class="cls-4" d="M1129.9,255.94c5.89,20.14-25.85,28.27-40.49,31.34-5.29,1.11-9.73,4-15.37,3.79-3.65-.13-6.03-2.24-6.04-6.16,0-6.51-.13-12.81.21-18.9,2.56-2.41,4.43-5.89,8.12-8.22,5.73,2.85,10.71,7.11,16.99,8.76,5.56,1.47,10.86-.83,16.17-1.73,7.84-1.33,14.18-4.42,20.41-8.88Z"/>
  <path class="cls-4" d="M1299.98,270.95c3.57,9.09,12.63,15.75,23.07,16.38,7.69.47,15.9.52,22.89-1.98,1.19,1.85.79,3.76-.04,5.1-1.43,2.31-3.19,2.87-5.87,2.58-8.23-.89-16.47-.71-24.4-2.9-13.25-3.66-24.42-7.3-34.73.74l-8.44,6.58c-34.15,26.62-48.35,10.55-68.13,20.24-2.51,1.23-5.09,3.45-7.52,5.09-7.65,5.14-12.88,25.93-15.81,35.18l-9.13,28.77c-3.93,12.39-4.13,14.02-12.96,25.1-3.86,4.84-8.35,7.36-14.91,7.48-5.47.1-8.87-1.82-12.17-6.18-4.81-6.34-4.88-11.91-4.04-20.16.38-3.72.34-7.13,3.58-9.69,3.91-3.09,5.24-8.04,7.76-11.38,9.19-12.2,13.56-27.46,18.13-42.71,4.99-16.62,10.8-32.5,13.72-49.05l1.96-3.8c1.93,1.15,2.7,2.37,4.14,2.7.15.72.36,1.43.63,2.12-1.66.18-1.52,2.25-1.71,3.86l-1.36,11.62c-.86,7.36-4.03,13.83-4.97,21.39-.17,1.39,1.94,5.42,3.12,3.89,6.83-8.85,13.75-16.86,22.98-23.3,1.2-.83,2.07-1.98,2.51-3.02,11.7,2.71,24.17,1.83,36.06-1.19,13.49-3.43,24.47-10.61,34.84-18.39,9.05-6.79,18.76-12.95,26.43-22.52,1.31,16.84,3.47,15.12,4.39,17.46Z"/>
  <path class="cls-4" d="M1398.87,261.14c6.98,14.38,24.84,23.72,39.42,15.14,8.53-5.02,15.68-12.02,21.7-19.23,6.65-3.09,13.82-5.29,19.86-10.14l16.18-12.99c14.16,6.44.41,24.78-6.55,32.62-10.2,11.49-22.9,20.61-38.31,23.35-7.22,1.28-13.65-.85-20.29-2.58l-22.31-5.8c-4.23-1.1-10.22-2.24-12.52-6.38-2.49-4.48.44-10.28,2.82-13.98Z"/>
  <path class="cls-5" d="M1459.99,257.05c-6.02,7.21-13.18,14.2-21.7,19.23-14.57,8.59-32.44-.76-39.42-15.14-.35-.86.08-2.26-.48-3.14,4.85.35,9.79-.3,14.6-.98,1.39,3.02,3.36,6.03,5.46,7.51,7.69,5.44,17.13-3.09,23.32-7.56,6.92,1.52,16.16-1.7,18.22.07Z"/>
  <path class="cls-4" d="M1534.79,234.2c-3.11.01-5.2-2.4-7.6-4.22-9.55-7.25.56-14.72,1.81-21,7.76-2.49,15.61-4.45,23-9.03.83-.51,3.71-.68,3.76.1-.2,6.05-4.57,10.27-7.63,14.98-4.39,6.76-8.76,13.02-13.35,19.16Z"/>
  <path class="cls-4" d="M191.97,460.95c-8.39-6.84-19.62.45-25.06,8.97-1.84,2.88-4.58,5.28-4.13,8.74-2.9-.2-7.35-1.31-8.49-3.95,2.27-7.93,7.1-14.68,12.57-20.85,3.96-4.47,9.17-6.76,14.27-9.94,5.84-3.65,15.09-3.65,18.47,3-.76,4.9-4.32,10.74-7.62,14.03Z"/>
  <path class="cls-2" d="M191.97,460.95c-4.04,9.55-19.19,20.66-29.2,17.71-.45-3.47,2.29-5.86,4.13-8.74,5.45-8.52,16.67-15.81,25.06-8.97Z"/>
  <path class="cls-4" d="M1271.11,257.92c-7.57,5.55-15.21,12.16-24.01,16.1-9.82,4.39-20.27,8.04-31.15,10.79-1.11.28-18.17-1.15-13.87-5.92,19.7-6.15,47.65-23.14,53.96-44.02,4.65-1.77,10.89,13.28,11.99,17.2,1.58,1.91,2.41,3.91,3.08,5.85Z"/>
  <path class="cls-5" d="M1269.16,276c-10.37,7.78-21.34,14.96-34.84,18.39-11.89,3.02-24.36,3.9-36.06,1.19-9.46-2.19-14.55-10.22-20.57-14.44-.27-.69-.48-1.39-.63-2.12,3.06-2.19,6.97-.46,10.91-.39,5.02.09,9.77-1.23,14.1.26-4.3,4.77,12.76,6.2,13.87,5.92,10.87-2.75,21.32-6.4,31.15-10.79,5.08,2.45,19.27.11,22.06,1.98Z"/>
  <path class="cls-4" d="M1237.08,226.99c.13,9.22-7,21.31-12.31,25.78-6.86,5.77-15.02,9.49-22.75,13.01-1.76-6.3-1.66-18.36-9.8-21.89,5.6-5.78,10.61-11.76,17.3-15.5,13.1,5.46,15.2,3.57,27.56-1.39Z"/>
  <path class="cls-4" d="M1125.24,243.8c-6.31,4.01-12.93,9.48-21.36,9.82-6.11.25-11.67-5.85-15.14-10.23l16.26-18.41,9.38,3.85c5.93,2.43,8.82,9.39,10.86,14.97Z"/>
  <path class="cls-2" d="M1202.02,265.77c-4.32,1.96-8.42,4.94-13.28,3.37-5.3-1.71-9.82-1.61-15.85,1.49.89-11.52,13.92-21.16,19.33-26.75,8.14,3.53,8.04,15.6,9.8,21.89Z"/>
  <path class="cls-3" d="M1237.08,226.99c-12.36,4.96-14.46,6.85-27.56,1.39,5.1-4.54,20.77-15.23,26.12-8.55,1.55,1.93,1.4,4.62,1.44,7.17Z"/>
  <path class="cls-4" d="M1193.95,222.09c-3.93,4.77-9.07,8.85-14.91,12.5-1.39-5.01.14-8.82.37-12.64,4.78-.86,10.08-2.01,14.55.14Z"/>
  <path class="cls-6" d="M380.72,258c-12.75,18.01-18.35,40.19-14.66,63.05-4.22,1.92-9.15.27-14.1.91-7.15.93-13.82,1.09-21.01,1.16-6.22.06-12.13,1.75-17.91.96-3.54-20.08.32-46.71,10.01-64.97l.74-.16c3.74,2.65,8.78.55,13.44.41l18.4-.54c8.51-.25,16.94-.88,25.08-.82Z"/>
  <path class="cls-6" d="M479.57,261.13c-2.91,13.86-5.01,27.91-8.07,41.75l-44.51,1.95c-2.27.1-4.1-.45-5.8-.87,1.21-3.03.8-7.02,2-10.96,1.33-4.38,1.03-8.71.91-14.03s.31-10.24-1.56-15.72c5.47-.66,11.45.94,17.11-.48,15.33-3.85,10.66,2.99,24.15-2.75,5.66,1.04,10.75,1.63,15.77,1.11Z"/>
  <path class="cls-2" d="M420.9,259.87c-20.06,1.16-28.14,15.72-34.37,32.78-1.16,3.18-.99,6.1-1.77,9.17-4.7,18.57.41,23.7,4.22,39.94-5.03.21-8.7-.11-12.62-3.71-4.25-3.9-9.29-10.74-10.3-17-3.69-22.86,1.91-45.04,14.66-63.05,5.41-7.65,17.75-16.4,28.33-12.1,6.2,2.52,10.09,8.1,11.85,13.97Z"/>
  <path class="cls-2" d="M492.92,322.94c-1.94,8.53-10.23,16.17-20.27,12.99-3.74-1.19-4.99-8.23-4.47-11.88,1.09-7.55,1.83-14.39,3.33-21.17,3.06-13.84,5.16-27.89,8.07-41.75l5.71-27.2c1.57.17,2.87,1.47,3.86,2.9,8.81,12.71,5.58,30.56,4.58,43.73l-2.86,37.44c-.16,2.1.28,4.58,2.05,4.95Z"/>
  <path class="cls-4" d="M420.9,259.87c.48,1.6,1.58,2.34,1.65,3.38,1.86,5.48,1.44,10.63,1.56,15.72-5.28-1.49-12.19-1.69-16.8,2.33-13.46,11.75-17.81,41.79-6.44,53.96-3.92,2.68-6.86,6.29-11.88,6.5-3.81-16.24-8.92-21.37-4.22-39.94.78-3.07.61-5.99,1.77-9.17,6.23-17.05,14.31-31.62,34.37-32.78Z"/>
  <path class="cls-4" d="M510.78,232.93l-12.42,66.08-5.44,23.93c-1.77-.36-2.21-2.85-2.05-4.95l2.86-37.44c1-13.17,4.24-31.01-4.58-43.73-.99-1.43-2.29-2.73-3.86-2.9,1.17-5.55,1.31-10.81,3.67-15.93,5.71,1.07,18.5,15.93,21.83,14.93Z"/>
  <path class="cls-4" d="M330.98,246.18c-3.01,3.36-4.85,9.03-7.2,12.77l-.74.16c-1.63-1.83-11.55-13.56-13.67-12.23.98-4.29,1.18-8.81,2.88-12.94,3.39-.62,14.58,11.58,18.73,12.24Z"/>
  <path class="cls-4" d="M431.98,219.06c-.19,3.93-.48,8.77-2.09,12.85-4.74-4.33-8.41-10.9-13.95-13.72,6.56-4.44,10.12,2.33,16.04.87Z"/>
  <path class="cls-3" d="M878.97,159.82c-1.51-6.87-6.32-13.43-13.12-16.46-1.62-.72-3.77-.29-3.94-2.13l15.24-12.16,43.88-21.87c8.02-2.1,40.43-11.12,45.11-4.31,2.88,4.2.4,9.96-2.52,13.68-9.83,12.53-33.25,22.35-46.65,32.36-6.52.1-11.32,3.97-17.01,6.12-6.87,2.6-14.13,3.8-21,4.78Z"/>
  <path class="cls-4" d="M803,267.57c-6.98-.25-24.37-5.03-25.48-16.95-.7-7.49.44-14.68,2.44-21.52,1.46-5,5.49-8.96,7.78-13.15,7.12,2.51,10.28,7.26,9.54,15.14-.55,5.93,4.47,29.86,5.72,36.48Z"/>
  <path class="cls-4" d="M861.92,141.22c.17,1.84,2.32,1.41,3.94,2.13,6.8,3.03,11.61,9.59,13.12,16.46-6.14,2.73-12.51,1.73-18.96,2.05-6.56.33-12.75-.49-17.16-5.86,5.78-6.2,11.48-12.21,19.06-14.79Z"/>
  <path class="cls-4" d="M868.9,175.82c.73,5.25-24.94,7.26-29.25,7.63-5.11.44-10.64,1.28-14.9-2.31-1.81-1.53-1.66-4.48-2.86-6.17,2.6-2.34,4.21-6.35,8.35-8.37,11.7,8.31,25.01,11.29,38.65,9.22Z"/>
  <path class="cls-4" d="M768.03,218.18l-4.09,10.6c-.28-.05-.59.08-.87.06-1.37-1.82-3.57-2.83-5.84-2.77-.51-3.23,1.38-6.06,1.98-9.07,2.92.61,5.82,1.34,8.82,1.18Z"/>
  <path class="cls-4" d="M1573.25,251.1c-3.91,4.6-23.95,20.72-30.62,15-1.57-1.35-1.43-6.19-.84-8.16,9.1-30.6,19.76-35.7,25.58-50.11,13.46,5.99,2.4,31.91,3.69,36.12l2.19,7.15Z"/>
  <path class="cls-4" d="M1453.56,242.3c-6.55,3.06-12.94.54-16.89-5-3.32-4.66-6.57-10.85-3.86-16.72,3.04-6.59,12.82-9.4,18.98-5.29,3.87,2.58,6.78,8.05,7.03,12.5.31,5.34-2.67,9.77-5.26,14.52Z"/>
  <path class="cls-4" d="M1419.01,237.97c8.19,11.29,12.35,11.75,22.76,19-6.19,4.46-15.63,12.99-23.32,7.56-2.1-1.49-4.07-4.5-5.46-7.51-1.9-4.12-2.43-8.72-2.91-13.1,4.37-.39,3.38-6.21,8.93-5.95Z"/>
  <path class="cls-4" d="M1486.11,225.29c-3.57,4.81-9.85,7.68-15.31,10.98-1.2-5.49,2.04-11.55.23-16.47-2.27-2.43,15.63,4.98,15.08,5.49Z"/>
  <path class="cls-3" d="M1419.01,237.97c-5.55-.26-4.56,5.55-8.93,5.95-.69-6.26,1.57-12.72,5.71-17.94,2.06,3.85,1.02,8.96,3.22,12Z"/>
  <path class="cls-2" d="M574.66,323.86c-1.75,6.85-8.1,11.74-15.46,12.94-4.59.75-8.45-2.11-9.13-6.84-.93-6.56.52-13.01,1.56-19.53l2.15-13.48,13.32-65c3.85-1.62,8.2,15.22,8.23,15.92.16,3.23-.5,5.49,1.11,8.69,2.09,4.18-.91,9.39-1.09,13.69l-.55,12.72c-.21,4.77-.15,8.51-.13,13.2.02,3.68-3.19,7.35-1.57,11.76,3.34,9.12-2.87,16.25,1.55,15.92Z"/>
  <path class="cls-4" d="M851.1,308.06c2.48-3.23,3.99-7.42,7.32-10.74,4.45-4.44,7.91-9.51,11.42-14.26,6.71-9.07,11.28-11.43,20.39-18.24,2.38.57,19.55-4.79,19.84,2.14.74,17.31-26.14,44.41-39.46,54.47-2.03,1.53-7.92.9-9.92-.34l-9.59-13.04Z"/>
  <path class="cls-4" d="M1667.47,259c4.44,3.54-2.81,17.39-6.38,19-15.74,18.06-38.68,9.96-58.32,4.39-11.19-3.17-17.25-2.8-26.7,3.67-9.38,2.3-18.86,3.86-23.18-5.63,13.46-6.34,25.38-14.89,36.21-26.89,5.79,16.3,20.06,25.45,36.35,23.08,15.96-2.32,32.71-5.76,42.03-17.62Z"/>
  <path class="cls-4" d="M1714.75,240.29c-7.11-1.62-13.19-11.56-8.68-20.27l5.8-11.19c8.1-1.52,15.81-4.5,23.37-8.64,1-.55,4.13-1.2,3.92.5-.63,5.11-3.5,9.33-6.51,12.82-.11.13-17.31,25.78-17.9,26.77Z"/>
  <path class="cls-3" d="M1128,359l9.53-34.51c1.02-3.69,2.35-7.04,2.49-10.56,1.89-3.93,4.52-7.76,8.09-11.41-.11,8.62-4.47,15.18-6.62,22.9-2.44,8.76-7.86,27.8-13.48,33.57Z"/>
  <path class="cls-4" d="M1337.15,272.15c-7.03,1.29-16.76,4.13-23.2-2.94-4.14-9.8.12-42.12,6.54-49.72,8.73-10.34,22.72-5.36,50.52-34.32,6.7-6.98,14.1-13.73,18.82-23.21,2.3-4.62,3.49-9.67,5.93-13.85.23,3.45,1.09,7.71-.2,11.71-5.55,17.2-28.4,49.56-41.7,61.09-5.13,4.45-9.99,9.42-14.36,14.48-8.7,10.08-4.09,26.24-2.35,36.76Z"/>
  <path class="cls-4" d="M1353.12,184.31c-7.44,4.84-13.99,10.29-21.9,13.52-3.83,1.57,4.03-13.05,2.37-10.67,7.99-11.46,14.67-22.78,23.58-32.99,2.66-3.05,24.93-27.79,29.01-22.32-5.25,23.4-17.73,36.52-33.06,52.46Z"/>
  <path class="cls-4" d="M1663.93,242.83l-6.82,7.22c-8.77,9.29-50.94,20.85-51.07.98,3.2-4.43,9.56-4.57,14.71-7.23,12.89-6.65,23.09-17.35,31.35-28.78,3.27.55,4.97,3.2,6.67,6.14,6.53,11.26,2.62,11.89,5.15,21.67Z"/>
  <path class="cls-4" d="M1756.93,250.91c.16.33-.05.84.07,1.19-7.28,4.51-13.12,10.68-21.67,14.11-2.31.93-8.45,2.49-9.6-.71-1.03-2.89-.88-9.57.44-12.41,2.48-5.35,4.14-11.29,7.4-16.66l18.47-30.41c15.79,15.54-2.32,29.81,4.89,44.88Z"/>
  <path class="cls-4" d="M1640.78,208.52c-6.51,11.28-16.63,19.14-29.02,23.53,6.23-10.66,16.86-21.91,27.83-25.65.92-.31,2.08.58,1.19,2.12Z"/>
  <path class="cls-4" d="M1762.98,263.85c4.51,5.19,4.23,13.18-.43,18.89-3.4,4.16-9.08,6.91-14.75,5.91-4.45-.78-10.6-3.24-12.04-8.17,10.01-3.94,18.42-10.62,27.23-16.64Z"/>
  <path class="cls-2" d="M605.77,369.88c-3.32.74-7.11.76-10.59,2.39-6.34,2.98-15.79,11.89-22.45,14.48-17.05,6.63-24.13,4.42-41.18-.47-28.6-8.2-30.21.77-54.66,4.54-17.6,2.71-38.59-12.47-60.77-1.6-4.8,2.35-9.77,3.13-14.68,4.53-13.28,3.78-32.13-3.7-38.55-14.42,18.87-.06,36.26-8.26,49.68-22.25,5.65,15.92,22.15,19.7,36.69,17,16.74-1.88,31.82-8.45,44.32-19.73,4.56,19.42,23.5,22.86,39.26,19.4,22.19-2.92,41.36-14.3,53.51-34.18,3.89,10.03,8.67,19.16,16.61,26.35,1.37,1.24,2.74,2.33,2.81,3.95Z"/>
  <path class="cls-2" d="M626.06,378.23c19.15,4.04,42.48-5.73,56.9-21.11,5.96,16.6,23.4,19.83,38.07,16.77,20.54-2.51,38.76-12.54,50.98-28.77,2.65-.85,3.92,1.28,5.4,3.43,4.3,6.23,6.25,13.54,2.69,20.94-7.4,15.37-23.91,23.82-41.17,22.36-17.75-1.5-31.89-9.89-52.14-.93-5.56,2.46-11.37,4.46-17.7,4.1-2.88,2.54-6.3,2.22-9.35.1-8.01,1.72-29.88-11.6-33.68-16.89Z"/>
  <path class="cls-3" d="M424.1,278.97c.12,5.32.42,9.65-.91,14.03-3.1-.8-6.28-3.67-9.86-1.45-10.75,6.66-10.46,26.11-8.65,29.78l3.33,6.74c-2.79,3.1-4.03,5.06-7.15,7.19-11.37-12.17-7.01-42.2,6.44-53.96,4.6-4.02,11.51-3.82,16.8-2.33Z"/>
  <path class="cls-2" d="M1198.26,295.58c-.44,1.03-1.31,2.18-2.51,3.02-9.23,6.44-16.15,14.45-22.98,23.3-1.18,1.53-3.29-2.5-3.12-3.89.94-7.56,4.11-14.03,4.97-21.39l1.36-11.62c.19-1.61.05-3.68,1.71-3.86,6.02,4.22,11.11,12.25,20.57,14.44Z"/>
</svg>