<?xml version="1.0" encoding="UTF-8" standalone="no"?>
<svg
   id="Layer_1"
   data-name="Layer 1"
   viewBox="0 0 419.65305 413.16907"
   version="1.1"
   sodipodi:docname="gloss.svg"
   width="419.65305"
   height="413.16907"
   inkscape:version="1.2.2 (b0a8486541, 2022-12-01)"
   xmlns:inkscape="http://www.inkscape.org/namespaces/inkscape"
   xmlns:sodipodi="http://sodipodi.sourceforge.net/DTD/sodipodi-0.dtd"
   xmlns="http://www.w3.org/2000/svg"
   xmlns:svg="http://www.w3.org/2000/svg">
  <sodipodi:namedview
     id="namedview11"
     pagecolor="#ffffff"
     bordercolor="#000000"
     borderopacity="0.25"
     inkscape:showpageshadow="2"
     inkscape:pageopacity="0.0"
     inkscape:pagecheckerboard="0"
     inkscape:deskcolor="#d1d1d1"
     showgrid="false"
     inkscape:zoom="1.5620438"
     inkscape:cx="193.97664"
     inkscape:cy="203.25935"
     inkscape:window-width="1920"
     inkscape:window-height="1020"
     inkscape:window-x="0"
     inkscape:window-y="32"
     inkscape:window-maximized="1"
     inkscape:current-layer="Layer_1" />
  <defs
     id="defs4">
    <style
       id="style2">
      .cls-1 {
        fill: #00befe;
      }

      .cls-2 {
        fill: #fefefe;
      }
    </style>
  </defs>
  <path
     class="cls-1"
     d="m 193.19431,220.15281 -18.84,11.69 -30.36,-22.78 -19.95,-15.05 -19.63,-14.44 c -1.98,-1.46 -3.59,-4.05 -3.07,-6.04 0.68,-2.59 1.9,-4.91 5.04,-5.85 l 142.24,-42.82 158.57,-47.130001 c 4.39,-1.3 8.58,1.92 10.26,4.42 1.85,2.75 3.41,8.62 0.87,11.91 l -78.68,101.980001 c -13.27,17.2 -26.1,33.46 -40.38,49.71 -4.56,5.18 -7.14,11.84 -6.1,19.21 l 14.99,105.68 3.98,30.94 c 0.45,3.51 -2.3,7.16 -4.06,8.92 -2.34,2.34 -7.23,3.18 -10.77,2.36 -4.08,-0.95 -6.89,-3.54 -10.18,-6.06 l -59.85,-45.97 -26.48,-19.69 c -3.71,-2.76 -9.81,-3.7 -14.32,-0.82 -9.03,5.76 -17.33,12.09 -26.14,18.76 l -66.990001,50.74 c -4.32,3.27 -9.53,4.43 -14.33,1.76 -3.98,-2.22 -6.74,-7.41 -5.87,-13.01 l 19.77,-126.94 c 1.89,-12.16 0.04,-21.43 -9.62,-29.06 l -77.99,-61.55 c -3.43,-2.71 -5.64999995,-5.27 -5.25999995,-9.8 0.24,-2.72 2.32999995,-7.3 6.31999995,-8.37 l 106.680001,-28.82 c 9.66,-2.61 20.02,-13.14 23.98,-22.17 l 46.13,-105.0800012 c 1.75,-3.99 4.86,-6.43000004 8.94,-6.76000004 2.98,-0.25 8.25,1.56000004 9.86,5.19000004 l 21.4,48.5400002 24.72,57.360001 -41.69,13 -104.38,31.38 c -7.200001,2.16 -11.950001,8.78 -13.280001,14.45 -1.78,7.59 1.1,15.43 7.41,20.1 l 70.070001,51.96 c -0.7,3.83 -3.08,6.49 -4.9,9.88 l -37.4,69.43 c -5.31,9.85 -10.34,18.81 -15.26,28.85 -1.51,3.09 -0.08,8.87 3.35,9.11 4.1,0.29 6.29,-3.84 8.49,-6.13 l 18.22,-18.93 c 7.04,-7.31 14,-14.41 21.39,-21.41 l 23.67,-22.46 c 4.93,-4.68 8.89,-9.62 15.71,-13.31 l 30.51,42.94 c 8.16,11.49 15.7,22.6 24.45,33.53 2.33,2.91 4.86,4.33 8.43,2.52 2.43,-1.23 3.64,-4.8 1.94,-7.97 -5.16,-9.64 -11.71,-17.97 -18.02,-26.91 l -15.73,-22.28 -22.25,-30.93 21.41,-23.31 31.54,-32.43 33.39,-34.5 18.52,-19.22 c 1.51,-1.57 0.4,-4.97 -0.52,-6.16 -1.15,-1.48 -4.51,-2.4 -6.7,-1.11 l -24.54,14.4 -65.01,39.87 -23.73,14.71 z"
     id="path8" />
</svg>
