<?xml version="1.0" encoding="UTF-8"?>
<svg id="Layer_1" data-name="Layer 1" xmlns="http://www.w3.org/2000/svg" viewBox="0 0 216 212">
  <defs>
    <style>
      .cls-1 {
        fill: #d5c9b4;
      }

      .cls-2 {
        fill: #eedcbf;
      }

      .cls-3 {
        fill: #25323c;
      }

      .cls-4 {
        fill: #1e2831;
      }

      .cls-5 {
        fill: #1b5155;
      }

      .cls-6 {
        fill: #3d3e34;
      }

      .cls-7 {
        fill: #e4a785;
      }

      .cls-8 {
        fill: #ecccb1;
      }

      .cls-9 {
        fill: #14222e;
      }

      .cls-10 {
        fill: #807b65;
      }

      .cls-11 {
        fill: #b99c82;
      }

      .cls-12 {
        fill: #10202d;
      }

      .cls-13 {
        fill: #f2e0c1;
      }

      .cls-14 {
        fill: #1b4e53;
      }

      .cls-15 {
        fill: #232b32;
      }

      .cls-16 {
        fill: #1e2932;
      }

      .cls-17 {
        fill: #efaa86;
      }

      .cls-18 {
        fill: #f4ae8a;
      }

      .cls-19 {
        fill: #cb553b;
      }

      .cls-20 {
        fill: #ea622a;
      }

      .cls-21 {
        fill: #f0debf;
      }

      .cls-22 {
        fill: #1a4a50;
      }

      .cls-23 {
        fill: #e3caa4;
      }

      .cls-24 {
        fill: #f1aa85;
      }

      .cls-25 {
        fill: #0f202e;
      }

      .cls-26 {
        fill: #1c5155;
      }

      .cls-27 {
        fill: #1d4f54;
      }

      .cls-28 {
        fill: #1d5257;
      }

      .cls-29 {
        fill: #1b4d52;
      }

      .cls-30 {
        fill: #e6622a;
      }

      .cls-31 {
        fill: #17252f;
      }

      .cls-32 {
        fill: #1c4e52;
      }

      .cls-33 {
        fill: #1b4b50;
      }

      .cls-34 {
        fill: #293238;
      }

      .cls-35 {
        fill: #0d212f;
      }

      .cls-36 {
        fill: #1c4e53;
      }

      .cls-37 {
        fill: #16242f;
      }

      .cls-38 {
        fill: #371c2d;
      }

      .cls-39 {
        fill: #182630;
      }
    </style>
  </defs>
  <path class="cls-23" d="M142,71c-.89,5.73-.91,12.24,0,18,3.96,3.39,8.61,9.24,6.72,14.71l-3.35,9.71c-1.36,3.95-5,6.67-6.62,10.01-1.86,3.82-4.17,5.67-7.63,7.83-3.83,2.39-6.96,6.02-11.25,7.03-.68,1.61,1.04,2.52,5.15,2.72,2.97,1.45,6.28,2.5,10.38,3.3l4.53-15.3c1.13-3.82,4.23-6.48,8.48-6.61,5-.15,9.71-1.51,14.67-2.13l23.22-2.91c3.81-.48,8.84-.97,12.55.04,4.64,1.26,2.91,7.09,1.98,10.29l-12.22,41.91c-.54,1.84-1.81,3.26-1.64,5.46.6,7.88-10.97,8.66-19.73,10.1l-46.32,7.62c-6.44,1.06-19.58,3.39-24.6,1.76-19.96-6.48-39.16-13.17-59.38-18.39-3.42-.88-2.18-6.02-2.5-8.1-.45-2.95-3.04-5.96-3.24-9.17.39-16.1,16.67-36.69,32.46-41.53-11.73-3.23-17.94-13.97-14.88-24.58.94-3.26,1.8-5.2.2-8.75-3.99-8.86-4.38-18.99.18-27.49-1.21-1.05-2.77-1.52-3.34-2.56,2.18-7.74,7.22-13.88,14.31-17.21-1.7-3.09-2.91-5.36-1.55-8.47,14.25,5.37,22.12-8.44,42.26-10.23,16.02-1.42,21.91,5.27,23.78,5.84.88.27,1.62-1.69,2.73-1.6,2.75.23,6.58,1.53,8.84,3.58,8.12,7.37,7.59,19.78.02,27.37,4.16,5.59,5.79,11.02,5.79,17.75Z"/>
  <path class="cls-6" d="M125,141c-3.16-.52-6.26.47-10,.92-.02-2.86,2.89-3.18,4.85-3.64-1.1,1.76,1.38.87,5.15,2.72Z"/>
  <path class="cls-10" d="M142,89c-.45-.38-1.07-.79-1.07-1.93l.04-14.12c0-1.04.25-2.03,1.02-1.95v18Z"/>
  <path class="cls-25" d="M185.43,174.52c.36,2.56-1.83,5.21-4.42,5.64l-76.01,12.68c-4.53.76-8.47-.64-12.67-2.12-17.93-6.31-35.62-12.25-53.89-17.03-3.38-.88-.75-5.19-1.51-6.74-2.31-4.74-4.53-9.04-2.49-14.71,3.66-10.2,9.92-19.38,18.38-26.29,11.12-9.08,17.5-4.02,16.07-10.39-.85-3.8-11.25,2.08-17.24-10.96-2.61-5.68-1.93-11.56,2.37-16.62-6.35-10.83-8.66-22.28-.95-33.33-1.04-.89-2.41-1.06-4.05-2.12,1.91-6.84,7.6-11.41,14.32-14.09-.73-2.78-2.4-3.88-2.57-7.13,15.22,3.42,22.84-10.47,43.12-11.48,10.84-.54,20.74,3.8,25.21,13.89.59-2.92-.34-5.51-.58-8.98,6.3.76,10.76,6.39,11.53,11.94.91,6.6-1.73,12.48-7.43,16.42,13.11,13.18,3.61,20.43,7.12,37.06,6.51,3.42,8.31,10.62,5.78,17.68-5.22,14.55-18.12,25.86-32.78,31.03-.81,1.18.94,5.02,2.35,4.98,13.04-.45,2.68-2.82,21.87,3.12l4.58-16.3c1.38-4.9,4.9-6.01,9.54-6.62l43.91-5.83c1.36-.18,2.92.33,3.63.76.86.51,1.98,2.45,1.53,4.06l-13.09,45.99c-.53,1.88-2,2.84-1.62,5.51Z"/>
  <path class="cls-18" d="M136.8,76c-.63,5.22-.77,10.79.24,15.97,5.55,1.52,8.33,7.7,6.35,13.89-3.71,11.6-12.75,21.35-23.79,26.98-10.18,5.2-21.49,4.91-32.37-.89-7.72-4.11-14.28-12.34-16.52-22.77-4.41,2.73-8.88,2.5-12.48-.5-4.18-3.48-6.33-9-4.76-14.3.87-2.96,3.2-4.84,5.2-5.35,6.6-1.71,8.88,5.17,12.2,8.76,8.17-3.41,1.82-13.27,1.61-18.18-.53-11.93,7.28-22.1,16.05-26.73,12-6.34,22.97-2.97,33.14,2.84,3.9,2.23,10.38.05,12.78,7.54,1.19,3.72,2.3,8.43,2.37,12.73Z"/>
  <path class="cls-28" d="M134.53,178.91c-1.63.27-2.65-.35-2.95-.92s-.52-1.57-.22-2.63l13.02-44.95c.91-1.92,2.42-3.21,4.62-3.48l49.01-6.07-12.9,46.27c-.65,2.35-2.36,3.86-4.73,4.31l-45.86,7.48Z"/>
  <path class="cls-38" d="M69.89,89.76c-3.77-3.73-8.36-4.45-13.2-4.15-7.61-9.67-6.26-24.82,1.92-34.13-2.31-.9-3.77-.21-4.97-1.39,3.59-6.74,10.23-8.64,17.23-9.28-1.71-2.14-3.86-2.35-4.76-5.35,4.94-.48,9.14-2.32,13.55-4.56,11.73-5.96,25.79-11.81,38.29-4.99,6.02,3.29,8.24,9.27,6.97,16.39,5.84-.71,7.67-6.02,8.48-11.47,3.94,2.63,4.21,7.38,3.31,12.08-.83,4.35-9.1,12.46-18.82,7.03-11.94-6.68-26.43-4.48-36.71,3.78-10.44,8.4-14.36,21.5-11.29,36.02Z"/>
  <path class="cls-20" d="M71.69,150.21c-2.77.88-5.78-.8-8.83-1.63,1.17-3.48,2.92-6.12,2.3-9.89-3.38,3.08-4.05,6.87-6.49,10.1-4.18-.24-8.17-.85-11.88.75,3.74,2.39,6.81.5,10.64,2.08-4.39,4.15-5.68,9.39-4.38,15.47-4.47.69-8.84-.33-12.69-2.53s-4.82-6.61-3.36-10.74c5.03-14.15,18.44-32.87,34.95-32.18-.24,6.84,1.01,12.63,5.32,17.04,5.25,5.39,13.18,5.93,18.59.54,4.24,1.03,7.88.44,12.15.88,1.79.19,3.92,3.96,3.16,5.53-1.37,2.85-4.17,4.63-6.23,6.99-1.44-2.49-.09-4.65-.2-7.5-1.97.95-2.01,2.82-3.32,4.64-5.46-3.57-11.5-5.34-17.87-3.32l-11.85,3.76Z"/>
  <path class="cls-24" d="M88.21,155.14c.19,2.18,8.22,9.2,3.85,12.48-2.27,1.7-5.28-6.06-9.33-7.73-4.26,3.79-9.32,7.9-15.33,6.77-2.53-.48-3.51-3.32-3.4-5.16.12-1.96,1.03-5.01,3.46-6.2,6.51-3.18,13.56-5.73,20.99-6.89,10.22-1.59,20,10.45,15.62,14.11-2.22,1.86-3.36-9.04-9.93-9.59,10.79,13.58,3.2,13.83,2.86,13.2-2.23-4.1-2.92-9.5-8.8-11.01Z"/>
  <path class="cls-26" d="M66.52,178.96c-1.15-.39-1.27-1.15-1.52-1.43-.37-.42.2-2.57,1.05-2.28l30.24,10.39c3.61,1.24,6.97,1.19,10.85.55l72.98-11.95c1.47-.24,2.56-.07,2.6,1.24.02.69-.48,1.97-1.95,2.21l-79.5,13.16-34.75-11.89Z"/>
  <path class="cls-17" d="M122.88,159.98c-.86-.68-1.43-.36-1.79.75-.53.58-.95,1.23-1.66,1.24-4.01.07-4.59-5.59-7.14-5.84-.75.12-4.58,1.65-4.22-.43,1.02-5.94,8.41-11.22,14.95-10.52,7.49.8,13.45,11.37,8.08,17.44-2.24-5.32-1.17-11.98-7.8-13.51,2.19,3.37,4.44,6.42,4.38,10.54-.02,1.52-1.66,2.89-2.98,2.35-.65-.26-1.13-1.38-1.83-2.03Z"/>
  <path class="cls-5" d="M101.06,180.59c8.81.95,27.58-6,26.96-2.21-.48,2.89-24.47,5.54-27.06,5.21-12.26-1.58-23.05-8.5-35.47-11.18,2.53-3.22,5.5-2.54,8.39-3,2.5,3.23,23.29,10.77,27.19,11.19Z"/>
  <path class="cls-30" d="M63.04,168.13c-2.15,1.38-5.2.17-6.47-1.27-1.72-1.96-1.77-4.76-1.16-7.21,1.32-5.35,5.74-9.52,11.56-7.14-5.16,3.52-8.16,9.1-3.93,15.62Z"/>
  <path class="cls-7" d="M92.03,138.33c-1.19,1.18-2.65,1.42-4.36,2.24-5.94-.61-11.29-4.76-11.59-11.76,4.57,4.61,8.97,7.95,15.95,9.53Z"/>
  <path class="cls-29" d="M98.95,172.09c-3.88,1.25-7.74,2.01-11.93-.61,3.75-1.55,8.26-2.63,11.93.61Z"/>
  <path class="cls-33" d="M111.05,169.38c-3.13,2.19-7.18,2.24-10.54.35,2.95-1.97,6.61-2.46,10.54-.35Z"/>
  <path class="cls-14" d="M108.94,176.34c-3.46,1-7.32,2.13-10.72-.6,3.24-1.33,6.95-2.92,10.72.6Z"/>
  <path class="cls-33" d="M122.64,167.94c-2.61,1.65-5.59,1.58-8.92.34,2.19-2.56,6.32-3.3,8.92-.34Z"/>
  <path class="cls-22" d="M120.01,174.09c-3.31,1.15-6.78,1.85-9.96-.42,3.19-1.8,6.96-2.47,9.96.42Z"/>
  <path class="cls-15" d="M122.88,159.98c-.51.28-1.37.3-1.79.75.12-3.33-2.2-6-3.93-9.56,4.21.34,5.78,5.27,5.72,8.82Z"/>
  <path class="cls-29" d="M130.47,170.9c-1.79,3.69-6.18,2.68-8.22.56,2.46-1.39,5.11-2.11,8.22-.56Z"/>
  <path class="cls-8" d="M137.04,91.97c-1.88-.52-1.25-16.89-.24-15.97l.24,15.97Z"/>
  <path class="cls-32" d="M113.46,163.79c-.26,1.48-5.6,2.18-5.92.2-.37-2.34,3.95-2.2,5.92-.2Z"/>
  <path class="cls-27" d="M131.48,164.6c.39,1.22-1.09,2.73-1.95,2.78-1.66.1-3.21.16-4.37-1.71,1.88-.73,4.28-2.21,6.32-1.07Z"/>
  <rect class="cls-36" x="79" y="167" width="7" height="2"/>
  <path class="cls-11" d="M134.97,152.07c-1.19-1.03-2.27-2.26-2.27-3.76,1.3.04,2.45.76,2.75,1.4s.11,1.65-.48,2.36Z"/>
  <path class="cls-12" d="M125.32,113.25l-6.44,10.61c-2.66,4.38-7.58,6.47-12.43,6.53-13.28.16-19.47-12.72-20.6-25.58-.53-.83-1.71.89-3.37.84.09-4.4,5.46-6.74,9.25-5.28-.49,1.14-1.07,1.61-1.08,2.09-.13,3.77,28.81,14.15,40.23,5.24.59,4.19-4.15,3.24-5.55,5.55Z"/>
  <path class="cls-37" d="M118.86,92.08c-.16-1.06.26-1.41,1.28-1.05.61-.31,1.15-.51,1.4-.32.94.7.12,3.21,0,.13-.3-7.46,1.92-9.74,8.62-5.79.63.37-3.28-14.01-7.77-2.22l-2.31.12c-1.44,1.19-1.54.7-1.21-1.04.43-3.95,2.84-7.1,5.74-7.77,3.45-.8,6.37,1.02,7.98,4.28,3.13,6.33,2.22,13.61-1.62,19.54.99,4.25-1.35,6.84-5.01,8.05-3.21,1.07-7.02,1.72-8.94-1.85,4.29.59,8,.69,11.09-1.92,1.05-.89,1.08-2.53.82-3.65-.71-3.1-8.12-1.27-10.84-2.16-.06-1.46,1.32-3.13.8-4.36Z"/>
  <path class="cls-9" d="M89.73,66.32c-1.27,2.08-3.39-.51-4.86-1.89-3.94,3.42-6.03,8.75-6.51,14.1,1.56,1.03,3.24.45,4.85,2.19-1.3,2.29-5.51,2.06-8,.48-.54-14.03,10.89-27.92,25.58-28.32,3.06-.08,5.83-.11,6.17,2.63.23,1.84-.19,5.99-3.05,5.36-1.14-.25.05-4.57-1.86-4.67-5.01-.27-10.46,1.6-13.97,4.96-1.28,1.38,2.67,3.52,1.65,5.17Z"/>
  <path class="cls-16" d="M108.88,78.16c5.8,8.14,4.17,21.25-3.1,23.06-1.98.49-5.25.12-7.2-1.8-5.75-5.69-5.86-15.29-.85-21.64,2.96-3.75,8.47-3.38,11.16.38Z"/>
  <path class="cls-39" d="M108.81,70.86c-6.66-1.98-11.97-.61-16.42,4.89-1.06-4.78,2.11-9.97,6.92-11.02,3.9-.86,8.22,1.92,9.5,6.13Z"/>
  <path class="cls-31" d="M133.01,69.99c-4.14-2.11-8.01-3.22-12.6.09-1.15-3.52,2.29-7.14,5.39-7.51,3.59-.43,7.84,2.16,7.21,7.42Z"/>
  <path class="cls-4" d="M63.61,105.29c-1.77,1.18-2.83-1.32-3.27-2.45-.66-1.71.41-3.58,1.36-5.25-1.44-1.35-3.21-.12-4.9-.41.63-3.63,4.23-3.9,6.6-2.31,1.51,1.01,3.41,3.35,2.93,5.62-1.57-.3-2.94-.54-3.21.3-.39,1.2.18,2.27.49,4.51Z"/>
  <path class="cls-34" d="M120.07,82.96c3.36.28,1.95,7.05.07,8.08-.46.3-.89.66-1.28,1.05-1.46-3.47-1.47-7.25-.01-10.17.38.38.78.73,1.21,1.04Z"/>
  <path class="cls-35" d="M170.42,144.91c2.21,2.4.65,6.17-.79,8.1-1.12,1.51-3.66,4.03-6.69,2.73s-2.05-5.79-.76-8.19c1.36-2.54,5.31-5.81,8.24-2.63Z"/>
  <path class="cls-21" d="M120.31,113.64c-.41,10.94-32.31.53-29.12-6.46,9.26,4.71,18.95,6.86,29.12,6.46Z"/>
  <path class="cls-19" d="M102.83,120.85c1.46.72,4.19-.65,5.22.81.83,1.17,3.89,4.22,1.94,5.21-6.63,3.38-14.07-1.54-17.3-7.93,3.74-2.41,6.49.11,10.13,1.91Z"/>
  <path class="cls-2" d="M120.14,91.03l-.07-8.08c1.48-2.56,2.69-7.82,7.18-6.53,6,1.72,6.48,15.22,1.89,18.96l-.34-8.27c-.06-1.44-1.25-2.12-2.22-2.17-5.48-.33-2.68,7.9-4.2,9.03-1.87-.67-1.49-2.19-2.23-2.94Z"/>
  <path class="cls-13" d="M109.22,84.92c.54,2.47.11,3.49-1.28,3.06-2.94.14-4.31,1.54-4.09,4.2.88,2.64.67,4.6-.65,5.88-6.96.55-8.37-13.36-3.53-19.01,1.99-2.32,5.48-1.3,7.25.23,1.66,1.43,1.52,3.66,2.29,5.63Z"/>
  <path class="cls-3" d="M107.94,87.98l1.06.26v7.76c-.53,1.67-1.52,2.54-2.66,2.84-1.03.27-2.2-.17-3.14-.77-1.49-3.15-2.65-10.21,1.67-11.47.91-.27,2.05.67,3.07,1.38Z"/>
  <path class="cls-1" d="M109,96c-2.04-1.74-.72-5.58-1.06-8.02.45-.81,1.5-1.9,1.28-3.06,1.51,3.89.88,7.57-.22,11.08Z"/>
</svg>