<?xml version="1.0" encoding="UTF-8" standalone="no"?>
<svg
   id="Layer_1"
   data-name="Layer 1"
   viewBox="0 0 153.86705 177.3775"
   version="1.1"
   sodipodi:docname="marscast.svg"
   width="153.86705"
   height="177.3775"
   inkscape:version="1.2.2 (b0a8486541, 2022-12-01)"
   xmlns:inkscape="http://www.inkscape.org/namespaces/inkscape"
   xmlns:sodipodi="http://sodipodi.sourceforge.net/DTD/sodipodi-0.dtd"
   xmlns="http://www.w3.org/2000/svg"
   xmlns:svg="http://www.w3.org/2000/svg">
  <sodipodi:namedview
     id="namedview85"
     pagecolor="#ffffff"
     bordercolor="#000000"
     borderopacity="0.25"
     inkscape:showpageshadow="2"
     inkscape:pageopacity="0.0"
     inkscape:pagecheckerboard="0"
     inkscape:deskcolor="#d1d1d1"
     showgrid="false"
     inkscape:zoom="3.34375"
     inkscape:cx="76.859813"
     inkscape:cy="98.542056"
     inkscape:window-width="1920"
     inkscape:window-height="1020"
     inkscape:window-x="0"
     inkscape:window-y="32"
     inkscape:window-maximized="1"
     inkscape:current-layer="Layer_1" />
  <defs
     id="defs4">
    <style
       id="style2">
      .cls-1 {
        fill: #7baebb;
      }

      .cls-2 {
        fill: #0d2d3e;
      }

      .cls-3 {
        fill: #fa9d83;
      }

      .cls-4 {
        fill: #fefefe;
      }

      .cls-5 {
        fill: #6b2034;
      }

      .cls-6 {
        fill: #dd5c4f;
      }
    </style>
  </defs>
  <path
     class="cls-2"
     d="m 139.61817,4.24 c 2.58,2.59 1.25,8.38 -2.48,9.53 -4.3,1.33 -7.18,-0.33 -8.36,6.63 3.94,2.86 8.51,6.84 11.59,10.59 1.01,1.23 4.08,4.45 3.05,6.04 -1.95,3.03 -13.4,4.22 -16.96,3.86 -2.21,-0.23 -14,-3.35 -14.59,-2.9 -4.05,3.13 7.21,10.33 9.54,12.96 51.41,58.18 -22.910004,136.88 -81.460004,92.46 -55,-41.72 -11.15,-128.7 56.14,-109.14 3.27,0.95 6.050004,4.11 9.810004,2.26 2.77,-2.13 -1.07,-4.27 -1.04,-6.03 0.02,-1.39 1.92,-2.42 1.83,-3.83 -0.09,-1.41 -2.35,-4.59 -2.73,-7.26 -0.38,-2.67 -0.35,-18.67 2.44,-19.41 5.06,0.1 14.5,15.03 17.96,15.01 6.73,-0.05 4.76,-8.77 6.49,-10.53 1.73,-1.76 7.01,-2.01 8.79,-0.23 z m -23.76,26.76 c 3.94,3.81 14.2,6.45 19.33,4.82 4.39,-1.39 -0.67,-4.63 -3.33,-4.82 -0.59,-1.51 -1.3,-2.85 -2.5,-4 -6.73,-6.39 -13.89,-12.47 -20.49,-19 -0.73,7.51 1.41,17.61 6.99,23 z M 25.858166,72 c -4.02,5.23 -4.77,13.6 -5,20 -0.05,1.32 -0.05,2.68 0,4 0.11,3.21 0.61,4.51 1,7 0.3,1.9 0.65,2.58 1,4 0.74,3.03 0.85,3.93 2,7 0.74,1.98 1.38,2.65 2,4 1.5,3.24 1.68,4.53 4,8 0.99,1.47 1.86,2.64 3,4 2.74,3.27 9.19,10.65 13.54,10.97 3.41,0.25 7.85,-2.66 11.07,-2.94 2.75,-0.24 4.85,1.1 7.45,0.58 0.58,-0.12 9.38,-6.36 9.71,-6.85 0.48,-0.72 0.09,-1.42 0.22,-1.76 5.24,0.33 10.73,-0.07 16,0 6.2,0.09 23.620004,1.19 28.320004,0.04 0.99,-0.24 2.06,-3.68 1.68,-4.03 -5.63,-0.22 -11.37,0.29 -17,0 -0.07,0 -0.29,-0.97 -1,-1 -1.33,-0.06 -2.67,0.05 -4.000004,0 1.330004,-8.14 -2.83,-3.57 -4.89,-5.15 -0.46,-0.35 0.04,-1.47 -0.11,-1.85 7.650004,-0.12 15.350004,0.17 23.000004,0 3.28,-0.07 6.6,0.23 9.86,-0.14 0.7,-1.17 0.66,-2.63 1.14,-3.86 1.04,-2.68 1.36,-4.3 2,-7 0.33,-1.37 0.73,-2.37 1,-4 0.42,-2.56 0.87,-4.2 1,-7 0.06,-1.32 0.04,-2.68 0,-4 -0.36,-12.93 -5.34,-25.06 -13.58,-34.95 -0.78,-0.94 -2.28,-0.89 -2.42,-1.05 -3.8,-4.3 -5.32,-7.52 -11,-11 -29.020004,-17.76 -68.220004,-4.8 -80.000004,27 z m 59.01,64.01 c -0.17,1.47 -0.16,4.48 1.51,4.98 4.55,1.39 5.1,-6.64 -1.51,-4.98 z"
     id="path8" />
  <path
     class="cls-1"
     d="m 105.84817,174.01 c 0.28,1.29 -1.86,1.61 -2.73,1.74 -14.750004,2.22 -35.850004,2.07 -50.690004,0.15 -1,-0.13 -3.04,-0.5 -3.58,-1.41 l 10.46,-2.53 c 15.49,0.74 31.39,-1.7 46.530004,2.05 z"
     id="path10" />
  <path
     class="cls-2"
     d="m 47.858166,19.01 c 2.63,3.67 -10.23,4.76 -12,5.49 -4.06,1.67 -9.05,7 -11.19,10.81 -1.08,1.92 -4.57,15.01 -7.34,10.72 -5.5,-8.51 11.24,-24.29 19.31,-26.75 2.32,-0.71 9.81,-2.23 11.22,-0.27 z"
     id="path12" />
  <path
     class="cls-2"
     d="m 33.858166,10.01 c 0.87,5.57 -6.08,6.38 -10.52,9.97 -2,1.62 -6.47,6.05 -7.91,8.09 -2.05,2.89 -4.77,14.05 -8.5800004,11.46 -3.51,-2.38 4.5800004,-14.14 6.5100004,-16.54 4.51,-5.61 12.94,-13.51 20.51,-12.98 z"
     id="path14" />
  <path
     class="cls-2"
     d="m 44.838166,28.03 c 0.1,0.07 -0.18,1.33 0.34,1.68 1.08,0.73 4.8,-0.25 2.24,3.35 -0.85,1.2 -7.27,0.77 -10.48,3.52 -2.64,2.26 -4.75,10.97 -7.56,10.42 -6.67,-1.31 3.49,-15.22 8.8,-17.26 2.35,-0.9 4.39,0.21 4.56,0.05 0.21,-0.2 -0.05,-3.27 2.1,-1.76 z"
     id="path16" />
  <path
     class="cls-2"
     d="m 2.5581656,88.11 c 4.16,-1.04 6.07,5.67 1.61,6.78 -4.16000005,1.04 -6.07,-5.67 -1.61,-6.78 z"
     id="path18" />
  <path
     class="cls-2"
     d="m 147.85817,94 c -0.28,-0.28 -0.1,-4.17 0.47,-5.02 1.95,-2.95 7.11,1.26 5.07,4.07 -0.81,1.17 -5.23,1.27 -5.54,0.95 z"
     id="path20" />
  <path
     class="cls-2"
     d="m 21.468166,142.09 c 3.71,-1.14 6.04,2.61 3.43,4.44 -3.91,2.74 -7.31,-3.24 -3.43,-4.44 z"
     id="path22" />
  <path
     class="cls-2"
     d="m 133.85817,142 c 0.89,6.81 -5.85,6.94 -5.01,0 z"
     id="path24" />
  <path
     class="cls-5"
     d="m 132.85817,92 c -10.87,1.36 -26.2,-1.83 -36.490004,0 -3.84,0.68 -3.29,3.57 0.95,4.04 11.020004,1.23 24.280004,-1.01 35.550004,-0.05 -0.13,2.8 -0.58,4.44 -1,7 -2.33,0 -4.67,0 -7,0 -2.83,0 -15.49,-0.9 -15.99,1.52 -0.79,3.74 11.41,2.49 13.99,2.48 2.58,-0.01 5.34,0 8,0 -0.64,2.7 -0.96,4.32 -2,7 h -11 c -5.84,0 -16.41,-0.95 -21.490004,0 -3.71,0.7 -2.27,2.06 -1.51,4 0.15,0.38 -0.35,1.5 0.11,1.85 2.06,1.58 6.220004,-2.99 4.89,5.15 -1.99,-0.07 -4,0.04 -6,0 -2.54,-1.71 -8.66,-1.66 -11,0 -2.33,0.03 -4.67,-0.08 -7,0 -2.33,0.08 -11.79,-1.14 -10.99,2.49 0.43,1.94 9.07,2.39 10.99,2.51 -0.13,0.34 0.27,1.05 -0.22,1.76 -0.33,0.49 -9.13,6.73 -9.71,6.85 -2.6,0.52 -4.7,-0.82 -7.45,-0.58 -3.22,0.28 -7.66,3.18 -11.07,2.94 -4.35,-0.31 -10.81,-7.7 -13.54,-10.97 4.13,0.37 9,-0.53 13,0 2.93,0.39 5.9,4.67 8.26,-0.25 3.48,-7.25 -6.74,-9.17 -8.26,-3.75 h -16 c -2.32,-3.47 -2.5,-4.76 -4,-8 2.89,-0.68 19.92,1.92 18.99,-2.48 -0.62,-2.93 -17.64,-0.93 -20.99,-1.52 -1.15,-3.07 -1.26,-3.97 -2,-7 4.64,-1.01 35.73,1.33 37,0 0.24,-0.26 -0.17,-3.02 0,-3.99 -1.66,-0.08 -3.34,0.07 -5.01,0 l -1,-1.99 c 2.69,-0.19 8.11,-2.02 8,-5.01 3.54,-0.05 17,1.09 17.97,-1.64 0.45,-1.28 -0.91,-2.05 -0.97,-2.36 -0.53,-2.66 1.5,-1.96 3.02,-3.44 8.63,-8.45 9.08,-13.6 14.98,-22.07 9.700004,-13.91 23.690004,10.98 3.01,9.51 -0.35,0.32 1.670004,7.76 2.010004,8 2.71,1.95 11.42,-11.3 12.48,-14.01 1.69,-4.3 2.57,-9.36 2.51,-13.99 0.13,0.15 1.63,0.11 2.42,1.05 8.24,9.89 13.22,22.02 13.58,34.95 z m -16.39,-13.91 c -3.61,1.13 -0.48,6.85 2.86,5.9 2.72,-0.77 2.31,-7.52 -2.86,-5.9 z m -30.840004,23.18 c -0.99,0.23 -1.94,1.45 -3.32,1.69 -2.01,0.35 -10.2,-1.12 -9.45,2.53 2.9,4.8 7.36,1.41 10.55,1.61 1.89,0.12 2.88,2.57 5.73,1.77 3.8,-1.06 5.2,-9.64 -3.51,-7.6 z m -28.77,16.73 h 27.5 c 1.72,0 1.72,-4 0,-4 h -26 c -1.06,0 -1.9,2.84 -1.5,4 z"
     id="path26" />
  <path
     class="cls-6"
     d="m 105.85817,45 c 5.68,3.48 7.2,6.7 11,11 0.06,4.63 -0.82,9.7 -2.51,13.99 -1.06,2.71 -9.76,15.96 -12.48,14.01 -0.33,-0.24 -2.350004,-7.68 -2.010004,-8 20.680004,1.47 6.690004,-23.42 -3.01,-9.51 -5.9,8.46 -6.34,13.62 -14.98,22.07 -1.51,1.48 -3.55,0.78 -3.02,3.44 h -58 c 0.23,-6.4 0.98,-14.77 5,-20 4.02,-5.23 10.33,2.8 16,0 0.35,0.83 4.76,5.18 5.95,5.55 10.24,3.26 17.87,-3 17.05,-13.55 9.1,-0.27 9.55,-11.17 20,-9 0.26,0.05 1.25,1.62 2.67,1.84 4.06,0.63 6.6,-3.14 4.33,-6.84 0.49,-0.03 3.66,-2.52 5.44,-3.07 C 100.32817,46 103.40817,46.55 105.84817,45 Z M 78.858166,78 h -5.01 c -0.84,6.94 5.89,6.81 5.01,0 z"
     id="path28" />
  <path
     class="cls-3"
     d="m 105.85817,45 c -2.44,1.56 -5.52,1 -8.560004,1.93 -1.78,0.55 -4.94,3.04 -5.44,3.07 -3.58,0.19 -7.78,-4.3 -7,5 -10.45,-2.17 -10.9,8.73 -20,9 -0.28,-3.67 -2.84,-7.85 -6.29,-9.27 -0.54,-0.22 -9.46,-0.54 -10.07,-0.45 -7,1.04 -9.04,11.99 -6.64,17.72 -5.67,2.8 -11.91,-5.32 -16,0 11.78,-31.8 50.98,-44.76 80.000004,-27 z"
     id="path30" />
  <path
     class="cls-6"
     d="m 61.858166,96 c 0.1,2.99 -5.32,4.82 -8,5.01 l 1,1.99 c -10.94,-0.52 -22.05,0.38 -33,0 -0.39,-2.49 -0.89,-3.79 -1,-7 13.65,-0.14 27.35,0.19 41,0 z"
     id="path32" />
  <path
     class="cls-4"
     d="m 131.85817,31 c -2.01,-0.14 -4.2,1.14 -6.47,1.05 -3.36,-0.13 -6.32,-3.28 -9.53,-1.05 -5.58,-5.39 -7.72,-15.49 -6.99,-23 6.6,6.53 13.77,12.61 20.49,19 1.2,1.14 1.91,2.48 2.5,4 z"
     id="path34" />
  <path
     class="cls-4"
     d="m 78.858166,92 c 0.06,0.32 1.43,1.09 0.97,2.36 -0.97,2.73 -14.43,1.59 -17.97,1.64 -13.65,0.19 -27.35,-0.14 -41,0 -0.05,-1.32 -0.05,-2.68 0,-4 z"
     id="path36" />
  <path
     class="cls-1"
     d="m 75.858166,125 c -0.56,3.02 1.53,1.94 3.45,2 3.32,0.11 6.77,0.13 10.09,0 1.92,-0.08 4.01,1.03 3.45,-2 0.33,0 0.67,0 1,0 2,0.04 4.01,-0.07 6,0 1.330004,0.05 2.670004,-0.06 4.000004,0 v 2 c 0,0 1,-1 1,-1 5.62,0.29 11.36,-0.22 17,0 0.38,0.35 -0.69,3.79 -1.68,4.03 -4.7,1.15 -22.120004,0.05 -28.320004,-0.04 0.56,-3.03 -1.53,-1.92 -3.45,-2 -2.85,-0.11 -9.7,-0.54 -11.95,-0.02 -1.23,0.29 -0.32,1.32 -0.59,2.02 -1.93,-0.12 -10.57,-0.57 -10.99,-2.51 -0.8,-3.63 8.78,-2.41 10.99,-2.49 z"
     id="path38" />
  <path
     class="cls-4"
     d="m 132.85817,92 c 0.04,1.32 0.06,2.68 0,4 -11.27,-0.96 -24.53,1.28 -35.550004,0.05 -4.24,-0.47 -4.79,-3.36 -0.95,-4.04 10.300004,-1.84 25.620004,1.35 36.490004,0 z"
     id="path40" />
  <path
     class="cls-4"
     d="m 54.858166,103 c 1.66,0.08 3.35,-0.07 5.01,0 -0.17,0.97 0.24,3.74 0,3.99 -1.28,1.34 -32.37,-1 -37,0 -0.35,-1.42 -0.7,-2.1 -1,-4 10.95,0.38 22.06,-0.52 33,0 z"
     id="path42" />
  <path
     class="cls-4"
     d="m 117.85817,114 v 4 c -7.65,0.17 -15.35,-0.12 -23.000004,0 -0.76,-1.94 -2.21,-3.3 1.51,-4 5.080004,-0.96 15.650004,0 21.490004,0 z"
     id="path44" />
  <path
     class="cls-4"
     d="m 26.858166,118 c -0.62,-1.35 -1.26,-2.02 -2,-4 3.36,0.58 20.38,-1.41 20.99,1.52 0.93,4.41 -16.1,1.81 -18.99,2.48 z"
     id="path46" />
  <path
     class="cls-1"
     d="m 131.85817,31 c 2.66,0.19 7.71,3.44 3.33,4.82 -5.13,1.62 -15.38,-1.01 -19.33,-4.82 3.21,-2.22 6.17,0.92 9.53,1.05 2.27,0.09 4.46,-1.2 6.47,-1.05 z"
     id="path48" />
  <path
     class="cls-1"
     d="m 46.858166,126 c -0.29,1.02 0.2,2.8 0,4 -4,-0.53 -8.87,0.37 -13,0 -1.14,-1.36 -2.01,-2.53 -3,-4 z"
     id="path50" />
  <path
     class="cls-1"
     d="m 128.85817,114 c -0.48,1.23 -0.43,2.69 -1.14,3.86 -3.26,0.37 -6.59,0.07 -9.86,0.14 v -4 z"
     id="path52" />
  <path
     class="cls-1"
     d="m 131.85817,103 c -0.27,1.63 -0.67,2.63 -1,4 -2.66,0 -5.34,0 -8,0 -0.41,-2.07 0.18,-3.09 2,-4 2.33,0 4.67,0 7,0 z"
     id="path54" />
  <path
     class="cls-4"
     d="m 75.858166,130 c 0.27,-0.7 -0.63,-1.73 0.59,-2.02 2.26,-0.53 9.11,-0.09 11.95,0.02 1.92,0.08 4.01,-1.03 3.45,2 -5.27,-0.07 -10.76,0.33 -16,0 z"
     id="path56" />
  <path
     class="cls-1"
     d="m 84.868166,136.01 c 6.6,-1.65 6.06,6.37 1.51,4.98 -1.66,-0.51 -1.68,-3.51 -1.51,-4.98 z"
     id="path58" />
  <path
     class="cls-5"
     d="m 104.85817,126 -0.99,1 v -2 c 0.7,0.03 0.92,1 0.99,1 z"
     id="path60" />
  <path
     class="cls-4"
     d="m 56.858166,118 c -0.4,-1.16 0.44,-4 1.5,-4 h 26 c 1.72,0 1.72,4 0,4 z"
     id="path62" />
  <path
     class="cls-4"
     d="m 85.628166,101.27 c 8.71,-2.04 7.3,6.54 3.51,7.6 -2.85,0.8 -3.84,-1.66 -5.73,-1.77 -3.19,-0.2 -7.66,3.19 -10.55,-1.61 -0.76,-3.65 7.44,-2.19 9.45,-2.53 1.38,-0.24 2.33,-1.45 3.32,-1.69 z"
     id="path64" />
  <path
     class="cls-4"
     d="m 46.858166,130 c 0.2,-1.2 -0.29,-2.98 0,-4 1.53,-5.42 11.74,-3.5 8.26,3.75 -2.36,4.91 -5.33,0.63 -8.26,0.25 z"
     id="path66" />
  <path
     class="cls-4"
     d="m 124.85817,103 c -1.82,0.91 -2.41,1.93 -2,4 -2.58,0 -14.78,1.25 -13.99,-2.48 0.51,-2.41 13.17,-1.51 15.99,-1.52 z"
     id="path68" />
  <path
     class="cls-4"
     d="m 82.858166,125 c 3.32,-0.05 6.68,-0.06 10,0 0.56,3.03 -1.53,1.92 -3.45,2 -3.32,0.13 -6.77,0.11 -10.09,0 -1.92,-0.06 -4.01,1.02 -3.45,-2 2.33,-0.08 4.67,0.03 7,0 z"
     id="path70" />
  <path
     class="cls-4"
     d="m 116.46817,78.09 c 5.17,-1.61 5.58,5.13 2.86,5.9 -3.34,0.95 -6.47,-4.77 -2.86,-5.9 z"
     id="path72" />
  <path
     class="cls-2"
     d="m 93.858166,125 c -0.33,0 -0.67,0 -1,0 -3.32,-0.06 -6.68,-0.05 -10,0 2.34,-1.66 8.46,-1.71 11,0 z"
     id="path74" />
  <path
     class="cls-5"
     d="m 64.858166,64 c 0.81,10.55 -6.81,16.82 -17.05,13.55 -1.18,-0.38 -5.6,-4.73 -5.95,-5.55 -2.4,-5.73 -0.36,-16.69 6.64,-17.72 0.61,-0.09 9.53,0.23 10.07,0.45 3.45,1.43 6.01,5.61 6.29,9.27 z m -12.25,-5.82 c -10.54,0.92 -8.16,16.41 1.68,15.81 9.7,-0.59 8.43,-16.69 -1.68,-15.81 z"
     id="path76" />
  <path
     class="cls-5"
     d="m 91.858166,50 c 2.27,3.71 -0.27,7.48 -4.33,6.84 -1.42,-0.22 -2.41,-1.79 -2.67,-1.84 -0.78,-9.3 3.42,-4.81 7,-5 z"
     id="path78" />
  <path
     class="cls-4"
     d="m 78.858166,78 c 0.89,6.81 -5.85,6.94 -5.01,0 z"
     id="path80" />
  <path
     class="cls-6"
     d="m 52.608166,58.18 c 10.11,-0.88 11.37,15.22 1.68,15.81 -9.83,0.6 -12.21,-14.89 -1.68,-15.81 z"
     id="path82" />
</svg>
