<?xml version="1.0" encoding="UTF-8" standalone="no"?>
<svg
   id="Layer_1"
   data-name="Layer 1"
   viewBox="0 0 542.79651 633.43927"
   version="1.1"
   sodipodi:docname="metanet_highway.svg"
   width="542.79651"
   height="633.43927"
   inkscape:version="1.2.2 (b0a8486541, 2022-12-01)"
   xmlns:inkscape="http://www.inkscape.org/namespaces/inkscape"
   xmlns:sodipodi="http://sodipodi.sourceforge.net/DTD/sodipodi-0.dtd"
   xmlns="http://www.w3.org/2000/svg"
   xmlns:svg="http://www.w3.org/2000/svg">
  <sodipodi:namedview
     id="namedview63"
     pagecolor="#ffffff"
     bordercolor="#000000"
     borderopacity="0.25"
     inkscape:showpageshadow="2"
     inkscape:pageopacity="0.0"
     inkscape:pagecheckerboard="0"
     inkscape:deskcolor="#d1d1d1"
     showgrid="false"
     inkscape:zoom="0.8359375"
     inkscape:cx="276.33645"
     inkscape:cy="316.41121"
     inkscape:window-width="1920"
     inkscape:window-height="1020"
     inkscape:window-x="0"
     inkscape:window-y="32"
     inkscape:window-maximized="1"
     inkscape:current-layer="Layer_1" />
  <defs
     id="defs4">
    <style
       id="style2">
      .cls-1 {
        fill: #ea9d38;
      }

      .cls-2 {
        fill: #fefefe;
      }

      .cls-3 {
        fill: #20495f;
      }
    </style>
  </defs>
  <path
     class="cls-3"
     d="m 33.675556,345.83637 c -3.53,-3.55 12.58,-41.91 15.51,-47.99 63.440004,-131.53 223.530004,-190.58 359.990004,-207.1 3.75,0.2 5,2.49 1.23,4.32 -4.88,2.38 -18.58,4.25 -24.95,6.05 -95.33,26.93 -253.96,100.64 -183.51,224.98 l 10.72,19.74 H 33.665556 Z"
     id="path8" />
  <path
     class="cls-3"
     d="m 259.17556,345.83637 c -31.12,-32.86 -54.98,-77.68 -37.52,-123.52 22.24,-58.38 113.59,-101.21 170.03,-117.97 5.44,-1.62 16.38,-5.49 21.48,-5.54 3.6,-0.03 0.37,2.84 -1.15,3.87 -8.34,5.65 -24.08,11.28 -34.01,16.99 -39.88,22.92 -100.3,69.26 -78.81,122.15 14.51,35.72 58.36,63.08 90.81,81.19 4.87,2.72 37.23,18.24 37.67,20.34 0.37,0.85 -1.19,2.49 -1.5,2.49 z"
     id="path10" />
  <path
     class="cls-3"
     d="m 434.67556,51.83637 v 55.01 c 4.58,-1.35 11.75,3.34 15.05,0.59 l 33.49,-35.63 c 1.09,-2.45 -1.52,-7.45 -1.52,-10.46 -0.05,-18.99 20.49,-32.07 37.66,-23.66 4.3,2.11 11.22,9.6 12.8,14.19 6.82,19.77 -7.97,37.88 -28.89,34.89 -3.61,-0.52 -7.29,-3.94 -10.56,-2.43 -3.5,4.53 -33.29,31.5 -32.9,33.83 18.86,27.19 -16.24,58.15 -41.14,37.19 -15.04,-12.66 -11.56,-31.19 0.99,-44.03 l 0.02,-59.48 c 0.8,0.26 14.35,0.38 15,0 z m 70.75,-2.79 c -10.35,1.96 -12.62,19.75 -0.57,23.12 18.6,5.21 19.17,-26.65 0.57,-23.12 z m -72.02,72.02 c -14.69,3.02 -12.17,27.4 4.51,26.54 18.83,-0.97 15.19,-30.59 -4.51,-26.54 z"
     id="path12" />
  <path
     class="cls-3"
     d="m 16.675556,414.83637 c 0.37,0.37 -0.28,7.43 0.01,8.99 1.72,-0.39 1.57,-2.95 2.97,-4.52 8.7,-9.79 33.7,-8.73 38.04,5.52 5.19,-4.69 7.47,-8.67 14.78,-10.7 8.17,-2.26 19.48,-1.02 26.22,4.18 8.200004,6.33 7.980004,13.9 8.940004,23.06 0.13,1.27 1.04,2.66 1.04,2.96 v 40.5 H 91.675556 v -43.5 c 0,-1.69 -3.03,-8.03 -4.45,-9.55 -5.5,-5.88 -17.01,-5.02 -21.86,0.98 -0.25,0.31 -2.69,7.17 -2.69,7.57 v 44.5 h -16 v -42.5 c 0,-1.52 -2.17,-7.21 -3.17,-8.83 -3.77,-6.14 -10.25,-6.85 -16.9,-5.24 -1.36,0.33 -7.29,4.12 -7.69,4.81 -0.44,0.77 -2.15,11.44 -2.28,13.22 -0.89,12.46 0.74,25.97 0.04,38.54 H 0.67555556 c 0.04,-7.83 -0.04,-15.69 -0.04,-23.54 0,-12.71 -1.43,-30.89 0,-43.01 0.12,-1.01 0.46000004,-3.45 1.55000004,-3.45 2.1,0 13.9900004,-0.51 14.5000004,0 z"
     id="path14" />
  <path
     class="cls-3"
     d="m 145.67556,608.83637 c 0.11,0.1 -0.02,1.81 0.58,2.87 1.99,3.54 5.34,6.65 9.39,7.66 19.24,4.8 27,-9.14 26.02,-26.53 -28.11,27.91 -67.51,-7.16 -50.39,-40.9 9.24,-18.21 37.64,-23.93 49.9,-6.09 1.22,-0.07 0.05,-9.01 0.5,-9.01 h 15 v 64.5 c 0,23.22 -24.05,36.46 -44.8,30.8 -6.34,-1.73 -14.9,-8.24 -18.69,-13.32 -1.75,-2.35 -2.64,-7.08 -3.52,-9.98 2.34,0.4 15.39,-0.54 16,0 z m 29.65,-55.65 c -2.99,-2.79 -10.07,-5.45 -14.16,-5.43 -23.05,0.14 -24.57,37.78 -2.53,41.63 19.91,3.48 30.35,-23.45 16.69,-36.2 z"
     id="path16" />
  <path
     class="cls-3"
     d="m 295.67556,536.83637 13.5,48.01 15.44,-47.57 c 2.94,-0.43 12.97,-1.38 14.58,0.54 l 15.47,46.01 13.01,-46.99 h 16 l -21.1,67.9 h -15.8 c 0,0 -14.11,-45.9 -14.11,-45.9 -5.21,4.83 -13.64,45.6 -17.45,46.07 -4.35,0.53 -9.93,-0.42 -14.44,-0.17 l -21.1,-67.9 z"
     id="path18" />
  <path
     class="cls-3"
     d="m 190.67556,453.83637 h -50.5 c -2.85,0 0.64,9.61 1.65,11.35 5.12,8.85 19.83,11.6 27.78,5.08 1.05,-0.86 3.6,-5.43 4.57,-5.43 h 15.5 c -8.28,34.19 -62.87,28.03 -67.74,-5.76 -3.37,-23.38 8.35,-44.64 33.24,-46.25 6.95,-0.45 18.76,3.09 24.41,7.6 3.94,3.14 11.09,14.1 11.09,18.91 z m -16,-11 c -3.01,-22.58 -32.45,-22.38 -36,0 z"
     id="path20" />
  <path
     class="cls-3"
     d="m 485.67556,453.83637 h -52 c 0.61,13.95 12.81,23.67 26.55,19.05 4.35,-1.46 8.34,-8.05 8.95,-8.05 h 15.5 c -10.17,34.33 -62.96,28.35 -67.74,-6.76 -7.81,-57.36 74.1,-61.97 68.74,-4.24 z m -16,-11 c -2.42,-22.72 -33.42,-22.08 -36,0 z"
     id="path22" />
  <path
     class="cls-3"
     d="m 319.67556,484.83637 h -16 c -0.35,0 0.67,-6.18 -0.5,-7 -7.86,8.91 -19.19,11.66 -30.55,8.54 -18.93,-5.2 -22.57,-30.98 -4.64,-39.72 1.88,-0.92 10.61,-3.82 12.18,-3.82 h 22.5 c 0.42,-12.64 -7.43,-17.8 -19.44,-15.93 -7.89,1.23 -8.24,9.26 -10.19,9.86 -1.5,0.46 -11.39,-2.16 -14.38,-0.93 0.84,-27.4 47.24,-30.34 57.55,-8.04 4.71,10.18 2.02,31.53 2.41,43.59 0.14,4.26 1.89,8.86 1.04,13.46 z m -17,-31 h -18.5 c -1.27,0 -7.94,3.58 -8.98,5.02 -3.26,4.48 -1.44,12.14 3.74,14.22 12.86,5.18 26.16,-5.76 23.74,-19.24 z"
     id="path24" />
  <path
     class="cls-3"
     d="m 38.675556,509.83637 v 33 c 10.93,-10.09 30.65,-11.21 40,1.5 1.37,1.87 5,9.12 5,11 v 49.5 h -14 v -42.5 c 0,-0.54 -1.94,-5.63 -2.44,-6.56 -6.85,-13.01 -28.56,-6.61 -28.56,5.56 v 43.5 h -15 v -95 z"
     id="path26" />
  <path
     class="cls-3"
     d="m 227.67556,509.83637 c 0.37,1.08 -1,2.19 -1,2.5 v 30.5 c 3.28,-0.15 4.47,-4.01 7.26,-5.24 10.3,-4.51 26.53,-3.88 33.73,5.74 1.47,1.96 5.01,10.03 5.01,11.99 v 49.5 c -2.96,-0.5 -13.15,1.1 -14.56,-0.94 -1.83,-2.63 0.64,-36.58 -0.88,-44.12 -2.36,-11.69 -17.14,-15.26 -25.85,-8 -7.62,6.36 -4.16,41.84 -4.13,52.08 -1.54,2.1 -11.59,0.46 -14.58,0.97 v -95 h 15 z"
     id="path28" />
  <path
     class="cls-3"
     d="m 402.67556,484.83637 h -16 v -41.5 c 0,-0.37 -1.62,-6.23 -1.95,-7.05 -5.21,-13.05 -26.69,-10.69 -29.83,2.28 -0.2,0.82 -1.22,7.32 -1.22,7.78 v 38.5 h -16 v -70 h 16 c 0.45,0 -0.72,8.97 0.5,9.01 7.03,-13.98 32,-14.05 41.94,-2.95 2.6,2.9 6.56,12.82 6.56,16.44 v 47.5 z"
     id="path30" />
  <path
     class="cls-3"
     d="m 447.67556,604.83637 h -15 c -0.46,-1.15 1.31,-7.9 -1.49,-7.01 -0.84,0.27 -0.89,2.15 -1.97,3.01 -16.63,13.34 -45.72,3.52 -41.31,-20.27 3,-16.2 30.99,-17.91 43.76,-15.74 2.63,-13.58 -9.95,-21.39 -21.69,-15.19 -5.09,2.69 -4.8,8.19 -5.31,8.19 h -15 c -1.01,-8.87 7.04,-17.67 15.02,-20.48 15.25,-5.35 40.27,-0.52 41.86,19.09 l 1.11,48.39 z m -26.2,-30.7 c -5.34,0.41 -16.13,1.17 -17.58,7.41 -4.27,18.38 26.3,16.94 28.53,-1.48 1.05,-8.64 -3.92,-6.47 -10.95,-5.93 z"
     id="path32" />
  <path
     class="cls-3"
     d="m 468.17556,536.83637 c 2.57,0.79 17.57,44.33 20.01,50.01 l 18.99,-48.01 c 1.52,-1.83 13.09,-0.84 16.51,-1.49 l -33.04,81.76 c -3.88,4.32 -4.62,8.58 -10.66,11.55 -3.21,1.58 -15.9,4.4 -17.18,0.54 -0.47,-1.42 -0.42,-10.39 0.3,-11.42 1.45,-2.09 8.17,0.53 12.09,-2.91 1.99,-1.75 5.64,-10.79 5.29,-13.3 l -27.82,-66.72 c 4.04,0.76 12.1,-1.05 15.5,0 z"
     id="path34" />
  <path
     class="cls-3"
     d="m 523.67556,396.83637 v 18 h 19 v 13 h -19 v 38.5 c 0,0.29 2.47,4.48 3.03,4.97 5.92,5.19 15.41,-0.09 15.96,0.53 -0.46,2.8 1.07,12.22 -0.93,13.56 -0.44,0.3 -9.08,1.42 -10.52,1.47 -34.46,1.2 -22.37,-36.89 -24.54,-59.04 -4.93,-0.86 -12.27,2.69 -13.05,-3.44 -1.58,-12.47 3.03,-9.34 13.05,-9.55 v -18 z"
     id="path36" />
  <path
     class="cls-3"
     d="m 225.67556,396.83637 v 18 h 20 l -1,13 h -19 v 36.5 c 0,0.38 2.05,4.74 2.54,5.46 4.93,7.08 16.67,1.21 17.45,2.05 -0.8,9.24 3.85,13.8 -7.51,14.98 -10.65,1.1 -21.18,-0.29 -25.99,-10.98 -0.42,-0.93 -2.5,-7.11 -2.5,-7.5 v -40.5 l -13.02,-0.58 v -12.43 c 0,0 13.02,0 13.02,0 v -18 h 16 z"
     id="path38" />
  <path
     class="cls-1"
     d="m 419.67556,51.83637 c -0.43,-0.14 -6.71,-4.38 -7.5,-5 -12.92,-10.19 -14.3,-28.73 -2.03,-40.0199998 26.59,-24.4800002 64.89,23.3299998 24.82,43.3699998 -0.46,0.23 -0.22,1.61 -0.3,1.66 -0.65,0.38 -14.2,0.26 -15,0 z m 3.71,-36.79 c -8.18,1.86 -9.22,15.61 -2.08,19.65 18.64,10.55 23.07,-24.43 2.08,-19.65 z"
     id="path40" />
  <rect
     class="cls-3"
     x="100.67555"
     y="536.83636"
     width="15"
     height="68"
     id="rect42" />
  <path
     class="cls-3"
     d="m 114.39556,525.54637 c -6.85,5.58 -19.910004,-2.26 -13.74,-12.23 6.97,-11.24 24.87,3.15 13.74,12.23 z"
     id="path44" />
</svg>
