<?xml version="1.0" encoding="UTF-8"?>
<svg id="Layer_1" data-name="Layer 1" xmlns="http://www.w3.org/2000/svg" viewBox="0 0 239.33 231.3">
  <defs>
    <style>
      .cls-1 {
        fill: #eb8525;
      }

      .cls-2 {
        fill: #fefdfc;
      }
    </style>
  </defs>
  <path class="cls-1" d="M177.44,212.78c-1.5-1.26-2.96-1-4.85-.47-24.93,6.95-52.63,5.38-75.07-8.98,53.57.6,98.29-36.85,106.8-88.41,4.49-27.17-1.56-52.33-16.46-76.69,21.88,9.89,36.65,29.05,44.93,50.15,14.64,37.31,4.11,79.26-25.72,105.46-1.55,14.29,4.12,26.04,12.21,37.47-16.66-.86-30.23-8.75-41.84-18.53Z"/>
  <g>
    <path class="cls-1" d="M22.99,209.57c6.71-9.88,14.8-25,10.45-37.09-14.86-14.9-26.64-31.41-31.13-52.83C-2.59,96.37.2,72.34,11.69,51.4,26.48,24.47,53.12,6.44,81.29,1.58c32.77-5.66,64.51,4.08,87.62,26.73,27.67,27.12,36.51,66.89,22.97,103.93-12.13,33.19-42.76,57.94-79.71,62.9-15.96,2.14-31.64-1.46-46.17-4.14-12.33,7.2-25.69,20.03-42.99,18.58ZM107.41,153.97c8.55-3.73,17.83-4.73,24.67-11.33,5.55,2.88,11.47,1.72,13.81-3.85,1.14-2.7-.82-6.2-1.16-8.9,6.37-8.46,7.96-18.49,10.42-28.5.65-2.67,6.17-4,5.02-8.09-.93-3.31-2.16-6.04-6.99-6.63-2.39-13.25-10.05-23.98-20.49-32.12l-1.8-7.29c-1.33-5.37-7.81-3.34-12.13-1.51-3.59,0-9.72-1.8-13.1-3.04-2.34-3.94-4.37-6.83-8.85-6.73s-5.44,3.88-7.22,7.5c-10.12,1.64-19.82,7.31-28.01,12.98-3.57.43-8.45-1.45-11.04,2.53-2.1,3.22-1.2,7.42-.03,11.21-6.79,10.6-7.23,23.28-8.71,35.33-1.03,3.45-6.25,5.74-4.08,10.6,1.88,4.23,5.58,3.42,9.03,5.95s5.87,9.11,8.26,12.98c1.39,2.25-1.48,5.91.87,7.95,7.59,6.58,9.91.05,12.25,1.79,7.32,5.43,16.08,6.03,23.74,9.59,3.09,1.44,3.61,5.71,7.93,5.58s4.42-4.6,7.62-5.99Z"/>
    <path class="cls-2" d="M107.41,153.97c-3.2,1.4-3.46,5.86-7.62,5.99s-4.84-4.14-7.93-5.58c-7.66-3.56-16.42-4.16-23.74-9.59-2.34-1.74-4.65,4.8-12.25-1.79-2.35-2.04.52-5.69-.87-7.95-2.39-3.87-4.86-10.48-8.26-12.98s-7.15-1.72-9.03-5.95c-2.17-4.86,3.05-7.15,4.08-10.6,1.48-12.05,1.92-24.73,8.71-35.33-1.16-3.79-2.06-7.99.03-11.21,2.59-3.98,7.47-2.1,11.04-2.53,8.18-5.67,17.88-11.34,28.01-12.98,1.78-3.61,2.92-7.4,7.22-7.5s6.51,2.79,8.85,6.73c3.37,1.24,9.5,3.04,13.1,3.04,4.32-1.83,10.8-3.86,12.13,1.51l1.8,7.29c10.44,8.14,18.1,18.86,20.49,32.12,4.83.59,6.06,3.32,6.99,6.63,1.15,4.09-4.36,5.42-5.02,8.09-2.46,10.01-4.05,20.04-10.42,28.5.34,2.7,2.3,6.2,1.16,8.9-2.35,5.57-8.26,6.73-13.81,3.85-6.84,6.6-16.12,7.6-24.67,11.33ZM101.48,43.53c0-2.13-1.72-3.85-3.85-3.85s-3.85,1.72-3.85,3.85,1.72,3.85,3.85,3.85,3.85-1.72,3.85-3.85ZM77.92,61.53c3.28-10.78,11.31.67,13.47-14.54-9.34-.04-45.51,18.65-13.47,14.54ZM117.46,49.76c-4.44-1.75-9.09-2.72-14.09-2.72,2.96,5.86,6.76,10.22,10.41,15.64,1.52,2.26,5.77.7,6.78-.96,2.92-4.81-1.7-6-3.1-11.96ZM128.35,50.7c0-1.96-1.59-3.56-3.56-3.56s-3.56,1.59-3.56,3.56,1.59,3.56,3.56,3.56,3.56-1.59,3.56-3.56ZM109.62,68.9c6.45-.87-7.6-17.03-8.29-17.76-2.94-3.1-6.99-.52-8.71,2.19-2.29,3.61-3.08,6.89,0,10.33l16.99,5.24ZM128.84,75.93c5.49,5.51,13.41,8.84,20.63,12.5-1.91-13.55-10.04-25.56-20.75-31.86-3.08-1.6-7.01,6.33-4.81,7.63,4.58,2.72,3.3,7.95,4.93,11.72ZM62.48,64.44c0-2.82-2.29-5.11-5.11-5.11s-5.11,2.29-5.11,5.11,2.29,5.11,5.11,5.11,5.11-2.29,5.11-5.11ZM88.24,62.68c0-1.99-1.61-3.6-3.6-3.6s-3.6,1.61-3.6,3.6,1.61,3.6,3.6,3.6,3.6-1.61,3.6-3.6ZM73.95,85.38c1.9-7.53,10.27-17.52,3.19-20.54-3.64-.05-6.95-.06-10.86.32-1.56,1.86-3.84,4.95-2.86,7.54l4.64,12.39c1.74,1.32,3.99,1.74,5.89.3ZM107.51,76.27c1.41-.69,2.19-1.55,1.91-2.77-.14-.6-.62-1.83-1.79-2.02-12.58-2.02-12.05-7.89-24.24-1.47l-6.04,15.12c-.57,1.43-.09,2.91.77,3.54.63.47,1.88.98,3,.43l26.39-12.83ZM125.08,72.81c0-3.46-2.81-6.27-6.27-6.27s-6.27,2.81-6.27,6.27,2.81,6.27,6.27,6.27,6.27-2.81,6.27-6.27ZM65.18,87.17c-.47-4.47-3.6-9.84-5.53-13.66-.72-1.44-5.85-1.18-6.68.2-5.09,8.93-7.56,19.86-6.36,30.17.2,1.48,4.14,3.68,5.5,2.85,18.12-11.11,4.52-2.82,13.07-19.56ZM92.23,99.41c1.73-.91,4.84.3,6-1.43,4.35-6.51,9.81-11.73,13.49-19.52-11,3.73-19.89,9.46-29.86,14.04-1.45.67-.75,3.7-.78,4.83,0,.2,3.78,5.95,11.15,2.09ZM127.96,112.12l16.81-13.7c1.57-1.28,2.59-6.37.66-7.62-6.07-3.93-11.85-7.63-18.38-10.72-1.8-.85-5.8,1.88-5.77,3.68.2,9.47,1.16,17.95.87,27.19-.05,1.66,1.63,2.6,2.75,2.82.95.19,1.79-.62,3.06-1.65ZM114.03,114.7c1.96.76,5.08-1.72,4.96-3.53-.58-8.9-.64-17.25-.75-26.23-.02-1.5-.6-2.8-1.55-2.99-1-.2-2.65-.14-3.46.99l-12.57,17.49c-1.64,2.28.6,6.31,1.16,8.59,4.76,1.18,7.61,3.89,12.21,5.68ZM77.65,96.06c0-3.48-2.82-6.3-6.3-6.3s-6.3,2.82-6.3,6.3,2.82,6.3,6.3,6.3,6.3-2.82,6.3-6.3ZM156.54,93.93c0-2.08-1.68-3.76-3.76-3.76s-3.76,1.68-3.76,3.76,1.68,3.76,3.76,3.76,3.76-1.68,3.76-3.76ZM141.88,127.75c5.05-8.27,10-18.43,7.95-28.32-8.25,4.97-13.84,11.14-21.11,16.27-1.92,1.36-1.52,5.71-1.19,7.66,1.09,6.41,9.62,3.83,14.36,4.39ZM87.62,109.53c1-3.75-1.31-5.98-4.29-6.87-1.97-.59-4.21-1.41-5.82-.05-1.01.85-3.38,1.93-3.08,4.07.71,4.92.65,12.81,2.44,13.17,5.23,1.03,10.46-9.28,10.74-10.31ZM97.65,106c0-1.99-1.61-3.6-3.6-3.6s-3.6,1.61-3.6,3.6,1.61,3.6,3.6,3.6,3.6-1.61,3.6-3.6ZM67.38,122.44c8.31-2.19,4.42-9.25,3.46-16.82-2.39-.48-4.53-2.38-6.65-2.33-3.66,1.52-6.74,4.13-10.13,6.6-1.38,1-1.44,5.13.14,5.96,4.33,2.27,9.01,5.04,13.18,6.59ZM50.4,113.39c0-2.59-2.1-4.68-4.68-4.68s-4.68,2.1-4.68,4.68,2.1,4.68,4.68,4.68,4.68-2.1,4.68-4.68ZM114.11,119.05c-4.97-3.32-10.37-6.62-15.24-7.63-1.88,1-5.89.6-7.55,1.2-4.29,1.55-7.27,6.8-9.08,10.36-2.47,4.86,28.8-3.14,31.87-3.92ZM66.59,133.22c0-2.79-.52-4.87-.83-7.84-4.89-2.27-8.83-5.52-14.79-6.65,1.34,5.41,3.91,10.3,7.71,13.73,1.9.71,5.21-.63,7.91.76ZM80.69,128.48c0-3.15-2.55-5.69-5.69-5.69s-5.69,2.55-5.69,5.69,2.55,5.69,5.69,5.69,5.69-2.55,5.69-5.69ZM95.38,146.32c1.4.89,6.14.07,7.02-1.31,4.56-7.11,9.67-13.85,13.44-22.22-10.88,1.9-20.48,3.07-30.28,5.41-3.11.74-2.82,6.61-.82,8.08,4.05,2.97,6.3,7.28,10.63,10.05ZM129.97,140.17c-1.29-3.98.17-5.72-.23-8.49-.53-3.72-8.21-7.92-11.46-4.46-5.75,6.13-8.97,14.46-13.98,21.28,5.36,3.14,21.13-5.02,25.67-8.33ZM142.81,135.89c0-2.81-2.28-5.09-5.09-5.09s-5.09,2.28-5.09,5.09,2.28,5.09,5.09,5.09,5.09-2.28,5.09-5.09ZM65.53,139.1c0-2.02-1.64-3.66-3.66-3.66s-3.66,1.64-3.66,3.66,1.64,3.66,3.66,3.66,3.66-1.64,3.66-3.66ZM93.13,149.8l-12.54-13.86c-4.07,1.72-7.51,1.51-11.44-.23-6.22,7.07,19.69,14.45,23.98,14.09Z"/>
    <path class="cls-1" d="M127.96,112.12c-1.27,1.03-2.11,1.84-3.06,1.65-1.12-.22-2.8-1.16-2.75-2.82.29-9.24-.68-17.73-.87-27.19-.04-1.8,3.96-4.53,5.77-3.68,6.54,3.09,12.31,6.79,18.38,10.72,1.93,1.25.91,6.34-.66,7.62l-16.81,13.7Z"/>
    <path class="cls-1" d="M65.18,87.17c-8.55,16.74,5.05,8.45-13.07,19.56-1.35.83-5.3-1.38-5.5-2.85-1.21-10.31,1.26-21.24,6.36-30.17.83-1.38,5.96-1.64,6.68-.2,1.93,3.83,5.06,9.19,5.53,13.66Z"/>
    <path class="cls-1" d="M95.38,146.32c-4.33-2.77-6.59-7.08-10.63-10.05-2-1.46-2.29-7.34.82-8.08,9.8-2.34,19.4-3.51,30.28-5.41-3.77,8.38-8.89,15.11-13.44,22.22-.88,1.38-5.62,2.21-7.02,1.31Z"/>
    <path class="cls-1" d="M114.03,114.7c-4.61-1.79-7.45-4.5-12.21-5.68-.56-2.28-2.8-6.31-1.16-8.59l12.57-17.49c.81-1.13,2.45-1.19,3.46-.99.95.19,1.53,1.49,1.55,2.99.12,8.97.17,17.33.75,26.23.12,1.8-3,4.29-4.96,3.53Z"/>
    <path class="cls-1" d="M107.51,76.27l-26.39,12.83c-1.12.55-2.37.03-3-.43-.86-.63-1.34-2.11-.77-3.54l6.04-15.12c12.19-6.42,11.66-.55,24.24,1.47,1.18.19,1.65,1.41,1.79,2.02.28,1.22-.49,2.08-1.91,2.77Z"/>
    <path class="cls-1" d="M128.84,75.93c-1.63-3.78-.35-9.01-4.93-11.72-2.2-1.31,1.73-9.23,4.81-7.63,10.71,6.3,18.84,18.31,20.75,31.86-7.21-3.67-15.14-6.99-20.63-12.5Z"/>
    <path class="cls-1" d="M141.88,127.75c-4.74-.56-13.28,2.03-14.36-4.39-.33-1.95-.73-6.3,1.19-7.66,7.27-5.13,12.86-11.3,21.11-16.27,2.06,9.89-2.9,20.05-7.95,28.32Z"/>
    <path class="cls-1" d="M129.97,140.17c-4.54,3.31-20.31,11.47-25.67,8.33,5.01-6.82,8.23-15.15,13.98-21.28,3.25-3.46,10.93.73,11.46,4.46.39,2.77-1.07,4.51.23,8.49Z"/>
    <path class="cls-1" d="M92.23,99.41c-7.37,3.87-11.16-1.88-11.15-2.09.03-1.13-.67-4.16.78-4.83,9.97-4.58,18.86-10.32,29.86-14.04-3.68,7.79-9.14,13.01-13.49,19.52-1.16,1.73-4.26.52-6,1.43Z"/>
    <path class="cls-1" d="M73.95,85.38c-1.9,1.45-4.15,1.02-5.89-.3l-4.64-12.39c-.97-2.59,1.3-5.68,2.86-7.54,3.91-.38,7.22-.36,10.86-.32,7.08,3.02-1.29,13.01-3.19,20.54Z"/>
    <path class="cls-1" d="M67.38,122.44c-4.17-1.55-8.86-4.32-13.18-6.59-1.58-.83-1.52-4.95-.14-5.96,3.4-2.46,6.47-5.08,10.13-6.6,2.12-.05,4.26,1.85,6.65,2.33.96,7.57,4.86,14.63-3.46,16.82Z"/>
    <path class="cls-1" d="M114.11,119.05c-3.07.78-34.34,8.78-31.87,3.92,1.81-3.56,4.79-8.81,9.08-10.36,1.66-.6,5.66-.2,7.55-1.2,4.87,1.01,10.27,4.32,15.24,7.63Z"/>
    <path class="cls-1" d="M109.62,68.9l-16.99-5.24c-3.08-3.44-2.3-6.72,0-10.33,1.72-2.71,5.77-5.29,8.71-2.19.69.73,14.75,16.89,8.29,17.76Z"/>
    <path class="cls-1" d="M77.92,61.53c-32.04,4.11,4.12-14.58,13.47-14.54-2.16,15.21-10.19,3.76-13.47,14.54Z"/>
    <path class="cls-1" d="M87.62,109.53c-.28,1.04-5.51,11.34-10.74,10.31-1.79-.35-1.74-8.24-2.44-13.17-.31-2.15,2.07-3.22,3.08-4.07,1.6-1.36,3.85-.54,5.82.05,2.98.9,5.29,3.13,4.29,6.87Z"/>
    <path class="cls-1" d="M117.46,49.76c1.4,5.96,6.02,7.15,3.1,11.96-1.01,1.66-5.26,3.22-6.78.96-3.65-5.43-7.44-9.78-10.41-15.64,4.99,0,9.65.97,14.09,2.72Z"/>
    <path class="cls-1" d="M93.13,149.8c-4.29.36-30.19-7.02-23.98-14.09,3.93,1.74,7.37,1.95,11.44.23l12.54,13.86Z"/>
    <circle class="cls-1" cx="71.35" cy="96.06" r="6.3"/>
    <path class="cls-1" d="M66.59,133.22c-2.7-1.4-6.01-.05-7.91-.76-3.79-3.44-6.37-8.33-7.71-13.73,5.96,1.14,9.9,4.38,14.79,6.65.3,2.97.83,5.05.83,7.84Z"/>
    <circle class="cls-1" cx="118.81" cy="72.81" r="6.27"/>
    <circle class="cls-1" cx="74.99" cy="128.48" r="5.69"/>
    <circle class="cls-1" cx="57.37" cy="64.44" r="5.11"/>
    <circle class="cls-1" cx="137.72" cy="135.89" r="5.09"/>
    <circle class="cls-1" cx="45.72" cy="113.39" r="4.68"/>
    <circle class="cls-1" cx="97.63" cy="43.53" r="3.85"/>
    <circle class="cls-1" cx="61.87" cy="139.1" r="3.66"/>
    <circle class="cls-1" cx="152.77" cy="93.93" r="3.76"/>
    <circle class="cls-1" cx="94.05" cy="106" r="3.6"/>
    <circle class="cls-1" cx="84.64" cy="62.68" r="3.6"/>
    <circle class="cls-1" cx="124.79" cy="50.7" r="3.56"/>
  </g>
</svg>