<?xml version="1.0" encoding="UTF-8" standalone="no"?>
<!-- Uploaded to: SVG Repo, www.svgrepo.com, Generator: SVG Repo Mixer Tools -->

<svg
   height="705.83105"
   width="800"
   version="1.1"
   id="Layer_1"
   viewBox="0 0 511.999 451.73099"
   xml:space="preserve"
   sodipodi:docname="metanet_calendar.svg"
   inkscape:version="1.2.2 (b0a8486541, 2022-12-01)"
   xmlns:inkscape="http://www.inkscape.org/namespaces/inkscape"
   xmlns:sodipodi="http://sodipodi.sourceforge.net/DTD/sodipodi-0.dtd"
   xmlns="http://www.w3.org/2000/svg"
   xmlns:svg="http://www.w3.org/2000/svg"><defs
   id="defs25" /><sodipodi:namedview
   id="namedview23"
   pagecolor="#ffffff"
   bordercolor="#000000"
   borderopacity="0.25"
   inkscape:showpageshadow="2"
   inkscape:pageopacity="0.0"
   inkscape:pagecheckerboard="0"
   inkscape:deskcolor="#d1d1d1"
   showgrid="false"
   inkscape:zoom="1.085"
   inkscape:cx="347.46544"
   inkscape:cy="353.45622"
   inkscape:window-width="1920"
   inkscape:window-height="1020"
   inkscape:window-x="0"
   inkscape:window-y="32"
   inkscape:window-maximized="1"
   inkscape:current-layer="Layer_1" />
<path
   style="fill:#999999;fill-opacity:1"
   d="m 8.633,181.047 v 218.561 c 0,24.019 19.471,43.49 43.49,43.49 h 407.753 c 24.019,0 43.49,-19.471 43.49,-43.49 V 181.047 Z"
   id="path2" />
<path
   style="fill:#4a77ff;fill-opacity:1"
   d="m 43.632,55.674 c -19.33,0 -34.999,15.669 -34.999,34.999 v 90.375 H 503.367 V 90.673 c 0,-19.33 -15.669,-34.999 -34.999,-34.999 z"
   id="path4" />
<path
   style="opacity:0.1;enable-background:new"
   d="M 66.185,399.608 V 90.673 c 0,-19.33 15.669,-34.999 34.999,-34.999 H 43.632 c -19.33,0 -34.999,15.669 -34.999,34.999 v 308.936 c 0,24.019 19.471,43.49 43.49,43.49 h 57.552 c -24.019,-10e-4 -43.49,-19.472 -43.49,-43.491 z"
   id="path6" />
<g
   id="g16"
   transform="translate(0,-30.134)">
	<path
   style="fill:#515262"
   d="m 97.732,134.522 c -11.125,0 -20.143,-9.018 -20.143,-20.143 V 58.91 c 0,-11.125 9.018,-20.143 20.143,-20.143 11.125,0 20.143,9.018 20.143,20.143 v 55.469 c 0,11.125 -9.018,20.143 -20.143,20.143 z"
   id="path8" />
	<path
   style="fill:#515262"
   d="m 203.244,134.522 c -11.125,0 -20.143,-9.018 -20.143,-20.143 V 58.91 c 0,-11.125 9.018,-20.143 20.143,-20.143 11.125,0 20.143,9.018 20.143,20.143 v 55.469 c 0,11.125 -9.018,20.143 -20.143,20.143 z"
   id="path10" />
	<path
   style="fill:#515262"
   d="m 308.756,134.522 c -11.125,0 -20.143,-9.018 -20.143,-20.143 V 58.91 c 0,-11.125 9.018,-20.143 20.143,-20.143 11.125,0 20.143,9.018 20.143,20.143 v 55.469 c 0,11.125 -9.018,20.143 -20.143,20.143 z"
   id="path12" />
	<path
   style="fill:#515262"
   d="m 414.268,134.522 c -11.125,0 -20.143,-9.018 -20.143,-20.143 V 58.91 c 0,-11.125 9.018,-20.143 20.143,-20.143 11.125,0 20.143,9.018 20.143,20.143 v 55.469 c 0,11.125 -9.018,20.143 -20.143,20.143 z"
   id="path14" />
</g>
<path
   d="m 203.244,0 c -15.867,0 -28.776,12.909 -28.776,28.776 v 18.265 h -47.96 V 28.776 C 126.508,12.909 113.599,0 97.732,0 81.865,0 68.956,12.909 68.956,28.776 V 47.041 H 43.632 C 19.572,47.041 0,66.613 0,90.673 v 27.378 c 0,4.768 3.865,8.633 8.633,8.633 4.768,0 8.633,-3.865 8.633,-8.633 V 90.673 c 0,-14.539 11.827,-26.366 26.366,-26.366 h 25.323 v 19.938 c 0,15.867 12.909,28.776 28.776,28.776 v 0 0 c 15.867,0 28.776,-12.909 28.776,-28.776 V 64.307 h 47.96 v 19.938 c 0,15.867 12.909,28.776 28.776,28.776 15.867,0 28.776,-12.909 28.776,-28.776 V 64.307 h 47.96 v 19.938 c 0,15.867 12.909,28.776 28.776,28.776 15.867,0 28.776,-12.909 28.776,-28.776 V 64.307 h 47.961 v 19.938 c 0,15.867 12.909,28.776 28.776,28.776 15.867,0 28.776,-12.909 28.776,-28.776 V 64.307 h 25.323 c 14.538,0 26.366,11.828 26.366,26.366 v 21.929 c 0,4.768 3.865,8.633 8.633,8.633 4.768,0 8.633,-3.865 8.633,-8.633 V 90.673 c 0,-24.059 -19.572,-43.632 -43.632,-43.632 H 443.044 V 28.776 C 443.044,12.909 430.135,0 414.268,0 398.401,0 385.492,12.909 385.492,28.776 V 47.041 H 337.531 V 28.776 C 337.531,12.909 324.622,0 308.755,0 292.888,0 279.979,12.909 279.979,28.776 v 18.265 h -47.96 V 28.776 C 232.02,12.909 219.111,0 203.244,0 Z m -94.003,84.245 c 0,6.347 -5.164,11.51 -11.51,11.51 -6.347,0 -11.51,-5.164 -11.51,-11.51 V 28.776 c 0,-6.347 5.164,-11.51 11.51,-11.51 6.347,0 11.51,5.164 11.51,11.51 z m 105.513,0 c 0,0.397 -0.021,0.788 -0.06,1.175 -0.551,5.41 -4.865,9.724 -10.275,10.275 -0.387,0.039 -0.778,0.06 -1.175,0.06 -0.397,0 -0.788,-0.021 -1.175,-0.06 -5.411,-0.551 -9.724,-4.865 -10.275,-10.275 -0.039,-0.387 -0.06,-0.778 -0.06,-1.175 V 28.776 c 0,-6.347 5.164,-11.51 11.51,-11.51 6.347,0 11.51,5.164 11.51,11.51 z M 402.757,28.776 c 0,-6.347 5.164,-11.51 11.51,-11.51 6.346,0 11.51,5.164 11.51,11.51 v 55.469 c 0,0.397 -0.021,0.788 -0.06,1.175 -0.551,5.41 -4.865,9.724 -10.275,10.275 -0.387,0.039 -0.778,0.06 -1.175,0.06 -0.397,0 -0.788,-0.021 -1.175,-0.06 -5.411,-0.551 -9.724,-4.865 -10.275,-10.275 -0.039,-0.387 -0.06,-0.778 -0.06,-1.175 z m -105.511,0 c 0,-6.347 5.164,-11.51 11.51,-11.51 6.347,0 11.51,5.164 11.51,11.51 v 55.469 c 0,0.397 -0.021,0.788 -0.06,1.175 -0.551,5.41 -4.865,9.724 -10.275,10.275 -0.387,0.039 -0.778,0.06 -1.175,0.06 -0.397,0 -0.788,-0.021 -1.175,-0.06 -5.411,-0.551 -9.724,-4.865 -10.275,-10.275 -0.039,-0.387 -0.06,-0.778 -0.06,-1.175 z"
   id="path18" />
<path
   d="m 459.876,451.731 c 28.741,0 52.123,-23.382 52.123,-52.123 V 147.133 c 0,-4.768 -3.865,-8.633 -8.633,-8.633 -4.768,0 -8.633,3.865 -8.633,8.633 v 25.282 H 17.266 v -19.833 c 0,-4.768 -3.865,-8.633 -8.633,-8.633 -4.768,0 -8.633,3.865 -8.633,8.633 v 247.026 c 0,28.741 23.382,52.123 52.123,52.123 z M 422.901,189.68 h 71.832 v 67.115 h -71.832 z m 0,84.38 h 71.832 v 68.774 h -71.832 z m 0,86.039 h 71.832 v 39.509 c 0,19.22 -15.637,34.857 -34.857,34.857 H 422.901 Z M 317.389,189.68 h 88.247 v 67.115 h -88.247 z m 0,84.38 h 88.247 v 68.774 h -88.247 z m 0,86.039 h 88.247 v 74.366 H 317.389 Z M 211.877,189.68 h 88.246 v 67.115 h -88.246 z m 0,84.38 h 88.246 v 68.774 h -88.246 z m 0,86.039 h 88.246 v 74.366 H 211.877 Z M 106.365,189.68 h 88.246 v 67.115 h -88.246 z m 0,84.38 h 88.246 v 68.774 h -88.246 z m 0,86.039 h 88.246 v 74.366 H 106.365 Z M 17.266,189.68 h 71.833 v 67.115 H 17.266 Z m 0,84.38 h 71.833 v 68.774 H 17.266 Z m 0,125.548 v -39.509 h 71.833 v 74.366 H 52.123 c -19.22,0 -34.857,-15.637 -34.857,-34.857 z"
   id="path20" />
<circle
   style="fill:#4a77ff;stroke:#fdfdfd;stroke-width:0.639999;fill-opacity:1"
   id="path294"
   cx="360.67062"
   cy="308.00781"
   r="27.150417" /></svg>
