<?xml version="1.0" encoding="UTF-8" standalone="no"?>
<svg
   id="Layer_1"
   data-name="Layer 1"
   viewBox="0 0 180 180"
   version="1.1"
   sodipodi:docname="pay-quickr.svg"
   inkscape:version="1.2.2 (b0a8486541, 2022-12-01)"
   xmlns:inkscape="http://www.inkscape.org/namespaces/inkscape"
   xmlns:sodipodi="http://sodipodi.sourceforge.net/DTD/sodipodi-0.dtd"
   xmlns="http://www.w3.org/2000/svg"
   xmlns:svg="http://www.w3.org/2000/svg">
  <sodipodi:namedview
     id="namedview149"
     pagecolor="#ffffff"
     bordercolor="#000000"
     borderopacity="0.25"
     inkscape:showpageshadow="2"
     inkscape:pageopacity="0.0"
     inkscape:pagecheckerboard="0"
     inkscape:deskcolor="#d1d1d1"
     showgrid="false"
     inkscape:zoom="4.7555556"
     inkscape:cx="90"
     inkscape:cy="90.10514"
     inkscape:window-width="1920"
     inkscape:window-height="1020"
     inkscape:window-x="0"
     inkscape:window-y="32"
     inkscape:window-maximized="1"
     inkscape:current-layer="Layer_1" />
  <defs
     id="defs4">
    <style
       id="style2">
      .cls-1 {
        fill: #23373d;
      }

      .cls-2 {
        fill: #182d34;
      }

      .cls-3 {
        fill: #dfe0db;
      }

      .cls-4 {
        fill: #234a54;
      }

      .cls-5 {
        fill: #23363c;
      }

      .cls-6 {
        fill: #1e3138;
      }

      .cls-7 {
        fill: #e8e9e3;
      }

      .cls-8 {
        fill: #34444a;
      }

      .cls-9 {
        fill: #123741;
      }

      .cls-10 {
        fill: #182d33;
      }

      .cls-11 {
        fill: #0f272e;
      }

      .cls-12 {
        fill: #d6d7d2;
      }

      .cls-13 {
        fill: #e3e5e0;
      }

      .cls-14 {
        fill: #14282f;
      }

      .cls-15 {
        fill: #3f636a;
      }

      .cls-16 {
        fill: #0f272f;
      }

      .cls-17 {
        fill: #e7e9e4;
      }

      .cls-18 {
        fill: #d9dbd6;
      }

      .cls-19 {
        fill: #20606a;
      }

      .cls-20 {
        fill: #192e35;
      }

      .cls-21 {
        fill: #1a2e35;
      }

      .cls-22 {
        fill: #214750;
      }

      .cls-23 {
        fill: #24373d;
      }

      .cls-24 {
        fill: #e2e3dd;
      }

      .cls-25 {
        fill: #21343a;
      }

      .cls-26 {
        fill: #46b4b3;
      }

      .cls-27 {
        fill: #214650;
      }

      .cls-28 {
        fill: #23666f;
      }

      .cls-29 {
        fill: #213339;
      }

      .cls-30 {
        fill: #1f3238;
      }

      .cls-31 {
        fill: #1e4c54;
      }

      .cls-32 {
        fill: #d5d6d2;
      }

      .cls-33 {
        fill: #1a4a53;
      }

      .cls-34 {
        fill: #e5e7e1;
      }

      .cls-35 {
        fill: #1f606a;
      }

      .cls-36 {
        fill: #10272f;
      }

      .cls-37 {
        fill: #102830;
      }

      .cls-38 {
        fill: #1d5b65;
      }

      .cls-39 {
        fill: #e4e6e1;
      }

      .cls-40 {
        fill: #1a2f36;
      }

      .cls-41 {
        fill: #0f323c;
      }

      .cls-42 {
        fill: #22656d;
      }

      .cls-43 {
        fill: #ebece7;
      }

      .cls-44 {
        fill: #224a54;
      }

      .cls-45 {
        fill: #2c3d42;
      }

      .cls-46 {
        fill: #162b32;
      }

      .cls-47 {
        fill: #314146;
      }

      .cls-48 {
        fill: #164852;
      }

      .cls-49 {
        fill: #22646d;
      }

      .cls-50 {
        fill: #dbdcd7;
      }

      .cls-51 {
        fill: #1e5e68;
      }

      .cls-52 {
        fill: #1e3137;
      }

      .cls-53 {
        fill: #1c3036;
      }

      .cls-54 {
        fill: #3a9190;
      }

      .cls-55 {
        fill: #ced0cc;
      }

      .cls-56 {
        fill: #26515a;
      }

      .cls-57 {
        fill: #e6e8e3;
      }

      .cls-58 {
        fill: #e9eae4;
      }

      .cls-59 {
        fill: #1d3137;
      }

      .cls-60 {
        fill: #0f333d;
      }

      .cls-61 {
        fill: #1c5a64;
      }

      .cls-62 {
        fill: #34454a;
      }

      .cls-63 {
        fill: #182c33;
      }

      .cls-64 {
        fill: #dcdfdb;
      }

      .cls-65 {
        fill: #c6c8c5;
      }
    </style>
  </defs>
  <path
     class="cls-48"
     d="M152,119c.26-.74.73-1.82,1.3-1.77,4.69.42,21.52,3.88,25.7,5.51l1,2.26v55H0v-58l1.72-2.73c9.35-1.87,18.45-4.29,27.28-7.27l2.21.41c1.95,11.11,11.67,11.16,20.81,7.78,10.65-3.51,21.32-6.71,32.01-9.62,4.03,3.19,7.9,4.86,12.64,6.57,7.8,2.83,38.31,13.2,44.76,11.4,3.99-1.11,7.15-5.19,8.36-9.03l2.21-.52Z"
     id="path6" />
  <path
     class="cls-11"
     d="M152,119c-1.42,6.14-6.73,11.99-13.49,12.01-5.16.02-41.06-11.12-47.3-13.72-3.09-1.29-5.12-2.87-7.68-4.89-11.87,1.63-38.03,15.86-48.45,10.02-3.86-2.16-4.93-6.52-6.08-10.42-6.94-23.35-9-50-15.89-73.6-.29-6.25-1.32-11.47,4.56-15.23,4.27-2.73,37.31-8.54,43.96-9.03,3.74-.27,7.92-.86,10.9,1.84,3.72,3.37,5.64,22.19,6.48,28.02-.71,2.75-2.32-.01-3-2-3.86-3.18-5.14-10.45-3-15l-2.25-1.22c.42-7.82-4.35-9.63-14.32-5.45-11.32.77-22.32,2.7-33,5.79-2.2,1.17-2.5,2.31-2.55,4.66-.16,7.55,1.36,16.07,2.72,23.57,3.72,20.44,8.72,40.78,14.68,60.52.52,1.26,1.28,2.89,2.52,3.5,1.87.92,38.66-9.39,39.85-11.1l2.31-12.87,2.04-1.4c-3.02-2.39-4.95-11.66-3-15-1.72-2.23-.44-3.82,2-2l2.99,8.99c1.25-8.46,4.86-17.36,4.01-25.99.06-2.89,1.06-4.22,3-4,2.97-11.3,3.53-28.68,7.48-39.02,1.56-4.07,6.57-7,10.85-6.92,10.23.21,33.38,4,43.87,6.23s14.64,4.15,13.67,16.08c-2.22,27.57-14.8,59.56-17.88,87.62Z"
     id="path10" />
  <path
     class="cls-7"
     d="M79.76,135.18c8.41-1.03,12.33,8.13,11.17,15.26-.36,2.2-2.65,4.94-2.58,6.05.06.99,4.39,4.83,1.13,5.51-2.72.57-3.6-2.42-4.93-2.6-.97-.13-2.61.77-4.02.67-12.65-.98-12.89-23.4-.77-24.88Z"
     id="path12" />
  <path
     class="cls-58"
     d="M152,136c7,.23,16.09-2.31,16.09,7.5,0,5.86-4.12,6.58-4.16,7.07-.1,1.4,4.45,8.15,4.07,8.42-6.46,2.85-6.9-7.36-9.51-7.99-4.63-1.12.45,11.06-6.49,8v-23Z"
     id="path14" />
  <path
     class="cls-17"
     d="M16,136c6.75-.02,16.67-1.99,17.07,7.52.44,10.49-11.03,7.48-12.08,8.47-.33.32.25,5.65.01,7.01h-5.01v-23.01Z"
     id="path16" />
  <path
     class="cls-58"
     d="M136,136c.14-.14,3.85-.14,4,0,.47.45-.34,11,.01,13,2.03-.52,2.27-4.47,4-5.49,1.52-.89,3.35-.47,4.99-.5-.03,2.12-4.7,5.58-4.77,6.48-.09,1.13,6.35,9.08,5.77,9.5-6.08,1.4-6.1-3.33-9.99-5.99-.19,4.69,1.66,6.89-4.01,6,.62-3.04-.83-22.2,0-23Z"
     id="path18" />
  <path
     class="cls-57"
     d="M48,159c-4.87-1.55-14.58,4.62-14.09-4.5.28-5.24,5.92-5.07,10.09-5.51.11-5.98-8.15-.63-10-2,.97-5.39,10.09-6.52,12.92-2.41,2.25,3.26.58,10.44,1.07,14.42Z"
     id="path20" />
  <path
     class="cls-34"
     d="M53.86,143.14c1.09.68,2.52,10.9,3.64,10.87,1.14-1.42,2.14-10.57,2.54-10.97.18-.17,4.44-.44,4.95.44-3.42,5.25-4.51,19.28-9.61,22.39-4.28,2.6-6.3.02-3.72-2.96.74-.86,3.15-.6,3.3-3.37s-6.64-15.95-5.95-16.54c1.36.21,3.86-.49,4.85.14Z"
     id="path22" />
  <path
     class="cls-39"
     d="M98,143c.76.72-1.81,12.22,2.62,12.94,5.23.85,2.74-12.33,3.39-12.94.14-.14,3.85-.14,3.99,0,.58.55.29,13.58-.03,15.98-4.62-1.86-10.81,3.95-13.45-2-.67-1.51-1.02-13.5-.52-13.98.14-.14,3.85-.14,3.99,0Z"
     id="path24" />
  <path
     class="cls-13"
     d="M133,147.99c-1.47,1.37-5.28-1.98-6.51-2-4.36-.09-4.91,8.88-.79,9.91,2.93.73,4.1-3.94,7.3-2.89-.47,11.49-15.34,7.54-14.94-2.42.59-14.51,18.81-6.21,14.94-2.59Z"
     id="path26" />
  <path
     class="cls-43"
     d="M116,143v16c0,.2-4,.2-4,0v-16c0-.2,3.28.13,4,0Z"
     id="path28" />
  <path
     class="cls-64"
     d="M115.99,136.01c1.78,1.78-2.43,7.97-3.87,3.37-1.34-4.25,2.96-4.29,3.87-3.37Z"
     id="path30" />
  <path
     class="cls-41"
     d="M76,42c.34,1.89,2.76,1.8,3,2,8.37,7.26,7.64,22.31,5,32-.04.14-1.93,1.05-2,2-2.44,2.96-4.52-1.02-3.75-4.14,4.01-9.79,2.73-19.79-3.83-30l1.58-1.86Z"
     id="path32" />
  <path
     class="cls-60"
     d="M94,55c-.4,1.51-1.49,3.31-3,4-.28-2.88-2.49-9.95-3.82-12.68-1.17-2.4-6.14-7.32-6.16-7.82-.03-.65,1.44-1.81,2.99-1.02,5.22,2.66,7.11,13,9.99,17.52Z"
     id="path34" />
  <path
     class="cls-26"
     d="M73,27c1.09,4.96,1.84,10.08,3,15,2.04,8.67,7.97,12.65,6.89,23.39-.31,3.14-2.91,8.02-2.86,10.18.04,1.89,1.9,2.24,1.97,2.43,1.24,3.44,2.96,11.46,3,15-.14.91-.32,1.65-1.11,2.24-1.31.98-24.93,7.29-28.47,8.22-6.33,2.4-12.63,3.52-18.9,3.35-3.97-9.31-17.88-66.34-14.94-71.47.38-.66.91-1.19,1.56-1.59l48.35-8.52,1.51,1.77Z"
     id="path36" />
  <path
     class="cls-7"
     d="M103,24l1.59-2.77c3.71-2.24,48.25,5.08,54.97,8.93,1.65,4.13,1.47,9.03-.56,14.68l-13.83,65.78c-3.41,2.65-7.92,2.87-13.54.68-14.34-4.23-28.63-8.34-42.89-12.32-.46-2.21-.37-4.54.25-6.98,1.25-18.43,9.91-48.69,14-68Z"
     id="path38" />
  <path
     class="cls-4"
     d="M89,92c-.17,2.52-.6,5.45,2.41,6.09,15.21,2.3,32.75,10.65,47.58,12.51,1.79.23,3.26.38,4.77-.85l16.02-75.47c0-2.26-2.71-3.49-4.54-4.04-8.71-2.62-36.23-6.61-45.79-7.26-2.24-.15-4.47-.22-6.46,1.01,1.15-5.41.44-11.55,8.52-12.07,6.38-.41,37.61,4.52,44.73,6.32,6.56,1.66,7,3.9,6.62,10.12-.83,13.68-7.12,36.51-10.16,50.84-2.41,11.35-5.13,32.37-8.97,42.03-3.14,7.9-6.94,5.97-13.74,4.25-13.4-3.4-26.53-8.58-39.93-12.07-7.69-4.34-2.57-14.63-1.08-21.42Z"
     id="path40" />
  <path
     class="cls-44"
     d="M73,27l-48.3,8.19c-2.32.76-1.78,3.24-1.62,5.18,1.14,13.19,8.67,48.47,12.75,61.29.4,1.26.54,2.51,1.61,3.46,2.27,2.03,41.55-11.38,47.56-12.12.06,4.97-2.03,11.05-2.58,16.12l-39.2,11.67c-6.74.45-7.58-7.89-8.76-12.75-4.98-20.41-13.55-53.64-15.34-73.65-.44-4.88-.89-8.31,4.3-10.45,11.21-4.62,30.16-3.6,42.2-7.86,7.63.42,6.26,5.9,7.37,10.93Z"
     id="path42" />
  <path
     class="cls-22"
     d="M21.99,63c-1.84-.31-1.67-2.06-2.12-3.37-1.74-5.03-2.38-11.31-2.86-16.63,4.09,4.63,4.22,13.9,4.98,20Z"
     id="path44" />
  <path
     class="cls-27"
     d="M162.99,50.01c-.09,5.06-1.05,11.05-2.74,15.8-.57,1.6.53,2.68-2.25,2.19.89-4.99,1.54-10.86,2.86-15.68.47-1.72-.71-2.78,2.13-2.31Z"
     id="path46" />
  <path
     class="cls-33"
     d="M85.99,151.99c-1.71,2.13-1.54-2.2-3.36-1.94-5.52.8-.27,4.67-.64,4.93-7.52,2.38-7.4-12.5-4.01-14.5,8.09-4.78,9.63,9.48,8.01,11.5Z"
     id="path48" />
  <path
     class="cls-56"
     d="M156,147c.1-2.96-1.07-6.41,2.52-7.05,7.13-1.27,6.11,9.74-2.52,7.05Z"
     id="path50" />
  <path
     class="cls-31"
     d="M27.87,141.13c1.12,5.39-1.74,7.61-6.87,6.88v-8.01s6.87,1.13,6.87,1.13Z"
     id="path52" />
  <path
     class="cls-15"
     d="M44,152.01c.51,6.96-9.44,3.88-5.41.91.72-.53,5.01-1.28,5.41-.91Z"
     id="path54" />
  <path
     class="cls-61"
     d="M53.76,53.19c5.88-1.12,12.31,4.29,12.26,10.31-.02,2.28-1.8,4.86-1.69,6.02.27,2.78,8.77,4.1,4.15,7.49-1.59.31-4.35-3.43-6.21-3.81-1.71-.34-3.81.91-5.77.89-14.23-.15-13.57-18.84-2.74-20.9Z"
     id="path56" />
  <path
     class="cls-9"
     d="M74.81,49.23c1.48.95,3.96,8.12,4.19,10.27.28,2.57-.16,12.14-2.01,13.5-.72.53-2.8-.71-2.89-1.48-.05-.38,1.53-2.84,1.67-4.25.46-4.49.47-7.26-.97-11.56-.25-.75-5.86-10.26.01-6.48Z"
     id="path58" />
  <path
     class="cls-28"
     d="M52.99,42l1,8.99c-3.76.18-5.9-9.47-1-8.99Z"
     id="path60" />
  <path
     class="cls-49"
     d="M70.91,57.08c1.01.62,1.28,7.29,1.09,8.92-4.41.04-2.44-5.81-4.01-8.48-.05-.86,2.49-.7,2.92-.44Z"
     id="path62" />
  <path
     class="cls-19"
     d="M59.97,77.01c.31.25,1.39,7.64,1.03,7.99-.11.1-2.88.11-2.99,0-.29-.28-1.29-7.72-1-8,.11-.1,2.84-.09,2.96,0Z"
     id="path64" />
  <path
     class="cls-42"
     d="M45.99,54.99c-1.28,1.29-6.66-2.67-5.99-4.99,2.73-1.52,7.83,3.14,5.99,4.99Z"
     id="path66" />
  <path
     class="cls-51"
     d="M42.99,65c2.73,3.04-5.39,4.83-6.99,3.99-1.04-2.88,6.71-4.31,6.99-3.99Z"
     id="path68" />
  <path
     class="cls-35"
     d="M62.87,50.86c-4.86,3.09-1.49-5.39-.86-5.86.73-.55,2.94.86,2.96,1.49.01.24-1.9,4.24-2.11,4.37Z"
     id="path70" />
  <path
     class="cls-38"
     d="M49.99,76c1.15,1.3-2.52,7.66-3.99,5.99-1.15-1.3,2.52-7.66,3.99-5.99Z"
     id="path72" />
  <path
     class="cls-46"
     d="M150.87,44.13c1.41,2.17-2.33,13.69-2.92,16.85l-15.96-2.99,4.02-17,14.86,3.13Z"
     id="path74" />
  <polygon
     class="cls-10"
     points="121 38 117.99 55 102.99 51.99 106.02 36.02 121 38"
     id="polygon76" />
  <path
     class="cls-63"
     d="M115,73.01c-2.55,2.51-3.21,14.33-4.94,15.56-1.63,1.16-13.52-2.06-13.95-2.68-1.18-1.68,2.63-13.03,2.97-15.81l15.91,2.93Z"
     id="path78" />
  <path
     class="cls-21"
     d="M122,80c3.2-1.73,5.53.6,7,7,1.3,1.09,2.43,2.51,3,4,.92-1.59,2.72-.88,2,1-2.4-.8-2.24,2.55-3.41,2.71-.28.04-5.31-.6-5.51-.79-.48-.46.59-4.49-2.08-4.92-.85-.24-.83-.58,0-1,.12-2.89-1.29-4.33-4.55-3.74-1.88.34-1.89,6.31-2.46,6.74-3.95,2.92-2.45-8.78-.88-9.89s5.15.95,5.78.73c.18-.06.59-1.61,1.11-1.84Z"
     id="path80" />
  <path
     class="cls-2"
     d="M140,65c.96-.3,4.57-4.86,7.83-.53-1.45,2.21-1.12,6.77-2.33,8.58s-2.95-2.05-4.5,2.46c-.34.99,5.03.7,3.98,2.98-1.19,2.6-5.05,1.12-6.99.52-.85-.24-.82-.58,0-1-1.96-.33-2.62-1.33-2-3-1.5-4.55-.83-6.22,2-5,.98-2.73,1.97-2.66,3,0,1.04-1.62.7-2.95-1-4-.87-.28-.86-.62,0-1Z"
     id="path82" />
  <path
     class="cls-23"
     d="M128,78c1.33.37,2.67.81,4.02,1.31,1-3.76,3.66-4.62,5.98-1.31.02.31.05.7,0,1-.05.28-1.75,5.17-1.91,5.41-.74,1.13-2.86-.65-4.09,3.59-1.46,2.22-2.74,1.51-3-1-.72-.22-2.72.32-2.97,0-.28-.36-.31-8.59-4.03-6.99v-1c.49-2.74,4.82-3.64,6-1Z"
     id="path84" />
  <path
     class="cls-40"
     d="M131,64l1.21.72c-.39,2.23-.13,4.32.79,6.28,3.16,3.34-.54,10.9-5,7-1.61-1.37-4.34-5.94-2-8-1.06-.13-1.73-.46-2-1,.31-8.15,1.36-5.85,7-5Z"
     id="path86" />
  <path
     class="cls-25"
     d="M125,49c-.66-3.69-5.24-11.13,2.02-9.49.05,1.36-1.7,5.84-1.02,6.48.37.35,5.35-.87,5.75,1.46.05.28-.56,5.34-.75,5.54-.39.41-3.55-.37-4,0-.24.19.16,2.37,0,3,1.28,1.91.73,2.46-1,1-.22,0-1.74-1.54-3,0-2.39-1.92-.37-6.41,2-8Z"
     id="path88" />
  <path
     class="cls-59"
     d="M125,49c.36,2.02.9,1.65-.98,3.97,1.74-.62,2.95,1.21,1.98,2.03s-2.3-1.93-3,2c-1.4,7.85-2.96,4.97-10,3-.44-5.19,6.02-1.04,7-2,1.07-1.04-.87-12.48,5-9Z"
     id="path90" />
  <path
     class="cls-20"
     d="M132,89c10.88.61,5.03-1.34,7.91-5.42.61-.86,2.82-.83,3.08-.58.51.49-1.51,13.49-2.02,13.98-.14.14-3.82.14-3.97,0-.62-.57,1.13-3.82,1-3.98s-3.25-.77-4.01-1.01c-.4-.13-1.05-.7-2-1-1.92-.56-1.93-1.44,0-2Z"
     id="path92" />
  <path
     class="cls-62"
     d="M124,69c.77.25,1.61-.42,2,1-.72,2.74-1.43,5.49-2.04,8.23l-1.96.77c-8.55-.5-5.22-5.27-4-11,1.83.37,4.34.47,6,1Z"
     id="path94" />
  <path
     class="cls-2"
     d="M107,59c.86.24.84.58,0,1-.15,1.46-.26,3.96.02,5.31.06.31,3.72,1.96,1.98,3.68-.26.26-5.66-.88-5.86-1.15-.48-.65.16-2.36-.19-3.06-.51-1.02-1.53-.94-1.6-1.06-1.82-3.33.84-2.33,2.51-3.29.71-.4.95-1.34,1.13-1.43.37-.19,1.41.13,2,0Z"
     id="path96" />
  <path
     class="cls-8"
     d="M113,61c.16.78-.34,2.58.06,2.93.32.27,4.77.44,5.95,1.08-.41,1-.77,1.91-1,2.99-1.42-.29-4.96-.45-5.77-1.25-.5-.49-.61-2.65-1.23-3.75-.97-2.73-.76-3.26,2-2Z"
     id="path98" />
  <path
     class="cls-6"
     d="M137,65c-1.05,2.25-6.03,2.17-6-1,.18-.86-.15-2.05,0-3,1.92.05,6.21-.71,6.93,1.6.27.86-.94,2.05-.92,2.4Z"
     id="path100" />
  <path
     class="cls-52"
     d="M107,59c.42-2.27,1.6-3.7,4-3.01-.88,4.91.98,3.31,2,4.01.12.08-.07.65,0,1l-2,2c-1.22-2.17-.77-3.71-4-3,.03-.33-.06-.68,0-1Z"
     id="path102" />
  <path
     class="cls-45"
     d="M140,65v1c2.11.14,2.9,2.98,1,4-.99.06-2-.04-3,0-2.18.26-2.52-.4-1-2-2.64-.96-2.64-2.03,0-3,.83.03,2.42.18,3,0Z"
     id="path104" />
  <rect
     class="cls-29"
     x="130"
     y="40"
     width="2.99"
     height="3.99"
     id="rect106" />
  <path
     class="cls-30"
     d="M123,88c-.01.32.06.69,0,1-1.38,7.18-8.74.11,0-1Z"
     id="path108" />
  <path
     class="cls-30"
     d="M127,56c2.99-.6,1.9,1.39,1.99,4-3.31.35-3.25.18-2.99-3,1.01-.04.82-.27,1-1Z"
     id="path110" />
  <path
     class="cls-14"
     d="M105,59h-1.49c-1.57-1.06-1.74-2.15-1.51-3.99h2.99s0,3.99,0,3.99Z"
     id="path112" />
  <path
     class="cls-32"
     d="M132,88c-.08.27.04.65,0,1-.07.65.05,1.34,0,2-2.57-.81-3.51,1.92-3-4,.99.31,1.9.96,3,1Z"
     id="path114" />
  <path
     class="cls-16"
     d="M109.57,108.05c1.68-.38,11.55,3.04,7.96,6.99-4.35,3.51-14.16-5.59-7.96-6.99Z"
     id="path116" />
  <path
     class="cls-37"
     d="M142,22.99l-19-2c.13-.81-.19-2.78.01-2.99.57-.6,14.49,1.63,16.46,2.03,1.76.36,2.83.94,2.53,2.96Z"
     id="path118" />
  <path
     class="cls-37"
     d="M58,109.99c-2.87-2.95,6.44-5.07,8.19-5.34,1.15-.17,3.38-1.21,3.8.86.55,2.73-11.53,4.95-11.99,4.48Z"
     id="path120" />
  <path
     class="cls-36"
     d="M53,23.01c-1.03,5.4-10.25,2.69-13.99,4.99.1-.81-.21-2.78-.01-2.99.48-.52,12.11-1.8,14-2Z"
     id="path122" />
  <path
     class="cls-26"
     d="M54.74,57.16c8.08-1.46,9.87,10.77,3.55,12.63-10.85,3.2-11.98-11.11-3.55-12.63Z"
     id="path124" />
  <path
     class="cls-3"
     d="M148,46c.43.41-1.62,10.54-2.12,10.89-1.58,1.09-7.52-1.58-9.9-.89.08-1.6,1.62-10.61,2.04-10.97.83-.72,7.96,1.82,9.98.98Z"
     id="path126" />
  <path
     class="cls-18"
     d="M118.01,41.01l-2.09,9.91c-3.54-.27-9.03.05-8.86-4.27.38-9.77,3.29-7.53,10.96-5.64Z"
     id="path128" />
  <path
     class="cls-50"
     d="M109,86l-10-2.01,2.01-10.99c2.05,1.53,8.37,1.39,9.57,2.95.59.77-2.13,8.09-1.59,10.05Z"
     id="path130" />
  <path
     class="cls-24"
     d="M133,71c2.4-3.48,3.4-2.15,3,4,.32.59,1.82.3,2,3-5.76-1.17-3.39,2.22-4.07,2.89-.97.95-6.03.58-5.93-2.89,5.26-1.52,3.65-1.57,5-7Z"
     id="path132" />
  <path
     class="cls-47"
     d="M137,68c0,.11,1.27,1.05,1,2-.2.7-2.89,2.77-2,5-.97-1.78-.89-3.61-1.1-3.92-.3-.44-1.51.08-1.9-.08-3.89-3.81,1.41-7.08,4-3Z"
     id="path134" />
  <path
     class="cls-65"
     d="M140,66c3.87-1.16,4.87,3.78,1,4l-1-4Z"
     id="path136" />
  <path
     class="cls-12"
     d="M126,70c1.2,4.29,2.58,3.57,2.88,4.57.27.92-.85,2.45-.88,3.43-1.33.39-4.74,1.07-6,1,.72-2.68.51-9.48,4-9Z"
     id="path138" />
  <path
     class="cls-55"
     d="M137,65c.04.98.08,2.03,0,3-5.62-.45-3.29.14-4,3-4.31-1.8-2.98-2.4-2-7,1.98.3,4.09.93,6,1Z"
     id="path140" />
  <path
     class="cls-5"
     d="M143.84,53.85c-1.02.62-3.47-.05-4.84.14-.08-4.37.72-8.16,5.57-5.04.85.98-.19,4.57-.73,4.9Z"
     id="path142" />
  <path
     class="cls-1"
     d="M114.89,43.1c2.11,3.46-3.3,6.45-4.89,4.9-.32-.31.2-4.77,0-6,.32-.34,4.63.68,4.88,1.1Z"
     id="path144" />
  <path
     class="cls-53"
     d="M106.99,83.01l-5-1.01,1.08-4.92c5.97-.77,4.38,1.63,3.92,5.94Z"
     id="path146" />
</svg>
