<?xml version="1.0" encoding="UTF-8" standalone="no"?>
<svg
   version="1.0"
   width="112.72871pt"
   height="99.394409pt"
   viewBox="0 0 112.72871 99.394405"
   preserveAspectRatio="xMidYMid"
   id="svg8"
   sodipodi:docname="paymail-bridge.svg"
   inkscape:version="1.2.2 (b0a8486541, 2022-12-01)"
   inkscape:export-filename="paymail-bridge.svg"
   inkscape:export-xdpi="96"
   inkscape:export-ydpi="96"
   xmlns:inkscape="http://www.inkscape.org/namespaces/inkscape"
   xmlns:sodipodi="http://sodipodi.sourceforge.net/DTD/sodipodi-0.dtd"
   xmlns="http://www.w3.org/2000/svg"
   xmlns:svg="http://www.w3.org/2000/svg">
  <defs
     id="defs682">
    <style
       id="style680">
      :root { color-scheme: light; } /* dark-mode fix */
    </style>
  </defs>
  <defs
     id="defs12" />
  <sodipodi:namedview
     id="namedview10"
     pagecolor="#ffffff"
     bordercolor="#000000"
     borderopacity="0.25"
     inkscape:showpageshadow="2"
     inkscape:pageopacity="0.0"
     inkscape:pagecheckerboard="0"
     inkscape:deskcolor="#d1d1d1"
     inkscape:document-units="pt"
     showgrid="false"
     inkscape:zoom="1"
     inkscape:cx="141.5"
     inkscape:cy="-83.5"
     inkscape:window-width="1920"
     inkscape:window-height="1020"
     inkscape:window-x="0"
     inkscape:window-y="32"
     inkscape:window-maximized="1"
     inkscape:current-layer="svg8" />
  <metadata
     id="metadata2"> Created by potrace 1.16, written by Peter Selinger 2001-2019 </metadata>
  <path
     style="fill:#ffffff;stroke:#fdfdfd;stroke-width:0.179144"
     d="m 18.206102,71.403161 c -0.305504,-0.96294 -0.473185,-8.237775 -0.574987,-24.945798 l -0.114064,-18.720545 6.502142,6.449183 c 9.343948,9.267842 13.036695,13.111946 14.845881,15.454371 l 0.590515,0.764567 -0.976726,1.206015 c -3.22681,3.984322 -19.29057,20.105707 -20.033837,20.105707 -0.0767,0 -0.18422,-0.141075 -0.238924,-0.3135 z"
     id="path652" />
  <path
     style="fill:#ffffff;stroke:#fdfdfd;stroke-width:0.179144"
     d="m 38.415852,42.031225 c -1.491069,-1.147582 -9.290857,-9.030726 -12.693179,-12.828828 -4.115471,-4.59421 -5.916383,-6.901759 -5.618735,-7.199408 0.03509,-0.03508 0.747826,-0.149372 1.583867,-0.25397 5.178958,-0.647943 29.645829,-1.030996 47.847396,-0.749098 16.11693,0.249613 22.807657,0.559751 23.329305,1.081394 0.24201,0.242008 -0.563648,1.533577 -2.16369,3.468671 -1.615238,1.953478 -8.693168,9.082433 -11.241728,11.322777 -1.701412,1.495648 -4.114462,3.314561 -4.397235,3.314561 -0.07215,0 -0.420157,-0.608543 -0.77337,-1.35232 -2.397412,-5.048272 -6.829912,-8.511807 -12.353092,-9.652652 -1.89696,-0.391827 -5.334765,-0.365194 -7.381199,0.05718 -3.77012,0.778138 -7.042188,2.636519 -9.850496,5.594618 -1.505511,1.585815 -2.810874,3.502265 -3.42952,5.034999 -0.602907,1.493749 -1.310181,2.785495 -1.582332,2.889929 -0.121217,0.04651 -0.695413,-0.28102 -1.275992,-0.727855 z"
     id="path654" />
  <path
     style="fill:#ffffff;stroke:#fdfdfd;stroke-width:0.179144"
     d="M 92.965928,70.127149 C 88.188166,66.139226 74.536733,52.396406 73.775461,50.808221 c -0.165758,-0.345802 -0.0624,-0.551782 0.80922,-1.612294 1.667167,-2.028535 4.128682,-4.617744 12.38151,-13.023819 l 7.899277,-8.045955 0.109778,5.806656 c 0.151005,7.9871 0.184995,35.75235 0.045,36.773557 -0.0627,0.457133 -0.170333,0.831158 -0.23928,0.831158 -0.06893,0 -0.88572,-0.634673 -1.81506,-1.410375 z"
     id="path656" />
  <path
     style="fill:#ffffff;stroke:#fdfdfd;stroke-width:0.179144"
     d="m 28.850915,76.539424 c -4.850361,-0.139178 -6.628328,-0.272273 -6.628328,-0.496185 0,-0.227325 2.222363,-2.938913 4.206671,-5.132723 2.725567,-3.013327 12.56055,-12.79632 13.505223,-13.433827 l 0.782787,-0.528255 0.429234,0.531862 c 0.236079,0.292515 0.525419,0.84774 0.642979,1.233833 0.808511,2.655292 7.818592,6.832072 13.104797,7.808167 2.76504,0.510563 6.412605,-0.110175 9.559853,-1.626877 2.700757,-1.301535 3.506385,-2.669235 1.876125,-3.185078 -0.691785,-0.218895 -1.187565,-0.185422 -5.00199,0.337658 -3.405383,0.466995 -4.587473,0.56106 -6.039578,0.480607 -2.626314,-0.145507 -4.371564,-0.77394 -6.497196,-2.339527 -4.368342,-3.21741 -6.486193,-9.797978 -5.006555,-15.556323 0.783335,-3.048525 2.162894,-5.409636 4.540755,-7.771491 2.814485,-2.795542 4.172466,-3.399155 8.225111,-3.656007 3.878513,-0.245814 6.195893,0.100052 8.576768,1.28007 3.857025,1.911634 5.822175,5.368167 5.822175,10.240709 0,2.957077 -0.747803,5.683694 -2.051153,7.478849 -0.719602,0.991125 -1.550145,1.418235 -2.757862,1.418235 -1.366823,0 -1.46175,-0.22131 -1.457738,-3.398812 0.0038,-2.698532 0.27966,-5.178117 0.893363,-8.01849 0.579982,-2.684318 0.498015,-3.110975 -0.638903,-3.325626 -0.908602,-0.171543 -1.909477,0.151557 -2.445922,0.789583 l -0.4863,0.5784 -1.666463,-0.838172 c -2.72394,-1.37005 -4.64805,-1.472584 -6.908868,-0.368166 -1.319125,0.644396 -2.912924,2.176479 -3.594569,3.455377 -2.18278,4.095312 -1.724083,11.403984 0.825197,13.148334 1.240258,0.84864 2.804565,1.257225 4.882838,1.275337 2.172652,0.01897 2.6322,-0.07846 3.393825,-0.719332 0.725932,-0.61083 1.239082,-0.51423 3.578175,0.67359 2.334862,1.185675 2.904307,1.201635 5.229795,0.146595 0.925027,-0.41967 2.044627,-0.798653 2.488012,-0.84219 0.705263,-0.06923 0.94272,0.0097 1.89747,0.630577 2.844,1.849575 17.245988,16.585673 18.445073,18.872978 0.246742,0.470662 0.244095,0.4737 -0.50784,0.583485 -2.895075,0.422692 -48.855699,0.627532 -61.216961,0.272835 z"
     id="path658" />
  <path
     style="fill:#ffffff;stroke:#fdfdfd;stroke-width:0.179144"
     d="M 13.351696,98.311504 C 11.433255,96.935089 8.6587667,94.581356 4.0555269,90.425111 L 0.13041244,86.881144 5.0408184,82.029611 c 5.2555076,-5.192505 7.2045646,-6.884032 8.7491886,-7.593157 0.884369,-0.406005 1.014217,-0.42306 1.433152,-0.18825 0.884377,0.495697 0.993336,1.013595 1.055645,5.017642 l 0.05754,3.697583 7.735223,0.08776 c 8.206841,0.09311 10.106233,0.253245 12.172242,1.02624 1.336128,0.499913 2.101737,1.358265 2.101737,2.35635 0,1.49241 -1.674006,2.488373 -5.105604,3.03762 -0.709233,0.113513 -4.619939,0.238793 -9.001985,0.288368 -7.036857,0.07962 -7.74814,0.114735 -7.749748,0.38256 -0.0062,1.034077 -0.397782,5.673075 -0.554135,6.564922 -0.209323,1.194008 -0.764518,2.597588 -1.027489,2.597588 -0.09371,0 -0.793415,-0.447 -1.554889,-0.99333 z"
     id="path660" />
  <path
     style="fill:#ffffff;stroke:#fdfdfd;stroke-width:0.179144"
     d="M 97.311773,25.934983 C 96.850396,24.922367 96.567338,22.366135 96.567338,19.21213 v -3.193008 l -0.582217,-0.08598 c -0.32022,-0.04729 -3.943013,-0.17493 -8.050658,-0.283651 -9.97872,-0.264117 -11.445772,-0.451038 -11.706937,-1.491619 -0.05595,-0.222938 -0.07728,-0.918602 -0.0474,-1.545918 0.09392,-1.970938 0.416692,-2.060072 8.445975,-2.332407 2.971357,-0.100781 6.865192,-0.233116 8.652967,-0.2940765 l 3.250508,-0.1108373 0.07953,-4.0568482 c 0.08227,-4.1960948 0.246975,-5.2439753 0.887062,-5.64339155 0.41883,-0.2613555 0.84747,-0.0036 3.240602,1.94883975 2.07412,1.6921605 5.2332,4.5888488 9.4455,8.6609658 l 2.41844,2.337962 -5.01603,4.978923 c -4.90262,4.866346 -6.53854,6.341306 -8.482559,7.647918 -1.136318,0.763744 -1.50945,0.802504 -1.790363,0.185977 z"
     id="path662" />
  <rect
     style="fill:#ffffff;stroke:#fdfdfd;stroke-width:0.75"
     id="rect716"
     width="28.578911"
     height="38.910538"
     x="42.519512"
     y="26.908062" />
  <g
     aria-label="@"
     id="text772"
     style="font-weight:bold;font-size:48px;line-height:0px;-inkscape-font-specification:'sans-serif Bold';text-align:center;text-anchor:middle;fill:#f3c300;stroke:#fdfdfd;stroke-width:0.75"
     transform="translate(-20.413679,-24.931511)">
    <path
       d="m 97.206102,71.703344 q 0,2.208 -0.528,4.368 -0.528,2.16 -1.632,3.936 -1.056,1.776 -2.688,2.832 -1.632,1.008 -3.84,1.008 -1.776,0 -3.12,-0.816 -1.344,-0.864 -1.872,-2.208 h -0.384 q -0.96,1.2 -2.592,2.112 -1.584,0.912 -3.84,0.912 -4.272,0 -6.624,-2.544 -2.304,-2.592 -2.304,-6.768 0,-3.216 1.392,-5.664 1.392,-2.496 3.936,-3.888 2.544,-1.44 6,-1.44 2.256,0 4.656,0.432 2.448,0.384 3.792,0.864 l -0.48,9.84 q -0.048,0.48 -0.048,1.008 0,0.48 0,0.624 0,1.968 0.528,2.64 0.576,0.624 1.248,0.624 1.104,0 1.824,-1.056 0.72,-1.104 1.056,-2.88 0.384,-1.824 0.384,-3.984 0,-4.032 -1.632,-6.816 -1.632,-2.832 -4.464,-4.32 -2.784,-1.488 -6.384,-1.488 -5.04,0 -8.496,2.112 -3.408,2.064 -5.184,5.664 -1.776,3.6 -1.776,8.256 0,6.48 3.456,9.936 3.504,3.456 10.032,3.456 2.784,0 5.808,-0.624 3.024,-0.624 5.52,-1.536 v 4.512 q -2.304,0.96 -5.136,1.536 -2.832,0.576 -6,0.576 -5.952,0 -10.176,-2.112 -4.224,-2.112 -6.48,-6.048 -2.208,-3.984 -2.208,-9.552 0,-4.368 1.44,-8.112 1.44,-3.744 4.128,-6.528 2.736,-2.832 6.528,-4.368 3.792,-1.584 8.496,-1.584 5.136,0 9.12,2.064 3.984,2.064 6.24,5.904 2.304,3.84 2.304,9.12 z m -24,2.928 q 0,2.64 1.104,3.792 1.104,1.152 2.928,1.152 2.4,0 3.36,-1.728 1.008,-1.776 1.2,-4.608 l 0.288,-5.184 q -0.528,-0.096 -1.2,-0.144 -0.672,-0.096 -1.488,-0.096 -2.256,0 -3.648,1.008 -1.344,0.96 -1.968,2.544 -0.576,1.536 -0.576,3.264 z"
       id="path8925" />
  </g>
</svg>
