<?xml version="1.0" encoding="UTF-8" standalone="no"?>
<svg
   id="Layer_1"
   data-name="Layer 1"
   viewBox="0 0 155.98987 156.93648"
   version="1.1"
   sodipodi:docname="paymail-bridge.svg"
   width="155.98987"
   height="156.93648"
   inkscape:version="1.2.2 (b0a8486541, 2022-12-01)"
   xmlns:inkscape="http://www.inkscape.org/namespaces/inkscape"
   xmlns:sodipodi="http://sodipodi.sourceforge.net/DTD/sodipodi-0.dtd"
   xmlns="http://www.w3.org/2000/svg"
   xmlns:svg="http://www.w3.org/2000/svg">
  <sodipodi:namedview
     id="namedview27"
     pagecolor="#ffffff"
     bordercolor="#000000"
     borderopacity="0.25"
     inkscape:showpageshadow="2"
     inkscape:pageopacity="0.0"
     inkscape:pagecheckerboard="0"
     inkscape:deskcolor="#d1d1d1"
     showgrid="false"
     inkscape:zoom="4.7555556"
     inkscape:cx="78.014019"
     inkscape:cy="78.53972"
     inkscape:window-width="1920"
     inkscape:window-height="1020"
     inkscape:window-x="0"
     inkscape:window-y="32"
     inkscape:window-maximized="1"
     inkscape:current-layer="Layer_1" />
  <defs
     id="defs4">
    <style
       id="style2">
      .cls-1 {
        fill: #6994b4;
      }

      .cls-2 {
        fill: #eeb83b;
      }

      .cls-3 {
        fill: #fdfdfe;
      }
    </style>
  </defs>
  <path
     class="cls-1"
     d="m 29.803086,1.7575349 c 24.88,-2.42 69.55,-2.17 94.690004,-0.29 16,1.2 27.63,7.76 30.52,24.4800001 -2.3,33.16 3.03,70.37 0.04,103.049995 -1.56,16.97 -13.58,25.14 -29.56,26.44 -25.31,2.06 -68.610004,1.92 -94.020004,0.05 -16.41,-1.21 -28.7199998,-9.12 -30.4499998,-26.55 -3.18,-32.069995 2.27,-69.279995 0.1,-101.879995 2.77,-16.57 12.5299998,-23.7400001 28.6899998,-25.3100001 z M 118.00309,42.457535 c 0.61,0 -1.68,11.91 2.48,10.99 0.79,-0.17 11.08,-10.61 11.57,-11.44 0.83,-1.39 1.34,-2.12 0.82,-3.86 -0.25,-0.85 -12.41,-11.54 -13.36,-11.71 -3.38,-0.62 0.14,10.02 -3.01,10.02 H 98.503086 c -1.99,0 -1.98,6 0,6 z m -57.000004,26 c -0.21,0.63 -0.95,5.15 -1,6 l -21,-20 v 44 c 1.75,0.44 2,-0.72 3.01,-1.49 6.19,-4.74 11.4,-12.91 17.99,-17.51 0.03,0.23 0.91,3.81 1,4 -2.54,5.18 -15.73,13.89 -17.51,17.999995 -0.47,1.08 0.77,2 1.01,2 h 68.500004 c 0.53,-4.299995 -3.97,-5.489995 -6.53,-7.969995 -4.29,-4.17 -8.640004,-8.42 -12.470004,-13.03 0.16,-0.16 1.92,-3.79 2,-4 5.660004,5.49 11.880004,13.82 17.990004,18.51 1.01,0.77 1.26,1.93 3.01,1.49 v -44 l -20.000004,19 c 0.14,-1.52 0.25,-4.62 0,-6 2.37,-2.34 17.680004,-16.06 18.000004,-17.51 0.22,-0.97 -1.13,-2.49 -1.5,-2.49 H 42.503086 c -0.36,0 -1.71,1.51 -1.5,2.49 0.3,1.34 16.96,17.25 20,18.51 z m -22,40.999995 c 1.83,-19.339995 -12.05,-1.99 -16.93,4.36 1.6,1.79 12.66,12.4 13.57,12.56 4.85,0.85 2.79,-9.92 3.36,-9.92 h 18.5 c 2.91,0 2.91,-7 0,-7 z"
     id="path8" />
  <path
     class="cls-3"
     d="m 61.003086,83.457535 c 1.75,3.71 8.8,8.7 12.94,9.56 3.61,0.74 15.07,0.8 15.1,-4.04 0.03,-4.85 -7.16,0.3 -10.54,0.3 -22.31,-0.03 -14.75,-37.28 7.08,-28.89 7.79,2.99 9.94,19.25 0.43,20.07 l 1.99,-14.99 c -5.54,0.89 -10.8,-3.31 -15.42,1.07 -5.41,5.12 -4.85,18.11 3.93,17.99 2.42,-0.03 3.84,-1.77 5.17,-1.89 1.22,-0.11 2.87,2.01 5.79,1.92 0.82,-0.03 6.29,-1.85 6.53,-2.1 3.83,4.6 8.180004,8.85 12.470004,13.03 2.55,2.48 7.06,3.67 6.53,7.969995 H 44.503086 c -0.24,0 -1.48,-0.92 -1.01,-2 1.78,-4.109995 14.97,-12.819995 17.51,-17.999995 z"
     id="path10" />
  <path
     class="cls-3"
     d="m 97.003086,67.457535 c -3.23,-17.72 -30.34,-16.24 -36,1 -3.04,-1.26 -19.7,-17.18 -20,-18.51 -0.22,-0.97 1.13,-2.49 1.5,-2.49 h 71.000004 c 0.36,0 1.71,1.51 1.5,2.49 -0.32,1.45 -15.620004,15.17 -18.000004,17.51 z"
     id="path12" />
  <path
     class="cls-2"
     d="m 97.003086,67.457535 c 0.25,1.38 0.14,4.48 0,6 -0.09,0.98 -0.71,4.19 -1,5 -0.08,0.21 -1.84,3.84 -2,4 -0.24,0.24 -5.71,2.07 -6.53,2.1 -2.93,0.09 -4.58,-2.03 -5.79,-1.92 -1.32,0.12 -2.75,1.85 -5.17,1.89 -8.78,0.12 -9.34,-12.87 -3.93,-17.99 4.63,-4.38 9.89,-0.18 15.42,-1.07 l -1.99,14.99 c 9.51,-0.82 7.35,-17.08 -0.43,-20.07 -21.83,-8.39 -29.38,28.86 -7.08,28.89 3.38,0 10.57,-5.15 10.54,-0.3 -0.03,4.84 -11.49,4.78 -15.1,4.04 -4.14,-0.85 -11.19,-5.85 -12.94,-9.56 -0.09,-0.19 -0.97,-3.77 -1,-4 -0.19,-1.39 -0.09,-3.53 0,-5 0.05,-0.85 0.79,-5.37 1,-6 5.66,-17.24 32.77,-18.72 36,-1 z m -20.34,2.15 c -3.48,1.15 -4.93,12.22 2.67,9.71 3.48,-1.15 4.93,-12.22 -2.67,-9.71 z"
     id="path14" />
  <path
     class="cls-3"
     d="m 60.003086,74.457535 c -0.09,1.47 -0.19,3.61 0,5 -6.59,4.59 -11.8,12.76 -17.99,17.51 -1.01,0.77 -1.26,1.93 -3.01,1.49 v -44 z"
     id="path16" />
  <path
     class="cls-3"
     d="m 97.003086,73.457535 20.000004,-19 v 44 c -1.75,0.44 -2,-0.72 -3.01,-1.49 -6.12,-4.68 -12.33,-13.01 -17.990004,-18.51 0.29,-0.81 0.91,-4.02 1,-5 z"
     id="path18" />
  <path
     class="cls-3"
     d="m 39.003086,109.45753 h 18.5 c 2.91,0 2.91,7 0,7 h -18.5 c -0.57,0 1.49,10.77 -3.36,9.92 -0.91,-0.16 -11.97,-10.77 -13.57,-12.56 4.88,-6.35 18.76,-23.709995 16.93,-4.36 z"
     id="path20" />
  <path
     class="cls-3"
     d="M 118.00309,42.457535 H 98.503086 c -1.98,0 -1.99,-6 0,-6 h 18.000004 c 3.16,0 -0.37,-10.63 3.01,-10.02 0.95,0.17 13.11,10.86 13.36,11.71 0.52,1.74 0.01,2.46 -0.82,3.86 -0.49,0.83 -10.78,11.27 -11.57,11.44 -4.17,0.92 -1.87,-10.99 -2.48,-10.99 z"
     id="path22" />
  <path
     class="cls-3"
     d="m 76.663086,69.607535 c 7.6,-2.51 6.15,8.56 2.67,9.71 -7.6,2.51 -6.15,-8.56 -2.67,-9.71 z"
     id="path24" />
</svg>
