<?xml version="1.0" encoding="UTF-8" standalone="no"?>
<svg
   version="1.0"
   width="153.782028pt"
   height="153.347238pt"
   viewBox="0 0 153.782028 153.347238"
   preserveAspectRatio="xMidYMid meet"
   id="svg8"
   sodipodi:docname="paymail-bridge.svg"
   inkscape:version="1.2.2 (b0a8486541, 2022-12-01)"
   inkscape:export-filename="paymail-bridge.svg"
   inkscape:export-xdpi="96"
   inkscape:export-ydpi="96"
   xmlns:inkscape="http://www.inkscape.org/namespaces/inkscape"
   xmlns:sodipodi="http://sodipodi.sourceforge.net/DTD/sodipodi-0.dtd"
   xmlns="http://www.w3.org/2000/svg"
   xmlns:svg="http://www.w3.org/2000/svg">
  <defs
     id="defs12" />
  <sodipodi:namedview
     id="namedview10"
     pagecolor="#ffffff"
     bordercolor="#000000"
     borderopacity="0.25"
     inkscape:showpageshadow="2"
     inkscape:pageopacity="0.0"
     inkscape:pagecheckerboard="0"
     inkscape:deskcolor="#d1d1d1"
     inkscape:document-units="pt"
     showgrid="false"
     inkscape:zoom="4.1865767"
     inkscape:cx="65.805554"
     inkscape:cy="102.58978"
     inkscape:window-width="1920"
     inkscape:window-height="1020"
     inkscape:window-x="0"
     inkscape:window-y="32"
     inkscape:window-maximized="1"
     inkscape:current-layer="svg8" />
  <metadata
     id="metadata2"> Created by potrace 1.16, written by Peter Selinger 2001-2019 </metadata>
  <g
     transform="translate(-13.099413,166.847160) scale(0.100000,-0.100000)"
     fill="#000000"
     stroke="none"
     id="g6">
    <path
       d="M371 1659 c-102 -17 -174 -70 -215 -158 -20 -45 -21 -60 -24 -576 -3 -509 -2 -532 18 -596 15 -52 30 -78 65 -112 83 -83 73 -82 685 -82 405 0 545 3 577 13 66 20 124 70 158 137 l30 59 3 540 c2 477 1 546 -14 592 -32 103 -111 166 -229 184 -86 12 -979 11 -1054 -1z m1023 -305 l69 -66 -70 -70 c-40 -40 -76 -68 -82 -64 -6 4 -11 29 -11 56 l0 49 -102 3 c-102 3 -103 3 -103 28 0 25 1 25 103 28 l102 3 0 49 c0 34 4 50 13 50 6 0 43 -30 81 -66z m-128 -155 c4 -7 -32 -50 -86 -103 -52 -51 -94 -86 -97 -79 -46 122 -202 152 -297 57 -16 -16 -33 -41 -38 -56 -6 -16 -13 -28 -17 -28 -16 0 -203 199 -197 209 10 16 722 16 732 0z m-536 -284 c0 -11 -201 -215 -212 -215 -5 0 -8 100 -8 222 l0 223 110 -110 c61 -60 110 -114 110 -120z m555 -213 c-7 -7 -215 199 -215 212 0 5 48 58 108 118 l107 109 3 -217 c1 -119 0 -219 -3 -222z m-288 368 c44 -26 61 -88 42 -145 -10 -29 -20 -41 -36 -43 -20 -3 -23 1 -23 35 0 21 4 55 9 76 8 33 7 37 -10 37 -10 0 -19 -5 -19 -10 0 -6 -11 -3 -24 5 -31 20 -70 11 -96 -22 -25 -32 -27 -108 -3 -135 17 -19 77 -25 88 -9 3 6 17 3 33 -6 26 -15 31 -15 59 -1 31 15 31 15 132 -86 56 -56 99 -105 95 -109 -9 -9 -679 -9 -688 0 -7 7 172 193 186 193 3 0 10 -9 13 -20 8 -25 78 -66 128 -75 26 -5 52 -2 83 10 47 18 55 42 13 37 -13 -2 -43 -6 -65 -9 -137 -17 -201 165 -92 263 30 28 44 32 98 33 28 1 57 -6 77 -19z m-73 -76 c24 -9 21 -76 -5 -100 -15 -14 -24 -16 -37 -8 -24 15 -27 71 -6 95 19 21 24 22 48 13z m-424 -359 l0 -45 91 0 c93 0 129 -10 129 -35 0 -25 -36 -35 -129 -35 l-90 0 -3 -47 c-2 -27 -8 -48 -14 -48 -5 0 -41 28 -79 62 l-70 63 65 65 c79 79 100 84 100 20z"
       id="path4" />
  </g>
  <path
     style="fill:#6793b4;fill-opacity:1;stroke:#fdfdfd;stroke-width:0.238859"
     d="M 54.22091,204.18064 C 42.645145,204.0214 32.17529,203.38944 27.407177,202.56216 20.437834,201.35296 17.260962,199.54612 11.29511,193.39847 6.9296996,188.90002 5.322744,186.39978 3.5919328,181.41319 1.3209814,174.87043 0.72417938,171.20868 0.32781728,161.38584 0.02624194,153.91205 0.20843337,84.137073 0.60121356,56.681579 0.90603645,35.374333 1.2161354,29.675224 2.2882127,25.677303 3.9217827,19.585501 9.9053986,11.543819 15.645241,7.7261238 19.847139,4.9313486 24.983462,2.8090088 30.038215,1.7789161 35.209182,0.72513995 48.795282,0.38247683 92.677151,0.19906221 138.11217,0.00915582 167.9142,0.4689027 173.59693,1.4473871 c 12.75934,2.1969766 22.21009,8.7475769 27.13967,18.8113419 2.18466,4.459968 3.04887,7.765339 3.63376,13.898056 0.39132,4.103056 0.53062,62.100059 0.25536,106.316295 l -0.22469,36.09185 -2.34901,4.63354 c -3.69462,7.2878 -6.66029,11.35325 -10.80508,14.81198 -4.78163,3.99016 -9.98352,6.50261 -14.73041,7.11462 -6.91659,0.89174 -29.48769,1.22187 -79.301065,1.15988 -21.413677,-0.0267 -40.761226,-0.0736 -42.994555,-0.10431 z m -6.280408,-39.24875 c 0.592186,-1.2145 1.084684,-4.4081 1.280027,-8.30034 l 0.170829,-3.40374 h 8.278781 c 4.553329,0 9.708338,-0.11463 11.455574,-0.25473 5.527511,-0.44324 8.60784,-1.5637 9.300245,-3.38294 0.720295,-1.89251 -0.306587,-3.56461 -2.750739,-4.47908 -2.741564,-1.02575 -5.302339,-1.2438 -16.115262,-1.37219 l -10.186761,-0.12096 -0.09994,-4.68968 c -0.112951,-5.30049 -0.379969,-6.4448 -1.624102,-6.96014 -1.983511,-0.82159 -5.128534,1.60132 -15.159144,11.67853 -4.747134,4.76919 -5.440823,5.55792 -5.135461,5.83908 1.110227,1.02223 10.182001,9.10631 11.584904,10.32359 4.354455,3.77831 7.579501,6.14512 8.214308,6.02834 0.208507,-0.0384 0.562541,-0.44594 0.786738,-0.90574 z m 89.522638,-29.37815 c 9.92593,-0.2698 10.9875,-0.3616 10.9875,-0.95007 0,-1.08876 -4.85489,-6.52907 -14.09266,-15.79198 -7.19784,-7.21743 -9.95799,-9.72749 -11.63249,-10.57851 -1.29711,-0.65923 -2.4918,-0.49191 -5.13334,0.71893 -3.1541,1.44579 -3.61237,1.43737 -6.84932,-0.12588 -3.10709,-1.50054 -4.13511,-1.72059 -4.87816,-1.04419 -0.87397,0.79558 -1.54803,1.04126 -3.24782,1.18377 -3.311468,0.27762 -7.009606,-0.87019 -8.531248,-2.64788 -1.402809,-1.63887 -1.886885,-3.67272 -1.88223,-7.908172 0.0059,-5.379954 0.926614,-8.155207 3.565892,-10.748639 1.702756,-1.673176 3.505998,-2.649718 5.561396,-3.011771 1.93029,-0.340015 3.28788,-0.04129 6.08741,1.339491 1.1989,0.591323 2.37066,1.075134 2.6039,1.075134 0.23325,0 0.56575,-0.295588 0.7389,-0.656861 0.59523,-1.241915 3.43335,-1.616221 4.01494,-0.529512 0.18437,0.344489 0.0957,1.224397 -0.34207,3.393458 -1.00685,4.989124 -1.18934,6.61717 -1.20225,10.725464 -0.015,4.775858 0.0752,4.981848 2.18192,4.981848 2.42042,0 3.59315,-0.90777 4.9385,-3.82269 1.39504,-3.022616 1.68556,-4.46618 1.68224,-8.3591 -0.003,-3.120757 -0.0665,-3.652523 -0.64476,-5.374319 -1.19348,-3.55334 -2.80674,-5.722642 -5.62303,-7.561137 -3.33424,-2.176619 -6.97367,-2.892275 -13.05715,-2.567559 -5.280385,0.281851 -6.724784,0.818211 -10.077275,3.742077 -2.410953,2.102706 -4.360947,4.603931 -5.682755,7.289177 -1.378344,2.800097 -2.03911,5.362372 -2.200347,8.532358 -0.455226,8.949913 4.452714,16.792763 12.108344,19.349043 2.686252,0.89696 5.869623,0.8979 12.297423,0.004 4.47106,-0.62204 5.65232,-0.71515 6.36475,-0.5017 1.23598,0.3703 1.30138,0.81987 0.28321,1.94685 -1.75876,1.94674 -7.20582,3.97262 -11.33009,4.21392 -3.69121,0.21597 -7.017514,-0.59877 -11.8042,-2.89127 -5.005445,-2.39728 -8.817607,-5.42514 -9.438167,-7.49639 -0.163511,-0.54575 -0.597187,-1.3454 -0.963723,-1.77699 l -0.666427,-0.78472 -0.846805,0.47771 c -2.800741,1.58002 -20.501062,19.72735 -23.57245,24.16776 -0.379847,0.54916 -0.690631,1.10491 -0.690631,1.235 0,0.36385 2.42808,0.54629 9.820769,0.7379 10.272486,0.26624 61.520384,0.27765 71.152304,0.0158 z M 58.24495,123.47476 c 8.559019,-8.13805 21.254317,-21.5275 21.569477,-22.74886 0.09555,-0.37029 -0.04784,-0.816936 -0.438573,-1.366091 C 77.889678,97.271045 72.650311,91.750855 62.037855,81.092507 L 50.50309,69.507863 50.6012,96.618318 c 0.09084,25.100412 0.246794,31.665062 0.772471,32.515622 0.269562,0.43616 1.697576,-0.73995 6.871279,-5.65918 z m 96.03577,-18.25753 c -0.0218,-22.868573 -0.22123,-34.960137 -0.5744,-34.824494 -0.30517,0.117215 -19.67989,19.887853 -23.00852,23.478708 -3.4286,3.698707 -5.6553,6.362376 -5.6553,6.765106 0,0.65282 4.32915,5.35407 12.04925,13.08491 8.46506,8.47684 13.70349,13.39315 15.64635,14.68427 0.98538,0.65483 1.08115,0.67552 1.31372,0.28384 0.171,-0.28799 0.24387,-7.75997 0.2289,-23.47234 z m -50.61607,-0.68478 c 2.47093,-1.53147 3.96894,-4.37147 4.31393,-8.178551 0.28774,-3.175303 -0.52332,-5.647432 -2.12007,-6.462033 -1.32158,-0.674224 -3.44228,-0.847722 -4.38747,-0.358948 -1.14254,0.590836 -2.864018,2.674828 -3.445376,4.170936 -0.714875,1.839701 -0.782649,5.771653 -0.131678,7.639336 1.047419,3.00513 3.701304,4.47184 5.770664,3.18926 z M 80.720912,90.041491 c 0.308567,-0.332947 0.991271,-1.618917 1.51712,-2.857709 2.389012,-5.628016 6.696682,-10.090743 12.370714,-12.816008 3.92691,-1.886111 5.438794,-2.204211 10.489054,-2.206896 4.00039,-0.0022 4.44528,0.04265 6.39583,0.643731 6.76906,2.085948 11.87956,6.505415 14.62568,12.648014 0.45544,1.018742 0.85636,1.600835 1.10541,1.604929 2.20318,0.0362 19.72022,-16.819603 23.40642,-22.522874 0.50857,-0.786848 0.92466,-1.571054 0.92466,-1.742681 0,-0.171627 -0.40307,-0.419553 -0.89572,-0.550945 -3.74127,-0.997824 -39.03919,-1.650611 -66.30893,-1.226295 -20.430654,0.317899 -29.904459,0.767711 -30.589534,1.452373 -0.342678,0.34247 0.11582,1.12216 2.18328,3.712735 5.823775,7.29732 22.656031,24.466987 23.986173,24.466987 0.125847,0 0.481276,-0.272413 0.789843,-0.605361 z M 159.58025,67.758209 c 0.77576,-0.502508 2.10913,-1.487714 2.96305,-2.189347 1.62237,-1.333037 15.0481,-14.560209 15.0481,-14.825545 0,-0.162318 -3.53521,-3.645775 -8.24496,-8.124251 -5.53624,-5.264391 -10.78751,-9.537145 -11.72127,-9.537145 -1.40373,0 -1.75665,1.612762 -1.76407,8.061479 l -0.006,5.075746 -0.65686,0.0017 c -2.33456,0.006 -22.35506,0.735408 -23.229,0.846345 -1.7369,0.220479 -3.00467,0.771715 -3.3085,1.438562 -0.33316,0.731202 -0.36006,2.95071 -0.0458,3.777318 0.56433,1.484289 2.17389,1.692517 15.89814,2.056719 5.64693,0.149852 10.50899,0.32082 10.80458,0.379926 0.53592,0.107161 0.53744,0.121075 0.54158,4.939799 0.005,6.372419 0.52062,9.012364 1.75866,9.012364 0.30344,0 1.18642,-0.411143 1.96218,-0.913649 z"
     id="path3098"
     transform="scale(0.75)" />
  <path
     style="fill:#ffffff;stroke:#fdfdfd;stroke-width:0.238859"
     d="m 51.493041,128.44623 c -0.407338,-1.28392 -0.630913,-10.9837 -0.766649,-33.261064 L 50.574307,70.224439 59.24383,78.82335 c 12.458597,12.357122 17.382259,17.482594 19.794507,20.605828 l 0.787354,1.019422 -1.302302,1.60802 c -4.302413,5.31243 -25.72076,26.80761 -26.711782,26.80761 -0.102272,0 -0.245627,-0.1881 -0.318566,-0.418 z"
     id="path652"
     transform="scale(0.75)" />
  <path
     style="fill:#ffffff;stroke:#fdfdfd;stroke-width:0.238859"
     d="M 78.439375,89.283648 C 76.451283,87.753539 66.051565,77.24268 61.515136,72.178544 c -5.487294,-6.125613 -7.888511,-9.202345 -7.491646,-9.59921 0.04678,-0.04678 0.997101,-0.199163 2.111822,-0.338627 6.905278,-0.863924 39.527772,-1.374661 63.796528,-0.998797 21.48924,0.332817 30.41021,0.746335 31.10574,1.441858 0.32268,0.322678 -0.75153,2.04477 -2.88492,4.624895 -2.15365,2.604638 -11.59089,12.109911 -14.98897,15.097036 -2.26855,1.994197 -5.48595,4.419415 -5.86298,4.419415 -0.0962,0 -0.56021,-0.811391 -1.03116,-1.803094 -3.19655,-6.731029 -9.10655,-11.349076 -16.47079,-12.870202 -2.52928,-0.522436 -7.11302,-0.486926 -9.841599,0.07624 -5.026826,1.037517 -9.389583,3.515358 -13.133994,7.459491 -2.007348,2.114419 -3.747832,4.669686 -4.572693,6.713331 -0.803876,1.991666 -1.746909,3.713994 -2.109776,3.853239 -0.161623,0.06202 -0.927218,-0.374693 -1.701323,-0.970473 z"
     id="path654"
     transform="scale(0.75)" />
  <path
     style="fill:#ffffff;stroke:#fdfdfd;stroke-width:0.238859"
     d="m 151.17281,126.74488 c -6.37035,-5.31723 -24.57226,-23.64099 -25.58729,-25.75857 -0.22101,-0.46107 -0.0832,-0.73571 1.07896,-2.149726 2.22289,-2.704713 5.50491,-6.156991 16.50868,-17.365091 l 10.53237,-10.72794 0.14637,7.742207 c 0.20134,10.649467 0.24666,47.6698 0.06,49.03141 -0.0836,0.60951 -0.22711,1.10821 -0.31904,1.10821 -0.0919,0 -1.18096,-0.84623 -2.42008,-1.8805 z"
     id="path656"
     transform="scale(0.75)" />
  <path
     style="fill:#ffffff;stroke:#fdfdfd;stroke-width:0.238859"
     d="m 65.686125,135.29458 c -6.467148,-0.18557 -8.83777,-0.36303 -8.83777,-0.66158 0,-0.3031 2.96315,-3.91855 5.608895,-6.84363 3.634089,-4.01777 16.7474,-17.06176 18.006963,-17.91177 l 1.043717,-0.70434 0.572312,0.70915 c 0.314771,0.39002 0.700558,1.13032 0.857305,1.64511 1.078014,3.54039 10.424789,9.10943 17.473063,10.41089 3.68672,0.68075 8.55014,-0.1469 12.74647,-2.16917 3.60101,-1.73538 4.67518,-3.55898 2.5015,-4.24677 -0.92238,-0.29186 -1.58342,-0.24723 -6.66932,0.45021 -4.54051,0.62266 -6.11663,0.74808 -8.05277,0.64081 -3.501753,-0.19401 -5.828752,-1.03192 -8.662929,-3.11937 -5.824456,-4.28988 -8.648257,-13.06397 -6.675406,-20.741763 1.044447,-4.0647 2.883859,-7.212848 6.05434,-10.361989 3.752646,-3.727389 5.563288,-4.532206 10.966815,-4.874675 5.17135,-0.327752 8.26119,0.133402 11.43569,1.706759 5.1427,2.548846 7.7629,7.157556 7.7629,13.654279 0,3.942769 -0.99707,7.578259 -2.73487,9.971799 -0.95947,1.3215 -2.06686,1.89098 -3.67715,1.89098 -1.82243,0 -1.949,-0.29508 -1.94365,-4.53175 0.005,-3.598042 0.37288,-6.904155 1.19115,-10.691319 0.77331,-3.579091 0.66402,-4.147967 -0.85187,-4.434169 -1.21147,-0.228724 -2.54597,0.202077 -3.26123,1.052778 l -0.6484,0.7712 -2.22195,-1.117563 c -3.63192,-1.826733 -6.1974,-1.963445 -9.211825,-0.490888 -1.758833,0.859195 -3.883898,2.901972 -4.792758,4.607169 -2.910373,5.460416 -2.298778,15.205312 1.100262,17.531112 1.653678,1.13152 3.73942,1.6763 6.510451,1.70045 2.89687,0.0253 3.5096,-0.10461 4.5251,-0.95911 0.96791,-0.81444 1.65211,-0.68564 4.7709,0.89812 3.11315,1.5809 3.87241,1.60218 6.97306,0.19546 1.23337,-0.55956 2.72617,-1.06487 3.31735,-1.12292 0.94035,-0.0923 1.25696,0.0129 2.52996,0.84077 3.792,2.4661 22.99465,22.11423 24.59343,25.16397 0.32899,0.62755 0.32546,0.6316 -0.67712,0.77798 -3.8601,0.56359 -65.140932,0.83671 -81.622615,0.36378 z"
     id="path658"
     transform="scale(0.75)" />
  <path
     style="fill:#ffffff;stroke:#fdfdfd;stroke-width:0.238859"
     d="m 45.0205,164.32402 c -2.557921,-1.83522 -6.257239,-4.97353 -12.394892,-10.51519 l -5.233486,-4.72529 6.547208,-6.46871 c 7.007344,-6.92334 9.606086,-9.17871 11.665585,-10.12421 1.179158,-0.54134 1.352289,-0.56408 1.910869,-0.251 1.179169,0.66093 1.324448,1.35146 1.407527,6.69019 l 0.07672,4.93011 10.31363,0.11701 c 10.942455,0.12415 13.474978,0.33766 16.229656,1.36832 1.781505,0.66655 2.802316,1.81102 2.802316,3.1418 0,1.98988 -2.232008,3.31783 -6.807472,4.05016 -0.945643,0.15135 -6.159918,0.31839 -12.002646,0.38449 -9.382476,0.10616 -10.330853,0.15298 -10.332998,0.51008 -0.0083,1.37877 -0.530376,7.5641 -0.738846,8.75323 -0.279097,1.59201 -1.019358,3.46345 -1.369986,3.46345 -0.124953,0 -1.057886,-0.596 -2.073185,-1.32444 z"
     id="path660"
     transform="scale(0.75)" />
  <path
     style="fill:#ffffff;stroke:#fdfdfd;stroke-width:0.238859"
     d="m 156.96727,67.821992 c -0.61517,-1.350154 -0.99258,-4.758463 -0.99258,-8.963804 V 54.600845 L 155.1984,54.48621 c -0.42696,-0.06305 -5.25735,-0.23324 -10.73421,-0.378201 -13.30496,-0.352156 -15.26103,-0.601385 -15.60925,-1.988826 -0.0746,-0.297251 -0.10304,-1.224802 -0.0632,-2.061224 0.12523,-2.627917 0.55559,-2.746762 11.2613,-3.109876 3.96181,-0.134375 9.15359,-0.310821 11.53729,-0.392102 l 4.33401,-0.147783 0.10604,-5.409131 c 0.10969,-5.594793 0.3293,-6.991967 1.18275,-7.524522 0.55844,-0.348474 1.12996,-0.0048 4.3208,2.598453 2.7655,2.256214 6.9776,6.118465 12.594,11.547955 l 3.22459,3.117282 -6.68804,6.638564 c -6.53683,6.488461 -8.71806,8.455075 -11.31008,10.197224 -1.51509,1.018326 -2.0126,1.070005 -2.38715,0.247969 z"
     id="path662"
     transform="scale(0.75)" />
  <rect
     style="fill:#ffffff;stroke:#fdfdfd;stroke-width:0.75"
     id="rect716"
     width="28.578911"
     height="38.910538"
     x="62.933189"
     y="51.839573" />
  <g
     aria-label="@"
     id="text772"
     style="font-weight:bold;font-size:48px;line-height:0px;-inkscape-font-specification:'sans-serif Bold';text-align:center;text-anchor:middle;fill:#f3c300;stroke:#fdfdfd;stroke-width:0.75">
    <path
       d="m 97.206102,71.703344 q 0,2.208 -0.528,4.368 -0.528,2.16 -1.632,3.936 -1.056,1.776 -2.688,2.832 -1.632,1.008 -3.84,1.008 -1.776,0 -3.12,-0.816 -1.344,-0.864 -1.872,-2.208 h -0.384 q -0.96,1.2 -2.592,2.112 -1.584,0.912 -3.84,0.912 -4.272,0 -6.624,-2.544 -2.304,-2.592 -2.304,-6.768 0,-3.216 1.392,-5.664 1.392,-2.496 3.936,-3.888 2.544,-1.44 6,-1.44 2.256,0 4.656,0.432 2.448,0.384 3.792,0.864 l -0.48,9.84 q -0.048,0.48 -0.048,1.008 0,0.48 0,0.624 0,1.968 0.528,2.64 0.576,0.624 1.248,0.624 1.104,0 1.824,-1.056 0.72,-1.104 1.056,-2.88 0.384,-1.824 0.384,-3.984 0,-4.032 -1.632,-6.816 -1.632,-2.832 -4.464,-4.32 -2.784,-1.488 -6.384,-1.488 -5.04,0 -8.496,2.112 -3.408,2.064 -5.184,5.664 -1.776,3.6 -1.776,8.256 0,6.48 3.456,9.936 3.504,3.456 10.032,3.456 2.784,0 5.808,-0.624 3.024,-0.624 5.52,-1.536 v 4.512 q -2.304,0.96 -5.136,1.536 -2.832,0.576 -6,0.576 -5.952,0 -10.176,-2.112 -4.224,-2.112 -6.48,-6.048 -2.208,-3.984 -2.208,-9.552 0,-4.368 1.44,-8.112 1.44,-3.744 4.128,-6.528 2.736,-2.832 6.528,-4.368 3.792,-1.584 8.496,-1.584 5.136,0 9.12,2.064 3.984,2.064 6.24,5.904 2.304,3.84 2.304,9.12 z m -24,2.928 q 0,2.64 1.104,3.792 1.104,1.152 2.928,1.152 2.4,0 3.36,-1.728 1.008,-1.776 1.2,-4.608 l 0.288,-5.184 q -0.528,-0.096 -1.2,-0.144 -0.672,-0.096 -1.488,-0.096 -2.256,0 -3.648,1.008 -1.344,0.96 -1.968,2.544 -0.576,1.536 -0.576,3.264 z"
       id="path8925" />
  </g>
</svg>
