<?xml version="1.0" encoding="UTF-8" standalone="no"?>
<svg
   version="1.0"
   width="153.782028pt"
   height="153.347238pt"
   viewBox="0 0 153.782028 153.347238"
   preserveAspectRatio="xMidYMid meet"
   id="svg8"
   sodipodi:docname="paymail-bridge.svg"
   inkscape:version="1.2.2 (b0a8486541, 2022-12-01)"
   inkscape:export-filename="paymail-bridge.svg"
   inkscape:export-xdpi="96"
   inkscape:export-ydpi="96"
   xmlns:inkscape="http://www.inkscape.org/namespaces/inkscape"
   xmlns:sodipodi="http://sodipodi.sourceforge.net/DTD/sodipodi-0.dtd"
   xmlns="http://www.w3.org/2000/svg"
   xmlns:svg="http://www.w3.org/2000/svg">
  <defs
     id="defs12" />
  <sodipodi:namedview
     id="namedview10"
     pagecolor="#ffffff"
     bordercolor="#000000"
     borderopacity="0.25"
     inkscape:showpageshadow="2"
     inkscape:pageopacity="0.0"
     inkscape:pagecheckerboard="0"
     inkscape:deskcolor="#d1d1d1"
     inkscape:document-units="pt"
     showgrid="false"
     inkscape:zoom="1"
     inkscape:cx="254.5"
     inkscape:cy="-52.5"
     inkscape:window-width="1920"
     inkscape:window-height="1020"
     inkscape:window-x="0"
     inkscape:window-y="32"
     inkscape:window-maximized="1"
     inkscape:current-layer="svg8" />
  <metadata
     id="metadata2"> Created by potrace 1.16, written by Peter Selinger 2001-2019 </metadata>
  <g
     transform="translate(-13.099413,166.847160) scale(0.100000,-0.100000)"
     fill="#000000"
     stroke="none"
     id="g6">
    <path
       d="M371 1659 c-102 -17 -174 -70 -215 -158 -20 -45 -21 -60 -24 -576 -3 -509 -2 -532 18 -596 15 -52 30 -78 65 -112 83 -83 73 -82 685 -82 405 0 545 3 577 13 66 20 124 70 158 137 l30 59 3 540 c2 477 1 546 -14 592 -32 103 -111 166 -229 184 -86 12 -979 11 -1054 -1z m1023 -305 l69 -66 -70 -70 c-40 -40 -76 -68 -82 -64 -6 4 -11 29 -11 56 l0 49 -102 3 c-102 3 -103 3 -103 28 0 25 1 25 103 28 l102 3 0 49 c0 34 4 50 13 50 6 0 43 -30 81 -66z m-128 -155 c4 -7 -32 -50 -86 -103 -52 -51 -94 -86 -97 -79 -46 122 -202 152 -297 57 -16 -16 -33 -41 -38 -56 -6 -16 -13 -28 -17 -28 -16 0 -203 199 -197 209 10 16 722 16 732 0z m-536 -284 c0 -11 -201 -215 -212 -215 -5 0 -8 100 -8 222 l0 223 110 -110 c61 -60 110 -114 110 -120z m555 -213 c-7 -7 -215 199 -215 212 0 5 48 58 108 118 l107 109 3 -217 c1 -119 0 -219 -3 -222z m-288 368 c44 -26 61 -88 42 -145 -10 -29 -20 -41 -36 -43 -20 -3 -23 1 -23 35 0 21 4 55 9 76 8 33 7 37 -10 37 -10 0 -19 -5 -19 -10 0 -6 -11 -3 -24 5 -31 20 -70 11 -96 -22 -25 -32 -27 -108 -3 -135 17 -19 77 -25 88 -9 3 6 17 3 33 -6 26 -15 31 -15 59 -1 31 15 31 15 132 -86 56 -56 99 -105 95 -109 -9 -9 -679 -9 -688 0 -7 7 172 193 186 193 3 0 10 -9 13 -20 8 -25 78 -66 128 -75 26 -5 52 -2 83 10 47 18 55 42 13 37 -13 -2 -43 -6 -65 -9 -137 -17 -201 165 -92 263 30 28 44 32 98 33 28 1 57 -6 77 -19z m-73 -76 c24 -9 21 -76 -5 -100 -15 -14 -24 -16 -37 -8 -24 15 -27 71 -6 95 19 21 24 22 48 13z m-424 -359 l0 -45 91 0 c93 0 129 -10 129 -35 0 -25 -36 -35 -129 -35 l-90 0 -3 -47 c-2 -27 -8 -48 -14 -48 -5 0 -41 28 -79 62 l-70 63 65 65 c79 79 100 84 100 20z"
       id="path4" />
  </g>
  <path
     style="fill:#6793b4;fill-opacity:1;stroke:#fdfdfd;stroke-width:0.238859"
     d="M 54.22091,204.18064 C 42.645145,204.0214 32.17529,203.38944 27.407177,202.56216 20.437834,201.35296 17.260962,199.54612 11.29511,193.39847 6.9296996,188.90002 5.322744,186.39978 3.5919328,181.41319 1.3209814,174.87043 0.72417938,171.20868 0.32781728,161.38584 0.02624194,153.91205 0.20843337,84.137073 0.60121356,56.681579 0.90603645,35.374333 1.2161354,29.675224 2.2882127,25.677303 3.9217827,19.585501 9.9053986,11.543819 15.645241,7.7261238 19.847139,4.9313486 24.983462,2.8090088 30.038215,1.7789161 35.209182,0.72513995 48.795282,0.38247683 92.677151,0.19906221 138.11217,0.00915582 167.9142,0.4689027 173.59693,1.4473871 c 12.75934,2.1969766 22.21009,8.7475769 27.13967,18.8113419 2.18466,4.459968 3.04887,7.765339 3.63376,13.898056 0.39132,4.103056 0.53062,62.100059 0.25536,106.316295 l -0.22469,36.09185 -2.34901,4.63354 c -3.69462,7.2878 -6.66029,11.35325 -10.80508,14.81198 -4.78163,3.99016 -9.98352,6.50261 -14.73041,7.11462 -6.91659,0.89174 -29.48769,1.22187 -79.301065,1.15988 -21.413677,-0.0267 -40.761226,-0.0736 -42.994555,-0.10431 z m -6.280408,-39.24875 c 0.592186,-1.2145 1.084684,-4.4081 1.280027,-8.30034 l 0.170829,-3.40374 h 8.278781 c 4.553329,0 9.708338,-0.11463 11.455574,-0.25473 5.527511,-0.44324 8.60784,-1.5637 9.300245,-3.38294 0.720295,-1.89251 -0.306587,-3.56461 -2.750739,-4.47908 -2.741564,-1.02575 -5.302339,-1.2438 -16.115262,-1.37219 l -10.186761,-0.12096 -0.09994,-4.68968 c -0.112951,-5.30049 -0.379969,-6.4448 -1.624102,-6.96014 -1.983511,-0.82159 -5.128534,1.60132 -15.159144,11.67853 -4.747134,4.76919 -5.440823,5.55792 -5.135461,5.83908 1.110227,1.02223 10.182001,9.10631 11.584904,10.32359 4.354455,3.77831 7.579501,6.14512 8.214308,6.02834 0.208507,-0.0384 0.562541,-0.44594 0.786738,-0.90574 z m 89.522638,-29.37815 c 9.92593,-0.2698 10.9875,-0.3616 10.9875,-0.95007 0,-1.08876 -4.85489,-6.52907 -14.09266,-15.79198 -7.19784,-7.21743 -9.95799,-9.72749 -11.63249,-10.57851 -1.29711,-0.65923 -2.4918,-0.49191 -5.13334,0.71893 -3.1541,1.44579 -3.61237,1.43737 -6.84932,-0.12588 -3.10709,-1.50054 -4.13511,-1.72059 -4.87816,-1.04419 -0.87397,0.79558 -1.54803,1.04126 -3.24782,1.18377 -3.311468,0.27762 -7.009606,-0.87019 -8.531248,-2.64788 -1.402809,-1.63887 -1.886885,-3.67272 -1.88223,-7.908172 0.0059,-5.379954 0.926614,-8.155207 3.565892,-10.748639 1.702756,-1.673176 3.505998,-2.649718 5.561396,-3.011771 1.93029,-0.340015 3.28788,-0.04129 6.08741,1.339491 1.1989,0.591323 2.37066,1.075134 2.6039,1.075134 0.23325,0 0.56575,-0.295588 0.7389,-0.656861 0.59523,-1.241915 3.43335,-1.616221 4.01494,-0.529512 0.18437,0.344489 0.0957,1.224397 -0.34207,3.393458 -1.00685,4.989124 -1.18934,6.61717 -1.20225,10.725464 -0.015,4.775858 0.0752,4.981848 2.18192,4.981848 2.42042,0 3.59315,-0.90777 4.9385,-3.82269 1.39504,-3.022616 1.68556,-4.46618 1.68224,-8.3591 -0.003,-3.120757 -0.0665,-3.652523 -0.64476,-5.374319 -1.19348,-3.55334 -2.80674,-5.722642 -5.62303,-7.561137 -3.33424,-2.176619 -6.97367,-2.892275 -13.05715,-2.567559 -5.280385,0.281851 -6.724784,0.818211 -10.077275,3.742077 -2.410953,2.102706 -4.360947,4.603931 -5.682755,7.289177 -1.378344,2.800097 -2.03911,5.362372 -2.200347,8.532358 -0.455226,8.949913 4.452714,16.792763 12.108344,19.349043 2.686252,0.89696 5.869623,0.8979 12.297423,0.004 4.47106,-0.62204 5.65232,-0.71515 6.36475,-0.5017 1.23598,0.3703 1.30138,0.81987 0.28321,1.94685 -1.75876,1.94674 -7.20582,3.97262 -11.33009,4.21392 -3.69121,0.21597 -7.017514,-0.59877 -11.8042,-2.89127 -5.005445,-2.39728 -8.817607,-5.42514 -9.438167,-7.49639 -0.163511,-0.54575 -0.597187,-1.3454 -0.963723,-1.77699 l -0.666427,-0.78472 -0.846805,0.47771 c -2.800741,1.58002 -20.501062,19.72735 -23.57245,24.16776 -0.379847,0.54916 -0.690631,1.10491 -0.690631,1.235 0,0.36385 2.42808,0.54629 9.820769,0.7379 10.272486,0.26624 61.520384,0.27765 71.152304,0.0158 z M 58.24495,123.47476 c 8.559019,-8.13805 21.254317,-21.5275 21.569477,-22.74886 0.09555,-0.37029 -0.04784,-0.816936 -0.438573,-1.366091 C 77.889678,97.271045 72.650311,91.750855 62.037855,81.092507 L 50.50309,69.507863 50.6012,96.618318 c 0.09084,25.100412 0.246794,31.665062 0.772471,32.515622 0.269562,0.43616 1.697576,-0.73995 6.871279,-5.65918 z m 96.03577,-18.25753 c -0.0218,-22.868573 -0.22123,-34.960137 -0.5744,-34.824494 -0.30517,0.117215 -19.67989,19.887853 -23.00852,23.478708 -3.4286,3.698707 -5.6553,6.362376 -5.6553,6.765106 0,0.65282 4.32915,5.35407 12.04925,13.08491 8.46506,8.47684 13.70349,13.39315 15.64635,14.68427 0.98538,0.65483 1.08115,0.67552 1.31372,0.28384 0.171,-0.28799 0.24387,-7.75997 0.2289,-23.47234 z m -50.61607,-0.68478 c 2.47093,-1.53147 3.96894,-4.37147 4.31393,-8.178551 0.28774,-3.175303 -0.52332,-5.647432 -2.12007,-6.462033 -1.32158,-0.674224 -3.44228,-0.847722 -4.38747,-0.358948 -1.14254,0.590836 -2.864018,2.674828 -3.445376,4.170936 -0.714875,1.839701 -0.782649,5.771653 -0.131678,7.639336 1.047419,3.00513 3.701304,4.47184 5.770664,3.18926 z M 80.720912,90.041491 c 0.308567,-0.332947 0.991271,-1.618917 1.51712,-2.857709 2.389012,-5.628016 6.696682,-10.090743 12.370714,-12.816008 3.92691,-1.886111 5.438794,-2.204211 10.489054,-2.206896 4.00039,-0.0022 4.44528,0.04265 6.39583,0.643731 6.76906,2.085948 11.87956,6.505415 14.62568,12.648014 0.45544,1.018742 0.85636,1.600835 1.10541,1.604929 2.20318,0.0362 19.72022,-16.819603 23.40642,-22.522874 0.50857,-0.786848 0.92466,-1.571054 0.92466,-1.742681 0,-0.171627 -0.40307,-0.419553 -0.89572,-0.550945 -3.74127,-0.997824 -39.03919,-1.650611 -66.30893,-1.226295 -20.430654,0.317899 -29.904459,0.767711 -30.589534,1.452373 -0.342678,0.34247 0.11582,1.12216 2.18328,3.712735 5.823775,7.29732 22.656031,24.466987 23.986173,24.466987 0.125847,0 0.481276,-0.272413 0.789843,-0.605361 z M 159.58025,67.758209 c 0.77576,-0.502508 2.10913,-1.487714 2.96305,-2.189347 1.62237,-1.333037 15.0481,-14.560209 15.0481,-14.825545 0,-0.162318 -3.53521,-3.645775 -8.24496,-8.124251 -5.53624,-5.264391 -10.78751,-9.537145 -11.72127,-9.537145 -1.40373,0 -1.75665,1.612762 -1.76407,8.061479 l -0.006,5.075746 -0.65686,0.0017 c -2.33456,0.006 -22.35506,0.735408 -23.229,0.846345 -1.7369,0.220479 -3.00467,0.771715 -3.3085,1.438562 -0.33316,0.731202 -0.36006,2.95071 -0.0458,3.777318 0.56433,1.484289 2.17389,1.692517 15.89814,2.056719 5.64693,0.149852 10.50899,0.32082 10.80458,0.379926 0.53592,0.107161 0.53744,0.121075 0.54158,4.939799 0.005,6.372419 0.52062,9.012364 1.75866,9.012364 0.30344,0 1.18642,-0.411143 1.96218,-0.913649 z"
     id="path3098"
     transform="scale(0.75)" />
  <path
     style="fill:#ffffff;stroke:#fdfdfd;stroke-width:0.238859"
     d="m 51.493041,128.44623 c -0.407338,-1.28392 -0.630913,-10.9837 -0.766649,-33.261064 L 50.574307,70.224439 59.24383,78.82335 c 12.458597,12.357122 17.382259,17.482594 19.794507,20.605828 l 0.787354,1.019422 -1.302302,1.60802 c -4.302413,5.31243 -25.72076,26.80761 -26.711782,26.80761 -0.102272,0 -0.245627,-0.1881 -0.318566,-0.418 z"
     id="path652"
     transform="scale(0.75)" />
  <path
     style="fill:#ffffff;stroke:#fdfdfd;stroke-width:0.238859"
     d="M 78.439375,89.283648 C 76.451283,87.753539 66.051565,77.24268 61.515136,72.178544 c -5.487294,-6.125613 -7.888511,-9.202345 -7.491646,-9.59921 0.04678,-0.04678 0.997101,-0.199163 2.111822,-0.338627 6.905278,-0.863924 39.527772,-1.374661 63.796528,-0.998797 21.48924,0.332817 30.41021,0.746335 31.10574,1.441858 0.32268,0.322678 -0.75153,2.04477 -2.88492,4.624895 -2.15365,2.604638 -11.59089,12.109911 -14.98897,15.097036 -2.26855,1.994197 -5.48595,4.419415 -5.86298,4.419415 -0.0962,0 -0.56021,-0.811391 -1.03116,-1.803094 -3.19655,-6.731029 -9.10655,-11.349076 -16.47079,-12.870202 -2.52928,-0.522436 -7.11302,-0.486926 -9.841599,0.07624 -5.026826,1.037517 -9.389583,3.515358 -13.133994,7.459491 -2.007348,2.114419 -3.747832,4.669686 -4.572693,6.713331 -0.803876,1.991666 -1.746909,3.713994 -2.109776,3.853239 -0.161623,0.06202 -0.927218,-0.374693 -1.701323,-0.970473 z"
     id="path654"
     transform="scale(0.75)" />
  <path
     style="fill:#ffffff;stroke:#fdfdfd;stroke-width:0.238859"
     d="m 151.17281,126.74488 c -6.37035,-5.31723 -24.57226,-23.64099 -25.58729,-25.75857 -0.22101,-0.46107 -0.0832,-0.73571 1.07896,-2.149726 2.22289,-2.704713 5.50491,-6.156991 16.50868,-17.365091 l 10.53237,-10.72794 0.14637,7.742207 c 0.20134,10.649467 0.24666,47.6698 0.06,49.03141 -0.0836,0.60951 -0.22711,1.10821 -0.31904,1.10821 -0.0919,0 -1.18096,-0.84623 -2.42008,-1.8805 z"
     id="path656"
     transform="scale(0.75)" />
  <path
     style="fill:#ffffff;stroke:#fdfdfd;stroke-width:0.238859"
     d="m 65.686125,135.29458 c -6.467148,-0.18557 -8.83777,-0.36303 -8.83777,-0.66158 0,-0.3031 2.96315,-3.91855 5.608895,-6.84363 3.634089,-4.01777 16.7474,-17.06176 18.006963,-17.91177 l 1.043717,-0.70434 0.572312,0.70915 c 0.314771,0.39002 0.700558,1.13032 0.857305,1.64511 1.078014,3.54039 10.424789,9.10943 17.473063,10.41089 3.68672,0.68075 8.55014,-0.1469 12.74647,-2.16917 3.60101,-1.73538 4.67518,-3.55898 2.5015,-4.24677 -0.92238,-0.29186 -1.58342,-0.24723 -6.66932,0.45021 -4.54051,0.62266 -6.11663,0.74808 -8.05277,0.64081 -3.501753,-0.19401 -5.828752,-1.03192 -8.662929,-3.11937 -5.824456,-4.28988 -8.648257,-13.06397 -6.675406,-20.741763 1.044447,-4.0647 2.883859,-7.212848 6.05434,-10.361989 3.752646,-3.727389 5.563288,-4.532206 10.966815,-4.874675 5.17135,-0.327752 8.26119,0.133402 11.43569,1.706759 5.1427,2.548846 7.7629,7.157556 7.7629,13.654279 0,3.942769 -0.99707,7.578259 -2.73487,9.971799 -0.95947,1.3215 -2.06686,1.89098 -3.67715,1.89098 -1.82243,0 -1.949,-0.29508 -1.94365,-4.53175 0.005,-3.598042 0.37288,-6.904155 1.19115,-10.691319 0.77331,-3.579091 0.66402,-4.147967 -0.85187,-4.434169 -1.21147,-0.228724 -2.54597,0.202077 -3.26123,1.052778 l -0.6484,0.7712 -2.22195,-1.117563 c -3.63192,-1.826733 -6.1974,-1.963445 -9.211825,-0.490888 -1.758833,0.859195 -3.883898,2.901972 -4.792758,4.607169 -2.910373,5.460416 -2.298778,15.205312 1.100262,17.531112 1.653678,1.13152 3.73942,1.6763 6.510451,1.70045 2.89687,0.0253 3.5096,-0.10461 4.5251,-0.95911 0.96791,-0.81444 1.65211,-0.68564 4.7709,0.89812 3.11315,1.5809 3.87241,1.60218 6.97306,0.19546 1.23337,-0.55956 2.72617,-1.06487 3.31735,-1.12292 0.94035,-0.0923 1.25696,0.0129 2.52996,0.84077 3.792,2.4661 22.99465,22.11423 24.59343,25.16397 0.32899,0.62755 0.32546,0.6316 -0.67712,0.77798 -3.8601,0.56359 -65.140932,0.83671 -81.622615,0.36378 z"
     id="path658"
     transform="scale(0.75)" />
  <path
     style="fill:#ffffff;stroke:#fdfdfd;stroke-width:0.238859"
     d="m 45.0205,164.32402 c -2.557921,-1.83522 -6.257239,-4.97353 -12.394892,-10.51519 l -5.233486,-4.72529 6.547208,-6.46871 c 7.007344,-6.92334 9.606086,-9.17871 11.665585,-10.12421 1.179158,-0.54134 1.352289,-0.56408 1.910869,-0.251 1.179169,0.66093 1.324448,1.35146 1.407527,6.69019 l 0.07672,4.93011 10.31363,0.11701 c 10.942455,0.12415 13.474978,0.33766 16.229656,1.36832 1.781505,0.66655 2.802316,1.81102 2.802316,3.1418 0,1.98988 -2.232008,3.31783 -6.807472,4.05016 -0.945643,0.15135 -6.159918,0.31839 -12.002646,0.38449 -9.382476,0.10616 -10.330853,0.15298 -10.332998,0.51008 -0.0083,1.37877 -0.530376,7.5641 -0.738846,8.75323 -0.279097,1.59201 -1.019358,3.46345 -1.369986,3.46345 -0.124953,0 -1.057886,-0.596 -2.073185,-1.32444 z"
     id="path660"
     transform="scale(0.75)" />
  <path
     style="fill:#ffffff;stroke:#fdfdfd;stroke-width:0.238859"
     d="m 156.96727,67.821992 c -0.61517,-1.350154 -0.99258,-4.758463 -0.99258,-8.963804 V 54.600845 L 155.1984,54.48621 c -0.42696,-0.06305 -5.25735,-0.23324 -10.73421,-0.378201 -13.30496,-0.352156 -15.26103,-0.601385 -15.60925,-1.988826 -0.0746,-0.297251 -0.10304,-1.224802 -0.0632,-2.061224 0.12523,-2.627917 0.55559,-2.746762 11.2613,-3.109876 3.96181,-0.134375 9.15359,-0.310821 11.53729,-0.392102 l 4.33401,-0.147783 0.10604,-5.409131 c 0.10969,-5.594793 0.3293,-6.991967 1.18275,-7.524522 0.55844,-0.348474 1.12996,-0.0048 4.3208,2.598453 2.7655,2.256214 6.9776,6.118465 12.594,11.547955 l 3.22459,3.117282 -6.68804,6.638564 c -6.53683,6.488461 -8.71806,8.455075 -11.31008,10.197224 -1.51509,1.018326 -2.0126,1.070005 -2.38715,0.247969 z"
     id="path662"
     transform="scale(0.75)" />
  <rect
     style="fill:#ffffff;stroke:#fdfdfd;stroke-width:0.75"
     id="rect716"
     width="28.578911"
     height="38.910538"
     x="62.933189"
     y="51.839573" />
  <g
     aria-label="@"
     id="text772"
     style="font-weight:bold;font-size:48px;line-height:0px;-inkscape-font-specification:'sans-serif Bold';text-align:center;text-anchor:middle;fill:#f3c300;stroke:#fdfdfd;stroke-width:0.75">
    <path
       d="m 97.206102,71.703344 q 0,2.208 -0.528,4.368 -0.528,2.16 -1.632,3.936 -1.056,1.776 -2.688,2.832 -1.632,1.008 -3.84,1.008 -1.776,0 -3.12,-0.816 -1.344,-0.864 -1.872,-2.208 h -0.384 q -0.96,1.2 -2.592,2.112 -1.584,0.912 -3.84,0.912 -4.272,0 -6.624,-2.544 -2.304,-2.592 -2.304,-6.768 0,-3.216 1.392,-5.664 1.392,-2.496 3.936,-3.888 2.544,-1.44 6,-1.44 2.256,0 4.656,0.432 2.448,0.384 3.792,0.864 l -0.48,9.84 q -0.048,0.48 -0.048,1.008 0,0.48 0,0.624 0,1.968 0.528,2.64 0.576,0.624 1.248,0.624 1.104,0 1.824,-1.056 0.72,-1.104 1.056,-2.88 0.384,-1.824 0.384,-3.984 0,-4.032 -1.632,-6.816 -1.632,-2.832 -4.464,-4.32 -2.784,-1.488 -6.384,-1.488 -5.04,0 -8.496,2.112 -3.408,2.064 -5.184,5.664 -1.776,3.6 -1.776,8.256 0,6.48 3.456,9.936 3.504,3.456 10.032,3.456 2.784,0 5.808,-0.624 3.024,-0.624 5.52,-1.536 v 4.512 q -2.304,0.96 -5.136,1.536 -2.832,0.576 -6,0.576 -5.952,0 -10.176,-2.112 -4.224,-2.112 -6.48,-6.048 -2.208,-3.984 -2.208,-9.552 0,-4.368 1.44,-8.112 1.44,-3.744 4.128,-6.528 2.736,-2.832 6.528,-4.368 3.792,-1.584 8.496,-1.584 5.136,0 9.12,2.064 3.984,2.064 6.24,5.904 2.304,3.84 2.304,9.12 z m -24,2.928 q 0,2.64 1.104,3.792 1.104,1.152 2.928,1.152 2.4,0 3.36,-1.728 1.008,-1.776 1.2,-4.608 l 0.288,-5.184 q -0.528,-0.096 -1.2,-0.144 -0.672,-0.096 -1.488,-0.096 -2.256,0 -3.648,1.008 -1.344,0.96 -1.968,2.544 -0.576,1.536 -0.576,3.264 z"
       id="path8925" />
  </g>
  <path
     style="fill:#6793b4;fill-opacity:1;stroke:#fdfdfd;stroke-width:0.0211123"
     d="m 2.3434675,25.107191 c 0,-0.01608 0.070347,-0.238109 0.1563271,-0.493401 1.3063043,-3.878692 4.0792384,-8.312681 7.6224144,-12.188426 0.469292,-0.51334 1.737246,-1.780418 2.217942,-2.216409 1.177278,-1.0677903 2.176066,-1.8560481 3.2925,-2.598488 4.064347,-2.7028328 9.071559,-4.7967159 14.004824,-5.8564468 1.765372,-0.379225 3.808399,-0.6072224 7.393535,-0.82510201 0.284488,-0.0172892 0.557629,-0.0314821 0.606979,-0.0315398 l 0.08973,-1.048e-4 V 1.0008649 1.1044562 l -0.195289,0.012996 c -0.107409,0.00715 -0.508807,0.032106 -0.891995,0.055463 C 33.636801,1.356 31.568786,1.5823079 30.006347,1.8988997 25.022159,2.9088292 19.706609,5.1168102 15.623117,7.8734269 13.501674,9.3055359 11.402214,11.229518 9.3436933,13.628003 6.2853193,17.191466 3.8700395,21.208999 2.7119116,24.65919 l -0.1559094,0.464471 -0.1062673,0.0064 c -0.079523,0.0048 -0.1062674,-9.77e-4 -0.1062674,-0.02285 z"
     id="path1022"
     transform="scale(0.75)" />
  <path
     style="fill:#6793b4;fill-opacity:1;stroke:#fdfdfd;stroke-width:0.0211123"
     d="m 4.041932,20.917031 c 0.0077,-0.02032 0.1189904,-0.236169 0.2473162,-0.479664 2.1356959,-4.05242 4.8744167,-7.56434 8.0931278,-10.37799 0.562394,-0.4916188 1.42059,-1.1931753 1.438128,-1.1756376 0.0055,0.00554 -0.0925,0.093868 -0.217884,0.1962733 -1.273228,1.0399173 -2.713721,2.4356053 -3.955563,3.8325273 -2.1246303,2.389952 -4.1256244,5.238556 -5.4447694,7.751143 -0.083825,0.159662 -0.157346,0.290295 -0.1633804,0.290295 -0.00603,0 -0.00467,-0.01663 0.00302,-0.03695 z"
     id="path1024"
     transform="scale(0.75)" />
  <path
     style="fill:#6793b4;fill-opacity:1;stroke:#fdfdfd;stroke-width:0.00390625"
     d="m 7.1938271,15.93457 c 0.033685,-0.04666 0.3327851,-0.446269 0.4071331,-0.543945 1.2679197,-1.665751 2.5591598,-3.128628 3.9780558,-4.506836 0.107045,-0.103976 0.125255,-0.120117 0.135513,-0.120117 0.011,0 0.0072,0.0045 -0.05342,0.06348 -0.565495,0.549961 -1.027947,1.022039 -1.497323,1.528489 -0.7924081,0.854998 -1.6051933,1.818675 -2.3653882,2.804519 -0.1308212,0.169653 -0.1546982,0.201172 -0.1523969,0.201172 0.001,0 0.030441,-0.03735 0.06542,-0.08301 1.1908912,-1.554314 2.5413971,-3.079077 3.8663521,-4.365234 l 0.153922,-0.149414 h 0.01764 0.01764 L 11.38837,11.14006 c -0.597854,0.594354 -1.020937,1.029177 -1.309917,1.346268 -0.9514712,1.044027 -1.8258175,2.101256 -2.6732693,3.232422 -0.1703299,0.227354 -0.1760077,0.234413 -0.1895334,0.23563 -0.012972,0.0012 -0.013559,7.59e-4 -0.00842,-0.0059 0.0053,-0.0068 0.00519,-0.0068 -0.00253,-2.77e-4 -0.00443,0.0038 -0.012019,0.0068 -0.016867,0.0068 -0.00839,0 -0.0081,-9.93e-4 0.00599,-0.02051 z m 0.025421,-0.002 c 0.00486,-0.0062 0.00472,-0.0063 -0.00147,-0.0015 -0.00376,0.0029 -0.00684,0.006 -0.00684,0.0068 0,0.0032 0.00321,0.0011 0.00831,-0.0054 z m 0.029013,-0.03906 c 0.012455,-0.01665 0.026939,-0.03599 0.032187,-0.04297 0.00525,-0.007 0.00867,-0.01269 0.0076,-0.01269 -0.00107,0 -0.012134,0.01362 -0.024589,0.03027 -0.012455,0.01665 -0.026939,0.03599 -0.032187,0.04297 -0.00525,0.007 -0.00867,0.0127 -0.0076,0.0127 0.00107,0 0.012134,-0.01362 0.024589,-0.03027 z m 0.1111783,-0.149414 c 0.071104,-0.0954 0.069965,-0.09381 0.061759,-0.08594 -0.00485,0.0047 -0.1128107,0.14786 -0.1295722,0.171875 -0.00364,0.0052 -0.00341,0.0052 0.00202,0 0.00336,-0.0032 0.032967,-0.04189 0.065795,-0.08594 z m 0.074652,-0.100586 c 0.00486,-0.0062 0.00472,-0.0063 -0.00147,-0.0015 -0.00651,0.0051 -0.00858,0.0083 -0.00536,0.0083 8.111e-4,0 0.00389,-0.0031 0.00684,-0.0068 z m 0.011719,-0.01563 c 0.00486,-0.0062 0.00472,-0.0063 -0.00147,-0.0015 -0.00651,0.0051 -0.00858,0.0083 -0.00536,0.0083 8.112e-4,0 0.00389,-0.0031 0.00684,-0.0068 z m 0.071767,-0.09473 c 0.035524,-0.04726 0.063709,-0.08594 0.062635,-0.08594 -0.00107,0 -0.031018,0.03867 -0.066541,0.08594 -0.035524,0.04727 -0.063709,0.08594 -0.062635,0.08594 0.00107,0 0.031018,-0.03867 0.066541,-0.08594 z m 0.097656,-0.128906 c 0.01627,-0.02148 0.028703,-0.03906 0.027629,-0.03906 -0.00107,0 -0.015265,0.01758 -0.031536,0.03906 -0.01627,0.02148 -0.028703,0.03906 -0.027629,0.03906 0.00107,0 0.015265,-0.01758 0.031536,-0.03906 z"
     id="path1026"
     transform="scale(0.75)" />
  <path
     style="fill:#6793b4;fill-opacity:1;stroke:#fdfdfd;stroke-width:0.00390625"
     d=""
     id="path1028"
     transform="scale(0.75)" />
  <path
     style="fill:#6793b4;fill-opacity:1;stroke:#fdfdfd;stroke-width:0.00390625"
     d="m 7.046875,15.952755 c 0,-0.0051 0.2453742,-0.341568 0.4114171,-0.564083 1.1821251,-1.584173 2.4833968,-3.056082 3.8698329,-4.377287 0.241075,-0.229733 0.260993,-0.247713 0.274391,-0.247713 0.01171,0 0.0107,0.0014 -0.02661,0.03613 -0.715175,0.666203 -1.49019,1.461086 -2.173769,2.229492 -0.7974861,0.896448 -1.6005078,1.898796 -2.285185,2.852414 -0.041083,0.05722 -0.054408,0.07315 -0.061286,0.07324 -0.00483,6.8e-5 -0.00879,-9.22e-4 -0.00879,-0.0022 z"
     id="path1030"
     transform="scale(0.75)" />
  <path
     style="fill:#6793b4;fill-opacity:1;stroke:#fdfdfd;stroke-width:0.00390625"
     d=""
     id="path1032"
     transform="scale(0.75)" />
  <path
     style="fill:#6793b4;fill-opacity:1;stroke:#fdfdfd;stroke-width:0.00390625"
     d="m 7.4765625,15.953069 c 0,-0.0026 0.1849963,-0.2492 0.3120729,-0.41596 0.8813727,-1.156604 1.8391802,-2.287556 2.8186006,-3.328125 0.438338,-0.465704 0.979054,-1.009602 1.412859,-1.421174 0.022,-0.02087 0.02787,-0.0245 0.03798,-0.02344 0.01138,0.0012 0.0066,0.0064 -0.09825,0.106372 -0.341274,0.325507 -0.800935,0.784888 -1.135849,1.135159 -1.1308554,1.182707 -2.2206415,2.470645 -3.2300318,3.817338 -0.081294,0.10846 -0.100461,0.131836 -0.1080965,0.131836 -0.0051,0 -0.00928,-9.04e-4 -0.00928,-0.002 z"
     id="path1034"
     transform="scale(0.75)" />
  <path
     style="fill:#6793b4;fill-opacity:1;stroke:#fdfdfd;stroke-width:0.0110485"
     d="m 37.487708,1.115287 c 0.106342,-0.00781 0.20205,-0.014591 0.212684,-0.015076 0.01693,-7.714e-4 0.01933,-0.013345 0.01933,-0.10088717 V 0.89931817 l -0.196111,0.005323 c -0.244308,0.006632 -0.210006,2.8517e-4 0.0801,-0.0148202 2.599507,-0.13535169 4.14268,-0.19513826 7.84999,-0.30412911 0.34515,-0.010147 1.400935,-0.0375597 1.916922,-0.0497715 0.261298,-0.006184 0.681419,-0.0161535 0.933602,-0.0221543 0.252183,-0.006001 0.821459,-0.0182234 1.265058,-0.0271616 0.443599,-0.008938 0.902252,-0.019386 1.019228,-0.0232174 l 0.212685,-0.006966 v 0.11705636 0.11705636 h -0.08676 c -0.04772,0 -0.297553,0.004847 -0.555189,0.0107703 -0.257637,0.005924 -0.712051,0.0159911 -1.009809,0.0223721 -3.610504,0.0773736 -7.012409,0.18254778 -9.474126,0.29290452 -0.811675,0.036387 -1.807011,0.086426 -2.088175,0.1049808 -0.08811,0.00581 -0.190035,0.00998 -0.226495,0.00925 -0.03646,-7.294e-4 0.02072,-0.00771 0.127058,-0.015521 z"
     id="path1036"
     transform="scale(0.75)" />
  <path
     style="fill:#6793b4;fill-opacity:1;stroke:#fdfdfd;stroke-width:0.0220971"
     d="m 50.801203,0.57898334 c 0,-0.0980204 0.0027,-0.10230195 0.07182,-0.112642 0.0395,-0.005912 0.772846,-0.0215496 1.62966,-0.034751 0.856815,-0.0132013 2.154466,-0.0336124 2.88367,-0.0453579 4.511817,-0.0726734 12.471545,-0.15332604 19.578019,-0.19837593 1.956697,-0.012404 3.888259,-0.0249432 4.292359,-0.0278649 l 0.734729,-0.005312 v 0.10241591 0.10241593 l -0.690534,0.0129594 c -0.379794,0.007128 -2.435652,0.0234722 -4.568573,0.0363212 -7.677872,0.0462525 -15.743922,0.13144879 -20.903844,0.22079341 -0.674514,0.0116793 -1.631594,0.0279977 -2.126845,0.0362632 l -0.900456,0.0150281 z"
     id="path1038"
     transform="scale(0.75)" />
  <path
     style="fill:#6793b4;fill-opacity:1;stroke:#fdfdfd;stroke-width:0.0110485"
     d="m 75.356591,0.40273654 c 0.279528,-0.004979 1.254009,-0.014559 2.165514,-0.0212882 0.911505,-0.006729 1.837511,-0.0153027 2.057791,-0.0190521 l 0.40051,-0.006817 v -0.0989723 -0.0989723 l -0.720917,0.007038 c -1.339243,0.0130754 -4.396125,0.0307934 -4.401407,0.0255111 -0.0029,-0.002884 0.239854,-0.008363 0.539419,-0.0121753 0.507237,-0.006455 1.248111,-0.0111352 6.317526,-0.0399078 4.627862,-0.0262664 10.356422,-0.05237319 13.28035,-0.06052247 1.151534,-0.0032094 2.350991,-0.0086401 2.665461,-0.01206811 L 98.2326,0.05927756 v 0.11537811 0.11537811 l -1.593753,0.007228 c -0.876563,0.003975 -2.791967,0.0120429 -4.256451,0.017928 -5.174213,0.0207928 -12.034966,0.0569101 -14.539883,0.0765429 -0.747434,0.005858 -1.726887,0.0127676 -2.176563,0.0153543 -0.713162,0.004102 -0.752676,0.003547 -0.309359,-0.00435 z"
     id="path1040"
     transform="scale(0.75)" />
  <path
     style="fill:#6793b4;fill-opacity:1;stroke:#fdfdfd;stroke-width:0.015625"
     d="M 160.30469,0.76428939 C 154.434,0.57296191 143.59397,0.40417184 132.8125,0.33620869 c -1.3793,-0.008695 -3.03691,-0.0201938 -3.68359,-0.0255536 l -1.17579,-0.009745 V 0.19099324 0.08107644 l 1.89454,0.01066508 c 7.10801,0.04001389 13.66717,0.10752542 19.1914,0.19753156 2.06188,0.0335941 5.32427,0.095473 6.17188,0.1170639 0.18906,0.004816 0.77968,0.0190455 1.3125,0.0316211 1.35091,0.0318849 2.64991,0.0663572 3.52642,0.093583 0.40985,0.0127305 0.79481,0.0231463 0.85547,0.0231463 h 0.11029 V 0.671875 0.7890625 l -0.043,-0.002202 c -0.0236,-0.001211 -0.32422,-0.0113681 -0.66797,-0.022571 z"
     id="path1042"
     transform="scale(0.75)" />
  <path
     style="fill:#6793b4;fill-opacity:1;stroke:#fdfdfd;stroke-width:0.0110485"
     d="m 123.73816,0.29236144 c -1.04519,-0.004093 -3.92264,-0.0113562 -6.39434,-0.01614 l -4.494,-0.008698 V 0.15338267 0.03924164 l 2.9914,0.0054433 c 5.17898,0.0094239 11.06983,0.02664049 11.60026,0.03390291 l 0.51029,0.0069866 0.003,0.10915433 0.003,0.10915432 -1.1601,-0.00204 c -0.63805,-0.001122 -2.01526,-0.005389 -3.06045,-0.009482 z"
     id="path1044"
     transform="scale(0.75)" />
  <path
     style="fill:#6793b4;fill-opacity:1;stroke:#fdfdfd;stroke-width:0.03125"
     d="M 98.25,0.1976859 V 0.08845482 l 3.72656,-0.02077545 c 2.04961,-0.0114265 5.33321,-0.02078196 7.29688,-0.02078991 l 3.57031,-1.446e-5 V 0.15625 0.265625 h -6.44805 c -3.54642,0 -6.830018,0.009291 -7.296873,0.020646 L 98.25,0.30691698 Z"
     id="path1048"
     transform="scale(0.75)" />
  <path
     style="fill:#6793b4;fill-opacity:1;stroke:#fdfdfd;stroke-width:0.0220971"
     d="m 203.09734,26.809231 c -0.56074,-2.224774 -1.3626,-4.312315 -2.61211,-6.800319 -1.81183,-3.607699 -4.13424,-6.670923 -7.10257,-9.368211 -4.06333,-3.6922943 -9.23412,-6.4307437 -15.25804,-8.0806637 -1.95169,-0.5345577 -4.18662,-0.9916962 -5.65106,-1.155884 -0.22164,-0.02485 -0.41306,-0.045182 -0.42537,-0.045182 -0.0123,0 -0.0224,-0.050434 -0.0224,-0.1120754 v -0.112076 l 0.11601,0.013091 c 1.11902,0.1262728 1.65399,0.2106692 2.8229,0.4453388 9.13253,1.8334292 16.5318,5.9673993 21.6303,12.0848473 1.72288,2.067205 3.07007,4.153364 4.2775,6.623812 1.16204,2.377598 1.90209,4.347999 2.45497,6.536417 0.0662,0.262074 0.12038,0.488293 0.12038,0.502709 0,0.01654 -0.0387,0.02618 -0.10496,0.02615 h -0.10496 l -0.14062,-0.557891 z"
     id="path1050"
     transform="scale(0.75)" />
  <path
     style="fill:#6793b4;fill-opacity:1;stroke:#fdfdfd;stroke-width:0.015625"
     d="m 171.83594,1.3417964 c -1.10718,-0.1156496 -3.47545,-0.2657192 -5.88282,-0.37277474 -1.50791,-0.0670569 -4.53227,-0.17964129 -4.83203,-0.17987643 l -0.10547,-8.273e-5 V 0.67334973 0.55763696 l 0.15235,0.006758 c 0.0838,0.003717 0.57773,0.0207835 1.09765,0.0379256 3.97558,0.1310767 7.30415,0.30665409 9.32143,0.49169234 0.23265,0.02134 0.42813,0.038799 0.43441,0.038799 0.006,0 0.01,0.041058 0.008,0.09124 -0.002,0.050182 0.001,0.098915 0.007,0.1082953 0.0177,0.028636 -0.006,0.029769 -0.2009,0.00945 z"
     id="path1052"
     transform="scale(0.75)" />
  <path
     style="fill:#6793b4;fill-opacity:1;stroke:#fdfdfd;stroke-width:0.0078125"
     d="m 204.41099,39.249361 c -0.003,-0.0068 -0.005,-0.07799 -0.005,-0.158203 -1e-5,-0.136317 -0.003,-0.29904 -0.0234,-1.302096 -0.0343,-1.679008 -0.0752,-2.915271 -0.11378,-3.441406 -0.0193,-0.263166 -0.0939,-1.002304 -0.16748,-1.660156 -0.12396,-1.107925 -0.27068,-2.171683 -0.42562,-3.085938 -0.047,-0.277216 -0.11589,-0.665165 -0.12524,-0.705078 l -0.004,-0.01758 h 0.11681 c 0.10449,0 0.11724,0.0014 0.12087,0.01367 0.007,0.02258 0.0793,0.432395 0.12911,0.728516 0.1401,0.833388 0.28443,1.870823 0.39509,2.839843 0.0152,0.133204 0.0345,0.300196 0.043,0.371094 0.0144,0.121101 0.0182,0.153366 0.027,0.230469 0.0572,0.499507 0.11705,1.109315 0.13296,1.355469 0.0226,0.349425 0.0494,1.012759 0.055,1.359375 0.002,0.122461 0.007,0.343945 0.0115,0.492187 0.009,0.320775 0.0279,1.102791 0.0392,1.667969 0.0189,0.940543 0.0234,1.183521 0.0235,1.251953 l 3e-5,0.07227 h -0.11245 c -0.0953,0 -0.11317,-0.0019 -0.11719,-0.01236 z"
     id="path1054"
     transform="scale(0.75)" />
  <path
     style="fill:#6793b4;fill-opacity:1;stroke:#fdfdfd;stroke-width:0.0441942"
     d="m 203.64675,28.845387 c -0.0944,-0.03126 -0.12082,-0.08496 -0.15444,-0.314311 -0.0249,-0.170061 -0.0892,-0.475092 -0.22214,-1.053348 -0.0187,-0.08139 -0.004,-0.09944 0.081,-0.09944 0.0984,0 0.11141,0.03618 0.24717,0.684922 0.15048,0.719071 0.15661,0.817978 0.0484,0.782174 z"
     id="path1056"
     transform="scale(0.75)" />
  <path
     style="fill:#6793b4;fill-opacity:1;stroke:#fdfdfd;stroke-width:0.0078125"
     d="m 204.50471,46.916016 c -0.003,-0.211621 -0.0102,-0.924414 -0.0166,-1.583985 -0.0183,-1.876285 -0.0483,-4.297996 -0.0662,-5.34375 -0.004,-0.242773 -0.008,-0.505566 -0.008,-0.583984 l -9e-5,-0.142578 h 0.11241 0.11242 l 0.005,0.173828 c 0.003,0.0956 0.01,0.539453 0.0163,0.986328 0.006,0.446875 0.0133,0.94082 0.0157,1.097656 0.0137,0.888608 0.0487,4.119939 0.0548,5.058594 0.002,0.360937 0.006,0.671191 0.008,0.689453 l 0.004,0.0332 h -0.11611 -0.11611 z"
     id="path1058"
     transform="scale(0.75)" />
  <path
     style="fill:#6793b4;fill-opacity:1;stroke:#fdfdfd;stroke-width:0.0078125"
     d="m 204.7472,47.271484 c -0.003,-0.01611 -0.005,-0.150586 -0.005,-0.298828 -1.5e-4,-0.39467 -0.0252,-2.773689 -0.051,-4.832031 -0.0114,-0.911338 -0.0199,-1.507239 -0.0351,-2.472656 -0.0154,-0.972062 -0.044,-2.433776 -0.0514,-2.623989 -0.004,-0.106038 -0.003,-0.127292 0.006,-0.124364 0.0118,0.0039 0.0138,0.0387 0.0492,0.838196 0.10544,2.380075 0.17949,5.020815 0.24284,8.660157 0.006,0.363086 0.0115,0.710254 0.0115,0.771484 l 4e-5,0.111328 h -0.081 -0.081 z"
     id="path1060"
     transform="scale(0.75)" />
  <path
     style="fill:#6793b4;fill-opacity:1;stroke:#fdfdfd;stroke-width:0.0220971"
     d="m 204.58529,126.53344 c 0.0219,-3.24755 0.0557,-14.65454 0.0558,-18.84515 4e-5,-2.10964 0.007,-4.88145 0.0148,-6.15957 l 0.0147,-2.323848 h 0.0994 0.0994 l -0.015,9.352588 c -0.0144,8.98966 -0.0327,15.23885 -0.054,18.48422 l -0.0101,1.53022 h -0.10938 -0.10938 z"
     id="path1064"
     transform="scale(0.75)" />
  <path
     style="fill:#6793b4;fill-opacity:1;stroke:#fdfdfd;stroke-width:0.0220971"
     d="m 204.60325,116.8052 c 1.6e-4,-0.0608 0.004,-0.083 0.01,-0.0494 0.005,0.0336 0.005,0.0833 -3e-4,0.11048 -0.005,0.0272 -0.009,-3e-4 -0.009,-0.0611 z"
     id="path1066"
     transform="scale(0.75)" />
  <path
     style="fill:#6793b4;fill-opacity:1;stroke:#fdfdfd;stroke-width:0.03125"
     d="m 204.64521,80.601562 c -0.0112,-9.182421 -0.0294,-18.526953 -0.0405,-20.765625 l -0.0202,-4.070312 h 0.0946 0.0946 l 0.0206,1.757812 c 0.0309,2.633019 0.0801,21.848793 0.0804,31.390625 l 2.2e-4,8.382813 h -0.10475 -0.10474 z"
     id="path1068"
     transform="scale(0.75)" />
  <path
     style="fill:#6793b4;fill-opacity:1;stroke:#fdfdfd;stroke-width:0.03125"
     d="m 204.50493,49.078125 c 0,-0.04297 0.007,-0.06055 0.0158,-0.03906 0.009,0.02148 0.009,0.05664 0,0.07813 -0.009,0.02148 -0.0158,0.0039 -0.0158,-0.03906 z"
     id="path1070"
     transform="scale(0.75)" />
  <path
     style="fill:#6793b4;fill-opacity:1;stroke:#fdfdfd;stroke-width:0.03125"
     d="m 204.55842,53.429687 c -0.002,-1.284765 -0.0128,-2.792968 -0.0234,-3.351562 -0.0106,-0.558594 -0.0154,-1.405859 -0.0106,-1.882813 l 0.009,-0.867187 h 0.0886 0.0886 l 0.0196,0.929687 c 0.0108,0.511329 0.0286,2.409766 0.0397,4.21875 l 0.0201,3.289063 h -0.11364 -0.11363 z"
     id="path1072"
     transform="scale(0.75)" />
  <path
     style="fill:#6793b4;fill-opacity:1;stroke:#fdfdfd;stroke-width:0.03125"
     d="m 204.86382,66.195312 c -0.0265,-8.079419 -0.0735,-16.416164 -0.10047,-17.8125 l -0.0204,-1.054687 h 0.0776 0.0776 l 0.0209,1.164062 c 0.0437,2.427758 0.08,8.226686 0.10079,16.078125 l 0.0215,8.132813 h -0.0781 -0.0781 z"
     id="path1074"
     transform="scale(0.75)" />
  <path
     style="fill:#6793b4;fill-opacity:1;stroke:#fdfdfd;stroke-width:0.03125"
     d="m 204.91171,88.15625 c -0.003,-5.259375 -0.0148,-10.880859 -0.0263,-12.492188 l -0.0208,-2.929687 h 0.0864 0.0864 l -0.0186,2.070312 c -0.0102,1.138672 -0.0277,6.260938 -0.0388,11.382813 -0.0111,5.121875 -0.0298,9.811719 -0.0415,10.421875 -0.0117,0.610156 -0.0238,-3.19375 -0.0268,-8.453125 z"
     id="path1076"
     transform="scale(0.75)" />
  <path
     style="fill:#6793b4;fill-opacity:1;stroke:#fdfdfd;stroke-width:0.03125"
     d="m 204.65625,98.25 v -0.953125 h 0.10937 0.10938 V 98.25 99.203125 h -0.10938 -0.10937 z"
     id="path1078"
     transform="scale(0.75)" />
  <path
     style="fill:#6793b4;fill-opacity:1;stroke:#fdfdfd;stroke-width:0.03125"
     d="m 204.47827,147.41406 c 0.0109,-1.53398 0.0348,-5.91797 0.053,-9.74219 0.0183,-3.82421 0.0414,-7.43476 0.0515,-8.02343 l 0.0182,-1.07032 h 0.0901 0.0901 l 0.007,1.72657 c 0.004,0.94961 0.005,1.83906 0.003,1.97656 -0.004,0.2524 -0.0292,3.68048 -0.0622,8.5625 -0.01,1.46094 -0.0233,3.96406 -0.03,5.5625 -0.007,1.59844 -0.0205,3.10664 -0.0309,3.35156 l -0.0189,0.44531 h -0.0957 -0.0957 z"
     id="path1080"
     transform="scale(0.75)" />
  <path
     style="fill:#6793b4;fill-opacity:1;stroke:#fdfdfd;stroke-width:0.0220971"
     d="m 170.45693,203.59266 c 0,-0.0745 0.009,-0.11168 0.0276,-0.11178 0.0152,-6e-5 0.2961,-0.0148 0.62424,-0.0328 2.94144,-0.16111 4.88945,-0.33355 6.14299,-0.54378 4.29791,-0.7208 8.9856,-3.00298 13.32488,-6.48717 3.6009,-2.89131 6.18372,-6.00278 8.98011,-10.81816 l 0.22777,-0.39223 h 0.12045 c 0.0662,0 0.1162,0.007 0.11101,0.0166 -1.41472,2.48409 -2.72316,4.4496 -4.13722,6.2148 -1.82888,2.28306 -3.8121,4.17173 -6.39626,6.09135 -2.71868,2.01955 -5.58341,3.58268 -8.40794,4.58779 -1.40828,0.50113 -2.8028,0.85493 -4.19845,1.06519 -1.11122,0.1674 -3.139,0.34027 -5.43588,0.4634 -0.3403,0.0182 -0.70076,0.0389 -0.80102,0.0458 l -0.1823,0.0126 z"
     id="path1082"
     transform="scale(0.75)" />
  <path
     style="fill:#6793b4;fill-opacity:1;stroke:#fdfdfd;stroke-width:0.0220971"
     d="m 199.89856,185.2112 -0.11323,-0.007 0.21402,-0.38012 c 0.82224,-1.46037 1.34049,-2.45281 3.2599,-6.24266 l 1.03305,-2.03976 0.012,-2.12002 0.012,-2.12003 h 0.11068 0.11069 l -0.0156,2.14587 -0.0156,2.14586 -1.19463,2.35642 c -1.4212,2.80333 -1.56423,3.08232 -2.0804,4.05789 -0.37743,0.71337 -1.14178,2.1056 -1.19495,2.17657 -0.0177,0.0237 -0.0572,0.0313 -0.13806,0.0266 z"
     id="path1084"
     transform="scale(0.75)" />
  <path
     style="fill:#6793b4;fill-opacity:1;stroke:#fdfdfd;stroke-width:0.015625"
     d="m 204.535,172.46484 -0.004,-0.16015 h -0.11107 -0.11107 l 0.01,-0.80078 c 0.005,-0.44043 0.0274,-3.88399 0.0488,-7.65235 0.0215,-3.76836 0.0432,-7.07832 0.0484,-7.35547 l 0.009,-0.5039 h 0.10757 0.10757 l 5e-5,0.0508 c 3e-5,0.0279 -0.0212,3.43633 -0.0471,7.57422 -0.0259,4.13789 -0.0488,7.85742 -0.051,8.26562 -0.002,0.40821 -0.006,0.67012 -0.008,0.58203 z"
     id="path1086"
     transform="scale(0.75)" />
  <path
     style="fill:#6793b4;fill-opacity:1;stroke:#fdfdfd;stroke-width:0.0110485"
     d="m 204.41691,155.87285 c 0.002,-0.23699 0.009,-1.31091 0.0145,-2.38648 0.0465,-8.36023 0.0526,-9.17582 0.0684,-9.17582 0.007,0 0.008,0.25691 0.004,0.72644 -0.004,0.39954 -0.0116,1.58657 -0.0175,2.63784 -0.006,1.05127 -0.0135,2.04688 -0.0168,2.21247 l -0.006,0.30108 h 0.0872 0.0872 l 0.007,-0.11325 c 0.0199,-0.32715 0.0514,-3.56259 0.0515,-5.29778 3e-5,-0.40603 0.002,-0.4668 0.0165,-0.4668 0.0145,0 0.0157,0.13381 0.0103,1.12971 -0.003,0.62135 -0.0116,1.67911 -0.0182,2.35058 -0.007,0.67148 -0.0129,1.36256 -0.0139,1.53575 -0.001,0.17318 -0.006,0.7176 -0.0105,1.20981 -0.009,0.94758 -0.0178,2.19112 -0.0269,3.81728 -0.003,0.54386 -0.008,1.13675 -0.01,1.31754 l -0.004,0.32869 h -0.10396 -0.10397 l -0.001,0.0359 c -0.01,0.25756 -0.0159,0.18008 -0.0129,-0.16297 z"
     id="path1088"
     transform="scale(0.75)" />
  <path
     style="fill:#6793b4;fill-opacity:1;stroke:#fdfdfd;stroke-width:0.0110485"
     d="m 159.06588,203.95586 v -0.11576 l 0.047,-2e-5 c 0.0828,-4e-5 2.43277,-0.0543 3.10187,-0.0717 4.73804,-0.12271 7.95663,-0.25397 10.71709,-0.43704 0.50436,-0.0334 1.4071,-0.10081 1.62414,-0.12119 0.0638,-0.006 0.1359,-0.0102 0.1602,-0.009 0.0633,0.002 -0.19032,0.0251 -0.76787,0.0697 -0.83769,0.0647 -1.82662,0.12774 -3.04275,0.19394 -0.23029,0.0125 -0.42295,0.0254 -0.42813,0.0286 -0.005,0.003 -0.009,0.0503 -0.009,0.10461 0,0.0867 0.002,0.0988 0.0193,0.0987 0.0106,-5e-5 0.0889,-0.005 0.17402,-0.0109 0.0851,-0.006 0.4679,-0.0283 0.85073,-0.0497 2.69805,-0.15062 4.58703,-0.32255 5.77287,-0.52543 1.59663,-0.27316 3.15459,-0.72237 4.81071,-1.3871 0.18786,-0.0754 0.34393,-0.13473 0.34683,-0.13184 0.007,0.007 -0.0419,0.0276 -0.37352,0.16029 -1.79725,0.71933 -3.56953,1.20561 -5.29225,1.45209 -1.27464,0.18236 -3.42404,0.35439 -6.23138,0.49873 -2.28813,0.11764 -6.08433,0.24472 -9.86635,0.33028 -0.65932,0.0149 -1.29199,0.0298 -1.40593,0.033 l -0.20716,0.006 z"
     id="path1090"
     transform="scale(0.75)" />
  <path
     style="fill:#6793b4;fill-opacity:1;stroke:#fdfdfd;stroke-width:0.0110485"
     d="M 134.95796,204.23266 V 204.119 l 0.93084,-0.007 c 0.51196,-0.004 1.6965,-0.012 2.63231,-0.0179 6.4032,-0.0405 13.28637,-0.11757 17.69425,-0.19819 0.3251,-0.006 0.89189,-0.0159 1.25953,-0.0222 0.36764,-0.006 0.71194,-0.0132 0.76511,-0.0155 l 0.0967,-0.004 v 0.11339 0.1134 l -0.23479,0.007 c -0.50478,0.0155 -4.34877,0.0786 -6.75342,0.11099 -3.96034,0.0533 -8.93075,0.10028 -13.43503,0.12702 -1.02696,0.006 -2.11206,0.0132 -2.41134,0.0157 l -0.54414,0.005 z"
     id="path1092"
     transform="scale(0.75)" />
  <path
     style="fill:#6793b4;fill-opacity:1;stroke:#fdfdfd;stroke-width:0.015625"
     d="m 158.34375,203.97163 v -0.11895 l 0.35939,-0.004 0.35939,-0.004 -2e-5,0.11328 -1e-5,0.11328 -0.23047,1e-4 c -0.12676,5e-5 -0.28848,0.005 -0.35937,0.0101 l -0.12891,0.01 z"
     id="path1094"
     transform="scale(0.75)" />
  <path
     style="fill:#6793b4;fill-opacity:1;stroke:#fdfdfd;stroke-width:0.0110485"
     d="m 122.69407,204.27887 v -0.11509 l 2.47764,-0.007 c 3.24826,-0.01 7.26679,-0.0263 8.66758,-0.0354 l 1.11867,-0.007 v 0.11567 0.11568 l -1.4667,0.007 c -0.80668,0.004 -2.77429,0.0121 -4.37246,0.0179 -1.59817,0.006 -3.69753,0.0135 -4.66524,0.0171 l -1.75949,0.007 z"
     id="path1096"
     transform="scale(0.75)" />
  <path
     style="fill:#6793b4;fill-opacity:1;stroke:#fdfdfd;stroke-width:0.0078125"
     d="m 97.429687,204.40147 c -3.358007,-0.003 -6.735644,-0.008 -7.505859,-0.0114 l -1.400391,-0.005 v -0.11358 -0.11359 l 4.060547,0.005 c 2.233301,0.003 5.952832,0.007 8.265626,0.0103 l 4.20508,0.005 v 0.11592 0.11592 l -0.75977,-0.001 c -0.41787,-7.2e-4 -3.50722,-0.004 -6.865233,-0.007 z"
     id="path1098"
     transform="scale(0.75)" />
  <path
     style="fill:#6793b4;fill-opacity:1;stroke:#fdfdfd;stroke-width:0.03125"
     d="m 105.0625,204.28125 v -0.10938 h 8.8125 8.8125 v 0.10938 0.10937 h -8.8125 -8.8125 z"
     id="path1100"
     transform="scale(0.75)" />
  <path
     style="fill:#6793b4;fill-opacity:1;stroke:#fdfdfd;stroke-width:0.03125"
     d="m 78.109375,204.35764 c -5.173438,-0.0112 -10.731641,-0.0224 -12.351563,-0.0249 l -2.945312,-0.005 v -0.11013 -0.11013 l 5.820312,0.017 c 3.201172,0.009 8.98086,0.0255 12.84375,0.0359 L 88.5,204.1796 v 0.10551 0.10551 l -0.492188,-0.006 c -0.270703,-0.003 -4.725,-0.0155 -9.898437,-0.0267 z"
     id="path1102"
     transform="scale(0.75)" />
  <path
     style="fill:#6793b4;fill-opacity:1;stroke:#fdfdfd;stroke-width:0.0441942"
     d=""
     id="path1104"
     transform="scale(0.75)" />
  <path
     style="fill:#6793b4;fill-opacity:1;stroke:#fdfdfd;stroke-width:0.00552427"
     d="m 53.074441,204.28442 c -0.121534,-0.002 -0.375098,-0.007 -0.563476,-0.0103 -0.729206,-0.0132 -1.704918,-0.0331 -1.776053,-0.0362 -0.04102,-0.002 -0.130511,-0.004 -0.198874,-0.006 -0.06836,-0.002 -0.175258,-0.004 -0.237544,-0.006 -0.06229,-0.002 -0.16048,-0.004 -0.218209,-0.005 -0.147617,-0.003 -0.291909,-0.007 -0.41432,-0.0108 -0.165333,-0.005 -0.46152,-0.0133 -0.693296,-0.0194 -0.395168,-0.0105 -0.995589,-0.0276 -1.265058,-0.0359 -0.14736,-0.005 -0.390981,-0.0121 -0.541379,-0.0167 -0.680364,-0.021 -1.902188,-0.0637 -2.52183,-0.0882 -0.115457,-0.005 -0.336704,-0.0133 -0.49166,-0.0194 -0.469628,-0.0185 -1.171152,-0.0486 -1.808418,-0.0776 -0.33227,-0.0151 -0.612558,-0.0275 -0.622862,-0.0275 h -0.01873 v -0.11893 -0.11892 l 0.03453,0.003 c 0.04246,0.004 0.945885,0.0446 1.650376,0.0744 2.231564,0.0944 4.636263,0.17259 6.971631,0.22667 0.728479,0.0169 1.738455,0.0371 2.331243,0.0468 0.2932,0.005 0.571002,0.0101 0.617337,0.0119 l 0.08424,0.003 v 0.11819 0.11819 l -0.04834,-9.1e-4 c -0.02659,-5e-4 -0.147774,-0.003 -0.269308,-0.005 z"
     id="path1106"
     transform="scale(0.75)" />
  <path
     style="fill:#6793b4;fill-opacity:1;stroke:#fdfdfd;stroke-width:0.015625"
     d="m 59.078125,204.31917 c -3.753297,-0.015 -5.575911,-0.0278 -5.628906,-0.0397 -0.04188,-0.009 -0.04297,-0.0124 -0.04297,-0.11932 v -0.10967 l 0.386719,0.0106 c 0.469511,0.0129 5.27705,0.0385 8.261718,0.044 1.194532,0.002 1.857227,0.006 1.472657,0.008 l -0.699219,0.004 v 0.10124 0.10124 l 0.699219,0.004 c 0.38457,0.002 0.185937,0.005 -0.441407,0.005 -0.627343,5.9e-4 -2.430859,-0.004 -4.007812,-0.0103 z"
     id="path1108"
     transform="scale(0.75)" />
  <path
     style="fill:#6793b4;fill-opacity:1;stroke:#fdfdfd;stroke-width:0.0110485"
     d="m 40.923805,203.88356 c -5.785127,-0.29971 -10.034462,-0.6645 -12.915747,-1.10879 -0.779539,-0.1202 -1.857152,-0.3217 -2.63784,-0.49322 l -0.212685,-0.0467 v -0.11439 c 0,-0.0629 0.0037,-0.11439 0.0083,-0.11439 0.0046,0 0.157449,0.0324 0.339743,0.072 2.138694,0.46433 4.295768,0.76191 7.684249,1.06006 2.230092,0.19623 5.297613,0.39957 7.844465,0.52 0.337257,0.016 0.624381,0.0312 0.638054,0.0339 0.02379,0.005 0.02486,0.01 0.02486,0.1152 v 0.11027 l -0.08563,-10e-4 c -0.04709,-7.4e-4 -0.356592,-0.0154 -0.687772,-0.0325 z"
     id="path1110"
     transform="scale(0.75)" />
  <path
     style="fill:#6793b4;fill-opacity:1;stroke:#fdfdfd;stroke-width:0.0110485"
     d="m 24.88132,202.17194 c -1.427387,-0.33832 -2.544935,-0.68308 -3.646019,-1.12479 -1.007418,-0.40414 -2.032591,-0.92438 -2.972059,-1.50824 -1.599452,-0.99402 -3.146566,-2.2452 -5.159326,-4.17245 -0.324534,-0.31074 -1.554982,-1.54086 -1.888187,-1.88768 l -0.225038,-0.23423 0.158747,9.2e-4 0.158746,9.1e-4 0.325932,0.33636 c 0.632206,0.65243 1.651954,1.65457 2.276327,2.23701 2.867944,2.67534 5.156256,4.18349 7.90103,5.20731 0.865014,0.32265 1.848956,0.61765 2.909643,0.87236 0.164071,0.0394 0.329385,0.078 0.367364,0.0858 l 0.06905,0.0142 v 0.11932 c 0,0.0656 -0.0012,0.11888 -0.0028,0.11834 -0.0015,-5.4e-4 -0.124572,-0.0299 -0.273451,-0.0651 z"
     id="path1112"
     transform="scale(0.75)" />
  <path
     style="fill:#6793b4;fill-opacity:1;stroke:#fdfdfd;stroke-width:0.0110485"
     d="m 31.764562,203.29177 c -0.07596,-0.008 -0.341952,-0.0379 -0.591097,-0.0653 -4.483941,-0.49383 -7.780104,-1.21878 -10.344903,-2.27523 -2.047149,-0.84323 -3.774648,-1.9398 -5.64733,-3.58476 -0.812875,-0.71403 -1.529219,-1.40016 -3.224904,-3.08887 -0.741849,-0.7388 -1.026175,-1.02863 -1.011897,-1.03149 0.01408,-0.003 0.151387,0.13058 0.471963,0.45852 3.252619,3.32728 5.480344,5.14893 7.901984,6.46157 0.453142,0.24562 1.177533,0.58919 1.701476,0.80698 1.648566,0.68528 3.544061,1.20612 5.98831,1.64547 1.288591,0.23162 2.966962,0.45408 4.62934,0.6136 0.294648,0.0283 0.292787,0.0279 0.292787,0.0557 0,0.012 -0.0062,0.0213 -0.01381,0.0206 -0.0076,-7.1e-4 -0.07596,-0.008 -0.151918,-0.0167 z"
     id="path1114"
     transform="scale(0.75)" />
  <path
     style="fill:#6793b4;fill-opacity:1;stroke:#fdfdfd;stroke-width:0.0078125"
     d="m 10.577805,192.90442 c -0.412092,-0.41413 -0.53772,-0.54313 -0.8162432,-0.83818 -1.562733,-1.65547 -2.7391815,-3.17912 -3.718813,-4.81634 C 5.8715737,186.96383 5.5625,186.4209 5.5625,186.40628 c 0,-0.003 0.00945,-0.004 0.021005,-0.002 0.018384,0.002 0.031156,0.0205 0.1023468,0.147 0.8276763,1.47065 1.8470124,2.87915 3.2312281,4.46484 0.2029261,0.23247 0.5494826,0.62092 0.7039669,0.78907 0.4953952,0.53922 0.9188552,0.99069 1.2380892,1.31997 0.07598,0.0784 0.101997,0.10981 0.09252,0.11181 -0.0073,0.002 -0.01429,0.008 -0.01563,0.0141 -0.0014,0.007 -0.149557,-0.13649 -0.358222,-0.34618 z"
     id="path1116"
     transform="scale(0.75)" />
  <path
     style="fill:#6793b4;fill-opacity:1;stroke:#fdfdfd;stroke-width:0.0078125"
     d="m 10.941128,193.19762 c -0.02949,-0.0314 -0.155917,-0.16422 -0.280957,-0.29528 -2.1991236,-2.30491 -3.573975,-4.02441 -4.6545558,-5.82135 -0.1266334,-0.21059 -0.3884277,-0.66504 -0.3884277,-0.67429 0,-0.003 0.058672,-0.004 0.1303821,-0.003 l 0.1303821,0.002 0.1100439,0.19141 c 1.1128593,1.93566 2.5313482,3.73321 4.9065354,6.2177 0.128906,0.13483 0.274673,0.28739 0.323925,0.33901 l 0.08955,0.0939 -0.151282,-0.005 c -0.107667,-0.004 -0.152825,-0.003 -0.156633,0.003 -0.0032,0.005 -0.02643,-0.0138 -0.05896,-0.0483 z"
     id="path1118"
     transform="scale(0.75)" />
  <path
     style="fill:#6793b4;fill-opacity:1;stroke:#fdfdfd;stroke-width:0.00552427"
     d="m 5.5764045,186.39833 c -0.017639,-10e-4 -0.024298,-0.005 -0.0311,-0.0166 -0.029283,-0.0505 -0.1919672,-0.35907 -0.2936319,-0.55694 -0.7466552,-1.45323 -1.4396844,-3.17038 -2.0832665,-5.1618 -0.1009145,-0.31226 -0.1245328,-0.38685 -0.1245328,-0.39329 0,-0.003 0.00651,-0.004 0.014459,-0.003 0.013974,0.002 0.018578,0.014 0.1373593,0.36635 0.5655045,1.67765 0.987334,2.79042 1.4666674,3.86904 0.2747716,0.6183 0.5882232,1.25548 0.8761238,1.78097 0.034952,0.0638 0.062833,0.11629 0.061958,0.11666 -8.751e-4,3.7e-4 -0.011691,-8e-5 -0.024036,-9.8e-4 z"
     id="path1120"
     transform="scale(0.75)" />
  <path
     style="fill:#6793b4;fill-opacity:1;stroke:#fdfdfd;stroke-width:0.00552427"
     d="M 5.5276037,186.24806 C 4.9618016,185.20841 4.4331218,184.02967 3.9194313,182.6625 3.689382,182.05023 3.4953705,181.50036 3.173507,180.54839 l -0.095723,-0.28312 h 0.1234544 0.1234543 l 0.045438,0.13673 c 0.1407069,0.4234 0.3970755,1.16476 0.5401487,1.56199 0.6269202,1.74059 1.2354426,3.12116 1.9131698,4.34047 0.029907,0.0538 0.054376,0.099 0.054376,0.1005 0,0.001 -0.059521,0.002 -0.1322691,0.002 l -0.1322691,-0.001 z"
     id="path1122"
     transform="scale(0.75)" />
  <path
     style="fill:#6793b4;fill-opacity:1;stroke:#fdfdfd;stroke-width:0.0078125"
     d="m 3.0049732,180.03711 c -0.746086,-2.25081 -1.2866034,-4.28311 -1.6567188,-6.22913 -0.028259,-0.14858 -0.051379,-0.27602 -0.051379,-0.2832 0,-0.0116 0.012789,-0.0131 0.1156137,-0.0131 h 0.1156136 l 0.018007,0.0996 c 0.0322,0.17812 0.1334018,0.68724 0.1885691,0.94864 0.358281,1.69766 0.8335372,3.42021 1.5052322,5.45565 0.041121,0.12461 0.07641,0.23096 0.07842,0.23633 0.00283,0.008 -0.023861,0.01 -0.1176253,0.01 H 3.0794255 Z"
     id="path1124"
     transform="scale(0.75)" />
  <path
     style="fill:#6793b4;fill-opacity:1;stroke:#fdfdfd;stroke-width:0.00552427"
     d="m 1.2877657,173.49154 c -0.015032,-0.0753 -0.076194,-0.42656 -0.1186567,-0.68134 -0.1275005,-0.76503 -0.23817927,-1.54788 -0.33739019,-2.38642 -0.0263982,-0.22312 -0.0804179,-0.70595 -0.0804179,-0.71878 0,-0.006 0.0207981,-0.008 0.11590446,-0.008 0.11574715,0 0.11590797,2e-5 0.11849385,0.0124 0.001424,0.007 0.0114913,0.0957 0.0223714,0.19749 0.081692,0.76425 0.2044061,1.69298 0.3237211,2.45002 0.058532,0.37138 0.1852789,1.11277 0.19625,1.14794 0.00292,0.009 -0.0033,0.01 -0.1064627,0.009 -0.060261,-4.3e-4 -0.1137005,8.8e-4 -0.1187556,0.003 -0.00752,0.003 -0.010257,-0.002 -0.015058,-0.0258 z"
     id="path1126"
     transform="scale(0.75)" />
  <path
     style="fill:#6793b4;fill-opacity:1;stroke:#fdfdfd;stroke-width:0.015625"
     d="m 0.75,169.66729 c 0,-0.0154 -0.0137177,-0.16131 -0.0304837,-0.32422 -0.1924636,-1.87008 -0.35573369,-4.40186 -0.48462603,-7.51495 -0.042515,-1.02684 -0.0935336,-3.41769 -0.094109,-4.41015 L 0.140625,157.14844 h 0.10755443 0.10755443 l 0.009745,0.5664 c 0.00536,0.31153 0.0168452,1.01993 0.0255234,1.57422 0.0176101,1.1248 0.0358666,1.80379 0.0705797,2.625 0.0967815,2.28956 0.2118514,4.28118 0.33582884,5.8125 0.0561862,0.69399 0.16056411,1.81756 0.17890228,1.92578 l 0.007281,0.043 H 0.86679687 C 0.76490153,169.69531 0.75,169.69174 0.75,169.66729 Z"
     id="path1128"
     transform="scale(0.75)" />
  <path
     style="fill:#6793b4;fill-opacity:1;stroke:#fdfdfd;stroke-width:0.015625"
     d="M 0.13430099,156.62891 C 0.11241139,155.485 0.07484208,147.07402 0.0627989,140.62109 L 0.0625,140.46094 h 0.11459542 0.11459542 l 0.0105394,5.10547 c 0.0100239,4.85576 0.0272384,8.46895 0.0505468,10.60937 l 0.0105919,0.97266 H 0.25380578 0.14424264 Z"
     id="path1130"
     transform="scale(0.75)" />
  <path
     style="fill:#6793b4;fill-opacity:1;stroke:#fdfdfd;stroke-width:0.0078125"
     d="m 0.17529017,93.841797 c 0.002373,-0.132129 0.006196,-0.711328 0.008494,-1.28711 0.00685,-1.715982 0.0386092,-7.254425 0.0474535,-8.27539 l 0.005025,-0.580078 0.11429044,-2e-6 0.11429044,-3e-6 -0.001954,0.271487 c -0.003768,0.523414 -0.0256602,4.315129 -0.036887,6.388674 -0.006235,1.151562 -0.0136589,2.460254 -0.0164977,2.908203 l -0.005161,0.814453 H 0.28765927 0.17097509 Z"
     id="path1132"
     transform="scale(0.75)" />
  <path
     style="fill:#6793b4;fill-opacity:1;stroke:#fdfdfd;stroke-width:0.0110485"
     d="m 0.13648555,102.80946 c 0.011231,-3.006444 0.027973,-6.610109 0.035905,-7.728457 l 0.007072,-0.997131 h 0.11342954 0.11342954 l -0.004454,0.466801 c -0.004541,0.475878 -0.0213416,4.268935 -0.0318467,7.189837 -0.003202,0.89024 -0.008815,1.94303 -0.0124732,2.33953 l -0.006652,0.72092 H 0.23997108 0.12904602 Z"
     id="path1134"
     transform="scale(0.75)" />
  <path
     style="fill:#6793b4;fill-opacity:1;stroke:#fdfdfd;stroke-width:0.0078125"
     d="m 0.09691317,113.40039 c 0.01964607,-6.00437 0.03069347,-8.80651 0.03421951,-8.67969 l 0.002226,0.0801 h 0.10878574 0.10878574 l 0.002988,-0.0645 c 0.003062,-0.066 0.002288,0.22084 -0.0104316,3.86914 -0.004052,1.1623 -0.009283,3.05019 -0.0116231,4.19531 -0.00234,1.14512 -0.006225,2.11455 -0.008632,2.1543 l -0.004377,0.0723 H 0.20522207 0.09158984 Z"
     id="path1136"
     transform="scale(0.75)" />
  <path
     style="fill:#6793b4;fill-opacity:1;stroke:#fdfdfd;stroke-width:0.0078125"
     d="m 0.07333108,122.9668 c 0.0026286,-0.71221 0.0065449,-2.34082 0.0087027,-3.61914 0.0021579,-1.27832 0.0061434,-2.77334 0.0088567,-3.32227 l 0.0049333,-0.99805 H 0.20934924 0.3228747 l -0.005187,2.3086 -0.0103747,4.61718 -0.005187,2.3086 H 0.18533851 0.06855176 Z"
     id="path1138"
     transform="scale(0.75)" />
  <path
     style="fill:#6793b4;fill-opacity:1;stroke:#fdfdfd;stroke-width:0.015625"
     d="m 0.06250407,135.68359 c 2.24e-6,-2.62754 0.0046842,-6.26972 0.01040444,-8.09375 l 0.01040036,-3.3164 H 0.19009194 0.296875 v 8.09375 8.09375 H 0.1796875 0.0625 Z"
     id="path1140"
     transform="scale(0.75)" />
  <path
     style="fill:#6793b4;fill-opacity:1;stroke:#fdfdfd;stroke-width:0.015625"
     d="m 0.58423525,50.535156 c 0.005099,-0.208398 0.0130759,-0.596875 0.017727,-0.863281 C 0.77843984,39.563616 0.99755875,34.011168 1.3599243,30.4652 c 0.016885,-0.165233 0.030701,-0.3041 0.030701,-0.308593 0,-0.0045 0.049219,-0.0082 0.109375,-0.0082 0.099784,0 0.109375,0.0028 0.109375,0.03197 0,0.01759 -0.021005,0.244344 -0.046679,0.503907 -0.2676884,2.70639 -0.4523021,6.536576 -0.60151947,12.479744 -0.0522244,2.080043 -0.12423325,5.604016 -0.14112222,6.90625 -0.004848,0.373829 -0.012553,0.716602 -0.0171216,0.761719 l -0.008307,0.08203 H 0.68479561 0.57496485 Z"
     id="path1142"
     transform="scale(0.75)" />
  <path
     style="fill:#6793b4;fill-opacity:1;stroke:#fdfdfd;stroke-width:0.0220971"
     d="m 1.4038671,30.063087 c 0.0057,-0.04254 0.040625,-0.325932 0.077608,-0.629767 0.1750812,-1.438389 0.4135324,-2.710958 0.7172148,-3.827642 0.066827,-0.245732 0.1215038,-0.451144 0.1215038,-0.456469 0,-0.0053 0.054815,-0.01309 0.1218119,-0.01725 0.083618,-0.0052 0.1188171,2.08e-4 0.1122606,0.01723 -0.021394,0.05556 -0.1043974,0.346284 -0.1790276,0.627062 -0.2808085,1.056474 -0.5077736,2.282611 -0.672854,3.634971 -0.037089,0.303835 -0.0726,0.592269 -0.078914,0.640965 l -0.01148,0.08854 -0.1092454,-1.55e-4 -0.1092454,-1.45e-4 z"
     id="path1144"
     transform="scale(0.75)" />
  <path
     style="fill:#6793b4;fill-opacity:1;stroke:#fdfdfd;stroke-width:0.0220971"
     d="M 0.31781166,72.903814 C 0.3252049,72.329566 0.3365541,71.198471 0.3430321,70.39027 0.39284334,64.175781 0.46288939,58.369773 0.56663301,51.856339 l 0.0148701,-0.933602 h 0.11029076 0.11029078 l -0.0148889,0.801019 c -0.0352911,1.89866 -0.10849363,7.11168 -0.1462254,10.413252 -0.0340153,2.976374 -0.11032589,10.957711 -0.11054867,11.562301 l -9.159e-5,0.248592 H 0.41734975 0.30436941 Z"
     id="path1146"
     transform="scale(0.75)" />
  <path
     style="fill:#6793b4;fill-opacity:1;stroke:#fdfdfd;stroke-width:0.015625"
     d="m 0.24200814,82.824219 c 0.00823,-0.795438 0.0257396,-3.286204 0.0472042,-6.714844 0.004573,-0.730469 0.0124805,-1.512695 0.0175723,-1.738281 l 0.009258,-0.410157 H 0.42540467 0.5347667 l -0.0102246,1.050782 c -0.0145262,1.492856 -0.037662,4.640144 -0.0501364,6.820312 L 0.4637442,83.695312 H 0.3483698 0.2329954 Z"
     id="path1148"
     transform="scale(0.75)" />
</svg>
