<?xml version="1.0" encoding="UTF-8" standalone="no"?>
<svg
   version="1.0"
   width="124.48072pt"
   height="198.06355pt"
   viewBox="0 0 124.48072 198.06355"
   preserveAspectRatio="xMidYMid"
   id="svg18"
   xml:space="preserve"
   xmlns="http://www.w3.org/2000/svg"
   xmlns:svg="http://www.w3.org/2000/svg"><defs
     id="defs22" /><metadata
     id="metadata2"> Created by potrace 1.16, written by Peter Selinger 2001-2019 </metadata><g
     transform="matrix(0.1,0,0,-0.1,-67.748491,223.64028)"
     fill="#000000"
     stroke="none"
     id="g16"
     style="fill:#f9f9f9"><path
       d="m 1172,1694 c -53,-14 -146,-67 -171,-97 -12,-15 -9,-24 18,-69 60,-98 55,-95 95,-61 113,100 297,76 333,-43 16,-52 6,-119 -23,-171 -18,-30 -38,-48 -76,-66 -104,-50 -98,-54 -98,72 0,124 1,123 -80,135 -25,4 -60,9 -77,12 l -33,6 V 1071 729 l 93,3 92,3 5,130 5,129 64,13 c 170,34 280,130 317,276 30,117 -2,251 -77,325 -89,88 -249,123 -387,86 z"
       id="path10"
       style="display:inline;fill:#f9f9f9" /></g><path
     style="display:inline;fill:#60ff9f;fill-opacity:1;stroke:#fdfdfd;stroke-width:0.431512"
     d="m 79.786192,196.81916 c -3.364118,-1.56645 -3.370523,-1.76141 -0.318923,-9.71084 1.038405,-2.70504 1.788585,-5.01769 1.66707,-5.13921 -0.121522,-0.12151 -2.153745,0.21729 -4.516065,0.7529 -5.831032,1.32208 -11.34714,1.73212 -17.345767,1.28936 -15.626003,-1.15333 -27.384488,-6.62821 -38.793315,-18.0626 -7.680015,-7.69723 -12.9580126,-15.85487 -16.5682081,-25.60769 -1.8304133,-4.94481 -3.6936765,-11.67887 -3.69522675,-13.355 -0.001425,-1.52449 1.64757975,-2.6264 3.99906225,-2.67232 1.5388597,-0.0301 1.8977662,0.15254 2.7450885,1.39662 0.536124,0.78716 1.864674,4.18532 2.952339,7.55146 3.7443301,11.5881 7.9734221,18.81709 15.3301271,26.20448 7.175768,7.20571 14.935875,11.76652 24.607673,14.46255 7.204582,2.00829 22.8846,1.95933 26.850142,-0.0838 2.151293,-1.10841 1.780418,-1.45793 -4.536532,-4.27517 -3.484943,-1.55422 -4.597133,-2.24143 -4.455053,-2.75268 0.104145,-0.37474 0.41739,-2.10031 0.696098,-3.83461 l 0.506737,-3.15327 1.359248,0.29004 c 3.172957,0.67706 15.05154,6.43703 20.045632,9.72021 3.27315,2.15182 3.33189,1.21023 -0.77847,12.47799 -4.702507,12.89097 -5.89992,15.53916 -7.02219,15.53022 -0.291195,-0.002 -1.519455,-0.4652 -2.729467,-1.02862 z"
     id="path953" /><path
     style="display:inline;fill:#60ff9f;fill-opacity:1;stroke:#fdfdfd;stroke-width:0.431512"
     d="m 117.67222,67.960023 c -0.44571,-0.478418 -1.73219,-3.439673 -2.85884,-6.58056 C 111.12874,51.10735 107.61094,44.709213 101.82758,37.760997 91.155202,24.939056 75.010949,18.27359 58.792439,19.99311 c -7.559797,0.801505 -13.854052,2.602602 -13.615702,3.896122 0.13314,0.722518 3.036892,2.322988 8.191267,4.514804 3.314198,1.40931 3.58857,1.939791 2.882805,5.57377 -0.653602,3.365426 -1.172737,3.725057 -3.971932,2.751548 -2.74536,-0.954786 -17.951183,-8.312717 -20.447663,-9.894402 -1.81272,-1.148475 -1.823842,-1.171177 -1.570575,-3.206163 0.399248,-3.207918 4.058355,-23.13653657 4.290795,-23.36897507 0.270668,-0.27067125 5.32905,0.77446727 6.323048,1.30643847 0.933495,0.49959 0.953295,1.4787173 0.118155,5.8430595 -0.355958,1.860198 -0.647228,4.3045351 -0.647265,5.4318611 -7.5e-5,1.94916 0.05813,2.04952 1.186582,2.046386 0.652665,-0.0018 2.448833,-0.398384 3.991485,-0.881269 8.398628,-2.62895 18.056213,-3.613206 25.580385,-2.607031 16.57959,2.217117 31.581176,12.309119 41.928476,28.206488 5.35336,8.224801 11.95165,24.437828 11.16688,27.438773 -0.46291,1.77021 -5.12186,2.423693 -6.52696,0.915503 z"
     id="path955" /></svg>
