<?xml version="1.0" encoding="UTF-8" standalone="no"?>
<!-- Created with Inkscape (http://www.inkscape.org/) -->

<svg
   width="207.13303mm"
   height="246.0936mm"
   viewBox="0 0 207.13303 246.0936"
   version="1.1"
   id="svg5"
   xml:space="preserve"
   xmlns="http://www.w3.org/2000/svg"
   xmlns:svg="http://www.w3.org/2000/svg"><defs
     id="defs2" /><g
     id="layer1"
     transform="translate(21.674533,50.811954)"><g
       id="g194"><path
         style="fill:#48c6de;stroke-width:0.264583"
         d="m 83.08799,127.24808 c -0.359801,-0.24175 -1.428091,-1.11277 -2.373976,-1.9356 -0.945886,-0.82283 -1.867011,-1.58356 -2.046949,-1.69052 -0.190085,-0.113 -1.132343,0.29353 -2.248958,0.97028 -3.24897,1.96911 -3.603654,2.10803 -5.031883,1.97079 -1.692476,-0.16262 -2.58599,-1.00736 -2.765544,-2.61457 -0.168579,-1.50896 0.43524,-2.28503 2.782872,-3.57673 0.97341,-0.53558 2.846583,-1.60892 4.162607,-2.38519 2.452621,-1.44671 3.454016,-1.68452 4.511299,-1.0713 0.610505,0.35408 5.851779,4.66873 7.034823,5.7911 0.863193,0.81893 0.996834,2.14026 0.344128,3.40245 -0.75451,1.45906 -3.015059,2.04862 -4.368419,1.13929 z m 12.971856,-4.63101 c -4.179323,-2.39023 -10.393034,-7.70947 -13.93486,-11.92892 -0.946668,-1.12778 -1.897742,-2.05052 -2.113494,-2.05052 -0.215754,0 -1.36634,0.69043 -2.556859,1.5343 -4.953749,3.51131 -10.605669,6.63556 -15.383327,8.50353 -3.623571,1.41674 -4.617518,1.42461 -5.994669,0.0475 -0.787366,-0.78737 -1.026975,-1.23525 -1.026216,-1.91823 0.0016,-1.39893 0.82373,-2.48109 2.291715,-3.01639 6.442744,-2.34931 12.784322,-5.76308 18.344795,-9.87526 3.461911,-2.56022 4.02368,-2.83161 5.347332,-2.58329 0.741521,0.13911 1.288237,0.56942 2.486578,1.95716 5.068702,5.86978 10.927997,11.08232 15.6451,13.91818 0.907989,0.54587 1.830719,1.24924 2.050519,1.56305 1.20706,1.72332 -0.53124,4.68941 -2.7449,4.68367 -0.584152,-0.002 -1.522997,-0.32648 -2.411714,-0.83475 z m 10.808644,-6.5244 c -8.184083,-4.31795 -17.330771,-13.07403 -23.334336,-22.33785 -0.825187,-1.273307 -1.577705,-2.315104 -1.672259,-2.315104 -0.09455,0 -1.314243,1.103439 -2.71042,2.452086 -3.856263,3.72499 -8.27723,7.154158 -12.195794,9.459778 -4.897323,2.88152 -11.682356,5.69482 -16.560963,6.86672 -2.220161,0.53331 -2.479963,0.54689 -3.367643,0.17599 -1.643324,-0.68662 -2.494955,-2.77046 -1.725237,-4.22145 0.507323,-0.95635 1.268346,-1.3303 4.525148,-2.22357 3.761422,-1.03167 5.675193,-1.76596 9.907944,-3.80154 5.620252,-2.702843 12.417535,-7.695589 16.589157,-12.185078 4.53304,-4.878446 4.870984,-5.113742 6.746697,-4.697455 1.216703,0.270026 1.794484,0.919366 3.908436,4.392488 5.773128,9.484965 13.78758,17.704195 21.73627,22.291655 2.93907,1.69623 3.48394,2.30771 3.48394,3.90981 0,0.99077 -0.14515,1.32655 -0.89958,2.08098 -1.1654,1.1654 -2.42917,1.2089 -4.43136,0.15254 z m -71.431974,-1.83264 c -0.329108,-0.41965 -0.319749,-0.42901 0.0999,-0.0999 0.254661,0.19972 0.463021,0.40808 0.463021,0.46302 0,0.21776 -0.217274,0.0776 -0.562917,-0.36312 z m 79.673334,-7.03388 C 109.17198,104.75682 102.51238,99.521059 97.726531,93.559436 91.245909,85.486678 88.135221,77.085494 87.585848,66.172009 87.461317,63.698155 87.224391,61.215143 87.059344,60.654203 86.6546,59.278613 84.869528,57.385316 83.660752,57.049562 c -2.411264,-0.669761 -4.978751,-0.0738 -6.453642,1.498018 -0.400828,0.42717 -1.325615,2.138823 -2.05508,3.803673 -1.559202,3.558561 -2.661414,5.431134 -4.896437,8.318672 -6.882841,8.892288 -16.542828,15.033455 -27.211595,17.299294 -3.808825,0.808921 -5.489519,0.928756 -6.588109,0.469736 -1.594278,-0.666134 -2.25067,-2.728714 -1.394976,-4.383445 0.477991,-0.924332 1.204571,-1.214133 4.368025,-1.742204 13.180874,-2.20027 24.873711,-10.800352 29.646778,-21.805209 2.136505,-4.925959 3.085872,-6.272699 5.610129,-7.958333 6.420099,-4.287178 15.006208,-1.848717 17.883676,5.078976 0.942983,2.270297 1.373659,5.026903 1.373659,8.792339 0,11.225136 6.396,23.379876 16.13961,30.671187 2.07903,1.555766 5.92126,3.839794 8.01272,4.763174 1.22967,0.54291 1.60815,0.86167 1.92582,1.62195 0.5264,1.25985 0.13247,2.75971 -0.96803,3.68572 -1.00755,0.84779 -2.01759,0.86394 -3.94345,0.063 z M 40.025541,99.75803 c -1.454046,-1.018455 -1.811406,-3.267427 -0.724453,-4.559199 0.56351,-0.669692 0.998578,-0.842111 3.090773,-1.224883 5.179171,-0.947542 11.90023,-3.636489 16.890904,-6.757678 7.34601,-4.594225 13.818316,-11.630278 17.725127,-19.269016 0.994719,-1.944912 1.60583,-2.832989 2.139296,-3.108854 2.256407,-1.166833 4.733679,0.602655 4.393581,3.138281 -0.308155,2.297462 -4.142229,8.635166 -7.912748,13.07973 -8.007942,9.439496 -17.963173,15.593842 -29.839006,18.446534 -3.192896,0.766965 -4.923316,0.843555 -5.763474,0.255085 z m 81.566599,-2.605048 c -3.59472,-1.143804 -8.16185,-4.16611 -11.79415,-7.804813 -4.37397,-4.38168 -7.11937,-9.026173 -8.82507,-14.929675 -0.94352,-3.265562 -1.204489,-5.133345 -1.207653,-8.64336 -0.0038,-4.198689 -0.444826,-7.45599 -1.314437,-9.707822 -3.226159,-8.354043 -12.868113,-13.04804 -21.602709,-10.516853 -3.509473,1.017005 -5.200293,2.028745 -7.92298,4.740904 -2.259628,2.25089 -2.522288,2.634403 -4.609676,6.730627 -2.534838,4.974291 -4.388964,7.579105 -7.43358,10.443262 -5.168997,4.862624 -11.510951,7.95088 -18.865433,9.186651 -1.883878,0.316547 -2.113336,0.304194 -2.975639,-0.160187 -1.575374,-0.848394 -2.138701,-2.726034 -1.302816,-4.342455 0.455369,-0.880584 1.130755,-1.16985 4.051448,-1.735225 5.950386,-1.151848 10.495186,-3.498445 14.823404,-7.653708 2.546456,-2.444699 4.406906,-5.123238 6.506115,-9.36703 1.870575,-3.781578 2.689553,-4.97805 5.172871,-7.557206 3.683873,-3.826044 7.850724,-6.060707 13.181427,-7.06914 2.445129,-0.462557 8.162634,-0.174042 10.649085,0.537369 10.630582,3.041576 17.676883,12.159197 17.750973,22.969034 0.0458,6.675686 0.87469,10.872565 3.02548,15.318025 2.90535,6.00506 7.85375,10.722247 14.1069,13.447764 2.22112,0.968103 2.61929,1.241555 3.04549,2.091563 0.67351,1.343221 0.41599,2.537143 -0.77229,3.580464 -1.02708,0.901792 -1.909,1.007477 -3.68676,0.441811 z m 1.40505,-12.253147 c -2.03803,-1.032682 -2.90025,-1.68371 -4.99338,-3.770312 -2.22723,-2.220283 -2.69357,-2.854553 -3.8969,-5.300223 -1.92371,-3.90979 -2.16695,-5.155718 -2.42773,-12.435416 -0.19582,-5.46648 -0.30641,-6.521397 -0.91534,-8.73125 -2.15926,-7.836066 -7.59015,-14.526182 -15.020888,-18.503677 -7.053198,-3.77541 -16.978526,-4.383119 -24.618721,-1.507357 -3.995626,1.50395 -7.22875,3.554288 -10.197327,6.466808 -2.597803,2.548747 -4.438462,5.149651 -6.40207,9.04631 -2.925667,5.80581 -6.52609,9.610902 -11.761636,12.430238 -1.624645,0.874868 -4.951751,1.857261 -6.290061,1.857261 -1.903089,0 -3.292377,-1.612111 -3.03607,-3.523014 0.207048,-1.543651 1.05073,-2.234356 3.46668,-2.83809 2.687499,-0.671595 4.788976,-1.816378 6.921629,-3.770567 2.032876,-1.862759 3.125893,-3.41033 5.45792,-7.727703 2.443609,-4.523949 3.888441,-6.498828 7.069005,-9.662318 5.667285,-5.636861 11.91139,-8.853289 19.599213,-10.095836 1.091406,-0.176397 3.770312,-0.318598 5.953125,-0.316 4.317055,0.0051 8.174312,0.593588 11.658155,1.778519 10.516796,3.576992 18.817976,11.834121 22.441526,22.32244 1.41454,4.094379 1.77864,6.42852 2.01325,12.906527 0.24433,6.746563 0.51836,7.876858 2.70078,11.139847 1.43599,2.146983 3.2052,3.676867 5.97131,5.163563 2.6718,1.43601 3.49666,2.949432 2.5769,4.728043 -1.04158,2.014207 -2.78212,2.109214 -6.26937,0.342207 z m 2.06854,-14.911887 c -1.24102,-0.976182 -1.32912,-1.405154 -1.51736,-7.387814 -0.19902,-6.325375 -0.6128,-8.868169 -2.2343,-13.73043 -2.48579,-7.45391 -6.79249,-13.679143 -13.10836,-18.94782 -8.998367,-7.506408 -21.912335,-10.825019 -33.953279,-8.725254 -5.156959,0.899301 -11.316276,3.39104 -15.917877,6.439546 -4.904817,3.249384 -10.27457,9.186822 -13.196136,14.591214 -1.586351,2.934478 -2.404226,3.704376 -3.933766,3.703005 -2.244085,-0.0021 -3.581662,-1.64909 -3.094247,-3.810225 0.268629,-1.191061 2.025539,-4.404428 4.06431,-7.433577 2.05161,-3.048222 8.144438,-9.155159 11.5518,-11.578552 2.992281,-2.128176 9.481682,-5.413248 12.898694,-6.529588 6.232694,-2.036231 13.491272,-2.810277 19.853919,-2.117201 12.265969,1.336119 22.110462,6.206619 30.694922,15.186117 6.83174,7.146128 11.32189,17.123708 12.47322,27.716817 0.3593,3.305868 0.35751,9.838253 -0.003,11.13669 -0.51237,1.845125 -3.06803,2.675192 -4.57848,1.487072 z m 60.17958,-47.229652 c 0.0127,-0.308226 0.0754,-0.370919 0.15985,-0.159853 0.0764,0.190995 0.067,0.419201 -0.0209,0.507119 -0.0879,0.08792 -0.15045,-0.06835 -0.13897,-0.347266 z m 0.0512,-2.756077 c 0,-0.654843 0.0516,-0.922734 0.11466,-0.595312 0.0631,0.327422 0.0631,0.863203 0,1.190625 -0.0631,0.327422 -0.11466,0.05953 -0.11466,-0.595313 z m 0,-4.233333 c 0,-0.654844 0.0516,-0.922734 0.11466,-0.595312 0.0631,0.327421 0.0631,0.863203 0,1.190625 -0.0631,0.327421 -0.11466,0.05953 -0.11466,-0.595313 z m -0.0107,-2.116666 c 0,-0.509323 0.0545,-0.717683 0.121,-0.463021 0.0666,0.254661 0.0666,0.67138 0,0.926041 -0.0666,0.254662 -0.121,0.0463 -0.121,-0.46302 z"
         id="path198" /><path
         style="fill:#697278;stroke-width:0.264583"
         d="M 80.055244,195.10342 C 77.630652,194.65318 73.647554,192.37848 62.079413,184.83763 38.926412,169.74503 21.150625,156.38968 9.9916092,145.70287 -8.854838,127.65394 -19.643855,105.73972 -21.413187,81.914716 c -0.157322,-2.11845 -0.263652,-17.137183 -0.261308,-36.909373 0.0043,-36.4788908 -0.04465,-35.2739758 1.563187,-38.4590827 1.715482,-3.3983505 2.389502,-3.8486978 22.6409506,-15.1275116 3.2014581,-1.7830137 7.5472394,-4.2219957 9.6572914,-5.4199547 3.744661,-2.125991 16.094114,-9.029554 28.045832,-15.678115 3.274218,-1.8214 8.989218,-5.006652 12.699999,-7.078342 8.351993,-4.662827 18.637196,-10.231337 22.198416,-12.018442 4.434724,-2.225447 7.416408,-2.582366 10.742207,-1.285882 1.844212,0.718922 8.193937,4.131941 23.283332,12.514946 7.13052,3.961404 17.3699,9.647373 22.75417,12.635488 10.9759,6.091306 29.94897,16.6693202 36.77708,20.5042411 11.68984,6.5654579 13.40156,7.7880445 14.93688,10.6685975 1.75695,3.2963774 1.65265,1.0713163 1.74184,37.1565574 0.0446,18.044583 -0.0265,34.594269 -0.15806,36.777082 -1.53712,25.508315 -12.01063,47.213175 -31.68876,65.670465 -13.60109,12.75726 -27.95424,23.42771 -53.520696,39.78845 -12.039057,7.70415 -14.522354,9.12288 -16.419024,9.38028 -0.630489,0.0856 -1.38447,0.19133 -1.675511,0.23502 -0.291042,0.0437 -1.12327,-0.0309 -1.849395,-0.16572 z m 8.086012,-16.56655 c 21.911304,-14.12509 38.864354,-26.14051 49.193584,-34.86578 5.89071,-4.97598 14.47618,-13.57104 17.68349,-17.70325 3.13095,-4.03381 6.42139,-9.00878 8.3123,-12.56771 4.89467,-9.21239 8.24752,-20.760039 9.18019,-31.617705 0.37666,-4.384868 0.37467,-67.110702 -0.002,-68.467687 -0.15257,-0.549418 -0.65792,-1.369973 -1.123,-1.823458 -0.46513,-0.453482 -7.63221,-4.5937986 -15.9269,-9.2007022 -32.8035,-18.2191968 -46.27822,-25.7373508 -51.68075,-28.8350068 -11.216826,-6.43141 -21.32838,-11.926266 -21.946545,-11.926266 -0.889254,0 -2.670373,0.939868 -15.537282,8.198771 -6.257396,3.530126 -14.889427,8.383915 -19.182291,10.786202 -4.292864,2.402284 -9.233958,5.169312 -10.980208,6.148951 C 30.864921,-10.382114 19.413016,-4.0019332 5.5723507,3.6887234 -4.5197329,9.2964558 -7.706631,11.188835 -8.3182736,11.936968 l -0.7937499,0.970881 V 46.94826 c 0,33.886231 0.0027,34.060049 0.5977202,38.375054 1.3031786,9.450612 4.1269362,18.564146 8.28948269,26.753896 8.09745081,15.93163 21.03785561,28.9577 46.61332361,46.92192 7.34995,5.16261 30.826709,20.78326 33.928636,22.57498 0.582083,0.33622 1.304967,0.61274 1.606409,0.6145 0.301443,0.002 3.099411,-1.64153 6.217708,-3.65174 z M 75.812677,160.55958 C 50.741208,144.40853 35.490279,132.8193 25.578445,122.38642 15.005667,111.25785 8.8490988,98.344809 7.4361709,84.334079 7.2618952,82.605937 7.1598507,70.53149 7.1598507,51.6381 V 21.682135 l 3.6380203,-2.07878 c 2.000912,-1.143331 5.900208,-3.349975 8.665104,-4.90365 2.764896,-1.553678 7.705989,-4.342987 10.980208,-6.198465 8.058676,-4.5668007 17.679756,-9.9917166 21.695832,-12.2333538 1.81901,-1.0153093 6.879166,-3.8485734 11.244791,-6.2961442 4.365625,-2.44757 9.902031,-5.549185 12.303125,-6.89248 2.401093,-1.343297 4.732771,-2.654485 5.181504,-2.91375 l 0.815882,-0.471397 8.047659,4.513376 c 4.426215,2.482355 11.560004,6.4704852 15.852874,8.8625063 4.29286,2.3920237 15.66333,8.7561204 25.2677,14.1424388 9.60438,5.3863189 19.12938,10.7169339 21.16667,11.8458159 2.03729,1.128879 3.91965,2.244706 4.18302,2.479614 0.45797,0.40848 0.47451,1.766057 0.37936,31.129582 -0.0965,29.775959 -0.11646,30.807521 -0.66148,34.183403 -3.1715,19.644159 -11.96449,32.756129 -33.26965,49.611139 -4.05587,3.20869 -6.74004,5.1782 -14.41979,10.58046 -8.304552,5.84177 -24.879525,16.87303 -25.996582,17.30169 -0.188402,0.0723 -3.078041,-1.63076 -6.421421,-3.78456 z M 88.89066,144.23554 c 17.19923,-11.27083 29.54297,-20.57513 37.5663,-28.31622 9.84034,-9.49417 15.63991,-20.608121 16.94522,-32.472823 0.18079,-1.643266 0.28266,-11.7696 0.28266,-28.096549 V 29.822655 l -3.37343,-1.90238 c -3.6596,-2.063758 -8.29974,-4.684594 -11.44323,-6.46335 -1.09141,-0.617577 -4.72281,-2.644833 -8.06979,-4.505013 C 113.73925,13.028591 107.32513,9.4419396 101.83964,6.350548 93.758186,1.7961748 82.045408,-4.6040296 81.792074,-4.6040296 c -0.145092,0 -2.738966,1.3840645 -5.764162,3.0756991 -3.025195,1.69163199 -7.464887,4.1722329 -9.865981,5.5124427 -2.401094,1.3402124 -6.925468,3.874238 -10.054166,5.6311718 -8.557421,4.805457 -32.14346,18.001498 -34.329686,19.206955 l -1.918229,1.057688 v 25.045399 c 0,15.775865 0.104561,26.115101 0.282517,27.935625 0.896898,9.175554 4.097753,17.324289 9.74128,24.799349 5.573975,7.38293 14.427094,15.26862 28.737659,25.59735 5.564791,4.01642 22.659715,15.33206 23.162659,15.33206 0.254241,0 3.452254,-1.95937 7.106695,-4.35417 z"
         id="path196" /></g></g></svg>
