<?xml version="1.0" encoding="UTF-8" standalone="no"?>
<svg
   id="Layer_1"
   data-name="Layer 1"
   viewBox="0 0 613 209"
   version="1.1"
   sodipodi:docname="peerpay.svg"
   inkscape:version="1.2.2 (b0a8486541, 2022-12-01)"
   xmlns:inkscape="http://www.inkscape.org/namespaces/inkscape"
   xmlns:sodipodi="http://sodipodi.sourceforge.net/DTD/sodipodi-0.dtd"
   xmlns="http://www.w3.org/2000/svg"
   xmlns:svg="http://www.w3.org/2000/svg">
  <sodipodi:namedview
     id="namedview33"
     pagecolor="#ffffff"
     bordercolor="#000000"
     borderopacity="0.25"
     inkscape:showpageshadow="2"
     inkscape:pageopacity="0.0"
     inkscape:pagecheckerboard="0"
     inkscape:deskcolor="#d1d1d1"
     showgrid="false"
     inkscape:zoom="2.2561175"
     inkscape:cx="306.72161"
     inkscape:cy="104.8261"
     inkscape:window-width="1920"
     inkscape:window-height="1020"
     inkscape:window-x="0"
     inkscape:window-y="32"
     inkscape:window-maximized="1"
     inkscape:current-layer="Layer_1" />
  <defs
     id="defs4">
    <style
       id="style2">
      .cls-1 {
        fill: #fefefe;
      }

      .cls-2 {
        fill: #64fea1;
      }

      .cls-3 {
        fill: #f3f3f3;
      }
    </style>
  </defs>
  <path
     class="cls-2"
     d="M405,.43c12.57,1.35,30.82,10.04,41.31,17.15,2.86,1.94,18.36,13.92,19.22,15.81,1.4,3.07-4.44,8.9-7.51,7.49-23.87-23.66-56-38.2-89.28-25.24-3.21,1.25-20.08,9.7-20.38,12.2-.22,1.79,3.16,9.82,2.65,10.51l-27.01,6v-27.94c1.69.28,9.62-.39,10.01,0,.59.59-.84,7.52.49,8.98,8.63-7.93,19.24-15.45,30.24-19.72,4.65-1.8,13.54-4.72,18.26-5.23,5.29-.57,16.71-.57,22,0Z"
     id="path8" />
  <path
     class="cls-3"
     d="M558,77.27v47.4c0,.36,1.74,5.17,2.13,5.86,3.53,6.15,14.65,6.58,18.72.98.95-1.3,3.15-7.57,3.15-8.83v-45.41h20.5c.11,0,1.5,1.39,1.5,1.5v67.86c0,10.98-8.7,26.21-18.68,31.26-8.45,4.27-34.31,7-41.36.68-1.96-1.76,3.06-12.2,4-15.05,5.05-.13,10.01,2.67,15.54,2.66,13.46-.02,19.39-9.51,18.49-22.04-13.44,12.87-37.93,10.19-43.49-8.98-.79-2.72-2.5-10.09-2.5-12.48v-43.91c0-.11,1.39-1.5,1.5-1.5h20.5Z"
     id="path10" />
  <path
     class="cls-3"
     d="M392,106.21c10.52.48,24.87-7.58,26.76-18.7,5.41-31.8-30.21-33.71-47.74-16.23-.3-3.98-9.02-11.66-9.03-14.49-.01-4.31,14.35-11.5,18.23-12.74,27.27-8.7,62.9,3.66,61.83,36.73-.9,27.72-25.37,39.91-50,42.43-.95.98.71,23.27-.08,27.37-.21,1.09-1.73,3.52-2.47,3.52h-18c-.11,0-1.5-1.39-1.5-1.5v-76.34c7.13,1.69,15.63,1.51,22,4.49v25.45Z"
     id="path12" />
  <path
     class="cls-3"
     d="M89,123.17v29.44c0,.11-1.39,1.5-1.5,1.5h-19c-.11,0-1.5-1.39-1.5-1.5v-76.34c7.13,1.69,15.63,1.51,22,4.49v25.45c11.03.43,25.18-7.85,26.94-19.53,4.61-30.6-29.52-32.28-47.33-16.44-2.62-3.4-11.21-11.7-8.67-15.47,5.17-7.69,22.56-13.14,31.53-13.47,29.41-1.08,52.99,16.71,46.07,47.98-5,22.59-27.5,31.72-48.53,33.9Z"
     id="path14" />
  <path
     class="cls-3"
     d="M526,153.11c-11.32,3.02-24.04,4.72-29.5-7.98-7.27,13.12-30.01,12.97-39.49,2.49-12.25-13.56-12.23-51.04.6-64.25,9.91-10.21,27.87-9.3,38.29-.5,1.72,1.46,2.26,4.76,5.1,4.39.1-1.51,2.71-9.56,3.14-9.85.97-.63,12.57-.43,13.43.8,2.48,3.55-1.01,49.4.47,57.42.79,4.16,4.79,4.25,7.97,2.52v14.97ZM480.77,91.43c-13.71,1.99-12.82,33-8.33,41.78,4.91,9.59,18.5,8.12,22.05-2.07,3.7-10.61,4.18-42.32-13.73-39.72Z"
     id="path16" />
  <path
     class="cls-3"
     d="M167,121.18c-.45,22.38,21.87,24.8,34.53,10h1.45c-.13,3.38,9.34,8.92,8.94,11.32-18.79,20.37-56.74,16.6-64.85-11.91-5.58-19.62-.72-45.84,21.14-52.6,20.89-6.46,40.3,3.24,44.52,24.99.47,2.43,2.66,18.2-.24,18.2h-45.5ZM194,108.21c.14-7.78-1.43-16.19-10.45-17.01-12.92-1.17-15.59,5.41-16.55,17.01h27Z"
     id="path18" />
  <path
     class="cls-3"
     d="M292,121.18h-46c-.97,22.87,20.53,23.7,34.5,10.94,6.87,5.81,13.95,7.89,4.41,15.42-22.05,17.41-57.7,5.55-60.79-23.99-2.89-27.64,9.83-50.38,40.36-47.27,12.79,1.3,27.51,15.38,27.51,28.43v16.47ZM273,108.21c1.16-23.32-28.61-23.22-27,0h27Z"
     id="path20" />
  <path
     class="cls-3"
     d="M323,77.27c.64,1.7,1.65,10.55,2.01,10.98,1.68,2.01,2.87-4.06,3.53-4.95,4.78-6.44,11.89-8.25,19.71-6.78,9.32,1.75,2.05,10.85,3.74,17.71-6.97-2.23-17.18-3.48-21.19,4.3-.64,1.23-2.8,8.24-2.8,9.18v46.41h-20.5c-.11,0-1.5-1.39-1.5-1.5v-73.85c0-.11,1.39-1.5,1.5-1.5h15.5Z"
     id="path22" />
  <path
     class="cls-2"
     d="M16.88,129.29c.71.44,6.14,12.34,7.7,14.77,16.45,25.55,39.82,43.3,71.91,40.98,6.82-.49,13.74-3.19,20.51-3.99.46-1.7-1.98-.45-2.05-1.54-.12-1.84,2.17-6.58,1.05-9.43l28.01,3.01c.97.93-8.33,24.16-9.11,25.33-.63.94-.85,1.61-2.2,1.48-.41-.04-7.36-2.62-7.6-2.95-1.41-1.97,2.93-7.53,1.9-8.89-50.91,22.29-100.42-7.02-120.02-55.34,2.13-1.07,7.88-4.69,9.91-3.41Z"
     id="path24" />
</svg>
