<?xml version="1.0" encoding="UTF-8" standalone="no"?>
<!-- Created with Inkscape (http://www.inkscape.org/) -->

<svg
   width="70.819611mm"
   height="71.09211mm"
   viewBox="0 0 70.819611 71.09211"
   version="1.1"
   id="svg5"
   xml:space="preserve"
   xmlns="http://www.w3.org/2000/svg"
   xmlns:svg="http://www.w3.org/2000/svg"><defs
     id="defs2" /><g
     id="layer1"
     transform="translate(-53.048216,-69.358945)"><g
       id="g1678"
       transform="translate(-4.6765431,1.330363)"><path
         style="display:inline;fill:#12a797;fill-opacity:1;stroke:#fdfdfd;stroke-width:0.137425"
         d="m 84.645271,134.14845 c -7.43716,-2.34776 -13.920338,-7.48194 -18.083224,-14.3205 l -0.559052,-0.91839 3.244369,-3.34409 c 1.784408,-1.83926 3.824394,-4.00444 4.533308,-4.81152 l 1.288934,-1.46742 0.971975,0.99065 c 1.275153,1.29967 3.068498,2.26034 4.56362,2.44467 2.750011,0.33905 25.493169,0.26033 27.012889,-0.0935 0.36825,-0.0857 0.21079,0.0786 -6.82428,7.12095 -4.556712,4.56146 -10.041929,10.15071 -12.758757,13.00074 -0.997088,1.04597 -1.818028,1.8989 -1.824312,1.89537 -0.0063,-0.003 -0.710746,-0.22715 -1.56547,-0.49697 z"
         id="path2622" /><path
         style="display:inline;fill:#12a797;fill-opacity:1;stroke:#fdfdfd;stroke-width:0.17229"
         d="m 112.77675,113.48456 c 0.21976,-0.9002 0.20146,-3.72936 -0.031,-4.78884 -0.29523,-1.34597 -1.40048,-3.45397 -2.42153,-4.61846 -1.01314,-1.15546 -2.66786,-2.35336 -4.13032,-2.99006 -1.50772,-0.65641 -3.41023,-0.75208 -15.072398,-0.75792 l -10.777264,-0.005 8.922161,-8.348385 c 4.907188,-4.591617 10.983341,-10.29067 13.502551,-12.664564 l 4.58041,-4.316171 1.03956,0.612201 c 2.24019,1.31923 4.92364,3.387765 7.21505,5.561718 5.46773,5.187448 9.25809,11.458637 11.27599,18.656151 l 0.35327,1.26009 -0.91825,0.82267 c -0.50503,0.45245 -3.72305,3.36328 -7.15116,6.46847 -3.42809,3.10517 -6.30268,5.66863 -6.38798,5.69653 -0.0887,0.029 -0.0883,-0.22231 7e-4,-0.58804 z M 110.82099,102.527 c 0,-0.19218 -3.19224,-3.038204 -3.40779,-3.038204 -0.18777,0 2.05283,2.407344 2.67097,2.869724 0.4677,0.34986 0.73682,0.41139 0.73682,0.16848 z m -3.71019,-2.898966 c 0,-0.376669 -0.58815,-0.811286 -1.09787,-0.811286 -0.60875,0 -0.51808,0.223456 0.27792,0.685034 0.64247,0.372544 0.81995,0.399869 0.81995,0.126252 z m -3.18019,-1.473418 c 0,-0.27382 -0.34323,-0.37475 -0.88769,-0.261034 -0.75875,0.15848 -0.64619,0.41913 0.181,0.41913 0.38868,0 0.70669,-0.07114 0.70669,-0.158096 z"
         id="path2624" /><path
         style="display:inline;fill:#11978a;stroke-width:0.378576"
         d="m 87.043031,135.17136 c -0.636787,-0.0942 -1.380304,-0.24435 -1.652263,-0.33373 -0.280871,-0.0923 4.678888,-5.13671 11.481476,-11.67745 6.586766,-6.3332 11.975946,-11.61031 11.975946,-11.72689 0,-0.1166 -0.20051,-0.0928 -0.44557,0.053 -0.2698,0.16046 -0.34104,0.1023 -0.1806,-0.14755 0.14571,-0.22688 0.527,-0.31575 0.84728,-0.19748 0.366,0.13514 0.5406,0.0257 0.47004,-0.29475 -0.0617,-0.28035 0.10487,-0.46797 0.37016,-0.41691 0.26532,0.0511 0.43898,-0.11605 0.38593,-0.37135 -0.0531,-0.25532 0.12059,-0.42243 0.38594,-0.37137 0.26532,0.0511 0.43899,-0.11605 0.38592,-0.37135 -0.0532,-0.25533 0.14191,-0.41558 0.43328,-0.35618 0.33298,0.0679 0.44676,-0.10023 0.30631,-0.4523 -0.12291,-0.30818 -0.0306,-0.67506 0.20524,-0.81529 0.2596,-0.15438 0.32008,-0.0859 0.15335,0.17379 -0.77616,1.20842 0.75485,-0.13312 6.73159,-5.89848 5.38252,-5.192171 6.60993,-6.208088 6.84213,-5.663209 0.56032,1.314836 0.26979,10.580799 -0.41472,13.226649 -3.16222,12.22291 -12.78092,21.6617 -25.27612,24.80335 -2.906909,0.73088 -10.444189,1.21628 -13.005319,0.83754 z m -14.501657,-25.29883 -0.93562,-1.02124 1.061313,0.90029 c 0.991957,0.84147 1.238297,1.14219 0.935617,1.14219 -0.06913,0 -0.54672,-0.45955 -1.06131,-1.02124 z m 37.633286,-12.811868 -1.13352,-1.206915 1.25429,1.090712 c 1.16917,1.016699 1.43167,1.323113 1.13352,1.323113 -0.0665,0 -0.63085,-0.543107 -1.25429,-1.20691 z m -37.797043,0.09283 c 0.384189,-0.408493 0.785362,-0.742716 0.891494,-0.742716 0.106131,0 -0.121372,0.334223 -0.505562,0.742716 -0.384189,0.408495 -0.785361,0.742718 -0.891492,0.742718 -0.106133,0 0.121371,-0.334223 0.50556,-0.742718 z m 35.698713,-1.485434 c -0.34785,-0.216301 -0.39544,-0.362258 -0.11928,-0.365674 0.25282,-0.0029 0.56699,0.161426 0.69817,0.365674 0.29613,0.461052 0.16252,0.461052 -0.57889,0 z m -2.38796,-0.996396 c 0.27857,-0.107275 0.61146,-0.09409 0.7397,0.02929 0.12823,0.123399 -0.0997,0.211171 -0.50653,0.195045 -0.44959,-0.01782 -0.54103,-0.105809 -0.23317,-0.224359 z"
         id="path1684" /><path
         style="fill:#442923;fill-opacity:1;stroke:#fdfdfd;stroke-width:0.104513"
         d="m 81.234522,103.59236 c -1.140065,-0.10121 -1.733312,-0.3716 -2.223119,-1.01307 -0.519716,-0.68066 -0.634968,-1.18735 -0.406277,-1.78616 0.247403,-0.64782 0.895615,-1.323537 1.489512,-1.552722 0.423614,-0.163471 0.833808,-0.188391 3.10102,-0.188391 1.956569,0 2.715622,0.03629 3.022087,0.144466 0.577958,0.204018 1.251595,0.864887 1.521768,1.492927 0.201365,0.46807 0.215156,0.58901 0.10997,0.96434 -0.18044,0.64385 -0.749704,1.3601 -1.288138,1.62075 -0.769072,0.37231 -3.12848,0.51309 -5.326823,0.31786 z"
         id="path2042" /><path
         style="display:inline;fill:#2ec9b5;fill-opacity:1;stroke:#fdfdfd;stroke-width:0.193509"
         d="M 64.719249,118.08201 C 58.626448,106.08523 61.216296,90.925573 71.0155,81.226979 c 3.974648,-3.93384 9.536407,-7.094072 14.922685,-8.479176 3.416055,-0.878451 9.030125,-1.075464 13.685371,-0.48025 0.855844,0.109429 2.518914,0.503452 3.695704,0.875611 2.14203,0.677418 6.38436,2.532404 6.27277,2.742806 -0.0327,0.0615 -4.82723,4.801954 -10.654698,10.534351 l -10.595397,10.422537 -4.084724,0.109975 c -4.43812,0.11949 -4.996005,0.214341 -6.383697,1.085355 -0.508179,0.318967 -1.038654,0.579943 -1.17883,0.579943 -0.325597,0 -0.727441,0.451536 -1.370605,1.540099 -1.304761,2.20834 -1.797847,4.186 -1.559985,6.25669 0.125106,1.0891 0.726725,3.03297 1.074709,3.47245 0.09636,0.12169 -1.70418,2.04729 -4.608988,4.92911 l -4.76712,4.72938 z"
         id="path1970" /><path
         style="display:inline;fill:#16b8a6;stroke-width:0.353647"
         d="m 71.258124,126.04886 c -2.591254,-2.54432 -5.711334,-6.51896 -5.711334,-7.2756 0,-0.10078 2.039069,-2.20968 4.531265,-4.68645 l 4.531263,-4.50323 0.978714,1.11234 c 1.953881,2.22066 3.421409,2.59074 10.478843,2.64254 3.71606,0.0272 5.800522,0.15295 5.068228,0.30557 -0.684132,0.1426 -1.032545,0.28012 -0.77425,0.3056 0.718563,0.0709 -0.438168,1.10072 -1.243875,1.10744 -0.547963,0.005 -0.565499,0.0578 -0.114235,0.34652 0.473857,0.30323 0.473857,0.34233 0,0.35191 -0.473856,0.0101 -0.473856,0.0487 0,0.35191 0.402714,0.25771 0.228877,0.34924 -0.710786,0.3743 -0.684132,0.0182 -1.045397,0.11258 -0.802809,0.20962 0.612223,0.24492 -0.343594,1.17375 -1.215317,1.18102 -0.547962,0.005 -0.565497,0.0578 -0.114234,0.34652 0.473857,0.30322 0.473857,0.34233 0,0.3519 -0.473855,0.0101 -0.473855,0.0487 0,0.35192 0.402714,0.2577 0.228878,0.34924 -0.710786,0.37429 -0.684133,0.0183 -1.045397,0.11258 -0.802809,0.20962 0.612223,0.24493 -0.343594,1.17376 -1.215317,1.18102 -0.547962,0.005 -0.565497,0.0578 -0.114233,0.34652 0.473856,0.30324 0.473856,0.34233 0,0.35192 -0.473856,0.01 -0.473856,0.0487 0,0.3519 0.402713,0.2577 0.228877,0.34925 -0.710787,0.37431 -0.684132,0.0182 -1.045396,0.11256 -0.802809,0.20961 0.612222,0.24493 -0.343593,1.17376 -1.215316,1.18102 -0.547962,0.005 -0.565498,0.0578 -0.114234,0.34652 0.473856,0.30323 0.473856,0.34233 0,0.35191 -0.473856,0.0101 -0.473856,0.0487 0,0.35191 0.402714,0.25771 0.228877,0.34924 -0.710787,0.3743 -0.684132,0.0182 -1.045396,0.11258 -0.802808,0.20962 0.612222,0.24493 -0.343594,1.17376 -1.215317,1.18102 -0.547962,0.005 -0.565498,0.0578 -0.114233,0.34651 0.473855,0.30323 0.473855,0.34234 0,0.35192 -0.473857,0.0101 -0.473857,0.0487 0,0.35191 0.402713,0.2577 0.228876,0.34924 -0.710787,0.37429 -0.684133,0.0183 -1.045396,0.11258 -0.802809,0.20963 0.587373,0.23499 -0.328941,1.17562 -1.145215,1.17562 -0.31747,0 -1.988422,-1.38564 -3.713226,-3.0792 z M 97.622262,96.488686 87.939026,96.389158 98.248682,86.189432 c 5.670308,-5.60985 10.395278,-10.199726 10.499938,-10.199726 0.54301,0 4.17823,2.603882 6.11857,4.382679 3.18916,2.923668 4.59144,4.747938 3.95588,5.146345 -0.39095,0.245065 -0.39768,0.314848 -0.0307,0.319058 0.75493,0.0086 -0.47134,1.060076 -1.24387,1.066505 -0.54797,0.0045 -0.56551,0.05775 -0.11423,0.346522 0.47385,0.303231 0.47385,0.342331 0,0.35191 -0.47386,0.0095 -0.47386,0.04868 0,0.35191 0.40271,0.257703 0.22887,0.349245 -0.7108,0.3743 -0.68412,0.01827 -1.04539,0.112578 -0.8028,0.209623 0.61222,0.244922 -0.3436,1.173756 -1.21531,1.181012 -0.54797,0.0045 -0.56551,0.05775 -0.11424,0.346522 0.47385,0.303231 0.47385,0.342331 0,0.35191 -0.47385,0.0095 -0.47385,0.04868 0,0.35191 0.40271,0.257703 0.22888,0.349245 -0.71079,0.374301 -0.68413,0.01826 -1.04539,0.112577 -0.80281,0.209622 0.61222,0.244923 -0.34359,1.173756 -1.21532,1.181013 -0.54795,0.0045 -0.56549,0.05775 -0.11423,0.346521 0.47386,0.303231 0.47386,0.342331 0,0.35191 -0.47386,0.0095 -0.47386,0.04868 0,0.35191 0.40272,0.257703 0.22888,0.349245 -0.71078,0.374302 -0.68414,0.01826 -1.04539,0.112576 -0.80281,0.209622 0.61222,0.244922 -0.3436,1.173755 -1.21532,1.181012 -0.54796,0.0045 -0.56549,0.05775 -0.11423,0.346521 0.47385,0.303231 0.47385,0.342331 0,0.35191 -0.47386,0.0095 -0.47386,0.04868 0,0.35191 0.40079,0.256479 0.26851,0.322099 -0.53309,0.264439 -0.5864,-0.04217 -5.42364,-0.121478 -10.749413,-0.176219 z"
         id="path1688" /><path
         style="display:inline;fill:#f07219;stroke-width:0.349598"
         d="m 87.328006,136.57262 c -6.860201,-1.24485 -12.381074,-4.09934 -17.54519,-9.07149 -10.191122,-9.81229 -13.013499,-25.02656 -7.073056,-38.127922 2.971648,-6.553833 9.056566,-12.770525 15.584088,-15.921578 8.738625,-4.218425 18.230005,-4.58628 27.341552,-1.05967 5.8682,2.271281 11.73283,7.067905 15.47833,12.659585 5.86422,8.754725 7.16361,19.958985 3.49159,30.107095 -3.17805,8.78297 -11.03669,16.64398 -19.81402,19.81999 -5.560937,2.01218 -11.946632,2.59504 -17.463294,1.59399 z m 13.584294,-2.58729 c 11.31883,-2.95757 20.03195,-11.84326 22.89647,-23.34994 0.81546,-3.27572 0.81546,-10.938176 0,-14.21389 -2.91459,-11.707821 -11.84225,-20.635476 -23.55007,-23.550063 -3.275713,-0.815468 -10.938171,-0.815468 -14.213886,0 -13.813985,3.438903 -23.436655,14.984726 -24.239413,29.083813 -0.885652,15.55499 10.178507,29.57177 25.659738,32.50738 3.603694,0.68335 9.854343,0.46149 13.447161,-0.4773 z"
         id="path1690" /><path
         style="display:inline;fill:#442923;fill-opacity:1;stroke-width:0.349598"
         d="m 89.031317,138.82508 c -1.400989,-0.14707 -2.97418,-0.38126 -3.495979,-0.52041 -0.521799,-0.13916 -1.263366,-0.30487 -1.647924,-0.36824 -1.030244,-0.16979 -3.798119,-1.19877 -4.150377,-1.54294 -0.16764,-0.16379 -0.521607,-0.21461 -0.786596,-0.11292 -0.264984,0.10169 -0.481794,10e-4 -0.481794,-0.22275 0,-0.2242 -0.144636,-0.31824 -0.321414,-0.20899 -0.176777,0.10925 -0.534489,7e-4 -0.794919,-0.24157 -0.260429,-0.24211 -0.683264,-0.48515 -0.939636,-0.54009 -0.256372,-0.0549 -0.69649,-0.33025 -0.978042,-0.6118 -0.281551,-0.28155 -0.736652,-0.51191 -1.011337,-0.51191 -0.274684,0 -0.499425,-0.13207 -0.499425,-0.29348 0,-0.16142 -0.381035,-0.46709 -0.846744,-0.67929 -1.243785,-0.5667 -2.193724,-1.36613 -4.920361,-4.14075 -3.213899,-3.27045 -3.947346,-4.12967 -4.430698,-5.19052 -0.221301,-0.4857 -0.543717,-0.88309 -0.71648,-0.88309 -0.172762,0 -0.22519,-0.14389 -0.116504,-0.31974 0.108685,-0.17586 0.05844,-0.3725 -0.111649,-0.437 -0.356925,-0.13533 -3.295643,-5.88562 -3.00788,-5.88562 0.10505,0 0.01715,-0.32485 -0.19534,-0.72189 -0.212487,-0.39703 -0.454001,-1.02631 -0.536697,-1.39839 -0.0827,-0.37208 -0.229016,-0.99114 -0.325155,-1.3757 -0.858375,-3.4335 -0.918738,-3.97881 -0.986828,-8.91475 -0.03571,-2.58895 0.132088,-5.522679 0.389924,-6.817156 0.75688,-3.799947 2.684751,-8.940907 4.484535,-11.958696 1.88947,-3.168169 7.226918,-8.86245 10.054942,-10.727161 7.145671,-4.711633 15.598186,-6.817664 24.076197,-5.998832 8.691674,0.839469 15.453374,4.008543 21.629454,10.137304 5.65078,5.607481 9.30031,12.936615 10.01902,20.120575 0.24788,2.477716 0.19993,8.913336 -0.0807,10.837536 -0.14133,0.96894 -0.2268,1.36555 -0.71571,3.32118 -0.0961,0.38456 -0.24246,1.00362 -0.32515,1.3757 -0.0827,0.37208 -0.32421,1.00136 -0.5367,1.39839 -0.21249,0.39704 -0.30039,0.72189 -0.19534,0.72189 0.27284,0 -2.63367,5.72488 -3.03717,5.98225 -0.18443,0.11764 -0.30574,0.32833 -0.26957,0.46821 0.0362,0.13988 -0.25228,0.62011 -0.641,1.06718 -0.38872,0.44706 -0.63881,0.8808 -0.55576,0.96385 0.342,0.342 -7.01392,7.34723 -9.16581,8.72885 -1.27908,0.82123 -2.42186,1.50437 -2.5395,1.51809 -0.4899,0.0571 -2.33084,1.0365 -2.56833,1.36633 -0.14126,0.19619 -0.25925,0.21946 -0.2622,0.0517 -0.003,-0.16775 -0.202,-0.14739 -0.44235,0.0453 -0.83768,0.6714 -6.7542,2.13703 -10.124557,2.50804 -3.697389,0.40701 -4.117753,0.40761 -7.892396,0.0114 z m 9.817285,-2.25694 c 4.077898,-0.71112 8.318408,-2.30595 11.824188,-4.44701 3.86822,-2.36239 8.70926,-7.20343 11.07166,-11.07165 6.7779,-11.09822 6.52891,-25.309287 -0.63072,-35.997935 C 111.63759,70.904573 93.659248,66.034238 78.293848,73.45163 c -6.527522,3.151053 -12.61244,9.367745 -15.584088,15.921578 -3.871691,8.538827 -4.106555,17.822892 -0.675165,26.688972 2.188812,5.65549 7.191978,11.80415 12.540509,15.41173 6.94039,4.68128 15.881342,6.5577 24.273498,5.09423 z M 79.867038,102.82925 c -0.384558,-0.38456 -0.699196,-1.01384 -0.699196,-1.39839 0,-0.38456 0.314638,-1.01384 0.699196,-1.3984 0.582664,-0.582659 1.165325,-0.699191 3.495979,-0.699191 2.330654,0 2.913315,0.116532 3.495979,0.699191 0.384558,0.38456 0.699196,1.01384 0.699196,1.3984 0,0.38455 -0.314638,1.01383 -0.699196,1.39839 -0.582664,0.58266 -1.165325,0.69919 -3.495979,0.69919 -2.330654,0 -2.913315,-0.11653 -3.495979,-0.69919 z"
         id="path1682" /><path
         style="display:inline;fill:#101728;stroke-width:0.357457"
         d="m 79.67534,113.17059 c -3.928756,-1.19508 -6.229079,-4.23984 -6.229079,-8.24495 0,-3.4113 1.551305,-5.971275 4.62284,-7.628688 1.394163,-0.752298 1.773067,-0.77154 15.191883,-0.77154 13.524406,0 13.787646,0.01369 15.242836,0.791948 3.80521,2.035083 5.54955,6.1539 4.34,10.24772 -0.58012,1.96344 -3.54134,4.92467 -5.50479,5.50478 -1.65665,0.48949 -26.093191,0.57846 -27.66369,0.10069 z m 7.151434,-10.3897 c 0.393202,-0.3932 0.714913,-1.03663 0.714913,-1.42982 0,-0.39321 -0.321711,-1.03662 -0.714913,-1.429831 -0.59576,-0.595755 -1.191519,-0.714906 -3.57456,-0.714906 -2.383043,0 -2.978801,0.119151 -3.574561,0.714906 -0.393202,0.393211 -0.714912,1.036621 -0.714912,1.429831 0,0.39319 0.32171,1.03662 0.714912,1.42982 0.59576,0.59576 1.191518,0.71491 3.574561,0.71491 2.383041,0 2.9788,-0.11915 3.57456,-0.71491 z"
         id="path1680" /></g></g></svg>
