<?xml version="1.0" encoding="UTF-8" standalone="no"?>
<svg
   id="Layer_1"
   data-name="Layer 1"
   viewBox="0 0 690.98999 526.93408"
   version="1.1"
   width="160"
   height="122.0126"
   xmlns="http://www.w3.org/2000/svg"
   xmlns:svg="http://www.w3.org/2000/svg">
  <defs
     id="defs1">
    <style
       id="style1">
      .cls-1 {
        fill: #017bdd;
      }

      .cls-2 {
        fill: #161e27;
      }

      .cls-3 {
        fill: #fefefe;
      }
    </style>
  </defs>
  <path
     class="cls-2"
     d="m 76.85,399.0441 c -20.21,8.76 -24.68,45.92 -6.36,68.17 7.44,9.04 17.33,14.04 28.78,15.43 15.69,1.89 30.08,-4.98 40.86,-16.26 l 27.01,-28.32 c 10.15,2.92 20.55,3.02 31.8,3.28 77.96,1.78 151.38,-50.57 166.42,-128.63 l 21.52,11.04 -0.35,174.32 c -0.03,14.96 -13.55,28.87 -28.84,28.86 l -331.45,-0.15 c -13.44,0 -26.24,-13.72 -26.24,-26.8 l 0.09,-390.63 c 0,-12.539998 12.65,-24.929998 24.98,-24.949998 l 324.58,-0.45 c 16.64,-0.02 29.57,11.17 30.06,27.999998 l -22.02,10.46 c 2.89,-7.88 -1,-14.97 -7.86,-16.92 -7.22,-2.05 -14.19,2.37 -15.81,10.07 -0.93,6.03 2.75,11.22 8.35,14.45 l -35.06,18.04 c -19.53,-15.09 -40.98,-26.83 -65.03,-33.56 -71.2,-19.919998 -147.98,7.44 -190.45,67.87 -14.47,20.58 -23.84,43.68 -26.95,68.81 -4.95,40.01 1.77,82.72 24.34,116.43 l -19.44,0.13 c -2.88,0.02 -6.01,2.04 -6,5.44 l 0.34,121.37 c 0.02,7.13 7.22,12.09 13.78,12.1 l 147.84,0.06 c 6.72,0 11.65,-5.26 11.64,-11.56 l -0.02,-30.05 c 0,-2.64 -2.11,-4.1 -4.49,-4.08 l -25.97,0.18 c -6.11,0.04 -10.95,5.1 -10.98,11.09 l -0.13,23.83 -108.87,-0.19 c -4.83,0 -8.6,-3.18 -8.61,-8.12 l -0.09,-103.06 22.09,0.45 13.4,12.96 c 1,0.97 2.09,1.03 3.12,0.88 z M 47.2,117.6041 c 0,-7.11 -5.76,-12.87 -12.87,-12.87 -7.11,0 -12.87,5.76 -12.87,12.87 0,7.11 5.76,12.87 12.87,12.87 7.11,0 12.87,-5.76 12.87,-12.87 z m 316.93,369.21 c 0,-8.1 -6.56,-14.66 -14.66,-14.66 -8.1,0 -14.66,6.56 -14.66,14.66 0,8.1 6.56,14.66 14.66,14.66 8.1,0 14.66,-6.56 14.66,-14.66 z"
     id="path2"
     style="fill:#e6e6e6" />
  <path
     class="cls-2"
     d="m 176.98,427.9641 85.19,-88.24 c 3.69,-3.82 4.66,-8.53 1.94,-12.55 -2.72,-4.02 -7.66,-6.71 -12.87,-4.42 l -160.51,70.29 c -37.25,-29.39 -56.74,-76.05 -55.08,-123.92 2.78,-79.98 66.13,-140.43 144.23,-148.55 8.8,-0.91 17.05,-0.71 26.05,-0.26 32.84,1.63 63.36,14.2 89.36,33.86 -6.01,3.32 -13.72,6.17 -13.69,15.01 l 0.32,94.83 c 0.01,3.18 4.74,5.7 7.13,7.01 l 64.35,35.48 c -3,15.53 -7.2,30.63 -14.9,44.5 -26,46.81 -73.71,75.25 -126.9,78.67 -11.99,0.77 -23.23,0.48 -34.63,-1.68 z m 75.74,-152.55 c 0,-30.25 -24.52,-54.77 -54.77,-54.77 -30.25,0 -54.77,24.52 -54.77,54.77 0,30.25 24.52,54.77 54.77,54.77 30.25,0 54.77,-24.52 54.77,-54.77 z"
     id="path3"
     style="fill:#e6e6e6" />
  <path
     class="cls-1"
     d="m 518.43,261.0441 c -1.32,-4.31 -0.07,-7.72 -0.81,-11.88 h -43.54 c 0,0 -0.45,11.09 -0.45,11.09 l -78.5,40.53 -0.31,-80.53 69.93,-36.33 c 3.01,-0.7 5.21,-2.08 8.63,-3.5 l 0.62,27.63 h 43.67 c 0,0 0.48,-27.47 0.48,-27.47 l 78.62,39.88 -0.08,80.42 -78.27,-39.84 z m 34.58,-22.28 c 6.51,-0.02 9.46,-7.45 8.94,-12 -0.63,-5.59 -5.21,-9.13 -11.43,-9.13 H 439.15 c -4.11,0.02 -8.97,1.63 -10.29,5.19 -1.55,4.19 -1.68,8.44 0.87,11.67 1.97,2.49 4.99,4.56 9.2,4.55 l 114.07,-0.27 z"
     id="path4"
     style="fill:#000080;fill-opacity:1" />
  <path
     class="cls-1"
     d="m 176.98,427.9641 c -4.41,2.65 -6.98,6.75 -9.84,10.11 l -27.01,28.32 c -10.78,11.28 -25.17,18.15 -40.86,16.26 -11.46,-1.38 -21.34,-6.39 -28.78,-15.43 -18.32,-22.25 -13.85,-59.42 6.36,-68.17 l 13.88,-6.02 160.51,-70.29 c 5.21,-2.28 10.26,0.57 12.87,4.42 2.61,3.85 1.75,8.72 -1.94,12.55 l -85.19,88.24 z m -45.54,9.12 c 0,-15 -12.16,-27.15 -27.15,-27.15 -14.99,0 -27.15,12.16 -27.15,27.15 0,14.99 12.16,27.15 27.15,27.15 14.99,0 27.15,-12.16 27.15,-27.15 z"
     id="path5"
     style="fill:#000080;fill-opacity:1" />
  <path
     class="cls-1"
     d="m 378.51,301.1041 -59.17,-30.4 c -7.29,-3.74 -13.95,-7.38 -21.5,-10.54 l 0.06,-80.56 80.9,41.1 z"
     id="path6"
     style="fill:#000080;fill-opacity:1" />
  <path
     class="cls-1"
     d="m 502.15,77.564102 c -3.97,2.1 -7.42,2.34 -10.7,0 l -69.17,-35.85 c -0.87,-0.45 -2.29,-1.47 -2.28,-2.11 0.01,-0.64 1.41,-1.69 2.26,-2.13 L 491.11,1.5741022 c 2.23,-1.27000003 4.64,-2.26000003 7.15,-0.97000003 l 75.73,38.94999983 -71.84,38.02 z"
     id="path7"
     style="fill:#000080;fill-opacity:1" />
  <polygon
     class="cls-1"
     points="876.14,476.95 798.04,517.41 797.68,437.64 875.66,397.26 "
     id="polygon7"
     transform="translate(-185.15,-216.8959)"
     style="fill:#000080;fill-opacity:1" />
  <path
     class="cls-1"
     d="m 386.13,208.3541 c -11.11,-4.39 -19.94,-10.19 -29.9,-15.51 l -46.31,-24.74 74.3,-38.73 77,39.84 z"
     id="path8"
     style="fill:#000080;fill-opacity:1" />
  <path
     class="cls-1"
     d="m 605.05,208.5341 -75.17,-38.6 c 3.95,-3.96 8.91,-5.72 13.72,-8.22 l 58.5,-30.5 c 1.62,-0.85 3.01,-0.45 4.77,-0.03 l 73.62,37.81 -75.45,39.54 z"
     id="path9"
     style="fill:#000080;fill-opacity:1" />
  <path
     class="cls-1"
     d="m 454.99,125.7641 c 4.97,-2.73 6.28,-8.59 3.91,-13.34 -1.77,-3.55 -6.99,-8.18 -11.57,-5.77 l -32.03,16.83 c -2.76,1.45 -5.21,1.77 -8.29,4.78 l 0.15,-76.959998 53,26.65 27.55,14.26 -0.24,76.729998 -53.84,-27.51 c -0.86,-1.07 -2.54,-1.15 -2.33,-2.66 l 23.68,-13.02 z"
     id="path10"
     style="fill:#000080;fill-opacity:1" />
  <path
     class="cls-1"
     d="m 533.96,109.7741 c -2.74,2.9 -3.72,6.04 -2.87,9.64 0.67,2.8 2.81,5.98 6.46,7.18 l 22.83,13.07 -56.06,29.21 -0.26,-76.469998 80.33,-41.15 -0.12,77.389998 -40.16,-21.82 c -3.74,-1.52 -7.73,-0.69 -10.15,2.96 z"
     id="path11"
     style="fill:#000080;fill-opacity:1" />
  <circle
     class="cls-2"
     cx="176.89999"
     cy="479.93411"
     r="8.1599998"
     id="circle11"
     style="fill:#e6e6e6" />
  <circle
     class="cls-2"
     cx="198.89001"
     cy="275.44409"
     r="21.870001"
     id="circle15"
     style="fill:#e6e6e6" />
  <circle
     class="cls-2"
     cx="104.33999"
     cy="437.02408"
     r="13.67"
     id="circle16"
     style="fill:#e6e6e6" />
</svg>
