<?xml version="1.0" encoding="UTF-8"?>
<svg id="Layer_1" data-name="Layer 1" xmlns="http://www.w3.org/2000/svg" viewBox="0 0 512 512">
  <defs>
    <style>
      .cls-1 {
        fill: #f9fdd9;
      }

      .cls-2 {
        fill: none;
      }

      .cls-3 {
        fill: #c2f8a4;
      }

      .cls-4 {
        fill: #f3fd86;
      }

      .cls-5 {
        fill: #53ef6e;
      }

      .cls-6 {
        fill: #e9fd8a;
      }

      .cls-7 {
        fill: #fbfdf7;
      }
    </style>
  </defs>
  <g>
    <path class="cls-7" d="M403.27,157.01c-31.91.65-64.65-1.35-96.27.99-2.58.19-5.93,2.31-6,5-2.34,86.64-.32,173.93-1.02,261-.06,7.13-5.85,13.8-14.15,13.79l-52.58-.08c-5.77,0-12.81-4.57-12.92-10.74-1.48-88.25,1.3-175.85-1.33-262.97-.08-2.77-4.46-5.8-7-6-31.71-2.46-64.06-2.56-96-1.17-5.03-1.89-9.06-5.85-9.06-11.86l.03-47.16c0-5.11,4.24-10.77,10.29-10.77l284.45.04c8.19,0,10.76,7.47,10.67,13.86l-.66,47.9c-.06,4.08-5.54,6.92-8.44,8.18ZM117,91c-3.09.66-5.68,2.86-6,6-1.66,16.38-1.67,33.61,0,50,.2,2,1.08,3.29,3,5,1.05.93,1.93,2.03,4.09,2.03l90.93-.1c5.66,0,12.34,3.19,13.18,9.07,1.82,12.68.37,24.52.57,37.31,1.2,76.11-1.26,151.71,1.23,227.68,2.19,1.62,1.45,5.02,5,5,.62.56,1.38.79,3,1,15.05,1.98,42.06,1.26,56,0,2.65-.24,7.88-2.83,8-7,2.5-86.85,0-174.09,1.24-261.85.08-5.66,4.95-10.94,10.91-10.96l94.7-.24c1.41,0,1.42-1.04,2.15-1.95,1.8-2.25,3.94-4.39,3.03-7.98s1.13-7.42.66-10.82c-.37-2.71-.13-4.68.04-7.25.59-8.82.25-16.97.14-26.03-.03-2.61-2.29-8.71-5.87-8.92.11-.54-.23-.73-1.27-1H118.27c-1.04.27-1.38.46-1.27,1Z"/>
    <path class="cls-6" d="M404,158c-.02-.46-.28-.86-.73-.99,2.9-1.27,8.38-4.1,8.44-8.18l.66-47.9c.09-6.39-2.48-13.86-10.67-13.86l-284.45-.04c-6.04,0-10.29,5.66-10.29,10.77l-.03,47.16c0,6.01,4.03,9.97,9.06,11.86l-4,.17c-4.95-.36-7.11-7.87-7.11-11.83l-.03-47.12c0-8.34,4.9-13.14,13.33-13.13l285.51.19c4.06,0,9.88,5.32,9.98,8.94.55,18.62.56,36.34,0,54.61-.16,5.3-5.49,9.34-9.68,9.34Z"/>
    <path class="cls-6" d="M299.98,424h1.02c0,5.22-1.82,14.26-9.31,14.55-21.25.82-42.93.78-63.82-.01-6.15-.23-8.35-6.91-8.85-10.55l-.03-55.98-.03-204.67c0-1.51-1.88-3.13.03-3.33,2.63,87.12-.16,174.72,1.33,262.97.1,6.17,7.15,10.73,12.92,10.74l52.58.08c8.31.01,14.1-6.66,14.15-13.79Z"/>
    <path class="cls-3" d="M301,424h-1.02c.7-87.07-1.33-174.36,1.02-261v261Z"/>
    <path class="cls-3" d="M116,156.83c31.94-1.38,64.29-1.29,96,1.17-33.39-.71-66.98,1.39-100-1l4-.17Z"/>
    <path class="cls-3" d="M403.27,157.01c.45.13.71.53.73.99h-97c31.62-2.34,64.36-.34,96.27-.99Z"/>
    <path class="cls-5" d="M219.03,427.98c-2.45-17.85-.15-36.24-1.21-54.88-.04-.67,1.03-1.24,1.19-1.1l.03,55.98Z"/>
    <path class="cls-4" d="M224,428c-2.48-75.97-.03-151.57-1.23-227.68-.2-12.79,1.24-24.63-.57-37.31-.84-5.88-7.52-9.08-13.18-9.07l-90.93.1c-2.16,0-3.04-1.09-4.09-2.03l97.84.15c6.04,0,10.47,4.64,12.16,10.16v265.69Z"/>
    <path class="cls-4" d="M405,152c-.73.91-.73,1.95-2.15,1.95l-94.7.24c-5.96.02-10.83,5.3-10.91,10.96-1.23,87.76,1.26,175-1.24,261.85-.42-.1-1-.51-1-1,.54.11.73-.24,1-1.25v-243.75c0-6.53-.3-12.93.23-20.13.31-4.18,5.26-8.76,9.83-8.77l98.93-.1Z"/>
    <path class="cls-3" d="M403,91H117c-.11-.54.23-.73,1.27-1h283.46c1.04.27,1.38.46,1.27,1Z"/>
    <path class="cls-5" d="M288,434h-56c-1.62-.21-2.38-.44-3-1l59,1Z"/>
    <path class="cls-1" d="M288,434c-13.94,1.26-40.95,1.98-56,0h56Z"/>
    <path class="cls-3" d="M111,147c-1.67-16.39-1.66-33.62,0-50v50Z"/>
    <path class="cls-5" d="M295,426v-243.75c.27-1,.46-1.35,1-1.25v243.75c-.27,1-.46,1.35-1,1.25Z"/>
  </g>
  <rect class="cls-2" width="512" height="512"/>
</svg>