<?xml version="1.0" encoding="UTF-8" standalone="no"?>
<!-- Uploaded to: SVG Repo, www.svgrepo.com, Generator: SVG Repo Mixer Tools -->

<svg
   version="1.1"
   id="Layer_1"
   viewBox="0 0 230.37576 512"
   xml:space="preserve"
   sodipodi:docname="tool.svg"
   width="230.37576"
   height="512"
   inkscape:version="1.2.2 (b0a8486541, 2022-12-01)"
   xmlns:inkscape="http://www.inkscape.org/namespaces/inkscape"
   xmlns:sodipodi="http://sodipodi.sourceforge.net/DTD/sodipodi-0.dtd"
   xmlns="http://www.w3.org/2000/svg"
   xmlns:svg="http://www.w3.org/2000/svg"><defs
   id="defs19" /><sodipodi:namedview
   id="namedview17"
   pagecolor="#ffffff"
   bordercolor="#000000"
   borderopacity="0.25"
   inkscape:showpageshadow="2"
   inkscape:pageopacity="0.0"
   inkscape:pagecheckerboard="0"
   inkscape:deskcolor="#d1d1d1"
   showgrid="false"
   inkscape:zoom="1.198767"
   inkscape:cx="106.77638"
   inkscape:cy="286.12734"
   inkscape:window-width="1880"
   inkscape:window-height="1056"
   inkscape:window-x="40"
   inkscape:window-y="0"
   inkscape:window-maximized="1"
   inkscape:current-layer="Layer_1" />
<path
   style="fill:#808080"
   d="m 153.14876,485.205 -4.864,9.728 H 90.599763 l -4.864,-9.728 7.936,-39.765 c 0.085,-0.597 0.171,-1.109 0.171,-1.707 v -161.45 l 7.252997,-43.349 h 36.693 l 7.253,43.349 v 161.451 c 0,0.597 0.085,1.109 0.171,1.707 z"
   id="path2" />
<rect
   x="110.90875"
   y="102.4"
   style="fill:#bdbdbd"
   width="17.066999"
   height="119.467"
   id="rect4" />
<path
   style="fill:#717272"
   d="m 213.30876,17.067 v 42.667 h -15.701 l -24.235,-8.107 c -0.939,-0.256 -1.792,-0.427 -2.731,-0.427 -20.565,0 -37.888,14.677 -41.813,34.133 h -21.163 L 92.902763,55.893 c -1.707,-3.413 -5.547,-5.291 -9.301,-4.523 -36.693,7.509 -51.285,30.891 -61.013,53.077 l -4.864,-4.864 c 7.083,-32.683 32,-82.517 118.783997,-82.517 5.12,0 7.509,1.195 11.093,2.987 4.949,2.475 11.008,5.547 23.04,5.547 0.939,0 1.792,-0.171 2.731,-0.427 l 24.235,-8.107 h 15.701 z"
   id="path6" />
<path
   d="m 221.84176,0 h -25.6 c -0.939,0 -1.792,0.171 -2.731,0.427 l -24.235,8.107 c -6.997,-0.171 -10.069,-1.792 -13.995,-3.669 C 151.01576,2.645 145.72476,0 136.50876,0 61.159763,0 11.495763,36.779 0.14576312,100.949 c -0.512,2.731 0.341,5.547 2.30399998,7.509 l 17.0669999,17.067 c 2.048,1.963 4.949,2.731 7.851,2.219 2.731,-0.597 5.12,-2.645 6.229,-5.291 9.216,-22.784 17.92,-44.373 47.104,-52.821 l 13.141,26.283 v 125.952 c -4.181,0 -7.765,2.987 -8.448,7.168 l -8.533,51.2 c -0.085,0.427 -0.085,0.853 -0.085,1.365 v 161.28 l -8.363,41.813 c -0.341,1.877 -0.085,3.84 0.768,5.547 l 8.533,17.067 c 1.365,2.901 4.352,4.693 7.595,4.693 h 68.266997 c 3.243,0 6.229,-1.792 7.595,-4.693 l 8.533,-17.067 c 0.853,-1.707 1.109,-3.669 0.768,-5.547 l -8.363,-41.813 V 281.6 c 0,-0.512 0,-0.939 -0.085,-1.365 l -8.533,-51.2 c -0.683,-4.181 -4.267,-7.168 -8.448,-7.168 v -128 c 0,-13.653 10.752,-24.917 24.32,-25.6 l 24.149,8.107 c 0.939,0.256 1.792,0.427 2.731,0.427 h 25.6 c 4.693,0 8.533,-3.84 8.533,-8.533 V 8.533 c 0,-4.693 -3.84,-8.533 -8.534,-8.533 z m -76.629,445.44 7.936,39.765 -4.864,9.728 H 90.599763 l -4.864,-9.728 7.936,-39.765 c 0.085,-0.597 0.171,-1.109 0.171,-1.707 v -161.45 l 7.252997,-43.349 h 36.693 l 7.253,43.349 v 161.451 c 0,0.597 0.086,1.109 0.171,1.706 z m -34.304,-223.573 V 102.4 h 17.067 v 119.467 z m 102.4,-162.134 h -15.701 l -24.235,-8.107 c -0.939,-0.256 -1.792,-0.427 -2.731,-0.427 -20.565,0 -37.888,14.677 -41.813,34.133 h -21.163 L 92.902763,55.892 c -1.707,-3.413 -5.547,-5.291 -9.301,-4.523 -36.693,7.509 -51.285,30.891 -61.013,53.077 l -4.864,-4.864 c 7.083,-32.683 32,-82.517 118.783997,-82.517 5.12,0 7.509,1.195 11.093,2.987 4.949,2.475 11.008,5.547 23.04,5.547 0.939,0 1.792,-0.171 2.731,-0.427 l 24.235,-8.107 h 15.701 z"
   id="path8" />
<path
   style="fill:#555656"
   d="M 204.77576,17.067 V 51.2 l -25.6,-8.533 h -8.533 c -0.939,-0.256 -7.595,0 -8.533,0 -20.565,0 -38.741,23.211 -42.667,42.667 h 9.387 c 3.925,-19.456 21.248,-34.133 41.813,-34.133 0.939,0 1.792,0.171 2.731,0.427 l 24.235,8.107 h 15.701 V 17.067 Z"
   id="path10" />
<rect
   x="119.44176"
   y="102.4"
   style="fill:#808080"
   width="8.533"
   height="119.467"
   id="rect12" />
<path
   style="fill:#666666"
   d="m 145.21276,445.44 c -0.085,-0.597 -0.171,-1.109 -0.171,-1.707 v -161.45 l -7.253,-43.349 h -16.64 l 7.253,43.349 v 161.451 c 0,0.597 0.085,1.109 0.171,1.707 l 7.936,39.765 -4.864,9.728 h 16.64 l 4.864,-9.728 z"
   id="path14" />
</svg>
