<svg width="179" height="23" viewBox="0 0 179 23" fill="none" xmlns="http://www.w3.org/2000/svg">
<g clip-path="url(#clip0_292_2785)">
<path d="M28.7629 13.8154C29.769 15.0441 30.7456 16.2332 31.7222 17.4246C32.438 18.2989 33.1612 19.1685 33.8696 20.0475C34.4551 20.7726 34.4206 21.4837 33.7983 21.957C33.1243 22.4699 32.3519 22.3371 31.7295 21.5793C29.5525 18.9284 27.3829 16.2752 25.2084 13.6219C24.8124 13.1393 24.5319 12.624 24.8296 12.0155C25.1346 11.3907 25.752 11.3137 26.3891 11.3021C27.0435 11.2904 27.7052 11.3184 28.3521 11.2508C30.5857 11.0153 32.0985 9.2527 32.0149 7.02612C31.9411 5.05833 30.1454 3.37499 28.0151 3.31437C26.8491 3.2794 25.6807 3.30738 24.5123 3.30272C23.5455 3.29805 22.9281 2.81077 22.9133 2.0507C22.8986 1.28131 23.5111 0.724083 24.4631 0.747398C26.1382 0.789365 27.8528 0.686779 29.4738 1.00386C32.7282 1.63803 34.7822 4.37521 34.6961 7.58801C34.6174 10.528 32.3101 13.0763 29.1762 13.6895C29.0606 13.7128 28.9499 13.7595 28.7629 13.8178V13.8154Z" fill="#F9F9F6"/>
<path d="M155.893 13.8105C157.458 15.7177 158.966 17.5525 160.474 19.3874C160.675 19.6322 160.884 19.8724 161.074 20.1242C161.581 20.7933 161.507 21.5581 160.899 21.987C160.262 22.4394 159.502 22.3391 158.953 21.6793C157.46 19.8794 155.984 18.0655 154.504 16.2562C153.825 15.4285 153.146 14.6032 152.469 13.7732C152.319 13.589 152.164 13.4048 152.049 13.202C151.547 12.3043 152.017 11.4347 153.082 11.3368C153.65 11.2855 154.228 11.3088 154.801 11.3041C157.33 11.2762 159.175 9.57649 159.165 7.27531C159.155 5.02541 157.278 3.31876 154.794 3.3071C153.729 3.30244 152.664 3.31176 151.598 3.30477C150.676 3.30011 150.076 2.81049 150.056 2.06674C150.036 1.29036 150.637 0.730798 151.584 0.74945C153.217 0.78209 154.89 0.674842 156.476 0.96861C159.714 1.5678 161.937 4.35861 161.864 7.39654C161.787 10.4881 159.509 13.0551 156.275 13.6962C156.179 13.7149 156.085 13.7545 155.891 13.8152L155.893 13.8105Z" fill="#F9F9F6"/>
<path d="M57.8775 11.4469C57.9021 9.49777 58.4309 7.68619 59.4296 5.99586C59.8823 5.22647 60.6645 4.98399 61.3828 5.38034C62.0838 5.76737 62.2339 6.47149 61.7837 7.24321C58.49 12.8854 62.3766 19.5955 69.1683 19.9219C71.6035 20.0385 73.751 19.2481 75.5541 17.6697C75.7042 17.5391 75.8419 17.3922 75.9944 17.264C76.5848 16.7627 77.431 16.7534 77.9377 17.2407C78.4445 17.7256 78.4371 18.544 77.8959 19.0802C76.4003 20.5561 74.5972 21.5539 72.5162 22.0809C65.8302 23.7759 59.1394 19.6561 58.0595 13.1792C57.9636 12.608 57.9365 12.0251 57.875 11.4469H57.8775Z" fill="#F9F9F6"/>
<path d="M142.214 11.4909C142.137 13.3771 141.67 15.1444 140.711 16.7927C140.229 17.6204 139.53 17.8885 138.794 17.5295C138.039 17.1611 137.874 16.4337 138.349 15.5827C141.168 10.5536 138.416 4.61065 132.605 3.27004C130.003 2.66852 127.568 3.13948 125.366 4.60366C124.918 4.90209 124.48 5.16555 123.895 4.9767C123.361 4.80417 123.012 4.4661 122.943 3.93918C122.874 3.41693 123.123 3.00192 123.565 2.68717C125.435 1.35588 127.538 0.614467 129.872 0.511881C135.685 0.255417 140.617 3.80862 141.899 9.18505C142.078 9.93812 142.113 10.7215 142.214 11.4886V11.4909Z" fill="#F9F9F6"/>
<path d="M130.522 22.5006C121.794 22.4306 116.053 13.5849 120.456 6.04721C120.835 5.39905 121.474 5.12161 122.079 5.31046C122.687 5.49931 123.12 6.11949 123.014 6.71635C122.972 6.95649 122.847 7.19197 122.724 7.41113C119.568 13.0161 123.592 19.7028 130.283 19.9266C132.261 19.9919 134.074 19.4463 135.707 18.3645C136.027 18.1523 136.433 17.9635 136.812 17.9425C137.412 17.9075 137.867 18.2456 138.061 18.8005C138.256 19.3554 138.076 19.8403 137.591 20.1994C136.113 21.2952 134.443 21.997 132.591 22.2884C131.907 22.3957 131.211 22.433 130.519 22.5006H130.522Z" fill="#F9F9F6"/>
<path d="M6.66289 3.30533C4.86472 3.30533 3.16495 3.31232 1.46763 3.303C0.621438 3.296 0.0409084 2.80872 -0.000909413 2.1116C-0.0402674 1.36319 0.498445 0.766327 1.35202 0.75467C3.58558 0.724361 5.81915 0.729024 8.05025 0.75467C8.73902 0.761664 9.26297 1.29325 9.34661 1.9484C9.37121 2.13958 9.35891 2.33542 9.35891 2.53127C9.35891 8.53254 9.35891 14.5315 9.35891 20.5328C9.35891 20.7076 9.36628 20.8825 9.34907 21.0573C9.28019 21.7545 8.71688 22.2651 8.02073 22.272C7.34673 22.2767 6.78588 21.8104 6.67764 21.1366C6.64567 20.9268 6.66043 20.7099 6.66043 20.4978C6.66043 15.0211 6.66043 9.54674 6.66043 4.07006C6.66043 3.84157 6.66043 3.61308 6.66043 3.31232L6.66289 3.30533Z" fill="#F9F9F6"/>
<path d="M169.63 3.30482C167.922 3.30482 166.289 3.30948 164.656 3.30016C164.393 3.30016 164.117 3.2885 163.871 3.21156C163.288 3.02737 162.968 2.62402 162.971 2.02949C162.971 1.43962 163.276 1.03161 163.869 0.849754C164.097 0.779809 164.348 0.744837 164.589 0.742505C166.638 0.735511 168.687 0.733179 170.737 0.740174C171.765 0.742505 172.326 1.27175 172.326 2.25798C172.331 8.43178 172.331 14.6079 172.326 20.7817C172.326 21.684 171.772 22.2739 170.968 22.2645C170.149 22.2552 169.635 21.684 169.632 20.7561C169.63 15.2024 169.632 9.64882 169.632 4.0952C169.632 3.86205 169.632 3.63123 169.632 3.30249L169.63 3.30482Z" fill="#F9F9F6"/>
<path d="M107.847 15.1725C107.293 15.1725 106.74 15.1935 106.189 15.1678C105.406 15.1328 104.858 14.5989 104.855 13.9065C104.853 13.1837 105.421 12.6545 106.226 12.6288C107.409 12.5938 108.607 12.6475 109.775 12.4982C112.245 12.1858 113.915 10.0642 113.78 7.5578C113.662 5.33355 111.583 3.40074 109.192 3.31681C108.211 3.28184 107.227 3.31914 106.243 3.29816C105.451 3.28184 104.895 2.7759 104.858 2.08345C104.824 1.42597 105.311 0.801126 106.063 0.773148C107.898 0.710197 109.746 0.591291 111.529 1.2138C114.943 2.4052 116.948 5.70426 116.37 9.2155C115.827 12.5286 112.666 15.1095 109.077 15.1725C108.668 15.1795 108.257 15.1725 107.847 15.1725Z" fill="#F9F9F6"/>
<path d="M56.4906 20.8658C56.4807 21.6188 56.0576 22.0781 55.3738 22.225C54.781 22.3509 54.1783 22.0525 53.8954 21.4416C53.1575 19.8422 52.4392 18.2358 51.7184 16.6318C49.6226 11.9781 47.5244 7.32676 45.4433 2.66843C45.3055 2.36068 45.1899 1.9923 45.2342 1.67288C45.3129 1.08068 45.8689 0.663346 46.4617 0.626042C47.0348 0.588738 47.5612 0.915148 47.8343 1.52134C48.9166 3.90879 49.9891 6.29857 51.0641 8.68602C52.8057 12.554 54.5497 16.4219 56.2889 20.2922C56.3922 20.5207 56.4537 20.7632 56.4906 20.8681V20.8658Z" fill="#F9F9F6"/>
<path d="M103.44 11.4586C103.44 14.5665 103.445 17.6721 103.44 20.78C103.44 21.8478 102.611 22.4936 101.656 22.1905C101.118 22.0203 100.808 21.6659 100.746 21.1297C100.724 20.9385 100.729 20.7427 100.729 20.5468C100.729 14.4873 100.729 8.43004 100.729 2.37048C100.729 1.23504 101.182 0.635845 102.045 0.621856C102.945 0.607867 103.44 1.22804 103.442 2.37048C103.442 5.39909 103.442 8.43004 103.442 11.4586H103.44Z" fill="#F9F9F6"/>
<path d="M81.927 11.3954C81.927 8.27121 81.9221 5.14701 81.9319 2.0228C81.9344 0.968967 82.8962 0.339463 83.8457 0.749807C84.3647 0.975962 84.596 1.3933 84.6157 1.91555C84.6329 2.36087 84.623 2.80852 84.623 3.25383C84.623 8.959 84.623 14.6642 84.623 20.3693C84.623 20.4859 84.623 20.6025 84.623 20.7191C84.6132 21.6843 84.0991 22.2718 83.2726 22.2672C82.4411 22.2625 81.9295 21.675 81.9295 20.7121C81.9295 17.6065 81.9295 14.5033 81.9295 11.3977L81.927 11.3954Z" fill="#F9F9F6"/>
<path d="M18.8127 11.4283C18.8127 8.41835 18.8127 5.40606 18.8127 2.3961C18.8127 2.16295 18.8054 1.92747 18.8373 1.69898C18.921 1.09979 19.4646 0.647475 20.0992 0.62416C20.7068 0.600845 21.2701 0.987873 21.4153 1.56142C21.4768 1.8039 21.4891 2.06036 21.4891 2.31216C21.494 8.39271 21.4915 14.4709 21.4915 20.5515C21.4915 20.6284 21.4915 20.7077 21.4915 20.7846C21.4645 21.7009 20.9307 22.2791 20.1263 22.2698C19.3244 22.2581 18.8127 21.6822 18.8127 20.752C18.8078 17.6441 18.8127 14.5362 18.8127 11.4283Z" fill="#F9F9F6"/>
<path d="M148.607 11.4001C148.607 14.5662 148.612 17.7324 148.604 20.8986C148.602 21.9338 147.648 22.5842 146.747 22.1226C146.418 21.9524 146.218 21.5374 145.99 21.2133C145.921 21.1131 145.943 20.9475 145.943 20.8123C145.943 14.5755 145.938 8.34113 145.948 2.10437C145.948 1.84092 145.997 1.55647 146.11 1.31633C146.354 0.801068 146.983 0.532946 147.542 0.651852C148.176 0.787079 148.587 1.22307 148.602 1.84092C148.622 2.77351 148.609 3.70611 148.609 4.63871C148.609 6.89094 148.609 9.14549 148.609 11.3977L148.607 11.4001Z" fill="#F9F9F6"/>
<path d="M44.2712 5.7158C45.3584 5.70647 45.9513 6.61342 45.5257 7.56467C44.4261 10.0267 43.3118 12.4818 42.2049 14.9392C41.2332 17.0935 40.269 19.2525 39.2924 21.4044C39.0169 22.0083 38.4659 22.3277 37.905 22.2554C37.2999 22.1762 36.7858 21.7285 36.7317 21.1503C36.7071 20.8752 36.7735 20.5674 36.8866 20.311C38.9333 15.7482 40.9946 11.1925 43.0462 6.63207C43.2946 6.08184 43.6857 5.74611 44.2687 5.71813L44.2712 5.7158Z" fill="#F9F9F6"/>
<path d="M78.3166 4.59868C78.2847 5.36807 78.0313 5.76209 77.5049 5.9696C76.9588 6.18409 76.484 6.06286 76.029 5.70614C75.3058 5.14192 74.6145 4.49842 73.7954 4.09041C70.6345 2.51432 67.5104 2.6612 64.4971 4.49376C63.5156 5.09062 62.7678 5.08596 62.2881 4.41915C61.8773 3.84793 61.9782 2.99228 63.0261 2.33246C67.6211 -0.549267 73.879 0.0102924 77.7337 3.7267C78.0288 4.01114 78.1986 4.41682 78.3166 4.59868Z" fill="#F9F9F6"/>
<path d="M91.5499 3.30502C90.2413 3.30502 88.9302 3.30968 87.6215 3.30502C86.6474 3.30035 86.0669 2.81773 86.0693 2.02736C86.0693 1.25097 86.6671 0.747365 87.6289 0.745034C90.2487 0.738039 92.866 0.738039 95.4857 0.745034C96.482 0.747365 97.092 1.26729 97.0724 2.06466C97.0551 2.82939 96.4525 3.30269 95.4759 3.30735C94.1672 3.31201 92.8561 3.30735 91.5475 3.30735L91.5499 3.30502Z" fill="#F9F9F6"/>
<path d="M91.5817 19.6113C92.9322 19.6113 94.2802 19.6066 95.6307 19.6113C96.5113 19.6159 97.0746 20.1102 97.0746 20.8563C97.0746 21.6047 96.5236 22.1036 95.6331 22.1083C92.9125 22.1176 90.1944 22.12 87.4737 22.1083C86.5931 22.1036 86.0519 21.5861 86.0667 20.8283C86.0815 20.0939 86.6177 19.6183 87.4713 19.6136C88.8414 19.6043 90.2116 19.6136 91.5817 19.6136V19.6113Z" fill="#F9F9F6"/>
<path d="M13.4343 3.30261C13.026 3.30261 12.6177 3.31426 12.2093 3.30261C11.4025 3.27929 10.8539 2.80367 10.8195 2.11821C10.7826 1.39311 11.2303 0.824226 12.0248 0.772934C12.9571 0.709983 13.9042 0.707652 14.8365 0.78226C15.6335 0.84521 16.0861 1.44207 16.027 2.14618C15.9729 2.799 15.4244 3.26997 14.6594 3.30261C14.251 3.31893 13.8427 3.30494 13.4343 3.30727V3.30261Z" fill="#F9F9F6"/>
<path d="M176.363 3.30234C175.975 3.30234 175.588 3.31167 175.2 3.30234C174.386 3.28136 173.832 2.81972 173.79 2.13659C173.744 1.39051 174.216 0.814634 175.035 0.763341C175.928 0.707386 176.833 0.707386 177.726 0.763341C178.553 0.814634 179.047 1.40217 178.998 2.12494C178.951 2.8034 178.393 3.27669 177.588 3.30234C177.18 3.31633 176.772 3.30234 176.363 3.30467V3.30234Z" fill="#F9F9F6"/>
<path d="M90.143 13.288C89.0891 13.2745 88.2647 12.4687 88.2845 11.4731C88.3044 10.4775 89.1599 9.69349 90.2053 9.70977C91.2563 9.72604 92.0807 10.5345 92.0637 11.5328C92.0467 12.5311 91.2025 13.3043 90.143 13.2907V13.288Z" fill="#019AA8"/>
</g>
<defs>
<clipPath id="clip0_292_2785">
<rect width="179" height="22" fill="white" transform="translate(-0.000976562 0.500004)"/>
</clipPath>
</defs>
</svg>
