<?xml version="1.0" encoding="UTF-8" standalone="no"?>
<svg
   version="1.0"
   width="445.042772pt"
   height="444.602206pt"
   viewBox="0 0 445.042772 444.602206"
   preserveAspectRatio="xMidYMid meet"
   id="svg12"
   sodipodi:docname="treechat.svg"
   inkscape:version="1.2.2 (b0a8486541, 2022-12-01)"
   xmlns:inkscape="http://www.inkscape.org/namespaces/inkscape"
   xmlns:sodipodi="http://sodipodi.sourceforge.net/DTD/sodipodi-0.dtd"
   xmlns="http://www.w3.org/2000/svg"
   xmlns:svg="http://www.w3.org/2000/svg">
  <defs
     id="defs16" />
  <sodipodi:namedview
     id="namedview14"
     pagecolor="#ffffff"
     bordercolor="#000000"
     borderopacity="0.25"
     inkscape:showpageshadow="2"
     inkscape:pageopacity="0.0"
     inkscape:pagecheckerboard="0"
     inkscape:deskcolor="#d1d1d1"
     inkscape:document-units="pt"
     showgrid="false"
     inkscape:zoom="1.0353672"
     inkscape:cx="323.55671"
     inkscape:cy="253.05032"
     inkscape:window-width="1880"
     inkscape:window-height="1056"
     inkscape:window-x="40"
     inkscape:window-y="0"
     inkscape:window-maximized="1"
     inkscape:current-layer="svg12" />
  <metadata
     id="metadata2"> Created by potrace 1.16, written by Peter Selinger 2001-2019 </metadata>
  <path
     fill-rule="evenodd"
     clip-rule="evenodd"
     d="m 223.12666,87.021367 c 7.59823,0 13.75687,6.159878 13.75687,13.758313 v 33.14531 c 0,2.3232 2.49014,3.79756 4.52733,2.68144 l 35.10717,-19.23047 c 6.663,-3.65038 15.02454,-1.20729 18.67616,5.45696 3.64998,6.66403 1.20728,15.02557 -5.45778,18.67594 l -47.83535,26.20298 c -3.09419,1.69437 -5.01753,4.94097 -5.01753,8.46751 v 119.87142 c 0,3.72345 4.04027,6.04478 7.25789,4.16994 l 14.20794,-8.28036 c 2.96931,-1.72975 4.7944,-4.90513 4.7944,-8.34132 v -56.86962 c 0,-17.97343 9.56195,-34.58867 25.10164,-43.61858 l 37.65185,-19.46275 c 6.56932,-3.81734 14.99017,-1.58613 18.80729,4.98318 3.81858,6.57099 1.58613,14.99184 -4.9832,18.80876 l -37.65183,19.46276 c -7.06265,4.10438 -11.41058,11.65723 -11.41058,19.82663 v 41.06307 c 0,2.35879 2.55885,3.82795 4.59771,2.64146 l 31.77254,-18.51692 c 6.56454,-3.82461 14.98706,-1.60486 18.81334,4.95987 3.82647,6.56622 1.60486,14.98852 -4.95968,18.81502 l -98.10754,59.44863 c -3.65619,2.21683 -5.89177,6.18382 -5.89177,10.45971 v 16.54363 c 0,7.598 -6.15864,13.75665 -13.75687,13.75665 -7.59968,0 -13.75832,-6.15865 -13.75832,-13.75665 v -16.51699 c 0,-4.28381 -2.24181,-8.25557 -5.9074,-10.46907 l -98.45597,-59.45654 c -6.570584,-3.81546 -8.803648,-12.23487 -4.98779,-18.80564 3.81588,-6.57099 12.2359,-8.80489 18.80668,-4.98797 l 31.9907,18.57769 c 2.03782,1.18439 4.59268,-0.28517 4.59268,-2.64292 v -41.07556 c 0,-8.18189 -4.35955,-15.74412 -11.44052,-19.84369 l -37.79964,-19.47234 c -6.575568,-3.80756 -8.819875,-12.22528 -5.01254,-18.80085 3.80734,-6.57556 12.22443,-8.81967 18.80022,-5.01274 l 37.79964,19.47212 c 15.57778,9.02035 25.16929,25.65763 25.16929,43.6575 v 56.80883 c 0,3.44079 1.82967,6.62075 4.80543,8.34902 l 14.38758,8.3553 c 3.21763,1.86923 7.25164,-0.45171 7.25164,-4.17451 V 176.13728 c 0,-3.51737 -1.91293,-6.75666 -4.99423,-8.45519 l -47.50874,-26.19114 c -6.65425,-3.66827 -9.07488,-12.03645 -5.40637,-18.69071 3.66829,-6.65424 12.03647,-9.07466 18.69073,-5.40638 l 34.68503,19.12119 c 2.03782,1.12404 4.53358,-0.35177 4.53358,-2.67747 v -33.05811 c 0,-7.598225 6.15864,-13.758103 13.75832,-13.758103 z"
     fill="white"
     id="path2277"
     style="fill:#ffffff;stroke-width:15.6116" />
  <path
     fill-rule="evenodd"
     clip-rule="evenodd"
     d="M 378.33487,116.42492 238.20904,35.523352 c -9.22015,-5.323525 -20.58075,-5.323525 -29.80092,0 L 68.281897,116.42492 c -9.220784,5.32373 -14.900877,15.16212 -14.900877,25.80915 v 161.80354 c 0,10.64705 5.680093,20.48543 14.900877,25.80916 l 140.126223,80.90032 c 9.22017,5.32519 20.58077,5.32519 29.80092,0 l 140.12583,-80.90032 c 9.22016,-5.32373 14.90109,-15.16211 14.90109,-25.80894 V 142.23407 c 0,-10.64726 -5.68093,-20.48542 -14.90109,-25.80915 z M 251.48341,12.531551 c -17.43493,-10.0660962 -38.91471,-10.0660962 -56.34965,0 L 55.007532,93.433115 C 37.572595,103.499 26.832291,122.1019 26.832291,142.23407 v 161.80354 c 0,20.13115 10.740304,38.73384 28.175241,48.80014 l 140.126228,80.90199 c 17.43494,10.06629 38.91472,10.06629 56.34965,0 l 140.12582,-80.90199 c 17.43493,-10.0663 28.17566,-28.66899 28.17566,-48.80014 V 142.23407 c 0,-20.13217 -10.74073,-38.73507 -28.17566,-48.800955 z"
     fill="white"
     id="path2279"
     style="fill:#ffffff;stroke-width:15.6116" />
</svg>
