<?xml version="1.0" encoding="UTF-8"?>
<svg id="Layer_1" data-name="Layer 1" xmlns="http://www.w3.org/2000/svg" xmlns:xlink="http://www.w3.org/1999/xlink" viewBox="0 0 1043 1043">
  <defs>
    <style>
      .cls-1 {
        fill: #57abfc;
      }

      .cls-2 {
        fill: #5a1d50;
      }

      .cls-3 {
        fill: #fcb63b;
      }

      .cls-4 {
        fill: #fcebbd;
      }

      .cls-5 {
        fill: #9197fb;
      }

      .cls-6 {
        fill: #772b5a;
      }

      .cls-7 {
        fill: #beecfc;
      }

      .cls-8 {
        fill: #3f1642;
      }

      .cls-9 {
        fill: #fcd681;
      }

      .cls-10 {
        fill: #da5b28;
      }

      .cls-11 {
        fill: url(#linear-gradient-2);
      }

      .cls-12 {
        fill: #706af7;
      }

      .cls-13 {
        fill: #b83f37;
      }

      .cls-14 {
        fill: #c059aa;
      }

      .cls-15 {
        fill: #8b2e5b;
      }

      .cls-16 {
        fill: #4751ea;
      }

      .cls-17 {
        fill: #5d244a;
      }

      .cls-18 {
        fill: #d99368;
      }

      .cls-19 {
        fill: #a09df9;
      }

      .cls-20 {
        fill: #7c4fce;
      }

      .cls-21 {
        fill: #fcb361;
      }

      .cls-22 {
        fill: #d69849;
      }

      .cls-23 {
        fill: #d9595b;
      }

      .cls-24 {
        fill: #952a46;
      }

      .cls-25 {
        fill: #b8bcf9;
      }

      .cls-26 {
        fill: #3349e8;
      }

      .cls-27 {
        fill: #90334d;
      }

      .cls-28 {
        fill: #191986;
      }

      .cls-29 {
        fill: #996148;
      }

      .cls-30 {
        fill: #1d35d2;
      }

      .cls-31 {
        fill: #974956;
      }

      .cls-32 {
        fill: #923159;
      }

      .cls-33 {
        fill: #3351e8;
      }

      .cls-34 {
        fill: #732662;
      }

      .cls-35 {
        fill: #a1a1fb;
      }

      .cls-36 {
        fill: #6576fa;
      }

      .cls-37 {
        fill: #3e195b;
      }

      .cls-38 {
        fill: #f59091;
      }

      .cls-39 {
        fill: #7e2d4b;
      }

      .cls-40 {
        fill: #fce1d4;
      }

      .cls-41 {
        fill: #832d4f;
      }

      .cls-42 {
        fill: #6066f5;
      }

      .cls-43 {
        fill: #fdca73;
      }

      .cls-44 {
        fill: #b9c1fb;
      }

      .cls-45 {
        fill: #b19caa;
      }

      .cls-46 {
        fill: #fc943b;
      }

      .cls-47 {
        fill: #e8644b;
      }

      .cls-48 {
        fill: #e378a1;
      }

      .cls-49 {
        fill: #aca0f7;
      }

      .cls-50 {
        fill: #132dbd;
      }

      .cls-51 {
        fill: #4a40c6;
      }

      .cls-52 {
        fill: url(#linear-gradient-3);
      }

      .cls-53 {
        fill: #5c5bdb;
      }

      .cls-54 {
        fill: #8bb3fa;
      }

      .cls-55 {
        fill: #662332;
      }

      .cls-56 {
        fill: #aa5253;
      }

      .cls-57 {
        fill: #928ce8;
      }

      .cls-58 {
        fill: #b472c8;
      }

      .cls-59 {
        fill: #fbc4d3;
      }

      .cls-60 {
        fill: #a93d4e;
      }

      .cls-61 {
        fill: #aa3d57;
      }

      .cls-62 {
        fill: #7a5fde;
      }

      .cls-63 {
        fill: #556cf5;
      }

      .cls-64 {
        fill: #d35152;
      }

      .cls-65 {
        fill: #9b62d6;
      }

      .cls-66 {
        fill: #f47d6e;
      }

      .cls-67 {
        fill: #662156;
      }

      .cls-68 {
        fill: #883055;
      }

      .cls-69 {
        fill: #c86a49;
      }

      .cls-70 {
        fill: #fdf490;
      }

      .cls-71 {
        fill: #e68fe3;
      }

      .cls-72 {
        fill: #fcc963;
      }

      .cls-73 {
        fill: #df5441;
      }

      .cls-74 {
        fill: #376bf7;
      }

      .cls-75 {
        fill: #c14724;
      }

      .cls-76 {
        fill: #b8794c;
      }

      .cls-77 {
        fill: #fcf08a;
      }

      .cls-78 {
        fill: #e98b3f;
      }

      .cls-79 {
        fill: #faa18c;
      }

      .cls-80 {
        fill: #bb8bd5;
      }

      .cls-81 {
        fill: #faab63;
      }

      .cls-82 {
        fill: #852e51;
      }

      .cls-83 {
        fill: #efebfc;
      }

      .cls-84 {
        fill: #da81b9;
      }

      .cls-85 {
        fill: #bb414d;
      }

      .cls-86 {
        fill: #3a1a54;
      }

      .cls-87 {
        fill: #fcf5b4;
      }

      .cls-88 {
        fill: #c973c7;
      }

      .cls-89 {
        fill: #2a3ecc;
      }

      .cls-90 {
        fill: #8583f7;
      }

      .cls-91 {
        fill: #cacef9;
      }

      .cls-92 {
        fill: #e2b4f8;
      }

      .cls-93 {
        fill: #994fb6;
      }

      .cls-94 {
        fill: #cc4b42;
      }

      .cls-95 {
        fill: #ec664d;
      }

      .cls-96 {
        fill: #3940cb;
      }

      .cls-97 {
        fill: #fb9352;
      }

      .cls-98 {
        fill: #f96ca5;
      }

      .cls-99 {
        fill: #ebc7ef;
      }

      .cls-100 {
        fill: #6dc2fb;
      }

      .cls-101 {
        fill: #9acdfb;
      }

      .cls-102 {
        fill: #faae84;
      }

      .cls-103 {
        fill: #faeff2;
      }

      .cls-104 {
        fill: #eba544;
      }

      .cls-105 {
        fill: #83c5fc;
      }

      .cls-106 {
        fill: #e36c89;
      }

      .cls-107 {
        fill: #523736;
      }

      .cls-108 {
        fill: #5656eb;
      }

      .cls-109 {
        fill: #f9a484;
      }

      .cls-110 {
        fill: #fccc48;
      }

      .cls-111 {
        fill: #8bbef7;
      }

      .cls-112 {
        fill: #c86fb9;
      }

      .cls-113 {
        fill: #d6585c;
      }

      .cls-114 {
        fill: #fcb683;
      }

      .cls-115 {
        fill: #f28ca9;
      }

      .cls-116 {
        fill: #dce6fc;
      }

      .cls-117 {
        fill: #c78ff7;
      }

      .cls-118 {
        fill: #6c78f3;
      }

      .cls-119 {
        fill: #fccfb9;
      }

      .cls-120 {
        fill: url(#linear-gradient);
      }

      .cls-121 {
        fill: #d17167;
      }

      .cls-122 {
        fill: #250f35;
      }

      .cls-123 {
        fill: #fa744b;
      }

      .cls-124 {
        fill: #a03853;
      }

      .cls-125 {
        fill: #57a3fa;
      }
    </style>
    <linearGradient id="linear-gradient" x1="1274.56" y1="779.48" x2="409.76" y2="1710.92" gradientTransform="translate(-322 -722)" gradientUnits="userSpaceOnUse">
      <stop offset="0" stop-color="#de613c"/>
      <stop offset=".46" stop-color="#832a5e"/>
      <stop offset="1" stop-color="#211131"/>
    </linearGradient>
    <linearGradient id="linear-gradient-2" x1="642.69" y1="1075.41" x2="719.45" y2="1182.79" gradientTransform="translate(-322 -722)" gradientUnits="userSpaceOnUse">
      <stop offset="0" stop-color="#3194fc"/>
      <stop offset=".63" stop-color="#4772fb"/>
      <stop offset="1" stop-color="#836df5"/>
    </linearGradient>
    <linearGradient id="linear-gradient-3" x1="665.48" y1="1182.3" x2="531.7" y2="1273.68" gradientTransform="translate(-322 -722)" gradientUnits="userSpaceOnUse">
      <stop offset="0" stop-color="#329dfc"/>
      <stop offset=".48" stop-color="#4cabfc"/>
      <stop offset=".66" stop-color="#3778fb"/>
      <stop offset="1" stop-color="#4452d8"/>
    </linearGradient>
  </defs>
  <path class="cls-120" d="M578,13c74.4-.18,148.45-.31,222.16-.37,36.26.11,68.77,1.34,103.44,14.52s64.09,35.3,85.85,63.11l1.53.65c1.61-1.4,3.28.86,1.93,2.21-.46,2.05-.5.57-.44.64,25.34,30.62,36.63,70.17,39.53,109.24.88,208.3.88,426.44,0,635,.23,20.37-4.89,40.02-10.19,58.99-9.51,34-32.46,64.86-59.31,88.45-18.22,16-39.14,28.15-61.5,35.55-12.76,4.07-25.76,7.41-39,10h-1c-29.02,1.9-58.02,2.23-87,1-65.15.88-134.48.88-200,0-90.31.88-185.45.88-276,0-32.11.6-64.58.7-97.43.29-10.69-.62-21.21-1.71-31.57-3.29-38.67-6.8-91.48-22-102.91-56-6.86-8.6-13.59-17.27-20.17-26.02-21.54-28.68-35.14-65.54-35.67-101.74.71-104.16.63-208.24-.26-312.24-.56,0-.99-.03-.99-.08-.33-14.96-.32-30.29,0-45.25,0-.23.44-.45.99-.67.34-95.89.67-191.89,1-288-2.8-.51.3-14.24.58-13.57.17.41.01,2.08-1.58,1.57-.45-2.51.74-5.66,1-8,7.67-44.47,30.22-83.2,63.03-114.1.15-1.81,1.08-3.02,2.42-4.12,21.75-17.88,37.83-27.82,64.62-36.98,11.63-3.98,37.75-11.5,49.53-10.86.48.03.93.48,1.38,1.05,45.67-.56,91.35-.89,137.03-.99l.18-.91c83.03.13,165.97.44,248.82.91Z"/>
  <path class="cls-104" d="M1006,109c-.37.43-.77.82-1.24,1.09-.88.5-10.84-13.85-12.13-15.84-.14-.22.02-.65.28-1.13-.65-.68-.81-1.96-1.93-2.21-20.37-23.29-42.63-42.84-70.7-56.54-39.51-19.29-77.95-21.5-119.6-21.73-74.75.59-148.97.37-222.67-.64-128.1.3-256.04.41-383.82.33-24.72,2.42-49.07,9.1-71.71,18.5l-1.09-1c1.09-1.56,2.74-2.84,5.17-3.3,21.26-10.3,44.09-14.68,67.96-17.51l652.01.04c44.29,3.74,85.56,20.6,118.53,49.95,16.42,14.66,30.33,31.26,40.95,49.98Z"/>
  <path class="cls-29" d="M11,199c-.33,95.91-.67,191.91-1,288v46l.33,301.21-1.33,15.79c1.02-3.7-.98-6.91-.98-11.35V203.35c0,7.71,1.59-24.22,1.98-16.35,1.12-.1.25-2.1,2.32-1.99-1.33,5.19-1.32,9.45-1.32,13.99Z"/>
  <path class="cls-22" d="M578,12c.87.28.86.62,0,1h-249l-135.8.51-1.23.49c-12.17-.19-25.11,4.25-37.35,6.95-30.97,6.83-57.39,23.74-80.59,43.96-14.41,13.21-25.46,28.29-36.3,44.22-.53.79-.91.8-1.73-.12,5.8-12.95,15.19-23.99,25.07-35.07,15.45-17.33,34.13-31.08,54.53-42.24,1.65-.9,4.39-1.71,5.79-1.86,5.1-.56,40.95-18.21,78.99-18.35l127.3-.49c2.59,0,4.05,1.69,6.89.61,3.83-1.46,8.76-.64,12.81,0,5.89.91,11.09.24,17.15.24l213.47.16Z"/>
  <path class="cls-18" d="M1032,847c-.98-2.32-.64-6.37,0-9V203c-1.01-1.9-1.7-5.85,0-7,.55-.1.74.19,1,1.34v648.31c-.27,1.15-.46,1.45-1,1.34Z"/>
  <path class="cls-45" d="M298,1033c90.31-.88,185.45-.88,276,0,65.17-.88,134.35-.88,200,0,19.26-.84,40.59-.99,60,0-.05.85-.69,1-2.27,1H208.34c-1.15-.27-1.44-.46-1.34-1,29.04-1.14,61.39-.82,91,0Z"/>
  <path class="cls-107" d="M45.92,946.98c.7,1.01.75,1.68.13,1.99-19.12-27.74-37.65-63.71-37.06-98.98,1.78-105.35,1-211.28,1-317,.51-.11.86.23.87,1.28l.56,309.6c.06,30.64,16.12,80.57,34.49,103.11Z"/>
  <path class="cls-78" d="M992.91,93.12c6.02,6.24,10.12,16.12,13.09,15.88,14.29,23.16,26,60.03,26,87v7c-1.87-.88-1.66-2.77-1.86-5.09-2.52-28.9-10.43-57.02-24.68-82.1-4.29-7.54-8.22-14.21-13.55-20.89-.58-.73-1.07-1.71-.53-1.85.69-.18,1.16-.08,1.53.05Z"/>
  <path class="cls-76" d="M74.03,64.9c-10.69,12.29-21.81,23.97-31.19,37.95-14.94,22.26-24.66,46.72-30,72.96-.31,1.55-.81,2.66-1.84,3.19,2.5-22.81,10.6-44.72,21.68-65.25,1.1-2.03,1.4-4.02,3.32-4.75,1.35-.5,2.67-2.06,3.46-3.46,9.13-16.13,21.42-29.19,34.57-40.64Z"/>
  <path class="cls-122" d="M298,1032c.87.28.86.62,0,1h-91c-13.18,0-25.2-1.75-38-4,.82-2.27,3.16-.03,4.97.16,7.14.71,14.02,2.53,21.43,2.55l102.6.29Z"/>
  <path class="cls-67" d="M861,1031c-5.81,2.3-20.02,2-27,2h-60c-.87-.28-.86-.62,0-1l70.89-.16c.18,0,18.5-2.71,16.11-.84Z"/>
  <path class="cls-56" d="M1032,847c0,16.91-3.45,34.57-10.19,49.99-.98-1.45-.55-3.18.01-5.12l3.61-12.44c3.76-12.97,5.55-26.67,5.67-40.31,0-.81.43-1.24.9-1.12v9Z"/>
  <path class="cls-67" d="M901,1021c-12.63,4.18-25.41,10-39,10,.66-1.48,2.26-1.63,4.08-1.9,11.82-1.73,22.85-5,33.97-9.02.59-.21,1.21.55.95.92Z"/>
  <path class="cls-122" d="M66.09,973c-8.52-6.21-14.21-15.57-20.03-24.02l-.13-1.99c6.36,7.8,16.38,14.75,19.37,23.64l.8,2.38Z"/>
  <path class="cls-11" d="M404.86,366.1c4.54-.06,8.73-.64,12.59-1.73,20.37-.71,46.6,8.19,64.06,18.39l2.26,2.96c3.3-1.39,13.5,5.99,9.44,9.17-7.9,8.2-24.81,18.94-34.34,28.15l-4.68,4.48-1.26-.56c-3.33,1.68-10.68-.58-11.92-4.2-6.82-.39-13.66-1.29-20.52-2.71l-2.21-2.06c-.88-.19-.86-.49,0-.88l-1.6-1.06c-27.34-.75-54.71-.22-82.13,1.6-6.43,1.92-12.8,2.72-19.12,2.4-6.3,2.85-13.35,4.13-20.14,2.24-4.28,3.42-11.65,6.11-17.07,8-6.61,2.31-14.64,4.9-21.46,5.07-2.72,9.87-18.68-1.64-21.62-7.28-5.5,2.15-7.44,1.79-5.83-1.07-.18-.69-.28-1.36-.14-1.97.53-2.29,16.24-19.81,19.22-22.72,6.08-5.92,13.79-12.75,21.69-15.36-1.44-2.55.77-3.8,2.82-1.78,5.13-5.63,24.85-15.11,32.03-15.91,1.37-.15,3.39-.15,4.07.93,2.03-.48,3.6-1.44,4.71-2.9,16.39-2.12,24.59-3.19,24.59-3.19l65.38-.03,1.19,2Z"/>
  <path class="cls-53" d="M474.97,642.62c-4.26,2.17-8.93,3.66-12.83,6.36-15.43,5.53-32.59,9.62-49.3,9.9-25.08.42-50.23.41-75.31-.31-10.73-.31-25.94-3.42-36.06-7.04-.6-.21-1.05-.81-1.47-1.53-3.28-4.69-.61-7.36,7.99-8.02l4.7-.86c16.17,3.85,32.99,4.57,49.44,4.57l.69,1.41,10.18.64,5.95-1.99c29.6.93,58.81-.43,86.11-12.67l5.12-.07c6.39-.68,11.26,4.36,4.57,8.95-.2.13-.32-1.6.22.65Z"/>
  <path class="cls-40" d="M605.92,358.92c17.19.96,34.44,1.68,51.74,2.17,3.68.45,5.03,1.85,4.03,4.22-14.37-.15-28.63.12-42.77.81l-1.33,2.01c-29.01,2.53-55.18,14.14-78.35,32.12l-4.17.6.26,2.3c-9.26,6.92-18.53,13.85-27.8,20.78l-3.56.16c1.21,2.66-2,4.59-4.08,2.59l-2.35-.39c-.32-2.55-.55-3.06-3.04-1.77l-46.59,35.91-3.88.81c-.14-.13-.03.53.35,1.97-.08.9-13.27,9.93-15.13,9.15-1.02-.43-.86-1.3.09-2.1,9.28-8.59,20.02-15.49,30.28-23.57l15.19-11.96,53.64-41.21c13.02-10,25.75-18.64,40.94-25,11.81-4.95,24.72-12.14,36.54-9.59Z"/>
  <path class="cls-85" d="M594.07,591.94c3.37,2.2,5.53,4.52,7.46,8.02,5.96-2.25,7.88,1.3,9.37,6.29l3.82,4.74c1.02,4.54,4.27,7.41,9.74,8.61,5.67,3.55,11.62,6.32,17.86,8.3,2.28,3.49,5.82,5.11,10.61,4.88,1.77.66,16.78,7.61,17.45,8.31,2.4,2.51,2.44,5.62-1.25,5.92-.25.87-.61.85-1.06.02-2.97.2-5.02.94-6.17,2.22-15.88.65-31.72.61-47.53-.13l-1.25-2.21c-.31-2.08-.63-4.24-.97-6.49-5.89-6.13-10.42-12.99-13.59-20.58-2.86-8.99-7.18-17.43-12.97-25.32-1.51-2.41-2.34-4.83-2.51-7.25.43-.26.55-1.03,1.02-1.23,3.03-1.64,10.44,2.45,9.98,5.88Z"/>
  <path class="cls-87" d="M753.13,370c17.61,8.17,34.95,17.29,48.03,32.85,3.26,3.87,8.17,6.52,9.9,11.09,4.51,8.53,9.31,17.01,14.4,25.43,5.44,12.43,10.27,25.05,14.49,37.87.07.94.7,2.73,1.05,3.62,1.48,5.97,1.36,11.45-.39,16.45.63,3.82.17,7.87-1.38,12.14-.59,10.64-1.14,20.25-5.57,30.11-2.69,2.07-3.57.86-2.64-3.65l-1.54-3.24c2-10.11,2.93-20.29,2.81-30.55l1.76-3.08-5.54-22.95-4.38-14.42.82-3.83-1.94-1.49c-14.89-34.35-41.36-62.62-75.74-77.98l-3.16-3.59c-4.43-2.83,2.24-5.25,5.57-2.35-2.96-3.99,0-3.69,3.45-2.46Z"/>
  <path class="cls-61" d="M613.11,646.92c-2.24,2.84-9.12,1.82-10.95-.99l-1.47,1.49c-8.66-3.26-10.93-1.34-6.82,5.76l-.78,1.84c-.24.46-.46.81-.58.78-7.93-1.9-18.38-4.79-25.51-8.6-.19-.1-.16-.61-.06-1.23-3.18-3.06-2.3-10.45,3.21-10.87,5.47,1.95,11,3.68,16.6,5.18-4.8-12.39-9.16-25.5-13.1-39.35-4.65-3.26-3.18-6.89,4.41-10.89,1.87-.21,3.5-1.84,5.03-2.76,2.99,1.53,3.06,4.42,4.68,7.04l9.99,16.07c2.01,7.47,4.42,15.22,9.51,21.12s10.35,9.54,5.84,15.4Z"/>
  <path class="cls-7" d="M287.02,371.03c2.18-.96,3.94-.83,3.03,1.71-6.41,3.13-12.13,7.28-17.16,12.45-.71.48-2.13,1.23-2.82,1.78-4.69.97-8.92,4.38-12.66,7.52-21.02,17.68-38.59,40.81-47.15,67.23l-2.47,3.27c.79.99,1.11,2.09.84,3.3-4.1,18.52-6.78,30.75-5.45,50.7,1.75,26.37,9.52,52.4,25.88,73.27.58,1.84,1.17,3.69,1.77,5.52l2.95.5c4.34,6.24,9.32,11.87,14.93,16.91,4.36,2.89,8.36,6.64,11.7,10.47,2.07,2.37.68,3.97-2.09,2.37-5.16-3.97-10.1-7.39-15.16-12.27-23.41-22.55-39.1-50.86-44.8-83.08-2.81-15.87-2.92-40.96.68-56.56,4.44-19.24,11.81-36.07,22.53-52.6,9.7-14.96,22.29-26.67,36.65-37.37,2.9-2.16,4.44-4.6,8.35-5.95,2.55-.88,9.37-6.1,13.39-6.7,2.13-.32,5.29-1.5,7.05-2.48Z"/>
  <path class="cls-54" d="M513.02,542.96c1.65,2.75-5.34,8.83-8,7.17-1.66,3.62-4.88,6.48-7.92,9.02-8.39,7.03-19.74,15.16-28.87,21.37-25.62,17.43-57.89,22.77-88.23,20.38l-3.08-1.95c-3.99,3.13-12.37,3.03-16.65.38-1.01,3.22-6.77,3.09-7.28-.33l.7-2.32c6.54-.55,13.08-.9,19.61-1.06,2-2.71,4.28-4.3,6.83-4.77,8.36-.65,16.64-.6,24.86.15l2.84-1.03c30.19-.43,55.87-16.32,77.25-35.9,3.42-1.91,5.75-6.98,9.9-7.9,5.51-5.01,11.17-6.83,16.97-5.47l1.06,2.26Z"/>
  <path class="cls-68" d="M578.04,590.05l-5.76,6.18c.19,1.82,2.73,2.47,3.29,4.21,1.79,5.54,3.95,11.08,5.04,16.84.57,2.99,1.74,4.57,2.62,7.33l2.63,8.27c2.77,8.71,5.74,6.64,5.06,9.29-.62,2.42-18.09-4.19-21.17-5.12-3.85-1.17-1.56,7.96-2.83,8.93-.43.4-.84.7-1.22.66-1.98-.23-14.49-6.69-15.6-8.09-.46-.58-.52-15.2,4.13-11.59,5.62,3.16,7.48,2.6,5.58-1.67-3.4-5.93-6.52-12.68-3.75-19.21,2.84-3.85,11.04-9.14,16.62-13.39,1.97-1.5,3.18-2.41,5.35-2.65Z"/>
  <path class="cls-28" d="M418.28,418c7.71-.01,15.71,2.33,22.72,4.77-.12,1.66-1.29,2.71-3.51,3.15l-5.47,3.43c-56.53-.57-84.79-.85-84.79-.85l-9.23,1.65c-2.4,1.3-5.42.89-7.91,1.87-1.91.68-3.19.59-3.83-.25-2.07-2.08-.72-4.34,4.06-6.78l19.76-6.89c22.53-.77,45.86-1.07,68.2-.1Z"/>
  <path class="cls-21" d="M760.15,640.56l-2.54-1.72c-2.99.6-14.37-.14-9.64-3.62-.21-3.58,5.82-6.04,8.89-4.62-.14-.45-.24-.89-.21-1.33.09-1.26,18.42-12.61,20.84-13.88l2.47.67c-.19-2.89,1.86-6.73,5.04-5.06-.78-3.43,4.96-7.3,8.07-5.87,4.19-1.19,6.92-3.36,8.2-6.5,14.05-16.48,27.76-34.69,31.74-56.32,1.74-2.19,4.14-4.61,6.93-3.41-9.04,44.92-39.17,80.62-79.79,101.65Z"/>
  <path class="cls-78" d="M990.98,90.91c-.21.24-.41.61-.67.61-.38,0-1.52-.49-1.71-.94-1.9-4.57-5.8-6.08-8.83-9.41-32.2-35.42-75.01-57.82-122.33-64.08-4.19-.56-8.12-2.27-12.57-2.21-13.08.18-25.77.37-38.83-1.17-3.72-.44-6.79-1.07-10.58-.28-5.26,1.09-10.99-1.63-16.31-.18-3.45.94-5.9.3-9.25.03-10.58-.87-16.9.26-26.95-.1-7.93-.28-15.89,2.09-23.68.36-2.78-.61-4.94.12-7.5.02-7.68-.31-15.29-1.39-23.1.13.6-.12-58.21-.24-63.6-.18l-17.72.21c-9.95.12-19.75-.71-29.35-.71v-1l256.74.21c5.8,0,10.53.58,16.21,1.12,55.33,5.23,107.66,33.05,140.02,77.59Z"/>
  <path class="cls-109" d="M711.94,585.07c8.56-1.22,1.55,3.39-3.54,4l-.32.94c-.03.8-.07,2.01-.62,2.2-5,1.69-15.51,4.31-20.92,5.06-.15.02,2.72-.77,2.44.6,1.93-.22,1.95.56.02,1.17-1.53.83-3.15,1.65-4.92,1.74-6.36.31-29.97.99-33.86-.62-.85-.35-1.64-.83-2.42-1.35-.16.74-.8,1.71-1.42,1.98-2.92,1.31-34.4-1.37-37.19-2.2l-2.15-2.63c-4.5-1.43.45-10.05,4.1-9,4.29.74,9,1.89,13.9,1.96,20.88.32,41.02.77,61.94.03,8.44-.3,17.36-1.5,24.96-3.88Z"/>
  <path class="cls-17" d="M556.07,606.08c2.15,2.9.47,7.58,1.59,10.45,2.02,5.16,7.01,9.56,3.34,15.68-2.86-1.8-5.87-2.8-9.01-3.95.15,3.98.78,6.88-.2,10.78,5.42,2.48,9.9,5.53,15.13,6.92,3.73,3.01,20.99,7.72,26.16,9.05l2.98-1.33c6.15.82,12.15,1.98,18.02,3.5l37.91.68c.3,0,38.98,1.68,41,2.13-20.48.82-41.72.88-62,0-9.34,0-21.84.08-31.54-1.78-23.74-4.56-45.04-14.22-64.49-28.28-1.58-1.14-5.3-2.93-4.29-5.3,8.46-6.54,16.69-13.18,25.39-18.56Z"/>
  <path class="cls-6" d="M513.09,494.66c-2.99,2.67-6.95,4.44-9.98,7.46l-4.45,4.44c-1.13,1.13-26.15,19.18-31.49,23.67-6.68,5.61-13.66,11.26-20.62,16.21-5.82,4.14-11.31-.08-14.4-3.6-.17-2.01,1.28-1.85,1.78.03,1.93.29,2.57-.93,1.93-3.69,7.27-7.71,16.97-14.4,25.92-20.11.21-.13.59,0,1.01.21l-.24-.83c6.78-4.87,13.44-9.96,19.99-15.27,2.54-3.5,5.48-5.18,8.8-5.04l1.21.71c-1.63,7.29-.54,8.94,3.27,4.97l13.48-10.41c2.03-1.26,3.55-1.4,3.78,1.27Z"/>
  <path class="cls-118" d="M258.91,615.96c3.23-.22,4.37.77,3.41,2.98l4.33.88c11.41,8.69,24.43,14.97,38.12,19.15l3.22,3.02c1.1,3.6-7.73,1.17-7.86,5.6-.02.69,1.64,1.44,1.36,1.71-.29.28-1.12.85-1.5.71-3.77.72-8.7-1.76-11.99-4.06-10.77-4.63-20.52-10.84-29.69-17.89.19.1.62.18,1.78-.83-3.88-.26-5.08-5.42-7.89-7.12-9.58-5.79-14.9-14.25-21.37-22.31-2.32-3.3-2.97-6.44,1.18-7.88l3.85,1.74c6.17,7.73,13.4,14.55,21.27,20.52l1.78,3.79Z"/>
  <path class="cls-9" d="M839.94,538.91c-1.26,1.68-3.25,2.22-5.19,4.03.84,4.4-2.87,7.78-3.22,11.48s-2.4,5.7-3.34,8.43c-2.35,6.79-5.7,12.17-10.46,17.68-4.18,4.84-7.01,11.13-11.64,15.52-7.65,7.24-1.03,8.52-13.01,9.09l1.1-4.26c12.71-14.57,23.66-30.94,29.62-49.47l3.04-3.17c-2.57-2.47,1.2-11.1,4.2-12.31.44.82-.11,1.74.23,3.12,2.2-1.09,1.22-3.81,2.17-5.59,4.48-8.44,1.94-14.18,4.29-27.14.42-2.3,2.37-4.64,1.28-7.23-1.49-3.51,2.05-4.85,2.45-7.1.66-3.67-1.29-7.75-.44-11.13,1.84,4.7,3.41,29.79,2.72,36.15-.82,7.66-2.36,14.83-3.78,21.9Z"/>
  <path class="cls-24" d="M610,429c1.71.07,3.04.4,4,1-14.7,3.38-28.41,8.87-40.62,18.43l-38.61,30.23c-6.95,5.44-15.05,11.54-21.68,15.99-2.35-2.57-15.88,12.85-22.3,14.1-2.12-4.01-.11-7.27.55-10.64,1.53-3.23,5.34-5.86,8.74-7.12-.7-2.43,3.72-6.12,5.99-5,5.86-6.36,12.39-11.7,19.59-16.03l2.36-.04c-.2-1.35,3.89-4.62,5.44-3.81,2.48.89,2.22,2.84-.77,5.85.84,1.02,1.81,1.51,2.89,1.47l39.95-30.49c6.6-5.06,23.64-15.56,31.72-15.3,1.06.03,1.95.73,2.74,1.36Z"/>
  <path class="cls-105" d="M327,359.05c.88-1.35,3.47-1.69,4-.05,27.13-.37,54.41-.08,81.84.85,7.32,4.59,5.16,6.5-6.46,5.73l-1.52.51-62.91-.04c-11.41,0-22.3,2.21-32.96,4.16l-1.14-.9c-2.24,1.07-5.58-.08-5-2.68.39-1.76,10.37-4,12.72-4.23.09,0-1.51.4-1.64-.48,3.98-2.09,8.76-1.51,13.08-2.88Z"/>
  <path class="cls-4" d="M640,357.16c17.76.27,35.6.6,53.5.99,2.6.42,14.99,3.87,15.54,6.17.18.78.32,1.45.05,1.82-.52.71-11.26-.01-13.19-.26l-.91,2.01c-17.92.1-35.85.2-53.79.31l-1.21-1.99-16.86.38c-1.18,2.51-2.51,1.59-4.22-.45-.44-.6.36-.99,1.13-1l41.45-.57c-5.67-2.82-11.57-2.08-17.15-2.14l-23.5-.27-14.93-3.22c-.42-.64.36-.75,1.1-.78l32.98-.98Z"/>
  <path class="cls-115" d="M602.04,549.01l-42.21,32.05c-1.53-1.38-1.54-3.71-.05-7.02-.26-2.5.21-4.48,1.42-5.94-1.1-2.32,9.15-11.42,10.09-11.59s1.88,0,2.74.49c6.59-7.64,15.48-15.41,24.91-19.1-.82-3.38,5.32-6.07,8.02-4.77,2.83-.46.94,7.81.18,9.4-.57,1.18-5.04,6.73-5.47,5.99-.31-.53,1.25-1.15.38.49Z"/>
  <path class="cls-23" d="M613.11,646.92c6.87,1.41,45.95.52,54.96.12,1,2.32-.33,3.42-3.99,3.29l.52,4.66c6.04-.64,11.62-.18,16.73,1.36l.67,1.53c-9.88-.55-20.15,1.19-30,0l-38.7-.7c-3.89-.33-8.52-3.16-10.34-6.54-3.97-.56-5.42-5.74-.8-4.71,3.53.51,7.46.28,10.95.99Z"/>
  <path class="cls-70" d="M753.13,370c-.91.33-1.94-.8-3.41.4l10.29,5.04c-4.35,5.76-15.95-7.04-15.9-.64-.47.77-1.07,1.59-1.92,1.71-1.12.16-20.55-5.02-21.93-5.67l-1.18-1.97c-7.03-.37-14.09-.41-21.18-.11-1.94-.08-2.66-.95-2-2.89,3.99-.84,8.1-.16,12.07-.22-2.04-3.18-5.77-1.98-8.12-3.46-4.24-2.65-8.05-4.02-13.15-4.04l-45.59-.2c-.72,0-1.23-.34-1.11-.8h48.89c22.95,0,44.18,3.53,64.25,12.84Z"/>
  <path class="cls-123" d="M747.97,635.23c-.51.49.07,1.61.8,1.41,2.37-.7,4.02.41,6.15.67,1.35.17,2.93-1.12,4.19,0,.71.64.88,2.12,1.04,3.25l-16.03,8.3c-9.1,3.63-19.03,7.59-29.2,7.17-1.13-.7-1.99-.82-3.19-.04-.83.37-2.29.55-2.48-.05-.72-2.26-1.95-8.32-.17-9.7,4.32-2.84,9.38-4.57,15.18-5.2,5.36-2.21,10.62-3.16,15.78-2.84-1.02-2.87,6.18-5.51,7.92-2.98Z"/>
  <path class="cls-62" d="M514.85,614.98c-1.57,1.02-3.71,3.65-4.77,5.13-7.35,7.01-15.42,12.95-24.22,17.82-2.82,2.39-7.7,3.06-10.89,4.69-.42-.19-1.04.36-1.67-.26,1.62-1.41,4.09-4.39,1.81-6.27-1.66-1.37-4.08-1.38-4.93-3.07l.86-2.61c8.58-4.23,16.92-9.17,24.16-15.47l2.74.18c.62-3.67,5.73-7.63,9.04-5.86,4.47-2.98,10.87,1.44,7.88,5.74Z"/>
  <path class="cls-113" d="M771.09,545.08c.34.76.55,1.46.32,1.95-2.71,5.85-7.41,14.95-13.23,16.97-4.15,5.23-9.32,9.77-15.51,13.61l-2.64-.54c-4.92.03-2.21-4.3-.29-7,2.63-1.7,4.67-5.8,7.39-7.78,6.38-4.63,8.53-11.4,11.98-17.21,5.83-14.02,10.38-29.22,9.08-44.58l.81-1.5,2.21.62c1.51,9.16,1.19,18.72-.68,27.8l2.97,7.34c-1.25,3.43-2.05,6.87-2.4,10.32Z"/>
  <path class="cls-50" d="M349,417.74l1.08.36c-2.64-.4-4.02,3.58-5.79,3.92-4.82.95-16.93,4.88-18.04,9.75l.25.78c-3.28.98-6.18,2.4-8.7,4.28-7.27,2.84-13.89,6.47-19.77,12.19-1.24,1.21-3.57,1.9-3.33,3.89-3.19,3.88-6.32,7.84-9.39,11.91l-1.35.25c-.88.02-2-.25-2.08-.94-.31-2.98,9.83-16.08,12.34-18.27l6.45-9.6-.51-3.39c.89-2.9,3.53-4.8,7.93-5.69.32-.7.66-1.38,1.12-1.97,3.29-4.32,31.69-9.52,37.91-8.69.67.09,1.28.6,1.87,1.23Z"/>
  <path class="cls-95" d="M709.08,646.25c2.86,5.96,1.17,10.47,2.65,9.75-2.33,1.52-5.73.37-8.41,1.58s-4.68,1.75-7.71.67c-4.39-1.57-9.49.71-13.61-.37-7.5-1.97-15.3-.19-23.06-1.07,1.16-1.43,2.81-.76,3.57-1.8,1.09-1.51-2.02-6.35.53-6.65,2.13-.25,3.94.12,5.03-1.32.35.03.71-.07,1.06-.02,1.06-1.52,1.44-1.73,1.78.17,2.91.64,4.74.15,5.51-1.5,20.39-.78,30.58-1.17,30.58-1.17l2.07,1.73Z"/>
  <path class="cls-99" d="M451.88,463.9c.76,2.69-.15,3.69-2.87,3.08l-.94,2.77c-5.42,3.6-10.45,7.7-15.08,12.32l-2.97-.06.1,2.55-5.69,5.79c-1.4,3.23-3.2,5.42-5.41,6.56-1.93,6.15-3.44,12.42-4.54,18.81-2.31,2.33-3.43,1.12-3.36-3.62l-.11-10.11c1.34-12.64,6.41-25.78,18.3-31.75-2.55,4.16,18.27-12.37,14.69-9.02,2.66-.61,8.89-1.05,7.87,2.66Z"/>
  <path class="cls-102" d="M633.92,495.07c.79,4.23,1.72,7.97,1.14,12.99-1.16,10.06-4.51,19.24-12.66,25.45l-20.36,15.5c-3.51-1.6,1.59.95,3.14-6.92l1.77-8.96.03-2.82c5.04-4.13,9.57-8.73,13.61-13.79l2.71-.56c2.75-1.96,4.25-5.29,4.48-10-.57-2.8,2.03-16.13,5.36-12.27.34.39.57.87.78,1.38Z"/>
  <path class="cls-71" d="M607.14,473.95c-.59,1.48-1.98,2.64-4.18,3.5-2.4,3.3-4.74,4.52-7.02,3.67-2.23,3.82-5.69,6.97-10.39,9.47-3.2,3.43-6.72,5.58-10.55,6.46.26,2.8-.26,2.84-2.07.72-2,1.21-3.7.2-5.11-3.05-1.5.49-2.56.79-3.86-.6,11.15-9.57,22.97-18.57,35.17-26.8l7.84,4.34.16,2.29Z"/>
  <path class="cls-117" d="M572.94,497.77c.23,2.61-6.4,8.97-8.69,10.21-1.15.63-1.83.84-3.16-.12-1.23,4.11-7.78,7.99-11.73,10.18-2.48,2.45-4.66,3.1-6.56,1.95-2.02,1.19-4.24,1.01-6.67-.56-1.98,1.25-3.41,2.16-4.87-.24,10.38-8.91,21.22-17.74,32.71-25.08,1.19-.76,2.79-1.35,3.86-1.35,2.53,0,3.25,5.16,5.11,5Z"/>
  <path class="cls-19" d="M542.8,520c.85,3.01-5.78,9.93-8.72,8.03.21.88.3,1.93-.27,2.64-1.22,1.54-15.92,11.59-18.46,13.09l-2.32-.8c-15.52-3.32-7.85.94-18.03,3.21.49-1.69,1.99-2.23,3.9-3.46,10.93-7.03,21.26-17.5,32.37-23.51,6.96-1.26.16-3.95,11.54.8Z"/>
  <path class="cls-65" d="M537.01,585.97c1.34,2.56,2.64,5.28,3.88,8.14l-5,4.75c-6.18,6.25-13.68,11.34-21.04,16.12-3.74-7.37-2.78-3.37-7.88-5.74.38-1.02.79-2.01,1.33-2.93s1.07-1.76,1.8-2.41c7.73-6.92,17.21-15.03,26.9-17.94Z"/>
  <path class="cls-88" d="M559.83,581.06c-7.88,5.99-15.32,12.86-23.94,17.81,0-1.75,1.81-2.01,2.44-2.92,2.68-3.83-4.6-5.08-1.32-9.98-1.31-2.4,2.72-6.98,5.11-5.12-1.32-2.74,3.87-5.83,5.9-3.69,1.3-2.32,8.83-9.95,10.87-9.9.88.02,1.64.24,2.3.84,1.87,4.22-.06,8.9-1.37,12.96Z"/>
  <path class="cls-86" d="M300,650c11.82,4.16,24.23,7.09,37.57,7.53,27.1.89,53.89.68,81.06.1,15.47-.33,29.28-5.14,43.5-8.65-.91.63-1.12,2.02-3.08,2.2-3.51.31-6.65,2.04-10.11,2.87-7.16,1.7-14.5,3.34-21.93,4.35l-12,1.61c-24.8,1.65-50.18,1.94-75,0l-8.04-1.28c-5.21-.83-10.36-1.67-15.54-2.34-2.44-.32-28.71-6.68-28.42-10.43,3.89,1.67,8.03,2.66,11.99,4.06Z"/>
  <path class="cls-44" d="M426.2,529.79c3.82-1.47,5.02,3.28,5.29,6.62,3.02,1.72,8.25,7.15,2.44,6.44l-1.78-.03c-5.19-5.93-24.81-6-21.12-40.83.47,5.07.05,9.99,1.73,15.13-1.82-2.1,6.81-22.32,6.28-20.2l1.61,1.92c-1.97,9.6-2.1,21.22,5.6,28.41l-.03,2.53Z"/>
  <path class="cls-31" d="M10,487V200.26c0-1.03.63-1.37,1-1.26v286.74c-.27,1.03-.46,1.37-1,1.26Z"/>
  <path class="cls-37" d="M441,422.77c3.96,1.38,8.09,2.39,11.92,4.2.97,2.46-.89,6.67-2.44,9.04l-6.49-2.12c-10.39-3.3-21.63-4.39-32.99-3.77-2.59.14-4.69-1.01-7.09-1.02l-48.92-.1c-3.33.33-6.66.66-10,1-2.34,0-4.67-.09-7,.16,2.7-1.46,6.32-2.16,10.01-2.15l73.91.2c4.51.01,8.35.82,12.17-2.4,1.99-1.68,4.48-2.77,6.92-3.04Z"/>
  <path class="cls-8" d="M574,1032c.87.28.86.62,0,1h-276v-1h276Z"/>
  <path class="cls-77" d="M839.95,477.25c-.13-1.64-2.94-4-3.54-5.45-2.2-5.33-4.18-12.56-7.17-18-3.41-6.21-4.45-13.04-8.17-18.98-1.23-1.97-3.42-3.36-4.1-5.77-2.64-9.41-8.4-7.57-5.91-15.11,10.77,8.85,29.02,49.51,28.89,63.3Z"/>
  <path class="cls-101" d="M313.92,361.93c1.67.04,3.58-.54,5.18.83-5.72-.09-10.28,1.82-14.89,4.13,2.53,2.73,4.6.24,7.93,1.28-.68,1.31-2.6.75-3.15,2.05-5.63,1.03-29.9,11.4-36.1,14.98-.13-2.71,1.8-4.45,4.09-6.37l3.64-3.05c2.5-2.09,6-2.33,8.45-4.34-.94-.79-1.57-.23-2.04-.4,5.61-3.14,11.33-5.76,18.15-6.99,3.08-.56,5.89-2.19,8.75-2.11Z"/>
  <path class="cls-121" d="M611.14,586.96c-.52.13-1.27-.37-2.15.51.62.86,3.3.94,2.81,2.59-.65,1.02-2.98.23-3.58,1.03-1.05,1.4-1.47,3.48-1.19,4.88-3.79,3.27-9.96-.59-12.98-4.02l-9.98-5.88c2.66-1.16,5.18-5.86,8.66-4.96,6.47,1.68,12.28,4.81,18.39,5.86Z"/>
  <path class="cls-27" d="M294.71,452.91c.35,2.9-2.03,3.89-3.83,6.08-16.31,19.89-21.07,46.76-13.55,71.38,1.38,4.51,2.03,8.77,4.6,12.58,1,1.48,2.23,2.64.94,4.06-4.08.57-9.87-9.05-6.85-12.12-3.3-.08-5.59-9.98-2.9-11.82-.05-3.14-.88-5.12-2.5-5.93-1.91-13.5,1.35-39.5,10-50.21.83-1.03,2.11-1.52,3.35-1.88,2.67-4.57,6.8-8.98,10.74-12.15Z"/>
  <path class="cls-42" d="M276.02,534.9c1.08,4.39,3.99,8.53,6.85,12.12.24.57-.06,1.6.32,2.1.74,2.68.22,5.69-1.56,9.05,1.35,2.11,1.63,5.13-1.63,3.8-.7,1.09-1.49.12-1.34-1.06-.53.34-.98.58-1.13.45-2.49-1.98-6.43-9.24-7.49-12.52-2.93,1.15-4.39-1.7-2.04-3.77-1.38-4.29,3.71-12.37,8.02-10.18Z"/>
  <rect class="cls-2" x="574" y="1032" width="200" height="1"/>
  <path class="cls-119" d="M624.97,480.87c5.04,3.49,7.79,8.04,8.95,14.2-6.59-1.3-2.01,18.5-10.37,22.47l-.25-1.57c-1.11-1.67-.99-3.71.35-6.12l.66-12.19,1.7-1.88-2.29-1.12c-1.35-5.14-4.06-9.73-8.12-13.77-.56-1.69-.53-2.11,1.42-3.04l1.05-.54c2.29,1.82,4.59,3.01,6.92,3.56Z"/>
  <path class="cls-66" d="M739.74,570.07c2.21.81-2.06,3.03.29,7-.16,1.17-.41,2.44-1.28,3.3-4.27,4.18-20.99,9.68-27.33,10.89l-3.34-1.25c-.67-.2-1.68.28-2.22-1.29,3.52-.52,6.31-1.75,9.2-3.27-1.36-.91-2.29-.28-3.12-.37,10.1-3.16,18.99-9.31,27.8-15Z"/>
  <path class="cls-15" d="M346,356c21.99-.87,45.02-.85,67,0,3.08,0,6.2-.18,9.63.37,3.02.48,34.23,4.23,30.37,7.64-.33.56-.63.98-.86.94-2.15-.35-8.36-2.06-10.54-2.8-.29-.1-.46-.51-.61-1.02-2-.89-5.19-1.19-6.89.39-14.06-1.61-27.7-2.25-42.05-2.4-20.34-.21-41.08-.26-61.05-.13-1.26.15-2.79-.34-4,.05-3.83-2.98,18.47-3.05,19-3.05Z"/>
  <path class="cls-25" d="M485.09,554.07c.59,1.26-.82,2.03-1.95,2.95l-17.22,13.96-15.15,9.7c-2.99,1.92-7.03,2.12-10.32,3.72-5.14,2.5-10.89,3.06-16.27,4.82-6.44,2.11-12.89,1.65-19.19,1.77-.87-.28-.86-.62,0-1,.26-.42.93-.75,2-1,.65,0,1.36-.13,2,0,3.29-.38,6.64-.72,10.05-1.02,15.66-2.86,30.51-8.71,44.2-17.77,7.81-5.17,14.06-11.8,21.84-16.13Z"/>
  <path class="cls-124" d="M759.88,471.95c3.3,2.24,5.4,5.55,6.3,9.93,1.89,4.92,4.77,12.47,2.82,17.12.58,15.85-1.87,32.6-9.89,46.08-.63-3.52,2.38-6.29,3.21-9.73l5.03-20.97c2.02-8.43-1.22-22.02-4.18-30.59-5.09-14.73-14.86-28.03-27.26-37.51-11.65-8.91-24.67-13-37.98-16.2.89-.71,2.03-.94,3.41-.68.61-.35,1.23-.63,1.86-.65,21.15-.68,47.1,22.82,57.4,40.37l-.71,2.83Z"/>
  <path class="cls-92" d="M347.86,588.89c.88.17.83.43-.06.77-2.19,3.32-10.79,3.57-13.72.32-6.03,1.71-26.16-2.88-28.85-7.41-.28-.47-.3-1.09-.25-1.75-.47-1.7-.34-3.62.42-5.74l2.58.18c12.27,6.19,25.84,13.61,39.89,13.64Z"/>
  <path class="cls-49" d="M293.74,563c3.76,4.95,10.41,7.35,14.24,12.25-3.87,3.13.76,5.94-2.99,5.56l-2.64.6c-3.59-1.46-11.87-7.05-14.52-9.88-.25-.27-.1-.91.17-1.66,0-3.1,2.23-9.95,5.75-6.87Z"/>
  <path class="cls-90" d="M293.74,563c-3.8,1.12-2.64,7.02-5.75,6.87-2.65.58-7.74-5.37-7.99-7.9,1.94-.4-.46-2.54-.34-3.72.34-3.27,2.37-6.31,3.53-9.13l10.55,13.88Z"/>
  <path class="cls-69" d="M329,13c-45.4,0-91.29,1.72-137.03.99-.43-.56.26-.99,1.2-.99h135.83Z"/>
  <path class="cls-55" d="M687,428c.54-3.37,8.74-2.64,8,1,1.13-1.49,6.02-1.72,6.33.4-.96.26-2.29.69-3.41.68l-8.92-.08c-22.58-.87-46.4-.85-69,0-1.86,0-4.19-.42-6,0-1.35-.04-3.35.52-4-1,1-2.34,3.35-3.28,7.05-2.82,3.78-.3,9.76-.59,12.73,1.25,19.2-.22,38.28-.03,57.22.57Z"/>
  <path class="cls-111" d="M440.99,361.14c4.21-.41,8.12,1.98,12.01,2.88,6.25,1.45,11.66,4.17,16.95,7.19-1-.35-.91.24.26,1.76l-3.7.67c-9.93-4.06-20.06-7.72-30.67-9.56-4.76-3.72,1.85-4.48,5.15-2.94Z"/>
  <path class="cls-35" d="M493,386c2.76.15,4.8,3.28,6.06,5.5-2.17,1.73-4.46,1.95-5.85,3.39-.21-4.03-7.04-6.18-9.44-9.17-2.79-.9-1.65-4.02,1.22-3.78l1.12-.89c2.23,2.11,4.53,3.76,6.9,4.94Z"/>
  <path class="cls-103" d="M624.97,480.87c.9,3.05-5.35-2-7.96-3.02-1.98,2.62-10.82-.38-9.87-3.9-2.91-1.97-6.03-3.86-8.01-6.63,3.17-2.14,22.49,11.23,25.83,13.55Z"/>
  <path class="cls-39" d="M415,660c-24.52,3.3-50.63,3.88-75,0h75Z"/>
  <path class="cls-116" d="M469.95,371.21c1.57.9,12.62,2.78,23.05,14.79-1.67,2.35-2.01-1.08-8.02-4.06-1.3,1.12-2.1.91-3.39.4-1.62-.64-9.06-5.55-10.64-6.86l-.74-2.52c-.34-.49-.83-.89-1.69-.98-.81-.08-.39-.78.3-1.02.31-.11.75.02,1.13.25Z"/>
  <path class="cls-34" d="M458.86,423.05c-2.53,2.45-4.69,5.84-4.58,9.57.09,2.97,2.74,5.58,5.51,7.44-6.73-.09-10.86-4.6-15.8-6.17,1.8-.15,3.57.38,5.58.75.75-2.91,1.59-5.7,3.35-7.67,1.55-1.73,3.95-2.9,5.94-3.92Z"/>
  <path class="cls-60" d="M689,430h-69c-.12-.37.35-1,1.1-1h66.8c.76,0,1.22.63,1.1,1Z"/>
  <path class="cls-32" d="M413,356h-67c-.12-.37.35-1,1.1-1h64.8c.75,0,1.22.63,1.1,1Z"/>
  <path class="cls-82" d="M693,660c-19.73,2.46-40.18.07-60.88,1.21-.69.04-1.26-1.06-1.12-1.21h62Z"/>
  <path class="cls-54" d="M407,589c-.2.95-1.21,1-2,1-7.77.45-15.74.71-23.9.77-4.6,2.07-7.97,1.82-10.1-.77l-21.74,1.05-1.46-1.39.06-.77,59.14.11Z"/>
  <path class="cls-82" d="M485.86,637.93l24.22-17.82c-.77,2.48-2.69,3.29-4.85,5.04l-13.78,11.21c-1.87,1.52-4,1.43-5.59,1.57Z"/>
  <path class="cls-82" d="M744.12,648.86c-3.58,1.86-6.49,5.05-11.66,4.76-3.51-.2-6.19,2.14-9.03,3.8-2.38.29-6.42-.08-8.51-1.39,6.17-1.12,12.41-2.56,18.9-4.22,3.68-.94,6.79-3.08,10.3-2.95Z"/>
  <path class="cls-37" d="M330.08,432.03l-12.28,4.8c-.21-1,.59-1.75,1.75-2.24l6.7-2.81,3.83.25Z"/>
  <path class="cls-54" d="M419.05,587.98c-3.13.57-6.45,1.73-10.05,1.02-.11-.47.34-.91,1.04-.92l9.01-.1Z"/>
  <path class="cls-41" d="M355,429c.07.8-.9,1.01-1.94,1.01h-8.06c-.07-.81.9-1.03,1.94-1.02h8.06Z"/>
  <path class="cls-52" d="M418.28,417.12c-23.08.4-46.17.61-69.28.62-14.28.72-27.74,3.29-40.89,9.43l-5.41,2.24c-5.42,4.01-11.28,7.23-17.56,9.66-4.84,14.56-19.39,17.72-32.84,19.76,1.29,4.94,4.21,9.4,8.75,13.38l1.97,3.58c-7.22,21.94-7.17,43.82,2.17,65.33.04.09.46,0,.99-.12,2.34-.92,2.95.44,1.82,4.07.19,1.06,1.41,2.89,2.04,3.77,5.32,11.86,13.65,22.22,23.61,30.8,1.05,5.57,3.49,7.5,7.92,10.75,2.86,2.92,8.25,8.57,1.47,8.53-.82,2.98-3.41,4.37-7.76,4.18-6.52,4.16-13.27,6.42-20.26,6.75-4.44,2.28-8.86,4.68-13.26,7.22l-2.86-1.12c-10.01-7.18-19.49-15.98-26.89-26.06-1.55-.46-3-1.16-4.11-2.35-7.56-8.11-16.45-30.89-19.63-41.98-6.32-22-6.73-43.95-2.53-66.29,1.09-5.78,2.69-12.81,6.32-17.32-.94-.8-1.21-1.69-.84-2.79,2.38-7.14,11.11-27.91,16.6-32.42.25-.21.82-.02,1.49.28.22.41.26,1.27.62,1.33,1.76-1.94,3.59-2.2,5.46-2.14s1.86,3,3.36,3.86c2.7,1.55,4.52,3.33,6.72,5.28-1.28-1.13,6.86,2.62,7.93,2.3,2.35-.69.33-4.61,3.06-5.01.77-.11,2.04,1.29,3.01,1.01l14.02-3.99c4.27-1.22,7.07-2.2,10.79-4.26,3.28-1.82,8.37-.61,9.73-5.59,7.22,2.46,13.68,1.41,20.17-1.44,2.91-1.28,6.75.78,9.82-.04,8.67-2.32,16.98-3.4,26.05-3.39l66.81.06c.92,0,1.62.86,2.08,1.45.17.22-.3.39-.67.65Z"/>
  <path class="cls-125" d="M440.99,361.14c-2.03.2-4.25-.78-6.27.8,13.1,1.92,24.14,6.48,35.49,11.03,5.23,2.09,9.74,6.48,14.77,8.98l-1.22,3.78c-5.04-1.72-9.75-3.99-14.73-6.7-20.04-10.89-42.15-12.91-64.18-12.93-1.71-2.05,9.9-.45,10.86-1.49-1.38-2.37-4.06-3.47-7.02-3.5l-55.45-.56-10.16-.88c-4.26-.37-8.17-1.15-12.09-.68-.12-.34.37-1.03,1.04-1.02,9.01.09,17.46.15,26.46-.44,13.96-.91,28.02-.42,41.98.03l23.23.76,15.29,1.74c1.11.13,2.24-.03,1.99,1.06Z"/>
  <path class="cls-101" d="M270.07,386.98c-8.93,7.22-18.59,13.66-26.76,22.33-5.35,5.68-9.41,11.99-14.02,17.72-2.43,3.02-4.82,5.67-6.6,9.88-3.57,8.46-8.62,16.34-10.64,25.05-1.24,2.91-2.66,3.93-4.26,3.04,3.54-12.39,8.65-24.07,16.13-35.3,5.4-8.11,12.53-14.57,18.38-22.38,5.69-7.6,12.37-13.6,20.33-18.77,2.55-1.65,4.54-3.08,7.43-1.58Z"/>
  <path class="cls-12" d="M418.28,417.12v.88s-68.2.1-68.2.1c-.36,0-.72-.33-1.08-.36,22.96-1.15,46.15-.77,69.28-.62Z"/>
  <path class="cls-89" d="M497.93,615.11c-6.9,6.73-19.05,13.92-27.75,17.91-20.86,9.55-43.48,14.76-66.88,14.71-10.49-.02-20.39.07-30.3.02l-11.42-.72c-.67-1.87.19-3.96,2.58-6.28-3.74-6.83-1.36-7.46,4.97-8.88-.13-2,.97-2.3,2.67-2.44,11.83.87,23.47.76,34.16-5.03l7.38-.14c15.48-5.89,31.29-10.85,47.45-14.88,6.06-3.31,12.33-6.03,18.83-8.16,5.57-4.38,11.59-8.3,18.06-11.76l2.39.43,1.85,1.16-2.35,15.49c.97,3.59.43,6.45-1.62,8.57Z"/>
  <path class="cls-96" d="M269.82,616.1c2.22-.87,4.85-1.36,7.89-1.49,4.77,1.4,9.6,2.22,14.49,2.46,7.38,2.84,14.89,5.38,22.53,7.61,5.72,1.2,11.52,1.62,17.41,1.27l1.76,2.01c3.67.07,7,.81,9.98,2.21,5.49-1.84,11.31-1.75,17.48.25,3.68-.86,6.26-.37,7.76,1.45-.82,1.21-2.9,1.1-4.03,2.13-2.17,1.98.63,4.19.99,6.22.46,2.61-3.01,4.21-3.59,6.15,3.6,1.76,7.47-.68,10.5,1.37l-12.89-.06c-18.02-.09-35.22-1.05-52.12-5.7-16.55-4.55-32.36-12.07-45.67-23.04-3.1-2.51,6.06-6.3,7.5-2.84Z"/>
  <path class="cls-114" d="M618.91,366.12c7.03.24,14.07-.54,21.09.07l-1.43,2.05-14.65,1.07c-.95,6.53-3.92,12.55-8.91,18.06-.71,3.41-1.13,6.89-1.26,10.45-6.24,3.12-6.54,3.48-2.25,8.95-.88,4.94-4.35,14.29-10.47,13.61,1.18.25-.01.95-1.01,1.36l-2.19,2.98c-13.53,5.79-26.14,13.44-37.84,22.94l-3.98.53c-2.4,1.3-2.93.17-1.86-2.32,13.93-11.09,19.67-16.91.32-25.63-3.76,1.81-6.15.27-8.27-2.96-2.6-5.24-6.49-9.64-11.67-13.2-.93-.99-.32-2.12.53-3.23,21.31-15.93,44.43-29.99,71.85-33.01,4.27-.47,8.18-1.85,12-1.72Z"/>
  <path class="cls-79" d="M535.06,400.85c2.64,6.54,7.33,3.49,12.41,14.62.62,1.35,1.96,2.41,2.55,3.19,1.04,1.37,3.97-.92,5.05-.32,3.96,2.2,8.64,4.41,11.87,7.61,10.01,9.92-16.2,21.84-10.93,22.24.41.67.95,1.74.54,2.13-4.19,3.97-12.51,10.62-17.31,13.76-2.01,2.38-3.94,3.06-5.77,2.04l-5.44,3.81c-2.93,1.62-4.24.89-2.64-2.31,5.62-4.73,10.16-10.42,13.6-17.09-2.78.04-4.54-1.72-5.27-5.3-1.84-2.22-4.4-3.8-7.66-4.71l-.98-3.29c-6.25-4.26-12.87-7.95-19.85-11.07l-1.28-2.07,31.1-23.24Z"/>
  <path class="cls-38" d="M528.03,469.93c-7.39,5.18-14.33,11.18-21.96,16.07-3.23-.74-2-3.07,3.71-6.99,2.71-3.19,2.44-4.73,1.11-8.45-3.72-10.45-13.66-19.94-21.7-27.31l.09-3.05c-3.33-.51-2.08-2.23-.31-4.37.02-3.87,7.06-10.6,10.91-9.15l4.08-2.59c2.65-.2,4.63,1.49,7.17,2.79l9.97,5.11c1.93.99,3.07,2.76,5.28,3.8.89.42.54,3.92,1.85,4.01,5.07.35,7.91,3.9,8.45,8.44,1.22.38,3.52.07,3.97.73.55.79.39,3.28-.52,4.1-7.09,6.36-.94,6.63-14.01,16.38.07.78,1.14.65,1.89.48Z"/>
  <path class="cls-59" d="M499.88,426.68c-3.9,2.47-7.13,6.28-10.91,9.15l-.89,3.1c-11.32,8.66-22.67,17.28-34.05,25.86l-2.15-.88c-.52-1.55-8.36-.09-7.87-2.66,8.41-7.89,18.44-13.95,27.77-21.53,6.75-5.48,13.04-10.76,20.15-15.86,1.72-1.23,3.71-2.72,6.18-1.45,1.21.62.78,2.76,1.77,4.28Z"/>
  <path class="cls-64" d="M607.04,595.96c6.9,2,14.25,2.55,21.91,2.64l18.85.21c2.07.68,2.24,2.21.52,4.6,3.01-.14,5.89,1.07,8.64,3.64,5.1.74,6.9,2.33,5.41,4.76l2.32.93c4.19,6.88,9.03,13.42,14.53,19.6,6.68-1.98,7.79,6.37.84,6.22-1.6,2.01-2.37,4.68-2.29,7.98-2.09.82-4.38,1.04-6.86.65-.58-.12-1.2-.08-1.78-.17.43-.61,1.59-3.95.31-4.23-2.62-.57-16.8-8.06-17.02-8.09-4.75-.68-8.35-.12-11.23-5.26l-6.02-1.57c1.52.4-16.48-9.35-18.15-9.42-2.62-.11-2.88-5.45-4.37-6.91-7.07-6.93-2.72-8.56-7.33-10.31-.93-.35-2.46.52-3.94,1.54-3.24-3.11-4.56-7.47-7.3-10.82,3.81,2.25,8.7,2.78,12.98,4.02Z"/>
  <path class="cls-110" d="M719.09,368.88c4-.64,20.07,5.42,25.03,5.92,17.43,7.47,33.17,17.45,46.9,31.16,15.12,15.1,27.21,32.25,33.94,51.9-1.19,3.98-3.86,2.57-7.99-4.25-2.48-.39-4.94-.86-7.39-1.41l-8.83-9.94c-4.35-7.68-12.89-10.56-20.34-5.13-2.66-.95-5.39-.37-8.18,1.75-3.4-2.36-5.62-2.05-6.67.94.65,4.05-.11,6.85-2.26,8.39,9.9,10.9,20.46,30.88,20.86,45.8.04,1.44-.37,2.78-1.12,4.02,2.95.65,2.65,2.71-.03,3.96-1.13-.83-1.8-2.5-2-5-3.6.69-3.82-5.15-2.14-7.31-11.13-37.15-42.34-67.18-82.44-69.63l-3.23-2.14c-1.41,1.5-2.06,1.43-1.95-.2-.89-.09-.9-.36-.08-.81-1.48.16-1.94-.1-1.38-.77-8.87.14-17.76.16-26.68.09-4-2.35-.41-6.73,3.22-7.87,3.14-6.19,6.61-7.63,12.99-4.18,1.28-2.82,3.69-4.74,6.61-5.63-4.77-13.22,2.29-19.52,13.67-24.57,5.35-6.58,11.81-6.47,19.49-5.09Z"/>
  <path class="cls-46" d="M834.06,499.06c1.3,12.36-1.27,24.62-3.03,36.87-.6,4.17-3.1,8.37-4.2,12.31-1.16,1.93-3.94,2.09-6.05,1.94-9.81-.74-20.86-7.65-27.89-14.3-2.53-.32-3.9,1.53-4.12,5.54-1.14,3.04-3.83,4.18-6.82,4.77l-12.64,12.47-2.43-.41-.42-2.01c9.52-16.16,16.53-33.48,15.68-52.57l.84-1.66c-.07-1.31.19-2.66.03-3.96l.99-4.2c-1.02-7.49,2.49-14.76,10.91-12.08,2.5-2.67,5.77-3.27,9.81-1.82,4.58-1.48,7.76-.38,9.54,3.31,5.32,3.04,11.07,5.5,17.26,7.39l2.52,8.41Z"/>
  <path class="cls-3" d="M824.95,457.86c4.54,13.27,8.76,26.85,9.11,41.19-1.4-13.29-18.72-5.92-23.64-18.25-3.38,1.26-6.45,1.52-9.03.5-3.18-1.26-4.54,2.31-6.22,2.43-3.04.21-3.89-1.79-6.13.05-6.35,5.22.03,9.59-6,14.25-2.27-18.2-9.48-35.06-21.45-49.63,2.6-2.92,1.95-5.39,1.94-8.4,0-2.1,3.76-5.82,5.17-4.97l3.02,1.81c1.58.95,3.55-3.08,5.57-2.66.58.12,1.16.87,2.1,1.12,1.25.33,1.76-1.27,2.35-2.81,2.8,1.6,6.01-.95,8.95-.2,2.16.55,4.55,2.86,7.2,2.31,2.49,4.67,6.67,9.07,10.39,13.04,1.58,1.68,1.6,3.62,4.86,3.39,9.81-.69,6.05,9.01,11.83,6.83Z"/>
  <path class="cls-85" d="M602.16,645.92c-.34.26-.79.34-.89.63-.18.51.32,1.95,1.06,1.94,3.18-.06,3.29,3.95,5.35,4.55s4.34,2.32,5.77,3.69c12.61.68,26.2-.35,38.56,1.14l-40.49-.27c-6.63-.04-12.52-1.06-18.42-2.58-1.68.12-3.88-11.31-3.98-9.55.17-2.94,12.03-.46,13.06.45Z"/>
  <path class="cls-1" d="M232.02,589.91c.22,4.05-3.21,3.12-1.18,7.88-8.78-10.93-16.21-22.61-21.17-36.73-7.6-21.66-10.25-45.22-8.13-68.17.93-10.04,3.71-18.93,6.26-27.89,1.46-.97,2.6-2.41,4.26-3.04-1.67,7.19-4.13,14.13-5.35,22.06-3.79,24.72-1.58,50.23,7.77,73.52,4.68,11.65,10.4,22.65,17.53,32.36Z"/>
  <path class="cls-74" d="M497.98,564.02l1.06,2.1c-2.75,3.46-5.83,6.62-9.27,9.48-6.3,9.64-17.29,18.31-28.42,21.45-13.11,6.4-26.7,10.54-40.79,12.4-11,5.23-23.54,6.46-35.66,5.7-2.95,1.36-5.22,1.41-6.82.15-6.08,1.71-11.1,1-15.08-2.13-3.45-2.45,1.07-5.77,3.7-7.65,4.29-1.31,7.7-3.5,10.22-6.57,20.24-.43,32.35.94,52.52-3.49,16.5-3.62,30.61-10.66,43.79-21.19,10.64-8.5,22.1-15.47,31.78-24.14l1.78,2.28c-2.27,3.66-4.51,7.29-6.73,10.9l-2.09.71Z"/>
  <path class="cls-108" d="M534.04,556.98l.09,2.23c-4.36,4.43-15.14,11.45-20.8,14.55-.53.29-1.57-.85-2.16-1.62-2.98,2.97-4.3.14-5.39-2.95-5.27-.42-7.86-2.14-7.79-5.17.51-7.28,7.14-7.13,7.04-13.9l8-7.17,21.05-14.93,2.33.35c.55,8.42.44,16.99-.35,25.72l-2.02,2.88Z"/>
  <path class="cls-63" d="M376.92,598.94c1.84,7.97-11.24,4.56-13.92,14.22l-1.34,1.98-20.59,1.08c-1.95,2.81-4.68,3.08-8.19.83l-8.69-.1c-4.61-1.6-9.42-2.5-14.42-2.7-6.23-2.67-12.59-4.13-19.08-4.38l-1.81-1.9c3.46-5.83,11.63-6.07,17.84-4.75,3.69,2.02,8.34,3.18,12.5,3.93,12.9,2.32,22.13.88,34.42-3.5,2.51-.89,5.14-2.17,6.63-4.34,5.53-.53,11.1-.26,16.65-.38Z"/>
  <path class="cls-36" d="M303.04,598.92c.93,1.43,3.25,1.3,6.95-.39,4.48-.31,8.87.66,13.17,2.92,6.14-.06,11.78-1.1,16.95-3.13l12.9.68c2.37.55,4.64.58,7.28.33,4,3.39-8.93,7.44-10.35,7.54-4.32.31-7.53,1.96-11.7,3.28-4.83,1.53-10.96-1-16.29-.77-3.49.15-6.93-1.46-10.52-2.05-6.35-1.04-5.6-6.92-22.53.65.03,2.59-8.11,6.24-10.7,6.83-2.31.52-6.23.68-8.25,0-2.14-2-.44-3.65,5.08-4.96,1.3-2.78,4.42-1.65,7.01-2.6l7.56-2.78c2.05-.75,3.73-3.33,5.81-3.39,2.97-.09,5.26-.78,7.65-2.17Z"/>
  <path class="cls-91" d="M405,590v1c-7.77.15-15.71-.52-23.87.54-3.27.42-4.59,5.28-7.32,6-5.49,1.45-14.95-.76-20.81,1.47l-10.97-.68c-3.12,1.45-4.83,1-5.11-1.35.55-1.87,1.48-3.5,2.79-4.89,10.39-1.14,20.82-1.84,31.29-2.08h34Z"/>
  <path class="cls-123" d="M826.83,548.24c-6.02,21.59-18.84,40.31-33.76,56.9-2.57,2.01-5.64,3.71-8.07,5.87l-2.57-.29c-1.59-2.7-3.13-3.26-4.64-1.68,3.54,2.5,4.27,4.84,2.17,7.03-4.1,3.07-18.96,13.32-23.1,14.54-1.33-.17-2.83-.09-4.49.23-4.04-2.85-8.62-3.58-13.75-2.18-.84-2.55-1.95-4.55-3.32-6.01-7.12,3.92-15.12,4.49-24.01,1.69-3.12-3.13-5.83-6.89-8.13-11.28-3.23-1.82-5.82-4-7.77-6.55-4.13.41-6.26-2.08-6.39-7.48l-.02-1.17,3.11-1.99c17.09.13,33.55-6.38,47.48-15.4l2.39.51c7.31-4.47,13.34-9.97,18.1-16.48,1.88-3.25,4.15-5.35,6.83-6.28l14.3-14.1c9.7-.81,3.32-9.17,10.26-10.29,2.75-.44,3.03,1.08,5.02,2.74,6.15,5.12,13.75,9.07,21.51,11.32,3.01.87,6.31-.61,8.85.34Z"/>
  <path class="cls-47" d="M689,599.04c.69.05,2.09-.46,2.82.42.38.92-.75,2.19-.53,2.88.26.82,1.77,2.6,2.71,2.34,3.6-1.01,3.48,2.66,4.9,3.31,13.57,6.14,6.16,15.14,17.62,15.36,5.08.1,10.37,1.92,15.06-.76,1.9-1.08,3.25-2.9,5.55-1.18,1.3.98,2.03,2.76,2.14,5.99,4.81-2.47,9.03-1.7,13.23,1.31,1.32.95,4.26-.06,4.35,1.89-3.16.93-5.85,3.47-8.89,4.62l-7.92,2.98c-3.62-1.01-7.16-2.55-10.64-4.61-1.95,2.12-4.98,1.85-9.08-.81-7.29-.4-13.11-3.05-17.48-7.97-3.21.77-6.06.47-8.57-.92-3.52-5.75-7.01-8.1-10.46-7.05-2.45-1.15-4.86-.78-7.23,1.11-2.47-2.17-5.2-3.56-8.17-4.16-2.94.38-4.95-.28-6.03-1.98-.54-.92-1.67-1.96-3.13-2.07-3.63-.28-5.56-2.7-8.37-4.46-.91-.57-4.1,1.98-4.69-.19-.63-2.35,1.91-4.22,1.62-6.27,13.72.15,27.5-.69,41.19.23Z"/>
  <path class="cls-97" d="M785,611.01c-1.73,1.54-3.04,3.57-5.04,5.06.67-2.97-3.04-4.07-4.27-6.65-.69-1.44,3.17-4.08,4.75-3.2,2.26,1.26,3.53,3.1,4.56,4.79Z"/>
  <path class="cls-43" d="M741.96,580.99c-3.48,3.56-8.52,5.21-13.18,7.76-12.29,6.7-26.2,9.4-39.79,9.12-.97-.23-2.24,1.06-3.36-1.29,2.65.44,4.28-2.33,6.18-2.77l16.28-3.8c11.46-2.67,22.62-6.18,31.95-12.94,5.84-4.23,13.04-7.25,18.15-13.06,2.54-.07,2.47,1.25-.19,3.94l-16.03,13.05Z"/>
  <path class="cls-84" d="M489.28,440.19c.84,1.35,1.17,2.42,1,3.22-15.11,11.13-8.19,27.31-.09,40.45.81,3.3.82,6.65.02,10.06l5.46-4.14c2.46-1.34,4.42-2.37,4.41,1.21-2.74,2.55-5.72,4.88-8.74,7.12l-28.56,21.15c-1.41,1.24-1.92.7-.96-.99-2.12-2-1.49-3.1,1.31-2.29,3.29-3.86,7.18-7.3,11.68-10.31,10.3-9.04,10.42-12.13,4.68-25.29-3.86.62-5.65-1.59-6.8-4.95-4.91-3.16-10.47-4.99-16.69-5.48-3.19,1.11-5.13.5-5.81-1.83-1.75,2-2.39,1.25-1.19-1.13.61-1.15,1.78-2.26,2.87-3.08l37.09-28.08c-.19,1.45.37,2.94.31,4.37Z"/>
  <path class="cls-80" d="M461.83,518.27l.96.99-23.66,18.84c-1.94,1.54-2.23,3.61-.96,6.05-1.81.47-3.17-.28-4.23-1.29.4-.2.98-.1,1.71-.6l-6.22-4.93c.43-2.64-1.07-5.96-3.22-7.54-.45-.64-1.06-1.63-.71-2.06,2.34-2.83,11.84-11.08,14.99-12.59l2.57.06c2.61-.37,4.57,1.65,5.87,6.06,2.5,2.13,6.12.7,10.84-4.29.53-.33,1.51.58,2.07,1.3Z"/>
  <path class="cls-63" d="M275.02,609.86c-.99,2.11-4.66.28-5.08,4.96,1.92.26,1.84,1.02-.12,1.29-2.55.98-6.37-.01-7.5,2.84-1.08-.89-2.83-1.61-3.41-2.98,5.83-1.02,9.65-6.16,16.12-6.11Z"/>
  <path class="cls-48" d="M506.07,486c-1.41,2.08-3.68,3.98-5.99,5-1.81-2.75-8.26,5.89-12.87,6.6l1.6-7.76c.58-2.83-1.02-8.08-2.99-10.54-4.57-5.72-5.83-10.9-6.31-18.2-1.03-15.53,9.52-15.18,9.77-20.9,2,2.84,4.72,4.63,7.52,7.07,2.5,2.17,4.27,5.67,6.7,8.07,4.87,4.79,7.81,9.89,9.92,16.48,3.02,9.42-10.37,12.32-7.36,14.2Z"/>
  <path class="cls-13" d="M687,428l-69.91.18c-2.27,0-5.36.39-7.09.82-18.03,4.53-23.37,7.95-37.5,18.75l-36.63,27.99c-2.15.04-5.79-2.68-5.47-4.31.85-1.98,3.99-3.11,3.07-5.32l22.54-17.93c5.46-4.35,11.62-8.14,17.51-12.59,8.29-6.27,17.21-10.4,26.49-13.86.36-1.85,2.63-1.84,3.98-.82,4.06-.18,8.27-.76,12.62-1.73,7.71-1.91,12.51-.07,14.42,5.53l55.09.38c1.64.26,1.83,1.44.88,2.9Z"/>
  <path class="cls-72" d="M695.91,365.88c1.12,2.4,19.94,0,23.18,3-3.78.6-9.96-.7-13.11,2.04-2.84,2.47-3.84,4.31-7.53,5.91-3.38,1.46-8.29,4.91-10.69,7.63-2.57,4.8-.46,10.85.66,15.93-4.52-.04-7.12,2.87-8.25,7.33-1.75-1.77-6.53-4.78-9.01-2.8-2.09,1.67-2.05,5.05-5.4,5.88-1.41.35-2.66,2.47-2.62,3.92,4.2.9,26.9-.54,27.77.83.22.34.2.9.25,1.35-3.61.51-7.33.78-11.16.83l-.68,2c-19.14.09-38.32-.18-57.52-.79l-17.8,1.98c-1.31.35-2.7.34-3.98.82-.16-.82.03-1.86.5-2.34.43-.44,2.77.5,3.09-.07l6.28-11.42c-.6-1.94-3.79-3.75-3.32-6.46.51-2.94,2.6-3.51,5.71-4.48-1.39-19.45,9.27-11.38,9.8-30.17,6.19,1.18,12.39-.59,17.94-.62l55.91-.32Z"/>
  <path class="cls-14" d="M603.17,492.12c2.87,3.26,3.78,7.61,2.74,13.04-1.12,4.18-1.66,8.18-1.62,11.99-.55,5.1-1.92,10.05-4.1,14.86.38,2.62-.03,4.59-1.24,5.89-7.85,6.85-16.25,13.34-24.91,19.1-.29-3.2-.02-6.59.82-10.18,3.62-8.74,5.33-14.62-.03-23.09,1.85-8.29,2.8-16.97-1.48-24.71l1.66-1.96c6.26-6.17,13.54-11.4,20.93-15.93,2.09.42,3.67,2.15,4.73,5.2,2.12,1.92,2.95,3.85,2.5,5.79Z"/>
  <path class="cls-93" d="M574.03,556.99c-4.69,3.11-8.28,7.97-12.83,11.11l-13.18,9.06c-.57-.53-.97-1.2-.9-2,.73-8.52,3.23-17.09,7.46-24.54,0,0,1.47-8.85,4.4-26.56-1.15-6.4-.44-11.8,2.11-16.19,4.08-2.71,7.48-7.46,11.85-10.09.58-.35,1.56-.31,2.07-.72,0,2.7,2.97,4.96,2.75,8.09-.25,3.59,1.54,8.09.61,11.23-1.15,3.89-2.85,6.59-.28,10.3,4.1,5.9,2.14,11.86-.49,17.75-1.81,4.07-.37,9.45-3.58,12.57Z"/>
  <path class="cls-106" d="M626.01,495.77c1.27,6.23.69,14.33-2.71,20.19-3.98,6.88-10.82,11.63-16.34,17.16-2.02,2.03-5.85,2.88-8.02,4.77-3.92-7.87,5.4-13.56,2.92-23.93,2.81-7.34,2.55-14.67,1.3-21.85,3.08-.52,6.49-.15,10.23,1.09l10.72.66,1.89,1.91Z"/>
  <path class="cls-73" d="M740.04,638.2c-10.04,3.77-20.39,6.3-30.96,8.05-6.77,1.12-31.58,2.26-38.17.94,1.49-.19,3.14.08,5.02-.47.27-3.45.1-8.68,3.59-10.05.84-.33,2.99.43,3.33-1.07.14-.63-.44-1.72-1.3-2.09-.59-.25-1.41,1.56-3.03,1.94-4.43-10.44-13.67-12.86-16.13-23.65,17.96-1.68,11.42,10.02,17.28.94,7.89,6.64,3.28-5.83,15.37,9.12,1.39,1.72,4.1,1.49,5.81,1.1,3.65-.83,4.15,1.22,6.13,3.24,5.15,5.26,13.66,2.09,19.55,7.82,1.01-1.18,2.28-3.36,3.43-2.87-1.82-.78,14.04,7.6,10.09,7.05Z"/>
  <path class="cls-51" d="M534.04,556.98c.84.01,1.72.22,2.09.93,3.13,6.04,3.94,10.78,4.45,17.3,1.48,2.14,1.99,4.03,1.54,5.65-1.66,1.5-3.12,3.72-5.11,5.12-10.34,7.22-20.57,14.94-30.04,23.28-2.55,2.25-6.56,3.45-9.04,5.86.94-2.71-.77-6.12-.32-9.12l2.45-16.09-1.64-1.94c2.21-5.93,5.64-11.24,10.27-15.92l2.47.1c3.02,0,4.67-2.91,7.34-4.29,9.18-4.73,9.52-7.6,15.53-10.87Z"/>
  <path class="cls-94" d="M778.86,489.69c1.92,1.98.48,5.2,2.14,7.31,2.77,13.59-.45,35.46-8.09,47.14-.33.5-1.02.76-1.82.94-3.21-2.57.71-6.99.42-10.13-.24-2.66-3.85-5.17-2.79-9.09,1.72-6.36,1.9-20.92.27-26.87-2.53-9.19-4.67-18.5-9.12-27.05.84-1.27,1.85-2.08,3.11-1.27,9.22,4.7,13.22,9.08,15.87,19.01Z"/>
  <path class="cls-81" d="M783,502c1.49,21.74-6.01,37.9-16.11,56.23-6.21,9.54-14.65,17.92-24.93,22.76,1.81-1.85,3.49-3.28,5.8-5.33l9.49-8.4c.85-.75,1.6-2.75.93-3.26,5.2-5.91,9.16-12.21,12.91-18.92,8.17-14.62,10.98-31.29,9.91-48.08,1.03,1.31,1.28,3.61,2,5Z"/>
  <path class="cls-30" d="M283.97,465.07c-8.75,14.96-13.34,31.89-11.7,49.62.28,3.04,1.45,5.69.85,8.39-1.38.33-2.58-.41-3.6-2.23-3.65.85-5.2,2.7-4.65,5.55-1.28,3.05-2.59,2.55-3.94-1.49-.68-.38-1.25-.81-1.43-1.35-5.19-16.06.73-45.82,8.77-60.35,5.67-10.24,18.88-26.42,29.9-30.51.57-.21,1.27-.07,2,.16,3.02,2.54,6-3.91,9.03-3.07-.95,3.53-3.26,5.23-6.21,6.51-3.79,6.21-7.83,12.51-13.19,17.51-1.93,1.8-2.33,3.12-3.2,5.82-.62,1.94-3.31,3.22-2.63,5.44Z"/>
  <path class="cls-100" d="M308.11,427.17c-2.9,1.43-5.24,4.08-7.93,5.69-31.13,18.59-47.13,56.63-39.24,92.04,3.5,4.04,6.47,10.39,5.24,16.09-.31.79.36,1.77-.76,3.07-8.46-19.19-10.16-30.92-7.57-53.06.6-5.09,3.68-9.92,3.4-14.76-3.6-7.14-12.81-11.28-10.64-19.1l9.2-1.89c5.32-1.1,8.22-1.25,12.43-3.86,5.02-3.12,9.27-6,10.94-12.61,1.15-4.58,11.93-3.57,17.75-9.63,2.21-2.3,5.27-1.07,7.19-1.97Z"/>
  <path class="cls-58" d="M449.01,466.98l1.19,1.13,2.21.94,4.14,8.74c4.59,7.45,9.1,16.37,10.71,25.04,1.06,5.73.11,9.05-4.13,13.15-.53.7-.95,1.48-1.31,2.29-2.48.13-9.58,10.08-13.99,4.87-2.08-2.46-2.41-6.05-4.79-7.94l-1.74-1.45c-1.85-9.35-5.02-18.39-9.54-27.13-1.75-1.44-2.33-2.97-1.75-4.6,6.04-5.16,11.73-11.45,18.99-15.04Z"/>
  <path class="cls-57" d="M443.05,515.2c-1.56,2.37-4.41,3.3-6.63,5.32l-10.22,9.27c-9.85-7.2-9.85-22.08-7.17-32.86,1.68-6.64,6.1-10.72,10.99-14.91,5.78,4.17,7,11.87,9.49,18.58,1.88,5.08,4.92,9.31,3.54,14.6Z"/>
  <path class="cls-98" d="M607.14,473.95c2.82,1.91,6.73,2.67,9.87,3.9.01,5.93,6.08,3.57,9,17.93-5.13.43-18.83-.4-22.85-3.65-3.38-2.74-5.89-6.99-7.22-10.99,3.49-2.13,5.95-7.51,11.2-7.18Z"/>
  <path class="cls-20" d="M561.09,507.87c.1,2.38.09,4.85-.65,7.54,1.3,5.91.63,11.79-1.49,17.58.33,3.52.04,6.82-.99,10.11.18,10.63-5.3,10.2-7.84,26.03-.49,3.09.09,5.96-2.1,8.03l-5.9,3.69c-4.54-2.93-3.81-8.67-4.45-13.98-.41-3.43-3.68-6.41-3.63-9.89.07-4.78-.08-9.69.31-14.94.36-4.84,1.85-9.92-.27-14.01,3-2.12,5.81-5.94,8.72-8.03l18.29-12.14Z"/>
  <path class="cls-26" d="M273.13,523.08l2.9,11.82c-3.72,2.21-6.27,6.25-8.02,10.18-.27-1.53-1.26-2.75-1.82-4.07-2.22-5.2-4.02-10.58-5.24-16.09,1,.33.96,1.53,1.54,2.28,1.3-2.23-.23-4.6,1.05-5.59,2.71-1.43,5.18-2.06,7.43-4.44.4,2.74,1.72,4.03,2.18,5.91Z"/>
  <path class="cls-83" d="M280,561.97c1.84,3.39,5.31,5.28,7.99,7.9,4.85,4.74,11.37,7.19,16.99,10.95,6.21,4.15,13.37,5.99,21.27,7.16,2.99.45,5.58,1.59,8.25-.82,3.02,5.68,10.41,2.22,13.31,2.5,7.7.74,15.46.16,23.2.34l-18.06,1.66c-3.45.32-8,2.01-11.69,1.81-1.46-.08-1.93,5.19-4.34,3.5-.11.87-.42.84-.92.03-5.81-.29-11.2-1.42-16.17-3.41l-.88-1.65c-5.03.27-10.04-1.42-15.01-5.07-4.22-.07-27.27-22.8-26.84-25.54.04-.22.71-.34,1.56-.44.3.44,1.09.6,1.34,1.06Z"/>
  <path class="cls-5" d="M278.66,560.91c-1.44,1.8.99,2.81,2.11,4.28,3.26,4.26,6.41,8.18,10.74,11.36,8.76,6.43,17.82,11.36,27.43,15.41l2.28,2.72c4.93.95,9.85,1.72,14.77,2.33.24-.03.7-.06.92-.03l16.08,2.03c-3.31-.76-7.24.52-11.03,0-1.69-.23-2.35,2.18-3.56,2.39-5.16.9-10.12,2.01-15.39,2.04-3.3.01-7.22-5.84-18.01-1.45-.87.35-2.97-.71-2.81-1.45.1-.47.38-1.16.83-1.61.77-.77,1.34-1.34,1.13-2.36-.4-2.01-6.69-7.18-8.93-8.74-3.23-2.24-2.15-7.51-4.23-9.8-3.26-3.58-7.17-5.96-10-10.14-2.25-3.32-13.27-15.88-10.98-19.05l8.62,12.06Z"/>
  <path class="cls-10" d="M778.86,489.69c-7.15-7.39-2.17-9.07-11.3-13.59-2.65-1.31-4.64-4.16-7.68-4.15-2.21-4.24-5.53-8.22-8.64-12.32-12.41-16.38-30.2-26.4-49.91-30.23-1.78-1.14-4.62.4-6.33-.4-2.51-.72-2.06-2.21.07-3.59-4.32-2.21-8.42-5.08-1.88-7.49,20.71.48,41.3,8.53,57.04,22.79,13.66,12.37,27.3,30.82,28.63,48.98Z"/>
  <path class="cls-75" d="M680,417.74c3.73-.44,7.48-.45,11.24-.03.61-.12,1.33.19,1.95.2-6.39,8.22,14.41,4.73,14.71,9.75-3.22,1.75-13.16-3.56-12.9,1.33-2.61-1.23-5.13-1.01-8-1,.12-.42-.31-.94-1.15-.95l-56.34-.35c-1.43-2.12-1.67-6.29-4.65-6.51-4.71-.33-9.7-.51-14.27.39-2.23.44-5.21,3.28-6.59.33,9.26-2.48,18.74-3.53,28.81-3.46l47.2.28Z"/>
  <path class="cls-33" d="M511.17,572.14c-4.18,5.38-10.06,10.89-11.1,17.76-3.95,4.4-10.11,5.86-15.11,9.21-2.04,1.37-2.58,3.46-5.6,4.34s-6.86,1.94-9.4,3.55c-11.48,7.26-12.49,3.57-25.43,9.37-4.46,2-10.1,1.34-14.5,3.7-2.45,1.32-4.69,1.88-7.42,2.72-4.14,1.27-8.55,4.5-13.11,3.61-3.23-.63-4.43.33-7.27,1.81-5.89,3.07-19.54,4.48-26.82,3.17-2.77-.5-4.44.46-6.28.47-2.58.03-6.32.9-8.89.43-5.71-1.04-10.4-2.83-16.28-.21-3.13-.94-7.16-2.86-10.06-4.13,2.29-1.93,5.13-3.38,8.53-4.33,5.65.57,7.1-.21,11.26-4.03,8.21-1.35,16.34-2.78,24.38-4.3,9.33-4.48,10.39-.57,23.82-2.51,3.18-.46,5.32-1.89,8.62-1.75,3.83.16,7.44-3.69,11.37-3.85,16.34-.64,33.91-11.3,44.21-13.75,3.6-.86,5.01-2.46,7.54-4.87,3.34-3.18,8.42-4.74,10.94-9.07,5.46-9.38,9.14-8.17,13.41-15.5,2.27,2.48,5.57,2.18,8.68,3.44,1.65.67,1.56,5.54,4.5,4.68Z"/>
  <path class="cls-16" d="M363,613.17c5.09.21,10.05,1.37,15.08,2.13-.3.14-11.37,4.45-9.2,4.16l-14.38,1.91-6.42,5.33c-5.55-3.94-7,1.88-14.18,1.26-7.92-.12-16.39.69-24.04-2.97-2.41-1.15-3.25-1.73-6.23-1.63-3.8.13-7.74-3.47-11.79-4.33-2.18-.46-4.51.32-6.43-.45-3.14-1.26-13.15-3.43-15.59-2.49l.12-1.29c4.94.53,16.63-6.65,18.94-6.83,15.01-1.16,16.19,5.93,30.01,4.84,7.2,5.03,13.2-.65,18.24,4.33,1.33-.83,1.87-1.75,3.01-2.86l15.09-.73c2.9-.14,5.23-.5,7.77-.4Z"/>
  <path class="cls-10" d="M691.16,416.91l.08.81c-3.73.72-7.5.05-11.24.03,3.42-1.79,7.45-.18,11.16-.83Z"/>
  <path class="cls-110" d="M787.21,438.82c0-1.03-.31-2.77.11-3.48.46-.77,2.16-.09,2.54.44.48.68.18,2.14-.14,2.72s-2.5,1.1-2.5.32Z"/>
  <path class="cls-97" d="M769.22,607.51c.38,4.74-4.23,11.76-12.51,12.44-7.5.62-16.17-4.36-15.46-12.98.43-5.24,6.93-7.89,10.76-9.75,1.37-.67,1.64-2.04,2.68-2.25,1.44-.28,2.15,1.19,3.41,1.97,2.58,1.6,10.52,3.22,11.11,10.58Z"/>
  <path class="cls-112" d="M463.14,515.99c.91-9.97,6.09-3.33-.3-19.77-.98-2.52-.64-5.61-2.25-7.72-1.8-2.35-10.57-17.59-10.39-20.38,1.8,1.36,4.55-.79,6.67.01,3.3,1.25,6.04.98,9.24,1.41,2.22.3,4.79,3.2,7.32,4.08,1.88.65,1.62,4.51,3.8,4.81,1.36.19,2.95-.55,3.71.09-.91-.76,9.13,15.05,1.12,23.47-2,2.1-16.34,14.24-18.92,14Z"/>
  <path class="cls-91" d="M336,597c-.37.05-15.34-.7-15.6-.94-1.21-1.12-1.67-2.6-1.46-4.12,4.72,1.99,9.21,4.25,15.15,3.99.88-.04,1.99.36,1.9,1.07Z"/>
</svg>