<?xml version="1.0" encoding="UTF-8" standalone="no"?>
<svg
   id="Layer_1"
   data-name="Layer 1"
   viewBox="0 0 256 256"
   version="1.1"
   sodipodi:docname="uhrp.svg"
   inkscape:version="1.2.2 (b0a8486541, 2022-12-01)"
   xmlns:inkscape="http://www.inkscape.org/namespaces/inkscape"
   xmlns:sodipodi="http://sodipodi.sourceforge.net/DTD/sodipodi-0.dtd"
   xmlns="http://www.w3.org/2000/svg"
   xmlns:svg="http://www.w3.org/2000/svg">
  <sodipodi:namedview
     id="namedview15"
     pagecolor="#ffffff"
     bordercolor="#000000"
     borderopacity="0.25"
     inkscape:showpageshadow="2"
     inkscape:pageopacity="0.0"
     inkscape:pagecheckerboard="0"
     inkscape:deskcolor="#d1d1d1"
     showgrid="false"
     inkscape:zoom="3.34375"
     inkscape:cx="128"
     inkscape:cy="128.14953"
     inkscape:window-width="1920"
     inkscape:window-height="1020"
     inkscape:window-x="0"
     inkscape:window-y="32"
     inkscape:window-maximized="1"
     inkscape:current-layer="Layer_1" />
  <defs
     id="defs4">
    <style
       id="style2">
      .cls-1 {
        fill: #424242;
      }

      .cls-2 {
        fill: #fb4441;
      }

      .cls-3 {
        fill: #fdfdfd;
      }
    </style>
  </defs>
  <path
     class="cls-1"
     d="M0,48c3.35-4.06,3.87-8.76,7.17-13.33,12.17-16.81,36.74-21.23,53.76-9.11,2.52,1.79,9.53,10.51,10.54,10.53,6.66-1.71,12.26-6.05,18.54-8.58,58.61-23.66,133.4.97,158.16,60.8,3.46,8.36,4.88,17.2,7.82,25.68v92c-6.43,22.69-26.44,36.36-50.21,29.71-44.31-12.41-18.59-80.18-29.51-112.49-13.57-40.17-68.99-46.73-91.31-10.74-2.78,4.49-7.97,16.07-7.97,21.03v25.5l-12.33-8.17c-15.06-8.26-31.84-9.01-47.65-2.31-6.58,2.79-10.87,7.34-17.02,10.48V48Z"
     id="path6" />
  <path
     class="cls-2"
     d="M0,205v-17c3.52-5.02,4.85-10.54,9.02-15.48,35.82-42.34,96.07,19.04,54.99,53.99-23.42,19.93-56.22,6.73-64.01-21.51Z"
     id="path12" />
</svg>
