<?xml version="1.0" encoding="UTF-8" standalone="no"?>
<svg
   enable-background="new 0 0 2499.6 2500"
   viewBox="0 0 2499.9999 2500"
   version="1.1"
   id="svg3"
   sodipodi:docname="woocommerce.svg"
   width="2500"
   height="2500"
   inkscape:version="1.2.2 (b0a8486541, 2022-12-01)"
   xml:space="preserve"
   inkscape:export-filename="bitcoin-sv-bsv-logo.png"
   inkscape:export-xdpi="9.8304005"
   inkscape:export-ydpi="9.8304005"
   xmlns:inkscape="http://www.inkscape.org/namespaces/inkscape"
   xmlns:sodipodi="http://sodipodi.sourceforge.net/DTD/sodipodi-0.dtd"
   xmlns="http://www.w3.org/2000/svg"
   xmlns:svg="http://www.w3.org/2000/svg"><defs
     id="defs3" /><sodipodi:namedview
     id="namedview3"
     pagecolor="#ffffff"
     bordercolor="#000000"
     borderopacity="0.25"
     inkscape:showpageshadow="2"
     inkscape:pageopacity="0.0"
     inkscape:pagecheckerboard="true"
     inkscape:deskcolor="#d1d1d1"
     inkscape:zoom="0.32799999"
     inkscape:cx="329.2683"
     inkscape:cy="1234.7561"
     inkscape:window-width="1880"
     inkscape:window-height="1056"
     inkscape:window-x="40"
     inkscape:window-y="0"
     inkscape:window-maximized="1"
     inkscape:current-layer="svg3"
     inkscape:clip-to-page="true"
     showgrid="false" /><rect
     style="fill:#080808;stroke:#ffffff;stroke-width:1.14441;stroke-opacity:1;opacity:0;fill-opacity:1"
     id="rect4"
     width="2592.0122"
     height="2522.7488"
     x="-39.808308"
     y="-0.015146852" /><path
     d="m 984.52837,2997.7459 c -1199.73808,0 -2172.20917,-908.3838 -2172.20917,-2029.05767 0,-1120.67365 972.47109,-2029.05773 2172.20917,-2029.05773 1199.73823,0 2172.20973,908.38408 2172.20973,2029.05773 0,1120.67387 -972.4715,2029.05767 -2172.20973,2029.05767 z M 1819.4715,787.34131 a 12.218679,11.41345 0 0 0 -10.8612,6.34087 v -55.79929 l -14.9339,7.60918 c -9.5029,8.87679 -9.5029,10.145 -9.5029,24.09486 v 103.9891 a 95.034165,88.771275 0 0 0 0,30.43602 97.749423,91.307594 0 0 1 -12.2189,50.72644 l -24.4375,15.21806 h -12.2186 a 24.437355,22.8269 0 0 1 0,-11.41372 v -41.84945 h -9.5036 a 66.523911,62.139889 0 0 0 -12.2185,17.7546 149.3394,139.49772 0 0 0 -19.0066,68.48052 c -3.2587,19.0225 -3.2587,38.0446 0,57.0675 a 82.815486,77.357825 0 0 1 -16.2917,72.2851 27.152618,25.363221 0 0 1 -16.2917,8.8769 28.510249,26.631382 0 0 0 -25.7951,15.2178 l -8.1454,16.4864 a 207.71753,194.02865 0 0 1 -12.2188,-39.313 v -48.1901 a 135.76309,126.8161 0 0 0 -23.0801,17.7543 407.28927,380.44832 0 0 0 -61.0934,186.4196 c -2.715,15.2179 -2.715,32.9719 -28.5101,30.436 -25.7949,-2.5366 -38.0136,19.022 -44.8018,30.4358 -6.7881,11.4135 -13.5762,11.4135 -23.0796,0 a 73.312069,68.480698 0 0 1 0,-72.2853 l 9.5034,-17.7544 a 52.947603,49.45828 0 0 0 -44.802,8.8772 312.2551,291.67704 0 0 0 -96.3915,81.1625 l -58.3784,87.5029 a 407.28927,380.44832 0 0 1 -70.597,90.0396 185.99542,173.73806 0 0 1 -166.9883,41.8494 305.46697,285.33625 0 0 1 -128.9751,-68.4808 636.72886,594.76751 0 0 1 -103.17974,-126.8163 453.44874,423.5658 0 0 1 -44.8019,-126.816 c -2.7155,-8.8773 -6.78794,0 -19.00689,0 -33.94079,19.0226 -73.58369,26.6314 -112.68328,21.5587 a 135.76309,126.8161 0 0 1 -108.61035,-87.5031 32.583141,30.435865 0 0 0 -12.21851,-15.2181 c -9.50374,-8.8767 -23.08017,-15.218 -32.58346,-24.0947 a 112.68336,105.25736 0 0 1 -23.07957,-68.4806 46.159449,43.117475 0 0 1 -58.37839,-30.436 114.041,106.52553 0 0 1 0,-107.79391 19.006833,17.754255 0 0 0 0,-11.41333 c -23.07958,-24.09525 -67.88131,-65.9444 -67.88131,-65.9444 v -11.41352 c 20.36458,-32.97205 46.43085,-62.64733 77.38481,-87.50313 a 20.364464,19.022416 0 0 0 0,-21.55862 58.378128,54.530925 0 0 1 0,-49.45803 195.49884,182.61518 0 0 1 32.58335,-41.84934 L 358.66053,635.16169 222.89767,608.53041 a 43.444188,40.581154 0 0 0 -28.51023,0 505.03869,471.7559 0 0 0 -105.895042,90.03966 469.74029,438.7837 0 0 0 -28.510223,39.31282 v 8.87719 l 16.291453,-8.87719 23.07966,-22.82684 a 490.10478,457.80617 0 0 0 -35.29866,48.19001 c -25.794714,46.92199 -54.3049442,95.1121 -77.384591,143.30212 a 166.9886,155.98381 0 0 0 -23.080134,81.16246 v 15.21786 l 12.219006,-11.41332 a 96.391794,90.039435 0 0 0 12.218766,-20.29042 598.7152,559.259 0 0 0 -23.079666,65.94444 628.58312,587.15858 0 0 0 -28.51022,188.9557 c 2.30795,27.2655 10.996508,53.7702 25.794704,77.358 2.715516,11.4134 19.00697,17.7543 19.00697,11.4134 v -69.7492 c 10.1818457,24.4755 18.73526283,49.4586 25.7947038,74.8219 5.8379112,21.5586 9.9108372,43.7513 12.2187762,65.9441 9.50348,44.3857 16.291466,90.0397 28.510222,134.425 8.689035,18.6422 20.636092,35.7624 35.298663,50.7267 h 25.794702 v -21.5588 l -9.503242,-17.7544 a 70.596808,65.944376 0 0 1 0,-48.19 l 86.888302,90.0391 a 12.218679,11.41345 0 0 1 0,8.8775 c 3.25802,41.8492 15.34116,82.8108 35.29866,120.4751 a 108.61047,101.45288 0 0 0 103.17973,63.4081 h 16.29155 c -12.21862,-6.3409 -5.4306,-5.0728 -12.21862,-15.2176 -6.78792,-10.1454 -16.29166,-11.4137 -23.07959,-21.5591 -6.7885,-10.1454 6.78793,-21.5587 16.29167,-21.5587 a 115.39862,107.79369 0 0 1 35.29822,11.4133 A 1058.952,989.16561 0 0 0 559.59,1827.233 l 93.67652,35.5089 32.58345,11.4133 c -21.72226,57.0671 -44.80199,111.5983 -63.80885,162.3245 -13.57619,-26.6315 -25.79471,-57.0672 -42.08649,-83.6986 l -19.0069,-35.5087 a 58.378128,54.530925 0 0 0 -42.08653,-30.4355 135.76309,126.8161 0 0 1 -77.38503,-17.7544 c -25.79519,-2.5361 -63.80839,6.3407 -73.31191,30.4359 a 81.457853,76.089662 0 0 1 80.09994,15.2181 c -16.29143,32.9719 -6.78803,54.5306 25.79516,63.4078 a 51.589973,48.19012 0 0 1 38.01369,44.386 c 8.1456,21.939 11.26847,45.2732 9.50328,68.4806 a 73.312069,68.480698 0 0 1 -47.51697,-35.5087 205.00227,191.49232 0 0 0 -89.60354,-77.3579 c -25.79529,-12.6813 -54.30546,-17.754 -73.31202,8.8775 h -12.21898 a 181.92252,169.93357 0 0 0 -42.08637,0 c -31.22573,5.0725 -44.80191,32.9719 -54.3054,59.6032 a 115.39862,107.79369 0 0 1 63.80889,-17.7541 c 6.78821,0 12.21852,5.0726 12.21852,11.4133 a 31.22551,29.167704 0 0 0 35.29845,24.0952 l 73.31191,26.6315 a 108.61047,101.45288 0 0 1 63.80886,57.0671 h -19.00691 a 617.72202,577.01326 0 0 0 -77.38515,0 202.28699,188.95599 0 0 0 -96.39177,30.4362 112.68336,105.25736 0 0 0 -58.37786,54.5306 44.80182,41.849314 0 0 0 0,26.6314 v 17.7544 a 107.25285,100.18473 0 0 0 0,30.4356 101.82231,95.112078 0 0 0 28.51024,48.1904 135.76309,126.8161 0 0 1 16.29168,-81.1625 c 38.01372,17.754 51.58989,15.2178 80.10007,-15.2179 l 19.00702,-22.8269 a 90.961271,84.966793 0 0 1 70.59666,-8.8772 l 96.39148,11.4133 a 16.291571,15.217933 0 0 1 0,8.8774 281.02959,262.50933 0 0 1 -67.88131,65.9444 84.173116,78.625985 0 0 0 -28.51017,101.4528 54.305232,50.726439 0 0 1 0,21.5587 57.020498,53.262764 0 0 0 40.7287,65.9444 v -48.1901 a 61.09339,57.067248 0 0 0 77.38505,-32.9724 271.52618,253.63221 0 0 0 23.0797,-63.408 c 11.54015,-38.8056 40.7293,-70.8899 80.10028,-87.5032 a 118.11389,110.33001 0 0 0 70.59671,-44.3853 l 9.50344,11.4133 a 100.46469,93.843917 0 0 0 93.67673,50.7267 c 6.78801,0 12.21852,5.0726 12.21852,11.4132 l 9.50354,60.872 c 6.78824,-8.8773 23.07961,-17.7545 23.07961,-26.6317 a 126.25966,117.93897 0 0 0 12.21854,-90.0394 14.93394,13.949772 0 0 1 0,-15.2179 43.444188,40.581154 0 0 0 0,-48.19 135.76309,126.8161 0 0 0 -63.80835,-59.6034 l -51.58995,-21.5591 19.00667,-8.8769 58.37797,-26.6315 c 6.78855,0 12.21895,-8.8772 19.00709,0 6.78803,8.877 16.29157,17.7542 16.29157,26.6315 a 196.85648,183.88336 0 0 1 -9.50354,32.9721 h 16.29168 a 104.53758,97.648402 0 0 0 61.09337,-74.8214 c 2.71508,-17.7546 13.57619,-32.9724 25.79522,-32.9724 12.21854,0 25.79472,-8.8769 35.29837,0 a 36.656033,34.240347 0 0 1 9.50342,32.9724 l -9.50342,26.6313 c 19.00662,-11.4135 38.01352,-21.5586 54.30512,-32.9722 37.0631,-22.5735 62.4511,-58.3355 70.5967,-98.9163 a 58.378128,54.530925 0 0 1 38.0137,-35.5088 806.43278,753.28769 0 0 0 86.8884,-11.4134 1331.8359,1244.066 0 0 0 153.4122,-32.9724 843.08876,787.52799 0 0 0 211.7902,-90.0392 c 48.8749,-27.8995 93.677,-54.5313 135.7631,-87.5034 a 801.00222,748.21502 0 0 0 105.8953,-96.3799 923.18902,862.34952 0 0 0 86.8885,-101.453 c 30.6826,-43.1174 58.3781,-88.0103 82.8157,-134.4252 a 814.57853,760.89662 0 0 0 67.8814,-162.3245 1045.3758,976.48402 0 0 0 38.0138,-224.46457 1395.6446,1303.6695 0 0 0 0,-153.44744 217.22094,202.90576 0 0 0 0,-41.84914 l 96.3915,24.09486 a 115.39862,107.79369 0 0 1 -23.0797,30.43582 52.947603,49.45828 0 0 0 -19.0065,57.06731 c 10.182,21.8124 23.8939,41.84934 40.7289,59.60372 a 66.523911,62.139889 0 0 0 54.3053,21.55874 c -6.7886,-10.14541 2.7152,0 -16.2916,-21.55874 -19.0073,-21.55913 -19.0073,-24.09525 0,-39.31311 a 85.530745,79.894144 0 0 0 16.2916,-17.75409 115.39862,107.79369 0 0 0 12.2185,-32.97245 l 28.5102,11.41332 a 149.3394,139.49772 0 0 1 74.6695,65.9446 35.298402,32.972187 0 0 0 44.8018,21.55873 c 16.2916,-2.53623 25.7951,0 25.7951,15.21787 v 6.34086 h 6.7882 a 33.940774,31.704027 0 0 0 16.2916,-41.84944 c -9.5035,-19.02221 -23.0798,-36.7768 -32.5833,-54.53068 a 115.39862,107.79369 0 0 0 -85.5307,-54.53117 437.15713,408.34784 0 0 0 44.802,-24.09476 59.735763,55.799087 0 0 1 61.0935,0 24.437355,22.8269 0 0 0 33.9408,0 17.649202,16.486094 0 0 1 24.4369,0 l 25.7952,17.75388 a 24.437355,22.8269 0 0 0 0,-11.41322 67.881545,63.408053 0 0 0 -23.0798,-41.84944 47.517083,44.385638 0 0 1 -16.2916,-17.75399 50.232341,46.921956 0 0 0 -58.3784,-26.63179 464.30973,433.71105 0 0 1 -51.5897,11.41383 207.71753,194.02865 0 0 1 25.7951,-26.63138 c 19.0067,-11.41373 28.5102,-17.75439 19.0067,-35.50858 l 44.8019,-20.29072 a 47.517083,44.385638 0 0 0 -47.5169,-26.63118 122.18679,114.1345 0 0 1 -47.5173,0 24.437355,22.8269 0 0 0 -16.2915,0 c -16.2919,6.34067 -19.0069,26.63118 -25.7949,39.31272 a 116.75627,109.06185 0 0 0 -16.2916,39.31321 c -12.2185,-24.09525 -23.0795,-26.63138 0,-50.72653 23.0796,-24.09526 19.0067,-35.50858 0,-57.06727 a 54.305232,50.726439 0 0 0 0,-50.7266 52.947603,49.45828 0 0 0 -40.7291,45.65391 h -12.2186 c -25.7947,-3.80452 -38.0136,20.29051 -38.0136,44.38577 1.6296,27.8995 1.6296,55.79879 0,83.69859 h -9.5032 a 66.523911,62.139889 0 0 0 -12.2186,-17.7544 1273.4579,1189.535 0 0 0 -93.6768,-87.50292 237.5854,221.92818 0 0 0 -103.1801,-57.0672 c -9.503,0 -9.503,-11.41375 -9.503,-11.41375 a 306.82457,286.6044 0 0 0 -61.0937,-101.45276 146.62413,136.96139 0 0 1 -42.0866,-87.50309 c 0,-8.87718 -12.2184,-15.21804 -12.2184,-24.09524 a 226.72436,211.78288 0 0 0 -9.5039,144.57055 c 8.1462,21.93939 11.2684,45.27341 9.5039,68.48054 a 135.76309,126.8161 0 0 0 -27.1528,15.21804 c -6.788,6.34106 -23.0797,24.09523 -23.0797,15.21783 v -8.87677 a 40.728927,38.044832 0 0 0 0,-17.75458 44.80182,41.849314 0 0 0 -9.5035,-11.41332 l -9.5036,8.87719 a 40.728927,38.044832 0 0 1 0,17.75416 232.15489,216.85554 0 0 0 9.5036,138.22974 54.305232,50.726439 0 0 1 0,35.50828 76.027333,71.017021 0 0 1 0,24.09505 c -19.0067,-6.34067 -19.0067,2.53613 -19.0067,11.41353 z M 150.94316,209.06001 a 48.874711,45.653797 0 0 1 16.2917,21.55867 c 44.25848,26.37754 92.86183,45.65368 143.90894,57.06723 57.02046,16.48599 124.90188,25.36318 192.78343,38.04466 33.53348,1.90203 66.65978,6.97472 99.10709,15.21805 68.83183,16.9934 134.54134,43.11735 195.49886,77.35773 a 20.364464,19.022416 0 0 0 19.00646,0 c 28.51071,-8.87719 54.30542,-21.55868 82.81564,-30.43587 a 505.03869,471.7559 0 0 1 157.48582,-24.09523 h 82.8149 c 38.2852,5.70675 76.0275,14.58395 112.6837,26.63135 63.8086,21.93939 121.7794,56.56027 169.7036,101.45319 v -44.38597 c 0,-39.31283 25.1161,-74.82139 63.8086,-90.03921 a 78.742595,73.553343 0 0 1 86.8886,16.486 126.25966,117.93897 0 0 1 32.5832,81.16247 902.82452,843.32707 0 0 1 0,126.81593 135.76309,126.8161 0 0 1 -38.0138,74.82182 v 21.55873 c 24.5731,55.03804 36.6562,114.13441 35.2981,173.73774 a 563.41682,526.28683 0 0 1 -9.5029,120.47527 v 24.09526 c 6.7879,-6.34056 8.1457,0 19.0064,-17.75459 10.8613,-17.75388 13.5763,-39.31261 23.0798,-57.06721 a 111.32574,103.9892 0 0 1 84.1732,-71.01664 v -65.94471 a 135.76309,126.8161 0 0 1 61.0935,-105.2572 v -8.87721 a 388.28244,362.69407 0 0 1 0,-114.13445 116.75627,109.06185 0 0 1 42.0864,-74.82139 19.006833,17.754255 0 0 0 0,-11.41332 814.57853,760.89662 0 0 1 0,-83.6988 381.49429,356.35326 0 0 0 19.0067,-126.81638 175.13438,163.59277 0 0 0 -19.0067,-54.53066 418.1503,390.5936 0 0 1 -32.583,-44.38575 499.6082,466.68329 0 0 0 -51.59,-59.60335 73.312069,68.480698 0 0 0 -54.3052,-24.095229 c 9.5036,24.095229 38.0136,41.849179 25.795,74.821609 a 207.71753,194.02865 0 0 0 -28.5106,-24.09524 32.583141,30.435865 0 0 1 -19.0067,-21.55868 179.20729,167.39727 0 0 0 -54.3052,-74.821161 86.888379,81.162308 0 0 0 -82.8157,-24.0952468 l 12.2189,8.8771948 a 63.808652,59.60357 0 0 1 35.2986,41.849405 v 26.63114 h -19.0068 c -16.2918,-8.877195 -31.2258,-21.558679 -54.3054,-32.972432 a 165.63097,154.71565 0 0 0 -97.7496,-103.989092 171.06149,159.78828 0 0 0 -58.3781,-15.217598 c -12.2184,-8.877195 -23.0795,0 -35.298,0 h 9.503 a 51.589973,48.19012 0 0 1 35.2986,44.385308 70.596808,65.944376 0 0 1 -16.2914,5.072664 h -9.5037 a 66.523911,62.139889 0 0 0 -61.0935,-24.095227 248.44644,232.07346 0 0 0 -23.0795,-48.190033 149.3394,139.49772 0 0 0 -105.895,-59.603352 116.75627,109.06185 0 0 0 -44.802,0 v 19.02212 h 27.1526 a 36.656033,34.240347 0 0 1 17.6494,45.653918 c -2.7155,-11.413306 4.0728,-2.536125 -12.2188,-11.413306 a 135.76309,126.8161 0 0 0 -54.3054,-8.877202 77.38496,72.285179 0 0 1 -23.0796,-8.87697 168.34623,157.25197 0 0 0 -70.59697,-50.72638 116.75627,109.06185 0 0 0 -115.3987,15.21782 h 9.50343 a 38.013663,35.508509 0 0 1 38.01375,26.63137 v 11.4133 h -9.50353 a 50.232341,46.921956 0 0 0 -51.58993,0 38.013663,35.508509 0 0 1 -38.01365,-11.4133 h -9.50302 a 135.76309,126.8161 0 0 0 -73.31262,-26.63137 112.68336,105.25736 0 0 0 -82.81492,20.29073 14.93394,13.949772 0 0 0 0,19.02212 c 12.21852,0 0,8.87719 12.21852,0 12.21864,-8.87677 16.29149,2.53656 28.51031,8.87719 12.21844,6.340852 12.21844,15.218047 0,15.218047 l -47.5175,15.218042 c -23.07971,11.41331 -51.58981,0 -61.09335,0 h -5.4306 a 191.42596,178.81071 0 0 0 -112.68325,0 c -21.72202,8.877185 -44.80161,26.63114 -44.80161,48.189819 a 24.437355,22.8269 0 0 0 12.21851,0 c 12.21899,-15.217831 25.79518,-6.340646 35.29869,0 9.50292,6.340837 12.2185,17.7541572 0,17.7541572 L 384.45582,34.053585 a 21.722094,20.290576 0 0 1 -19.00703,0 160.20044,149.64301 0 0 0 -108.61034,0 80.100222,74.821502 0 0 0 -44.80191,46.921866 v 15.218047 h 12.21875 c 10.86091,0 23.07967,-8.877422 23.07967,0 0,8.877192 9.50349,17.753942 0,26.631362 a 55.662867,51.994603 0 0 0 -16.29168,11.4133 z m 1282.96124,596.03549 -29.8675,1.26791 a 74.669703,69.74886 0 0 1 -67.8822,-57.06721 31.22551,29.167704 0 0 0 -28.5102,-26.63138 c -28.5101,2.53653 -35.2982,-12.68122 -44.8017,-30.43582 a 40.728927,38.044832 0 0 1 0,-17.75419 65.166282,60.871729 0 0 1 67.8815,-48.19 h 115.3986 a 74.669703,69.74886 0 0 0 82.8157,-59.60384 317.68564,296.74969 0 0 0 0,-126.81595 c 0,-10.14514 4.0731,-21.55867 -12.2187,-21.55867 -16.2916,0 -16.2916,8.87698 -16.2916,17.75417 v 81.16247 a 69.239174,64.676212 0 0 1 -59.7359,51.99454 135.76309,126.8161 0 0 1 -70.5964,0 397.78585,371.57119 0 0 0 -86.8884,-8.8772 99.107056,92.575758 0 0 0 -103.1805,50.72661 c -6.7879,11.41332 6.7885,17.75389 -19.0063,32.97195 a 723.61727,675.92985 0 0 1 -77.3851,39.31332 28.510249,26.631382 0 0 1 -35.2984,0 115.39862,107.79369 0 0 0 -115.39887,-15.21806 h -16.29147 a 40.728927,38.044832 0 0 1 -19.00667,-39.31332 195.49884,182.61518 0 0 0 0,-126.8159 54.305232,50.726439 0 0 0 -58.37838,-26.63136 c -21.72227,8.87699 -40.72873,17.75418 -63.80845,0 A 407.28927,380.44832 0 0 0 579.95463,387.87048 C 518.8612,375.18856 455.05236,366.31181 393.95919,357.43461 355.94551,351.09376 316.57438,344.75313 278.56046,335.87593 A 492.82,460.34244 0 0 1 96.637778,252.17736 1297.8953,1212.362 0 0 1 35.544409,197.64601 L 0.24620383,162.13791 a 29.867881,27.899544 0 0 0 -23.07965683,0 v 26.63136 c 13.5761672,38.17136 39.235262,71.77788 73.311905,96.38008 a 464.30973,433.71105 0 0 0 135.763138,72.28526 c 47.5172,13.56917 96.12031,24.09523 145.26643,31.70381 l 89.60357,8.87743 a 678.81545,634.08053 0 0 1 192.78372,41.84917 c 32.85497,13.31557 65.16632,28.02644 96.39162,44.38554 v 13.94986 a 314.97039,294.21337 0 0 1 -51.58983,15.21805 14.93394,13.949772 0 0 1 -16.29147,0 C 600.31925,498.20042 558.23258,480.44626 513.43074,465.22842 a 376.06375,351.28059 0 0 0 -86.88857,-15.21803 l -77.38504,-8.87719 c -35.29822,-8.87719 -63.80851,-2.53612 -105.89485,-8.87719 -42.08664,-6.34085 -82.8154,-15.2176 -124.90226,-24.09502 A 427.65372,399.47073 0 0 1 -25.548968,344.75313 C -60.847164,320.6579 -93.430309,287.68591 -128.72873,261.05454 l -21.72202,-11.41375 h -16.29169 v 15.21782 a 190.06833,177.54255 0 0 0 19.00673,41.8494 c 35.29866,50.7266 81.457982,93.84396 135.763385,126.8164 52.54018,30.94281 109.696493,54.53066 169.703685,69.7487 a 760.27333,710.17021 0 0 0 153.41244,35.50855 c 37.47056,4.31147 74.12645,13.69627 108.61034,27.89931 38.01381,11.41353 77.38482,29.16792 115.39862,44.38597 a 271.52618,253.63221 0 0 1 42.08636,26.63138 162.91571,152.17933 0 0 1 -70.59642,32.97195 l -73.31213,12.68194 a 44.80182,41.849314 0 0 0 -35.29869,30.43542 c 44.12312,1.5222 87.56741,9.76508 128.97504,24.09526 46.97391,15.21806 83.63023,49.83885 99.10703,93.84389 l -9.50344,-8.87718 a 233.51252,218.1237 0 0 0 -89.60359,-50.72615 168.34623,157.25197 0 0 0 -112.68326,0 c -19.00678,12.68123 -42.08648,32.97205 -54.30547,41.84914 -12.21851,8.87701 -9.50326,15.21806 0,24.09486 29.05341,27.89979 64.21603,49.45852 103.18022,63.40807 h -16.29167 a 76.027333,71.017021 0 0 0 -54.30533,57.06731 135.76309,126.8161 0 0 1 0,15.21806 h 16.29166 c 9.5035,0 20.36457,-8.87699 32.5831,0 a 111.32574,103.9892 0 0 1 42.08695,32.97231 20.364464,19.022416 0 0 1 0,17.754 314.97039,294.21337 0 0 0 -16.2918,48.19 c -9.50337,2.5366 -6.78837,17.7546 0,17.7546 a 67.881545,63.408053 0 0 0 16.2918,-11.4132 l 9.50293,17.7538 a 126.25966,117.93897 0 0 0 25.79515,41.8495 107.25285,100.18473 0 0 0 124.90178,17.7539 543.05232,507.26439 0 0 0 70.5971,-44.3852 39.371296,36.77667 0 0 1 25.79523,-11.4134 154.76991,144.57035 0 0 1 38.01322,0 14.93394,13.949772 0 0 1 12.21906,8.8768 47.517083,44.385638 0 0 1 -12.21906,41.8491 339.40774,317.04027 0 0 0 -38.01322,30.4361 88.24601,82.430471 0 0 0 63.80835,0 154.76991,144.57035 0 0 0 63.80845,-44.3855 51.589973,48.19012 0 0 0 12.21905,-35.5086 689.67647,644.2258 0 0 1 -25.79522,-90.0392 c -2.71508,-24.09526 -12.21852,-39.31333 -38.01366,-39.31333 a 46.159449,43.117475 0 0 1 0,17.7547 c -9.50301,11.41333 -6.78801,11.41333 -25.79469,0 l -54.30543,-35.50878 a 77.38496,72.285179 0 0 1 -35.29824,-65.94451 25.794986,24.095059 0 0 1 25.7947,-24.09515 67.881545,63.408053 0 0 1 35.29824,57.0672 47.517083,44.385638 0 0 1 0,17.7546 l 28.51073,-17.7546 61.09327,15.21807 c 20.3642,1.52169 40.72882,1.52169 61.09294,0 a 209.07516,195.2968 0 0 0 0,41.84914 c 10.59003,56.94086 31.22572,111.72516 61.09358,162.32476 25.7952,46.9219 54.30522,95.1124 77.38472,143.3023 a 127.61731,119.20714 0 0 1 9.504,96.3802 v 8.8772 a 78.742595,73.553343 0 0 1 -103.17989,39.3131 205.00227,191.49232 0 0 1 -67.88202,-72.2852 c -19.00657,-24.0952 -47.51677,-64.6764 -54.30482,-74.8218 a 35.298402,32.972187 0 0 0 -35.29885,-21.5587 v 17.7544 c 6.24546,18.6419 13.98381,36.9034 23.0797,54.5309 16.29169,24.0952 35.29888,48.1901 54.30533,72.2853 21.85771,27.2652 49.01048,50.4728 80.10066,68.4806 a 122.18679,114.1345 0 0 0 195.49879,-101.4528 321.75852,300.55417 0 0 0 -23.0801,-126.8164 c -19.0067,-39.3127 -42.0864,-82.4299 -61.0934,-126.8159 a 392.35532,366.49853 0 0 1 -44.8018,-157.25184 115.39862,107.79369 0 0 1 35.2986,-72.28538 c 0,8.8772 9.5032,-6.34055 0,8.8772 a 95.034165,88.771275 0 0 0 -9.5034,48.19011 c 47.5171,-8.87719 66.5239,-41.84924 82.8156,-81.16246 a 97.749423,91.307594 0 0 0 0,26.63178 67.881545,63.408053 0 0 0 12.2186,15.21757 27.152618,25.363221 0 0 0 19.0069,-8.877 340.76534,318.30842 0 0 0 28.5102,-32.97235 c 8.2817,5.07265 16.0202,11.16014 23.0797,17.7546 19.0068,26.63107 32.5833,24.09475 42.0862,0 a 57.020498,53.262764 0 0 1 32.5833,-35.50879 c 11.8115,11.79375 24.4377,22.82684 38.0137,32.97226 h 19.0067 a 65.166282,60.871729 0 0 0 0,-15.21807 v -44.38537 c 44.802,11.41332 86.8886,6.34067 86.8886,-15.21796 z m -756.20052,-87.50333 14.93393,-15.21786 a 135.76309,126.8161 0 0 0 70.59722,0 l 23.07961,-8.877 a 69.239174,64.676212 0 0 1 35.29815,0 43.444188,40.581154 0 0 1 23.07972,26.63139 v 8.87699 a 490.10478,457.80617 0 0 1 -51.58994,32.97246 52.947603,49.45828 0 0 1 -63.80835,0 661.16624,617.59442 0 0 1 -51.59034,-44.38598 z m 442.58782,41.84934 a 188.71068,176.27439 0 0 1 127.6175,6.34067 c 9.5029,7.22896 18.0563,15.21806 25.7946,24.09526 -9.5032,2.53653 -16.2917,11.41351 -25.7946,11.41351 a 247.08883,230.80531 0 0 1 -47.5173,0 107.25285,100.18473 0 0 0 -61.0934,-32.97224 47.517083,44.385638 0 0 1 -19.0068,-8.8772 z M -571.31667,1150.0352 a 50.232341,46.921956 0 0 1 2.71553,26.6313 103.17996,96.380241 0 0 0 90.96097,68.4806 c 25.79519,3.044 51.59037,3.044 77.38515,0 a 209.07516,195.2968 0 0 0 74.67001,-19.0222 200.92939,187.68783 0 0 0 89.60358,-90.0392 c 12.21855,-26.6317 25.79471,-50.7266 35.29819,-77.3579 l 38.01371,-101.45319 c 16.29171,-44.38537 35.29843,-95.11191 54.30493,-134.42501 19.007216,-39.31283 40.729224,-74.82141 63.80889,-114.13462 A 722.25966,674.6617 0 0 1 64.054628,567.94914 l 19.0072,-15.21761 -44.801914,-17.75439 -70.596846,-35.50877 c -6.788214,0 -19.006741,-8.87674 -19.006741,0 a 1193.3576,1114.7135 0 0 0 -61.093377,101.45317 c -28.51021,57.0673 -47.51742,116.67063 -73.31213,173.73803 a 203.64464,190.22416 0 0 1 -44.80169,65.94441 160.20044,149.64301 0 0 1 -135.76336,39.31292 217.22094,202.90576 0 0 1 -63.80851,-21.55874 76.027333,71.017021 0 0 1 -38.01371,-50.72664 120.82915,112.86634 0 0 0 6.78798,183.88366 c 59.32869,38.04472 137.5282,38.04472 196.85637,0 a 480.60136,448.92903 0 0 1 40.72922,-32.97235 185.99542,173.73806 0 0 1 -205.00244,93.84397 h -19.0065 a 177.84964,166.1291 0 0 1 -116.75641,-207.97828 176.49202,164.86094 0 0 0 -73.3119,182.61518 c 10.86089,46.5414 42.49351,86.7422 86.88809,110.33 a 219.93621,205.44209 0 0 0 150.69702,17.7541 54.305232,50.726439 0 0 1 -35.29826,30.4359 135.76309,126.8161 0 0 1 -135.76339,-35.5085 z M 1338.8703,1048.5825 c 9.5037,0 9.5037,0 43.4444,10.1453 h 9.5031 v -11.4139 a 63.808652,59.60357 0 0 0 -23.0798,-48.1899 407.28927,380.44832 0 0 1 -67.8816,-57.06725 32.583141,30.435865 0 0 0 -16.2916,-11.41332 l -23.0795,-8.8774 v 26.63138 c 0,6.34108 12.2185,24.09516 0,24.09516 l -35.2983,17.7547 c -48.875,-54.53138 -48.875,-39.31332 -67.8815,-39.31332 2.7153,8.87729 12.2186,15.21806 12.2186,24.09525 a 52.947603,49.45828 0 0 1 0,41.8492 63.808652,59.60357 0 0 1 -77.385,0 l -13.5765,-15.2178 c 6.2453,46.9219 21.315,92.5753 44.8017,134.4251 h 19.007 a 118.11389,110.33001 0 0 1 35.2985,-15.2179 31.22551,29.167704 0 0 1 40.7287,15.2179 l 9.5036,26.6315 h 14.934 a 32.583141,30.435865 0 0 0 12.2188,-15.2181 78.742595,73.553343 0 0 0 0,-65.9445 h 16.2914 l 38.0136,17.754 c 16.2918,8.8772 28.5104,8.8772 28.5104,-8.8768 a 209.07516,195.2968 0 0 0 0,-41.8493 z M -264.4921,846.94464 a 105.8952,98.916561 0 0 0 -27.15213,-97.64844 61.09339,57.067248 0 0 0 -61.09336,-11.41331 39.371296,36.77667 0 0 0 -23.07967,35.50857 c 0,8.8772 -4.07315,15.21797 -16.29169,8.8772 -12.219,-6.34108 -23.08013,-21.55913 -35.29873,-21.55913 a 51.589973,48.19012 0 0 0 38.01378,68.48112 c 12.62611,1.52181 25.3876,1.52181 38.01371,0 a 142.55124,133.15691 0 0 1 86.88809,17.75399 z"
     fill="#ffffff"
     id="path1-4"
     style="opacity:0.56570525;stroke-width:131.212;fill:#141414;fill-opacity:1" /><path
     d="m 2124.4628,1312.279 c 0,481.1605 -391.9761,871.2755 -875.642,871.3451 -483.31575,0 -875.2917,-390.1846 -875.22172,-871.4147 -0.14012,-481.23016 391.83598,-871.34509 875.36182,-871.34509 483.5258,0 875.5019,390.18471 875.5019,871.41469 z"
     fill="#eab300"
     id="path1"
     style="stroke-width:0.698792;fill:#eab300;fill-opacity:1;opacity:0.59650749" /><g
     fill="#ffffff"
     id="g3"
     transform="matrix(0.70045753,0,0,0.69713184,373.59908,440.86431)"><path
       d="M 1741.5,943.8 C 1725.4,776.4 1580.9,720.3 1398.3,704.3 V 472 H 1257 v 226.1 c -37.1,0 -75.1,0.7 -112.8,1.5 V 472 h -141.3 l -0.1,232.1 c -30.6,0.6 -60.7,1.2 -90,1.2 v -0.7 l -194.9,-0.1 v 151 c 0,0 104.4,-2 102.6,-0.1 57.3,0 75.9,33.2 81.3,61.9 v 264.6 c 4,0 9.1,0.2 14.9,1 h -14.9 l -0.1,370.7 c -2.5,18 -13.1,46.7 -53.1,46.8 1.8,1.6 -102.7,0 -102.7,0 l -28.1,168.8 h 184 c 34.2,0 67.9,0.6 100.9,0.8 l 0.1,234.9 H 1144 v -232.4 c 38.7,0.8 76.2,1.1 112.9,1.1 l -0.1,231.3 h 141.3 v -234.4 c 237.6,-13.6 404.1,-73.5 424.7,-296.7 16.7,-179.7 -67.8,-260 -202.7,-292.4 82.1,-41.6 133.4,-115.1 121.4,-237.6 z M 1543.7,1446 c 0,175.5 -300.5,155.6 -396.4,155.6 v -311.3 c 95.9,0.2 396.4,-27.3 396.4,155.7 z m -65.8,-439.1 c 0,159.7 -250.8,141 -330.6,141.1 V 865.8 c 79.9,0 330.7,-25.4 330.6,141.1 z"
       id="path2" /><path
       d="m 902,1175.7 h 21 v 15.5 h -21 z"
       id="path3" /></g><path
     d="m 219.82584,2355.7824 q -7.84316,29.804 -16.86279,59.2159 -8.62748,29.4118 -18.43143,59.2158 h -45.49033 q -7.05884,-16.4706 -15.29416,-39.2158 -8.23532,-22.7452 -17.25495,-49.4119 -8.627475,-27.0589 -18.039267,-56.8629 -9.019633,-30.1962 -17.647109,-60.7845 h 61.568806 q 3.13726,14.1177 6.66668,30.9805 3.92158,16.4706 7.84316,34.1177 4.31374,17.6471 8.62748,35.6864 4.7059,17.6471 9.41179,34.1178 5.09806,-17.255 9.80395,-35.2943 5.09805,-18.0392 9.41179,-35.2942 4.7059,-17.6471 8.62748,-33.7256 4.31374,-16.4706 7.451,-30.5883 H 242.571 q 3.13727,14.1177 7.05885,30.5883 3.92158,16.0785 8.23531,33.7256 4.31374,17.255 9.01964,35.2942 4.70589,18.0393 9.80395,35.2943 4.70589,-16.4707 9.41179,-34.1178 4.7059,-18.0393 8.62748,-35.6864 4.31373,-17.6471 7.84316,-34.1177 3.92158,-16.8628 7.05884,-30.9805 h 60.78449 q -8.62748,30.5883 -18.03927,60.7845 -9.01963,29.804 -18.03927,56.8629 -8.62747,26.6667 -17.25495,49.4119 -8.23532,22.7452 -15.29416,39.2158 h -45.49033 q -9.80395,-29.804 -19.21574,-59.2158 -9.41179,-29.4119 -17.25495,-59.2159 z m 337.49402,14.902 q 0,24.3138 -7.05884,44.706 -7.05885,20.0001 -20.39222,34.5099 -13.33337,14.1177 -32.15695,21.9609 -18.43143,7.8431 -41.56875,7.8431 -22.74516,0 -41.56875,-7.8431 -18.43142,-7.8432 -31.76479,-21.9609 -13.33338,-14.5098 -20.78438,-34.5099 -7.451,-20.3922 -7.451,-44.706 0,-24.3138 7.451,-44.3139 7.84316,-20 21.17653,-34.1177 13.72553,-14.1177 32.15696,-21.9608 18.82358,-7.8432 40.78443,-7.8432 22.353,0 40.78443,7.8432 18.82358,7.8431 32.15696,21.9608 13.33337,14.1177 20.78437,34.1177 7.451,20.0001 7.451,44.3139 z m -59.60801,0 q 0,-27.0589 -10.98043,-42.3531 -10.58826,-15.6863 -30.58832,-15.6863 -20.00006,0 -30.98048,15.6863 -10.98043,15.2942 -10.98043,42.3531 0,27.0589 10.98043,43.1374 10.98042,15.6863 30.98048,15.6863 20.00006,0 30.58832,-15.6863 10.98043,-16.0785 10.98043,-43.1374 z m 264.94447,0 q 0,24.3138 -7.05885,44.706 -7.05884,20.0001 -20.39221,34.5099 -13.33337,14.1177 -32.15696,21.9609 -18.43142,7.8431 -41.56874,7.8431 -22.74517,0 -41.56875,-7.8431 -18.43143,-7.8432 -31.7648,-21.9609 -13.33337,-14.5098 -20.78437,-34.5099 -7.451,-20.3922 -7.451,-44.706 0,-24.3138 7.451,-44.3139 7.84316,-20 21.17653,-34.1177 13.72553,-14.1177 32.15695,-21.9608 18.82359,-7.8432 40.78444,-7.8432 22.353,0 40.78443,7.8432 18.82358,7.8431 32.15695,21.9608 13.33337,14.1177 20.78438,34.1177 7.451,20.0001 7.451,44.3139 z m -59.60802,0 q 0,-27.0589 -10.98042,-42.3531 -10.58827,-15.6863 -30.58832,-15.6863 -20.00006,0 -30.98049,15.6863 -10.98042,15.2942 -10.98042,42.3531 0,27.0589 10.98042,43.1374 10.98043,15.6863 30.98049,15.6863 20.00005,0 30.58832,-15.6863 10.98042,-16.0785 10.98042,-43.1374 z m 62.19879,0.3922 q 0,-22.353 7.05885,-41.9609 7.451,-20.0001 21.17653,-34.5099 13.72553,-14.9021 33.33343,-23.5295 19.6079,-8.6275 44.70601,-8.6275 16.47063,0 30.19616,3.1373 13.72553,2.7451 26.66675,8.2353 l -12.1569,46.6668 q -8.23532,-3.1373 -18.03927,-5.4902 -9.80395,-2.353 -21.96085,-2.353 -25.88242,0 -38.82364,16.0785 -12.54905,16.0785 -12.54905,42.3531 0,27.8432 11.76474,43.1373 12.15689,15.2942 41.9609,15.2942 10.58827,0 22.74517,-1.9608 12.15689,-1.9608 22.353,-6.2745 l 8.23532,47.8433 q -10.19611,4.3137 -25.49027,7.451 -15.29416,3.1372 -33.72559,3.1372 -28.23537,0 -48.62759,-8.2353 -20.39221,-8.6275 -33.72559,-23.1373 -12.94121,-14.5099 -19.21574,-34.1178 -5.88237,-20 -5.88237,-43.1373 z m 356.31731,-0.3922 q 0,24.3138 -7.0589,44.706 -7.0588,20.0001 -20.3922,34.5099 -13.3334,14.1177 -32.1569,21.9609 -18.4315,7.8431 -41.5688,7.8431 -22.74516,0 -41.56874,-7.8431 -18.43143,-7.8432 -31.7648,-21.9609 -13.33337,-14.5098 -20.78437,-34.5099 -7.451,-20.3922 -7.451,-44.706 0,-24.3138 7.451,-44.3139 7.84316,-20 21.17653,-34.1177 13.72553,-14.1177 32.15696,-21.9608 18.82358,-7.8432 40.78442,-7.8432 22.353,0 40.7844,7.8432 18.8236,7.8431 32.157,21.9608 13.3334,14.1177 20.7844,34.1177 7.451,20.0001 7.451,44.3139 z m -59.608,0 q 0,-27.0589 -10.9805,-42.3531 -10.5882,-15.6863 -30.5883,-15.6863 -20.0001,0 -30.98047,15.6863 -10.98043,15.2942 -10.98043,42.3531 0,27.0589 10.98043,43.1374 10.98037,15.6863 30.98047,15.6863 20.0001,0 30.5883,-15.6863 10.9805,-16.0785 10.9805,-43.1374 z m 185.3363,-5.8824 q 0,-28.2353 -7.451,-40.0001 -7.0588,-11.7647 -24.7059,-11.7647 -5.4902,0 -11.3726,0.7843 -5.8824,0.3922 -11.3726,1.1765 v 159.2161 h -58.4315 v -199.2162 q 7.451,-1.9608 17.2549,-3.9216 10.1961,-2.353 21.1765,-3.9216 11.3726,-1.9608 23.1374,-2.7451 11.7647,-1.1765 23.1373,-1.1765 22.353,0 36.0785,5.8824 14.1177,5.4902 23.1373,13.3334 12.5491,-9.0197 28.6276,-14.1177 16.4706,-5.0981 30.1961,-5.0981 24.706,0 40.3923,7.0589 16.0785,6.6666 25.4903,19.2157 9.4118,12.5491 12.9412,29.804 3.5294,17.255 3.5294,38.4315 v 116.4709 h -58.4315 V 2364.802 q 0,-28.2353 -7.451,-40.0001 -7.0589,-11.7647 -24.706,-11.7647 -4.7059,0 -13.3333,2.3529 -8.2354,2.353 -13.7256,5.8824 2.7451,9.0196 3.5294,19.2157 0.7844,9.804 0.7844,21.1766 v 112.5493 h -58.4316 z m 305.3364,0 q 0,-28.2353 -7.451,-40.0001 -7.0588,-11.7647 -24.7059,-11.7647 -5.4902,0 -11.3726,0.7843 -5.8824,0.3922 -11.3726,1.1765 v 159.2161 h -58.4315 v -199.2162 q 7.451,-1.9608 17.2549,-3.9216 10.1961,-2.353 21.1766,-3.9216 11.3726,-1.9608 23.1373,-2.7451 11.7647,-1.1765 23.1373,-1.1765 22.353,0 36.0785,5.8824 14.1177,5.4902 23.1374,13.3334 12.549,-9.0197 28.6275,-14.1177 16.4706,-5.0981 30.1962,-5.0981 24.7059,0 40.3922,7.0589 16.0785,6.6666 25.4903,19.2157 9.4118,12.5491 12.9412,29.804 3.5294,17.255 3.5294,38.4315 v 116.4709 h -58.4315 V 2364.802 q 0,-28.2353 -7.451,-40.0001 -7.0588,-11.7647 -24.7059,-11.7647 -4.7059,0 -13.3334,2.3529 -8.2353,2.353 -13.7256,5.8824 2.7452,9.0196 3.5295,19.2157 0.7843,9.804 0.7843,21.1766 v 112.5493 h -58.4316 z m 182.1989,7.8432 q 0,-27.4511 8.2353,-47.8433 8.6275,-20.7844 22.353,-34.5099 13.7255,-13.7255 31.3726,-20.7844 18.0393,-7.0588 36.8629,-7.0588 43.9217,0 69.4119,27.0589 25.4903,26.6667 25.4903,78.8238 0,5.098 -0.3921,11.3725 -0.3922,5.8824 -0.7844,10.5883 h -132.5494 q 1.9608,18.0393 16.8628,28.6275 14.902,10.5883 40.0001,10.5883 16.0785,0 31.3727,-2.7451 15.6863,-3.1373 25.4903,-7.451 l 7.8431,47.4511 q -4.7059,2.353 -12.549,4.7059 -7.8432,2.353 -17.6472,3.9216 -9.4117,1.9608 -20.3922,3.1372 -10.9804,1.1765 -21.9608,1.1765 -27.8432,0 -48.6276,-8.2353 -20.3922,-8.2353 -34.1178,-22.353 -13.3333,-14.5098 -20,-34.1177 -6.2745,-19.6079 -6.2745,-42.3531 z m 137.2553,-22.353 q -0.3922,-7.451 -2.7451,-14.5099 -1.9608,-7.0588 -6.6667,-12.549 -4.3138,-5.4902 -11.3726,-9.0196 -6.6667,-3.5295 -16.8628,-3.5295 -9.804,0 -16.8628,3.5295 -7.0588,3.1372 -11.7647,8.6274 -4.7059,5.4902 -7.451,12.9412 -2.353,7.0589 -3.5295,14.5099 z m 193.1791,-30.5883 q -7.8432,-1.9608 -18.4314,-3.9216 -10.5883,-2.353 -22.7452,-2.353 -5.4902,0 -13.3334,1.1765 -7.451,0.7843 -11.3725,1.9608 v 157.6475 h -58.4316 v -195.2947 q 15.6863,-5.4902 36.8629,-10.1961 21.5687,-5.098 47.8432,-5.098 4.7059,0 11.3726,0.7843 6.6667,0.3921 13.3334,1.5686 6.6667,0.7843 13.3334,2.353 6.6667,1.1764 11.3726,3.1372 z m -5.2522,51.3727 q 0,-22.353 7.0589,-41.9609 7.451,-20.0001 21.1765,-34.5099 13.7255,-14.9021 33.3334,-23.5295 19.6079,-8.6275 44.706,-8.6275 16.4707,0 30.1962,3.1373 13.7255,2.7451 26.6667,8.2353 l -12.1569,46.6668 q -8.2353,-3.1373 -18.0392,-5.4902 -9.804,-2.353 -21.9609,-2.353 -25.8824,0 -38.8236,16.0785 -12.5491,16.0785 -12.5491,42.3531 0,27.8432 11.7648,43.1373 12.1569,15.2942 41.9609,15.2942 10.5882,0 22.7451,-1.9608 12.1569,-1.9608 22.353,-6.2745 l 8.2354,47.8433 q -10.1961,4.3137 -25.4903,7.451 -15.2942,3.1372 -33.7256,3.1372 -28.2354,0 -48.6276,-8.2353 -20.3922,-8.6275 -33.7256,-23.1373 -12.9412,-14.5099 -19.2157,-34.1178 -5.8824,-20 -5.8824,-43.1373 z m 153.5717,1.5686 q 0,-27.4511 8.2353,-47.8433 8.6275,-20.7844 22.353,-34.5099 13.7255,-13.7255 31.3726,-20.7844 18.0393,-7.0588 36.8629,-7.0588 43.9217,0 69.4119,27.0589 25.4903,26.6667 25.4903,78.8238 0,5.098 -0.3921,11.3725 -0.3922,5.8824 -0.7844,10.5883 H 2273.582 q 1.9608,18.0393 16.8628,28.6275 14.902,10.5883 40.0002,10.5883 16.0784,0 31.3726,-2.7451 15.6863,-3.1373 25.4903,-7.451 l 7.8431,47.4511 q -4.7059,2.353 -12.549,4.7059 -7.8432,2.353 -17.6471,3.9216 -9.4118,1.9608 -20.3923,3.1372 -10.9804,1.1765 -21.9608,1.1765 -27.8432,0 -48.6276,-8.2353 -20.3922,-8.2353 -34.1177,-22.353 -13.3334,-14.5098 -20.0001,-34.1177 -6.2745,-19.6079 -6.2745,-42.3531 z m 137.2553,-22.353 q -0.3922,-7.451 -2.7451,-14.5099 -1.9608,-7.0588 -6.6667,-12.549 -4.3138,-5.4902 -11.3726,-9.0196 -6.6667,-3.5295 -16.8628,-3.5295 -9.8039,0 -16.8628,3.5295 -7.0588,3.1372 -11.7647,8.6274 -4.7059,5.4902 -7.451,12.9412 -2.353,7.0589 -3.5295,14.5099 z"
     id="text4"
     style="font-weight:bold;font-size:392.158px;line-height:0;font-family:Ubuntu;-inkscape-font-specification:'Ubuntu, Bold';letter-spacing:-32.7036px;fill:#ffffff;stroke:#ffffff;stroke-width:1.32029"
     transform="scale(1.0140978,0.98609818)"
     aria-label="woocommerce" /><path
     d="m 372.11971,2157.0132 q -2.18896,8.3181 -4.70625,16.5266 -2.40785,8.2086 -5.14404,16.5266 h -12.69593 q -1.97005,-4.5968 -4.26846,-10.9448 -2.2984,-6.3479 -4.81569,-13.7903 -2.40785,-7.552 -5.03459,-15.87 -2.5173,-8.4274 -4.92514,-16.9643 h 17.18327 q 0.87559,3.9401 1.86061,8.6463 1.09447,4.5968 2.18895,9.522 1.20393,4.9251 2.40786,9.9597 1.31337,4.9251 2.62674,9.5219 1.42282,-4.8156 2.73619,-9.8503 1.42282,-5.0345 2.62674,-9.8503 1.31337,-4.9251 2.40785,-9.4124 1.20392,-4.5968 2.07951,-8.5369 h 11.82033 q 0.87559,3.9401 1.97006,8.5369 1.09448,4.4873 2.2984,9.4124 1.20392,4.8158 2.5173,9.8503 1.31337,5.0347 2.73619,9.8503 1.31337,-4.5968 2.62674,-9.5219 1.31337,-5.0346 2.40785,-9.9597 1.20392,-4.9252 2.18895,-9.522 1.09448,-4.7062 1.97005,-8.6463 h 16.96438 q -2.40784,8.5369 -5.03458,16.9643 -2.5173,8.318 -5.03459,15.87 -2.40785,7.4424 -4.8157,13.7903 -2.2984,6.348 -4.26846,10.9448 h -12.69592 q -2.73619,-8.318 -5.36293,-16.5266 -2.62674,-8.2085 -4.81569,-16.5266 z m 57.9642,33.0532 h -16.3077 v -57.5694 h 16.3077 z m 1.53226,-74.2055 q 0,4.4873 -2.95509,7.1141 -2.84563,2.5173 -6.78575,2.5173 -3.94011,0 -6.8952,-2.5173 -2.84563,-2.6268 -2.84563,-7.1141 0,-4.4874 2.84563,-7.0046 2.95509,-2.6268 6.8952,-2.6268 3.94012,0 6.78575,2.6268 2.95509,2.5172 2.95509,7.0046 z m 4.11587,2.2984 16.30769,-2.6267 v 16.9644 h 19.59113 v 13.5715 h -19.59113 v 20.2478 q 0,5.144 1.75116,8.2086 1.86062,3.0645 7.333,3.0645 2.62673,0 5.36292,-0.4378 2.84565,-0.5473 5.14405,-1.4228 l 2.29839,12.6959 q -2.95508,1.2039 -6.56685,2.0795 -3.61178,0.8756 -8.86526,0.8756 -6.6763,0 -11.05421,-1.7512 -4.3779,-1.8606 -7.00464,-5.0346 -2.62675,-3.2834 -3.72122,-7.8802 -0.98503,-4.5968 -0.98503,-10.1786 z m 40.01477,71.9071 v -82.3046 l 16.30769,-2.6267 v 27.5808 q 1.64172,-0.5473 4.15901,-0.9851 2.62675,-0.5472 5.03459,-0.5472 7.00465,0 11.60145,1.97 4.70625,1.8606 7.44244,5.363 2.84563,3.5023 3.94011,8.318 1.20392,4.8157 1.20392,10.7258 v 32.506 h -16.30769 v -30.5359 q 0,-7.8802 -2.0795,-11.1636 -1.97006,-3.2835 -7.44244,-3.2835 -2.18895,0 -4.15901,0.4378 -1.86061,0.3283 -3.39288,0.7662 v 43.779 z"
     id="text1"
     style="font-weight:bold;font-size:164.112px;line-height:0;font-family:Ubuntu;-inkscape-font-specification:'Ubuntu, Bold';letter-spacing:-13.6859px;fill:#eab300;fill-opacity:1;stroke:#ffffff;stroke-width:0.368481"
     aria-label="with" /><path
     style="font-weight:bold;font-size:404.625px;line-height:0;font-family:Ubuntu;-inkscape-font-specification:'Ubuntu, Bold';letter-spacing:-37.5845px;fill:#ffffff;stroke:#ffffff;stroke-width:1.51734"
     d="m 595.28001,332.58186 q 13.35262,0 21.84975,-2.02312 8.90175,-2.42775 14.16187,-6.06938 5.26013,-4.04625 7.28325,-9.30637 2.02313,-5.26013 2.02313,-11.73413 0,-13.75725 -12.948,-22.659 -12.948,-9.30637 -44.50875,-19.82662 -13.75725,-4.8555 -27.5145,-10.92488 -13.75725,-6.474 -24.68213,-15.78037 -10.92487,-9.711 -17.8035,-23.06363 -6.87862,-13.75725 -6.87862,-33.17925 0,-19.422 7.28325,-34.79775 7.28325,-15.78037 20.63587,-26.70525 13.35263,-10.92487 32.37,-16.589621 19.01738,-6.069375 42.89025,-6.069375 28.32375,0 48.95963,6.069375 20.63587,6.069371 33.9885,13.352621 l -18.20813,49.76888 q -11.73412,-6.06938 -26.30062,-10.52025 -14.16188,-4.8555 -34.39313,-4.8555 -22.659,0 -32.77462,6.474 -9.711,6.06937 -9.711,19.01737 0,7.68788 3.64162,12.948 3.64163,5.26013 10.11563,9.711 6.87862,4.04625 15.37575,7.68788 8.90175,3.237 19.422,6.87862 21.84975,8.0925 38.03475,16.185 16.185,7.68788 26.70525,18.20813 10.92487,10.52025 16.185,24.68212 5.26012,14.16188 5.26012,34.39313 0,39.24862 -27.5145,61.09837 -27.5145,21.44513 -82.94812,21.44513 -18.61275,0 -33.58388,-2.42775 -14.97112,-2.02313 -26.70525,-5.26013 -11.3295,-3.237 -19.82662,-6.87862 -8.0925,-3.64163 -13.75725,-6.87863 l 17.8035,-50.1735 q 12.54337,6.87863 30.7515,12.54338 18.61275,5.26012 45.318,5.26012 z m 107.27154,-56.6475 q 0,-28.32375 8.49713,-49.36425 8.90175,-21.44512 23.06362,-35.607 14.16188,-14.16187 32.37,-21.44512 18.61275,-7.28325 38.03475,-7.28325 45.318,0 71.61863,27.91912 26.30062,27.5145 26.30062,81.32963 0,5.26012 -0.40462,11.73412 -0.40463,6.06938 -0.80925,10.92488 H 764.45918 q 2.02312,18.61275 17.39887,29.53762 15.37575,10.92488 41.27175,10.92488 16.58963,0 32.37,-2.83238 16.185,-3.237 26.30063,-7.68787 l 8.0925,48.95962 q -4.8555,2.42775 -12.948,4.8555 -8.0925,2.42775 -18.20813,4.04625 -9.711,2.02313 -21.0405,3.237 -11.3295,1.21388 -22.659,1.21388 -28.72837,0 -50.1735,-8.49713 -21.0405,-8.49712 -35.20237,-23.06362 -13.75725,-14.97113 -20.63588,-35.20238 -6.474,-20.23125 -6.474,-43.6995 z M 844.1703,252.87074 q -0.40462,-7.68788 -2.83237,-14.97113 -2.02313,-7.28325 -6.87863,-12.948 -4.45087,-5.66475 -11.73412,-9.30637 -6.87863,-3.64163 -17.39888,-3.64163 -10.11562,0 -17.39887,3.64163 -7.28325,3.237 -12.13875,8.90175 -4.8555,5.66475 -7.68788,13.35262 -2.42775,7.28325 -3.64162,14.97113 z m 67.21323,-77.688 q 15.37575,-4.45088 39.65325,-8.0925 24.2775,-4.04625 50.98272,-4.04625 27.1099,0 44.9134,7.28325 18.2081,6.87862 28.7284,19.82662 10.5202,12.948 14.9711,30.7515 4.4509,17.8035 4.4509,39.65325 v 120.17363 h -60.2891 V 267.84186 q 0,-29.133 -7.6879,-41.27175 -7.6879,-12.13875 -28.72839,-12.13875 -6.474,0 -13.75725,0.80925 -7.28325,0.40463 -12.948,1.21388 v 164.27775 h -60.28913 z m 252.12727,97.51462 q 0,27.91913 12.5434,44.91338 12.5434,16.99425 37.2255,16.99425 8.0925,0 14.9711,-0.40463 6.8787,-0.80925 11.3295,-1.6185 V 222.92849 q -5.6647,-3.64163 -14.9711,-6.06938 -8.9017,-2.42775 -18.2081,-2.42775 -42.8903,0 -42.8903,58.266 z m 136.3587,101.15625 q -8.0925,2.42775 -18.6128,4.8555 -10.5202,2.02313 -22.2544,3.64163 -11.3295,1.6185 -23.4682,2.42775 -11.7341,1.21387 -22.659,1.21387 -26.3006,0 -46.9365,-7.68787 -20.6359,-7.68788 -34.7978,-21.84975 -14.1618,-14.5665 -21.8497,-34.79775 -7.2833,-20.63588 -7.2833,-46.12725 0,-25.896 6.474,-46.53188 6.474,-21.0405 18.6128,-35.607 12.1387,-14.5665 29.5376,-22.25437 17.8035,-7.68788 40.4625,-7.68788 12.5434,0 22.2544,2.42775 10.1156,2.42775 20.2312,6.87863 V 76.454239 l 60.2892,-9.711 z"
     id="text2"
     aria-label="Send" /><path
     d="m 1438.5261,384.3738 q -23.0636,0 -46.1272,-1.6185 -22.659,-1.21387 -47.3412,-6.474 v -271.908 q 19.422,-3.64162 42.4857,-5.260122 23.0636,-2.023125 42.8902,-2.023125 26.7053,0 48.9596,4.046247 22.659,3.64163 38.844,12.948 16.185,9.30638 25.0868,24.68213 9.3064,14.97112 9.3064,37.2255 0,33.58387 -32.37,53.00587 26.7052,10.11563 36.4162,27.5145 9.711,17.39888 9.711,39.24863 0,44.10412 -32.37,66.3585 -31.9654,22.25437 -95.4915,22.25437 z m -31.9654,-125.83837 v 72.42787 q 6.8787,0.80925 14.9712,1.21388 8.0925,0.40462 17.8035,0.40462 28.3237,0 45.7226,-8.0925 17.3989,-8.0925 17.3989,-29.94225 0,-19.422 -14.5665,-27.5145 -14.5665,-8.49712 -41.6764,-8.49712 z m 0,-48.15038 h 30.7515 q 29.133,0 41.6764,-7.28325 12.5434,-7.68787 12.5434,-24.2775 0,-16.99425 -12.948,-23.87287 -12.948,-6.87863 -38.0348,-6.87863 -8.0925,0 -17.3988,0.40463 -9.3064,0 -16.5897,0.80925 z m 249.295,122.19675 q 13.3526,0 21.8498,-2.02312 8.9017,-2.42775 14.1618,-6.06938 5.2602,-4.04625 7.2833,-9.30637 2.0231,-5.26013 2.0231,-11.73413 0,-13.75725 -12.948,-22.659 -12.948,-9.30637 -44.5087,-19.82662 -13.7573,-4.8555 -27.5145,-10.92488 -13.7573,-6.474 -24.6822,-15.78037 -10.9248,-9.711 -17.8035,-23.06363 -6.8786,-13.75725 -6.8786,-33.17925 0,-19.422 7.2833,-34.79775 7.2832,-15.78037 20.6358,-26.70525 13.3527,-10.92487 32.37,-16.589622 19.0174,-6.069375 42.8903,-6.069375 28.3237,0 48.9596,6.069375 20.6359,6.069372 33.9885,13.352622 l -18.2081,49.76888 q -11.7341,-6.06938 -26.3006,-10.52025 -14.1619,-4.8555 -34.3932,-4.8555 -22.659,0 -32.7746,6.474 -9.711,6.06937 -9.711,19.01737 0,7.68788 3.6416,12.948 3.6417,5.26013 10.1157,9.711 6.8786,4.04625 15.3757,7.68788 8.9018,3.237 19.422,6.87862 21.8498,8.0925 38.0348,16.185 16.185,7.68788 26.7052,18.20813 10.9249,10.52025 16.185,24.68212 5.2601,14.16188 5.2601,34.39313 0,39.24862 -27.5145,61.09837 -27.5145,21.44513 -82.9481,21.44513 -18.6127,0 -33.5839,-2.42775 -14.9711,-2.02313 -26.7052,-5.26013 -11.3295,-3.237 -19.8266,-6.87862 -8.0925,-3.64163 -13.7573,-6.87863 l 17.8035,-50.1735 q 12.5434,6.87863 30.7515,12.54338 18.6128,5.26012 45.318,5.26012 z m 200.7399,48.15038 q -16.5897,-35.20238 -32.7747,-73.23713 -16.185,-38.03475 -30.7515,-75.26025 -14.5665,-37.2255 -27.1098,-71.214 -12.1388,-33.9885 -21.0405,-60.69375 h 69.5955 q 8.0925,24.2775 17.3988,52.60125 9.711,27.91913 19.422,55.83825 10.1157,27.91913 19.422,53.4105 9.3064,25.49138 17.3989,44.10413 7.6879,-18.61275 16.9943,-44.10413 9.711,-25.49137 19.422,-53.4105 10.1156,-27.91912 19.422,-55.83825 9.711,-28.32375 17.8035,-52.60125 h 67.1677 q -9.3064,26.70525 -21.4451,60.69375 -12.1388,33.9885 -26.7053,71.214 -14.5665,37.2255 -30.7515,75.26025 -16.185,38.03475 -32.7746,73.23713 z"
     id="text5"
     style="font-weight:bold;font-size:404.625px;line-height:0;font-family:Ubuntu;-inkscape-font-specification:'Ubuntu, Bold';letter-spacing:-37.5845px;fill:#eab300;stroke:#ffffff;stroke-width:1.51734"
     aria-label="BSV" /></svg>
