<?xml version="1.0" encoding="UTF-8" standalone="no"?>
<svg
   version="1.0"
   width="336.220813pt"
   height="231.538871pt"
   viewBox="0 0 336.220813 231.538871"
   preserveAspectRatio="xMidYMid meet"
   id="svg46"
   sodipodi:docname="bsv-godfather.svg"
   inkscape:version="1.2.2 (b0a8486541, 2022-12-01)"
   xmlns:inkscape="http://www.inkscape.org/namespaces/inkscape"
   xmlns:sodipodi="http://sodipodi.sourceforge.net/DTD/sodipodi-0.dtd"
   xmlns="http://www.w3.org/2000/svg"
   xmlns:svg="http://www.w3.org/2000/svg">
  <defs
     id="defs50" />
  <sodipodi:namedview
     id="namedview48"
     pagecolor="#ffffff"
     bordercolor="#000000"
     borderopacity="0.25"
     inkscape:showpageshadow="2"
     inkscape:pageopacity="0.0"
     inkscape:pagecheckerboard="0"
     inkscape:deskcolor="#d1d1d1"
     inkscape:document-units="pt"
     showgrid="false"
     inkscape:zoom="2.811623"
     inkscape:cx="282.39917"
     inkscape:cy="125.90593"
     inkscape:window-width="1880"
     inkscape:window-height="1056"
     inkscape:window-x="40"
     inkscape:window-y="0"
     inkscape:window-maximized="1"
     inkscape:current-layer="g44" />
  <metadata
     id="metadata2"> Created by potrace 1.16, written by Peter Selinger 2001-2019 </metadata>
  <g
     transform="translate(-34.648247,325.114996) scale(0.100000,-0.100000)"
     fill="#000000"
     stroke="none"
     id="g44">
    <path
       d="M2485 3240 c-3 -5 4 -58 16 -116 18 -91 20 -112 9 -148 -24 -83 -101 -175 -218 -262 -58 -43 -86 -81 -97 -133 -7 -34 -7 -34 -79 -27 -39 3 -85 9 -102 11 -28 5 -35 0 -92 -70 -34 -41 -62 -76 -62 -78 0 -5 113 -25 224 -40 90 -12 90 -12 110 -52 15 -27 31 -43 53 -50 17 -6 52 -25 78 -44 l46 -33 -58 -51 c-136 -122 -203 -191 -191 -198 7 -3 54 -14 105 -24 l92 -19 129 122 c72 67 133 122 137 122 4 0 33 -22 64 -48 95 -82 104 -86 156 -72 44 12 46 12 66 -14 11 -14 29 -26 39 -26 16 0 108 63 266 182 51 38 51 38 165 19 90 -16 117 -17 126 -8 17 16 103 157 103 167 0 10 -16 13 -155 36 -112 18 -133 21 -157 23 -16 1 -28 55 -56 246 -8 60 -8 60 75 146 l84 86 -88 31 c-49 18 -93 32 -99 32 -6 0 -23 -13 -39 -30 -16 -16 -32 -30 -35 -30 -15 0 -30 120 -30 237 l0 124 -42 -3 -43 -3 1 -155 c1 -176 5 -189 95 -307 54 -70 83 -149 94 -255 12 -110 15 -108 -118 -86 -61 10 -118 20 -126 23 -21 8 -80 -14 -91 -35 -6 -10 -10 -50 -10 -89 0 -70 0 -70 48 -76 91 -12 92 -14 27 -84 -61 -65 -89 -84 -141 -95 -28 -6 -35 -2 -79 51 -47 58 -47 58 -42 138 9 121 33 222 61 251 15 17 26 22 30 15 12 -19 29 -12 23 10 -4 15 1 22 18 29 13 5 26 14 30 19 3 6 15 11 27 11 21 0 74 33 95 60 7 8 20 35 30 60 19 51 32 63 49 49 8 -7 14 -6 19 1 3 5 0 10 -7 10 -9 0 -9 3 2 10 20 13 1 45 -28 45 -11 0 -29 9 -40 18 -23 21 -23 21 -47 -55 -10 -34 -23 -58 -31 -58 -8 0 -14 -7 -14 -16 0 -9 -6 -14 -12 -12 -7 3 -20 -5 -30 -16 -19 -23 -18 -24 -18 29 0 3 3 5 8 6 17 2 33 23 27 37 -3 9 0 19 7 24 10 6 10 8 1 8 -20 0 -15 27 6 33 14 3 18 -2 19 -25 0 -17 3 -33 6 -36 9 -9 39 71 40 108 1 35 -4 40 -94 80 -25 11 -113 5 -147 -10 -41 -18 -49 -46 -17 -54 13 -4 24 -11 24 -16 0 -8 -29 0 -65 19 -6 4 1 -4 15 -16 32 -29 12 -30 -24 -2 -14 11 -26 15 -26 9 0 -6 13 -18 28 -27 29 -17 29 -17 5 -51 -23 -35 -31 -96 -13 -107 6 -3 10 -13 10 -21 0 -13 38 -58 50 -59 20 -2 50 -18 50 -27 0 -6 -7 -5 -17 3 -13 11 -17 11 -20 2 -3 -7 -11 -13 -19 -13 -8 0 -14 -4 -14 -10 0 -5 5 -10 12 -10 6 0 4 -8 -6 -19 -10 -11 -13 -21 -7 -25 5 -4 12 -2 16 4 3 5 11 10 16 10 12 0 1 -42 -12 -51 -5 -3 -24 -28 -42 -57 -17 -28 -70 -85 -116 -127 -74 -66 -86 -74 -99 -61 -12 12 -10 22 19 77 19 35 53 94 77 132 38 59 46 87 24 87 -13 0 -98 -114 -143 -190 -57 -97 -62 -73 -19 92 24 96 28 123 18 129 -17 11 -21 3 -63 -136 -20 -66 -38 -121 -41 -124 -2 -3 -12 2 -20 11 -15 14 -15 25 1 124 9 60 23 123 30 139 7 17 58 80 113 142 55 61 118 134 141 163 41 52 41 52 36 123 -3 40 -11 107 -17 150 -10 75 -11 77 -39 77 -15 0 -31 -4 -34 -10z m350 -373 c20 -11 20 -11 0 -15 -11 -2 -26 -9 -32 -14 -16 -13 -43 -3 -43 15 0 7 -17 18 -37 24 -34 9 -31 10 27 5 36 -2 74 -10 85 -15z m-150 -27 c3 -5 1 -10 -4 -10 -6 0 -11 5 -11 10 0 6 2 10 4 10 3 0 8 -4 11 -10z m-8 -27 c-4 -3 -10 -3 -14 0 -3 4 0 7 7 7 7 0 10 -3 7 -7z m-2 -23 c3 -5 4 -10 1 -10 -3 0 -8 5 -11 10 -3 6 -4 10 -1 10 3 0 8 -4 11 -10z m130 -10 c-3 -5 -11 -10 -16 -10 -6 0 -7 5 -4 10 3 6 11 10 16 10 6 0 7 -4 4 -10z m-120 -20 c3 -5 1 -10 -4 -10 -6 0 -11 5 -11 10 0 6 2 10 4 10 3 0 8 -4 11 -10z m91 -32 c8 -27 -3 -34 -24 -15 -10 10 -24 17 -31 17 -7 0 -10 4 -7 9 11 17 55 9 62 -11z m-15 -45 c13 -16 12 -17 -3 -4 -17 13 -22 21 -14 21 2 0 10 -8 17 -17z m296 -448 c94 -15 92 -11 38 -65 -46 -47 -49 -48 -71 -33 -17 10 -35 13 -59 9 -19 -4 -35 -5 -35 -2 0 3 14 29 31 56 19 31 37 49 45 46 7 -3 30 -8 51 -11z m-73 -138 c16 -12 14 -15 -20 -39 -42 -30 -54 -28 -54 8 0 16 8 28 23 34 30 12 31 12 51 -3z"
       id="path4"
       style="fill:#e6e6e6" />
    <path
       d="M2580 2836 c-6 -16 -15 -23 -27 -20 -10 2 -29 -5 -43 -15 -22 -18 -23 -21 -10 -46 10 -19 20 -25 38 -23 19 2 30 17 52 66 22 48 26 62 14 62 -8 0 -19 -11 -24 -24z"
       id="path6"
       style="fill:#e6e6e6" />
    <path
       d="M1880 2010 c0 -322 2 -370 15 -370 13 0 15 48 15 370 0 322 -2 370 -15 370 -13 0 -15 -48 -15 -370z"
       id="path8"
       style="fill:#e6e6e6" />
    <path
       d="M653 2221 c-24 -4 -44 -9 -46 -12 -3 -4 -15 -53 -83 -341 -15 -65 -25 -121 -20 -125 13 -13 214 -16 264 -3 90 22 142 82 142 163 0 33 -6 49 -25 67 -24 23 -24 23 10 59 19 19 38 50 41 67 8 41 -17 89 -58 110 -35 18 -160 27 -225 15z m155 -104 c21 -17 10 -60 -18 -74 -33 -17 -110 -17 -110 0 0 25 20 81 32 89 15 10 78 1 96 -15z m-32 -192 c24 -16 24 -59 1 -82 -18 -18 -147 -31 -147 -15 0 6 5 33 12 61 11 51 11 51 62 51 29 0 61 -6 72 -15z"
       id="path10"
       style="fill:#ffcc00" />
    <path
       d="M3500 2191 c-6 -13 -10 -153 -10 -386 0 -331 2 -367 16 -361 9 3 18 6 20 6 2 0 4 171 4 380 0 237 -4 380 -10 380 -5 0 -14 -9 -20 -19z"
       id="path12"
       style="fill:#e6e6e6" />
    <path
       d="M3287 2173 c-4 -3 -7 -165 -7 -360 0 -330 1 -353 18 -353 16 0 17 23 15 352 -2 194 -3 356 -3 361 0 9 -14 9 -23 0z"
       id="path14"
       style="fill:#e6e6e6" />
    <path
       d="M2580 1786 c0 -293 2 -336 15 -336 13 0 15 41 13 332 -2 254 -6 332 -15 336 -10 3 -13 -68 -13 -332z"
       id="path16"
       style="fill:#e6e6e6" />
    <path
       d="M1073 2091 c-62 -29 -91 -99 -63 -152 6 -11 35 -33 65 -50 64 -36 71 -45 54 -66 -10 -11 -25 -14 -64 -10 -27 3 -59 8 -71 12 -18 6 -24 0 -37 -32 -15 -38 -15 -38 21 -55 42 -20 136 -24 179 -7 72 27 111 105 79 155 -10 13 -42 41 -72 60 -71 46 -71 67 1 67 6 0 27 -2 48 -6 35 -5 38 -4 52 30 8 19 15 39 15 43 0 11 -82 30 -127 30 -21 0 -57 -9 -80 -19z"
       id="path18"
       style="fill:#ffcc00" />
    <path
       d="M1334 2038 c14 -128 39 -283 49 -295 5 -7 29 -13 52 -13 41 0 46 3 92 63 59 75 115 166 148 241 14 31 25 59 25 61 0 3 -25 5 -55 5 -54 0 -54 0 -88 -72 -40 -86 -86 -162 -94 -154 -3 3 -9 54 -12 113 l-6 108 -59 3 -58 3 6 -63z"
       id="path20"
       style="fill:#ffcc00" />
    <path
       d="M2937 1973 c-4 -3 -7 -123 -7 -265 0 -223 2 -258 15 -258 13 0 15 36 15 265 0 242 -3 278 -23 258z"
       id="path22"
       style="fill:#e6e6e6" />
    <path
       d="M2264 1877 c-2 -7 -3 -105 -2 -217 3 -186 5 -205 21 -208 16 -3 17 12 17 217 0 192 -2 221 -15 221 -9 0 -18 -6 -21 -13z"
       id="path24"
       style="fill:#e6e6e6" />
    <path
       d="M1587 1610 c-39 -7 -59 -20 -64 -42 -27 -126 -24 -122 -83 -130 -73 -9 -100 -20 -146 -60 -100 -88 -102 -251 -5 -306 47 -27 64 -27 116 -3 29 13 45 15 56 8 9 -5 32 -7 54 -3 37 7 37 7 31 56 -6 45 24 210 54 300 21 63 42 172 34 179 -5 4 -26 5 -47 1z m-121 -277 c-9 -29 -28 -116 -31 -142 -4 -27 -21 -41 -52 -41 -44 0 -53 10 -53 61 0 80 47 138 113 139 22 0 27 -4 23 -17z"
       id="path26"
       style="fill:#ffcc00" />
    <path
       d="M1836 1605 c-41 -15 -87 -53 -104 -88 -15 -31 -45 -140 -82 -301 -21 -90 -44 -162 -66 -204 -19 -36 -32 -67 -29 -70 3 -3 24 -6 47 -6 40 -1 45 2 75 47 33 50 46 86 89 260 l27 107 63 0 c63 0 63 0 73 37 6 20 8 40 5 45 -3 4 -31 8 -64 8 -52 0 -58 2 -53 19 3 11 14 29 25 41 17 19 29 22 69 18 47 -5 48 -4 65 34 9 21 15 41 11 44 -7 7 -76 24 -97 23 -8 0 -32 -6 -54 -14z"
       id="path28"
       style="fill:#ffcc00" />
    <path
       d="M2774 1600 c-18 -7 -30 -45 -82 -258 -34 -137 -62 -254 -62 -261 0 -7 19 -11 50 -11 58 0 61 3 86 115 8 39 20 91 26 117 8 37 15 48 36 53 18 4 31 1 45 -13 18 -19 19 -22 3 -83 -8 -35 -18 -77 -20 -94 -3 -16 -10 -45 -15 -63 -10 -33 -10 -33 46 -30 57 3 57 3 80 93 12 50 23 120 23 157 0 56 -4 71 -23 94 -20 23 -32 27 -80 28 -65 1 -65 3 -42 80 23 75 21 86 -17 85 -18 0 -42 -4 -54 -9z"
       id="path30"
       style="fill:#ffcc00" />
    <path
       d="M569 1555 c-133 -37 -221 -149 -223 -286 0 -87 33 -147 99 -179 40 -19 58 -22 141 -18 65 3 99 8 108 18 17 19 67 222 56 233 -4 5 -29 7 -56 5 -48 -3 -48 -3 -68 -85 -19 -83 -19 -83 -62 -83 -31 0 -51 7 -70 24 -25 21 -28 29 -27 87 1 97 37 162 106 188 37 14 96 14 137 -1 30 -10 35 -9 52 12 31 38 20 63 -37 82 -59 19 -93 20 -156 3z"
       id="path32"
       style="fill:#ffcc00" />
    <path
       d="M2460 1531 c-22 -6 -27 -19 -52 -121 -16 -63 -31 -126 -35 -140 -3 -14 -8 -51 -10 -82 -4 -54 -3 -60 26 -89 31 -30 34 -31 106 -27 41 2 80 9 86 15 7 7 9 25 5 45 -6 33 -6 33 -56 30 -62 -5 -67 5 -50 91 20 94 22 97 85 97 54 0 54 0 64 38 15 53 16 52 -45 52 -56 0 -56 0 -50 36 4 19 10 42 13 50 4 10 -3 14 -28 13 -19 -1 -45 -4 -59 -8z"
       id="path34"
       style="fill:#ffcc00" />
    <path
       d="M975 1444 c-39 -9 -100 -60 -129 -107 -24 -39 -29 -58 -30 -114 -1 -84 20 -124 81 -153 54 -25 70 -25 130 1 89 38 133 102 140 204 5 68 -14 115 -58 148 -26 19 -95 30 -134 21z m77 -108 c13 -19 9 -95 -6 -131 -24 -56 -94 -76 -117 -34 -13 26 -7 94 12 134 23 49 88 67 111 31z"
       id="path36"
       style="fill:#ffcc00" />
    <path
       d="M2104 1437 c-49 -19 -98 -57 -121 -92 -67 -102 -50 -231 36 -274 50 -26 62 -26 111 -1 24 12 41 16 45 10 7 -11 48 -13 81 -4 19 5 21 11 17 77 -4 55 1 94 20 165 25 93 25 93 0 109 -31 20 -148 27 -189 10z m82 -91 c3 -8 -2 -38 -10 -67 -9 -29 -16 -65 -16 -80 0 -31 -23 -49 -64 -49 -74 0 -55 149 25 192 40 22 58 23 65 4z"
       id="path38"
       style="fill:#ffcc00" />
    <path
       d="M3195 1435 c-131 -46 -199 -254 -108 -335 47 -42 103 -56 168 -40 31 7 58 17 61 22 3 5 3 24 0 42 -6 34 -6 34 -69 29 -54 -5 -64 -3 -81 16 -22 24 -21 25 69 41 117 20 176 91 142 171 -25 61 -99 83 -182 54z m69 -81 c9 -3 16 -17 16 -30 0 -20 -8 -26 -56 -40 -30 -9 -58 -13 -61 -10 -18 18 37 75 84 86 1 0 8 -3 17 -6z"
       id="path40"
       style="fill:#ffcc00" />
    <path
       d="M3579 1446 c-2 -3 -18 -7 -34 -10 -17 -2 -31 -5 -32 -6 -2 -2 -9 -3 -15 -4 -7 0 -17 -19 -22 -41 -4 -22 -12 -49 -16 -60 -5 -11 -20 -73 -33 -137 l-24 -118 52 0 c60 0 54 -11 97 177 25 112 30 118 100 107 36 -6 37 -6 49 36 11 35 10 43 -2 51 -14 9 -112 13 -120 5z"
       id="path42"
       style="fill:#ffcc00" />
  </g>
</svg>
