<?xml version="1.0" encoding="UTF-8" standalone="no"?>
<!-- Created with Inkscape (http://www.inkscape.org/) -->

<svg
   width="120mm"
   height="120mm"
   viewBox="-60 -60 120 120"
   version="1.1"
   id="svg263"
   xml:space="preserve"
   sodipodi:docname="bsvsearch.svg"
   inkscape:version="1.2.2 (b0a8486541, 2022-12-01)"
   xmlns:inkscape="http://www.inkscape.org/namespaces/inkscape"
   xmlns:sodipodi="http://sodipodi.sourceforge.net/DTD/sodipodi-0.dtd"
   xmlns="http://www.w3.org/2000/svg"
   xmlns:svg="http://www.w3.org/2000/svg"
   xmlns:rdf="http://www.w3.org/1999/02/22-rdf-syntax-ns#"
   xmlns:cc="http://creativecommons.org/ns#"
   xmlns:dc="http://purl.org/dc/elements/1.1/"><sodipodi:namedview
     id="namedview470"
     pagecolor="#ffffff"
     bordercolor="#000000"
     borderopacity="0.25"
     inkscape:showpageshadow="2"
     inkscape:pageopacity="0.0"
     inkscape:pagecheckerboard="0"
     inkscape:deskcolor="#d1d1d1"
     inkscape:document-units="mm"
     showgrid="false"
     inkscape:zoom="1.3532747"
     inkscape:cx="143.72544"
     inkscape:cy="237.94134"
     inkscape:window-width="1880"
     inkscape:window-height="1056"
     inkscape:window-x="40"
     inkscape:window-y="0"
     inkscape:window-maximized="1"
     inkscape:current-layer="svg263" /><defs
     id="defs265" /><metadata
     id="metadata2822"><rdf:RDF><cc:Work
         rdf:about=""><dc:format>image/svg+xml</dc:format><dc:type
           rdf:resource="http://purl.org/dc/dcmitype/StillImage" /></cc:Work></rdf:RDF></metadata><path
     style="fill:#b80041;fill-opacity:1;stroke-width:0.0956354"
     d="m -14.906964,46.170522 c -3.995181,-0.284531 -7.015327,-0.805248 -10.460265,-1.803491 -9.551314,-2.767685 -18.091976,-8.619064 -24.081565,-16.498788 -5.497455,-7.232279 -8.72644,-15.742516 -9.448781,-24.9029716 l -0.09729,-1.2332367 V -0.91394495 -3.5599247 l 0.148174,-1.5719939 c 1.532348,-16.2564544 11.40434,-30.5951534 25.912439,-37.6368604 6.162059,-2.990844 11.682002,-4.37566 18.847219,-4.728292 l 2.046658,-0.100716 2.1291056,0.1036 c 2.5451114,0.123844 4.1543855,0.297583 6.3370417,0.684161 l 1.625804,0.287952 1.7692533,0.46756 c 6.8151141,1.801029 12.7778014,4.867945 18.1228844,9.321524 9.370507,7.807605 15.160048,18.649126 16.554841,31.0006831 l 0.149477,1.3236487 0.05189,2.8690584 0.0519,2.8690584 -0.112695,1.482348 C 34.283189,7.4937219 33.249334,12.153224 31.663634,16.222118 l -0.365938,0.938987 0.208752,0.13384 c 0.11481,0.07361 5.157878,3.134315 11.20681,6.801564 6.048932,3.667247 11.55475,7.005244 12.235148,7.417769 0.680396,0.412524 1.485617,0.943046 1.789375,1.178938 l 0.552293,0.428893 0.434471,0.552941 c 0.562,0.715242 1.02981,1.614972 1.306847,2.513462 l 0.221166,0.717264 -0.0012,1.291077 -0.0012,1.291076 -0.167954,0.605433 c -0.225968,0.814524 -0.536294,1.496695 -1.121974,2.466308 l -0.48927,0.810018 -0.526109,0.568255 -0.5261,0.568262 -0.657847,0.43734 c -0.807877,0.537078 -1.536494,0.839811 -2.500461,1.038921 l -0.736467,0.152113 -0.888653,-0.0011 -0.888661,-0.0011 -0.63917,-0.135471 c -0.351516,-0.0745 -0.9325,-0.260734 -1.291057,-0.413868 L 48.164415,45.304529 35.827464,37.81582 C 29.042186,33.696878 23.426005,30.310467 23.347105,30.290306 l -0.143452,-0.03665 -0.908535,1.016506 c -2.420648,2.708323 -6.19873,5.817842 -9.728298,8.006796 l -1.508848,0.93575 -2.295247,1.136515 -2.2952466,1.136516 -1.912706,0.714075 c -3.82375108,1.427545 -7.6464967,2.336348 -11.7631435,2.796536 l -1.3388942,0.149677 -2.9168697,0.03142 c -1.60428,0.01729 -3.153574,0.01459 -3.442874,-0.0057 z m 4.628892,-12.373807 1.6163773,-0.09386 1.5874026,-0.244004 c 6.08783792,-0.93577 11.5822575,-3.360135 16.4586916,-7.262248 l 1.1954405,-0.956585 1.29434,-1.29195 C 17.598758,18.234062 20.909396,11.370526 21.930911,3.0987041 L 22.054919,2.094533 22.053963,-0.29634855 22.053007,-2.6872303 21.928515,-3.739219 c -0.399872,-3.3790032 -1.133975,-6.276073 -2.374218,-9.369636 l -0.613057,-1.529163 -0.652524,-1.24507 c -1.675438,-3.196967 -3.495001,-5.715222 -5.9352,-8.214322 -3.735239,-3.8254 -7.8972405,-6.511321 -13.01082118,-8.396451 l -1.29107762,-0.475957 -1.8170698,-0.464136 -1.8170697,-0.464138 -1.2910777,-0.194189 c -0.710087,-0.106798 -1.8720569,-0.244925 -2.5821552,-0.306933 l -1.2910778,-0.112742 -2.151784,0.05602 -2.151796,0.05602 -1.099812,0.151492 c -6.507659,0.896392 -12.334375,3.353119 -17.194248,7.249644 -7.134615,5.720352 -11.66362,13.913715 -12.751335,23.068293 l -0.124989,1.0519875 0.0011,2.48651805 0.0011,2.48651675 0.119569,0.9563535 c 0.355297,2.8417612 0.862548,5.1112096 1.698578,7.5994562 l 0.529,1.574433 0.628279,1.39026 c 4.384962,9.703094 13.03653,16.852394 23.375261,19.31637 3.359798,0.800722 6.234328,1.060108 9.589379,0.865309 z m -7.497946,-9.180072 v -2.869059 h -3.012514 -3.012515 V 0.75564005 -20.236305 h 3.012515 3.012514 v -2.916875 -2.916878 h 2.151785 2.151796 v 2.905982 2.905982 l 1.554073,0.06553 c 0.85475,0.03605 1.629395,0.08688 1.721438,0.112974 l 0.167363,0.04744 v -3.018955 -3.018958 h 2.1517953 2.1517961 v 3.341449 3.341448 l 0.8368045,0.250033 0.8368046,0.250033 0.9563626,0.472014 0.9563513,0.472011 0.6503418,0.490401 0.65035302,0.490402 0.57564897,0.682136 0.57563768,0.682137 0.42554497,0.860717 0.42555626,0.860717 0.2368939,0.943299 0.2368939,0.943298 0.096621,1.272367 0.096621,1.2723657 -0.091458,1.279986 c -0.2864385,4.0082341 -1.71932706,6.6825558 -4.0807591,7.61629285 l -0.4672455,0.1847526 0.4303591,0.1715748 c 0.8031277,0.3201894 1.63220052,0.7934364 2.24684553,1.28252085 L 0.48088704,1.5774141 0.92682217,2.1706478 C 2.0754237,3.6986303 2.5981105,5.3380026 2.7876726,8.0070916 L 2.8856496,9.3866773 2.7909746,10.63078 C 2.63949,12.621283 2.3464597,13.800763 1.6285104,15.309795 L 1.256146,16.092473 0.68916025,16.844922 c -1.39282632,1.848409 -3.40769305,3.293256 -5.57829695,4.000141 l -0.8367373,0.272498 v 3.18407 3.18407 h -2.151796 -2.151796 v -2.869058 -2.869059 h -1.721437 -1.721436 v 2.869059 2.869058 h -2.151796 -2.151785 z m 7.488486,-10.769277 c 1.2591846,-0.281279 1.9837704,-0.760679 2.6111635,-1.727593 l 0.3209458,-0.494642 0.2535585,-0.748617 0.2535472,-0.748617 0.045112,-1.0998058 0.045112,-1.0998052 -0.1522248,-0.6463927 C -7.0917084,6.5116097 -7.4403948,5.7873685 -7.9060132,5.2137507 L -8.2463616,4.7944619 -8.6733206,4.5236902 C -9.2515169,4.1570129 -10.104784,3.8901734 -11.079068,3.7713505 l -0.810387,-0.098831 h -1.317495 -1.317493 V 8.8368243 14.00113 h 1.77428 1.774281 z m -0.07608,-17.893582 c 0.7548059,-0.2462073 0.9488882,-0.3559745 1.4562296,-0.8236274 l 0.4251186,-0.3918604 0.2313279,-0.4565005 c 0.1272225,-0.2510756 0.2969534,-0.7046794 0.3771562,-1.0080102 l 0.1458397,-0.5515093 0.00224,-0.9563535 0.00224,-0.956353 -0.1957882,-0.629771 -0.1957994,-0.6297707 -0.2813887,-0.388454 c -0.5267887,-0.727201 -1.4694601,-1.262199 -2.6539627,-1.506206 l -0.653025,-0.134522 -1.410624,-0.06701 -1.410624,-0.06701 v 4.4233787 4.4233777 l 1.793168,-0.046212 1.793155,-0.046212 z"
     id="path566" /></svg>
