<?xml version="1.0" encoding="UTF-8" standalone="no"?>
<svg
   version="1.0"
   width="204.585025pt"
   height="389.737050pt"
   viewBox="0 0 204.585025 389.737050"
   preserveAspectRatio="xMidYMid meet"
   id="svg3384"
   sodipodi:docname="cimr.svg"
   inkscape:version="1.2.2 (b0a8486541, 2022-12-01)"
   xmlns:inkscape="http://www.inkscape.org/namespaces/inkscape"
   xmlns:sodipodi="http://sodipodi.sourceforge.net/DTD/sodipodi-0.dtd"
   xmlns="http://www.w3.org/2000/svg"
   xmlns:svg="http://www.w3.org/2000/svg">
  <defs
     id="defs3388" />
  <sodipodi:namedview
     id="namedview3386"
     pagecolor="#ffffff"
     bordercolor="#000000"
     borderopacity="0.25"
     inkscape:showpageshadow="2"
     inkscape:pageopacity="0.0"
     inkscape:pagecheckerboard="0"
     inkscape:deskcolor="#d1d1d1"
     inkscape:document-units="pt"
     showgrid="false"
     inkscape:zoom="1.6703569"
     inkscape:cx="136.49777"
     inkscape:cy="259.82471"
     inkscape:window-width="1880"
     inkscape:window-height="1056"
     inkscape:window-x="40"
     inkscape:window-y="0"
     inkscape:window-maximized="1"
     inkscape:current-layer="svg3384" />
  <metadata
     id="metadata3368"> Created by potrace 1.16, written by Peter Selinger 2001-2019 </metadata>
  <g
     transform="translate(-70.414975,394.837872) scale(0.100000,-0.100000)"
     fill="#000000"
     stroke="none"
     id="g3382"
     style="fill:#ffffff">
    <path
       d="M1520 3943 c-138 -23 -288 -136 -411 -308 -450 -632 -541 -2008 -191 -2890 86 -216 185 -377 307 -500 109 -109 243 -176 348 -175 19 1 17 5 -18 32 -263 207 -458 604 -561 1142 -42 220 -55 363 -61 661 -4 240 -2 332 11 460 38 362 96 619 202 898 119 312 296 548 487 649 l47 26 -22 6 c-25 6 -98 6 -138 -1z"
       id="path3370"
       style="fill:#ffffff" />
    <path
       d="M1735 3903 c-181 -65 -340 -232 -473 -498 -122 -244 -208 -558 -259 -945 -25 -190 -25 -766 0 -955 36 -269 93 -519 165 -721 60 -169 178 -390 259 -486 44 -53 154 -157 182 -173 111 -62 135 -69 236 -73 84 -3 109 0 157 18 198 74 378 287 515 610 118 276 195 628 222 1005 5 72 7 133 4 138 -2 4 -14 7 -26 7 -12 0 -39 11 -59 25 -39 26 -51 56 -82 196 -37 169 -57 253 -67 270 -7 13 -21 19 -44 19 l-35 0 0 -85 0 -85 45 0 c38 0 45 -3 45 -20 0 -17 -7 -20 -45 -20 l-45 0 0 -54 c0 -75 -6 -86 -46 -86 l-34 0 0 214 0 215 -27 21 c-19 15 -28 32 -30 56 l-2 34 26 0 c35 0 83 -37 99 -77 l15 -34 67 3 67 3 0 110 0 110 -67 3 -67 3 -3 -53 -3 -53 -37 -2 -38 -2 0 94 0 95 115 0 115 0 32 -29 32 -28 4 -91 c6 -121 -4 -178 -34 -209 l-24 -24 18 -77 19 -77 43 -5 c58 -7 62 -26 10 -40 l-42 -11 7 -27 c4 -15 15 -62 25 -106 17 -78 29 -96 63 -96 l17 0 0 118 c-1 419 -86 901 -217 1222 -94 229 -181 371 -307 496 -73 73 -108 99 -171 129 l-80 39 -95 3 c-73 3 -107 -1 -145 -14z m-399 -1198 c30 -30 46 -71 31 -82 -21 -16 -55 -12 -73 8 -24 27 -129 28 -136 1 -8 -29 -8 -453 0 -502 12 -76 31 -63 95 65 31 63 61 115 66 115 5 0 14 -6 20 -14 9 -11 2 -34 -36 -110 -44 -90 -52 -137 -14 -90 17 21 76 31 86 14 9 -14 -30 -83 -55 -98 -12 -7 -43 -16 -68 -19 l-47 -5 -17 -39 c-12 -27 -23 -39 -37 -39 -24 0 -26 17 -9 55 l11 25 -36 34 c-20 18 -38 43 -42 57 -3 13 -5 148 -3 299 l3 276 23 29 c32 41 45 45 137 42 65 -2 84 -6 101 -22z m375 18 c0 -5 2 -18 3 -31 2 -14 -6 -30 -20 -41 l-22 -18 -4 -171 -3 -171 -29 -30 c-16 -17 -38 -33 -48 -37 l-18 -5 0 -144 0 -145 25 -16 c34 -22 37 -84 4 -84 -30 0 -74 28 -93 60 -13 23 -16 57 -16 179 l0 150 -35 17 c-45 21 -65 59 -65 120 l0 48 -14 -19 c-15 -20 -46 -15 -46 8 0 8 11 45 25 82 14 36 29 90 33 118 l7 52 35 0 35 0 3 -165 c2 -116 6 -166 15 -172 19 -12 82 -9 95 4 8 8 12 63 12 181 l0 169 34 34 c31 31 85 47 87 27z m299 -3 c14 0 57 3 95 6 81 6 117 -4 142 -43 16 -24 19 -58 23 -278 l5 -250 16 3 c29 4 31 -27 4 -40 l-25 -11 0 -83 0 -83 30 -23 c33 -24 42 -74 15 -84 -23 -9 -70 14 -94 46 -17 24 -21 43 -21 112 0 55 -5 93 -15 112 l-15 29 14 16 c21 23 18 459 -3 484 -16 20 -101 23 -119 5 -12 -12 -17 -128 -6 -128 3 0 15 11 26 25 20 26 42 32 53 14 4 -6 -13 -38 -37 -72 l-43 -62 -5 -210 -5 -210 -35 0 -35 0 -5 159 -5 158 -55 -63 c-30 -35 -60 -68 -67 -72 -19 -11 -17 -86 2 -93 17 -7 21 -44 5 -44 -6 0 -15 -11 -20 -25 -7 -19 -17 -25 -39 -25 -16 0 -33 5 -37 11 -4 6 -20 8 -40 5 -41 -8 -54 11 -54 82 0 70 10 112 27 112 18 0 26 -22 27 -84 1 -38 5 -51 16 -51 13 0 16 25 18 154 4 176 1 198 -33 211 -19 7 -25 17 -25 40 0 40 20 47 67 23 55 -26 73 -69 73 -173 l1 -85 52 58 c29 31 60 57 70 57 l17 0 0 139 c0 161 -1 164 -82 159 l-53 -3 -3 -40 c-5 -76 -9 -83 -44 -81 l-33 2 -3 57 c-2 46 2 65 19 93 29 47 50 54 139 49 41 -3 86 -5 100 -5z m-482 -23 c16 -12 16 -72 -1 -85 -16 -14 -34 -3 -38 23 -3 12 -17 23 -37 29 -30 8 -42 32 -25 49 8 9 85 -3 101 -16z m16 -1143 c29 -11 16 -23 -19 -17 -46 7 -75 -17 -75 -63 0 -46 36 -71 80 -56 38 14 39 -2 1 -18 -61 -25 -116 39 -97 113 9 36 67 57 110 41z m141 -4 c4 -6 11 -8 16 -4 6 3 21 -4 35 -17 l24 -22 25 23 c37 35 44 14 7 -23 l-32 -32 -27 27 -27 27 -11 -22 c-5 -12 -20 -27 -32 -32 l-22 -11 26 -27 c43 -43 18 -44 -29 -1 l-43 39 -3 -38 c-2 -21 -7 -35 -11 -33 -8 6 -5 131 4 146 8 13 92 13 100 0z m395 0 c0 -6 -11 -10 -25 -10 l-25 0 0 -65 c0 -37 -4 -65 -10 -65 -6 0 -10 28 -10 65 l0 65 -25 0 c-16 0 -25 -6 -25 -15 0 -27 -38 -55 -74 -55 l-35 0 -3 -32 c-3 -23 -5 -15 -8 25 -8 96 -9 95 124 95 68 1 116 -3 116 -8z m60 0 c0 -5 -4 -10 -10 -10 -5 0 -17 -11 -25 -24 -34 -51 16 -119 69 -95 44 20 48 101 6 114 -11 3 -20 11 -20 16 0 15 15 11 44 -12 39 -31 37 -88 -5 -123 -17 -14 -37 -26 -45 -26 -49 0 -88 61 -73 114 11 40 59 77 59 46z m-370 -112 c-1 -26 -3 -30 -10 -16 -6 9 -7 23 -4 32 9 25 14 19 14 -16z m-30 -88 c0 -5 -13 -10 -29 -10 -26 0 -41 -14 -41 -41 0 -5 15 -9 33 -9 18 0 38 -5 45 -12 19 -19 15 -66 -7 -78 -25 -13 -81 -13 -81 0 0 6 11 10 24 10 37 0 56 10 56 31 0 14 -7 19 -29 19 -16 0 -36 7 -45 15 -23 23 -26 19 -26 -32 0 -35 -3 -44 -10 -33 -18 29 -9 117 11 104 5 -3 12 3 16 13 4 10 11 21 17 25 16 11 66 10 66 -2z m175 -27 l23 -28 22 28 c12 15 26 27 31 27 5 0 9 -35 9 -77 -1 -61 -3 -74 -11 -59 -6 10 -9 33 -6 52 7 41 -4 50 -28 24 l-18 -20 -24 22 -23 21 0 -59 c0 -42 -3 -55 -10 -44 -12 19 -11 140 2 140 5 0 20 -12 33 -27z m160 -13 c5 0 19 10 32 22 17 16 23 18 23 6 0 -8 -11 -25 -25 -38 -18 -17 -25 -35 -27 -64 l-1 -41 -4 40 c-3 27 -14 50 -34 71 -33 34 -28 56 6 24 12 -11 25 -20 30 -20z m-673 -167 c26 -24 22 -52 -12 -71 l-29 -17 26 -27 c15 -15 23 -31 20 -35 -4 -4 -24 10 -45 32 l-37 38 -3 -31 c-4 -37 -21 -43 -23 -9 -3 38 1 111 6 125 7 18 75 15 97 -5z m262 2 c0 -5 -12 -12 -26 -15 l-26 -5 1 -59 c2 -42 -2 -61 -11 -64 -11 -3 -13 10 -10 62 l3 66 -25 2 c-47 3 -105 -4 -117 -14 -18 -14 -6 -28 23 -28 19 0 25 -5 22 -17 -3 -13 -12 -17 -32 -16 -23 2 -27 -2 -24 -20 2 -18 11 -23 41 -25 46 -4 53 -32 7 -32 -43 0 -74 34 -66 72 3 17 6 41 6 54 0 44 21 53 132 51 61 -1 103 -6 102 -12z m144 3 c22 -22 14 -64 -14 -77 l-27 -12 28 -29 c20 -21 24 -30 14 -30 -9 0 -28 13 -44 30 -31 33 -45 31 -45 -6 0 -18 -5 -24 -21 -24 l-21 0 4 65 c3 49 9 68 23 80 24 17 86 20 103 3z m125 -3 c-1 -5 -19 -12 -40 -15 -42 -6 -53 -33 -15 -38 12 -2 22 -8 22 -13 0 -5 0 -12 0 -16 0 -5 -10 -8 -23 -8 -15 0 -22 -6 -22 -20 0 -16 8 -21 38 -23 43 -4 46 -25 4 -30 -16 -2 -34 5 -47 18 -17 17 -20 29 -16 71 6 63 29 91 70 87 17 -2 30 -7 29 -13z m255 3 c-3 -7 -20 -15 -39 -18 -39 -6 -47 -33 -11 -38 14 -2 22 -10 22 -23 0 -16 -6 -19 -27 -17 -22 2 -28 -1 -28 -17 0 -16 8 -21 43 -23 49 -4 54 -25 6 -30 -19 -2 -37 4 -52 18 -20 19 -22 27 -16 73 4 29 13 60 22 70 18 20 86 24 80 5z m275 -3 c-4 -15 -115 -13 -121 3 -3 10 11 12 59 10 36 -2 63 -7 62 -13z m-442 -45 c5 8 14 23 20 33 20 35 29 16 28 -60 -1 -66 -2 -72 -9 -38 -4 22 -5 45 -3 52 7 18 -8 16 -36 -3 -17 -12 -26 -13 -34 -5 -20 20 -27 11 -27 -36 0 -35 -3 -44 -10 -33 -10 15 -11 116 -1 134 2 5 17 -6 33 -25 24 -28 30 -31 39 -19z m240 -7 l44 -58 3 53 c2 28 7 52 13 52 12 0 12 -127 -1 -135 -5 -3 -10 -1 -10 4 0 6 -6 11 -12 11 -7 0 -26 19 -43 43 l-30 42 -3 -52 c-5 -81 -22 -63 -22 22 0 41 4 75 9 75 5 0 28 -26 52 -57z m149 -34 c0 -37 -4 -58 -10 -54 -5 3 -10 31 -10 61 0 30 5 54 10 54 6 0 10 -27 10 -61z"
       id="path3372"
       style="fill:#ffffff" />
    <path
       d="M1590 1512 l0 -29 33 5 c68 9 73 52 6 52 l-39 0 0 -28z"
       id="path3374"
       style="fill:#ffffff" />
    <path
       d="M1850 1514 l0 -25 38 3 c30 2 38 7 40 26 l3 22 -40 0 -41 0 0 -26z"
       id="path3376"
       style="fill:#ffffff" />
    <path
       d="M1320 1107 l0 -24 38 6 c23 4 37 12 37 21 0 10 -12 16 -37 18 l-38 3 0 -24z"
       id="path3378"
       style="fill:#ffffff" />
    <path
       d="M1722 1108 c3 -20 8 -23 38 -20 67 7 66 42 -1 42 l-40 0 3 -22z"
       id="path3380"
       style="fill:#ffffff" />
  </g>
</svg>
