<?xml version="1.0" encoding="UTF-8" standalone="no"?>
<svg
   id="Layer_1"
   data-name="Layer 1"
   viewBox="0 0 96 96"
   version="1.1"
   sodipodi:docname="kano.svg"
   inkscape:version="1.2.2 (b0a8486541, 2022-12-01)"
   xmlns:inkscape="http://www.inkscape.org/namespaces/inkscape"
   xmlns:sodipodi="http://sodipodi.sourceforge.net/DTD/sodipodi-0.dtd"
   xmlns="http://www.w3.org/2000/svg"
   xmlns:svg="http://www.w3.org/2000/svg">
  <sodipodi:namedview
     id="namedview215"
     pagecolor="#ffffff"
     bordercolor="#000000"
     borderopacity="0.25"
     inkscape:showpageshadow="2"
     inkscape:pageopacity="0.0"
     inkscape:pagecheckerboard="0"
     inkscape:deskcolor="#d1d1d1"
     showgrid="false"
     inkscape:zoom="8.9166667"
     inkscape:cx="48"
     inkscape:cy="48.056075"
     inkscape:window-width="1920"
     inkscape:window-height="1020"
     inkscape:window-x="0"
     inkscape:window-y="32"
     inkscape:window-maximized="1"
     inkscape:current-layer="Layer_1" />
  <defs
     id="defs4">
    <style
       id="style2">
      .cls-1 {
        fill: #fd5c01;
      }

      .cls-2 {
        fill: #0a0505;
      }

      .cls-3 {
        fill: #72c8c7;
      }

      .cls-4 {
        fill: #3fb7b5;
      }

      .cls-5 {
        fill: #e77920;
      }

      .cls-6 {
        fill: #eb8181;
      }

      .cls-7 {
        fill: #c9eded;
      }

      .cls-8 {
        fill: #fefdfd;
      }

      .cls-9 {
        fill: #fe6601;
      }

      .cls-10 {
        fill: #fe7e02;
      }

      .cls-11 {
        fill: #fe7101;
      }

      .cls-12 {
        fill: #fd7702;
      }

      .cls-13 {
        fill: #ceecec;
      }

      .cls-14 {
        fill: #269d9c;
      }

      .cls-15 {
        fill: #fd5001;
      }

      .cls-16 {
        fill: #d75019;
      }
    </style>
  </defs>
  <path
     class="cls-1"
     d="M95.76,42.94c.04.25-.09.6.24.72v8.88c-1.1,5.82-2.19,10.96-4.8,16.31-1.96-.02-3.93.03-5.89,0-.63,0-1.23-.27-1.91-.27-.78,0-2.21.57-2.6.47-.55-.14-.95-1.68-1.84-1.41-.04-.61.14-1.93-.48-2.28-.47-.27-2.12.01-2.37-.39-.12-.19-.06-2.27-.03-2.72.06-.96.55-2.67.44-3.54-.01-.08-.41-1.31-.47-1.35-.23-.2-1.64.14-1.87-.06-.21-.18-.25-1.73-.27-2.13-.12-2.75.05-5.43,0-8.16.36-.03.36-.69,0-.72-.02-.87.06-1.77,0-2.64.29-.15.55-.63.97-.37.36.23.36,1.35.83,1.09.53-.28.05-1.25,1.68-1.44h18.36Z"
     id="path6" />
  <path
     class="cls-1"
     d="M0,46.78c7.57-.1,15.2.21,22.75-.16,1.07-1.59,1.86.94,1.73,2.08l1.44-.96c0,2.16,0,4.32,0,6.48-1.06-.59-.95.24-1.11.26-.31.04-.68-.33-1.05-.15-.96.46-.47,1.47-.47,2.16-.03,3-.04,6.01,0,9.01H3.36c-1.69-4.32-2.52-8.41-3.36-12.95v-5.76Z"
     id="path16" />
  <path
     class="cls-13"
     d="M53.76,71.25c.24,1.61,2.45.73,3.47.71,1.24-.02,2.49.04,3.73.01.15,1.23-2.79-.27-2.64.96.7.09,1.78-.19,2.4.12s.46,1.32.89,1.57c1.3.72,4.02-.49,4.52.48.34.66-.42,1.09-.34,1.52.05.29.74.67.87,1.29s.44,3.73-.31,3.91c-.51.13-.48-.72-.74-.73-.17,0-.46.23-.72.23-.37,0-1.19-.42-1.3.15-.04.24.6,1.5.5,2.4-.08.78-.63.87-.74,1.43-.08.41-.09,2,0,2.4.16.81.86.5.96.6.07.07-.4,1.79-.49,1.98-.15.33-.57.02-.47.41l1.44.96v.72c-.64-.11-.49.15-.48.72-4.14,1.46-8.88,2.6-13.2,2.88-2.04.13-4.19-.1-6.24,0l-.38-.22c-2.4.02-4.74-.47-7.06-.98v-4.08c1.19-.07.48-1.1.47-1.79-.03-2.42-.26-5.89,0-8.18.13-1.17.96-.95,1.17-.17.16.57-.27,1.17-.1,1.51.2.39.76.36,1,.57s.87,1.12.94,1.12c.33,0,.85-.64,1.67-.74,4.07-.49,10.58-.06,14.9,0,.44,0,.9.25,1.21.23.33-.02,1.33-.95,1.43-1.19.24-.56-.36-1,.08-1.56.81-1.03,1.32.48,1.82.37.32-.07.46-1.15.63-1.53.13-.28.62-.54.66-.78.09-.49-1.32-2.53-1.95-2.78-.96-.39-5.23-.24-6.54-.18-4.85.22-10.39-.72-15.33.03-.64.1-2.54.33-2.54,1.18h-.96c-.84-.39-.15-1.65-1.44-1.44-.01-.48.02-.96,0-1.44-.05-.97-.86-.27-1.75-.49-.17-.04-.25-.75-.89-.47-.02-.16.02-.33,0-.48,1-.26,2.45-.39,3.47-.23,1.09.18,2.1,1.88,2.05-.73.73-.02,1.36.82,1.79.72.06-.01.21-.78.84-.48v.72c-.54.19-.03.59,0,.72.09.38-.08.44.24.96.05.08.16.2.24.24.21.12.18.21.57.25,2.28.26,6.05.07,8.45,0,.44-.01.77-.26.81-.26.16,0,.32,0,.48,0,.04,0,.5.45.72.24.43-.42-.19-.46-.48-.48v-.48c.81-.42,2.08.38,2.4-.84-.51-.36-1.22.22-1.76.13-.19-.03-.15-.67-.64-.49v-.72c.51.06.54.03.48-.48.72,0,1.44,0,2.16,0ZM38.76,72.69v.24c.16-.08.16-.16,0-.24ZM39.24,72.69v.24c.16-.08.16-.16,0-.24ZM36.24,74.85l-.12-.72c-.25.22-.44.36-.36.72h.48Z"
     id="path18" />
  <path
     class="cls-9"
     d="M2.64,32.63h27.24c.71.09.9-1.92,1.2-1.92.73,0,.71,1.15.96,1.2,1.04.22.61-1.27,1.56-1.2.05,1.13-.4,1.48.72,1.92.07.03.15.19.24.24.01.08-.02.18,0,.24.29.74,2.07.88,2.15.97.11.13.04.91-.22,1.08-.55.38-1.68-.05-2.29-.09-.44-.03-.84.39-1.33.08-.09-.06-.48-1.1-.95-.61-.14.14.33,1.54-1.2,1.2-.34.94,1.17.77.61,1.68s-2.12.54-2.54.82c-.4.26-.12,1.03-.22,1.4-.01.06-.72.81-.77.84-.46.26-2.02-.84-2.07,1.37-.03,1.78.19,3.97.2,5.88l-1.44.96c.13-1.14-.66-3.67-1.73-2.08-7.55.38-15.18.06-22.75.16v-3.36c.69-3.8,1.41-7.14,2.64-10.8Z"
     id="path20" />
  <path
     class="cls-10"
     d="M52.32,0c4.17.75,8.3,1.47,12.3,2.94,4.48,1.64,8.19,3.83,11.94,6.66-.17.55-.62.47-1.07.49-2.48.14-19.77.24-20.85-.31-.34-.17-.35-.61-.57-.67-.68-.18-2.32-.04-2.71.72.5.14,2.8.06,2.64.84-.14.68-2,.08-2.4.6h-.24c0-.17-.22-.2-.24-.24-.05-.11.15-.41-.16-.49s-.9.02-1.28,0c0-.44.92-.96.48-1.44-.22-.24-5.75.18-6.6,0l.12.96c-.26-.01-.61.24-.72.24-7.41-.27-15.07.2-22.45-.23-.45-.03-.9.05-1.07-.49,3.01-2.24,5.85-4.1,9.37-5.63,4.75-2.07,9.56-3.05,14.63-3.97h8.88Z"
     id="path22" />
  <path
     class="cls-9"
     d="M62.4,27.83c.73-.13.46.37.48.83.03.68-.02,1.37,0,2.05,1.24-.01,1.64.37,1.44-1.08,1.04-.39.84,1.29,1.08,1.8.37.8,2.29.38,3.11.49.55.07,1.04.59,1.68.48h23.17c1.25,3.67,1.81,6.72,2.4,10.54h-18.36c-1.63.19-1.15,1.15-1.68,1.44-.47.25-.47-.87-.83-1.09-.41-.26-.67.23-.97.37,0-.03-.22-.28-.25-.58-.07-.59.12-1.15-.07-1.76-.24-.78-2.69-.68-2.8-.79-.1-.1.07-1.77,0-2.16-.16-.01-.32.01-.48,0-.08,0-.16,0-.24,0-.33-.54-2-.08-2.16-.24-.45-.46.95-2.56-.48-2.16,0-.08,0-.16,0-.24-.01-.16.01-.32,0-.48-.96-.15-7.13.21-7.42-.03-.1-.09-.36-1.4-.17-1.67.48-.66,2.24.5,2.53-.64.32-1.3.04-3.66.01-5.1Z"
     id="path24" />
  <path
     class="cls-15"
     d="M78.96,67.65c.9-.27,1.29,1.26,1.84,1.41.39.1,1.82-.47,2.6-.47.68,0,1.28.27,1.91.27,1.96.02,3.93-.03,5.89,0-1.86,3.82-4.17,7.35-6.96,10.56-.44-.75-2.18-.33-2.38-.5-.55-.49.81-7.51-.75-8.27-.36-.17-.87.2-1.31.15-1.16-.15-.79-2.26-.85-3.13Z"
     id="path26" />
  <path
     class="cls-16"
     d="M72.96,41.5c.24.23.22.24.25.57.43,3.86-.33,8.54-.01,12.51.06.74-.12.62.72.59.02.41.06,1.96.27,2.13.23.2,1.64-.14,1.87.06.05.05.45,1.27.47,1.35.12.86-.38,2.58-.44,3.54-.03.46-.09,2.53.03,2.72.25.4,1.9.12,2.37.39.61.35.44,1.67.48,2.28.05.87-.32,2.98.85,3.13.44.06.95-.32,1.31-.15,1.56.76.19,7.78.75,8.27.2.18,1.93-.25,2.38.5-.17.2-.35.33-.48.48-.17-.91-2.64-.13-2.64-.84v-7.8h-2.64v-5.16c0-.64-2.51-.23-2.64-.36-.28-.28.37-7.26-.1-7.93-.28-.4-2.15-.2-2.78-.22-.02-5.35.02-10.72,0-16.07Z"
     id="path28" />
  <path
     class="cls-5"
     d="M70.32,38.38c.16.01.32-.01.48,0,.07.39-.1,2.06,0,2.16.11.1,2.56,0,2.8.79.19.6,0,1.16.07,1.76.03.3.25.55.25.58.06.87-.02,1.77,0,2.64,0,.19,0,.51,0,.72.05,2.73-.12,5.41,0,8.16-.84.03-.66.15-.72-.59-.31-3.97.45-8.65.01-12.51-.04-.33-.02-.34-.25-.57-.45-.44-1.9-.23-2.64-.24v-2.88Z"
     id="path30" />
  <path
     class="cls-9"
     d="M73.92,47.02c0-.21,0-.53,0-.72.36.03.36.69,0,.72Z"
     id="path32" />
  <path
     class="cls-14"
     d="M67.44,38.38c0,.96,0,1.92,0,2.88.96,0,1.92-.02,2.88,0,0,5.43,0,10.88,0,16.31.88.02,1.77-.03,2.64,0,0,1.57-.31,6.97.03,8,.23.72,1.98.29,2.61.39v5.28c.34-.08,2.88.06,2.88.24v8.16h2.64s0,2.88,0,2.88c-2.66,2.56-4.74,4.28-7.92,6.24-.39-.12-.08-.92-.38-.97-.45-.08-2.39.13-2.51.02.21-2.98.1-3.09-2.88-2.88,0-.88.01-1.76,0-2.64-.04-2.71.03-5.44,0-8.16-.01-.96,0-1.92,0-2.88h-2.64s0-2.64,0-2.64c-.88,0-1.76.01-2.64,0v-5.52s2.64,0,2.64,0v-2.64s2.64,0,2.64,0c0-1.84,0-3.68,0-5.52,0-.08,0-.16,0-.24,0-.88,0-1.76,0-2.64.32-.09,2.64.13,2.64,0v-8.16c0-.13-2.32.09-2.64,0,0-.88,0-1.76,0-2.64-.88,0-1.76,0-2.64,0v-2.88c.88,0,1.76,0,2.64,0Z"
     id="path34" />
  <path
     class="cls-2"
     d="M51.12,11.04s.24.07.24.24c0,.03-.25.06-.25.58-.02,2.44.04,4.89,0,7.33.88-.02,1.76.02,2.64,0,0,.08,0,.16,0,.24.03.88-.02,1.76,0,2.64h5.52c0,.88-.01,1.76,0,2.64.88,0,1.76,0,2.64,0,.02.07-.02.16,0,.24.25,1.13.5,6.85.21,7.76-.24.73-2.2.27-2.85.39v2.64s8.16,0,8.16,0c0,.08,0,.16,0,.24.02.8,0,1.6,0,2.4.88,0,1.76-.02,2.64,0,.08,0,.16,0,.24,0v2.88c.74.01,2.19-.2,2.64.24.02,5.35-.02,10.72,0,16.07.63.02,2.49-.18,2.78.22.47.68-.18,7.65.1,7.93.13.13,2.64-.28,2.64.36v5.16h2.64v7.8c0,.71,2.47-.07,2.64.84-.86.96-1.75,1.78-2.64,2.64v-2.88s-2.64,0-2.64,0v-8.16c0-.18-2.54-.32-2.88-.24v-5.28c-.62-.11-2.37.32-2.61-.39-.34-1.04-.03-6.43-.03-8-.88-.03-1.76.02-2.64,0,0-5.43,0-10.88,0-16.31-.96-.02-1.92,0-2.88,0,0-.96,0-1.92,0-2.88-.88,0-1.76,0-2.64,0-1.73,0-9.91-.26-10.8.24-.12.07-.2.08-.24.24-.15.62.11,1.7,0,2.4h-13.44c-.51-.24-.1-2.64-.24-2.64h-7.8c-.58,0-.37,2.2-.12,2.64-.08,0-.16,0-.24,0-.16.01-.32-.02-.48,0h-2.16s0,5.28,0,5.28c0,.08,0,.16,0,.24-.03.88.02,1.76,0,2.64,0,.08,0,.16,0,.24-.03,1.75.02,3.52,0,5.28-.83.02-2.61-.35-2.77.46-.2,3.44-.13,6.89-.11,10.33,0,.96-.01,1.92,0,2.88.77.02,2.43-.21,2.88.24.11.54-.26,2.21.24,2.4.14.05.5-.02.72,0,.48.03.96-.02,1.44,0,.42.42.17.74.24,1.2.02.15-.02.32,0,.48.19,1.61,1.33.79,2.64.96.02.48-.01.96,0,1.44.01.4,0,.8,0,1.2,0,.08,0,.16,0,.24v2.64c-.87.01-1.78-.06-2.64,0,0,.96,0,1.92,0,2.88-.59.02-2.26-.17-2.54.22-.24.35-.11,4.45-.1,5.29,0,1.44,0,2.88,0,4.32-1.04-.44-1.89-.94-2.88-1.44-.03-2.79.04-5.6,0-8.4,2.65-.05,3.07.64,2.88-2.64.92.2,1.83-.18,2.64-.24,0-1.76,0-3.52,0-5.28h-2.64c.16-2.96.09-3.12-2.88-2.88,0-.88.01-1.76,0-2.64-.88-.02-1.76.01-2.64,0v-13.68c.41-.14,2.64.27,2.64-.36v-13.31h2.64c-.21-2.98-.1-3.09,2.88-2.88v-2.64s5.16,0,5.16,0c.53,0,.35-2.14.36-2.64.08,0,.16,0,.24,0,.8.01,1.6-.01,2.4,0v2.64c.8.01,1.6-.02,2.4,0,.16,0,.32,0,.48,0,0,.43-.12,2.61.14,2.64h2.5c0-.88-.01-1.77,0-2.64,1.84,0,3.68,0,5.52,0l.14,2.64h2.5s0-2.64,0-2.64c.64,0,1.28.02,1.92,0,.19,0,.69.04.72,0,.08-.09.09-1.99.24-2.4.14-.09.1-.39.59-.48.42-.08,1.96.08,2.05,0,.29-.29.01-7.1,0-8.16-.88,0-1.76,0-2.64,0-.03.95.04,1.93,0,2.88-.76-.04-1.54.05-2.3,0-.31-.02-.55-.25-.58-.25-.19-1.5.27-3.63,0-5.04-.03-.18-.06-.21-.24-.24-.63-.12-1.68.02-2.4,0,.01-.24,0-.48,0-.72.01-.4,0-.8,0-1.2,0-.16,0-.32,0-.48s0-.32,0-.48c-.92.02-1.71,0-2.64,0-.08,0-.16,0-.24,0v-5.28c-1.76.02-3.52-.02-5.28,0v5.28h-2.88c-.01.96,0,1.92,0,2.88h-2.64c-.05,3.67.08,7.36,0,11.03-.96,0-1.92,0-2.88,0-.02-.06.01-.16,0-.24-.47-3.2.35-7.47,0-10.8h2.64s0-2.88,0-2.88c.04-.04.17.03.24,0h2.64c.02-1.76-.02-3.52,0-5.28.96,0,1.92.01,2.88,0v-2.88c2.65-.18,5.49.13,8.16,0Z"
     id="path36" />
  <path
     class="cls-2"
     d="M18.24,82.28c.01-.88,0-1.76,0-2.64h8.16c0,.88-.01,1.76,0,2.64-1.75.03-3.52,0-5.28,0-.96,0-1.92-.01-2.88,0-.02,1.04.01,2.08,0,3.12-1.02-.82-1.61-1.21-2.64-2.16v-.96c.88,0,1.76.01,2.64,0Z"
     id="path38" />
  <path
     class="cls-4"
     d="M67.44,82.28c.01.88,0,1.76,0,2.64,2.98-.21,3.09-.1,2.88,2.88.11.11,2.05-.1,2.51-.02.3.05-.01.86.38.97-1.89,1.16-3.5,1.96-5.52,2.88.29-1.83-1.66-1.06-2.88-1.2v-8.16s2.64,0,2.64,0Z"
     id="path40" />
  <path
     class="cls-2"
     d="M67.68,91.64c-1.08.49-1.74.78-2.88,1.2v-1.2c0-.4,0-.8,0-1.2,1.22.14,3.17-.63,2.88,1.2Z"
     id="path42" />
  <path
     class="cls-7"
     d="M64.8,92.36v.48c-.13.05-.28.17-.48.24,0-.57-.16-.83.48-.72Z"
     id="path44" />
  <path
     class="cls-11"
     d="M53.76,18.95c0-.22.04-.92,0-.96-.08-.08-1.29.19-1.44-.37-.37-1.38,1.98-1.42,1.82.62h30s1.07-.49,1.07-.49c3.67,4.48,6.29,9.14,8.16,14.63h-23.17c-.64.12-1.13-.39-1.68-.47-.82-.11-2.74.31-3.11-.49-.24-.51-.04-2.19-1.08-1.8.2,1.45-.2,1.07-1.44,1.08-.02-.68.03-1.37,0-2.05-.02-.46.25-.96-.48-.83,0-.32,0-.64,0-.96v-.24c0-.24,0-.48,0-.72l1.44.72c.09-1.59.06-1.69-1.44-1.68-.16,0-.32,0-.48,0-.02-.08.02-.17,0-.24-.37-1.21-.91-.33-1.53-.5s-.26-1.29-.52-1.89c-.65-1.49-2.98-.59-4.44-.72l.48-.96c-1.19.13-1.3-.35-1.2-1.44-.16,0-.32-.01-.48,0-.13.01-.33.19-.48.24,0-.08,0-.16,0-.24s0-.16,0-.24Z"
     id="path46" />
  <path
     class="cls-12"
     d="M51.6,11.28c.4-.52,2.26.07,2.4-.6.16-.78-2.14-.7-2.64-.84.39-.76,2.03-.9,2.71-.72.22.06.23.5.57.67,1.08.55,18.37.45,20.85.31.45-.03.9.05,1.07-.49,3.42,2.58,5.92,4.83,8.64,8.16l-1.07.49h-30c.16-2.04-2.19-2-1.82-.62.15.56,1.36.29,1.44.37.04.04,0,.73,0,.96-.38-.06-2.07.09-2.16,0-.11-.11-.23-2.54-.25-2.99-.08-1.49-.08-3.25.25-4.69Z"
     id="path48" />
  <path
     class="cls-15"
     d="M23.28,65.49c0,.56-.02,1.12,0,1.68.1,2.47.09,1.89,2.64,1.92.06.86-.26,2.39.47,3.01.56.47.47-.37.62-.38.08,0,1.49.2,1.55.25.1.1-.19,2.33.47,2.77.42.28,3.49-.29,2.19,1.41-.35.46-1.22-.44-.99.98.02.12,1.99.2,1.17,1.53-.27.44-2.41.15-2.58.3-.34.29-.14,2.58-.4,2.62h-1.3c.04-1.12.24-2.29-1.13-2.59-2.07-.46-5.08.32-7.28-.19-1.67.41-1.13,2.57-1.29,2.78-.5.65-2.52-.44-2.3,1.19-5.45-5.2-8.99-10.21-11.76-17.27h19.92Z"
     id="path50" />
  <path
     class="cls-4"
     d="M37.44,79.65v10.8h-2.88s0,3.6,0,3.6c-1.83-.52-3.32-1.2-5.04-1.92v-4.32h2.4c0-1.84,0-3.68,0-5.52.88-.02,1.76.02,2.64,0l.24-2.88c.99,0,1.87.21,2.64.24Z"
     id="path52" />
  <path
     class="cls-16"
     d="M26.4,82.28c.04,2.79-.03,5.6,0,8.4-2.02-1.03-3.61-1.82-5.52-3.12.13-1.72-.28-3.63.24-5.28,1.76,0,3.53.03,5.28,0Z"
     id="path54" />
  <path
     class="cls-16"
     d="M23.76,54.94v13.68c.88.01,1.76-.02,2.64,0,.01.88,0,1.76,0,2.64,2.97-.24,3.04-.08,2.88,2.88h2.64c0,1.75,0,3.52,0,5.28-.81.06-1.72.44-2.64.24.19,3.28-.23,2.59-2.88,2.64-.01-.88,0-1.76,0-2.64h-8.16c0,.88.01,1.76,0,2.64-.88.01-1.76,0-2.64,0v.96c-.17-.16-.32-.32-.48-.48-.22-1.63,1.8-.55,2.3-1.19.16-.21-.38-2.38,1.29-2.78,2.2.51,5.2-.27,7.28.19,1.37.3,1.17,1.47,1.13,2.59h1.3c.27-.03.06-2.32.4-2.61.18-.15,2.31.14,2.58-.3.82-1.33-1.15-1.41-1.17-1.53-.23-1.42.64-.52.99-.98,1.29-1.7-1.77-1.13-2.19-1.41-.67-.44-.37-2.67-.47-2.77-.06-.05-1.47-.26-1.55-.25-.15,0-.06.85-.62.38-.73-.62-.42-2.14-.47-3.01-2.55-.02-2.54.55-2.64-1.92.68-1.43-.2-12,.48-12.23Z"
     id="path56" />
  <path
     class="cls-2"
     d="M37.44,90.44v4.32c-.99-.21-1.91-.44-2.88-.72v-3.6s2.88,0,2.88,0Z"
     id="path58" />
  <path
     class="cls-6"
     d="M21.12,82.28c-.52,1.65-.11,3.56-.24,5.28-1.07-.72-1.74-1.44-2.64-2.16.01-1.04-.02-2.08,0-3.12.96-.01,1.92,0,2.88,0Z"
     id="path60" />
  <path
     class="cls-3"
     d="M29.52,92.12c-.07-.03-.17.03-.24,0,0-1.44,0-2.88,0-4.32h.24v4.32Z"
     id="path62" />
  <path
     class="cls-11"
     d="M39.12,15.35c.08.93.63,1.27.25,2.52-.42,1.4-.87.87-1.93,1.32-.07.03-.2-.04-.24,0-.47.47-.18,1.75-.54,2.1s-1.8.17-2.07.33c-.6.37-.12,9.59-.28,11-1.12-.44-.67-.79-.72-1.92-.94-.07-.51,1.42-1.56,1.2-.25-.05-.23-1.21-.96-1.2-.3,0-.49,2.01-1.2,1.93H2.64c1.86-5.55,4.23-10.08,7.92-14.64h23.36c.62-2.4,2.73-1.99,4.72-1.68l.48-.96Z"
     id="path64" />
  <path
     class="cls-12"
     d="M19.44,9.6c.17.55.62.47,1.07.49,7.38.42,15.04-.04,22.45.23v.72c-1.28.09-.48.04-.47,1.08.02,1.62-.93.92-2.03,1.09-1.17.18-1.43,1.07-1.33,2.14l-.48.96c-1.99-.31-4.1-.73-4.72,1.69H10.56c2.71-3.37,5.47-5.87,8.88-8.41Z"
     id="path66" />
  <path
     class="cls-5"
     d="M37.44,33.11c-.01.5.17,2.64-.36,2.64h-5.16v2.64c-2.98-.21-3.09-.1-2.88,2.88h-2.64s0,13.31,0,13.31c0,.63-2.24.22-2.64.36-.68.23.2,10.81-.48,12.23-.02-.56,0-1.12,0-1.68-.03-3-.02-6.01,0-9.01,0-.69-.49-1.7.47-2.16.37-.18.74.19,1.05.15.16-.02.04-.84,1.11-.26,0-2.16,0-4.32,0-6.48,0-1.91-.23-4.1-.2-5.88.04-2.21,1.61-1.11,2.07-1.37.05-.03.76-.79.77-.84.1-.37-.18-1.14.22-1.4.42-.27,1.98.09,2.54-.82s-.95-.74-.61-1.68c1.54.34,1.06-1.06,1.2-1.2.48-.49.86.55.95.61.49.31.89-.1,1.33-.08.62.04,1.74.47,2.29.09.25-.18.33-.95.22-1.08-.08-.09-1.86-.23-2.15-.97.96,0,1.92,0,2.88,0Z"
     id="path68" />
  <path
     class="cls-3"
     d="M36,76.77h.96c8.32,0,16.64,0,24.96,0-.07.43.1,2.55,0,2.64-.54.54-3.49-1.48-2.64,2.88h-18.84c-.66,0-.19-2.38-.39-2.61-.47-.55-2.24-.01-2.61-.03-.77-.03-1.65-.25-2.64-.24-.08,0-.16,0-.24,0v-2.64h1.44Z"
     id="path70" />
  <path
     class="cls-2"
     d="M56.4,65.73c.51.17.13,2.32.24,2.88-.96.01-1.92,0-2.88,0,.09.83-.12,1.84,0,2.64-.72,0-1.44,0-2.16,0-.16,0-.32,0-.48,0-.02-.88.01-1.76,0-2.64h-11.04c-.13,0,0,2.29,0,2.64,3.68.02,7.36-.01,11.04,0,0,.16,0,.32,0,.48v2.4c-.08,0-.16,0-.24,0-.16-.01-.32,0-.48,0s-.32,0-.48,0c-2.87-.05-5.77,0-8.64,0h-.96c-.32-.52-.15-.57-.24-.96v-1.92c-.88,0-1.76,0-2.64,0v-2.64c-.96,0-1.92.01-2.88,0v-2.88h21.84Z"
     id="path72" />
  <path
     class="cls-7"
     d="M36.96,76.77c0-.85,1.91-1.08,2.54-1.18,4.94-.75,10.49.19,15.33-.03,1.31-.06,5.58-.21,6.54.18.63.26,2.04,2.29,1.95,2.78-.04.25-.54.5-.66.78-.18.38-.32,1.46-.63,1.53-.5.11-1.01-1.4-1.82-.37-.44.57.16,1-.08,1.56-.11.24-1.11,1.17-1.43,1.19-.31.02-.77-.23-1.21-.23-4.32-.05-10.82-.48-14.9,0-.82.1-1.33.74-1.67.74-.07,0-.69-.89-.94-1.12s-.8-.18-1-.57c-.17-.33.26-.94.1-1.51-.22-.78-1.04-1-1.17.17-.26,2.29-.03,5.76,0,8.18,0,.69.72,1.72-.47,1.79v-11.04c.37.01,2.15-.52,2.61.03.2.23-.27,2.61.39,2.61h18.84c-.85-4.36,2.1-2.33,2.64-2.88.1-.1-.07-2.21,0-2.64-8.32,0-16.64,0-24.96,0Z"
     id="path74" />
  <path
     class="cls-7"
     d="M53.76,71.25c2.67,0,5.34,0,8.01-.01.58.54.16,2.47.61,2.79.56.39,4.11-.07,5.06.1.03,2.71-.04,5.44,0,8.16h-2.64s0,8.16,0,8.16c0,.4,0,.8,0,1.2l-1.44-.96c-.1-.39.31-.08.47-.41.09-.19.56-1.9.49-1.98-.1-.11-.8.21-.96-.6-.08-.4-.07-1.99,0-2.4.11-.57.65-.66.74-1.43.1-.9-.54-2.17-.5-2.4.11-.57.93-.15,1.3-.15.26,0,.55-.23.72-.23.25,0,.23.86.74.73.75-.18.45-3.28.31-3.91s-.82-1-.87-1.29c-.08-.43.68-.86.34-1.52-.5-.97-3.21.24-4.52-.48-.43-.24-.3-1.27-.89-1.57-.62-.31-1.7-.02-2.4-.12-.15-1.23,2.79.27,2.64-.96-1.24.02-2.49-.03-3.73-.01-1.02.02-3.23.9-3.47-.71Z"
     id="path76" />
  <path
     class="cls-7"
     d="M26.4,65.73h2.88s0,2.88,0,2.88c.88,0,1.76-.01,2.64,0v2.64c1.84,0,3.68,0,5.52,0,.88,0,1.76,0,2.64,0v.48c-.64-.3-.78.47-.84.48-.43.09-1.07-.74-1.79-.72.05,2.61-.97.91-2.05.73-1.02-.17-2.46-.03-3.47.23-.07-.46.18-.78-.24-1.2-.36-.36-1.11-.43-1.44,0-.22-.02-.58.05-.72,0-.1-.73.27-1.89-.24-2.4-.45-.45-2.11-.22-2.88-.24-.01-.96,0-1.92,0-2.88Z"
     id="path78" />
  <path
     class="cls-7"
     d="M41.28,74.13c.25.4.91.24,1.32.24,2,.02,4.01.02,6.01,0,.41,0,1.07.15,1.32-.24.16,0,.32,0,.48,0v.24s-.38.24-.81.26c-2.4.07-6.18.25-8.45,0-.39-.04-.36-.14-.57-.25v-.24h.72Z"
     id="path80" />
  <path
     class="cls-7"
     d="M51.12,72.45c.49-.18.45.46.64.49.55.09,1.25-.49,1.76-.13-.32,1.22-1.6.42-2.4.84v-1.2Z"
     id="path82" />
  <path
     class="cls-7"
     d="M31.92,72.93c.64-.28.72.43.89.47.9.21,1.71-.48,1.75.49-1.31-.17-2.45.65-2.64-.96Z"
     id="path84" />
  <path
     class="cls-7"
     d="M34.56,75.33c1.29-.21.6,1.05,1.44,1.44h-1.2l-.24-.24c0-.4.01-.8,0-1.2Z"
     id="path86" />
  <path
     class="cls-7"
     d="M51.12,74.13c.29.02.91.06.48.48-.22.21-.68-.24-.72-.24v-.24c.08,0,.16,0,.24,0Z"
     id="path88" />
  <path
     class="cls-7"
     d="M36.24,74.85h-.48c-.08-.35.11-.5.36-.72l.12.72Z"
     id="path90" />
  <path
     class="cls-7"
     d="M51.6,71.25c.06.51.03.54-.48.48,0-.16,0-.32,0-.48.16,0,.32,0,.48,0Z"
     id="path92" />
  <path
     class="cls-7"
     d="M40.08,73.17c-.03-.13-.54-.53,0-.72v.72Z"
     id="path94" />
  <path
     class="cls-8"
     d="M50.88,74.13v.24c-.16,0-.32,0-.48,0v-.24c.16,0,.32-.01.48,0Z"
     id="path96" />
  <path
     class="cls-7"
     d="M38.76,72.69c.16.08.16.16,0,.24v-.24Z"
     id="path98" />
  <path
     class="cls-7"
     d="M39.24,72.69c.16.08.16.16,0,.24v-.24Z"
     id="path100" />
  <path
     class="cls-8"
     d="M40.56,74.37c-.08-.04-.19-.16-.24-.24h.24v.24Z"
     id="path102" />
  <path
     class="cls-5"
     d="M37.2,19.19v2.88s-2.64,0-2.64,0c.35,3.32-.47,7.6,0,10.8-.09-.05-.17-.21-.24-.24.16-1.41-.32-10.64.28-11,.27-.17,1.71.03,2.07-.33s.07-1.63.54-2.1Z"
     id="path104" />
  <path
     class="cls-12"
     d="M43.68,10.08l-.12-.96c.86.18,6.38-.24,6.6,0,.44.47-.48,1-.48,1.44-1.03-.03-2.09.06-3.12,0-.18-1.05-1.22-1.46-1.44-.24-.53-.03-1.03-.22-1.44-.24Z"
     id="path106" />
  <path
     class="cls-5"
     d="M43.68,10.08c.41.02.91.21,1.44.24.28.02.86.21,1.44.24,1.03.06,2.09-.03,3.12,0,.39,0,.97-.09,1.28,0s.11.38.16.49c-2.67.13-5.51-.18-8.16,0v2.88c-.96.01-1.92,0-2.88,0-.01,1.76.02,3.52,0,5.28h-2.64c1.06-.44,1.51.09,1.93-1.32.37-1.25-.17-1.59-.25-2.52-.09-1.07.16-1.96,1.33-2.14,1.1-.17,2.05.53,2.03-1.09-.01-1.04-.8-.99.47-1.08v-.72c.11,0,.46-.25.72-.24Z"
     id="path108" />
  <path
     class="cls-5"
     d="M51.6,11.28c-.33,1.44-.33,3.2-.25,4.69.02.45.14,2.88.25,2.99.09.09,1.78-.06,2.16,0,0,.08,0,.16,0,.24-.88.02-1.76-.02-2.64,0,.03-2.44-.03-4.89,0-7.33,0-.53.25-.55.25-.58h.24Z"
     id="path110" />
  <path
     class="cls-5"
     d="M62.4,24.95v.96c0,.24,0,.48,0,.72,0,.08,0,.16,0,.24,0,.32,0,.64,0,.96.03,1.44.31,3.8-.01,5.1-.29,1.14-2.04-.02-2.53.64-.19.26.06,1.58.17,1.67.28.24,6.45-.13,7.42.03.01.16-.01.32,0,.48h-8.16s0-2.64,0-2.64c.65-.12,2.61.34,2.85-.39.3-.91.05-6.64-.21-7.76.16,0,.32,0,.48,0Z"
     id="path112" />
  <path
     class="cls-5"
     d="M67.44,35.98c1.43-.4.03,1.7.48,2.16.16.16,1.83-.3,2.16.24-.88-.02-1.76,0-2.64,0,0-.8.02-1.6,0-2.4Z"
     id="path114" />
  <path
     class="cls-4"
     d="M64.8,38.38v2.88c-1.84,0-3.68-.03-5.52,0-.88.01-1.76,0-2.64,0,0,.88.01,1.76,0,2.64-.96.02-1.92-.01-2.88,0v8.16c.96.01,1.92-.02,2.88,0,.01.96,0,1.92,0,2.88.87.01,1.78-.01,2.64,0,2.64.03,5.28-.02,7.92,0h.24c0,1.84,0,3.68,0,5.52h-2.64s0,2.64,0,2.64h-2.64s0,5.52,0,5.52c-1.83-.03-3.69-.02-5.52,0-.11-.56.27-2.71-.24-2.88h-21.84v2.88c-.88-.01-1.76.01-2.64,0s-1.76,0-2.64,0v-2.88s-2.88,0-2.88,0c-.01-3.44-.09-6.9.11-10.33.16-.81,1.94-.45,2.77-.46.16,0,.32,0,.48,0,1.6-.02,3.2.02,4.8,0,.96-.01,1.92,0,2.88,0,0-.96-.01-1.92,0-2.88.88-.03,1.76.02,2.64,0v-7.92c-.9.03-1.75-.19-2.64-.24-.01-.88,0-1.76,0-2.64-.96,0-1.92.02-2.88,0-.71-.01-1.45-.04-2.16,0-.08,0-.16,0-.24,0-.25-.44-.46-2.64.12-2.64h7.8c.14,0-.27,2.4.24,2.64h13.44c.11-.7-.15-1.78,0-2.4l.24-.24c.89-.5,9.07-.25,10.8-.24ZM42.96,60.45c-1.13.19-2.71-.61-2.89.83-.32,2.51,1,1.71,2.89,1.81v-2.64ZM51.12,60.45h-2.88v2.64h2.88v-2.64Z"
     id="path116" />
  <path
     class="cls-7"
     d="M64.8,41.26c.88,0,1.76,0,2.64,0,0,.88,0,1.76,0,2.64,0,.96,0,1.92,0,2.88l-8.16.14v2.5s8.16,0,8.16,0c0,.88,0,1.76,0,2.64s0,1.76,0,2.64l-.24.24c-2.64-.02-5.28.03-7.92,0v-2.88c-.88-.01-1.76.02-2.64,0-.03-2.71-.04-5.45,0-8.16.88-.02,1.76.01,2.64,0v-2.64c1.83-.03,3.68,0,5.52,0Z"
     id="path118" />
  <path
     class="cls-3"
     d="M56.64,68.61c1.83-.02,3.69-.03,5.52,0,.88.01,1.76,0,2.64,0v2.64s2.64,0,2.64,0c0,.96-.01,1.92,0,2.88-.95-.18-4.49.29-5.06-.1-.46-.32-.03-2.25-.61-2.79-2.67.02-5.35.02-8.01.01-.12-.8.08-1.81,0-2.64.96,0,1.92.01,2.88,0Z"
     id="path120" />
  <path
     class="cls-3"
     d="M67.44,43.9c.32.09,2.64-.13,2.64,0v8.16c0,.13-2.32-.09-2.64,0,0-.88,0-1.76,0-2.64s0-1.76,0-2.64c0-.96,0-1.92,0-2.88Z"
     id="path122" />
  <path
     class="cls-3"
     d="M67.44,54.94h-.24l.24-.24c0,.08,0,.16,0,.24Z"
     id="path124" />
  <path
     class="cls-5"
     d="M54.24,19.19c-.04,1.3-.27,2.27,1.2,2.4s3.78-.77,4.44.72c.26.6-.11,1.71.52,1.89s1.16-.7,1.53.5c-.88,0-1.76,0-2.64,0-.01-.88,0-1.76,0-2.64h-5.52c-.02-.88.03-1.76,0-2.64.15-.05.35-.23.48-.24Z"
     id="path126" />
  <path
     class="cls-12"
     d="M54.24,19.19c.16-.01.32,0,.48,0-.1,1.09.01,1.57,1.2,1.44l-.48.96c-1.47-.13-1.24-1.1-1.2-2.4Z"
     id="path128" />
  <path
     class="cls-9"
     d="M62.4,24.95c1.5-.01,1.53.09,1.44,1.68l-1.44-.72v-.96Z"
     id="path130" />
  <path
     class="cls-9"
     d="M62.4,26.87c0-.08,0-.16,0-.24v.24Z"
     id="path132" />
  <path
     class="cls-14"
     d="M34.56,79.41c.08,0,.16,0,.24,0l-.24,2.88c-.88.02-1.76-.02-2.64,0,0,1.84,0,3.68,0,5.52h-2.4s-.24,0-.24,0c0-.84-.14-4.94.1-5.29.28-.4,1.94-.21,2.54-.22,0-.96,0-1.92,0-2.88.86-.06,1.77.01,2.64,0Z"
     id="path134" />
  <path
     class="cls-14"
     d="M34.8,76.77h-.24c0-.08,0-.16,0-.24l.24.24Z"
     id="path136" />
  <path
     class="cls-6"
     d="M40.08,71.25c0-.35-.13-2.64,0-2.64h11.04c.01.88-.02,1.76,0,2.64-3.68-.01-7.36.02-11.04,0Z"
     id="path138" />
  <path
     class="cls-3"
     d="M34.56,68.61c.96.01,1.92,0,2.88,0v2.64c-1.84,0-3.69,0-5.52,0v-2.64c.88.01,1.76-.01,2.64,0Z"
     id="path140" />
  <path
     class="cls-8"
     d="M49.92,74.13c-.25.4-.91.24-1.32.24-2,.02-4.01.02-6.01,0-.41,0-1.07.15-1.32-.24,2.87,0,5.77-.05,8.64,0Z"
     id="path142" />
  <path
     class="cls-8"
     d="M29.52,71.25c-.5-.19-.13-1.86-.24-2.4.51.51.14,1.67.24,2.4Z"
     id="path144" />
  <path
     class="cls-8"
     d="M31.68,71.25c-.48-.02-.96.03-1.44,0,.33-.43,1.08-.36,1.44,0Z"
     id="path146" />
  <path
     class="cls-8"
     d="M42.96,19.19c1.68,0,3.36,0,5.04,0l1.2.72c.08.47-.56.11-.7.25-.13.12.05,1.53-.02,1.91.88.01,1.76-.02,2.64,0-.01.3-.13.58-.15.87-.02.32.2.68.17.9-.04.27-.49.03-.5.27s.4-.16.48.6h-2.88c-.02,1.83.03,3.68,0,5.52-.03,1.6.51,3.68-2.01,2.84-.66-.22-.37-2.13-.39-2.84-.11-2.87.64-3.08-2.88-2.88-.01-.88,0-1.76,0-2.64h-2.88s0,5.52,0,5.52c-.72.01-1.59.04-2.4,0v2.88c-.08,0-.16,0-.24,0,.08-3.67-.05-7.36,0-11.04h2.64c0-.95-.01-1.92,0-2.88h2.88Z"
     id="path148" />
  <path
     class="cls-16"
     d="M42.96,13.91c1.76-.02,3.52.02,5.28,0v5.28c-.08,0-.16,0-.24,0-1.68,0-3.36,0-5.04,0v-5.28Z"
     id="path150" />
  <path
     class="cls-13"
     d="M48.48,19.19c-.18.94,1.83.31,2.64.48,0,.16,0,.32,0,.48-.71-.31-.78,1.44,0,1.2,0,.24.01.48,0,.72.72.02,1.77-.12,2.4,0l.24.24c.27,1.41-.19,3.53,0,5.04-.92-.01-1.72.32-2.64.24-.01-.92.09-1.99,0-2.88-.08-.76-.49-.36-.48-.6s.46,0,.5-.27c.03-.22-.19-.58-.17-.9.02-.29.14-.58.15-.87-.88-.02-1.76.02-2.64,0,.07-.38-.11-1.79.02-1.91.15-.14.78.22.7-.25l-1.2-.72c.08,0,.16,0,.24,0s.16,0,.24,0ZM50.28,19.91v.24c.16-.08.16-.16,0-.24Z"
     id="path152" />
  <path
     class="cls-8"
     d="M51.12,19.19c0,.16,0,.32,0,.48-.81-.17-2.82.46-2.64-.48.93,0,1.72.02,2.64,0Z"
     id="path154" />
  <path
     class="cls-10"
     d="M46.56,10.56c-.58-.03-1.16-.22-1.44-.24.22-1.23,1.26-.81,1.44.24Z"
     id="path156" />
  <path
     class="cls-7"
     d="M31.92,41.26l.12.24.36-.24c.71-.04,1.45-.01,2.16,0v2.64c.95.04,1.93-.05,2.88,0,.04,2.71.03,5.45,0,8.16-2.87.1-3.08-.63-2.88,2.88-1.6.02-3.2-.02-4.8,0l-.48-5.28c0-.08,0-.16,0-.24h5.28c-.1-.6.19-1.98-.11-2.41-.36-.51-4.29-.08-5.18-.22,0-.08,0-.16,0-.24,0-.03.24-.26.25-.58.07-1.48-.07-2.98-.01-4.46.7.23,1.46-.19,1.92-.24.16-.02.32.01.48,0Z"
     id="path158" />
  <path
     class="cls-13"
     d="M59.28,24.71c.02,1.06.29,7.87,0,8.16-.08.08-1.63-.07-2.05,0-.49.09-.46.38-.59.48-.06.04-.42-.13-.49.15-.17.7.43,1.61-.46,1.93v.32c-.64.02-1.29,0-1.93,0-.88.01-1.76,0-2.64,0-1.84,0-3.68,0-5.52,0,.03-1.84-.02-3.68,0-5.52h.24c.03.71-.26,2.63.39,2.84,2.52.83,1.98-1.24,2.01-2.84h2.88c.05,2.64-.62,3.14,2.64,2.88v-2.88c.45-.08,2.49.12,2.63-.01.16-.15.23-2.2.25-2.63.04-.95-.03-1.93,0-2.88.88,0,1.76,0,2.64,0Z"
     id="path160" />
  <path
     class="cls-13"
     d="M40.08,30.23c.8-.01,1.6,0,2.4,0v5.52c-.8-.02-1.6.01-2.4,0v-2.64c-.8,0-1.6.02-2.4,0v-2.88c.81.04,1.68.01,2.4,0Z"
     id="path162" />
  <path
     class="cls-14"
     d="M29.28,46.78c.89.14,4.82-.29,5.18.22.3.43,0,1.81.11,2.42h-5.28c.02-.88-.03-1.76,0-2.64Z"
     id="path164" />
  <path
     class="cls-8"
     d="M42.96,30.23c0,1.84-.02,3.68,0,5.52-.16,0-.32,0-.48,0v-5.52c.16,0,.32,0,.48,0Z"
     id="path166" />
  <path
     class="cls-6"
     d="M53.76,35.74v2.64s-2.5,0-2.5,0l-.14-2.64c.88,0,1.76.01,2.64,0ZM53.52,35.98c-2.12-.19-2.35.04-2.16,2.16h2.16s0-2.16,0-2.16Z"
     id="path168" />
  <path
     class="cls-6"
     d="M43.68,35.74c-.54.31-.68,2.35-.34,2.4h2.02c-.06-.56.11-1.24,0-1.76-.04-.2-.64-.16-.48-.64.24,0,.48,0,.72,0-.01.88,0,1.76,0,2.64h-2.5c-.25-.03-.13-2.21-.14-2.64.24,0,.48,0,.72,0Z"
     id="path170" />
  <path
     class="cls-13"
     d="M31.44,41.26c-.46.05-1.22.47-1.92.24-.06,1.48.08,2.98.01,4.46-.01.32-.25.55-.25.58v-5.28s2.16,0,2.16,0Z"
     id="path172" />
  <path
     class="cls-8"
     d="M29.76,54.94c-.16,0-.32,0-.48,0,.02-1.76-.03-3.52,0-5.28l.48,5.28Z"
     id="path174" />
  <path
     class="cls-8"
     d="M56.64,33.35c-.15.41-.16,2.31-.24,2.4-.03.03-.53,0-.72,0v-.32c.9-.32.3-1.23.47-1.93.07-.29.43-.11.49-.15Z"
     id="path176" />
  <path
     class="cls-13"
     d="M32.4,41.26l-.36.24-.12-.24c.08,0,.16,0,.24,0s.16,0,.24,0Z"
     id="path178" />
  <path
     class="cls-14"
     d="M53.76,38.86c.04-.16.12-.17.24-.24l-.24.24Z"
     id="path180" />
  <path
     class="cls-14"
     d="M59.28,41.26v2.64c-.88.01-1.76-.02-2.64,0-.04,2.71-.03,5.45,0,8.16.88.02,1.76-.01,2.64,0v2.88c-.86,0-1.77.02-2.64,0,0-.96.01-1.92,0-2.88-.96-.02-1.92.01-2.88,0v-8.16c.96-.01,1.92.02,2.88,0,.01-.88,0-1.76,0-2.64.88,0,1.76.01,2.64,0Z"
     id="path182" />
  <path
     class="cls-14"
     d="M34.56,41.26c.96.01,1.92-.01,2.88,0,0,.88-.01,1.76,0,2.64.89.05,1.74.27,2.64.24v7.92c-.88.02-1.76-.03-2.64,0-.01.96,0,1.92,0,2.88-.96,0-1.92-.01-2.88,0-.2-3.51,0-2.78,2.88-2.88.03-2.71.04-5.45,0-8.16-.95-.05-1.93.04-2.88,0v-2.64Z"
     id="path184" />
  <rect
     class="cls-14"
     x="48.24"
     y="60.45"
     width="2.88"
     height="2.64"
     id="rect186" />
  <path
     class="cls-14"
     d="M42.96,60.45v2.64c-1.89-.1-3.21.7-2.89-1.81.18-1.44,1.76-.64,2.89-.83Z"
     id="path188" />
  <path
     class="cls-14"
     d="M67.44,46.78c0,.88,0,1.76,0,2.64h-8.16s0-2.5,0-2.5l8.16-.14Z"
     id="path190" />
  <path
     class="cls-8"
     d="M51.12,20.15c0,.4.01.8,0,1.2-.78.24-.71-1.51,0-1.2Z"
     id="path192" />
  <path
     class="cls-8"
     d="M53.76,22.31l-.24-.24c.18.03.21.06.24.24Z"
     id="path194" />
  <path
     class="cls-2"
     d="M40.08,30.23v-5.52s2.88,0,2.88,0c0,.88-.01,1.76,0,2.64.01.96,0,1.92,0,2.88-.16,0-.32,0-.48,0-.8,0-1.6-.01-2.4,0Z"
     id="path196" />
  <path
     class="cls-2"
     d="M51.12,24.71c.09.89-.01,1.96,0,2.88s-.02,1.76,0,2.64h-2.88c.03-1.84-.02-3.68,0-5.52h2.88Z"
     id="path198" />
  <path
     class="cls-6"
     d="M45.84,30.23h-2.88c0-.96.01-1.92,0-2.88,3.52-.2,2.77.01,2.88,2.88ZM43.5,29.69c.67.78,1.79.35,1.64-1.02-.14-1.25-.98-.88-1.92-.57-.12.17.13,1.42.28,1.6Z"
     id="path200" />
  <path
     class="cls-8"
     d="M50.28,19.91c.16.08.16.16,0,.24v-.24Z"
     id="path202" />
  <path
     class="cls-8"
     d="M53.76,27.35s.27.23.58.25c.76.04,1.54-.05,2.3,0-.02.43-.09,2.47-.25,2.63-.14.14-2.18-.07-2.63.01v2.88c-3.26.26-2.59-.24-2.64-2.88-.02-.88.01-1.76,0-2.64.92.08,1.72-.25,2.64-.24Z"
     id="path204" />
  <path
     class="cls-16"
     d="M45.6,30.23c-.02,1.84.03,3.68,0,5.52-.24,0-.48,0-.72,0-.4,0-.8,0-1.2,0-.24,0-.48,0-.72,0-.02-1.83,0-3.68,0-5.52h2.64Z"
     id="path206" />
  <path
     class="cls-5"
     d="M53.52,35.98v2.16s-2.16,0-2.16,0c-.19-2.13.04-2.35,2.16-2.16Z"
     id="path208" />
  <path
     class="cls-5"
     d="M44.88,35.74c-.17.48.43.44.48.64.11.52-.06,1.2,0,1.76h-2.02c-.34-.05-.2-2.09.34-2.4.4,0,.8,0,1.2,0Z"
     id="path210" />
  <path
     class="cls-5"
     d="M43.5,29.69c-.15-.17-.4-1.42-.28-1.6.94-.3,1.78-.68,1.92.57.16,1.38-.97,1.8-1.64,1.02Z"
     id="path212" />
</svg>
