<?xml version="1.0" encoding="UTF-8" standalone="no"?>
<svg
   version="1.0"
   width="496.784549pt"
   height="555.903179pt"
   viewBox="0 0 496.784549 555.903179"
   preserveAspectRatio="xMidYMid meet"
   id="svg124"
   sodipodi:docname="newsonchain.svg"
   inkscape:version="1.2.2 (b0a8486541, 2022-12-01)"
   xmlns:inkscape="http://www.inkscape.org/namespaces/inkscape"
   xmlns:sodipodi="http://sodipodi.sourceforge.net/DTD/sodipodi-0.dtd"
   xmlns="http://www.w3.org/2000/svg"
   xmlns:svg="http://www.w3.org/2000/svg">
  <defs
     id="defs128" />
  <sodipodi:namedview
     id="namedview126"
     pagecolor="#ffffff"
     bordercolor="#000000"
     borderopacity="0.25"
     inkscape:showpageshadow="2"
     inkscape:pageopacity="0.0"
     inkscape:pagecheckerboard="0"
     inkscape:deskcolor="#d1d1d1"
     inkscape:document-units="pt"
     showgrid="false"
     inkscape:zoom="1.1710672"
     inkscape:cx="331.32172"
     inkscape:cy="370.60213"
     inkscape:window-width="1880"
     inkscape:window-height="1056"
     inkscape:window-x="40"
     inkscape:window-y="0"
     inkscape:window-maximized="1"
     inkscape:current-layer="svg124" />
  <metadata
     id="metadata2"> Created by potrace 1.16, written by Peter Selinger 2001-2019 </metadata>
  <g
     transform="translate(-13.000000,556.000000) scale(0.100000,-0.100000)"
     fill="#000000"
     stroke="none"
     id="g122"
     style="fill:#f2cc00;fill-opacity:1">
    <path
       d="M2367 5554 c-3 -3 -41 -14 -84 -24 -164 -38 -363 -127 -538 -240 -82 -53 -122 -80 -137 -94 -10 -9 -20 -16 -23 -16 -16 0 -257 -215 -353 -315 -116 -120 -299 -353 -357 -455 -5 -10 -28 -49 -49 -87 -63 -110 -116 -213 -147 -288 -52 -124 -99 -244 -99 -255 0 -6 -5 -18 -10 -28 -12 -20 -61 -205 -85 -317 -9 -44 -21 -93 -25 -110 -5 -16 -19 -106 -31 -200 -25 -197 -30 -569 -10 -720 6 -49 17 -128 23 -175 24 -189 133 -603 170 -645 4 -5 8 -15 8 -22 0 -7 13 -41 28 -75 16 -35 35 -79 42 -98 7 -19 17 -39 21 -45 4 -5 28 -50 53 -99 109 -209 250 -400 442 -596 107 -109 118 -119 199 -185 33 -26 62 -51 65 -55 5 -6 174 -121 260 -176 57 -36 257 -120 365 -153 166 -50 294 -71 480 -78 317 -11 608 37 832 138 24 10 47 19 53 19 15 0 138 62 287 146 97 53 287 194 373 273 57 54 67 56 140 40 25 -6 68 -14 95 -19 273 -46 553 -154 646 -250 73 -75 72 -119 -4 -194 -52 -51 -167 -115 -267 -149 -8 -3 -1 -6 15 -6 17 0 62 14 100 32 146 67 225 143 225 216 0 52 -35 110 -93 152 -83 61 -285 143 -402 164 -22 4 -44 11 -50 15 -11 9 -94 28 -158 37 -20 3 -40 9 -43 14 -3 5 -25 9 -50 9 l-44 0 0 23 c0 14 19 41 51 72 94 92 283 339 369 485 99 165 221 434 285 623 22 68 61 218 99 385 29 126 56 370 62 557 18 542 -117 1123 -365 1570 -62 112 -191 310 -229 351 -10 10 -35 42 -55 69 -58 77 -242 259 -349 345 -254 205 -526 343 -821 416 l-98 24 -403 0 c-221 0 -405 -3 -409 -6z m588 -242 l-6 -17 -20 24 c-24 29 -24 57 -1 70 l17 10 9 -35 c4 -19 5 -42 1 -52z m-121 7 c5 -37 4 -54 -5 -60 -21 -13 -26 -2 -23 53 3 72 3 70 13 64 4 -3 11 -29 15 -57z m170 45 c3 -8 11 -12 16 -9 21 13 42 -17 35 -52 -8 -43 4 -103 20 -103 17 0 25 23 25 75 0 26 6 50 16 59 27 27 35 8 28 -64 -7 -72 0 -86 36 -75 13 4 20 15 20 31 l0 25 28 -3 27 -3 3 -28 c2 -18 13 -32 34 -43 l30 -15 12 17 c8 10 11 26 8 36 l-5 19 34 -3 34 -3 3 -37 c2 -25 8 -38 18 -38 10 0 14 13 14 48 0 26 7 56 15 66 l15 20 0 -32 c0 -18 -4 -32 -9 -32 -17 0 -18 -80 -1 -93 36 -29 81 -47 114 -47 23 0 39 -6 42 -15 6 -14 88 -65 106 -65 5 0 29 -13 53 -30 24 -16 50 -30 59 -30 8 0 21 -9 29 -20 18 -26 96 -82 108 -78 14 5 68 129 62 142 -6 14 -100 86 -111 86 -8 0 -30 -51 -48 -107 -5 -18 -34 -16 -34 2 0 8 -6 15 -14 15 -17 0 -41 28 -32 37 3 3 17 1 31 -5 36 -17 43 5 11 35 -33 30 -28 39 15 24 59 -21 62 14 3 49 -50 29 -59 26 -72 -27 -7 -27 -16 -54 -21 -62 l-9 -13 -31 23 c-17 12 -31 26 -31 30 0 4 20 18 45 30 24 12 47 29 50 38 7 18 -42 63 -90 83 -16 6 -32 15 -35 18 -12 14 -104 60 -121 60 -11 0 -19 5 -19 11 0 5 -4 7 -10 4 -5 -3 -10 -1 -10 4 0 6 -6 11 -14 11 -18 0 -89 30 -84 36 6 6 111 -26 122 -37 6 -5 20 -9 33 -9 13 0 23 -4 23 -10 0 -5 7 -10 16 -10 23 0 179 -77 259 -128 133 -85 169 -112 299 -222 55 -47 214 -215 270 -285 31 -38 61 -76 67 -83 44 -53 174 -273 235 -397 129 -264 202 -493 259 -810 22 -121 31 -245 18 -245 -23 0 -43 50 -43 107 -1 106 -28 270 -66 403 -33 115 -46 150 -53 150 -5 0 -11 20 -14 44 -8 55 -36 116 -55 116 -35 0 -104 -54 -95 -76 4 -10 10 -11 24 -4 l18 10 22 -50 c12 -27 26 -50 31 -50 6 0 5 -7 -2 -15 -7 -8 -19 -15 -26 -15 -20 0 -17 -44 6 -92 11 -23 20 -56 20 -74 0 -17 7 -51 15 -74 15 -42 12 -66 -6 -55 -5 4 -9 17 -9 31 0 13 -4 24 -8 24 -13 0 -30 42 -37 96 -18 126 -71 268 -105 279 -31 10 -52 51 -45 89 l7 34 -53 96 -53 96 -27 0 c-15 0 -29 6 -32 13 -3 6 -5 3 -4 -8 0 -11 -3 -29 -6 -41 -5 -15 8 -51 45 -125 l53 -104 28 -3 c15 -2 27 -9 27 -17 0 -7 5 -15 11 -17 9 -3 8 -13 -1 -39 l-13 -36 17 -54 c10 -30 24 -67 31 -84 23 -55 27 -85 10 -85 -14 0 -45 48 -45 70 0 17 -116 262 -163 346 -28 48 -101 153 -105 150 -4 -4 19 -47 29 -56 4 -3 9 -15 13 -27 4 -13 13 -29 19 -35 12 -13 96 -179 117 -233 77 -193 158 -475 137 -475 -23 0 -37 16 -37 42 0 30 -24 136 -39 173 -7 19 -23 61 -58 160 -29 83 -97 222 -146 300 -20 33 -44 75 -52 93 -9 17 -19 32 -24 32 -6 0 -13 9 -16 20 -3 11 -12 26 -18 32 -7 7 -39 47 -72 88 -63 80 -230 250 -245 250 -5 0 -15 8 -22 18 -17 24 -156 120 -243 168 -139 77 -311 140 -445 163 -90 15 -275 29 -335 25 -163 -10 -302 -31 -367 -55 -29 -10 -60 -19 -68 -19 -8 0 -33 -9 -55 -19 -229 -109 -282 -136 -298 -149 -9 -8 -26 -20 -36 -26 -79 -45 -211 -154 -316 -260 -69 -70 -165 -188 -165 -203 0 -7 -6 -13 -14 -13 -7 0 -19 -13 -26 -30 -7 -16 -16 -30 -21 -30 -5 0 -9 -7 -9 -15 0 -8 -4 -15 -10 -15 -5 0 -10 -5 -10 -10 0 -6 -8 -19 -17 -30 -10 -10 -36 -54 -58 -97 -22 -43 -43 -79 -47 -81 -5 -2 -8 -7 -8 -12 0 -7 -29 -74 -80 -185 -5 -11 -17 -44 -26 -72 -12 -39 -21 -53 -35 -53 l-18 0 25 55 c13 31 24 63 24 73 0 10 6 26 14 37 7 11 14 22 14 25 2 15 17 53 48 116 19 39 34 74 34 78 0 4 9 19 20 33 11 14 20 33 20 42 0 9 9 24 20 34 11 9 20 23 20 30 0 8 16 34 35 58 19 24 35 48 35 52 0 12 84 118 145 186 88 96 136 141 230 216 28 22 52 42 55 45 3 3 43 31 90 62 396 264 882 342 1337 214 89 -25 254 -94 328 -137 90 -52 254 -172 312 -229 35 -33 67 -60 73 -60 5 0 10 -4 10 -9 0 -15 68 -86 76 -79 6 7 -149 167 -216 224 -53 45 -157 120 -205 150 -80 48 -255 131 -304 144 -24 6 -51 15 -60 20 -15 8 -111 30 -266 60 -71 14 -367 8 -435 -8 -25 -6 -70 -16 -100 -21 -72 -14 -140 -34 -140 -42 0 -3 -15 -9 -34 -12 -34 -5 -82 -25 -196 -80 -265 -128 -525 -354 -731 -637 -73 -100 -161 -261 -250 -456 -17 -36 -69 -174 -69 -181 0 -2 -9 -3 -19 -3 l-20 0 26 63 c26 63 62 182 68 226 2 13 8 28 14 34 16 16 13 67 -4 73 -21 8 -19 31 6 65 14 20 27 28 38 24 22 -7 33 6 111 133 l63 103 -12 25 -11 26 21 26 c15 19 30 27 52 27 l32 0 89 94 88 93 -6 29 c-8 42 26 72 74 65 l35 -6 95 73 95 72 0 28 c0 20 8 33 28 45 l27 17 20 -13 c29 -18 32 -17 145 38 l104 50 3 27 c2 21 10 29 37 37 l33 10 10 -17 c15 -27 94 -21 173 13 11 5 31 10 45 12 16 2 30 13 38 31 7 15 18 27 25 28 7 0 20 2 30 4 12 2 21 -5 27 -21 l10 -24 115 0 115 0 16 25 c22 34 71 35 84 1 10 -27 22 -32 95 -41 28 -3 67 -11 89 -17 l39 -12 17 22 c26 31 76 21 83 -17 l6 -28 48 -18 c26 -9 72 -28 101 -42 l54 -24 18 16 c13 11 26 14 42 10 27 -9 38 -23 38 -51 0 -14 15 -31 43 -49 23 -16 62 -42 86 -58 l44 -30 28 10 c39 15 69 -7 69 -52 l0 -34 84 -74 84 -75 27 6 c17 3 30 0 36 -9 6 -9 9 -10 9 -2 0 6 -4 15 -10 18 -5 3 -10 23 -10 43 l0 38 -81 79 -81 79 -19 -12 c-12 -8 -26 -9 -44 -2 -25 10 -28 15 -29 59 -1 19 -18 36 -71 73 -38 27 -82 55 -97 64 l-28 14 -23 -15 -24 -15 -26 21 c-16 12 -27 30 -27 45 0 19 -8 28 -37 40 -40 17 -87 37 -141 60 -41 17 -52 18 -52 1 0 -46 -70 -29 -88 21 l-9 27 -89 23 c-121 30 -139 29 -152 -8 l-11 -29 -33 9 c-18 6 -35 10 -37 10 -2 0 0 7 3 15 10 27 -41 38 -154 36 -57 -1 -106 -4 -108 -5 -1 -2 -4 -13 -7 -25 -6 -35 -14 -41 -51 -41 -22 0 -34 5 -34 14 0 7 -7 19 -15 26 l-16 13 13 8 c7 5 27 9 45 9 18 0 38 6 45 14 9 9 20 11 36 5 13 -5 34 -6 48 -3 13 3 43 7 66 8 31 1 43 5 43 16 1 8 -2 17 -6 20 -12 9 -22 60 -12 60 5 0 23 -16 39 -36 16 -20 38 -46 48 -57 l19 -20 14 18 c19 27 18 131 -2 139 -8 3 -15 10 -15 16 0 16 17 12 24 -6z m-461 -74 c8 -57 0 -77 -27 -67 l-16 6 12 25 c8 19 8 29 -1 40 -15 18 -5 59 12 53 7 -2 15 -28 20 -57z m113 49 c3 -6 2 -15 -2 -19 -12 -12 -38 5 -30 19 9 14 23 14 32 0z m48 -15 c11 -28 6 -44 -13 -44 -10 0 -21 -9 -24 -20 -5 -20 -37 -29 -37 -10 0 6 -8 10 -17 10 -11 0 -5 7 15 17 19 9 38 27 43 40 10 27 24 30 33 7z m601 -11 c-2 -10 -4 -27 -5 -38 l-1 -20 -9 23 c-10 23 -4 52 10 52 5 0 7 -8 5 -17z m-55 -8 c0 -17 -2 -18 -24 -9 -23 9 -20 24 4 24 11 0 20 -7 20 -15z m-999 -90 c12 -47 27 -89 34 -95 11 -9 82 7 130 29 19 9 136 31 165 31 28 0 -6 -17 -70 -34 -36 -10 -83 -24 -105 -30 l-40 -13 -3 -31 -3 -31 -35 -7 c-25 -5 -40 -2 -53 10 -10 9 -22 16 -27 16 -5 0 -56 -24 -114 -53 l-105 -52 -3 -29 c-2 -16 -9 -35 -17 -42 -18 -18 -62 -28 -69 -15 -11 17 -35 13 -64 -10 -15 -11 -58 -44 -97 -73 l-70 -53 2 -34 3 -34 -31 -24 -30 -24 -24 13 -25 13 -90 -94 -90 -94 5 -40 5 -40 -31 -35 c-20 -22 -33 -30 -36 -22 -9 22 -38 12 -59 -21 -11 -17 -44 -67 -72 -110 -52 -77 -62 -113 -41 -134 8 -8 5 -22 -12 -53 l-23 -41 -22 5 c-26 7 -36 -4 -62 -69 -11 -28 -34 -80 -51 -117 -35 -74 -40 -118 -15 -118 12 0 15 -6 10 -25 -12 -46 -25 -75 -36 -75 -13 0 -13 33 2 64 l11 26 -27 23 c-20 17 -23 26 -15 34 7 7 15 33 19 58 l7 47 -26 -5 c-14 -3 -43 2 -63 11 -36 16 -49 32 -28 32 18 0 10 39 -10 50 l-20 11 -6 -18 c-3 -10 -14 -36 -24 -59 -10 -22 -22 -57 -25 -77 -4 -20 -11 -37 -16 -37 -5 0 -9 -14 -9 -31 l0 -31 -15 12 c-15 12 -14 24 7 130 41 210 210 538 403 780 102 128 372 400 397 400 4 0 18 10 31 23 41 38 138 102 222 147 44 23 94 51 111 61 17 10 46 21 65 23 19 3 45 8 58 12 17 5 22 4 17 -4 -4 -7 -14 -12 -21 -12 -8 0 -17 -10 -20 -23 -5 -17 -13 -24 -33 -24 -36 0 -121 -53 -122 -76 0 -27 69 -159 80 -152 13 8 13 42 0 50 -20 12 -9 40 21 58 41 23 46 22 61 -10 l14 -28 38 3 c21 2 53 12 70 23 17 10 38 19 47 19 16 0 29 19 29 41 0 15 -38 10 -75 -11 -20 -11 -40 -18 -45 -15 -4 2 -16 35 -26 72 -13 50 -15 68 -6 71 7 2 10 8 6 13 -3 5 0 9 5 9 6 0 11 -5 11 -11 0 -8 14 -9 43 -5 l43 7 0 -48 -1 -48 23 -3 22 -3 0 34 c0 19 -6 40 -14 46 -21 18 1 100 24 86 5 -3 18 -43 31 -90z m117 30 c16 -49 10 -65 -26 -65 l-29 0 1 43 c4 77 32 89 54 22z m1227 -5 c9 -15 -16 -120 -30 -120 -6 0 -23 6 -38 13 -27 12 -35 44 -21 82 l7 17 8 -14 c7 -10 9 -9 9 4 0 11 5 15 14 12 8 -3 17 -1 21 5 8 14 22 14 30 1z m55 -40 c0 -13 12 -25 35 -34 19 -8 35 -17 35 -20 0 -10 -110 -59 -117 -52 -4 4 -1 11 6 15 8 5 16 32 19 60 4 48 22 73 22 31z m-1680 -74 c0 -3 -13 -11 -30 -20 -33 -16 -40 -11 -12 10 16 13 42 19 42 10z m2020 -161 c0 -26 -22 -75 -34 -75 -7 0 -22 11 -35 23 -23 25 -21 47 7 79 l14 17 24 -16 c13 -8 24 -21 24 -28z m-905 -95 c89 -10 203 -35 280 -61 82 -28 224 -89 257 -111 14 -10 29 -18 32 -18 20 0 192 -122 275 -195 87 -76 230 -229 255 -274 5 -9 12 -18 16 -21 4 -3 17 -21 29 -40 11 -19 21 -30 21 -25 1 6 10 -10 21 -35 12 -25 26 -50 32 -55 7 -6 28 -42 47 -80 19 -39 45 -87 57 -107 13 -21 23 -47 23 -58 0 -11 5 -20 10 -20 6 0 10 -12 10 -26 0 -14 4 -23 8 -20 4 2 8 -4 9 -14 1 -11 22 -79 47 -151 51 -147 54 -162 29 -157 -11 2 -22 19 -29 43 -6 22 -13 47 -16 55 -3 8 -11 35 -17 60 -15 56 -46 140 -76 205 -44 97 -90 190 -96 195 -3 3 -14 20 -24 39 -9 19 -26 43 -36 54 -10 12 -19 25 -19 29 0 8 -9 21 -37 53 -7 7 -13 18 -13 24 0 6 -4 11 -10 11 -5 0 -21 18 -36 41 -27 44 -234 255 -298 304 -201 155 -421 255 -655 296 -30 5 -58 12 -62 15 -20 12 -387 4 -449 -10 -243 -54 -415 -124 -590 -239 -73 -48 -86 -58 -179 -135 -43 -35 -181 -170 -181 -177 0 -1 -18 -22 -41 -46 -22 -24 -51 -60 -64 -79 -14 -19 -38 -53 -54 -75 -17 -22 -34 -47 -38 -55 -3 -8 -16 -28 -27 -45 -47 -68 -136 -247 -192 -387 -10 -27 -25 -48 -31 -48 -7 0 -13 2 -13 4 0 9 32 95 50 133 11 24 20 46 20 49 0 3 16 39 35 80 19 40 35 76 35 79 0 3 11 23 24 44 14 21 22 42 19 45 -4 3 -2 6 4 6 5 0 18 18 28 40 10 22 22 40 27 40 4 0 8 5 8 11 0 6 8 21 18 34 9 12 24 33 32 45 64 97 197 241 315 341 22 19 45 39 51 44 31 27 55 45 59 45 3 0 27 16 54 35 26 19 53 35 58 35 5 0 18 8 29 18 18 16 102 59 185 96 121 53 339 110 454 119 83 7 253 5 320 -3z m-3 -71 c241 -35 390 -87 598 -208 84 -48 214 -153 319 -258 l104 -103 -13 -15 -13 -16 -86 88 c-185 190 -314 279 -556 383 -111 48 -327 93 -370 76 l-16 -6 12 -21 11 -22 10 16 c5 10 20 17 33 17 31 0 220 -48 262 -66 18 -8 52 -22 75 -30 59 -21 191 -93 274 -150 136 -93 304 -253 319 -301 12 -42 -19 -25 -75 42 -30 35 -60 65 -66 65 -6 0 -19 10 -31 23 -33 36 -111 101 -145 119 -17 10 -34 21 -37 26 -13 20 -192 114 -271 142 -19 7 -60 21 -90 32 -55 20 -132 38 -180 41 l-25 2 -3 -30 -4 -30 19 17 18 16 59 -9 c165 -27 457 -165 571 -271 17 -15 34 -28 38 -28 10 0 175 -165 222 -222 30 -36 65 -91 65 -102 0 -3 -8 -6 -18 -6 -17 0 -62 42 -62 58 0 7 -194 205 -222 227 -130 100 -193 142 -297 193 -68 34 -131 62 -140 62 -9 0 -36 8 -61 16 -66 24 -119 33 -127 21 -3 -5 -6 -23 -5 -39 1 -31 -24 -50 -38 -29 -9 16 -21 16 -30 1 -18 -29 -30 5 -31 88 -1 96 -16 80 -18 -19 -1 -42 -7 -63 -23 -85 l-23 -28 -5 -246 -5 -245 -60 3 c-65 4 -83 13 -62 30 9 8 24 9 45 3 23 -7 34 -6 43 5 14 17 3 22 -56 26 -29 2 -41 8 -43 21 l-3 17 34 0 c20 0 42 3 51 6 28 11 6 24 -40 24 l-44 0 0 20 c0 22 6 24 63 21 21 -2 37 2 37 8 0 6 -17 11 -37 11 -47 0 -66 12 -61 36 2 14 13 20 46 22 52 4 56 22 4 22 -21 0 -43 5 -50 12 -19 19 6 38 49 38 53 0 50 18 -3 22 l-43 3 -3 23 -3 22 50 0 c64 0 67 18 4 22 l-48 3 0 20 0 20 43 3 c46 3 49 22 2 22 -31 0 -42 16 -28 43 11 21 46 22 75 2 l21 -15 5 27 c3 16 6 70 6 120 0 70 -4 96 -15 108 -18 17 -94 21 -110 5 -7 -7 -9 -59 -7 -141 3 -89 0 -129 -7 -124 -5 3 -10 13 -10 20 0 8 -9 19 -20 25 -23 12 -27 50 -5 50 8 0 15 5 15 10 0 6 -7 13 -15 16 -23 9 -18 41 8 48 l22 6 -25 19 -24 19 17 20 c20 22 8 38 -18 28 l-15 -5 0 -110 0 -110 -47 3 -48 2 -3 32 c-2 18 -7 32 -12 32 -5 0 -7 -13 -4 -29 l6 -29 -23 -7 c-13 -5 -25 -3 -26 2 -2 6 -9 18 -16 27 l-13 17 -49 -16 c-77 -26 -217 -86 -247 -107 -14 -10 -33 -18 -41 -18 -8 0 -20 -7 -28 -16 -7 -8 -30 -24 -51 -35 -21 -11 -38 -24 -38 -29 0 -6 -6 -10 -13 -10 -8 0 -22 -9 -32 -20 -31 -35 -83 -19 -54 17 35 42 303 203 338 203 6 0 11 5 11 10 0 6 10 10 23 10 13 0 27 4 33 8 9 8 94 36 154 50 25 6 41 5 58 -6 l22 -14 0 26 c0 41 -33 38 -195 -16 -66 -22 -127 -46 -136 -54 -8 -8 -21 -14 -27 -14 -6 0 -28 -10 -49 -21 -21 -12 -55 -30 -75 -41 -20 -11 -42 -26 -49 -34 -6 -8 -17 -14 -23 -14 -11 -1 -113 -80 -196 -152 -49 -43 -60 -47 -60 -17 0 21 65 86 144 144 23 16 47 35 55 43 7 7 30 21 51 32 21 11 40 23 42 27 5 12 202 108 278 136 67 24 115 38 208 59 l53 12 8 -13 c10 -16 31 -6 31 14 0 7 -7 16 -16 19 -29 11 -304 -56 -312 -76 -2 -4 -10 -8 -17 -8 -8 0 -56 -20 -107 -44 -134 -63 -306 -180 -393 -266 -35 -35 -75 -40 -75 -10 0 11 4 20 8 20 5 0 28 18 52 40 24 22 47 40 52 40 4 0 8 3 8 8 0 4 16 18 35 31 19 13 47 34 62 47 63 54 388 213 436 214 10 0 30 6 45 14 15 7 65 19 112 26 47 7 105 16 130 20 68 12 231 11 312 -1z m-124 -150 c-2 -6 -7 -10 -11 -10 -4 1 -19 1 -33 1 -14 0 -23 4 -19 10 8 14 68 13 63 -1z m343 -100 c35 -11 78 -27 94 -34 17 -7 55 -23 85 -36 50 -21 198 -104 210 -118 3 -3 28 -21 55 -40 42 -29 136 -113 178 -159 7 -7 34 -36 60 -65 56 -59 85 -113 70 -128 -7 -7 -18 1 -34 23 -13 18 -74 83 -135 143 -127 126 -158 155 -170 155 -5 1 -25 14 -44 30 -19 17 -40 30 -47 30 -7 0 -13 3 -13 8 0 7 -131 76 -175 92 -11 4 -31 12 -45 17 -57 23 -99 33 -137 33 -46 0 -65 16 -56 48 7 27 22 27 104 1z m-711 -4 c0 -3 -8 -14 -17 -25 l-18 -21 -5 -252 -5 -252 -44 -3 c-74 -5 -82 5 -28 39 44 27 60 49 36 49 -12 0 -91 -43 -131 -71 -41 -29 -81 -24 -60 7 6 10 111 79 167 110 14 8 20 24 22 62 l4 51 -20 11 c-22 11 -18 40 5 40 8 0 14 5 14 10 0 6 -4 10 -9 10 -16 0 -81 -30 -130 -60 -26 -17 -55 -30 -64 -30 l-16 0 10 28 10 27 99 48 c87 42 122 67 91 67 -15 0 -180 -81 -187 -91 -6 -10 -47 -12 -57 -3 -10 10 12 44 28 44 7 0 20 6 27 13 16 15 162 87 177 87 6 0 11 7 11 15 l0 15 -37 -17 c-79 -34 -183 -88 -183 -95 0 -5 -7 -8 -15 -8 -8 0 -15 -4 -15 -10 0 -5 -5 -10 -11 -10 -6 0 -43 -23 -82 -50 l-72 -51 -3 25 c-4 29 12 47 93 102 86 58 157 95 265 138 52 21 102 42 110 46 17 10 40 13 40 5z m222 -87 c4 -7 8 -124 8 -261 l0 -247 26 -10 c34 -13 160 -13 185 0 l19 11 0 242 c0 133 4 248 9 256 11 18 182 11 205 -8 l16 -13 2 -247 3 -246 80 -8 c157 -15 260 -59 345 -147 30 -31 69 -81 87 -111 40 -68 75 -201 71 -271 l-3 -53 -91 -3 -91 -3 -28 -94 c-16 -52 -31 -95 -35 -95 -4 0 -22 42 -42 93 l-35 92 -54 5 -54 5 -6 35 c-16 100 -86 181 -191 222 l-53 21 -160 7 -160 6 -23 -13 -23 -14 3 -122 c1 -67 -1 -128 -5 -134 -5 -7 -17 -13 -28 -13 -24 0 -24 -4 7 -97 l27 -78 -2 -82 c-1 -88 1 -92 53 -102 l31 -7 29 -77 29 -77 171 0 171 0 38 100 c22 55 42 100 45 100 4 0 23 -44 43 -98 l35 -97 169 -3 168 -2 14 19 14 20 30 -32 c37 -37 79 -91 79 -100 0 -3 -12 -7 -27 -9 l-28 -3 0 -45 0 -45 50 -5 c39 -4 51 -9 53 -24 5 -24 -14 -36 -60 -36 l-38 0 0 -189 0 -189 16 -6 c9 -3 28 -6 44 -6 l29 0 -9 -27 c-26 -87 -93 -194 -163 -260 -99 -92 -277 -178 -421 -203 -34 -6 -71 -16 -83 -22 l-23 -11 0 -232 0 -233 -14 -11 c-19 -16 -184 -37 -195 -25 -5 5 -11 115 -14 244 -3 129 -6 237 -6 239 -1 2 -46 1 -102 -1 l-101 -4 -13 -17 c-10 -14 -12 -73 -11 -248 l3 -231 -21 -13 c-13 -9 -57 -15 -111 -17 l-90 -3 -5 237 c-3 158 -9 241 -16 248 -9 9 -52 9 -169 1 -189 -13 -325 -14 -344 -2 -10 7 -12 24 -7 77 12 121 38 234 55 243 9 5 69 12 134 16 64 4 120 12 124 18 4 6 7 63 7 126 l1 116 40 -5 c86 -11 220 -4 273 14 l52 18 0 64 0 64 -34 0 c-18 0 -39 -6 -45 -14 -6 -8 -34 -23 -61 -35 l-50 -22 -39 11 c-53 14 -98 66 -106 124 -24 159 107 257 233 173 20 -13 52 -26 70 -29 l33 -5 -3 66 -3 66 -40 15 c-28 10 -81 15 -183 15 l-142 0 0 53 0 52 18 0 c93 0 231 13 295 26 l77 17 0 68 0 69 -60 0 c-36 0 -79 -8 -110 -20 -84 -33 -137 -42 -181 -30 l-39 11 0 54 0 55 203 2 202 3 -3 60 c-8 157 -103 230 -317 244 l-90 6 -3 147 -3 148 -172 2 -172 3 -3 138 c-2 106 0 137 10 138 7 0 128 0 268 -1 140 -1 263 2 273 5 l17 7 0 257 c0 142 3 261 8 266 12 12 204 -3 214 -17z m620 -31 c91 -40 202 -103 218 -122 7 -8 17 -15 22 -15 18 0 175 -139 245 -217 100 -111 200 -260 185 -275 -13 -13 -29 2 -58 55 -51 93 -287 347 -323 347 -5 0 -11 3 -13 8 -13 30 -160 118 -320 191 -41 18 -68 37 -68 46 0 23 32 18 112 -18z m-13 -67 c9 -5 36 -18 61 -29 25 -11 54 -26 65 -33 74 -46 132 -84 147 -98 10 -8 29 -24 43 -35 123 -97 325 -344 325 -398 0 -31 -15 -16 -75 73 -76 111 -228 265 -337 340 -96 66 -210 130 -233 130 -8 0 -15 5 -15 10 0 6 -11 10 -24 10 -37 0 -71 42 -50 62 5 6 55 -12 93 -32z m-34 -61 c5 -5 15 -9 23 -9 16 0 200 -102 230 -128 11 -9 39 -33 63 -52 74 -62 134 -123 202 -208 82 -102 109 -142 174 -266 l16 -28 -14 -9 c-10 -6 -27 16 -64 82 -27 49 -58 98 -67 109 -10 11 -18 24 -18 30 0 5 -6 13 -13 17 -6 4 -25 25 -40 45 -30 41 -152 168 -161 168 -3 0 -16 10 -29 23 -42 38 -82 67 -94 67 -7 0 -13 3 -13 8 0 4 -10 12 -23 18 -12 7 -62 32 -110 58 -48 25 -94 46 -101 46 -16 0 -29 27 -20 41 6 10 43 3 59 -12z m68 -99 c58 -28 140 -79 188 -116 124 -98 184 -163 306 -329 31 -43 93 -162 93 -180 0 -30 -18 -14 -47 40 -42 81 -147 226 -211 292 -67 69 -156 143 -170 143 -6 0 -12 4 -14 8 -6 15 -111 77 -190 112 -74 33 -95 51 -82 71 9 15 20 11 127 -41z m-1333 -16 c0 -8 -33 -47 -74 -87 -93 -91 -156 -168 -242 -293 -62 -91 -144 -247 -144 -273 0 -6 -9 -11 -20 -11 -11 0 -20 1 -20 3 0 5 129 261 142 282 50 77 133 196 159 225 146 164 199 205 199 154z m-210 -7 c0 -12 -8 -29 -17 -38 -51 -45 -213 -255 -213 -276 0 -3 -6 -14 -14 -22 -23 -27 -82 -137 -119 -221 -8 -19 -24 -56 -36 -82 -12 -27 -26 -68 -33 -93 -7 -25 -15 -45 -19 -45 -27 0 -4 87 58 219 14 30 33 73 43 96 10 23 37 76 60 116 24 41 51 90 62 109 18 31 75 110 110 150 7 9 30 37 51 63 42 51 67 60 67 24z m-194 2 c3 -6 -8 -30 -25 -52 -129 -172 -279 -442 -318 -571 -13 -41 -33 -45 -33 -7 0 17 5 31 10 31 6 0 10 7 10 15 0 8 14 44 30 80 17 36 30 68 30 72 0 8 76 157 103 205 50 84 81 134 91 145 6 6 24 30 40 52 30 41 49 50 62 30z m614 -8 c0 -12 -23 -37 -57 -64 -32 -25 -69 -55 -83 -67 -47 -42 -70 -54 -82 -42 -12 12 3 29 91 102 29 25 59 50 65 56 14 13 49 33 59 34 4 0 7 -9 7 -19z m1020 -20 c0 -23 -16 -36 -25 -21 -9 14 1 40 15 40 5 0 10 -9 10 -19z m-1576 -20 c3 -5 -12 -31 -33 -57 -71 -91 -158 -229 -214 -339 -60 -120 -107 -234 -107 -259 0 -20 -16 -21 -24 -1 -9 24 110 310 148 354 7 9 19 31 26 50 14 36 92 157 144 224 28 36 49 46 60 28z m191 -1 c3 -5 -4 -20 -17 -33 -114 -114 -297 -386 -337 -502 -8 -22 -17 -42 -21 -45 -7 -5 -30 -69 -57 -157 -9 -29 -19 -53 -24 -53 -13 0 -21 40 -11 53 5 7 12 26 16 42 8 31 11 38 70 168 20 42 36 80 36 84 0 15 162 289 180 303 3 3 13 14 21 26 64 94 126 143 144 114z m205 0 c0 -13 -100 -115 -127 -129 -26 -13 -43 -14 -43 -2 0 17 133 141 151 141 11 0 19 -4 19 -10z m193 -18 l18 -7 -13 -16 c-27 -33 -117 -89 -142 -89 -35 0 -33 14 6 42 18 12 42 31 53 41 11 10 25 22 30 27 12 11 24 11 48 2z m1140 -18 c23 -15 44 -31 45 -35 2 -5 9 -9 15 -9 18 -1 146 -108 203 -170 86 -93 165 -206 215 -307 12 -24 25 -43 29 -43 4 0 13 -21 20 -47 7 -27 17 -52 21 -57 5 -6 9 -20 9 -32 0 -13 4 -25 9 -28 12 -8 19 -63 10 -77 -12 -19 -26 -2 -38 47 -21 83 -100 249 -157 329 -130 182 -219 251 -372 289 -35 9 -66 16 -68 16 -2 0 -4 34 -4 75 0 44 4 75 10 75 6 0 29 -12 53 -26z m722 -40 c6 -11 20 -34 33 -51 12 -17 22 -35 22 -40 0 -5 8 -18 18 -29 9 -10 23 -37 31 -59 7 -22 22 -52 32 -67 11 -14 19 -33 19 -41 0 -8 7 -20 15 -27 8 -7 15 -21 15 -31 0 -10 5 -21 10 -24 6 -3 10 -17 10 -30 0 -13 5 -27 10 -30 6 -3 10 -19 10 -36 0 -16 4 -29 9 -29 5 0 11 -15 14 -32 3 -18 10 -51 17 -73 6 -22 14 -51 17 -63 l6 -24 -19 4 c-13 2 -20 13 -22 33 -5 45 -22 56 -22 14 0 -19 5 -40 12 -47 l12 -12 -21 0 -20 0 -18 68 c-10 37 -22 71 -26 76 -5 6 -9 18 -9 28 0 16 -27 85 -51 130 -5 10 -9 27 -9 38 0 11 -4 20 -10 20 -5 0 -10 6 -10 13 0 22 -68 146 -124 226 -39 55 -44 71 -21 71 13 0 75 -79 75 -96 0 -4 6 -15 14 -23 21 -23 69 -119 85 -168 8 -24 18 -43 23 -43 4 0 8 -6 8 -14 0 -8 16 -51 35 -96 19 -45 35 -95 35 -111 0 -19 4 -28 11 -23 18 11 -4 112 -40 187 -11 24 -21 51 -21 60 0 9 -3 17 -8 17 -4 0 -13 15 -20 33 -19 46 -36 81 -42 87 -3 3 -18 30 -33 60 -38 75 -51 97 -70 118 -20 22 -23 66 -4 60 6 -3 17 -13 22 -24z m-815 -64 c0 -5 -7 -10 -15 -10 -8 0 -15 5 -15 10 0 6 7 10 15 10 8 0 15 -4 15 -10z m-1425 -32 c-13 -56 -8 -294 6 -316 l13 -20 -45 -90 c-44 -91 -59 -109 -59 -72 0 24 18 64 47 109 13 19 23 42 23 53 0 31 -31 18 -54 -23 -35 -61 -53 -84 -61 -77 -6 6 66 151 86 173 15 15 11 55 -6 55 -8 0 -15 -5 -15 -11 0 -6 -11 -25 -24 -42 -13 -18 -41 -65 -61 -104 -20 -41 -42 -73 -50 -73 -8 0 -15 2 -15 5 0 13 110 206 155 273 27 40 32 62 13 62 -21 0 -127 -161 -177 -270 -18 -38 -49 -76 -56 -68 -11 10 63 153 143 277 64 100 131 190 140 191 2 0 0 -14 -3 -32z m2795 -84 c12 -31 13 -44 2 -44 -9 0 -32 44 -32 60 0 20 21 9 30 -16z m-559 -24 c5 0 9 -7 9 -16 0 -9 8 -28 19 -42 33 -47 91 -193 91 -230 0 -13 4 -20 10 -17 6 3 10 -1 10 -10 0 -20 28 -113 41 -137 12 -24 11 -38 -2 -38 -17 0 -38 32 -39 57 0 12 -4 25 -10 28 -5 3 -10 17 -10 29 0 13 -7 40 -15 60 -8 20 -16 39 -16 43 0 5 -7 22 -14 39 -7 17 -16 42 -20 55 -4 13 -10 26 -14 29 -12 10 -31 50 -31 65 0 8 -3 15 -7 15 -10 0 -33 49 -33 70 0 23 14 35 18 16 2 -9 8 -16 13 -16z m-19 -86 c14 -27 27 -56 27 -65 1 -9 7 -22 15 -29 8 -6 25 -42 37 -78 12 -37 25 -71 30 -77 5 -5 9 -20 9 -35 0 -14 7 -44 15 -68 9 -24 13 -48 9 -53 -9 -16 -29 -4 -30 17 -2 53 -58 205 -125 336 -21 42 -39 84 -39 93 0 29 24 10 52 -41z m-3325 -9 c20 -8 33 -18 30 -21 -8 -8 -77 16 -77 27 0 12 5 12 47 -6z m3958 -27 c11 -32 13 -68 4 -74 -14 -8 -16 -5 -24 44 -5 28 -3 42 4 42 7 0 14 -6 16 -12z m-45 -62 l-1 -31 -14 25 c-19 33 -19 51 0 44 9 -4 15 -19 15 -38z m-4060 -33 c-1 -5 -9 -33 -20 -63 -11 -30 -19 -68 -20 -83 0 -19 -4 -27 -12 -24 -29 9 4 177 34 177 10 0 18 -3 18 -7z m3480 -32 c0 -6 5 -11 10 -11 6 0 10 -8 10 -18 0 -10 9 -36 20 -57 11 -22 23 -57 27 -77 3 -21 9 -38 13 -38 4 0 8 -11 8 -25 0 -42 -27 -29 -39 20 -6 25 -15 48 -20 51 -5 3 -9 18 -9 35 0 16 -4 29 -10 29 -5 0 -10 6 -10 14 0 7 -7 27 -15 42 -8 16 -15 39 -15 52 l0 23 15 -15 c8 -8 15 -19 15 -25z m-2171 -62 c-17 -30 -35 -61 -40 -69 -5 -8 -16 -31 -25 -50 -8 -19 -24 -53 -34 -76 -11 -23 -20 -48 -20 -57 0 -9 -5 -19 -11 -23 -9 -5 -11 6 -7 38 7 60 109 267 146 296 28 21 24 -3 -9 -59z m294 -62 c1 -88 -1 -117 -10 -117 -10 0 -13 32 -13 127 0 164 20 155 23 -10z m-183 113 c0 -5 -3 -10 -8 -10 -4 0 -18 -20 -31 -45 -13 -25 -28 -45 -32 -45 -5 0 -9 -6 -9 -14 0 -8 -13 -38 -28 -67 -46 -89 -72 -167 -66 -198 4 -16 1 -32 -5 -35 -6 -4 -11 -23 -11 -42 0 -19 -4 -34 -8 -34 -12 0 -32 22 -32 34 0 6 4 4 10 -4 12 -19 16 -13 23 35 4 22 4 34 1 28 -3 -7 -10 -13 -15 -13 -9 0 -3 49 13 95 13 38 81 188 88 195 3 3 13 21 24 40 10 19 24 40 30 45 7 6 15 18 19 28 7 18 37 24 37 7z m2029 -41 c6 -18 11 -40 11 -50 0 -11 3 -19 8 -19 9 0 32 -72 32 -100 0 -11 5 -20 11 -20 5 0 7 -4 4 -10 -11 -18 -35 -11 -35 10 0 11 -4 28 -9 38 -6 9 -21 51 -35 92 -13 41 -28 83 -32 94 l-7 18 20 -11 c12 -6 26 -25 32 -42z m504 18 c7 -21 6 -36 -4 -53 l-13 -25 12 -69 c7 -38 13 -75 14 -82 2 -7 -4 -13 -12 -13 -9 0 -20 24 -32 70 -21 78 -20 122 1 117 10 -2 12 3 6 20 -3 13 -9 34 -12 46 l-6 24 18 -4 c10 -1 23 -16 28 -31z m195 0 c4 -30 -12 -37 -22 -9 -3 9 -9 23 -12 30 -4 10 0 13 12 10 12 -2 20 -13 22 -31z m-4092 -5 c-2 -10 -7 -29 -10 -43 -3 -14 -13 -26 -21 -26 l-16 0 7 31 c9 43 23 68 35 60 5 -3 8 -13 5 -22z m4039 6 c4 -13 9 -34 11 -48 l3 -25 -11 20 c-6 11 -17 24 -25 28 -17 11 -17 47 1 47 7 0 17 -10 21 -22z m-2615 6 c0 -4 -10 -23 -22 -43 -61 -97 -99 -169 -107 -205 -8 -36 -26 -44 -34 -16 -6 22 60 160 94 196 10 11 19 24 19 29 0 11 31 45 42 45 4 0 8 -3 8 -6z m-1354 -29 c-3 -13 -11 -37 -18 -52 l-12 -28 -3 26 c-2 14 1 37 6 52 13 34 36 36 27 2z m70 -37 c-4 -24 -15 -72 -26 -108 -10 -36 -22 -86 -25 -112 l-7 -46 21 -11 c24 -13 25 -21 10 -73 -7 -28 -15 -38 -30 -38 l-20 0 6 46 c4 36 1 51 -11 65 -19 21 -15 70 12 142 9 23 19 60 24 82 13 59 28 95 41 95 8 0 9 -13 5 -42z m1369 12 c0 -36 -29 -33 -33 3 l-3 29 18 -4 c11 -2 18 -12 18 -28z m1011 -7 c60 -39 113 -163 69 -163 -8 0 -15 3 -16 8 -4 45 -24 84 -62 124 -19 20 -32 39 -29 42 8 8 10 8 38 -11z m-1086 -83 l0 -80 -18 0 c-21 0 -25 43 -10 113 15 71 28 57 28 -33z m994 59 c14 -11 33 -34 41 -49 l15 -29 -14 -28 c-8 -15 -20 -43 -27 -60 -6 -18 -16 -33 -21 -33 -15 0 -4 100 12 110 15 9 -12 66 -44 92 l-21 18 16 0 c9 0 28 -9 43 -21z m-274 -80 l0 -59 -20 0 -20 0 0 49 c0 61 7 81 26 74 10 -4 14 -22 14 -64z m68 -4 c-1 -22 -4 -44 -7 -50 -8 -16 -17 34 -12 77 5 53 22 29 19 -27z m102 -1 c0 -34 -4 -53 -10 -49 -5 3 -10 28 -10 56 0 27 5 49 10 49 6 0 10 -25 10 -56z m1794 30 c8 -29 3 -39 -13 -29 -13 8 -15 55 -2 55 5 0 12 -12 15 -26z m-43 -18 l8 -28 -25 -23 c-13 -12 -24 -27 -24 -34 0 -16 -17 -14 -23 3 -3 8 1 20 9 26 8 7 14 30 14 52 l0 39 17 -3 c9 -2 20 -16 24 -32z m-921 -26 c0 -29 -4 -40 -15 -40 -16 0 -20 35 -9 64 11 29 24 16 24 -24z m236 -6 c11 -27 12 -40 4 -48 -8 -8 -13 -7 -20 4 l-10 15 0 -16 c0 -16 -28 -34 -37 -25 -3 2 -7 23 -10 45 -6 43 10 58 22 21 3 -11 11 -20 16 -20 6 0 7 5 4 10 -6 10 2 50 11 50 3 0 12 -16 20 -36z m-2608 -92 l-3 -27 -12 20 c-9 16 -9 30 0 59 l12 38 3 -31 c2 -17 2 -44 0 -59z m3160 -45 c19 -21 9 -35 -13 -17 -8 7 -14 27 -14 44 1 21 3 25 6 11 3 -11 12 -28 21 -38z m-2293 -22 c14 -13 25 -36 25 -50 l0 -25 -40 0 -40 0 0 43 c0 64 15 73 55 32z m2025 -31 c18 -25 30 -47 28 -49 -12 -10 -50 20 -63 51 -18 43 -18 44 -5 44 5 0 23 -21 40 -46z m-76 20 c10 -26 7 -56 -6 -52 -13 5 -29 53 -20 62 10 10 20 6 26 -10z m180 -31 c27 -37 32 -49 20 -51 -19 -5 -48 21 -74 64 l-19 34 19 0 c12 0 34 -19 54 -47z m-2224 1 l0 -35 -17 3 c-17 4 -19 21 -8 56 9 26 25 11 25 -24z m-1723 -17 l16 6 -6 -24 c-12 -52 -29 -190 -24 -196 12 -12 92 -21 103 -12 6 5 15 41 18 80 5 47 11 69 19 66 13 -4 12 -121 -2 -229 l-6 -53 -65 0 -65 0 -3 -22 c-4 -26 -6 -25 66 -28 48 -2 72 -9 61 -19 -2 -2 -30 -6 -62 -9 -31 -4 -62 -9 -69 -13 -15 -9 -2 -175 15 -186 11 -8 92 -3 145 8 38 8 24 39 -18 39 -43 0 -50 8 -50 63 l0 42 28 0 c16 0 36 6 46 13 l18 13 -17 18 -17 17 15 12 c11 9 17 39 21 107 10 175 19 235 38 270 l20 35 -6 -105 c-3 -58 -9 -139 -12 -181 l-6 -75 25 -16 24 -17 -3 -48 c-2 -26 -7 -49 -11 -51 -5 -1 -14 -6 -22 -11 l-14 -9 12 -148 c7 -81 15 -152 17 -156 3 -4 14 -8 24 -8 13 0 22 -11 29 -37 15 -52 14 -59 -10 -82 l-21 -20 22 -93 c12 -51 27 -114 33 -140 l11 -47 26 -6 c43 -10 75 -90 45 -115 -16 -13 -20 -50 -7 -65 5 -6 26 -50 47 -100 47 -110 51 -115 85 -115 l27 0 18 -40 18 -40 -12 -26 -12 -27 61 -91 c33 -50 69 -101 80 -114 l19 -23 21 11 c21 11 22 11 63 -36 l18 -21 -11 -28 -10 -27 72 -77 c95 -100 116 -117 131 -102 30 30 87 -13 87 -65 0 -30 11 -46 50 -69 10 -5 45 -29 79 -52 69 -48 76 -50 97 -28 20 19 22 19 61 -5 25 -15 31 -25 30 -47 l-2 -27 35 -18 c39 -19 106 -48 159 -69 l34 -13 15 22 c25 38 92 19 92 -26 0 -11 4 -23 8 -26 8 -5 116 -27 193 -40 l36 -6 17 25 c26 39 89 33 97 -10 l4 -20 75 -3 c115 -5 157 4 172 36 10 21 21 28 50 30 l36 3 7 -21 7 -21 36 7 c46 8 183 43 194 50 4 3 8 14 8 24 0 11 12 27 26 37 l26 17 33 -18 33 -18 71 36 c40 20 78 36 85 36 19 0 42 30 38 51 -2 10 10 26 29 40 l32 22 18 -11 c10 -7 23 -12 29 -12 12 0 180 118 181 128 6 63 36 96 78 87 l26 -5 83 80 82 81 -3 37 -4 37 -27 3 -27 3 -80 -77 -79 -78 0 -32 c0 -41 -21 -58 -65 -51 l-34 6 -83 -60 c-51 -37 -87 -70 -93 -87 -5 -15 -14 -33 -18 -39 -10 -16 -49 -17 -64 -2 -8 8 -32 2 -90 -25 -120 -56 -127 -60 -133 -86 -4 -15 -17 -29 -34 -35 l-28 -10 -13 18 c-18 25 -23 24 -208 -24 -26 -7 -37 -15 -37 -28 0 -12 -11 -23 -31 -30 -43 -15 -44 -15 -58 15 l-12 27 -106 -5 -106 -5 -18 -21 c-25 -32 -76 -30 -89 3 -11 30 -6 28 -133 50 l-98 17 -22 -19 c-28 -25 -71 -17 -75 15 -3 20 -49 62 -69 62 -4 0 -43 14 -85 32 l-78 31 -19 -17 -19 -17 -32 16 -32 16 6 24 6 24 -52 39 c-29 21 -77 53 -106 71 l-53 34 -25 -13 -24 -13 -25 23 -26 24 7 28 6 29 -90 89 -89 90 -29 -5 -29 -5 -24 30 -23 31 17 18 16 19 -73 111 -73 111 -28 0 c-50 0 -82 57 -55 99 l12 19 -22 53 c-11 30 -34 86 -50 124 l-29 70 -29 5 -29 5 -15 42 -14 42 18 19 17 20 -15 73 c-9 41 -22 100 -31 132 -8 32 -15 60 -15 62 0 3 -13 11 -29 19 -38 20 -48 79 -17 110 l20 20 22 -48 c12 -27 38 -65 57 -85 26 -27 36 -48 41 -84 6 -53 49 -204 72 -254 8 -17 14 -37 14 -45 0 -8 13 -41 29 -74 15 -32 50 -103 76 -157 88 -183 229 -378 380 -526 92 -91 141 -134 185 -164 14 -9 48 -32 75 -52 28 -20 64 -42 80 -51 17 -8 59 -30 95 -50 194 -105 475 -174 710 -174 194 1 358 32 576 111 45 16 86 29 93 29 6 0 11 4 11 9 0 5 21 18 48 30 75 34 224 126 230 142 2 5 10 9 18 9 8 0 17 7 20 15 3 8 14 17 24 20 10 3 21 13 24 22 l6 16 -22 -16 c-13 -9 -68 -47 -123 -83 -55 -37 -102 -70 -105 -73 -3 -3 -9 -6 -15 -6 -12 -1 -108 -47 -115 -56 -3 -4 -26 -14 -51 -22 -25 -9 -65 -25 -90 -36 -24 -11 -72 -25 -106 -32 -35 -7 -63 -16 -63 -20 0 -22 -486 -37 -595 -19 -108 18 -264 60 -325 87 -164 75 -291 145 -334 185 -11 10 -23 18 -27 18 -33 0 -291 251 -384 375 -58 78 -115 161 -115 170 0 3 -15 28 -34 57 -49 77 -102 193 -176 383 -20 50 -30 84 -41 140 -7 33 -16 64 -21 70 -16 18 -9 55 11 55 20 0 32 -24 52 -100 13 -52 55 -184 69 -217 6 -13 14 -33 19 -45 18 -46 125 -263 131 -268 4 -3 15 -21 25 -40 10 -19 21 -37 24 -40 3 -3 12 -17 20 -32 8 -15 21 -36 30 -45 9 -10 36 -45 61 -78 103 -139 353 -361 486 -432 158 -84 308 -146 380 -158 21 -3 48 -10 59 -15 91 -40 586 -40 680 0 11 5 34 11 50 15 70 14 82 18 120 35 22 9 51 21 65 25 14 4 31 13 39 19 8 6 26 16 40 23 14 6 19 12 11 12 -8 1 -26 -5 -40 -12 -14 -7 -50 -22 -80 -32 -30 -11 -59 -22 -65 -26 -5 -3 -35 -12 -65 -19 -30 -7 -95 -23 -145 -36 l-90 -22 -170 -1 -170 -1 -90 21 c-49 11 -107 23 -128 26 -20 3 -40 9 -43 14 -3 5 -16 9 -30 9 -13 0 -24 4 -24 9 0 5 -15 12 -33 15 -18 3 -49 15 -70 26 -20 11 -43 20 -51 20 -20 0 -220 123 -304 187 -97 74 -276 258 -351 361 -34 45 -61 86 -61 92 0 5 -6 13 -12 17 -14 8 -28 33 -114 203 -30 58 -54 111 -54 118 0 6 -4 12 -10 12 -5 0 -10 8 -10 18 0 9 -20 77 -45 151 -49 145 -54 177 -29 167 9 -3 20 -6 25 -6 5 0 9 -6 9 -14 0 -43 115 -353 161 -436 5 -8 17 -33 28 -55 33 -65 74 -131 126 -201 16 -23 39 -55 50 -70 19 -26 100 -116 170 -188 17 -17 55 -51 85 -76 30 -24 62 -50 70 -57 35 -30 78 -59 113 -77 20 -11 37 -23 37 -28 0 -4 6 -8 13 -8 7 0 28 -10 47 -23 73 -48 293 -126 415 -147 39 -6 86 -16 106 -21 46 -12 307 -12 345 0 16 5 73 17 126 27 58 10 93 21 85 26 -7 5 -1 8 18 8 109 1 411 155 580 296 126 106 216 194 197 194 -6 0 -41 -30 -79 -66 -87 -85 -183 -163 -269 -219 -73 -48 -272 -150 -326 -166 -105 -33 -263 -69 -300 -69 l-28 0 7 45 6 45 -18 20 -18 20 16 18 c25 28 21 74 -8 102 l-25 23 0 -16 c0 -20 -11 -22 -28 -5 l-13 13 -24 -30 c-29 -35 -32 -82 -7 -101 l17 -13 -19 -35 -19 -36 11 -26 c7 -13 12 -29 12 -34 0 -13 -159 -13 -234 1 -102 17 -302 66 -338 82 -134 60 -183 85 -263 135 -49 31 -92 59 -95 62 -3 3 -23 19 -45 35 -22 17 -62 50 -88 75 l-48 44 18 7 c31 13 37 10 86 -35 42 -39 140 -112 215 -158 145 -91 435 -189 552 -187 l55 2 -64 8 c-104 13 -289 74 -420 138 -157 76 -371 240 -371 283 0 30 25 20 81 -32 30 -27 57 -50 60 -50 3 0 19 -11 35 -25 16 -14 41 -31 57 -38 15 -6 27 -15 27 -18 0 -9 218 -119 236 -119 8 0 22 -4 32 -10 23 -12 94 -34 162 -50 30 -7 64 -15 75 -19 11 -4 34 -7 50 -7 l30 1 0 62 c0 66 11 88 35 73 l15 -9 -2 -83 c-2 -62 -7 -86 -18 -95 -19 -13 -3 -28 21 -19 l16 6 -3 102 -3 103 20 0 19 0 3 -77 c2 -43 6 -78 10 -78 4 0 15 9 24 20 l17 19 -20 14 c-21 15 -17 42 8 51 l15 6 -23 19 -24 19 32 29 c17 15 40 33 50 40 l18 11 -20 15 -19 15 13 16 c8 10 29 16 52 16 59 0 57 19 -3 22 l-53 3 0 20 0 20 45 5 45 5 -22 8 c-13 5 -27 6 -31 3 -5 -3 -17 1 -28 8 l-18 14 13 16 c7 9 25 16 40 16 14 0 33 5 41 11 11 7 7 9 -20 8 -66 -2 -72 0 -68 23 l3 23 44 7 c24 4 46 10 50 13 3 3 -13 3 -35 0 -30 -5 -43 -3 -53 9 -22 26 -6 46 36 46 21 0 45 5 53 10 11 7 -2 10 -43 10 l-58 0 3 22 c2 14 12 24 28 28 l25 6 -22 8 c-50 16 -18 36 58 36 l49 0 1 -22 c0 -13 1 -117 2 -231 l2 -209 25 -20 c18 -15 26 -33 31 -71 l6 -52 2 45 c1 25 6 52 11 60 l9 15 21 -13 c11 -7 20 -8 20 -3 0 5 15 11 33 14 66 11 143 29 182 42 50 16 140 61 157 78 7 7 28 20 47 29 21 10 29 18 21 23 -6 4 -19 0 -28 -8 -22 -19 -130 -77 -143 -77 -6 0 -17 -7 -25 -15 -19 -19 -64 -20 -64 -1 0 18 14 29 85 65 69 35 60 40 -17 11 -29 -11 -56 -16 -60 -12 -15 15 1 37 35 51 81 33 217 114 225 134 6 13 82 48 92 42 19 -12 -10 -44 -93 -101 -45 -31 -92 -60 -105 -65 -13 -5 -20 -14 -17 -20 5 -7 13 -5 24 5 10 9 24 16 32 16 8 0 30 13 49 30 19 16 38 29 42 30 4 0 19 11 34 25 28 26 49 31 72 16 10 -6 -3 -21 -47 -55 -34 -25 -66 -46 -71 -46 -6 0 -10 -4 -10 -10 0 -25 39 -1 143 89 49 42 93 76 99 76 26 0 17 -28 -19 -63 -65 -63 -133 -121 -133 -114 0 4 -4 2 -8 -3 -9 -13 -135 -95 -185 -120 -28 -15 -34 -21 -20 -24 9 -2 19 2 21 8 2 6 11 11 20 11 10 0 28 9 42 20 14 11 31 20 38 20 6 0 12 4 12 8 0 5 10 13 23 19 12 6 41 26 63 44 23 19 54 43 70 54 15 11 41 35 57 52 29 32 60 42 71 25 6 -10 -55 -70 -161 -155 -77 -63 -119 -91 -188 -125 -16 -8 -41 -23 -55 -32 -14 -10 -42 -23 -62 -29 -21 -7 -38 -16 -38 -20 0 -5 -15 -13 -32 -19 l-33 -10 23 -1 c13 -1 40 8 60 18 20 11 54 27 75 36 20 9 37 20 37 25 0 6 8 10 18 10 10 0 27 8 38 18 10 9 31 22 45 28 39 18 159 110 152 118 -3 3 1 6 9 6 17 0 228 205 228 221 0 12 27 11 35 -1 4 -6 -1 -22 -9 -35 -9 -14 -12 -25 -6 -25 5 0 10 5 10 10 0 6 11 10 25 10 33 0 32 -11 -10 -56 -32 -36 -42 -54 -30 -54 8 0 78 80 104 119 14 20 28 38 31 41 8 6 60 83 75 111 5 11 13 19 17 19 5 0 8 6 8 14 0 8 3 16 8 18 10 4 43 78 34 78 -4 0 -16 -18 -26 -40 -10 -22 -27 -47 -38 -56 -10 -10 -18 -23 -18 -31 0 -7 -9 -13 -21 -13 l-21 0 7 27 c3 15 12 32 20 37 11 9 75 111 75 119 0 2 -19 3 -42 2 l-43 -1 -32 -54 c-17 -30 -47 -75 -65 -100 -18 -24 -41 -57 -50 -72 -22 -34 -36 -36 -44 -4 -4 17 3 32 26 57 55 59 60 65 60 77 0 7 5 12 10 12 6 0 10 9 10 21 0 11 3 18 8 16 4 -3 15 10 24 29 10 19 13 34 8 34 -6 0 -14 -10 -19 -23 -5 -13 -16 -29 -25 -36 -9 -7 -16 -17 -16 -22 0 -5 -7 -17 -15 -26 -8 -10 -28 -37 -45 -60 -18 -26 -38 -43 -50 -43 -28 0 -26 7 25 75 25 33 48 68 51 77 3 10 10 18 15 18 5 0 12 8 16 18 4 9 18 35 33 57 32 48 43 75 30 75 -6 0 -10 -6 -10 -13 0 -8 -9 -22 -20 -32 -11 -10 -20 -22 -20 -26 0 -14 -121 -189 -131 -189 -5 0 -9 -5 -9 -10 0 -6 -15 -27 -32 -46 -18 -20 -37 -42 -41 -50 -4 -8 -15 -14 -22 -14 -24 0 -18 49 8 71 12 10 17 18 11 19 -6 0 -17 -7 -24 -15 -13 -16 -50 -21 -50 -7 0 7 102 137 119 152 13 11 58 78 76 113 11 20 23 37 27 37 5 0 8 6 8 14 0 7 11 29 25 49 13 20 31 56 39 79 8 24 15 39 16 33 0 -5 10 10 21 35 11 24 25 48 32 52 7 4 8 8 2 8 -5 0 -3 5 5 10 16 10 70 14 70 5 0 -4 -16 -22 -35 -42 -19 -20 -35 -41 -35 -46 0 -6 -7 -18 -15 -27 -8 -9 -17 -32 -20 -51 l-5 -34 11 30 c13 31 15 35 51 76 13 15 36 43 53 63 18 21 39 36 52 36 29 0 37 -15 18 -32 -21 -17 -36 -34 -120 -133 -46 -55 -26 -59 25 -5 28 29 50 56 50 59 0 3 25 32 56 64 62 65 92 82 112 61 9 -10 39 -14 103 -14 l91 0 5 19 c6 22 56 31 182 31 l86 0 24 -19 c16 -12 22 -24 18 -35 -7 -18 -32 -22 -42 -6 -7 11 -208 14 -218 3 -4 -4 -53 -8 -110 -9 -144 -4 -158 -8 -211 -60 -25 -25 -46 -48 -46 -50 0 -3 -24 -28 -53 -57 -29 -29 -61 -70 -71 -91 -20 -42 -15 -62 6 -23 28 53 212 247 233 247 8 0 16 6 19 13 4 7 8 8 11 2 5 -11 216 -2 255 10 42 13 159 6 186 -11 l26 -17 -7 -36 c-4 -20 -15 -61 -24 -91 -10 -30 -24 -75 -31 -100 -7 -25 -16 -54 -20 -65 -4 -11 -14 -36 -21 -55 -7 -19 -23 -60 -36 -90 -14 -30 -32 -73 -41 -94 -20 -46 -100 -206 -129 -256 -86 -151 -184 -289 -287 -408 -63 -73 -317 -322 -327 -322 -4 0 -19 -10 -33 -22 -63 -59 -255 -182 -366 -235 -52 -25 -104 -50 -114 -55 -11 -6 -51 -21 -89 -34 -38 -13 -75 -28 -81 -33 -6 -4 -24 -11 -41 -14 -16 -3 -59 -12 -95 -21 -161 -40 -200 -45 -200 -26 0 6 13 10 28 10 16 0 42 6 58 14 16 8 61 21 99 30 108 23 164 46 171 68 9 28 -16 149 -32 155 -18 7 -102 -22 -125 -43 -12 -11 -22 -13 -35 -6 -21 12 -79 -1 -103 -22 -10 -9 -25 -14 -35 -10 -12 5 -18 -1 -22 -23 l-6 -29 -54 -10 -54 -10 0 27 c0 15 -6 32 -14 38 l-14 12 -7 -30 c-9 -42 -24 -51 -81 -49 l-50 2 4 25 c7 32 -20 51 -74 51 -56 0 -90 -14 -97 -39 -6 -23 -22 -26 -61 -11 l-26 10 0 32 0 32 -17 -17 c-11 -11 -19 -41 -24 -88 -7 -84 -22 -105 -49 -71 -11 13 -16 30 -13 38 4 11 0 14 -18 10 -13 -3 -50 -7 -83 -11 -32 -3 -67 -10 -77 -16 -13 -6 -19 -6 -19 1 0 5 6 10 13 10 8 0 19 10 25 23 19 38 55 167 49 173 -14 14 -35 -7 -52 -53 -32 -87 -56 -88 -31 0 18 63 20 77 8 77 -9 0 -30 -43 -53 -105 l-10 -30 -10 16 c-6 11 -4 29 7 54 8 20 14 49 12 64 l-3 26 -100 52 c-55 29 -107 55 -115 59 -8 3 -28 13 -44 21 l-29 16 -24 -27 c-12 -15 -25 -39 -29 -54 -3 -15 -10 -37 -15 -50 -5 -13 -9 -27 -9 -33 0 -15 91 -69 117 -69 13 0 23 -4 23 -10 0 -5 6 -10 14 -10 13 0 32 32 55 93 11 29 25 33 65 17 16 -6 26 -17 26 -30 0 -11 5 -20 10 -20 16 0 12 -59 -7 -90 l-16 -28 16 -16 c8 -9 23 -16 31 -16 9 0 16 -4 16 -9 0 -5 15 -12 33 -15 l32 -7 -17 -10 c-45 -25 -329 90 -512 208 -241 155 -487 404 -650 658 -32 50 -66 101 -75 115 -28 43 -150 294 -177 366 -93 250 -141 444 -185 748 -12 87 -12 514 0 621 9 77 27 173 38 205 4 10 7 11 10 3 2 -7 11 -9 20 -6z m53 -19 c0 6 5 12 10 12 11 0 14 -90 4 -138 -4 -21 -11 -29 -20 -25 -11 4 -14 23 -12 77 2 39 -1 80 -5 91 -5 11 -2 9 7 -5 8 -14 15 -19 16 -12z m125 12 c-3 -5 -18 -7 -33 -5 -15 2 -33 4 -39 4 -7 1 -13 4 -13 9 0 4 20 6 45 4 25 -2 43 -8 40 -12z m165 -26 c0 -8 -4 -14 -10 -14 -5 0 -10 9 -10 21 0 11 5 17 10 14 6 -3 10 -13 10 -21z m356 -73 c-13 -141 -24 -157 -25 -35 -1 110 3 129 22 117 6 -3 7 -35 3 -82z m3668 48 c25 -12 41 -37 31 -47 -3 -3 -19 4 -35 16 -16 12 -34 22 -39 22 -5 0 -13 5 -16 10 -8 14 28 13 59 -1z m-274 -10 c0 -11 -21 -11 -39 0 -9 6 -5 9 13 9 14 0 26 -4 26 -9z m-760 -22 c14 4 20 0 20 -11 0 -9 -8 -16 -20 -16 l-20 0 0 -45 0 -45 18 0 c10 0 21 -3 25 -6 11 -11 -5 -34 -24 -34 -14 0 -19 -7 -19 -28 0 -16 -3 -32 -6 -35 -10 -10 -44 12 -44 28 0 7 -5 15 -12 17 -10 4 -9 14 1 49 17 57 55 142 59 130 2 -5 12 -7 22 -4z m-2574 -76 c-3 -36 -9 -119 -12 -183 -4 -65 -8 -118 -10 -118 -37 0 -41 34 -24 211 15 155 18 169 36 162 l16 -6 -6 -66z m567 32 c27 -37 32 -63 12 -70 -21 -7 -43 23 -50 65 -4 23 -3 42 2 42 4 -1 21 -17 36 -37z m3017 18 c0 -5 11 -12 24 -15 22 -5 42 -33 32 -44 -3 -2 -17 5 -33 16 -15 10 -38 23 -51 26 -12 4 -20 12 -17 17 8 12 45 12 45 0z m-2622 -39 c4 -38 -14 -43 -28 -6 -14 36 -12 46 8 42 11 -2 18 -14 20 -36z m1800 26 c7 -7 12 -20 12 -29 0 -10 4 -20 8 -23 5 -3 8 4 8 16 -1 12 5 23 12 25 6 3 12 -2 12 -11 0 -9 5 -16 10 -16 6 0 10 -11 10 -25 0 -31 -2 -31 -67 -3 l-53 23 0 28 c0 29 25 38 48 15z m116 -30 c3 -7 7 -28 10 -46 l6 -33 -17 3 c-17 3 -37 71 -25 83 9 9 23 5 26 -7z m82 -39 c28 -45 26 -54 -8 -46 -20 5 -48 52 -48 80 0 22 33 1 56 -34z m-2902 -127 c1 -151 -2 -163 -33 -143 l-14 9 7 138 c8 143 10 158 29 151 7 -2 11 -55 11 -155z m2972 150 c6 -4 17 -18 24 -31 l12 -24 -13 -7 c-7 -5 -17 -6 -23 -4 -11 4 -36 50 -36 66 0 10 21 10 36 0z m579 -21 c17 -10 31 -25 33 -34 5 -23 -10 -21 -38 3 -13 11 -31 20 -42 20 -20 0 -24 16 -5 23 18 8 19 7 52 -12z m-3486 -131 c-1 -80 -2 -78 31 -113 17 -17 48 -52 71 -76 l40 -44 160 5 c88 3 161 2 164 -1 15 -25 -20 -32 -188 -38 l-176 -6 -59 59 c-88 88 -86 81 -75 238 l5 80 14 -25 c8 -13 14 -49 13 -79z m461 60 c0 -15 -6 -19 -25 -18 -29 3 -35 34 -7 41 24 5 32 -1 32 -23z m3028 0 c32 -20 43 -40 20 -40 -7 0 -22 7 -32 15 -11 8 -28 15 -38 15 -21 0 -24 16 -5 23 19 8 20 8 55 -13z m-248 -5 c0 -8 -4 -15 -9 -15 -5 0 -16 -3 -25 -6 -10 -4 -16 -1 -16 9 0 15 14 25 38 26 6 1 12 -6 12 -14z m-3178 -62 c11 -10 47 -47 82 -82 l62 -64 90 2 c49 1 108 4 130 7 46 6 66 -9 43 -31 -10 -10 -55 -14 -168 -16 l-154 -3 -19 25 c-11 13 -35 41 -55 62 -24 25 -37 50 -40 77 -6 44 1 49 29 23z m412 8 c3 -4 0 -16 -7 -25 -9 -13 -20 -16 -39 -11 -31 8 -28 32 5 38 12 2 25 5 29 6 4 0 9 -3 12 -8z m3006 0 c0 -5 9 -13 20 -16 11 -4 20 -15 20 -26 l0 -20 -27 15 c-16 9 -41 21 -58 27 l-30 11 20 8 c28 12 55 12 55 1z m-245 -21 l0 -15 -115 -2 -115 -2 50 15 c28 8 64 13 80 11 17 -3 39 -1 50 4 28 11 50 6 50 -11z m-3736 -10 l17 0 -1 -102 -2 -103 -25 -60 -26 -60 -6 35 c-3 19 -7 60 -9 90 l-2 55 -22 10 -23 10 0 43 0 44 20 5 c10 3 22 14 26 25 3 12 11 17 21 14 8 -3 22 -6 32 -6z m753 -28 l27 -25 91 6 90 6 0 -18 0 -18 -121 -2 -120 -1 -40 39 c-21 22 -39 42 -39 45 0 15 89 -10 112 -32z m2268 -12 l42 -50 -31 0 c-21 0 -34 6 -38 18 -4 9 -15 28 -25 41 -47 62 -1 54 52 -9z m130 30 c4 -8 16 -32 26 -53 11 -21 27 -47 37 -57 9 -11 17 -23 17 -27 1 -4 10 -19 21 -32 19 -24 53 -30 99 -19 9 2 16 -6 18 -18 l3 -22 -75 -1 -75 -1 -47 62 c-26 35 -55 70 -63 79 -9 9 -23 25 -31 36 -8 10 -21 26 -28 35 -8 10 -11 22 -7 28 10 16 96 8 105 -10z m-3067 -57 c-1 -38 -2 -73 -2 -79 -1 -7 -10 -14 -22 -17 l-20 -5 2 84 3 84 20 0 21 0 -2 -67z m72 14 c0 -55 -8 -77 -28 -77 -8 0 -11 19 -9 65 l4 65 16 0 17 0 0 -53z m73 1 l-3 -53 -22 -3 -22 -3 2 55 2 56 23 0 24 0 -4 -52z m65 12 c-1 -57 -2 -60 -23 -60 l-21 0 2 50 3 51 20 -3 20 -3 -1 -35z m575 33 c-16 -2 -40 -2 -55 0 -16 2 -3 4 27 4 30 0 43 -2 28 -4z m470 -63 c2 -35 -1 -66 -5 -70 -4 -4 -34 -5 -65 -3 l-58 5 0 19 0 18 48 3 47 3 -3 20 c-2 11 -9 23 -15 27 -9 6 -9 8 0 8 6 0 15 9 18 21 13 39 30 13 33 -51z m1910 60 c6 0 12 -4 12 -10 0 -5 14 -32 31 -60 l31 -50 30 0 c23 0 29 -4 26 -17 -2 -14 -13 -18 -46 -18 l-42 -1 -24 26 c-29 34 -76 113 -76 130 0 8 8 10 23 6 12 -3 28 -6 35 -6z m102 -21 l11 -20 187 2 c134 2 187 -1 190 -9 5 -17 6 -17 -240 -27 l-178 -7 0 20 c0 11 -7 25 -15 32 -22 18 -18 30 10 30 14 0 29 -8 35 -21z m-2102 -8 l13 -8 -16 -13 -17 -14 -8 14 c-15 24 2 38 28 21z m2740 -11 c17 -11 32 -27 32 -35 0 -19 -3 -19 -47 5 -21 11 -44 20 -52 20 l-13 0 12 15 c16 20 28 19 68 -5z m0 -70 c17 -11 32 -24 32 -30 0 -13 -37 -13 -45 0 -3 6 -17 10 -30 10 -14 0 -29 9 -35 20 l-11 20 28 0 c15 0 43 -9 61 -20z m-245 3 c4 -3 2 -12 -4 -20 -15 -17 -73 -17 -88 1 l-12 15 28 4 c48 7 69 7 76 0z m-4093 -69 c0 -24 -4 -44 -10 -44 -5 0 -10 23 -10 51 0 31 4 48 10 44 6 -3 10 -26 10 -51z m3460 38 c53 -63 70 -92 56 -92 -10 0 -16 -9 -16 -24 0 -18 -6 -25 -22 -28 -18 -2 -24 -11 -26 -36 l-3 -32 25 -10 26 -10 0 -82 0 -83 -23 -25 c-13 -14 -27 -34 -33 -45 -6 -14 -10 44 -12 178 l-2 197 -20 0 c-27 0 -27 36 0 43 15 4 20 14 20 36 0 35 9 39 30 13z m900 -72 c0 -24 -9 -25 -36 -5 -10 8 -28 15 -40 15 -30 0 -36 11 -18 31 l16 18 39 -20 c26 -13 39 -26 39 -39z m-2750 30 c0 -5 -9 -14 -20 -20 l-20 -11 0 21 c0 13 7 20 20 20 11 0 20 -4 20 -10z m2474 4 c9 -3 16 -13 16 -21 0 -11 -11 -13 -47 -11 -49 3 -70 23 -31 31 38 7 46 7 62 1z m-3421 -170 c25 -189 25 -179 1 -182 l-20 -3 -12 78 c-7 43 -12 96 -12 118 0 22 -4 57 -9 77 -9 37 2 62 23 55 6 -2 18 -66 29 -143z m51 104 c15 -36 29 -208 20 -233 -9 -23 -24 -18 -24 8 0 13 -4 27 -9 33 -15 15 -26 224 -12 224 7 0 18 -15 25 -32z m-132 -23 c-2 -14 1 -45 7 -68 6 -23 13 -59 14 -79 2 -21 7 -41 10 -45 10 -9 9 -73 0 -73 -32 1 -49 40 -59 130 -11 104 -10 136 5 154 18 21 29 12 23 -19z m3755 11 l28 -25 -13 -12 -12 -13 -28 16 -27 15 -142 -4 c-140 -5 -161 -1 -130 25 12 10 69 15 229 20 l67 2 28 -24z m-2764 -6 c-3 -11 -9 -17 -14 -15 -10 7 -1 35 11 35 5 0 6 -9 3 -20z m-559 -16 c8 -20 1 -30 -24 -37 -20 -5 -40 17 -40 42 0 18 57 13 64 -5z m3295 -39 c16 -8 31 -21 35 -30 8 -23 -20 -30 -40 -10 l-17 17 -124 -7 c-68 -3 -130 -8 -137 -11 -7 -3 -18 2 -25 10 -18 21 -1 28 93 36 135 12 186 11 215 -5z m-3297 -75 c-3 -8 -15 -25 -28 -38 l-24 -23 0 38 c0 42 7 58 30 65 17 6 30 -19 22 -42z m291 36 c4 -11 -6 -15 -39 -18 -51 -4 -59 -1 -43 19 15 17 75 17 82 -1z m2413 -11 c-3 -9 -11 -13 -16 -10 -8 5 -7 11 1 21 14 18 24 11 15 -11z m588 -16 c29 -13 41 -38 27 -52 -7 -7 -19 -4 -35 7 -29 18 -97 21 -198 6 -74 -11 -101 -6 -96 19 2 12 19 18 63 22 107 10 214 9 239 -2z m-586 -56 c-16 -20 -32 0 -23 28 l8 23 13 -19 c10 -14 11 -22 2 -32z m-2408 12 c0 -25 -5 -27 -55 -27 -41 0 -45 1 -45 20 0 25 2 27 54 30 l46 2 0 -25z m-290 -76 c0 -28 -7 -63 -15 -79 l-15 -29 19 -43 c11 -24 37 -83 57 -133 21 -49 41 -91 46 -93 4 -2 8 -12 8 -22 0 -10 5 -22 10 -25 6 -3 10 -14 9 -23 0 -13 -3 -12 -11 6 -7 13 -20 22 -34 22 -25 0 -40 25 -80 130 -13 36 -28 74 -33 85 -17 37 -51 149 -51 167 0 10 4 18 8 18 5 0 21 18 38 39 16 22 32 37 36 34 5 -2 8 -27 8 -54z m3270 46 c27 -14 39 -43 24 -58 -4 -3 -19 3 -34 14 l-27 20 -114 -10 c-154 -15 -149 -15 -149 14 l0 24 68 4 c164 8 203 7 232 -8z m-502 -37 l-3 -23 -39 -3 c-39 -3 -59 10 -50 33 3 6 25 12 50 14 l46 2 -4 -23z m-2478 -8 l0 -20 -50 0 c-36 0 -50 4 -50 14 0 17 11 22 62 25 l38 2 0 -21z m2967 -22 c24 -9 33 -18 33 -35 0 -25 -19 -30 -38 -11 -13 13 -127 13 -229 2 l-53 -6 0 25 0 26 78 4 c42 1 99 4 126 5 27 1 65 -3 83 -10z m-2659 -24 c36 -25 26 -34 -35 -34 l-58 0 29 25 c34 29 35 30 64 9z m2170 -12 c2 -16 -2 -22 -15 -22 -10 0 -31 -7 -47 -15 -36 -19 -36 -19 -36 8 0 31 11 44 40 49 42 7 55 2 58 -20z m-2507 6 c20 2 28 -3 33 -20 14 -55 6 -80 -46 -142 -29 -33 -53 -63 -55 -65 -7 -10 -31 23 -43 60 -8 23 -20 43 -27 46 -7 3 -13 11 -13 18 0 15 22 25 56 25 l24 0 0 30 c0 33 19 62 35 52 5 -3 21 -5 36 -4z m-336 -123 c7 -16 18 -48 25 -70 7 -22 28 -70 47 -107 25 -48 33 -75 29 -93 -4 -14 -11 -25 -16 -25 -13 0 -93 170 -115 245 -10 33 -22 64 -27 70 -12 14 -10 79 5 94 l12 12 13 -48 c7 -26 19 -61 27 -78z m2555 62 c0 -18 -4 -37 -9 -42 -5 -6 -39 -70 -75 -143 -63 -126 -114 -207 -163 -262 -13 -14 -23 -28 -23 -32 0 -3 -18 -25 -40 -47 -22 -22 -40 -42 -40 -45 0 -13 -126 -123 -137 -119 -21 8 -15 29 17 61 39 40 39 54 0 17 l-30 -29 -29 17 c-49 29 -111 20 -105 -16 3 -20 -78 -72 -100 -64 -9 4 -16 -3 -20 -16 l-6 -22 -14 18 c-17 21 -7 62 14 62 17 0 30 37 18 52 -5 6 -16 9 -24 6 -10 -4 -14 2 -14 21 0 17 5 26 16 26 28 0 196 57 254 86 113 57 179 108 263 204 15 17 77 118 77 125 0 3 9 24 19 48 10 23 21 50 25 60 3 10 15 17 31 17 l26 0 -6 -22 c-4 -13 -13 -32 -19 -43 -16 -26 -47 -105 -42 -105 3 0 15 20 27 45 12 25 26 45 31 45 4 0 8 7 8 16 0 21 50 114 62 114 4 0 8 -15 8 -33z m-1811 9 c8 -9 11 -50 9 -117 l-3 -104 -17 -3 -17 -3 -3 88 -3 88 -25 4 c-14 1 -58 -3 -98 -10 l-74 -12 -26 -35 c-15 -19 -37 -44 -49 -55 -13 -11 -23 -25 -23 -31 0 -5 -10 -20 -21 -32 l-22 -23 28 -32 27 -33 -7 45 -7 46 31 29 c17 16 31 32 31 36 0 3 14 21 32 38 33 33 95 52 107 32 4 -6 7 -42 6 -79 l0 -68 -30 -3 c-60 -6 -105 -23 -116 -44 -6 -11 -15 -44 -20 -72 -4 -28 -15 -91 -23 -141 -20 -115 -20 -128 2 -154 l17 -22 207 1 c114 0 209 -4 212 -8 12 -19 -15 -27 -94 -29 -143 -2 -260 -14 -254 -25 8 -12 176 -7 185 5 3 5 28 7 55 5 49 -4 46 -9 -11 -24 l-30 -8 49 -6 c28 -3 51 -11 54 -18 2 -6 9 -9 17 -6 7 3 18 -4 24 -15 14 -25 34 -18 50 15 15 35 14 64 -5 85 -9 10 -13 23 -9 28 9 15 45 14 50 -1 3 -7 6 -113 8 -236 l2 -223 30 -24 c87 -69 -92 -26 -290 71 -28 13 -54 24 -58 24 -5 0 -28 14 -52 30 -24 17 -46 30 -49 30 -3 0 -15 8 -25 18 -11 9 -41 33 -67 52 -26 19 -85 70 -131 114 l-82 78 10 19 c5 11 14 19 20 19 6 0 39 -28 73 -62 90 -91 147 -141 181 -158 17 -8 32 -17 35 -20 24 -27 193 -120 216 -120 8 0 22 -4 32 -9 62 -31 112 -46 112 -32 0 6 -11 11 -24 11 -14 0 -27 4 -30 9 -3 5 -29 16 -58 26 -29 9 -55 20 -58 24 -3 3 -34 21 -70 40 -36 18 -79 44 -97 57 -17 13 -34 24 -38 24 -14 0 -166 135 -235 208 -66 70 -130 157 -130 176 0 3 11 6 24 6 18 0 38 -18 77 -67 66 -85 174 -191 254 -249 33 -24 67 -50 75 -57 8 -7 39 -23 67 -37 29 -14 53 -28 53 -32 0 -5 6 -8 13 -8 6 0 35 -11 62 -25 28 -13 58 -25 67 -25 9 0 20 -4 23 -10 8 -13 25 -13 25 1 0 5 -15 16 -34 24 -18 8 -36 21 -40 30 l-6 16 33 -6 c44 -8 62 12 53 60 -4 19 -13 38 -20 42 -7 5 -16 15 -19 23 -4 11 -6 9 -6 -5 -2 -51 -55 -59 -134 -19 -68 35 -102 62 -102 82 0 12 -10 18 -32 20 -52 5 -43 -17 27 -63 48 -32 62 -40 128 -75 41 -21 67 -51 56 -63 -9 -9 -74 13 -125 43 -27 16 -49 26 -49 22 0 -4 -4 -2 -8 4 -4 7 -44 39 -89 72 -138 103 -307 290 -301 334 5 39 31 31 62 -20 28 -45 76 -93 76 -74 0 4 -24 37 -52 73 -29 35 -59 76 -67 91 -9 17 -19 24 -29 21 -10 -5 -13 -2 -8 6 9 14 -12 71 -25 71 -5 0 -9 11 -9 25 0 32 25 33 51 3 10 -13 18 -27 19 -31 0 -4 19 -35 43 -69 23 -33 50 -72 59 -87 10 -14 18 -20 18 -13 0 7 5 10 11 7 5 -4 -15 28 -46 72 -73 101 -98 149 -89 175 l6 20 18 -18 c10 -11 27 -33 37 -50 61 -102 93 -137 93 -99 0 8 -4 15 -9 15 -5 0 -21 21 -36 48 -15 26 -38 66 -51 89 -13 23 -24 44 -24 46 0 2 11 17 25 33 14 16 40 48 58 71 36 46 50 53 122 53 28 0 70 5 95 11 25 6 57 11 72 11 15 0 30 4 33 9 9 13 31 11 44 -5z m-820 -53 c7 -32 16 -62 21 -68 4 -5 13 -28 20 -50 24 -77 81 -190 167 -330 24 -39 26 -47 13 -55 -23 -15 -46 1 -75 53 -53 98 -132 262 -144 302 -7 22 -16 49 -21 60 -29 71 -40 121 -27 134 22 22 33 10 46 -46z m-72 8 c-1 -22 19 -91 43 -146 10 -22 32 -74 50 -115 30 -69 72 -147 129 -241 20 -34 20 -69 0 -69 -22 0 -198 322 -199 362 0 9 -4 20 -10 23 -5 3 -17 32 -26 63 -8 31 -20 69 -26 84 -13 35 -5 58 21 58 13 0 19 -6 18 -19z m296 13 c8 -8 -20 -64 -32 -64 -14 0 -32 46 -24 63 5 9 47 10 56 1z m-425 -85 c13 -41 27 -83 32 -94 4 -11 18 -47 31 -80 56 -147 150 -314 258 -459 52 -71 60 -89 39 -102 -14 -9 -70 53 -128 141 -22 33 -47 69 -55 80 -9 11 -18 30 -21 43 -4 12 -9 22 -13 22 -7 0 -23 30 -60 113 -11 26 -30 66 -40 90 -11 23 -27 65 -37 92 -9 28 -21 54 -26 60 -4 5 -8 17 -8 27 0 10 -4 26 -9 36 -18 35 -29 101 -17 106 23 9 32 -3 54 -75z m56 69 c15 -52 61 -196 66 -208 40 -87 148 -298 157 -308 7 -8 18 -23 25 -35 6 -12 34 -53 63 -92 29 -38 57 -80 64 -92 l11 -22 -29 10 c-34 12 -75 59 -149 172 -65 99 -202 377 -202 411 0 14 -4 25 -31 91 -15 38 -20 65 -14 75 9 14 35 12 39 -2z m2800 -513 c-7 -16 -32 -27 -45 -20 -5 4 -2 17 7 31 13 18 20 22 30 13 7 -6 10 -17 8 -24z m-824 -100 c0 -69 -7 -98 -21 -89 -10 6 -12 147 -3 157 16 15 24 -9 24 -68z m140 -78 c0 -16 -9 -28 -27 -37 -18 -8 -23 -14 -15 -17 8 -3 19 0 25 6 16 16 37 14 43 -4 6 -16 -31 -54 -53 -55 -7 0 -13 -5 -13 -11 0 -5 -4 -8 -9 -4 -5 3 -15 -1 -23 -8 -17 -16 -64 -37 -83 -37 -26 0 -16 36 13 50 15 8 34 19 42 26 8 7 24 14 35 17 l20 5 -23 1 c-13 0 -37 -6 -54 -15 -20 -11 -34 -12 -40 -6 -15 15 -2 41 27 52 35 14 66 29 95 45 34 20 40 19 40 -8z m-1588 -89 c75 -73 94 -90 178 -150 61 -44 77 -54 130 -81 25 -12 47 -25 48 -29 2 -5 9 -8 15 -8 7 0 44 -16 82 -35 39 -19 77 -35 85 -35 8 0 44 -9 78 -20 83 -26 105 -25 117 3 19 42 40 27 40 -28 l0 -50 -55 2 c-80 3 -276 59 -310 88 -8 7 -26 16 -40 20 -14 4 -36 15 -50 24 -14 9 -38 23 -55 31 -16 8 -32 17 -35 20 -3 3 -25 18 -50 34 -92 60 -300 249 -300 274 0 7 11 12 24 12 16 0 48 -24 98 -72z m1058 -458 c0 -5 -7 -10 -15 -10 -8 0 -15 5 -15 10 0 6 7 10 15 10 8 0 15 -4 15 -10z m-1082 -346 c23 -16 30 -44 12 -44 -9 0 -37 15 -69 36 -7 5 11 24 22 24 7 0 23 -7 35 -16z m-30 -70 c26 -18 29 -44 5 -44 -25 1 -53 24 -53 44 0 20 19 21 48 0z m1452 -134 c1 -14 2 -33 1 -43 -1 -22 -50 -42 -65 -27 -5 5 -20 10 -33 10 -13 0 -23 3 -23 8 1 15 57 71 80 80 29 12 38 6 40 -28z m-150 -54 l0 -44 -30 -7 c-39 -8 -47 -2 -48 36 -1 36 20 58 56 59 l22 0 0 -44z m-475 -6 c0 -11 -9 -14 -32 -13 -23 2 -36 -3 -46 -17 l-15 -21 -5 14 c-3 8 0 23 8 33 16 24 90 27 90 4z m-153 -72 c-8 -8 -15 -8 -28 2 l-16 14 19 7 c23 9 41 -7 25 -23z m468 12 c0 -10 -26 -20 -51 -20 -26 0 -24 19 4 29 23 9 47 4 47 -9z m-327 -5 c8 -20 -9 -28 -40 -20 -17 4 -31 0 -43 -10 l-19 -17 6 21 c4 15 13 21 34 21 15 0 31 5 34 10 9 14 22 12 28 -5z m162 -6 c11 -17 -1 -21 -37 -13 l-33 7 25 8 c36 10 38 10 45 -2z"
       id="path4"
       style="fill:#f2cc00;fill-opacity:1" />
    <path
       d="M4044 4865 c-4 -9 -2 -21 4 -27 15 -15 44 -1 40 19 -4 23 -36 29 -44 8z"
       id="path6"
       style="fill:#f2cc00;fill-opacity:1" />
    <path
       d="M4130 4803 c-33 -54 -37 -73 -15 -73 8 0 15 5 15 10 0 19 27 10 55 -20 37 -39 48 -38 71 5 l19 36 -45 44 c-25 24 -51 44 -57 45 -7 0 -26 -21 -43 -47z m78 -23 c12 -12 22 -25 22 -30 0 -16 -19 -11 -40 10 -37 37 -20 55 18 20z"
       id="path8"
       style="fill:#f2cc00;fill-opacity:1" />
    <path
       d="M4241 4680 c-17 -28 -31 -55 -31 -60 0 -13 51 -70 62 -70 14 0 9 21 -12 48 -28 35 -9 56 21 23 15 -16 24 -20 32 -12 8 8 5 15 -11 27 -28 19 -30 54 -3 47 11 -3 22 -11 25 -19 6 -16 26 -19 26 -5 0 16 -51 71 -65 71 -7 0 -27 -23 -44 -50z"
       id="path10"
       style="fill:#f2cc00;fill-opacity:1" />
    <path
       d="M4343 4602 c-13 -15 -23 -33 -23 -39 0 -7 -7 -13 -15 -13 -8 0 -15 -6 -15 -13 0 -17 48 -87 60 -87 15 0 12 26 -5 40 -16 13 -21 50 -7 50 5 0 17 -9 27 -20 24 -26 39 -15 19 15 -9 13 -14 32 -12 42 l4 18 19 -22 c11 -13 25 -23 33 -23 l13 0 -12 22 c-11 21 -48 57 -59 57 -3 1 -15 -12 -27 -27z"
       id="path12"
       style="fill:#f2cc00;fill-opacity:1" />
    <path
       d="M4416 4479 c-22 -25 -35 -48 -31 -57 l5 -14 16 13 15 12 20 -20 c21 -21 26 -47 14 -75 -4 -11 -3 -18 4 -18 13 0 41 30 63 68 l17 29 -32 48 c-18 27 -37 50 -43 52 -6 2 -27 -15 -48 -38z m84 -56 c0 -19 -14 -16 -34 6 -24 27 -11 48 15 25 10 -9 19 -23 19 -31z"
       id="path14"
       style="fill:#f2cc00;fill-opacity:1" />
    <path
       d="M4239 4492 l-27 -3 -7 -36 c-4 -25 -2 -40 9 -52 9 -10 16 -22 16 -28 0 -6 3 -13 8 -15 4 -1 27 -28 50 -58 33 -41 52 -56 76 -61 l33 -5 -1 47 c-1 37 -8 56 -31 86 -17 21 -38 49 -47 63 -35 52 -53 66 -79 62z"
       id="path16"
       style="fill:#f2cc00;fill-opacity:1" />
    <path
       d="M4170 4341 c0 -16 75 -112 78 -101 3 9 -66 110 -75 110 -2 0 -3 -4 -3 -9z"
       id="path18"
       style="fill:#f2cc00;fill-opacity:1" />
    <path
       d="M4579 4323 c-1 -5 0 -18 1 -30 1 -14 -11 -34 -30 -52 -44 -39 -30 -61 16 -26 25 19 40 24 60 19 l27 -7 -28 52 c-26 46 -43 63 -46 44z"
       id="path20"
       style="fill:#f2cc00;fill-opacity:1" />
    <path
       d="M4260 4229 c0 -8 7 -24 15 -35 19 -25 19 -14 0 22 -8 16 -15 22 -15 13z"
       id="path22"
       style="fill:#f2cc00;fill-opacity:1" />
    <path
       d="M4601 4156 l-34 -35 7 -25 c10 -42 47 -96 64 -96 25 0 82 58 82 82 0 32 -48 108 -68 108 -10 0 -33 -15 -51 -34z m67 -18 c22 -29 23 -57 3 -77 -29 -29 -39 -26 -58 14 l-16 35 18 20 c21 23 38 25 53 8z"
       id="path24"
       style="fill:#f2cc00;fill-opacity:1" />
    <path
       d="M1742 5054 c-56 -39 -57 -41 -42 -64 l9 -15 13 13 c22 22 36 13 65 -38 51 -92 75 -66 26 28 l-28 53 18 10 c20 12 23 49 4 49 -7 0 -36 -16 -65 -36z"
       id="path26"
       style="fill:#f2cc00;fill-opacity:1" />
    <path
       d="M1640 4968 c0 -7 14 -35 30 -63 37 -63 37 -71 0 -43 -16 12 -30 29 -30 38 0 20 -19 40 -38 40 -19 0 -112 -80 -112 -97 0 -8 11 -31 25 -51 35 -51 31 -64 -6 -19 -17 20 -37 37 -46 37 -21 0 -12 -19 38 -85 l41 -55 37 23 c60 36 131 101 131 119 0 10 7 18 15 18 19 0 19 13 -1 53 -36 69 -84 118 -84 85z m-13 -94 c3 -8 -4 -25 -16 -38 -25 -27 -13 -43 18 -26 25 13 31 13 31 0 0 -13 -51 -59 -65 -59 -5 0 -22 19 -37 42 l-27 42 26 28 c30 30 60 35 70 11z"
       id="path28"
       style="fill:#f2cc00;fill-opacity:1" />
    <path
       d="M1356 4718 c-25 -28 -46 -56 -46 -62 0 -20 93 -126 111 -126 18 0 109 94 109 112 0 16 -101 128 -115 128 -7 0 -33 -23 -59 -52z m95 -29 c35 -37 36 -48 8 -83 -25 -32 -45 -33 -70 -3 -39 45 -40 52 -12 86 14 17 30 31 35 31 6 0 23 -14 39 -31z"
       id="path30"
       style="fill:#f2cc00;fill-opacity:1" />
    <path
       d="M1297 4553 c-14 -14 -6 -41 14 -46 22 -6 35 13 25 38 -6 15 -28 20 -39 8z"
       id="path32"
       style="fill:#f2cc00;fill-opacity:1" />
    <path
       d="M1181 4500 l-14 -8 37 -36 c21 -19 35 -40 31 -46 -3 -5 -35 -10 -71 -10 -88 0 -93 -16 -23 -80 49 -45 89 -63 89 -41 0 5 -16 21 -35 37 -48 38 -46 54 9 54 61 0 106 10 106 25 0 6 -15 24 -32 40 -18 15 -44 38 -58 51 -17 16 -30 20 -39 14z"
       id="path34"
       style="fill:#f2cc00;fill-opacity:1" />
    <path
       d="M1060 4310 c0 -11 5 -20 11 -20 6 0 29 -16 50 -35 40 -35 69 -45 68 -22 0 14 -102 97 -118 97 -6 0 -11 -9 -11 -20z"
       id="path36"
       style="fill:#f2cc00;fill-opacity:1" />
    <path
       d="M995 4235 c-8 -14 -22 -36 -30 -50 -25 -41 -19 -69 23 -102 l37 -30 -1 -39 c-1 -36 -27 -104 -41 -104 -5 0 -69 36 -82 47 -9 7 41 93 55 93 18 0 18 11 0 35 -18 25 -37 15 -60 -31 -10 -22 -25 -51 -32 -66 -8 -14 -14 -32 -14 -40 0 -16 123 -98 148 -98 12 0 22 13 31 38 12 36 45 111 62 142 5 8 22 41 39 73 l30 57 -10 21 c-14 25 -97 79 -122 79 -10 0 -24 -11 -33 -25z m88 -40 c20 -14 37 -28 37 -30 0 -5 -40 -77 -45 -84 -2 -1 -22 7 -44 20 -46 25 -51 45 -24 90 21 35 28 36 76 4z"
       id="path38"
       style="fill:#f2cc00;fill-opacity:1" />
    <path
       d="M2810 2446 c0 -172 4 -277 10 -281 6 -3 10 -47 10 -96 0 -69 3 -91 14 -95 8 -3 88 -1 178 5 229 14 332 49 423 146 l30 32 60 7 c33 4 107 9 165 9 l105 2 3 142 c4 222 -12 242 -203 253 l-110 6 -66 45 c-82 57 -154 74 -309 74 -74 0 -118 4 -122 11 -5 7 -44 12 -98 13 l-90 2 0 -275z m410 195 l45 -8 -65 -2 c-36 -1 -95 -4 -132 -8 -46 -4 -68 -2 -68 5 0 6 8 13 18 15 28 8 154 6 202 -2z m113 -63 c28 -14 37 -49 20 -76 -9 -15 -14 -46 -13 -90 1 -37 -1 -83 -5 -103 -5 -27 -2 -46 15 -78 l21 -43 -22 -24 c-39 -41 -109 -69 -109 -43 0 20 21 49 35 49 l15 0 2 103 c1 56 3 120 4 142 2 47 -25 137 -50 164 l-18 19 44 -5 c24 -3 51 -10 61 -15z m71 7 c14 -11 16 -15 5 -15 -8 0 -23 7 -33 15 -14 11 -16 15 -5 15 8 0 23 -7 33 -15z m-179 -6 c5 -7 -5 -8 -32 -3 -51 9 -54 14 -10 14 20 0 39 -5 42 -11z m393 -116 c20 -28 14 -34 -30 -31 l-43 3 -3 29 -4 29 34 -7 c18 -3 39 -14 46 -23z m-537 -59 c3 -32 9 -67 13 -76 9 -19 -13 -34 -59 -39 l-30 -4 -3 22 c-2 14 4 26 17 33 l21 11 0 53 c0 29 3 56 7 60 16 16 28 -5 34 -60z m422 46 c6 -23 4 -25 -45 -34 l-38 -7 0 21 c0 36 74 54 83 20z m124 -132 c4 -34 -27 -68 -62 -68 l-25 0 0 34 c0 42 24 68 58 64 19 -2 26 -10 29 -30z m-539 -90 l-3 -53 73 -3 c74 -3 90 -15 57 -42 -8 -7 -15 -18 -15 -26 0 -14 -36 -22 -115 -26 l-50 -3 -3 34 c-2 19 1 44 7 55 17 35 9 71 -16 74 -38 5 -27 29 13 30 20 1 39 4 42 7 11 11 13 4 10 -47z m-61 -25 c2 -6 -3 -13 -12 -16 -10 -5 -15 0 -15 14 0 21 21 22 27 2z m393 -37 c0 -8 -15 -25 -32 -37 -18 -13 -35 -26 -38 -29 -11 -11 -51 -30 -65 -30 -9 0 -26 -7 -38 -15 -28 -18 -197 -37 -297 -33 l-75 3 0 58 c-1 32 3 63 7 70 8 13 9 12 11 -58 1 -22 7 -41 12 -42 6 -2 9 19 8 52 l-3 55 15 0 c27 0 30 -5 27 -40 -2 -19 0 -45 3 -58 l6 -23 72 2 c40 1 77 5 82 9 6 4 36 10 69 13 32 3 63 10 69 16 6 6 19 11 29 11 10 0 18 5 18 10 0 6 6 10 13 10 7 0 28 16 47 35 35 37 60 45 60 21z m-420 -21 c0 -8 -4 -15 -10 -15 -5 0 -10 7 -10 15 0 8 5 15 10 15 6 0 10 -7 10 -15z"
       id="path40"
       style="fill:#f2cc00;fill-opacity:1" />
    <path
       d="M606 2495 c-7 -19 3 -121 15 -153 12 -30 29 -19 29 18 0 35 8 41 74 49 l51 6 3 24 4 24 -39 -7 c-21 -4 -50 -9 -65 -12 l-27 -5 -7 25 c-8 34 -30 52 -38 31z"
       id="path42"
       style="fill:#f2cc00;fill-opacity:1" />
    <path
       d="M780 2260 c0 -33 -4 -60 -8 -60 -16 0 -32 25 -32 50 0 32 -7 41 -26 33 -10 -4 -12 -17 -7 -50 l6 -45 -19 4 c-13 2 -21 16 -27 46 -5 27 -13 42 -23 42 l-15 0 7 -57 c3 -32 9 -62 11 -66 5 -8 31 -6 98 8 17 3 40 8 53 11 l22 4 0 39 c0 43 -18 101 -31 101 -5 0 -9 -27 -9 -60z"
       id="path44"
       style="fill:#f2cc00;fill-opacity:1" />
    <path
       d="M731 2135 c-35 -13 -66 -26 -69 -29 -3 -3 3 -42 13 -86 l18 -80 25 0 c39 0 142 41 142 56 0 18 -22 18 -67 -1 -38 -16 -73 -20 -73 -7 1 18 19 31 65 45 32 9 51 20 53 32 l4 17 -44 -7 c-23 -4 -50 -11 -58 -15 -8 -4 -21 -5 -27 -3 -20 7 -15 33 6 33 11 0 23 5 26 10 3 6 14 10 23 10 10 0 28 7 41 16 l23 17 -13 8 c-17 11 -12 12 -88 -16z"
       id="path46"
       style="fill:#f2cc00;fill-opacity:1" />
    <path
       d="M4602 2008 c-13 -35 -32 -86 -43 -113 l-19 -50 12 -31 c15 -40 6 -62 -33 -78 l-31 -13 -55 -102 c-40 -76 -52 -108 -46 -124 4 -12 6 -31 4 -42 -1 -11 2 -16 6 -10 4 6 21 15 36 20 l29 10 54 102 54 101 -11 25 -11 24 16 32 c9 17 23 31 30 31 7 0 19 6 25 14 12 14 70 165 78 204 7 28 -22 62 -51 62 l-21 0 -23 -62z"
       id="path48"
       style="fill:#f2cc00;fill-opacity:1" />
    <path
       d="M4480 2031 c-7 -17 -10 -36 -8 -43 3 -7 8 2 12 20 4 17 12 32 17 32 5 0 9 5 9 10 0 21 -18 9 -30 -19z"
       id="path50"
       style="fill:#f2cc00;fill-opacity:1" />
    <path
       d="M4540 2037 c0 -13 -19 -59 -41 -99 -5 -10 -9 -27 -9 -37 0 -11 -4 -23 -10 -26 -5 -3 -10 -14 -10 -23 0 -9 9 0 20 21 11 20 20 44 20 52 0 8 4 15 8 15 4 0 13 19 20 43 7 23 15 48 18 55 3 6 1 12 -5 12 -6 0 -11 -6 -11 -13z"
       id="path52"
       style="fill:#f2cc00;fill-opacity:1" />
    <path
       d="M4747 2033 c-17 -17 -3 -33 43 -48 56 -19 70 -15 70 21 l0 25 -34 -6 c-20 -4 -36 -2 -40 4 -8 12 -29 15 -39 4z"
       id="path54"
       style="fill:#f2cc00;fill-opacity:1" />
    <path
       d="M4046 1851 c-37 -62 -65 -115 -63 -118 10 -10 140 203 134 220 -2 6 -34 -40 -71 -102z"
       id="path56"
       style="fill:#f2cc00;fill-opacity:1" />
    <path
       d="M4817 1941 c-5 -22 -41 -29 -52 -11 -8 13 -45 13 -45 1 0 -5 16 -19 35 -31 25 -15 35 -29 35 -47 0 -41 23 -21 38 36 10 35 12 55 5 62 -7 7 -12 4 -16 -10z"
       id="path58"
       style="fill:#f2cc00;fill-opacity:1" />
    <path
       d="M4410 1841 c0 -11 -3 -21 -7 -23 -11 -4 -83 -144 -83 -160 0 -6 14 9 30 35 17 26 30 54 30 62 0 8 4 15 8 15 4 0 14 17 22 38 8 20 16 40 18 45 2 4 -1 7 -7 7 -6 0 -11 -9 -11 -19z"
       id="path60"
       style="fill:#f2cc00;fill-opacity:1" />
    <path
       d="M4690 1842 c0 -4 5 -13 11 -19 7 -7 9 -25 5 -48 l-7 -36 -30 -6 c-19 -3 -29 -12 -29 -23 0 -10 -7 -23 -16 -31 -8 -7 -24 -30 -35 -52 l-21 -39 12 -28 c17 -40 -1 -73 -35 -64 -27 7 -30 2 -15 -26 11 -21 -6 -83 -21 -74 -24 15 -66 -8 -82 -45 -9 -21 -17 -45 -17 -54 0 -10 -6 -17 -14 -17 -16 0 -87 -100 -80 -112 3 -5 18 3 32 18 l27 26 5 -66 c3 -36 9 -67 15 -68 15 -2 76 90 64 98 -6 3 -16 -2 -24 -12 -7 -11 -17 -16 -21 -12 -9 10 -13 65 -6 95 l4 23 28 -20 c15 -11 37 -20 48 -20 24 0 65 63 65 102 0 15 6 29 13 32 10 4 10 12 2 34 l-11 28 18 27 17 27 26 -7 c17 -4 23 -2 18 5 -4 6 7 21 23 33 17 12 37 39 45 60 l16 39 -12 25 c-6 14 -15 25 -20 25 -4 0 -8 6 -8 13 0 7 14 12 37 12 l37 0 9 30 c5 17 13 38 18 47 18 35 10 53 -34 71 -47 19 -57 21 -57 9z m60 -87 c0 -16 -6 -25 -16 -25 -11 0 -14 5 -10 16 3 9 6 20 6 25 0 5 5 9 10 9 6 0 10 -11 10 -25z m-76 -121 c19 -19 20 -25 4 -59 -18 -40 -78 -29 -78 15 0 22 28 60 45 60 7 0 21 -7 29 -16z m-164 -289 l23 -25 -14 -26 c-18 -35 -34 -40 -64 -20 -30 20 -31 35 -4 70 25 32 30 32 59 1z"
       id="path62"
       style="fill:#f2cc00;fill-opacity:1" />
    <path
       d="M782 1803 c-41 -20 -36 -39 10 -35 l34 3 13 -43 13 -42 -27 -24 c-34 -29 -26 -38 23 -26 l37 9 -3 43 -2 42 25 12 c36 16 33 42 -3 35 -32 -6 -46 0 -55 26 -8 21 -22 21 -65 0z"
       id="path64"
       style="fill:#f2cc00;fill-opacity:1" />
    <path
       d="M3938 1693 c-9 -16 -26 -38 -38 -51 -12 -13 -19 -26 -16 -29 3 -3 16 7 28 22 13 14 33 38 46 52 26 30 26 33 9 33 -7 0 -20 -12 -29 -27z"
       id="path66"
       style="fill:#f2cc00;fill-opacity:1" />
    <path
       d="M4390 1691 c0 -6 -11 -29 -25 -51 -28 -44 -30 -50 -15 -50 6 0 10 7 10 15 0 8 4 15 8 15 10 0 36 70 28 77 -3 4 -6 1 -6 -6z"
       id="path68"
       style="fill:#f2cc00;fill-opacity:1" />
    <path
       d="M919 1652 c-14 -9 -36 -27 -49 -39 -13 -13 -27 -23 -32 -23 -16 0 -7 -46 19 -97 14 -29 33 -53 41 -53 16 0 95 41 100 53 2 4 10 7 18 7 8 0 14 9 14 19 l0 20 -33 -6 c-39 -6 -55 9 -64 60 l-5 34 21 6 c22 5 30 38 9 36 -7 0 -24 -8 -39 -17z m0 -108 c15 -34 14 -64 -3 -64 -18 0 -32 18 -40 53 -12 51 20 60 43 11z"
       id="path70"
       style="fill:#f2cc00;fill-opacity:1" />
    <path
       d="M4276 1589 c-23 -47 -19 -61 5 -16 11 22 18 41 16 44 -3 2 -12 -10 -21 -28z"
       id="path72"
       style="fill:#f2cc00;fill-opacity:1" />
    <path
       d="M4225 1515 c-10 -19 -22 -35 -27 -35 -4 0 -8 -5 -8 -11 0 -6 -7 -17 -15 -26 -9 -8 -14 -17 -11 -20 6 -6 46 34 46 47 0 6 4 10 9 10 10 0 36 58 29 65 -2 2 -12 -11 -23 -30z"
       id="path74"
       style="fill:#f2cc00;fill-opacity:1" />
    <path
       d="M4273 1484 c-7 -7 -13 -18 -13 -24 0 -5 -4 -10 -9 -10 -12 0 -43 -49 -39 -61 2 -6 21 15 42 45 36 53 47 81 19 50z"
       id="path76"
       style="fill:#f2cc00;fill-opacity:1" />
    <path
       d="M996 1463 c-20 -16 -49 -38 -64 -50 l-27 -22 25 -48 c14 -26 30 -54 37 -61 7 -7 13 -18 13 -23 0 -16 26 -10 45 11 10 11 23 20 29 20 15 1 66 47 66 60 0 14 -22 12 -44 -5 -29 -22 -34 -19 -58 30 l-22 46 32 25 c18 14 30 30 27 35 -9 14 -19 11 -59 -18z m-3 -114 c19 -34 15 -52 -7 -28 -17 17 -30 59 -19 59 4 0 16 -14 26 -31z"
       id="path78"
       style="fill:#f2cc00;fill-opacity:1" />
    <path
       d="M4355 1427 c-11 -6 -27 -13 -35 -17 -8 -4 -43 -46 -78 -93 l-64 -87 7 -29 c4 -20 14 -31 32 -36 28 -7 25 -10 113 109 l51 68 -3 48 -3 47 -20 -10z"
       id="path80"
       style="fill:#f2cc00;fill-opacity:1" />
    <path
       d="M3982 1388 c-7 -7 -12 -18 -12 -25 0 -7 -5 -13 -10 -13 -6 0 -39 -28 -73 -62 -35 -35 -77 -74 -95 -88 -17 -14 -32 -29 -32 -34 0 -20 190 152 239 217 15 19 2 24 -17 5z"
       id="path82"
       style="fill:#f2cc00;fill-opacity:1" />
    <path
       d="M4116 1365 c-28 -42 -259 -275 -274 -275 -7 0 -15 -7 -18 -15 -3 -8 -33 -32 -65 -54 -33 -22 -56 -42 -51 -45 15 -9 159 110 273 224 134 136 161 168 157 182 -2 6 -12 -2 -22 -17z"
       id="path84"
       style="fill:#f2cc00;fill-opacity:1" />
    <path
       d="M4176 1355 c-9 -14 -13 -25 -9 -25 10 0 36 40 30 46 -2 3 -12 -7 -21 -21z"
       id="path86"
       style="fill:#f2cc00;fill-opacity:1" />
    <path
       d="M4098 1257 c-20 -23 -53 -58 -72 -77 -20 -19 -36 -39 -36 -45 0 -12 104 89 132 128 31 44 17 40 -24 -6z"
       id="path88"
       style="fill:#f2cc00;fill-opacity:1" />
    <path
       d="M1126 1225 c-43 -39 -58 -42 -76 -20 -16 19 -30 19 -30 0 0 -26 64 -115 83 -115 l18 0 -11 21 c-17 32 -5 61 40 93 38 26 47 46 24 52 -5 2 -27 -12 -48 -31z"
       id="path90"
       style="fill:#f2cc00;fill-opacity:1" />
    <path
       d="M1250 1150 l-14 -9 22 -24 c24 -26 30 -67 9 -67 -7 0 -23 11 -35 25 -12 14 -26 25 -32 25 -17 0 -11 -26 10 -45 11 -10 20 -26 20 -37 0 -27 -35 -23 -54 7 -16 24 -46 35 -46 17 0 -14 64 -92 75 -92 6 0 18 8 27 18 33 35 68 64 68 55 0 -5 -16 -26 -35 -47 -34 -38 -45 -66 -25 -66 5 0 22 14 37 30 14 17 30 30 35 30 5 0 8 -34 7 -75 -1 -42 1 -78 5 -82 3 -4 19 3 35 15 l29 21 -8 -29 c-12 -40 -2 -68 34 -101 41 -37 61 -36 102 6 22 23 34 30 34 20 0 -8 -3 -15 -7 -15 -5 0 -17 -19 -28 -41 l-19 -42 49 -43 c28 -24 57 -44 65 -44 22 0 107 134 91 144 -9 6 -41 -19 -41 -32 -1 -4 -14 -22 -30 -41 l-29 -34 -6 15 c-4 10 8 37 29 67 20 28 36 55 36 61 0 21 -30 9 -47 -20 -9 -16 -21 -30 -25 -30 -4 0 -8 -6 -8 -14 0 -20 -19 -31 -32 -18 -7 7 1 27 26 65 43 64 44 71 11 65 l-25 -5 0 24 c0 37 -60 93 -100 93 l-31 0 6 20 c9 30 -19 26 -39 -6 -28 -42 -41 -25 -41 57 l0 74 -17 -1 c-9 -1 -14 4 -12 10 3 7 -10 33 -29 58 -24 35 -36 45 -47 38z m263 -318 l19 -20 -12 -24 c-18 -34 -41 -58 -57 -58 -14 0 -63 47 -63 59 0 4 14 23 31 44 33 40 46 40 82 -1z"
       id="path92"
       style="fill:#f2cc00;fill-opacity:1" />
    <path
       d="M3730 1150 c0 -5 -7 -10 -15 -10 -7 0 -18 -6 -22 -14 -7 -12 -36 -31 -108 -70 -11 -6 -34 -20 -50 -32 -27 -18 -96 -49 -230 -102 -27 -10 -82 -27 -122 -37 l-72 -19 -21 19 -20 18 0 -21 c0 -30 10 -33 77 -22 95 16 283 81 291 102 2 4 10 8 18 8 14 0 53 19 64 30 3 3 31 18 63 34 31 15 57 31 57 36 0 4 14 13 30 20 17 7 30 16 30 20 0 3 11 13 25 20 25 13 33 30 15 30 -5 0 -10 -4 -10 -10z"
       id="path94"
       style="fill:#f2cc00;fill-opacity:1" />
    <path
       d="M2930 1130 l-25 -8 33 -1 c20 -1 31 3 27 9 -3 6 -7 10 -8 9 -1 -1 -13 -5 -27 -9z"
       id="path96"
       style="fill:#f2cc00;fill-opacity:1" />
    <path
       d="M3390 1098 c-14 -6 -38 -17 -55 -24 -70 -29 -113 -41 -128 -32 -20 11 -35 -11 -16 -23 19 -12 39 -11 39 1 0 6 11 10 25 10 14 0 64 18 113 40 48 22 78 39 67 39 -11 0 -31 -5 -45 -11z"
       id="path98"
       style="fill:#f2cc00;fill-opacity:1" />
    <path
       d="M3905 1065 c-27 -25 -43 -45 -36 -45 14 0 111 89 96 90 -5 0 -32 -20 -60 -45z"
       id="path100"
       style="fill:#f2cc00;fill-opacity:1" />
    <path
       d="M4233 1000 l-27 -31 -28 6 c-15 4 -28 3 -28 -2 1 -17 57 -88 71 -91 15 -3 99 74 99 91 0 16 -33 57 -46 57 -8 0 -26 -14 -41 -30z m31 -54 c-24 -32 -48 -35 -38 -4 9 28 36 50 48 38 4 -5 0 -20 -10 -34z"
       id="path102"
       style="fill:#f2cc00;fill-opacity:1" />
    <path
       d="M3260 978 c-57 -24 -94 -27 -112 -11 l-18 16 0 -27 0 -28 43 7 c23 4 55 13 71 21 16 8 35 14 42 14 7 0 16 5 19 10 8 13 -13 12 -45 -2z"
       id="path104"
       style="fill:#f2cc00;fill-opacity:1" />
    <path
       d="M3635 939 c-27 -16 -59 -34 -70 -40 -11 -5 -30 -16 -43 -23 l-23 -13 15 -6 c8 -3 16 -3 18 1 2 4 28 20 58 35 62 31 107 63 100 70 -3 3 -27 -8 -55 -24z"
       id="path106"
       style="fill:#f2cc00;fill-opacity:1" />
    <path
       d="M4117 875 c-19 -27 -46 -32 -65 -13 -21 21 -27 -3 -8 -35 11 -18 24 -42 30 -54 15 -31 29 -29 76 14 27 25 40 46 40 63 0 52 -43 66 -73 25z m27 -56 c-20 -23 -44 -25 -44 -4 0 17 53 48 59 34 1 -6 -5 -19 -15 -30z"
       id="path108"
       style="fill:#f2cc00;fill-opacity:1" />
    <path
       d="M2800 851 c0 -24 13 -33 35 -25 l16 6 -17 19 c-22 24 -34 24 -34 0z"
       id="path110"
       style="fill:#f2cc00;fill-opacity:1" />
    <path
       d="M3997 765 c-28 -25 -67 -34 -67 -15 0 6 -7 10 -16 10 -9 0 -14 -3 -12 -7 2 -5 15 -32 27 -60 15 -33 30 -53 40 -53 23 0 101 69 101 89 0 18 -27 61 -38 61 -4 0 -20 -12 -35 -25z m38 -34 c3 -5 -8 -19 -24 -30 -36 -26 -51 -11 -19 18 24 23 34 26 43 12z"
       id="path112"
       style="fill:#f2cc00;fill-opacity:1" />
    <path
       d="M3806 680 c-2 -8 -4 -26 -3 -40 1 -17 -5 -28 -20 -35 -13 -5 -23 -15 -23 -22 0 -15 26 -17 35 -3 10 16 32 12 32 -6 0 -8 -13 -22 -29 -30 -15 -8 -28 -19 -28 -25 0 -25 -28 13 -34 46 -8 40 -24 54 -40 34 -6 -8 -19 -13 -28 -11 -14 3 -18 -3 -18 -22 0 -14 5 -26 10 -26 6 0 10 -9 10 -20 0 -25 -3 -25 -57 2 l-44 22 -21 -13 c-11 -7 -22 -10 -25 -7 -10 9 -83 -34 -83 -49 0 -18 14 -19 40 -3 14 9 23 9 30 2 8 -8 1 -17 -24 -32 -50 -29 -47 -45 7 -37 l42 6 -30 -26 c-16 -13 -33 -25 -37 -25 -5 0 -8 -9 -8 -21 l0 -20 23 6 c39 12 87 46 87 61 0 9 5 12 10 9 21 -13 28 5 19 46 -6 23 -8 44 -5 46 2 3 22 -7 43 -21 20 -14 46 -26 57 -26 l19 0 -6 33 c-3 17 -9 47 -13 65 -4 21 -3 32 5 32 6 0 11 -13 11 -28 0 -32 33 -71 45 -53 3 6 15 11 26 11 10 0 36 15 55 33 l36 33 -16 32 c-9 17 -16 37 -16 45 0 7 -6 22 -14 33 l-15 19 -5 -15z"
       id="path114"
       style="fill:#f2cc00;fill-opacity:1" />
    <path
       d="M3920 1858 c-36 -54 -95 -131 -132 -171 -37 -39 -67 -76 -67 -82 -1 -12 124 119 147 155 9 14 31 43 49 66 18 23 33 46 33 53 0 6 4 11 9 11 9 0 37 58 30 64 -2 1 -33 -42 -69 -96z"
       id="path116"
       style="fill:#f2cc00;fill-opacity:1" />
    <path
       d="M985 649 c-11 -4 -37 -8 -57 -8 -20 -1 -40 -5 -43 -11 -3 -5 -17 -10 -30 -10 -29 0 -104 -17 -160 -36 -23 -8 -49 -14 -60 -14 -12 0 -16 -3 -9 -10 6 -6 39 -2 94 12 47 11 108 24 135 29 103 16 165 31 165 39 0 14 -14 18 -35 9z"
       id="path118"
       style="fill:#f2cc00;fill-opacity:1" />
    <path
       d="M495 529 c-97 -32 -240 -107 -290 -151 -46 -40 -75 -92 -75 -132 0 -35 47 -98 105 -139 71 -52 171 -99 220 -103 22 -2 33 -2 25 2 -8 3 -24 9 -35 13 -134 53 -274 150 -290 202 -21 65 44 151 156 206 106 53 179 83 198 83 10 0 21 3 25 8 4 4 24 12 44 18 l37 12 -30 1 c-16 0 -57 -9 -90 -20z"
       id="path120"
       style="fill:#f2cc00;fill-opacity:1" />
  </g>
</svg>
