<?xml version="1.0" encoding="UTF-8" standalone="no"?>
<svg
   id="Layer_1"
   data-name="Layer 1"
   viewBox="0 0 96 96"
   version="1.1"
   sodipodi:docname="rafael_laverde.svg"
   inkscape:version="1.2.2 (b0a8486541, 2022-12-01)"
   xmlns:inkscape="http://www.inkscape.org/namespaces/inkscape"
   xmlns:sodipodi="http://sodipodi.sourceforge.net/DTD/sodipodi-0.dtd"
   xmlns="http://www.w3.org/2000/svg"
   xmlns:svg="http://www.w3.org/2000/svg">
  <sodipodi:namedview
     id="namedview405"
     pagecolor="#ffffff"
     bordercolor="#000000"
     borderopacity="0.25"
     inkscape:showpageshadow="2"
     inkscape:pageopacity="0.0"
     inkscape:pagecheckerboard="0"
     inkscape:deskcolor="#d1d1d1"
     showgrid="false"
     inkscape:zoom="8.9166667"
     inkscape:cx="48.112149"
     inkscape:cy="48.168224"
     inkscape:window-width="1920"
     inkscape:window-height="1020"
     inkscape:window-x="0"
     inkscape:window-y="32"
     inkscape:window-maximized="1"
     inkscape:current-layer="Layer_1" />
  <defs
     id="defs4">
    <style
       id="style2">
      .cls-1 {
        fill: #474644;
      }

      .cls-2 {
        fill: #68c9a6;
      }

      .cls-3 {
        fill: #0d070b;
      }

      .cls-4 {
        fill: #f3bc42;
      }

      .cls-5 {
        fill: #bc8a17;
      }

      .cls-6 {
        fill: #b4189d;
      }

      .cls-7 {
        fill: #fefefd;
      }

      .cls-8 {
        fill: #7209b1;
      }

      .cls-9 {
        fill: #030303;
      }

      .cls-10 {
        fill: #eedbae;
      }

      .cls-11 {
        fill: #e92a87;
      }

      .cls-12 {
        fill: #2c2e2c;
      }

      .cls-13 {
        fill: #34b688;
      }

      .cls-14 {
        fill: #1c9d6d;
      }

      .cls-15 {
        fill: #c9eadd;
      }

      .cls-16 {
        fill: #a2a2a2;
      }
    </style>
  </defs>
  <path
     class="cls-5"
     d="M52.08,0c.17.39.66.2.96.24v2.4c.43.07,2.54-.1,2.64,0s-.07,2,0,2.4h2.4c.07-.41-.1-2.31,0-2.4.25-.25,2.7.59,2.64-.72.94.26,1.5.42,2.4.72v2.4s-2.4,0-2.4,0c.22,2.89.01,2.61-2.64,2.78v2.26c4.03-.84,2.13,2.13,2.64,2.64.11.11,2.29-.11,2.4,0s-.11,2.29,0,2.4c.09.09,2.55.09,2.64,0,.11-.11-.11-2.29,0-2.4.46-.46,3.19,1.28,2.4-2.64h2.64s0-2.4,0-2.4c-4.03.83-2.13-2.13-2.64-2.64-.09-.09-2,.07-2.4,0v-1.44c3.01,1.19,4.93,2.1,7.68,3.84l-.24,2.64h2.64c.07.43-.1,2.54,0,2.64.11.11,2.29-.11,2.4,0s-.11,2.29,0,2.4c.1.1,2.21-.07,2.64,0v-1.68c.6.59,2.05,1.39,2.51,2.4.23.51.06,1.61.12,1.68.04.04.85-.02,1.21.11,1.56.52,1.06,2.37,1.2,2.52.04.05.7-.04,1.21.35.58.46,1.02,1.67,1.42,2.3-.36.27-.33,2.32-.24,2.4s1.35-.06,1.68,0c1.52,2.85,2.39,5.09,3.36,8.16v1.92c-.4.07-2.31-.1-2.4,0s.07,2.21,0,2.64h-2.64s0,2.4,0,2.4h2.64c.07.43-.1,2.54,0,2.64.11.11,2.29-.11,2.4,0,.09.09-.07,2,0,2.4h2.4c.05.87,0,1.77,0,2.64-.41.07-2.31-.09-2.4,0-.14.14.21,1.96-.1,2.42-.34.49-2.15.08-2.3.22-.11.11.11,2.29,0,2.4-.1.1-2.21-.07-2.64,0-.83,4.03,2.13,2.13,2.64,2.64.11.11-.11,2.29,0,2.4s2.29-.11,2.4,0c.25.25-.59,2.69.72,2.64-.49,1.83-1.27,3.38-1.92,5.04-2.15-.65-.79,1.99-1.2,2.4-.1.1-2.21-.07-2.64,0v2.64s1.68,0,1.68,0c-.51.96-1.14,1.77-1.68,2.64-.26-.36-2.32-.33-2.4-.24-.1.1.07,2.21,0,2.64h-2.64c.06.4-.09,2.32,0,2.4.12.11,1.24-.24,1.44.24-1.03,1.2-1.8,3.29-3.84,2.4.09-2.54,0-5.13,0-7.68h2.4c.07-.4-.1-2.31,0-2.4.15-.15,2.59.22,2.65-.14v-2.5c-.43-.07-2.55.1-2.65,0s.07-2,0-2.4h-2.4c-.01-.88,0-1.76,0-2.64-1.68.02-3.36-.02-5.04,0,.02.88,0,1.76,0,2.64-.88-.02-1.76,0-2.64,0-.02.8.01,1.6,0,2.4-.8,0-1.6-.01-2.4,0,.01-.8,0-1.6,0-2.4h2.4c.02-.88-.01-1.76,0-2.64.88,0,1.76.01,2.64,0,0-.39.09-2.32,0-2.4-.51-.51-3.47,1.39-2.64-2.64h-2.4c0,.8.01,1.6,0,2.4h-2.64c0-1.52.01-3.04,0-4.56,0-.08,0-.16,0-.24h2.64s0-2.5,0-2.5c-.04-.26-2.21-.12-2.64-.14,0-1.52,0-3.04,0-4.56v-.48c.86.02,1.87.14,2.64-.24.01.96,0,1.92,0,2.88h2.4s0-2.64,0-2.64c.88,0,1.76.01,2.64,0,.8-.01,1.6-.01,2.4,0,0,.42.09,2.55,0,2.64-.11.11-2.29-.11-2.4,0s.11,2.29,0,2.4c-.1.1-2.21-.07-2.64,0-.83,4.02,2.13,2.13,2.64,2.64.11.11-.11,2.29,0,2.4s2.29-.11,2.4,0c.27.27-.58,2.41.6,2.64,3.31.64,1.57-2.18,2.04-2.64.11-.11,2.29.11,2.4,0s-.11-2.29,0-2.4c.1-.1,2.21.07,2.64,0v-2.64c-.43-.07-2.54.1-2.64,0-.11-.11.11-2.29,0-2.4-.46-.46-3.19,1.28-2.4-2.64-.88,0-1.76.01-2.64,0,.02-.8-.01-1.6,0-2.4h2.64c0-.87-.01-1.76,0-2.64.41-.07,2.31.09,2.4,0,.51-.51-1.39-3.47,2.64-2.64v-2.4c-4.03.84-2.13-2.13-2.64-2.64-.11-.11-2.29.11-2.4,0s.11-2.29,0-2.4c-.1-.1-2.43.07-2.88,0,.2.78.2,1.59.24,2.4h-2.4c0,.24,0,.48,0,.72-.73-.08-1.75-.63-2.4-.72h2.4c0-.8.01-1.6,0-2.4-.01-.88,0-1.76,0-2.64-.43-.07-2.54.1-2.64,0s.07-2,0-2.4h-2.26c-.36.05.01,2.25-.14,2.4-.1.1-2.21-.07-2.64,0v2.64c-1.68,0-3.36,0-5.04,0,0-.88.02-1.76,0-2.64.44-.07,2.55.1,2.64,0,.11-.11-.11-2.29,0-2.4s2.29.11,2.4,0c.51-.51-1.39-3.47,2.64-2.64v-2.4c-4.03.84-2.13-2.13-2.64-2.64-.11-.11-2.29.11-2.4,0s.11-2.29,0-2.4c-.1-.1-2.09.08-2.5,0-.36.05.01,2.26-.14,2.4-.09.09-2-.07-2.4,0,.2,3.13-.02,2.59-2.64,2.64-1.67.03-3.36,0-5.04,0-.07-.44.1-2.55,0-2.64-.11-.11-2.29.11-2.4,0-.15-.15.22-2.35-.14-2.4-.42.08-2.41-.09-2.5,0-.11.11.11,2.29,0,2.4-.1.1-2.21-.07-2.64,0,0,.88.01,1.76,0,2.64-.8,0-1.6,0-2.4,0-.08,0-.16,0-.24,0-.96,0-1.92,0-2.88,0-.16,0-.32,0-.48,0-.48,0-.96,0-1.44,0v-2.64c-3.92.79-2.17-1.94-2.64-2.4-.09-.09-2,.07-2.4,0-.07.41.1,2.31,0,2.4s-2.21-.07-2.64,0c-.07.43.1,2.54,0,2.64s-2-.07-2.4,0v2.4c.41.07,2.31-.1,2.4,0s0,2.22,0,2.64c.01.8,0,1.6,0,2.4h-2.4c-.07-.4.1-2.31,0-2.4s-2.55-.09-2.64,0c-.11.11.11,2.29,0,2.4s-2.29-.11-2.4,0c-.09.09.07,2.2,0,2.64-1.68,0-3.36,0-5.04,0-.01.8.02,1.6,0,2.4-.88.01-1.76,0-2.64,0,0,.88.01,1.76,0,2.64-.8,0-1.6,0-2.4,0,.02,1.68-.02,3.36,0,5.04-.44.07-2.55-.1-2.64,0-.11.11.11,2.29,0,2.4s-2.29-.11-2.4,0c-.09.09-.09,2.55,0,2.64.11.11,2.29-.11,2.4,0,.42.41-.94,2.62,1.08,2.66,2.85.06,1.01-2.12,1.56-2.66.08-.08,2.01.01,2.4,0,.8-.02,1.6.01,2.4,0,.42-.14.23-1.21.24-1.68,0-.16-.02-.32,0-.48.02-.2,0-.41.24-.48.24,0,.48,0,.72,0,.13,0,.35,0,.48,0,.98.01,2.49-.15,3.36,0,.05,0,.15.19.24.24-.03.13,0,.32,0,.48-.42.35-.38,1.31,0,1.68.46.45,1.09.18,1.68.24.24.02.48-.02.72,0v5.04c-.24.06-2.32.09-2.4,0-.09-.09.07-2,0-2.4-2.89.22-2.61.01-2.78-2.64h-2.26c.84,4.03-2.13,2.13-2.64,2.64-.11.11.11,2.29,0,2.4s-2.29-.11-2.4,0c-.09.09-.09,2.55,0,2.64.11.11,2.29-.11,2.4,0s-.11,2.29,0,2.4c.1.1,2.21-.07,2.64,0v2.64s2.4,0,2.4,0v-2.64c.87-.01,1.76.02,2.64,0,0,.08,0,.16,0,.24.11,2.42,0,5,0,7.44h-2.64s0-2.64,0-2.64h-2.4v2.64c-.43.07-2.54-.1-2.64,0-.11.11.11,2.29,0,2.4s-2.29-.11-2.4,0c-.1.1.08,2.09,0,2.5.05.36,2.26-.01,2.41.14.09.09-.07,2,0,2.4,2.89-.22,2.61-.01,2.78,2.64h2.26c-.83-4.03,2.13-2.13,2.64-2.64.08-.08,0-2.01,0-2.4.8,0,1.6,0,2.4,0,0,.8.01,1.6,0,2.4,0,.42.09,2.55,0,2.64s-2-.07-2.4,0v2.4h2.4c-.2,3.14.02,2.58,2.64,2.64,0-.88,0-1.76,0-2.64h2.4c0,.88,0,1.76,0,2.64-.8,0-1.6.02-2.4,0,0,.72,0,1.44,0,2.16-.78.13-1.55.4-2.4.24-.08,0-.16,0-.24,0-.45-.04-2.32.09-2.4,0-.11-.11.11-2.29,0-2.4-.1-.1-2.21.07-2.64,0v-2.64s-2.4,0-2.4,0v2.64s-2.64,0-2.64,0c.06.61-.08,1.33,0,1.92-.91-.27-2.26-1.75-2.4-2.64-.09-.58.06-1.32,0-1.92h2.4s0-2.4,0-2.4c-.41-.07-2.31.1-2.4,0s.07-2.21,0-2.64h-2.5c-.27.04-.11,1.88-.14,2.29-.05.68-.59.25-.96.35-.68-.95-1.21-1.48-1.92-2.64.73.13.45-.37.48-.83.02-.32-.06-1.52,0-1.57.11-.11,2.29.11,2.4,0,.09-.09.09-2.55,0-2.64-.11-.11-2.29.11-2.4,0s.11-2.29,0-2.4c-.1-.1-2.21.07-2.64,0v-2.64s-2.64,0-2.64,0c-.6-1.85-.83-3.2-1.2-5.04,2.33-.61,1.09,2.3,1.44,2.64.09.09,2-.07,2.4,0v-2.64c.43-.07,2.54.1,2.64,0,.11-.11-.11-2.29,0-2.4s2.29.11,2.4,0c.09-.09.09-2.55,0-2.64-.11-.11-2.29.11-2.4,0s.11-2.29,0-2.4c-.1-.1-2.21.07-2.64,0v-2.64c-.4.07-2.31-.09-2.4,0-.16.16.28,2.18-.22,2.53-.76.19-1.7.23-2.42-.13v-6.96c.24-.06.21-.28.24-.48,3.62-.76,1.95,1.96,2.4,2.4.09.09,2-.07,2.4,0,.07-.41-.1-2.31,0-2.4s2.21.07,2.64,0c.07-.43-.1-2.54,0-2.64s2,.07,2.4,0v-2.4c-3.92.79-2.18-1.94-2.64-2.4-.11-.11-2.29.11-2.4,0-.1-.1.07-2.21,0-2.64-.41.07-2.31-.09-2.4,0-.28.28.69,2.95-.96,2.64.6-2.31,1.06-3.2,1.92-5.28h1.44c.07-.4-.1-2.31,0-2.4.14-.14,2.03.18,2.37-.03.44-.28.18-2.51.27-2.61s2,.07,2.4,0v-2.4c-.52-.02-1.05.03-1.57,0-.46-.03-.96.25-.83-.48.91-1.45,1.26-2.12,2.4-3.6v1.44c.43-.07,2.55.1,2.64,0,.11-.11-.11-2.29,0-2.4s2.29.11,2.4,0c.1-.1-.07-2.21,0-2.64h-1.92c.94-.99,1.34-1.42,2.4-2.4h2.16s0,2.4,0,2.4h2.4s0-2.4,0-2.4c4.03.84,2.13-2.13,2.64-2.64.09-.09,2,.07,2.4,0v-2.4c-.52-.02-1.05.03-1.57,0-.46-.03-.96.25-.83-.48,5.26-3.14,9.04-4.7,15.12-6v1.44c.4.07,2.31-.1,2.4,0,.11.11-.11,2.29,0,2.4.09.09,2.55.09,2.64,0,.11-.11-.11-2.29,0-2.4s2.29.11,2.4,0c.09-.09-.07-2.2,0-2.64h6.72ZM35.28,2.64h-2.4c-.07.41.1,2.31,0,2.4s-2.21-.07-2.64,0c-.07.43.1,2.54,0,2.64s-2-.07-2.4,0v2.4c.41.07,2.31-.1,2.4,0,.51.51-1.39,3.47,2.64,2.64v2.4s2.4,0,2.4,0v-2.4c4.03.83,2.12-2.13,2.64-2.64.09-.09,2,.07,2.4,0v-2.4c-.41-.07-2.31.1-2.4,0s.07-2.21,0-2.64c-.43-.07-2.54.1-2.64,0s.07-2,0-2.4ZM50.64,2.64c-.09-.09-2.55-.09-2.64,0-.11.11.11,2.29,0,2.4-.1.1-2.21-.07-2.64,0-.07.43.1,2.54,0,2.64s-2-.07-2.4,0v2.4h2.4c-.83,4.03,2.13,2.12,2.64,2.64.11.11-.11,2.29,0,2.4.09.09,2.55.09,2.64,0,.11-.11-.11-2.29,0-2.4s2.29.11,2.4,0c.1-.1-.07-2.21,0-2.64h2.64s0-2.4,0-2.4h-2.64c-.07-.43.1-2.54,0-2.64-.11-.11-2.29.11-2.4,0s.11-2.29,0-2.4ZM27.84,12.71c-.09-.09-2.55-.09-2.64,0-.11.11.11,2.29,0,2.4s-2.29-.11-2.4,0c-.09.09-.09,2.55,0,2.64.11.11,2.29-.11,2.4,0s-.11,2.29,0,2.4c.09.09,2.55.09,2.64,0,.11-.11-.11-2.29,0-2.4s2.29.11,2.4,0c.09-.09.09-2.55,0-2.64-.11-.11-2.29.11-2.4,0s.11-2.29,0-2.4ZM42.96,12.71c-.09-.09-2.55-.09-2.64,0-.11.11.11,2.29,0,2.4s-2.29-.11-2.4,0c-.09.09-.09,2.55,0,2.64.11.11,2.29-.11,2.4,0s-.11,2.29,0,2.4c.09.09,2.55.09,2.64,0,.11-.11-.11-2.29,0-2.4s2.29.11,2.4,0c.09-.09.09-2.55,0-2.64-.11-.11-2.29.11-2.4,0s.11-2.29,0-2.4ZM58.08,12.71h-2.4c-.07.41.1,2.31,0,2.4s-2.21-.07-2.64,0v2.64c.43.07,2.54-.1,2.64,0s-.07,2,0,2.4h2.4c.07-.41-.1-2.31,0-2.4.46-.46,3.28,1.27,2.64-2.04-.23-1.17-2.37-.33-2.64-.6-.09-.09.07-2,0-2.4ZM73.2,12.71h-2.4c-.07.41.1,2.31,0,2.4s-2.21-.07-2.64,0v2.64c.43.07,2.54-.1,2.64,0s-.07,2,0,2.4h2.4c.07-.41-.1-2.31,0-2.4s2.21.07,2.64,0v-2.64c-.43-.07-2.54.1-2.64,0s.07-2,0-2.4ZM20.16,17.75h-2.4c-.07.41.1,2.31,0,2.4s-2.21-.07-2.64,0c-.07.43.1,2.54,0,2.64s-2-.07-2.4,0v2.4c.41.07,2.31-.1,2.4,0s-.07,2.21,0,2.64c.43.07,2.54-.1,2.64,0s-.07,2,0,2.4h2.4c.07-.41-.1-2.31,0-2.4.51-.51,3.47,1.39,2.64-2.64h2.4s0-2.4,0-2.4c-.41-.07-2.31.1-2.4,0s.07-2.21,0-2.64c-.43-.07-2.54.1-2.64,0s.07-2,0-2.4ZM80.88,17.75c-.09-.09-2.55-.09-2.64,0-.11.11.11,2.29,0,2.4s-2.29-.11-2.4,0c-.1.1.07,2.21,0,2.64h-2.64s0,2.4,0,2.4h2.64c.07.43-.1,2.54,0,2.64.11.11,2.29-.11,2.4,0s-.11,2.29,0,2.4c.09.09,2.55.09,2.64,0,.11-.11-.11-2.29,0-2.4s2.29.11,2.4,0c.51-.51-1.39-3.47,2.64-2.64v-2.4c-4.03.84-2.13-2.13-2.64-2.64-.11-.11-2.29.11-2.4,0s.11-2.29,0-2.4ZM12.72,27.82c-.09-.09-2.55-.09-2.64,0-.11.11.11,2.29,0,2.4s-2.29-.11-2.4,0c-.09.09-.09,2.55,0,2.64.11.11,2.29-.11,2.4,0s-.11,2.29,0,2.4c.09.09,2.55.09,2.64,0,.11-.11-.11-2.29,0-2.4s2.29.11,2.4,0c.09-.09.09-2.55,0-2.64-.11-.11-2.29.11-2.4,0s.11-2.29,0-2.4ZM88.32,27.82h-2.4c-.07.41.1,2.31,0,2.4-.46.46-3.28-1.27-2.64,2.04.23,1.17,2.37.33,2.64.6.09.09-.07,2,0,2.4h2.4c.07-.41-.1-2.31,0-2.4s2.21.07,2.64,0v-2.64c-.43-.07-2.54.1-2.64,0s.07-2,0-2.4ZM88.32,42.94h-2.4c-.07.41.1,2.31,0,2.4-.51.51-3.48-1.38-2.64,2.64.43.07,2.54-.1,2.64,0s-.07,2,0,2.4h2.4c.07-.41-.1-2.31,0-2.4s2.21.07,2.64,0v-2.64c-.43-.07-2.54.1-2.64,0s.07-2,0-2.4ZM12.72,60.69c-.52-.51,1.39-3.47-2.64-2.64-.07.43.1,2.54,0,2.64s-2-.07-2.4,0v2.4c.41.07,2.31-.1,2.4,0s-.07,2.21,0,2.64c4.03.83,2.13-2.13,2.64-2.64.09-.09,2,.07,2.4,0v-2.4c-.41-.07-2.31.1-2.4,0ZM88.32,58.05c-.09-.08-2.32-.08-2.4,0-.51.51,1.39,3.47-2.64,2.64v2.4s2.64,0,2.64,0v2.64s2.4,0,2.4,0v-2.64s2.64,0,2.64,0v-2.4c-4.03.83-2.13-2.13-2.64-2.64Z"
     id="path6" />
  <path
     class="cls-15"
     d="M60.72,85.88c-.56,0-5.01-.11-5.04.14v2.26s5.04,0,5.04,0c-.07.82,0,1.79,0,2.64,0,1.04,0,2.08,0,3.12-3.09.85-6.19,1.71-9.36,1.92-2.34.16-4.84-.11-7.2,0l-.38-.22c-2.87-.11-5.75-.72-8.5-1.46v-6c.88.02,1.76.01,2.64,0,.02.88-.01,1.76,0,2.64,1.68,0,3.36,0,5.04,0,.01.8-.01,1.6,0,2.4h5.04c.01-.8-.01-1.6,0-2.4,2.56-.01,5.12,0,7.68,0-.03-.48.19-2.64-.36-2.64h-4.68v-2.4c.16-.16,3.82.1,4.56,0l.12.24.12-.24c.43-.21.23-2.08.24-2.64.82,0,4.46-.14,4.82.1.38.27.22,1.95.22,2.53Z"
     id="path14" />
  <path
     class="cls-10"
     d="M0,50.37c.72.36,1.65.33,2.42.13.51-.35.06-2.38.22-2.53.09-.09,2,.07,2.4,0v2.64c.43.07,2.54-.1,2.64,0,.11.11-.11,2.29,0,2.4s2.29-.11,2.4,0c.09.09.09,2.55,0,2.64-.11.11-2.29-.11-2.4,0s.11,2.29,0,2.4c-.1.1-2.21-.07-2.64,0v2.64c-.4-.07-2.31.09-2.4,0-.34-.34.89-3.25-1.44-2.64-.17-.82-.51-1.69-.65-2.59-.21-1.36-.2-2.83-.55-4.13v-.96ZM5.04,53.01c-1.63.15-2.59-.71-2.59,1.32s.96,1.17,2.59,1.32v-2.64Z"
     id="path16" />
  <path
     class="cls-10"
     d="M45.36,0c-.07.44.1,2.55,0,2.64-.11.11-2.29-.11-2.4,0s.11,2.29,0,2.4c-.09.09-2.55.09-2.64,0-.11-.11.11-2.29,0-2.4-.09-.09-2,.07-2.4,0v-1.44c.21-.04.6-.41.94-.37l5.06-.83h1.44Z"
     id="path18" />
  <path
     class="cls-9"
     d="M75.84,37.9c0,.08,0,.16,0,.24s0,.16,0,.24c-.4.25-.24.91-.24,1.32-.02,1.82-.1,3.85,0,5.64h-4.8c-.01.72,0,1.44,0,2.16-1.27.15-2.19-.09-3.36-.48v.96c.24.01.48,0,.72,0v.48c-.37.73-.49,1.11-1.44.96-.25.6.34.4.42.53.58.9-.65,2.33-.2,2.93.29.29.83.13,1.22.14,0,.88,0,1.76,0,2.64,0,.08,0,.16,0,.24-.46.09-.9-.34-.95.37-.06.86-.51,1.66-1.45,1.78-.23.03-.48-.01-.72,0l-1.2-.24.24-2.16c.36-.06.82.04,1.2,0,.17.35.69,1.68,1.2,1.2.25-.24-.37-.9-.41-1.12-.07-.44.67-1.67-.31-1.52,0-.16,0-.32,0-.48.75.13.71-.63,0-.48,0-.24,0-.48,0-.72s0-.48,0-.72c0-.08,0-.16,0-.24.81.11.36-.28.39-.68.04-.57.25-2.62.03-2.87-.1-.11-.4-.03-.42-.05-.08-.13.16-.7-.12-.73l-14.86.04c-.35.12-.34.39-.38.69-.07.51-.13,1.59.24,1.92,0,.16,0,.32,0,.48-.33.29-.33.66,0,.96-.02.4.01.8,0,1.2,0,.03-.23.27-.25.58-.03.62-.05,1.45,0,2.06l-.24.24c-.34-.07-1.53.1-1.68,0-.05-.04.06-.42,0-.48s-.42.05-.48,0c-.03-.03.02-.34,0-.48,2.2-.67.37-.65.28-.75-.16-.18.08-.78-.28-.93,0-.8,0-1.6,0-2.4h-7.68c-.15,1.5.2,3.35,0,4.8,0,.02-.17.1-.24.24-.03.07.04.2,0,.24h-1.92v-.24c0-.46.41-.97.42-1.36.02-.36-.31-.63-.31-.9,0-2.11.07-4.25.13-6.37-.71.07-.7.62-1.55.73-1.89.24-5.44.07-7.46,0-.36-.01-1.45-.33-1.54-.25-.09.08.06.61,0,.71-.01.02-.34-.05-.4.07-.66,1.33-.33,1.27-.15,2.25s-.77,1.14-.88,1.4c-.26.64.4.53.46.76.15.55.54,3.5.52,4.04,0,.15-.83,1-.75,1.55h-1.2c.55-.73.34-1.47.23-2.28-.06-.45.29-.97-.47-.84,0-.64,0-1.28,0-1.92.91-.22.31-2.69.46-3.47.06-.29.7.02.75-.26.21-1.11-.2-1.2-1.22-1.31-.24-.02-.48.02-.72,0-.14-.74-1.35-.39-1.44-.48-.08-.08.31-1.75,0-2.16.48-.12,1.56.01,2.16,0,13.5-.23,27.06,0,40.56,0h5.04c0-.39-.09-2.32,0-2.4.11-.11,2.29.11,2.4,0,.17-.17-.13-4.12,0-4.8v-.24h2.64ZM67.2,53.73c-.26-.26-.74.22-.48.48s.74-.22.48-.48Z"
     id="path20" />
  <path
     class="cls-10"
     d="M50.64,2.64c.11.11-.11,2.29,0,2.4s2.29-.11,2.4,0c.1.1-.07,2.21,0,2.64h2.64s0,2.4,0,2.4h-2.64c-.07.43.1,2.54,0,2.64-.11.11-2.29-.11-2.4,0s.11,2.29,0,2.4c-.09.09-2.55.09-2.64,0-.11-.11.11-2.29,0-2.4-.51-.51-3.47,1.39-2.64-2.64h-2.4s0-2.4,0-2.4c.41-.07,2.31.1,2.4,0s-.07-2.21,0-2.64c.43-.07,2.54.1,2.64,0,.11-.11-.11-2.29,0-2.4.09-.09,2.55-.09,2.64,0ZM50.64,7.67h-2.64v2.4h2.64v-2.4Z"
     id="path22" />
  <path
     class="cls-10"
     d="M58.08,22.79c2.62-.05,2.83.49,2.64-2.64.41-.07,2.31.1,2.4,0,.15-.15-.22-2.35.14-2.4.42.08,2.41-.09,2.5,0,.11.11-.11,2.29,0,2.4s2.29-.11,2.4,0c.51.51-1.39,3.47,2.64,2.64v2.4c-4.03-.84-2.13,2.13-2.64,2.64-.11.11-2.29-.11-2.4,0s.11,2.29,0,2.4c-.09.09-2.2-.07-2.64,0-.01-.8.01-1.6,0-2.4-.79.04-1.61-.06-2.4,0-.02-.88.01-1.76,0-2.64-.88,0-1.76.01-2.64,0v-2.4ZM65.76,22.79h-2.64v2.4h2.64v-2.4Z"
     id="path24" />
  <path
     class="cls-10"
     d="M80.88,17.75c.11.11-.11,2.29,0,2.4s2.29-.11,2.4,0c.51.51-1.39,3.47,2.64,2.64v2.4c-4.03-.84-2.13,2.13-2.64,2.64-.11.11-2.29-.11-2.4,0s.11,2.29,0,2.4c-.09.09-2.55.09-2.64,0-.11-.11.11-2.29,0-2.4s-2.29.11-2.4,0c-.1-.1.07-2.21,0-2.64h-2.64s0-2.4,0-2.4h2.64c.07-.43-.1-2.54,0-2.64.11-.11,2.29.11,2.4,0s-.11-2.29,0-2.4c.09-.09,2.55-.09,2.64,0ZM80.88,22.79h-2.64v2.4h2.64v-2.4Z"
     id="path26" />
  <path
     class="cls-10"
     d="M20.16,17.75c.07.41-.1,2.31,0,2.4s2.21-.07,2.64,0c.07.43-.1,2.54,0,2.64s2-.07,2.4,0v2.4h-2.4c.83,4.03-2.13,2.12-2.64,2.64-.09.09.07,2,0,2.4h-2.4c-.07-.41.1-2.31,0-2.4s-2.21.07-2.64,0c-.07-.43.1-2.54,0-2.64s-2,.07-2.4,0v-2.4c.41-.07,2.31.1,2.4,0s-.07-2.21,0-2.64c.43-.07,2.54.1,2.64,0s-.07-2,0-2.4h2.4ZM20.16,22.79h-2.4v2.4h2.4v-2.4Z"
     id="path28" />
  <path
     class="cls-10"
     d="M35.28,2.64c.07.41-.1,2.31,0,2.4s2.21-.07,2.64,0c.07.43-.1,2.54,0,2.64s2-.07,2.4,0v2.4c-.41.07-2.31-.1-2.4,0-.51.51,1.39,3.47-2.64,2.64v2.4s-2.4,0-2.4,0v-2.4c-4.03.83-2.12-2.13-2.64-2.64-.09-.09-2,.07-2.4,0v-2.4c.41-.07,2.31.1,2.4,0s-.07-2.21,0-2.64c.43-.07,2.54.1,2.64,0s-.07-2,0-2.4h2.4ZM35.28,7.67h-2.4v2.4h2.4v-2.4Z"
     id="path30" />
  <path
     class="cls-10"
     d="M78.24,47.98c.88.01,1.76,0,2.64,0-.79,3.92,1.94,2.17,2.4,2.64.11.11-.11,2.29,0,2.4.1.1,2.21-.07,2.64,0v2.64c-.43.07-2.54-.1-2.64,0-.11.11.11,2.29,0,2.4s-2.29-.11-2.4,0c-.47.46,1.27,3.28-2.04,2.64-1.17-.23-.33-2.37-.6-2.64-.11-.11-2.29.11-2.4,0s.11-2.29,0-2.4c-.51-.51-3.48,1.38-2.64-2.64.43-.07,2.54.1,2.64,0,.11-.11-.11-2.29,0-2.4s2.29.11,2.4,0c.09-.09-.01-2.22,0-2.64ZM80.88,53.01h-2.64v2.64h2.64v-2.64Z"
     id="path32" />
  <path
     class="cls-10"
     d="M22.8,58.05c-.88.02-1.76-.01-2.64,0v2.64s-2.4,0-2.4,0v-2.64c-.43-.07-2.54.1-2.64,0-.11-.11.11-2.29,0-2.4s-2.29.11-2.4,0c-.09-.09-.09-2.55,0-2.64.11-.11,2.29.11,2.4,0s-.11-2.29,0-2.4c.51-.51,3.48,1.39,2.64-2.64h2.26c.17,2.65-.11,2.86,2.78,2.64.07.41-.1,2.31,0,2.4.08.08,2.16.06,2.4,0,0,.64,0,1.28,0,1.92,0,.16,0,.32,0,.48-.18-.02-.41.23-.48.24-.51.06-1.24-.1-1.68,0l-.24.24c-.02.05,0,.15,0,.24-.61.47-.03,1.37,0,1.92ZM20.16,53.01h-2.4v2.64h2.4v-2.64Z"
     id="path34" />
  <path
     class="cls-10"
     d="M65.76,3.6v1.44c.4.07,2.31-.1,2.4,0,.51.51-1.39,3.47,2.64,2.64v2.4s-2.64,0-2.64,0c.79,3.92-1.94,2.17-2.4,2.64-.11.11.11,2.29,0,2.4-.09.09-2.55.09-2.64,0-.11-.11.11-2.29,0-2.4s-2.29.11-2.4,0c-.51-.51,1.39-3.47-2.64-2.64v-2.26c2.65-.17,2.86.11,2.64-2.78h2.4s0-2.4,0-2.4c1.01.34,1.67.58,2.64.96ZM65.76,7.67h-2.64v2.4h2.64v-2.4Z"
     id="path36" />
  <path
     class="cls-10"
     d="M22.8,70.76c0,.39.09,2.32,0,2.4-.51.51-3.47-1.39-2.64,2.64h-2.26c-.17-2.65.11-2.86-2.78-2.64-.07-.41.1-2.31,0-2.4-.15-.15-2.35.22-2.41-.14.08-.42-.09-2.41,0-2.5.11-.11,2.29.11,2.4,0s-.11-2.29,0-2.4c.1-.1,2.21.07,2.64,0v-2.64s2.4,0,2.4,0v2.64s2.64,0,2.64,0c0,1.67.03,3.36,0,5.04ZM20.16,68.12h-2.4v2.64h2.4v-2.64Z"
     id="path38" />
  <path
     class="cls-10"
     d="M1.68,35.5c1.65.31.68-2.36.96-2.64.09-.09,2,.07,2.4,0,.07.43-.1,2.54,0,2.64.11.11,2.29-.11,2.4,0,.46.46-1.28,3.19,2.64,2.4v2.4c-.41.07-2.31-.1-2.4,0s.07,2.21,0,2.64c-.43.07-2.54-.1-2.64,0s.07,2,0,2.4c-.41-.07-2.31.09-2.4,0-.44-.44,1.22-3.16-2.4-2.4.36-2.64.77-4.86,1.44-7.44ZM5.04,37.9h-2.4v2.4h2.4v-2.4Z"
     id="path40" />
  <path
     class="cls-9"
     d="M75.84,63.09c1.68-.02,3.36.02,5.04,0,0,.88-.01,1.76,0,2.64.04,2.47,0,4.96,0,7.44s.09,5.13,0,7.68c-.02.6.15,1.71-.12,2.16-.07.11-1.63,1.44-1.92,1.69-.2.18-.52.17-.6.23v-19.19c-.8,0-1.6.02-2.4,0,0-.88.02-1.76,0-2.64Z"
     id="path42" />
  <path
     class="cls-10"
     d="M15.12,82.76c-.08-.59.06-1.31,0-1.92h2.64s0-2.64,0-2.64h2.4v2.64c.43.07,2.54-.1,2.64,0,.11.11-.11,2.29,0,2.4.08.08,1.95-.04,2.4,0,0,.88,0,1.76,0,2.64h-2.4s.24,2.4.24,2.4c-.23.06-.57-.09-.72.24-1.24-.79-2.65-1.47-3.6-2.64.43.07.98-.05,1.44,0v-2.64s-2.4,0-2.4,0v1.92c-.65-.45-2.54-1.72-2.64-2.4Z"
     id="path44" />
  <path
     class="cls-10"
     d="M30.24,27.83c0-.42.09-2.55,0-2.64s-2,.07-2.4,0v-2.4c.41-.07,2.31.1,2.4,0s-.07-2.21,0-2.64c.43-.07,2.54.1,2.64,0s-.07-2,0-2.4c.41.07,2.31-.09,2.4,0,.46.46-1.28,3.19,2.64,2.4v2.64c-.16,0-.32,0-.48,0-.08-.36-.86-.37-.96,0-.24,0-.48,0-.72,0-.16,0-.32,0-.48,0-.8.02-1.6-.01-2.4,0,0,.8.02,1.6,0,2.4-.02.88,0,1.76,0,2.64h-2.64Z"
     id="path46" />
  <path
     class="cls-10"
     d="M95.76,47.98c0,1.74-.07,3.31-.24,5.04h-2.16s0,2.64,0,2.64h1.68c-.28,1.73-.5,3.32-.96,5.04-1.31.05-.47-2.39-.72-2.64-.11-.11-2.29.11-2.4,0s.11-2.29,0-2.4c-.51-.51-3.47,1.39-2.64-2.64.43-.07,2.54.1,2.64,0,.11-.11-.11-2.29,0-2.4.15-.15,1.95.27,2.3-.22.32-.45-.04-2.27.1-2.42.09-.09,1.99.07,2.4,0Z"
     id="path48" />
  <path
     class="cls-10"
     d="M94.56,37.9c-1.92-.4-1.02,1.07-1.2,2.4h1.68c.27,1.67.63,3.33.72,5.04h-2.4c-.07-.4.1-2.31,0-2.4-.11-.11-2.29.11-2.4,0-.1-.1.07-2.21,0-2.64h-2.64s0-2.4,0-2.4h2.64c.07-.43-.1-2.54,0-2.64s2,.07,2.4,0v-1.92c.55,1.74.82,2.78,1.2,4.56Z"
     id="path50" />
  <path
     class="cls-10"
     d="M78.24,35.26c-.04-.81-.04-1.62-.24-2.4.45.07,2.78-.11,2.88,0,.11.11-.11,2.29,0,2.4s2.29-.11,2.4,0c.51.51-1.39,3.47,2.64,2.64v2.4c-4.03-.83-2.13,2.13-2.64,2.64-.09.09-1.99-.07-2.4,0,.02-1.68-.02-3.36,0-5.04h-2.64c-.03-.87.04-1.76,0-2.64Z"
     id="path52" />
  <path
     class="cls-3"
     d="M78.24,35.26c.04.87-.03,1.77,0,2.64h2.64c-.02,1.67.02,3.36,0,5.04-.01.88,0,1.76,0,2.64h-2.64c-.01.79.02,1.6,0,2.4-.8-.01-1.6-.01-2.4,0-.04-.68.07-1.38,0-2.06-.03-.31-.25-.55-.25-.58-.11-1.79-.03-3.82,0-5.64,0-.41-.15-1.07.24-1.32.01,2.32,0,4.64,0,6.96h2.4v-7.2c0-.12-2.09.09-2.4,0,0-.08,0-.16,0-.24,0-.16,0-.32,0-.48s0-.32,0-.48v-.48c0-.16,0-.32,0-.48,0-.24,0-.48,0-.72h2.4Z"
     id="path54" />
  <path
     class="cls-10"
     d="M22.8,7.2c-.13.73.37.45.83.48.52.03,1.05-.02,1.57,0v2.4c-.41.07-2.31-.1-2.4,0-.51.51,1.39,3.47-2.64,2.64v2.4s-2.4,0-2.4,0v-2.4s-2.16,0-2.16,0c1.16-1.07,1.91-1.7,3.12-2.64h1.44s0-1.2,0-1.2c.94-.67,1.67-1.1,2.64-1.68Z"
     id="path56" />
  <path
     class="cls-10"
     d="M27.84,12.71c.11.11-.11,2.29,0,2.4s2.29-.11,2.4,0c.09.09.09,2.55,0,2.64-.11.11-2.29-.11-2.4,0s.11,2.29,0,2.4c-.09.09-2.55.09-2.64,0-.11-.11.11-2.29,0-2.4s-2.29.11-2.4,0c-.09-.09-.09-2.55,0-2.64.11-.11,2.29.11,2.4,0s-.11-2.29,0-2.4c.09-.09,2.55-.09,2.64,0Z"
     id="path58" />
  <path
     class="cls-10"
     d="M42.96,12.71c.11.11-.11,2.29,0,2.4s2.29-.11,2.4,0c.09.09.09,2.55,0,2.64-.11.11-2.29-.11-2.4,0s.11,2.29,0,2.4c-.09.09-2.55.09-2.64,0-.11-.11.11-2.29,0-2.4s-2.29.11-2.4,0c-.09-.09-.09-2.55,0-2.64.11-.11,2.29.11,2.4,0s-.11-2.29,0-2.4c.09-.09,2.55-.09,2.64,0Z"
     id="path60" />
  <path
     class="cls-10"
     d="M12.72,27.82c.11.11-.11,2.29,0,2.4s2.29-.11,2.4,0c.09.09.09,2.55,0,2.64-.11.11-2.29-.11-2.4,0s.11,2.29,0,2.4c-.09.09-2.55.09-2.64,0-.11-.11.11-2.29,0-2.4s-2.29.11-2.4,0c-.09-.09-.09-2.55,0-2.64.11-.11,2.29.11,2.4,0s-.11-2.29,0-2.4c.09-.09,2.55-.09,2.64,0Z"
     id="path62" />
  <path
     class="cls-10"
     d="M12.72,42.94c.01.88,0,1.76,0,2.64.72.01,1.44-.02,2.16,0,.08,0,.16,0,.24,0v2.4c-.39,0-2.32-.09-2.4,0-.55.54,1.29,2.72-1.56,2.66-2.02-.04-.66-2.25-1.08-2.66-.11-.11-2.29.11-2.4,0-.09-.09-.09-2.55,0-2.64.11-.11,2.29.11,2.4,0s-.11-2.29,0-2.4c.09-.09,2.2.07,2.64,0Z"
     id="path64" />
  <path
     class="cls-10"
     d="M73.2,12.71c.07.41-.1,2.31,0,2.4s2.21-.07,2.64,0v2.64c-.43.07-2.54-.1-2.64,0s.07,2,0,2.4h-2.4c-.07-.41.1-2.31,0-2.4s-2.21.07-2.64,0v-2.64c.43-.07,2.54.1,2.64,0s-.07-2,0-2.4h2.4Z"
     id="path66" />
  <path
     class="cls-10"
     d="M88.32,42.94c.07.41-.1,2.31,0,2.4s2.21-.07,2.64,0v2.64c-.43.07-2.54-.1-2.64,0s.07,2,0,2.4h-2.4c-.07-.41.1-2.31,0-2.4s-2.21.07-2.64,0c-.83-4.02,2.13-2.13,2.64-2.64.09-.09-.07-2,0-2.4h2.4Z"
     id="path68" />
  <path
     class="cls-10"
     d="M58.08,12.71c.07.41-.1,2.31,0,2.4.27.27,2.41-.58,2.64.6.64,3.31-2.18,1.57-2.64,2.04-.09.09.07,2,0,2.4h-2.4c-.07-.41.1-2.31,0-2.4s-2.21.07-2.64,0v-2.64c.43-.07,2.54.1,2.64,0s-.07-2,0-2.4h2.4Z"
     id="path70" />
  <path
     class="cls-10"
     d="M88.32,27.82c.07.41-.1,2.31,0,2.4s2.21-.07,2.64,0v2.64c-.43.07-2.54-.1-2.64,0s.07,2,0,2.4h-2.4c-.07-.41.1-2.31,0-2.4-.27-.27-2.41.58-2.64-.6-.64-3.31,2.18-1.57,2.64-2.04.09-.09-.07-2,0-2.4h2.4Z"
     id="path72" />
  <path
     class="cls-10"
     d="M25.68,73.16l.12.24.12-.24h1.92c.02.88-.01,1.76,0,2.64.8.01,1.6-.02,2.4,0v2.4h-2.4c0,.88,0,1.76,0,2.64-2.62-.06-2.83.5-2.64-2.64h-2.4s0-2.4,0-2.4c.41-.07,2.31.1,2.4,0s0-2.22,0-2.64h.48Z"
     id="path74" />
  <path
     class="cls-10"
     d="M12.72,60.69c.09.09,2-.07,2.4,0v2.4c-.41.07-2.31-.1-2.4,0-.51.51,1.39,3.47-2.64,2.64-.07-.43.1-2.54,0-2.64s-2,.07-2.4,0v-2.4c.41-.07,2.31.1,2.4,0s-.07-2.21,0-2.64c4.03-.83,2.12,2.13,2.64,2.64Z"
     id="path76" />
  <path
     class="cls-10"
     d="M2.4,63.09h2.64s0,2.64,0,2.64c.43.07,2.54-.1,2.64,0,.11.11-.11,2.29,0,2.4s2.29-.11,2.4,0c.09.09.09,2.55,0,2.64-.11.11-2.29-.11-2.4,0-.06.06.02,1.25,0,1.57-.03.46.25.96-.48.83-2.08-3.37-3.56-6.28-4.8-10.07Z"
     id="path78" />
  <path
     class="cls-10"
     d="M88.32,58.05c.51.51-1.39,3.47,2.64,2.64v2.4s-2.64,0-2.64,0v2.64s-2.4,0-2.4,0v-2.64s-2.64,0-2.64,0v-2.4c4.03.83,2.13-2.13,2.64-2.64.09-.08,2.32-.08,2.4,0Z"
     id="path80" />
  <path
     class="cls-9"
     d="M53.04,22.79c1.68,0,3.37.03,5.04,0v2.4c-3.99-.06-8,.04-12,0-.24,0-.48,0-.72,0,.01-.8-.01-1.6,0-2.4,2.56,0,5.12.01,7.68,0Z"
     id="path82" />
  <path
     class="cls-9"
     d="M60.72,27.83c.79-.06,1.61.04,2.4,0,0,.8-.02,1.6,0,2.4.02.88,0,1.76,0,2.64,1.68,0,3.36,0,5.04,0h7.68c.01.8,0,1.6,0,2.4h-2.4c-.15-.02-.32.01-.48,0-3-.27-6.74,0-9.84,0-.01-.8,0-1.6,0-2.4-.8,0-1.6,0-2.4,0v-1.68c0-.24,0-.48,0-.72s0-.48,0-.72c0-.32,0-.64,0-.96,0-.24,0-.48,0-.72,0-.08,0-.16,0-.24Z"
     id="path84" />
  <path
     class="cls-9"
     d="M25.2,58.29c-.01,3.27.02,6.56,0,9.83,0,.88,0,1.76,0,2.64-.8,0-1.6,0-2.4,0,.03-1.67,0-3.36,0-5.04,0-2.44.11-5.02,0-7.44.7-.11,1.77.15,2.4,0Z"
     id="path86" />
  <path
     class="cls-9"
     d="M22.8,32.86c2.48-.01,4.96.01,7.44,0,0,.39.09,2.32,0,2.4-.06.05-.93-.03-1.2,0h-.72c-1.68,0-3.36,0-5.04,0-1.52,0-3.04-.01-4.56,0-.32,0-.64,0-.96,0,.02-.8-.02-1.6,0-2.4,1.68,0,3.36,0,5.04,0Z"
     id="path88" />
  <path
     class="cls-3"
     d="M68.16,55.89c0,1.52,0,3.04,0,4.56h2.64c-.03,1.75,0,3.52,0,5.28,0,.8.01,1.6,0,2.4.8-.01,1.6,0,2.4,0,.01-.8-.02-1.6,0-2.4.88,0,1.76-.02,2.64,0,0,.8,0,1.6,0,2.4-.94-.16-1.8.1-2.64.24-.31.05-1.05-.1-1.19.03-.16.15.27,1.14-.49.53-.16-.13-.19-.82-.73.17.01-.32,0-.64,0-.96-.88.01-1.76,0-2.64,0v-7.44c-.41-.07-2.31.09-2.4,0s.07-2.2,0-2.64c.94-.13,1.38-.92,1.45-1.78.05-.71.49-.28.95-.37Z"
     id="path90" />
  <path
     class="cls-10"
     d="M45.36,22.79c.01-.88,0-1.76,0-2.64.43-.07,2.54.1,2.64,0,.11-.11-.11-2.29,0-2.4.1-.1,2.09.08,2.5,0,.36.05-.01,2.26.14,2.4.11.11,2.29-.11,2.4,0,.09.09-.07,2.2,0,2.64-2.56.01-5.12,0-7.68,0-.01.8.01,1.6,0,2.4-.8-.01-1.6.01-2.4,0v-1.68c0-.16,0-.32,0-.48v-.24c.8,0,1.6,0,2.4,0Z"
     id="path92" />
  <path
     class="cls-10"
     d="M68.16,32.86v-2.64c.43-.07,2.54.1,2.64,0,.15-.15-.22-2.35.14-2.4h2.26c.07.41-.1,2.31,0,2.4s2.21-.07,2.64,0c0,.88-.02,1.76,0,2.64h-7.68Z"
     id="path94" />
  <path
     class="cls-10"
     d="M22.8,32.86c.07-.44-.1-2.55,0-2.64.11-.11,2.29.11,2.4,0s-.11-2.29,0-2.4c.09-.09,2.55-.09,2.64,0s-.07,2,0,2.4h2.4c0,.88.02,1.76,0,2.64-2.48.01-4.96-.01-7.44,0Z"
     id="path96" />
  <path
     class="cls-10"
     d="M70.8,60.45c.01-.8,0-1.6,0-2.4h2.4c-.83,4.03,2.13,2.12,2.64,2.64.08.08,0,2.01,0,2.4-.88.01-1.76,0-2.64,0-.01.88.02,1.76,0,2.64h-2.4c0-1.76-.03-3.52,0-5.28Z"
     id="path98" />
  <path
     class="cls-10"
     d="M80.88,65.73h2.4c.07.4-.1,2.31,0,2.4s2.21-.07,2.64,0v2.5c-.05.36-2.49-.01-2.64.14-.09.09.07,2,0,2.4h-2.4c0-2.47.04-4.96,0-7.44Z"
     id="path100" />
  <path
     class="cls-10"
     d="M9.12,75.8c.37-.1.92.33.96-.35.03-.41-.14-2.25.14-2.29h2.5c.07.43-.1,2.55,0,2.64s2-.07,2.4,0v2.4h-2.4c.07.6-.09,1.34,0,1.92-1.35-.63-2.45-2.33-3.33-3.52-.2-.27-.19-.68-.27-.8Z"
     id="path102" />
  <path
     class="cls-10"
     d="M73.44,7.44c3,1.9,5.02,3.63,7.44,6v1.68c-.43-.07-2.55.1-2.64,0-.11-.11.11-2.29,0-2.4s-2.29.11-2.4,0c-.1-.1.07-2.21,0-2.64h-2.64s.24-2.64.24-2.64Z"
     id="path104" />
  <path
     class="cls-10"
     d="M75.6,45.34s.22.27.25.58c.06.68-.05,1.38,0,2.06-.88.01-1.76,0-2.64,0v2.64s-2.4,0-2.4,0c0-.96.01-1.92,0-2.88,0-.08,0-.16,0-.24,0-.72-.01-1.44,0-2.16h4.8Z"
     id="path106" />
  <path
     class="cls-10"
     d="M60.72,1.92c.05,1.31-2.39.47-2.64.72-.09.09.07,2,0,2.4h-2.4c-.07-.41.1-2.31,0-2.4s-2.21.07-2.64,0V.24c2.88.39,4.93.92,7.68,1.68Z"
     id="path108" />
  <path
     class="cls-10"
     d="M7.68,22.31c-.13.73.37.45.83.48.52.03,1.05-.02,1.57,0v2.4c-.41.07-2.31-.1-2.4,0s.17,2.33-.27,2.61c-.34.21-2.22-.11-2.37.03-.09.09.07,2,0,2.4h-1.44c1.33-3.22,2.32-5.12,4.08-7.92Z"
     id="path110" />
  <path
     class="cls-9"
     d="M15.12,37.9c-.03,2.47.03,4.96,0,7.44-.11.02-.2.13-.24.24-.72-.02-1.44.01-2.16,0,0-.88.01-1.76,0-2.64-.02-1.68.02-3.36,0-5.04.8,0,1.6,0,2.4,0Z"
     id="path112" />
  <path
     class="cls-10"
     d="M13.2,15.11h1.92c-.07.43.1,2.54,0,2.64-.11.11-2.29-.11-2.4,0s.11,2.29,0,2.4c-.1.1-2.21-.07-2.64,0v-1.44c1.07-1.39,1.97-2.37,3.12-3.6Z"
     id="path114" />
  <path
     class="cls-9"
     d="M36.48,22.79c.32,0,.64,0,.96,0,.16,0,.32,0,.48,0,.48,0,.96,0,1.44,0l.36.24.12-.24c.96,0,1.92,0,2.88,0l.24.24c0,.16,0,.32,0,.48-.65-.35-.61,1.23-.48,1.68h-.72c-.53-.41-1.91-.4-2.4,0h-.96c-1.86-.49-2.96.18-2.64-2.4.24,0,.48,0,.72,0Z"
     id="path116" />
  <path
     class="cls-3"
     d="M35.76,22.79c-.32,2.58.78,1.91,2.64,2.4h-3.12c0,.8,0,1.6,0,2.4l-.24.24h-2.16c0,1.68.03,3.36,0,5.04-.88.02-1.76,0-2.64,0,.02-.88,0-1.76,0-2.64,0-.8.01-1.6,0-2.4h2.64c0-.88-.02-1.76,0-2.64h2.4v-2.4c.16,0,.32,0,.48,0Z"
     id="path118" />
  <path
     class="cls-3"
     d="M27.84,83.48v4.8c-.8,0-1.6,0-2.4,0,.04-.42.13-1.21-.24-1.44,0-.16,0-.32,0-.48v-.24c0-.08,0-.16,0-.24,0-.88,0-1.76,0-2.64.08,0,.16,0,.24,0,.72.05,1.45.24,2.4.24Z"
     id="path120" />
  <path
     class="cls-10"
     d="M88.32,73.4c-1.32,2.13-2.02,3.2-3.6,5.04-.2-.48-1.33-.13-1.44-.24-.09-.08.07-2,0-2.4h2.64c.07-.43-.1-2.54,0-2.64.09-.09,2.14-.11,2.4.24Z"
     id="path122" />
  <path
     class="cls-10"
     d="M92.16,65.73c-.73,1.86-1.18,3.2-2.16,5.04h-1.68s0-2.64,0-2.64c.43-.07,2.54.1,2.64,0,.41-.41-.95-3.05,1.2-2.4Z"
     id="path124" />
  <path
     class="cls-3"
     d="M17.76,35.26c-.02.74.21,2.19-.24,2.64-.8,0-1.6,0-2.4,0,.01-.88,0-1.76,0-2.64.88,0,1.76.01,2.64,0Z"
     id="path126" />
  <path
     class="cls-10"
     d="M68.16,53.01c.44.01,2.61-.12,2.64.14v2.5s-2.64,0-2.64,0c0-.88,0-1.76,0-2.64Z"
     id="path128" />
  <path
     class="cls-3"
     d="M25.2,70.76c.88,0,1.76,0,2.64,0,.01.8-.02,1.6,0,2.4h2.4v2.64c-.8-.02-1.6.01-2.4,0-.01-.88.02-1.76,0-2.64h-2.64c.01-.8,0-1.6,0-2.4Z"
     id="path130" />
  <path
     class="cls-3"
     d="M17.76,45.82c-.02.16,0,.32,0,.48-.46.34-.18,1.15-.24,1.68-.8.01-1.6-.02-2.4,0v-2.4c.88.02,1.85-.16,2.64.24Z"
     id="path132" />
  <path
     class="cls-9"
     d="M30.24,75.8c.88.02,1.76-.01,2.64,0,0,.8-.02,1.6,0,2.4.02.88,0,1.76,0,2.64,1.43,0,2.89-.04,4.32,0,.58.86.37,1.54.48,2.4-1.6,0-3.2,0-4.8,0,0-.8,0-1.6,0-2.4-.88,0-1.76.01-2.64,0,0,.8,0,1.6,0,2.4.88,0,1.76,0,2.64,0,0,.88-.02,1.76,0,2.64,1.68,0,3.37-.03,5.04,0,0,.08,0,.16,0,.24.02.64,0,1.28,0,1.92,0,.08,0,.16,0,.24-.88.01-1.76.02-2.64,0-.8-.01-1.6.01-2.4,0,0-.8.02-1.6,0-2.4h-2.64c.02-.88,0-1.76,0-2.64-.64,0-1.28,0-1.92,0,.03-.22-.32-.27-.48-.24,0-.72,0-1.44,0-2.16.8.02,1.6,0,2.4,0,0-.88,0-1.76,0-2.64v-2.4Z"
     id="path134" />
  <path
     class="cls-3"
     d="M68.16,53.01c-.39-.01-.93.15-1.22-.14-.46-.6.78-2.02.2-2.93-.08-.12-.67.07-.42-.53.95.15,1.07-.23,1.44-.96,0,1.52,0,3.04,0,4.56Z"
     id="path136" />
  <path
     class="cls-10"
     d="M90,25.19c-.33-.06-1.6.08-1.68,0s-.11-2.13.24-2.4c.55.86.95,1.48,1.44,2.4Z"
     id="path138" />
  <path
     class="cls-3"
     d="M70.8,47.5c0,.08,0,.16,0,.24-.77.38-1.78.26-2.64.24-.24,0-.48.01-.72,0v-.96c1.17.39,2.09.63,3.36.48Z"
     id="path140" />
  <path
     class="cls-12"
     d="M28.32,83.24c-.12,0-.36.24-.48.24-.95,0-1.68-.19-2.4-.24.85.16,1.62-.11,2.4-.24.16-.03.51.02.48.24Z"
     id="path142" />
  <path
     class="cls-3"
     d="M25.2,54.93c.76-.13.41.39.47.84.11.81.32,1.55-.23,2.28-.04.05-.22.24-.24.24-.63.15-1.7-.11-2.4,0,0-.08,0-.16,0-.24.8-.02,1.6.01,2.4,0,0-.88-.02-1.76,0-2.64,0-.16,0-.32,0-.48Z"
     id="path144" />
  <path
     class="cls-12"
     d="M17.52,47.98c.06-.53-.22-1.34.24-1.68-.01.47.18,1.53-.24,1.68Z"
     id="path146" />
  <path
     class="cls-3"
     d="M39.84,22.79l-.12.24-.36-.24c.16,0,.32,0,.48,0Z"
     id="path148" />
  <path
     class="cls-3"
     d="M42.96,23.03l-.24-.24c.08,0,.16,0,.24,0v.24Z"
     id="path150" />
  <path
     class="cls-14"
     d="M68.16,78.2c.88.01,1.76,0,2.64,0v10.07c0,.12,2.09-.09,2.4,0v.24c-1.67,1.04-3.17,2.01-5.04,2.88-.08-.49.11-3.01,0-3.12s-2.29.11-2.4,0,.11-2.29,0-2.4c-.08-.08-2.02-.03-2.4,0h-.24c.09-.65-.13-1.56,0-2.16l.24-.24c.67-.54,2.24-.08,2.4-.24.08-.09,0-2.01,0-2.4.8-.01,1.6.01,2.4,0,0-.88-.01-1.76,0-2.64Z"
     id="path152" />
  <path
     class="cls-16"
     d="M75.84,65.73c.8.01,1.6-.01,2.4,0v19.19c-.68.55-1.42,1.73-2.4,1.68.04-.21-.01-.49,0-.72.29-5.72.03-11.98,0-17.75,0-.8,0-1.6,0-2.4Z"
     id="path154" />
  <path
     class="cls-13"
     d="M63.36,85.88c.38-.03,2.32-.09,2.4,0,.11.11-.11,2.29,0,2.4s2.29-.11,2.4,0-.08,2.63,0,3.12c-1.86.86-3.13,1.28-5.04,1.92v-2.4s-2.4,0-2.4,0c0-.85-.07-1.82,0-2.64,0-.08,0-.16,0-.24.03-.24.38-1.75.46-1.82.58-.21,1.2-.05,1.79-.12.19-.02.34-.22.38-.22Z"
     id="path156" />
  <path
     class="cls-9"
     d="M60.72,90.91h2.4s0,2.4,0,2.4c-.9.3-1.46.46-2.4.72,0-1.04,0-2.08,0-3.12Z"
     id="path158" />
  <path
     class="cls-5"
     d="M95.52,53.01c-.09.94-.33,1.74-.48,2.64h-1.68s0-2.64,0-2.64h2.16Z"
     id="path160" />
  <path
     class="cls-1"
     d="M75.84,85.88c-.01.23.04.51,0,.72-.19,1.06-1.86,1.43-2.64,1.92v-2.64h2.64Z"
     id="path162" />
  <path
     class="cls-5"
     d="M94.56,37.9c.19.87.33,1.46.48,2.4h-1.68c.18-1.33-.72-2.8,1.2-2.4Z"
     id="path164" />
  <path
     class="cls-5"
     d="M20.16,8.88v1.2s-1.44,0-1.44,0c.5-.39.77-.73,1.44-1.2Z"
     id="path166" />
  <path
     class="cls-13"
     d="M32.88,85.88c.01.8-.01,1.6,0,2.4.8,0,1.6-.02,2.4,0v2.64h-2.4s0,2.4,0,2.4c-2.06-.69-3.03-1.03-5.04-1.92v-3.12c.8,0,1.6,0,2.4,0,0-.8-.02-1.6,0-2.4h2.64Z"
     id="path168" />
  <path
     class="cls-9"
     d="M35.28,90.91v3.36c-1.02-.28-1.76-.75-2.4-.96v-2.4s2.4,0,2.4,0Z"
     id="path170" />
  <path
     class="cls-14"
     d="M30.24,83.24c0,.88.02,1.76,0,2.64-.01.8.01,1.6,0,2.4-.8,0-1.6,0-2.4,0v3.12c-.97-.43-1.61-.65-2.64-1.2-.21-.68.19-1.39.24-1.92.8,0,1.6,0,2.4,0v-4.8c.12,0,.36-.24.48-.24.64,0,1.28,0,1.92,0Z"
     id="path172" />
  <path
     class="cls-5"
     d="M17.76,85.16v-1.92s2.4,0,2.4,0v2.64c-.46-.05-1.01.07-1.44,0-.78-.13-.69-.54-.96-.72Z"
     id="path174" />
  <path
     class="cls-12"
     d="M25.44,88.27c-.05.53-.45,1.24-.24,1.92-1.1-.58-1.82-1-2.88-1.68.15-.33.49-.18.72-.24.77-.2,1.34-.35,2.16-.24,0-.4,0-.8,0-1.2.37.23.28,1.02.24,1.44Z"
     id="path176" />
  <path
     class="cls-3"
     d="M37.2,80.84c.18,0,.69-.03.72,0,.23.25-.5,2.38.6,2.4,5.72.05,11.45-.07,17.16,0-.01.56.19,2.43-.24,2.64-.05.02-.15-.01-.24,0-.74.1-4.4-.16-4.56,0v2.4h4.68c.55,0,.33,2.16.36,2.64-2.56,0-5.12-.01-7.68,0,.02-.87.02-1.76,0-2.64-.01-.8.01-1.6,0-2.4-.8,0-1.6.01-2.4,0-.88-.01-1.76,0-2.64,0,0,.8.02,1.6,0,2.4-.02.87-.02,1.76,0,2.64-1.68,0-3.36,0-5.04,0,0-.88.02-1.76,0-2.64.08,0,.16,0,.24,0,.72-.02,1.44.01,2.16,0-.08-.66.12-1.54,0-2.16-.03-.18-.06-.21-.24-.24-.51-.1-1.34.01-1.92,0-.08,0-.16,0-.24,0-.04-1.03-.12-1.69-.24-2.64-.11-.86.1-1.54-.48-2.4Z"
     id="path178" />
  <path
     class="cls-9"
     d="M45.6,90.91c.8,0,1.6,0,2.4,0-.01.8.01,1.6,0,2.4h-5.04c-.01-.8.01-1.6,0-2.4.88,0,1.76,0,2.64,0Z"
     id="path180" />
  <path
     class="cls-9"
     d="M63.12,78.2c0,.88.02,1.76,0,2.64-.8.01-1.6-.01-2.4,0v2.4s2.4,0,2.4,0c0-.8-.02-1.6,0-2.4.88-.02,1.76.02,2.64,0,0,.39.09,2.31,0,2.4-.16.16-1.73-.3-2.4.24-.08.07-.21.12-.24.24-.13.6.09,1.51,0,2.16h-2.4c0,.72,0,1.44,0,2.16,0,.08,0,.16,0,.24h-5.04s0-2.26,0-2.26c.04-.25,4.49-.14,5.04-.14,0-.58.16-2.27-.22-2.53-.36-.25-4-.1-4.82-.1.02-.8-.02-1.6,0-2.4.8-.02,1.61.04,2.4,0,.6-.03,1.38.09,1.92,0l.58-.02.14-.22c.09-.1-.07-2,0-2.4.8,0,1.6.02,2.4,0Z"
     id="path182" />
  <path
     class="cls-9"
     d="M65.76,75.8c-.01.8,0,1.6,0,2.4-.88,0-1.76-.02-2.64,0,0-.8.01-1.6,0-2.4.88,0,1.76,0,2.64,0Z"
     id="path184" />
  <path
     class="cls-7"
     d="M55.2,85.88c.09-.01.19.02.24,0l-.12.24-.12-.24Z"
     id="path186" />
  <path
     class="cls-5"
     d="M5.04,53.01v2.64c-1.63-.15-2.59.71-2.59-1.32s.96-1.17,2.59-1.32Z"
     id="path188" />
  <path
     class="cls-13"
     d="M40.32,55.17c.2-1.45-.15-3.3,0-4.8h7.68c0,.8,0,1.6,0,2.4,0,.54-.06,1.16,0,1.68.02.14-.03.45,0,.48-.06.51-.03.54.48.48.15.1,1.34-.07,1.68,0h.24l.24.24v2.4c.8,0,1.6-.01,2.4,0,.02.88-.02,1.76,0,2.64h10.08c0,.39.09,2.31,0,2.4-.11.11-2.29-.11-2.4,0-.1.1.07,2.21,0,2.64h-2.64s0,5.04,0,5.04c-8.99-.13-19.03.65-27.84,0-.03,0-.28-.22-.58-.25-.38-.04-1.75.08-1.82.01-.11-.11.11-2.29,0-2.4-.09-.09-2.2.07-2.64,0,.02-3.27-.01-6.56,0-9.83.02,0,.2-.19.24-.24h2.4c.01.88,0,1.76,0,2.64h7.32c.68,0,.14-2.15.12-2.64.79,0,1.93-.12,2.64,0,.02,0,.04.3.24.24.08-.4-.09-2.3,0-2.4.15-.15,1.38.3,1.92-.24.04-.04-.03-.17,0-.24l.24-.24ZM40.32,63.09h-2.4c-.13,2.43-.25,2.91,2.4,2.64v-2.64ZM48,63.09h-2.64c-.2,2.69-.06,2.84,2.64,2.64v-2.64Z"
     id="path190" />
  <path
     class="cls-1"
     d="M35.28,27.83h-.24l.24-.24c0,.08,0,.16,0,.24Z"
     id="path192" />
  <path
     class="cls-1"
     d="M43.68,27.83c-.24,0-.48,0-.72,0,0-.08,0-.16,0-.24l.72.24Z"
     id="path194" />
  <path
     class="cls-1"
     d="M42.96,27.83c.02.8-.01,1.6,0,2.4h2.4c.03-.48-.04-.97,0-1.44l.24-.12-.24-.12c.03-.33-.13-.56.24-.72.05-.02.15.01.24,0,2.78-.34,6.89,0,9.84,0v5.04c.8,0,1.6-.02,2.4,0,.01.8-.01,1.6,0,2.4h2.64c.07.43-.1,2.54,0,2.64.11.11,2.29-.11,2.4,0s-.11,2.29,0,2.4c.1.1,2.21-.07,2.64,0v5.04c-13.5,0-27.06-.23-40.56,0v-2.4c-.8-.01-1.6.02-2.4,0,.01-.88-.01-1.76,0-2.64-.88,0-1.76,0-2.64,0,.01-.72-.01-1.44,0-2.16,1.43-.22,9.21.4,9.84-.24.53-.54.09-1.49.24-2.16l.24-.24c.31-.22.62-.19.96-.24l.12.24.12-.24c.39-.05.81.04,1.2,0,0-.8-.01-1.6,0-2.4.8-.01,1.6.01,2.4,0,0-1.68-.01-3.36,0-5.04,2.55,0,5.13.04,7.68,0ZM40.32,35.26c.88-.01,1.76,0,2.64,0-.1.49.15,2.41-.03,2.61-.16.18-2.5.38-2.61.27.01-.96-.02-1.92,0-2.88-.8.01-1.6,0-2.4,0v5.28c.41.07,2.31-.09,2.4,0,.11.11-.11,2.29,0,2.4.09.09,2.55.09,2.64,0s-.07-2,0-2.4h2.26c.36.05-.01,2.25.14,2.4.1.1,2.09-.08,2.5,0,.36-.05-.01-2.26.14-2.4.09-.09,2.64.07,2.64-.24v-4.68c0-.52-2.14-.36-2.64-.36.01.88,0,1.76,0,2.64h-2.64c-.19-3.05,0-2.64,2.64-2.64-.01-.8,0-1.6,0-2.4h-7.68c-.01.8.01,1.6,0,2.4Z"
     id="path196" />
  <path
     class="cls-14"
     d="M65.04,58.05c.24-.01.49.03.72,0,.07.44-.1,2.55,0,2.64s1.99-.07,2.4,0v7.44c.88,0,1.76.01,2.64,0,0,.32.01.64,0,.96s.02.64,0,.96c0,.08,0,.16,0,.24,0,.09.02.19,0,.24l-.24.24c-.37.08-1.01,0-1.44,0-.32,0-.64,0-.96,0,0,.8.01,1.6,0,2.4-.8.02-1.6-.01-2.4,0,0,.88.01,1.76,0,2.64-.88,0-1.76,0-2.64,0,0-.42.09-2.55,0-2.64-.11-.11-2.29.11-2.4,0s.11-2.29,0-2.4c-.09-.09-2.22,0-2.64,0v-5.04s2.64,0,2.64,0c.07-.43-.1-2.54,0-2.64.11-.11,2.29.11,2.4,0,.08-.08,0-2.01,0-2.4.01-.87-.06-1.78,0-2.64.64-.01,1.29.03,1.92,0Z"
     id="path198" />
  <path
     class="cls-8"
     d="M50.64,52.53c-.13.73.37.46.83.48,4.07.16,9.46.29,13.47.02.49-.03.59-.04.82-.5,0,.24,0,.48,0,.72,0,.16,0,.32,0,.48s0,.32,0,.48c-.02.67.28,1.65-.48,1.44-.38.04-.84-.06-1.2,0-1.02.17-.89,1.48-.96,2.4-3.34.07-6.74.05-10.08,0-.06-2.35.43-2.58-2.4-2.4l-.24-.24c0-.08,0-.16,0-.24-.06-.61-.04-1.44,0-2.06.02-.31.25-.55.25-.58Z"
     id="path200" />
  <path
     class="cls-12"
     d="M58.08,27.83v.24c0,1.04,0,2.08,0,3.12,0,.56-.01,1.12,0,1.68.88.02,1.76,0,2.64,0v.48c-.48.38-.02.6,0,.72.06.45,0,.74.24,1.2.04.07,0,.18.11.2l.13-.2h.96c.08.1.16.1.24,0h.72c.01.73-.2,2.2.24,2.64.64.64,8.41.02,9.84.24-.13.68.17,4.63,0,4.8-.11.11-2.29-.11-2.4,0-.08.08,0,2.01,0,2.4h-5.04v-5.04c-.43-.07-2.54.1-2.64,0-.11-.11.11-2.29,0-2.4s-2.29.11-2.4,0c-.1-.1.07-2.21,0-2.64h-2.64c0-.79.02-1.6,0-2.4-.8-.01-1.6.01-2.4,0v-5.04h2.4Z"
     id="path202" />
  <path
     class="cls-8"
     d="M38.16,55.41v.24c-.08,0-.16,0-.24,0h-2.64c.03.79-.04,1.6,0,2.4-2.48-.01-4.96,0-7.44,0-.02-1.67,0-3.36,0-5.04l10.08-.24c.01.86-.2,1.94.24,2.64Z"
     id="path204" />
  <path
     class="cls-11"
     d="M65.76,47.98c0,.32,0,.64,0,.96-.53.5.12,1.62-.84,1.68l-14.28-.24c0-.16,0-.32,0-.48v-1.92h15.12Z"
     id="path206" />
  <path
     class="cls-6"
     d="M65.76,50.37c-.39.24-.39,1.21,0,1.44,0,.24,0,.48,0,.72-.23.46-.33.46-.82.5-4.01.28-9.4.14-13.47-.02-.46-.02-.96.25-.83-.48.01-.4-.02-.8,0-1.2.01-.32,0-.64,0-.96l14.28.24c.96-.06.31-1.18.84-1.68.01.48,0,.96,0,1.44Z"
     id="path208" />
  <path
     class="cls-3"
     d="M27.84,47.98c.07-.11-.08-.64,0-.71.09-.09,1.19.23,1.54.25,2.02.07,5.58.25,7.46,0,.85-.11.83-.66,1.55-.73-.06,2.12-.12,4.25-.13,6.37,0,.27.33.54.31.9-.02.39-.42.91-.42,1.36-.44-.7-.23-1.78-.24-2.64-.01-.96.03-1.92,0-2.88,0-.24.02-.48,0-.72-.02-.35.05-.71-.02-1.06l-.22-.14h-9.84c-.01.8.01,1.6,0,2.4-.02.88,0,1.76,0,2.64,0,1.67-.02,3.36,0,5.04,2.48,0,4.96-.01,7.44,0-.04-.79.03-1.6,0-2.4h2.64v2.4c-.71-.12-1.85,0-2.64,0,.02.49.56,2.64-.12,2.64h-7.32c0-.88.01-1.76,0-2.64h-1.2c-.09-.56.74-1.4.75-1.55.02-.54-.37-3.49-.52-4.04-.06-.23-.72-.12-.46-.76.11-.26,1.06-.42.88-1.4s-.51-.92.15-2.25c.06-.12.39-.05.4-.07Z"
     id="path210" />
  <path
     class="cls-3"
     d="M50.4,47.98c.04-.3.03-.57.38-.69l14.86-.04c.28.03.04.6.12.73.01.02.32-.06.42.05.22.25,0,2.3-.03,2.87-.03.4.42.79-.39.68,0-.4,0-.8,0-1.2,0-.48.01-.96,0-1.44,0-.32,0-.64,0-.96h-15.36Z"
     id="path212" />
  <path
     class="cls-12"
     d="M30,37.9c-.63.63-8.41.02-9.84.24-.01.72.02,1.44,0,2.16.88,0,1.76,0,2.64,0-.01.88.01,1.76,0,2.64.8.02,1.6-.01,2.4,0v2.4c-.6.01-1.69-.12-2.16,0-.19.05-.19.06-.24.24-.09-.04-.19-.23-.24-.24.31-.79.23-1.58.24-2.4-.88-.02-1.76.01-2.64,0,.01-.88-.02-1.76,0-2.64-.8,0-1.6,0-2.4,0,.01-.8,0-1.6,0-2.4h12.24Z"
     id="path214" />
  <path
     class="cls-3"
     d="M25.2,47.98c1.02.11,1.43.2,1.22,1.31-.05.28-.7-.03-.75.26-.15.78.45,3.25-.46,3.47v-5.04Z"
     id="path216" />
  <path
     class="cls-3"
     d="M53.04,58.05c3.34.05,6.74.07,10.08,0,.07-.92-.06-2.23.96-2.4l-.24,2.16,1.2.24c-.63.03-1.28-.01-1.92,0-.06.86.01,1.77,0,2.64h-10.08c-.02-.88.02-1.76,0-2.64-.8-.01-1.6,0-2.4,0v-2.4c2.83-.18,2.34.05,2.4,2.4Z"
     id="path218" />
  <path
     class="cls-3"
     d="M65.76,54.21c.99-.15.24,1.08.31,1.52.04.22.66.88.41,1.12-.51.49-1.03-.85-1.2-1.2.76.21.46-.76.48-1.44Z"
     id="path220" />
  <path
     class="cls-3"
     d="M23.04,45.34c.31.41-.08,2.08,0,2.16.1.1,1.3-.25,1.44.48-.59-.06-1.22.21-1.68-.24.02-.56-.03-1.12,0-1.68,0-.16-.03-.35,0-.48.05-.18.05-.19.24-.24Z"
     id="path222" />
  <path
     class="cls-2"
     d="M40.08,55.65c-.54.54-1.77.08-1.92.24-.1.1.07,2,0,2.4-.19.06-.22-.24-.24-.24v-2.4c.08,0,.16,0,.24,0h1.92Z"
     id="path224" />
  <path
     class="cls-3"
     d="M48,52.77c.36.15.12.75.28.93.08.09,1.92.08-.28.75-.06-.52,0-1.14,0-1.68Z"
     id="path226" />
  <path
     class="cls-8"
     d="M50.64,49.89c-.37-.33-.31-1.41-.24-1.92h.24v1.92Z"
     id="path228" />
  <path
     class="cls-8"
     d="M65.76,51.57c0,.08,0,.16,0,.24-.39-.23-.39-1.2,0-1.44,0,.4,0,.8,0,1.2Z"
     id="path230" />
  <path
     class="cls-3"
     d="M67.2,53.73c.26.26-.22.74-.48.48s.22-.74.48-.48Z"
     id="path232" />
  <path
     class="cls-3"
     d="M48,54.93c.06.05.42-.06.48,0s-.05.44,0,.48c-.51.06-.54.03-.48-.48Z"
     id="path234" />
  <path
     class="cls-8"
     d="M50.64,51.33c-.33-.3-.33-.67,0-.96,0,.32.01.64,0,.96Z"
     id="path236" />
  <path
     class="cls-3"
     d="M65.76,53.25c.71-.15.75.61,0,.48,0-.16,0-.32,0-.48Z"
     id="path238" />
  <path
     class="cls-3"
     d="M40.08,55.41c.07-.14.24-.22.24-.24l-.24.24Z"
     id="path240" />
  <path
     class="cls-3"
     d="M50.4,55.41h-.24l.24-.24c0,.08,0,.16,0,.24Z"
     id="path242" />
  <rect
     class="cls-5"
     x="48"
     y="7.67"
     width="2.64"
     height="2.4"
     id="rect244" />
  <path
     class="cls-3"
     d="M58.08,25.19c.88.01,1.76,0,2.64,0,.01.88-.02,1.76,0,2.64-.2.02-.42,0-.48.24h-2.16v-.24c0-.72,0-1.44,0-2.16v-.48Z"
     id="path246" />
  <rect
     class="cls-5"
     x="63.12"
     y="22.79"
     width="2.64"
     height="2.4"
     id="rect248" />
  <rect
     class="cls-5"
     x="78.24"
     y="22.79"
     width="2.64"
     height="2.4"
     id="rect250" />
  <rect
     class="cls-5"
     x="17.76"
     y="22.79"
     width="2.4"
     height="2.4"
     id="rect252" />
  <rect
     class="cls-5"
     x="32.88"
     y="7.67"
     width="2.4"
     height="2.4"
     id="rect254" />
  <rect
     class="cls-5"
     x="78.24"
     y="53.01"
     width="2.64"
     height="2.64"
     id="rect256" />
  <rect
     class="cls-5"
     x="17.76"
     y="53.01"
     width="2.4"
     height="2.64"
     id="rect258" />
  <path
     class="cls-5"
     d="M24.72,55.65c.31.51.49,1.91-.15,2.12-1.54.51-1.91-.27-1.77-1.64,0-.09-.02-.19,0-.24,0-.02.22-.24.24-.24.44-.1,1.17.06,1.68,0Z"
     id="path260" />
  <path
     class="cls-4"
     d="M25.2,55.41c-.01.88.01,1.76,0,2.64-.8.01-1.6-.02-2.4,0-.03-.55-.61-1.45,0-1.92-.15,1.37.23,2.16,1.77,1.64.65-.21.46-1.61.15-2.12.07,0,.3-.26.48-.24Z"
     id="path262" />
  <path
     class="cls-4"
     d="M22.8,55.89l.24-.24s-.23.22-.24.24Z"
     id="path264" />
  <rect
     class="cls-5"
     x="63.12"
     y="7.67"
     width="2.64"
     height="2.4"
     id="rect266" />
  <rect
     class="cls-5"
     x="17.76"
     y="68.12"
     width="2.4"
     height="2.64"
     id="rect268" />
  <rect
     class="cls-5"
     x="2.64"
     y="37.9"
     width="2.4"
     height="2.4"
     id="rect270" />
  <path
     class="cls-5"
     d="M25.2,85.88c0,.08,0,.16,0,.24s0,.16,0,.24c0,.16,0,.32,0,.48,0,.4,0,.8,0,1.2-.82-.12-1.4.04-2.16.24l-.24-2.4h2.4Z"
     id="path272" />
  <path
     class="cls-5"
     d="M35.28,22.79v2.4h-2.4c.01-.8-.01-1.6,0-2.4.8-.01,1.6.02,2.4,0Z"
     id="path274" />
  <path
     class="cls-5"
     d="M37.44,22.79c-.32,0-.64,0-.96,0,.1-.37.88-.36.96,0Z"
     id="path276" />
  <path
     class="cls-4"
     d="M73.44,35.26c.65.09,1.67.64,2.4.72,0,.16,0,.32,0,.48,0,.14,0,.34,0,.48,0,.16,0,.32,0,.48l-11.76.48h-.48c-.5-1.63-.48-2.26,1.36-2.31,2.29-.06,4.79.23,7.17.15.46-.02.96.24.83-.48.16.01.33-.02.48,0Z"
     id="path278" />
  <path
     class="cls-4"
     d="M75.84,38.14c.31.09,2.4-.12,2.4,0v7.2h-2.4c0-2.31.01-4.64,0-6.96,0-.08,0-.16,0-.24Z"
     id="path280" />
  <path
     class="cls-5"
     d="M75.84,37.42c0,.16,0,.32,0,.48h-11.76l11.76-.48Z"
     id="path282" />
  <path
     class="cls-5"
     d="M75.84,36.94c0-.14,0-.34,0-.48v.48Z"
     id="path284" />
  <path
     class="cls-12"
     d="M18,45.34c-.24.07-.22.28-.24.48-.79-.4-1.76-.22-2.64-.24-.08,0-.16,0-.24,0,.04-.11.13-.22.24-.24.08-.01.16,0,.24,0,.76-.03,1.92-.24,2.4-.24.07,0,.19.24.24.24Z"
     id="path286" />
  <polygon
     class="cls-5"
     points="25.68 73.16 25.92 73.16 25.8 73.4 25.68 73.16"
     id="polygon288" />
  <path
     class="cls-4"
     d="M38.4,25.19h4.08c.27.96.42.89.48,2.4,0,.08,0,.16,0,.24-2.55.04-5.13,0-7.68,0,0-.08,0-.16,0-.24,0-.8,0-1.6,0-2.4h3.12Z"
     id="path290" />
  <path
     class="cls-4"
     d="M46.08,25.19l12,.48c0,.72,0,1.44,0,2.16h-2.4c-2.95,0-7.06-.34-9.84,0l-.12-.24-.12.24c-.37.16-.21.39-.24.72,0,.08,0,.16,0,.24-.03.48.03.96,0,1.44h-2.4c-.01-.8.02-1.6,0-2.4.24,0,.48,0,.72,0,.56-.02,1.12.01,1.68,0,0-.88-.02-1.76,0-2.64.24,0,.48,0,.72,0Z"
     id="path292" />
  <path
     class="cls-4"
     d="M35.04,27.83h.24c0,1.68,0,3.36,0,5.04-.8,0-1.6-.02-2.4,0-.01.8,0,1.6,0,2.4-.39.03-.81-.05-1.2,0-.08,0-.16-.01-.24,0-.34.05-.65.02-.96.24-.1.07-.21.11-.24.24-.15.67.29,1.62-.24,2.16h-12.24c0,.8.01,1.6,0,2.4-.03,1.6.02,3.2,0,4.8-.48,0-1.64.21-2.4.24.19-.95-.25-6.94,0-7.2.16-.16,1.61.31,2.16-.24.45-.45.22-1.9.24-2.64.32,0,.64,0,.96,0,1.29.4,3.25.4,4.56,0,1.68,0,3.36,0,5.04,0,.33.48.61,0,.72,0,.27-.02,1.15.06,1.2,0,.09-.08,0-2.01,0-2.4.88,0,1.76.02,2.64,0,.03-1.67,0-3.36,0-5.04h2.16Z"
     id="path294" />
  <path
     class="cls-5"
     d="M58.08,25.19v.48l-12-.48c4,.04,8.01-.06,12,0Z"
     id="path296" />
  <path
     class="cls-5"
     d="M72.96,35.26c.13.72-.37.46-.83.48-2.38.08-4.88-.21-7.17-.15-1.84.05-1.86.68-1.36,2.31h-.24c-.44-.44-.23-1.9-.24-2.64,3.1,0,6.84-.27,9.84,0Z"
     id="path298" />
  <path
     class="cls-10"
     d="M63.12,32.86c0,.8-.01,1.6,0,2.4h-.72c.56-.73.55-1.25.48-2.16-.64.04-1.64-.17-2.16.24v-.48c.8,0,1.6,0,2.4,0Z"
     id="path300" />
  <path
     class="cls-15"
     d="M68.64,73.16c.72.02,1.44-.01,2.16,0v2.64c-.88,0-1.76-.01-2.64,0,0,.8.01,1.6,0,2.4-.8-.01-1.6,0-2.4,0,0,.88.02,1.76,0,2.64-.88.02-1.76-.02-2.64,0-.01.8.01,1.6,0,2.4h-2.4s0-2.4,0-2.4c.8,0,1.6.02,2.4,0,.02-.88,0-1.76,0-2.64.88-.02,1.76,0,2.64,0,0-.8-.01-1.6,0-2.4.8,0,1.6.01,2.4,0,0-.88-.01-1.76,0-2.64.16,0,.32,0,.48,0Z"
     id="path302" />
  <path
     class="cls-15"
     d="M25.2,68.12c.44.07,2.55-.1,2.64,0,.11.11-.11,2.29,0,2.4.07.07,1.45-.05,1.82-.01.3.03.55.25.58.25v2.4c9.28,0,18.56,0,27.84,0v2.64c1.67,0,3.36,0,5.04,0,.01.8,0,1.6,0,2.4-.8.01-1.6-.01-2.4,0-.07.4.09,2.3,0,2.4-.03.03-.68.23-.72.24-.54.09-1.32-.03-1.92,0v-2.64s-25.2,0-25.2,0c-.01-.8.01-1.6,0-2.4-.88-.01-1.76.02-2.64,0v-2.64h-2.4c-.02-.8.01-1.6,0-2.4-.88,0-1.76,0-2.64,0,0-.88,0-1.76,0-2.64Z"
     id="path304" />
  <path
     class="cls-5"
     d="M23.28,35.26c-1.31.4-3.27.4-4.56,0,1.52-.01,3.04,0,4.56,0Z"
     id="path306" />
  <path
     class="cls-5"
     d="M29.04,35.26c-.11,0-.39.48-.72,0h.72Z"
     id="path308" />
  <path
     class="cls-10"
     d="M17.52,37.9c-.55.55-2,.08-2.16.24-.25.26.19,6.25,0,7.2-.08,0-.16-.01-.24,0,.03-2.47-.03-4.96,0-7.44.8,0,1.6,0,2.4,0Z"
     id="path310" />
  <path
     class="cls-3"
     d="M42.96,23.51v1.68c.8,0,1.6-.02,2.4,0-.01.88,0,1.76,0,2.64-.56.01-1.12-.02-1.68,0l-.72-.24c-.06-1.51-.21-1.44-.48-2.4-.13-.45-.17-2.03.48-1.68Z"
     id="path312" />
  <path
     class="cls-3"
     d="M41.76,25.19h-2.4c.49-.4,1.87-.41,2.4,0Z"
     id="path314" />
  <path
     class="cls-12"
     d="M25.2,86.36c0-.08,0-.16,0-.24v.24Z"
     id="path316" />
  <path
     class="cls-4"
     d="M60.24,28.07h.48c0,.24,0,.48,0,.72-.37.1-.36.88,0,.96,0,.24,0,.48,0,.72-.36.03-.36.69,0,.72v1.2c-1.61.44-2.31.63-2.64-1.2,0-1.04,0-2.08,0-3.12h2.16Z"
     id="path318" />
  <path
     class="cls-5"
     d="M60.72,32.38v.48c-.88,0-1.76.02-2.64,0-.01-.56,0-1.12,0-1.68.33,1.83,1.03,1.64,2.64,1.2Z"
     id="path320" />
  <path
     class="cls-5"
     d="M60.72,29.74c-.36-.08-.37-.86,0-.96,0,.32,0,.64,0,.96Z"
     id="path322" />
  <path
     class="cls-5"
     d="M60.72,31.18c-.36-.03-.36-.69,0-.72,0,.24,0,.48,0,.72Z"
     id="path324" />
  <path
     class="cls-5"
     d="M60.72,27.83c0,.08,0,.16,0,.24h-.48c.06-.23.28-.22.48-.24Z"
     id="path326" />
  <path
     class="cls-15"
     d="M32.88,80.84c0,.8,0,1.6,0,2.4,1.6,0,3.2,0,4.8,0,.12.95.2,1.61.24,2.64-1.67-.03-3.36,0-5.04,0-.02-.88,0-1.76,0-2.64-.88,0-1.76,0-2.64,0,0-.8,0-1.6,0-2.4.88.01,1.76,0,2.64,0Z"
     id="path328" />
  <path
     class="cls-9"
     d="M73.2,68.36v19.91c-.31-.09-2.4.12-2.4,0v-10.07c-.88,0-1.76.01-2.64,0,.01-.8,0-1.6,0-2.4.88-.01,1.76,0,2.64,0v-2.64c-.72-.01-1.44.02-2.16,0,.03-.48-.36-1.08-.22-1.53.12-.37.9-.31.7-.87.43,0,1.07.08,1.44,0,.23-.05.17-.12.24-.24.02-.05,0-.15,0-.24l.24-.12-.24-.12c.02-.32-.01-.64,0-.96.54-.99.56-.3.73-.17.76.62.33-.38.49-.53.14-.13.88.03,1.19-.03Z"
     id="path330" />
  <path
     class="cls-3"
     d="M68.16,78.2c-.01.88,0,1.76,0,2.64-.8,0-1.6-.02-2.4,0,.02-.88,0-1.76,0-2.64.8,0,1.6-.01,2.4,0Z"
     id="path332" />
  <path
     class="cls-2"
     d="M63.12,85.88h.24s-.19.2-.38.22c-.6.07-1.21-.09-1.79.12-.09.06-.44,1.57-.46,1.82,0-.72,0-1.44,0-2.16h2.4Z"
     id="path334" />
  <path
     class="cls-16"
     d="M63.12,83.72c.03-.12.16-.17.24-.24l-.24.24Z"
     id="path336" />
  <path
     class="cls-15"
     d="M75.84,68.12c.03,5.77.29,12.03,0,17.75h-2.64v-17.51c.84-.14,1.7-.4,2.64-.24Z"
     id="path338" />
  <path
     class="cls-2"
     d="M32.88,78.2h25.2s0,2.64,0,2.64c-.8.03-1.61-.03-2.4,0-.01.8.02,1.6,0,2.4-5.72-.07-11.44.05-17.16,0-1.1-.02-.37-2.15-.6-2.4-.03-.03-.54,0-.72,0-1.43-.04-2.89,0-4.32,0,0-.88.02-1.76,0-2.64Z"
     id="path340" />
  <path
     class="cls-12"
     d="M48,88.27c.02.87.02,1.76,0,2.64-.8,0-1.6,0-2.4,0l-.24-2.64c.08,0,.16,0,.24,0,.79-.04,1.6.03,2.4,0Z"
     id="path342" />
  <path
     class="cls-13"
     d="M45.6,85.88v2.4c-.08,0-.16,0-.24,0-.82.03-1.53.47-2.4,0,.01-.8-.01-1.6,0-2.4.88,0,1.76-.01,2.64,0Z"
     id="path344" />
  <path
     class="cls-1"
     d="M45.36,88.27l.24,2.64c-.88,0-1.76,0-2.64,0-.02-.87-.02-1.76,0-2.64.87.47,1.58.03,2.4,0Z"
     id="path346" />
  <path
     class="cls-1"
     d="M45.6,85.88c.8.01,1.6,0,2.4,0,0,.8-.02,1.6,0,2.4-.8.03-1.61-.04-2.4,0v-2.4Z"
     id="path348" />
  <path
     class="cls-15"
     d="M40.08,85.88l.24.24c.12.62-.08,1.5,0,2.16-.72.01-1.44-.02-2.16,0l-.24-.24c0-.64.02-1.28,0-1.92l.24-.24c.58.01,1.41-.1,1.92,0Z"
     id="path350" />
  <path
     class="cls-7"
     d="M37.92,86.12c0-.08,0-.16,0-.24.08,0,.16,0,.24,0l-.24.24Z"
     id="path352" />
  <path
     class="cls-7"
     d="M40.32,86.12l-.24-.24c.18.03.21.06.24.24Z"
     id="path354" />
  <path
     class="cls-7"
     d="M38.16,88.27c-.08,0-.16,0-.24,0,0-.08,0-.16,0-.24l.24.24Z"
     id="path356" />
  <path
     class="cls-2"
     d="M58.08,70.76c.42,0,2.55-.09,2.64,0,.11.11-.11,2.29,0,2.4s2.29-.11,2.4,0c.09.09,0,2.22,0,2.64-1.68,0-3.36,0-5.04,0v-2.64c-9.27,0-18.56,0-27.84,0v-2.4c8.81.65,18.85-.13,27.84,0Z"
     id="path358" />
  <path
     class="cls-14"
     d="M48,63.09v2.64c-2.7.2-2.84.05-2.64-2.64h2.64Z"
     id="path360" />
  <path
     class="cls-14"
     d="M40.32,63.09v2.64c-2.65.27-2.53-.21-2.4-2.64h2.4Z"
     id="path362" />
  <path
     class="cls-4"
     d="M40.32,35.26c.01-.8-.01-1.6,0-2.4h7.68c0,.8-.01,1.6,0,2.4-2.65,0-2.83-.41-2.64,2.64h2.64c-.01-.88.01-1.76,0-2.64.5,0,2.64-.16,2.64.36v4.68c0,.31-2.55.14-2.64.24-.15.15.22,2.35-.14,2.4-.42-.08-2.41.09-2.5,0-.15-.15.22-2.35-.14-2.4h-2.26c-.07.41.1,2.31,0,2.4s-2.55.09-2.64,0c-.11-.11.11-2.29,0-2.4-.09-.09-2,.07-2.4,0v-5.28c.8,0,1.6.01,2.4,0-.02.96.01,1.92,0,2.88.11.11,2.46-.08,2.61-.27.18-.21-.07-2.12.03-2.61-.88.01-1.76-.01-2.64,0Z"
     id="path364" />
  <path
     class="cls-5"
     d="M30.24,35.74c.03-.13.14-.17.24-.24l-.24.24Z"
     id="path366" />
  <path
     class="cls-5"
     d="M31.44,35.26c.08-.01.16,0,.24,0l-.12.24-.12-.24Z"
     id="path368" />
  <path
     class="cls-5"
     d="M45.84,27.83c-.09.01-.19-.02-.24,0l.12-.24.12.24Z"
     id="path370" />
  <path
     class="cls-5"
     d="M45.36,28.79c0-.08,0-.16,0-.24l.24.12-.24.12Z"
     id="path372" />
  <path
     class="cls-3"
     d="M69.12,70.76c.2.56-.58.5-.7.87-.14.44.25,1.05.22,1.53-.16,0-.32,0-.48,0-.01.88,0,1.76,0,2.64-.8.01-1.6,0-2.4,0,.01-.88,0-1.76,0-2.64.8,0,1.6.02,2.4,0,.01-.8-.01-1.6,0-2.4.32,0,.64,0,.96,0Z"
     id="path374" />
  <path
     class="cls-3"
     d="M70.8,70.28c0-.08,0-.16,0-.24l.24.12-.24.12Z"
     id="path376" />
  <path
     class="cls-3"
     d="M70.56,70.76l.24-.24c-.07.12,0,.19-.24.24Z"
     id="path378" />
  <path
     class="cls-3"
     d="M64.08,37.9h9.12v.24c-1.43-.22-9.2.4-9.84-.24h.72Z"
     id="path380" />
  <path
     class="cls-6"
     d="M37.92,52.77l-10.08.24c0-.88-.02-1.76,0-2.64.43.14.85.22,1.31.25,2.03.11,5.78.24,7.71,0,.63-.07.73-.27,1.06-.74.03.96-.01,1.92,0,2.88Z"
     id="path382" />
  <path
     class="cls-9"
     d="M20.16,40.3c-.02.88.01,1.76,0,2.64.88.01,1.76-.02,2.64,0-.01.82.07,1.61-.24,2.4-.87-.15-2.38.01-3.36,0h-.48c-.24,0-.48,0-.72,0-.05,0-.17-.24-.24-.24.02-1.6-.03-3.2,0-4.8.8,0,1.6,0,2.4,0Z"
     id="path384" />
  <path
     class="cls-12"
     d="M22.8,47.74c-.38-.37-.42-1.33,0-1.68-.03.56.02,1.12,0,1.68Z"
     id="path386" />
  <path
     class="cls-12"
     d="M19.2,45.34c-.13,0-.35,0-.48,0h.48Z"
     id="path388" />
  <path
     class="cls-11"
     d="M37.68,47.98c.01.38-.15.99.24,1.2.02.24,0,.48,0,.72-.34.46-.44.66-1.06.74-1.92.23-5.68.1-7.71,0-.45-.02-.88-.11-1.31-.25.01-.8-.01-1.6,0-2.4h9.84Z"
     id="path390" />
  <path
     class="cls-6"
     d="M37.92,49.17c-.39-.2-.23-.82-.24-1.2l.22.14c.07.35,0,.71.02,1.06Z"
     id="path392" />
  <path
     class="cls-4"
     d="M60.72,33.34c.52-.41,1.52-.2,2.16-.24.07.91.08,1.43-.48,2.16h-1.44c-.25-.46-.18-.75-.24-1.2v-.72Z"
     id="path394" />
  <path
     class="cls-16"
     d="M60.72,80.6l-.14.22-.58.02s.69-.21.72-.24Z"
     id="path396" />
  <path
     class="cls-5"
     d="M60.72,34.06c-.02-.12-.48-.34,0-.72v.72Z"
     id="path398" />
  <path
     class="cls-5"
     d="M62.16,35.26h.24c-.08.1-.16.1-.24,0Z"
     id="path400" />
  <path
     class="cls-5"
     d="M60.96,35.26h.24l-.13.2c-.12-.02-.08-.13-.11-.2Z"
     id="path402" />
</svg>
